<svg width="645" height="209" viewBox="0 0 645 209" fill="none" xmlns="http://www.w3.org/2000/svg">
<path fill-rule="evenodd" clip-rule="evenodd" d="M559.5 171C606.72 171 645 132.72 645 85.5C645 38.2797 606.72 0 559.5 0C512.28 0 474 38.2797 474 85.5C474 132.72 512.28 171 559.5 171ZM559.5 152C596.227 152 626 122.227 626 85.5C626 48.7731 596.227 19 559.5 19C522.773 19 493 48.7731 493 85.5C493 122.227 522.773 152 559.5 152Z" fill="#213E88"/>
<path fill-rule="evenodd" clip-rule="evenodd" d="M553 0C518.902 2.64332 490.377 25.2226 479 56.1299L497.617 61C506.587 38.6137 527.244 22.1981 552.016 19.3489L553 0Z" fill="#D7E9FF"/>
<path d="M543.926 73.3027V75.327C543.926 75.9324 543.863 76.4243 543.737 76.8027C543.61 77.1685 543.484 77.4775 543.358 77.7297L532.976 99.0703C532.761 99.5117 532.458 99.8901 532.067 100.205C531.675 100.508 531.151 100.659 530.494 100.659H527.103L537.693 79.7541C537.933 79.3252 538.167 78.9342 538.394 78.5811C538.634 78.2153 538.899 77.8685 539.19 77.5405H526.08C525.789 77.5405 525.537 77.4333 525.322 77.2189C525.107 77.0045 525 76.7523 525 76.4622V73.3027H543.926Z" fill="#213E88"/>
<path d="M564.352 86.9811C564.352 89.3649 564.093 91.4396 563.575 93.2054C563.07 94.9586 562.363 96.409 561.453 97.5568C560.557 98.7045 559.489 99.5622 558.252 100.13C557.027 100.685 555.7 100.962 554.273 100.962C552.846 100.962 551.52 100.685 550.295 100.13C549.082 99.5622 548.028 98.7045 547.131 97.5568C546.234 96.409 545.533 94.9586 545.028 93.2054C544.523 91.4396 544.27 89.3649 544.27 86.9811C544.27 84.5847 544.523 82.5099 545.028 80.7568C545.533 79.0036 546.234 77.5532 547.131 76.4054C548.028 75.2577 549.082 74.4063 550.295 73.8514C551.52 73.2838 552.846 73 554.273 73C555.7 73 557.027 73.2838 558.252 73.8514C559.489 74.4063 560.557 75.2577 561.453 76.4054C562.363 77.5532 563.07 79.0036 563.575 80.7568C564.093 82.5099 564.352 84.5847 564.352 86.9811ZM559.521 86.9811C559.521 85.0009 559.376 83.3613 559.085 82.0622C558.795 80.7631 558.403 79.7288 557.911 78.9595C557.431 78.1901 556.875 77.6541 556.243 77.3513C555.612 77.036 554.955 76.8784 554.273 76.8784C553.604 76.8784 552.953 77.036 552.322 77.3513C551.703 77.6541 551.154 78.1901 550.674 78.9595C550.194 79.7288 549.808 80.7631 549.518 82.0622C549.24 83.3613 549.101 85.0009 549.101 86.9811C549.101 88.9613 549.24 90.6009 549.518 91.9C549.808 93.1991 550.194 94.2333 550.674 95.0027C551.154 95.7721 551.703 96.3144 552.322 96.6297C552.953 96.9324 553.604 97.0838 554.273 97.0838C554.955 97.0838 555.612 96.9324 556.243 96.6297C556.875 96.3144 557.431 95.7721 557.911 95.0027C558.403 94.2333 558.795 93.1991 559.085 91.9C559.376 90.6009 559.521 88.9613 559.521 86.9811Z" fill="#213E88"/>
<path d="M577.522 79.9243C577.522 80.9586 577.345 81.8919 576.991 82.7243C576.65 83.5568 576.189 84.2694 575.608 84.8622C575.027 85.4423 574.352 85.8901 573.581 86.2054C572.811 86.5207 572.009 86.6784 571.175 86.6784C570.266 86.6784 569.426 86.5207 568.656 86.2054C567.885 85.8901 567.216 85.4423 566.647 84.8622C566.092 84.2694 565.656 83.5568 565.34 82.7243C565.024 81.8919 564.866 80.9586 564.866 79.9243C564.866 78.8649 565.024 77.9063 565.34 77.0486C565.656 76.191 566.092 75.4658 566.647 74.873C567.216 74.2802 567.885 73.8261 568.656 73.5108C569.426 73.1829 570.266 73.0189 571.175 73.0189C572.085 73.0189 572.924 73.1829 573.695 73.5108C574.478 73.8261 575.154 74.2802 575.722 74.873C576.29 75.4658 576.732 76.191 577.048 77.0486C577.364 77.9063 577.522 78.8649 577.522 79.9243ZM573.922 79.9243C573.922 79.1928 573.846 78.5811 573.695 78.0892C573.556 77.5973 573.36 77.2 573.108 76.8973C572.868 76.5946 572.577 76.3802 572.236 76.2541C571.908 76.1153 571.554 76.0459 571.175 76.0459C570.796 76.0459 570.443 76.1153 570.114 76.2541C569.786 76.3802 569.502 76.5946 569.262 76.8973C569.034 77.2 568.851 77.5973 568.712 78.0892C568.573 78.5811 568.504 79.1928 568.504 79.9243C568.504 80.6306 568.573 81.2234 568.712 81.7027C568.851 82.1694 569.034 82.5477 569.262 82.8378C569.502 83.1279 569.786 83.336 570.114 83.4622C570.443 83.5883 570.796 83.6513 571.175 83.6513C571.554 83.6513 571.908 83.5883 572.236 83.4622C572.577 83.336 572.868 83.1279 573.108 82.8378C573.36 82.5477 573.556 82.1694 573.695 81.7027C573.846 81.2234 573.922 80.6306 573.922 79.9243ZM586.634 74.0405C586.799 73.8514 586.988 73.6811 587.203 73.5297C587.43 73.3784 587.746 73.3027 588.15 73.3027H591.56L571.213 99.9595C571.049 100.161 570.853 100.332 570.626 100.47C570.398 100.596 570.121 100.659 569.792 100.659H566.306L586.634 74.0405ZM593 94.227C593 95.2613 592.823 96.1946 592.47 97.027C592.129 97.8595 591.668 98.5721 591.087 99.1649C590.506 99.745 589.83 100.199 589.059 100.527C588.289 100.842 587.487 101 586.653 101C585.744 101 584.904 100.842 584.134 100.527C583.363 100.199 582.694 99.745 582.125 99.1649C581.57 98.5721 581.134 97.8595 580.818 97.027C580.503 96.1946 580.345 95.2613 580.345 94.227C580.345 93.1676 580.503 92.209 580.818 91.3514C581.134 90.4937 581.57 89.7685 582.125 89.1757C582.694 88.5829 583.363 88.1288 584.134 87.8135C584.904 87.4856 585.744 87.3216 586.653 87.3216C587.563 87.3216 588.403 87.4856 589.173 87.8135C589.956 88.1288 590.626 88.5829 591.181 89.1757C591.75 89.7685 592.192 90.4937 592.507 91.3514C592.836 92.209 593 93.1676 593 94.227ZM589.381 94.227C589.381 93.4955 589.312 92.8838 589.173 92.3919C589.034 91.9 588.838 91.5027 588.586 91.2C588.346 90.8973 588.055 90.6829 587.714 90.5568C587.386 90.418 587.032 90.3486 586.653 90.3486C586.274 90.3486 585.921 90.418 585.592 90.5568C585.264 90.6829 584.98 90.8973 584.74 91.2C584.5 91.5027 584.31 91.9 584.172 92.3919C584.045 92.8838 583.982 93.4955 583.982 94.227C583.982 94.9333 584.045 95.5261 584.172 96.0054C584.31 96.4847 584.5 96.8694 584.74 97.1595C584.98 97.4495 585.264 97.6577 585.592 97.7838C585.921 97.9099 586.274 97.973 586.653 97.973C587.032 97.973 587.386 97.9099 587.714 97.7838C588.055 97.6577 588.346 97.4495 588.586 97.1595C588.838 96.8694 589.034 96.4847 589.173 96.0054C589.312 95.5261 589.381 94.9333 589.381 94.227Z" fill="#213E88"/>
<path d="M502.324 200.956C502.883 200.956 503.37 200.891 503.785 200.759C504.201 200.621 504.544 200.427 504.816 200.179C505.096 199.924 505.303 199.617 505.439 199.26C505.575 198.895 505.643 198.49 505.643 198.045C505.643 197.622 505.575 197.239 505.439 196.896C505.303 196.553 505.1 196.261 504.828 196.021C504.556 195.78 504.212 195.597 503.797 195.473C503.381 195.342 502.891 195.276 502.324 195.276H500.047V200.956H502.324ZM502.324 193C503.419 193 504.367 193.124 505.167 193.372C505.968 193.62 506.629 193.967 507.15 194.412C507.671 194.857 508.056 195.389 508.305 196.01C508.562 196.63 508.69 197.308 508.69 198.045C508.69 198.811 508.558 199.515 508.294 200.157C508.03 200.792 507.633 201.339 507.105 201.799C506.576 202.259 505.911 202.616 505.111 202.871C504.318 203.127 503.389 203.254 502.324 203.254H500.047V208.825H497V193H502.324Z" fill="#213E88"/>
<path d="M511.915 199.544C512.278 198.873 512.708 198.348 513.206 197.969C513.705 197.582 514.294 197.389 514.974 197.389C515.51 197.389 515.94 197.502 516.265 197.728L516.084 199.752C516.046 199.884 515.989 199.979 515.914 200.037C515.846 200.088 515.751 200.114 515.631 200.114C515.517 200.114 515.347 200.095 515.121 200.059C514.902 200.022 514.687 200.004 514.475 200.004C514.166 200.004 513.89 200.048 513.648 200.135C513.407 200.223 513.188 200.351 512.991 200.518C512.802 200.679 512.633 200.876 512.481 201.109C512.338 201.343 512.202 201.609 512.074 201.908V208.825H509.276V197.596H510.918C511.205 197.596 511.405 197.648 511.519 197.75C511.632 197.845 511.707 198.02 511.745 198.275L511.915 199.544Z" fill="#213E88"/>
<path d="M523.751 201.919C523.751 201.569 523.698 201.241 523.592 200.934C523.494 200.621 523.343 200.347 523.139 200.114C522.935 199.88 522.674 199.698 522.357 199.566C522.048 199.428 521.685 199.358 521.27 199.358C520.462 199.358 519.823 199.581 519.355 200.026C518.895 200.471 518.6 201.102 518.472 201.919H523.751ZM518.415 203.55C518.46 204.126 518.566 204.626 518.732 205.049C518.898 205.465 519.117 205.812 519.389 206.089C519.661 206.359 519.982 206.563 520.352 206.702C520.73 206.833 521.145 206.899 521.598 206.899C522.051 206.899 522.44 206.848 522.765 206.746C523.097 206.643 523.384 206.53 523.626 206.406C523.875 206.282 524.09 206.169 524.272 206.067C524.46 205.965 524.642 205.914 524.815 205.914C525.049 205.914 525.223 205.998 525.336 206.166L526.141 207.15C525.831 207.501 525.484 207.796 525.099 208.037C524.713 208.27 524.309 208.46 523.886 208.606C523.471 208.745 523.044 208.843 522.606 208.902C522.176 208.96 521.757 208.989 521.349 208.989C520.541 208.989 519.79 208.861 519.095 208.606C518.4 208.343 517.796 207.96 517.282 207.457C516.769 206.946 516.365 206.319 516.07 205.575C515.776 204.823 515.628 203.955 515.628 202.97C515.628 202.204 515.757 201.485 516.014 200.814C516.27 200.135 516.637 199.548 517.112 199.052C517.596 198.549 518.181 198.151 518.868 197.859C519.563 197.567 520.345 197.421 521.213 197.421C521.946 197.421 522.622 197.534 523.241 197.761C523.86 197.987 524.392 198.319 524.838 198.756C525.284 199.187 525.631 199.72 525.88 200.354C526.137 200.982 526.265 201.7 526.265 202.51C526.265 202.919 526.22 203.196 526.129 203.342C526.039 203.481 525.865 203.55 525.608 203.55H518.415Z" fill="#213E88"/>
<path d="M534.324 199.785C534.248 199.902 534.169 199.986 534.086 200.037C534.003 200.081 533.897 200.103 533.769 200.103C533.633 200.103 533.485 200.066 533.327 199.993C533.176 199.92 532.998 199.84 532.794 199.752C532.59 199.658 532.356 199.574 532.092 199.501C531.835 199.428 531.529 199.391 531.174 199.391C530.623 199.391 530.189 199.504 529.872 199.731C529.562 199.957 529.407 200.252 529.407 200.617C529.407 200.858 529.487 201.062 529.645 201.23C529.811 201.39 530.027 201.533 530.291 201.657C530.563 201.781 530.869 201.894 531.208 201.996C531.548 202.091 531.892 202.197 532.239 202.313C532.594 202.43 532.942 202.565 533.281 202.718C533.621 202.864 533.923 203.054 534.188 203.287C534.46 203.513 534.675 203.787 534.833 204.108C535 204.429 535.083 204.816 535.083 205.268C535.083 205.808 534.981 206.308 534.777 206.767C534.58 207.22 534.286 207.614 533.893 207.949C533.5 208.278 533.013 208.537 532.432 208.726C531.858 208.909 531.193 209 530.438 209C530.038 209 529.645 208.964 529.26 208.891C528.882 208.825 528.516 208.73 528.161 208.606C527.814 208.482 527.489 208.336 527.187 208.168C526.892 208 526.632 207.818 526.405 207.621L527.051 206.592C527.134 206.468 527.232 206.373 527.346 206.308C527.459 206.242 527.602 206.209 527.776 206.209C527.95 206.209 528.112 206.257 528.263 206.352C528.422 206.446 528.603 206.549 528.807 206.658C529.011 206.767 529.249 206.87 529.521 206.964C529.8 207.059 530.151 207.107 530.574 207.107C530.906 207.107 531.19 207.07 531.424 206.997C531.665 206.917 531.862 206.815 532.013 206.691C532.171 206.567 532.285 206.425 532.353 206.264C532.428 206.096 532.466 205.925 532.466 205.75C532.466 205.487 532.383 205.272 532.217 205.104C532.058 204.936 531.843 204.79 531.571 204.666C531.307 204.542 531.001 204.433 530.653 204.338C530.314 204.236 529.962 204.126 529.6 204.01C529.245 203.893 528.894 203.758 528.546 203.605C528.207 203.444 527.901 203.244 527.629 203.003C527.364 202.762 527.149 202.466 526.983 202.116C526.824 201.766 526.745 201.343 526.745 200.847C526.745 200.387 526.84 199.949 527.028 199.534C527.217 199.118 527.493 198.756 527.855 198.45C528.225 198.136 528.682 197.888 529.226 197.706C529.777 197.516 530.412 197.421 531.129 197.421C531.93 197.421 532.658 197.549 533.315 197.804C533.972 198.06 534.52 198.395 534.958 198.811L534.324 199.785Z" fill="#213E88"/>
<path d="M543.544 201.919C543.544 201.569 543.491 201.241 543.385 200.934C543.287 200.621 543.136 200.347 542.932 200.114C542.728 199.88 542.467 199.698 542.15 199.566C541.841 199.428 541.478 199.358 541.063 199.358C540.255 199.358 539.617 199.581 539.148 200.026C538.688 200.471 538.393 201.102 538.265 201.919H543.544ZM538.208 203.55C538.253 204.126 538.359 204.626 538.525 205.049C538.691 205.465 538.91 205.812 539.182 206.089C539.454 206.359 539.775 206.563 540.145 206.702C540.523 206.833 540.938 206.899 541.391 206.899C541.844 206.899 542.233 206.848 542.558 206.746C542.89 206.643 543.177 206.53 543.419 206.406C543.668 206.282 543.883 206.169 544.065 206.067C544.253 205.965 544.435 205.914 544.608 205.914C544.843 205.914 545.016 205.998 545.129 206.166L545.934 207.15C545.624 207.501 545.277 207.796 544.892 208.037C544.506 208.27 544.102 208.46 543.679 208.606C543.264 208.745 542.837 208.843 542.399 208.902C541.969 208.96 541.55 208.989 541.142 208.989C540.334 208.989 539.583 208.861 538.888 208.606C538.193 208.343 537.589 207.96 537.075 207.457C536.562 206.946 536.158 206.319 535.863 205.575C535.569 204.823 535.421 203.955 535.421 202.97C535.421 202.204 535.55 201.485 535.807 200.814C536.063 200.135 536.43 199.548 536.905 199.052C537.389 198.549 537.974 198.151 538.661 197.859C539.356 197.567 540.138 197.421 541.006 197.421C541.739 197.421 542.415 197.534 543.034 197.761C543.653 197.987 544.185 198.319 544.631 198.756C545.077 199.187 545.424 199.72 545.673 200.354C545.93 200.982 546.058 201.7 546.058 202.51C546.058 202.919 546.013 203.196 545.922 203.342C545.832 203.481 545.658 203.55 545.401 203.55H538.208Z" fill="#213E88"/>
<path d="M549.642 198.975C549.876 198.749 550.122 198.541 550.378 198.352C550.643 198.155 550.918 197.99 551.205 197.859C551.5 197.72 551.813 197.615 552.146 197.542C552.478 197.461 552.84 197.421 553.233 197.421C553.867 197.421 554.43 197.527 554.921 197.739C555.412 197.943 555.82 198.235 556.144 198.614C556.477 198.986 556.726 199.435 556.892 199.96C557.066 200.478 557.153 201.051 557.153 201.679V208.825H554.355V201.679C554.355 200.993 554.192 200.464 553.867 200.092C553.543 199.712 553.048 199.523 552.383 199.523C551.9 199.523 551.447 199.628 551.024 199.84C550.601 200.052 550.201 200.34 549.823 200.705V208.825H547.025V197.596H548.736C549.098 197.596 549.336 197.761 549.45 198.089L549.642 198.975Z" fill="#213E88"/>
<path d="M562.4 209C561.388 209 560.61 208.726 560.067 208.179C559.53 207.625 559.262 206.862 559.262 205.892V199.621H558.073C557.922 199.621 557.793 199.574 557.688 199.479C557.582 199.384 557.529 199.242 557.529 199.052V197.979L559.398 197.684L559.987 194.62C560.025 194.474 560.097 194.361 560.202 194.28C560.308 194.2 560.444 194.16 560.61 194.16H562.06V197.695H565.164V199.621H562.06V205.706C562.06 206.056 562.147 206.33 562.321 206.527C562.502 206.724 562.747 206.822 563.057 206.822C563.231 206.822 563.374 206.804 563.488 206.767C563.608 206.724 563.71 206.68 563.793 206.636C563.884 206.592 563.963 206.552 564.031 206.516C564.099 206.472 564.167 206.45 564.235 206.45C564.318 206.45 564.386 206.472 564.439 206.516C564.492 206.552 564.549 206.611 564.609 206.691L565.447 208.004C565.039 208.332 564.571 208.58 564.043 208.748C563.514 208.916 562.966 209 562.4 209Z" fill="#213E88"/>
<path d="M573.222 201.919C573.222 201.569 573.169 201.241 573.063 200.934C572.965 200.621 572.814 200.347 572.61 200.114C572.406 199.88 572.146 199.698 571.829 199.566C571.519 199.428 571.157 199.358 570.741 199.358C569.933 199.358 569.295 199.581 568.827 200.026C568.366 200.471 568.072 201.102 567.943 201.919H573.222ZM567.887 203.55C567.932 204.126 568.038 204.626 568.204 205.049C568.37 205.465 568.589 205.812 568.861 206.089C569.133 206.359 569.454 206.563 569.824 206.702C570.201 206.833 570.617 206.899 571.07 206.899C571.523 206.899 571.912 206.848 572.236 206.746C572.569 206.643 572.856 206.53 573.097 206.406C573.347 206.282 573.562 206.169 573.743 206.067C573.932 205.965 574.113 205.914 574.287 205.914C574.521 205.914 574.695 205.998 574.808 206.166L575.612 207.15C575.303 207.501 574.955 207.796 574.57 208.037C574.185 208.27 573.781 208.46 573.358 208.606C572.943 208.745 572.516 208.843 572.078 208.902C571.647 208.96 571.228 208.989 570.82 208.989C570.012 208.989 569.261 208.861 568.566 208.606C567.871 208.343 567.267 207.96 566.754 207.457C566.24 206.946 565.836 206.319 565.542 205.575C565.247 204.823 565.1 203.955 565.1 202.97C565.1 202.204 565.228 201.485 565.485 200.814C565.742 200.135 566.108 199.548 566.584 199.052C567.067 198.549 567.652 198.151 568.34 197.859C569.034 197.567 569.816 197.421 570.685 197.421C571.417 197.421 572.093 197.534 572.712 197.761C573.332 197.987 573.864 198.319 574.31 198.756C574.755 199.187 575.102 199.72 575.352 200.354C575.608 200.982 575.737 201.7 575.737 202.51C575.737 202.919 575.692 203.196 575.601 203.342C575.51 203.481 575.337 203.55 575.08 203.55H567.887Z" fill="#213E88"/>
<path d="M579.592 197.596V208.825H576.794V197.596H579.592ZM577.916 194.685C577.916 194.89 577.874 195.083 577.791 195.265C577.708 195.44 577.591 195.594 577.44 195.725C577.297 195.856 577.127 195.962 576.93 196.042C576.742 196.115 576.541 196.152 576.33 196.152C576.126 196.152 575.93 196.115 575.741 196.042C575.56 195.962 575.397 195.856 575.254 195.725C575.11 195.594 574.997 195.44 574.914 195.265C574.831 195.083 574.789 194.89 574.789 194.685C574.789 194.474 574.831 194.277 574.914 194.094C574.997 193.905 575.11 193.741 575.254 193.602C575.397 193.463 575.56 193.354 575.741 193.274C575.93 193.193 576.126 193.153 576.33 193.153C576.541 193.153 576.742 193.193 576.93 193.274C577.127 193.354 577.297 193.463 577.44 193.602C577.591 193.741 577.708 193.905 577.791 194.094C577.874 194.277 577.916 194.474 577.916 194.685ZM581.767 194.685C581.767 194.89 581.726 195.083 581.643 195.265C581.56 195.44 581.446 195.594 581.303 195.725C581.167 195.856 581.001 195.962 580.805 196.042C580.616 196.115 580.412 196.152 580.193 196.152C579.981 196.152 579.781 196.115 579.592 196.042C579.404 195.962 579.237 195.856 579.094 195.725C578.958 195.594 578.849 195.44 578.765 195.265C578.682 195.083 578.641 194.89 578.641 194.685C578.641 194.474 578.682 194.277 578.765 194.094C578.849 193.905 578.958 193.741 579.094 193.602C579.237 193.463 579.404 193.354 579.592 193.274C579.781 193.193 579.981 193.153 580.193 193.153C580.412 193.153 580.616 193.193 580.805 193.274C581.001 193.354 581.167 193.463 581.303 193.602C581.446 193.741 581.56 193.905 581.643 194.094C581.726 194.277 581.767 194.474 581.767 194.685Z" fill="#213E88"/>
<path d="M588.415 199.785C588.339 199.902 588.26 199.986 588.177 200.037C588.094 200.081 587.988 200.103 587.86 200.103C587.724 200.103 587.577 200.066 587.418 199.993C587.267 199.92 587.089 199.84 586.886 199.752C586.682 199.658 586.448 199.574 586.183 199.501C585.926 199.428 585.621 199.391 585.266 199.391C584.714 199.391 584.28 199.504 583.963 199.731C583.653 199.957 583.498 200.252 583.498 200.617C583.498 200.858 583.578 201.062 583.736 201.23C583.902 201.39 584.118 201.533 584.382 201.657C584.654 201.781 584.96 201.894 585.3 201.996C585.639 202.091 585.983 202.197 586.33 202.313C586.685 202.43 587.033 202.565 587.373 202.718C587.712 202.864 588.015 203.054 588.279 203.287C588.551 203.513 588.766 203.787 588.925 204.108C589.091 204.429 589.174 204.816 589.174 205.268C589.174 205.808 589.072 206.308 588.868 206.767C588.672 207.22 588.377 207.614 587.984 207.949C587.592 208.278 587.105 208.537 586.523 208.726C585.949 208.909 585.285 209 584.529 209C584.129 209 583.736 208.964 583.351 208.891C582.974 208.825 582.607 208.73 582.252 208.606C581.905 208.482 581.58 208.336 581.278 208.168C580.984 208 580.723 207.818 580.497 207.621L581.142 206.592C581.225 206.468 581.323 206.373 581.437 206.308C581.55 206.242 581.694 206.209 581.867 206.209C582.041 206.209 582.203 206.257 582.354 206.352C582.513 206.446 582.694 206.549 582.898 206.658C583.102 206.767 583.34 206.87 583.612 206.964C583.891 207.059 584.242 207.107 584.665 207.107C584.998 207.107 585.281 207.07 585.515 206.997C585.757 206.917 585.953 206.815 586.104 206.691C586.262 206.567 586.376 206.425 586.444 206.264C586.519 206.096 586.557 205.925 586.557 205.75C586.557 205.487 586.474 205.272 586.308 205.104C586.149 204.936 585.934 204.79 585.662 204.666C585.398 204.542 585.092 204.433 584.745 204.338C584.405 204.236 584.054 204.126 583.691 204.01C583.336 203.893 582.985 203.758 582.638 203.605C582.298 203.444 581.992 203.244 581.72 203.003C581.456 202.762 581.24 202.466 581.074 202.116C580.916 201.766 580.836 201.343 580.836 200.847C580.836 200.387 580.931 199.949 581.12 199.534C581.308 199.118 581.584 198.756 581.947 198.45C582.317 198.136 582.773 197.888 583.317 197.706C583.869 197.516 584.503 197.421 585.22 197.421C586.021 197.421 586.75 197.549 587.407 197.804C588.064 198.06 588.611 198.395 589.049 198.811L588.415 199.785Z" fill="#213E88"/>
<path d="M590.147 208.825V197.596H591.857C592.22 197.596 592.458 197.761 592.571 198.089L592.752 198.921C592.956 198.702 593.168 198.501 593.387 198.319C593.613 198.136 593.851 197.979 594.1 197.848C594.357 197.717 594.629 197.615 594.916 197.542C595.211 197.461 595.532 197.421 595.879 197.421C596.611 197.421 597.212 197.615 597.68 198.001C598.156 198.381 598.511 198.888 598.745 199.523C598.926 199.15 599.153 198.833 599.425 198.57C599.696 198.301 599.995 198.082 600.319 197.914C600.644 197.746 600.988 197.622 601.35 197.542C601.72 197.461 602.09 197.421 602.46 197.421C603.102 197.421 603.673 197.516 604.171 197.706C604.669 197.896 605.089 198.173 605.428 198.538C605.768 198.902 606.025 199.347 606.199 199.873C606.38 200.398 606.471 201 606.471 201.679V208.825H603.673V201.679C603.673 200.964 603.51 200.427 603.185 200.07C602.861 199.705 602.385 199.523 601.758 199.523C601.471 199.523 601.203 199.57 600.954 199.665C600.712 199.76 600.497 199.898 600.308 200.081C600.127 200.256 599.983 200.478 599.878 200.748C599.772 201.018 599.719 201.328 599.719 201.679V208.825H596.91V201.679C596.91 200.927 596.751 200.38 596.434 200.037C596.124 199.694 595.667 199.523 595.063 199.523C594.655 199.523 594.274 199.621 593.919 199.818C593.572 200.008 593.247 200.27 592.945 200.606V208.825H590.147Z" fill="#213E88"/>
<path d="M615.485 201.919C615.485 201.569 615.432 201.241 615.327 200.934C615.228 200.621 615.077 200.347 614.873 200.114C614.67 199.88 614.409 199.698 614.092 199.566C613.782 199.428 613.42 199.358 613.004 199.358C612.196 199.358 611.558 199.581 611.09 200.026C610.629 200.471 610.335 201.102 610.206 201.919H615.485ZM610.15 203.55C610.195 204.126 610.301 204.626 610.467 205.049C610.633 205.465 610.852 205.812 611.124 206.089C611.396 206.359 611.717 206.563 612.087 206.702C612.464 206.833 612.88 206.899 613.333 206.899C613.786 206.899 614.175 206.848 614.5 206.746C614.832 206.643 615.119 206.53 615.361 206.406C615.61 206.282 615.825 206.169 616.006 206.067C616.195 205.965 616.376 205.914 616.55 205.914C616.784 205.914 616.958 205.998 617.071 206.166L617.875 207.15C617.566 207.501 617.218 207.796 616.833 208.037C616.448 208.27 616.044 208.46 615.621 208.606C615.206 208.745 614.779 208.843 614.341 208.902C613.911 208.96 613.491 208.989 613.084 208.989C612.276 208.989 611.524 208.861 610.829 208.606C610.135 208.343 609.53 207.96 609.017 207.457C608.503 206.946 608.099 206.319 607.805 205.575C607.51 204.823 607.363 203.955 607.363 202.97C607.363 202.204 607.491 201.485 607.748 200.814C608.005 200.135 608.371 199.548 608.847 199.052C609.33 198.549 609.916 198.151 610.603 197.859C611.298 197.567 612.079 197.421 612.948 197.421C613.68 197.421 614.356 197.534 614.975 197.761C615.595 197.987 616.127 198.319 616.573 198.756C617.018 199.187 617.366 199.72 617.615 200.354C617.872 200.982 618 201.7 618 202.51C618 202.919 617.955 203.196 617.864 203.342C617.773 203.481 617.6 203.55 617.343 203.55H610.15Z" fill="#213E88"/>
<path d="M0 20C0 15.5817 3.58172 12 8 12H420C424.418 12 428 15.5817 428 20V201C428 205.418 424.418 209 420 209H8C3.58173 209 0 205.418 0 201V20Z" fill="#D7E9FF"/>
<path fill-rule="evenodd" clip-rule="evenodd" d="M420 13H8C4.13401 13 1 16.134 1 20V201C1 204.866 4.13401 208 8 208H420C423.866 208 427 204.866 427 201V20C427 16.134 423.866 13 420 13ZM8 12C3.58172 12 0 15.5817 0 20V201C0 205.418 3.58173 209 8 209H420C424.418 209 428 205.418 428 201V20C428 15.5817 424.418 12 420 12H8Z" fill="#203476" fill-opacity="0.05"/>
<path d="M0 12C0 7.58172 3.58172 4 8 4H420C424.418 4 428 7.58172 428 12V69H0V12Z" fill="#203476"/>
<path d="M28.3789 33.353C28.3069 33.479 28.2289 33.572 28.1449 33.632C28.0669 33.686 27.9679 33.713 27.8479 33.713C27.7219 33.713 27.5839 33.668 27.4339 33.578C27.2899 33.482 27.1159 33.377 26.9119 33.263C26.7079 33.149 26.4679 33.047 26.1919 32.957C25.9219 32.861 25.6009 32.813 25.2289 32.813C24.8929 32.813 24.5989 32.855 24.3469 32.939C24.0949 33.017 23.8819 33.128 23.7079 33.272C23.5399 33.416 23.4139 33.59 23.3299 33.794C23.2459 33.992 23.2039 34.211 23.2039 34.451C23.2039 34.757 23.2879 35.012 23.4559 35.216C23.6299 35.42 23.8579 35.594 24.1399 35.738C24.4219 35.882 24.7429 36.011 25.1029 36.125C25.4629 36.239 25.8319 36.362 26.2099 36.494C26.5879 36.62 26.9569 36.77 27.3169 36.944C27.6769 37.112 27.9979 37.328 28.2799 37.592C28.5619 37.85 28.7869 38.168 28.9549 38.546C29.1289 38.924 29.2159 39.383 29.2159 39.923C29.2159 40.511 29.1139 41.063 28.9099 41.579C28.7119 42.089 28.4179 42.536 28.0279 42.92C27.6439 43.298 27.1729 43.598 26.6149 43.82C26.0569 44.036 25.4179 44.144 24.6979 44.144C24.2839 44.144 23.8759 44.102 23.4739 44.018C23.0719 43.94 22.6849 43.826 22.3129 43.676C21.9469 43.526 21.6019 43.346 21.2779 43.136C20.9539 42.926 20.6659 42.692 20.4139 42.434L21.1249 41.273C21.1849 41.189 21.2629 41.12 21.3589 41.066C21.4549 41.006 21.5569 40.976 21.6649 40.976C21.8149 40.976 21.9769 41.039 22.1509 41.165C22.3249 41.285 22.5319 41.42 22.7719 41.57C23.0119 41.72 23.2909 41.858 23.6089 41.984C23.9329 42.104 24.3199 42.164 24.7699 42.164C25.4599 42.164 25.9939 42.002 26.3719 41.678C26.7499 41.348 26.9389 40.877 26.9389 40.265C26.9389 39.923 26.8519 39.644 26.6779 39.428C26.5099 39.212 26.2849 39.032 26.0029 38.888C25.7209 38.738 25.3999 38.612 25.0399 38.51C24.6799 38.408 24.3139 38.297 23.9419 38.177C23.5699 38.057 23.2039 37.913 22.8439 37.745C22.4839 37.577 22.1629 37.358 21.8809 37.088C21.5989 36.818 21.3709 36.482 21.1969 36.08C21.0289 35.672 20.9449 35.171 20.9449 34.577C20.9449 34.103 21.0379 33.641 21.2239 33.191C21.4159 32.741 21.6919 32.342 22.0519 31.994C22.4119 31.646 22.8559 31.367 23.3839 31.157C23.9119 30.947 24.5179 30.842 25.2019 30.842C25.9699 30.842 26.6779 30.962 27.3259 31.202C27.9739 31.442 28.5259 31.778 28.9819 32.21L28.3789 33.353Z" fill="white"/>
<path d="M38.9508 42.002V44H31.3278V30.986H33.7488V42.002H38.9508Z" fill="white"/>
<path d="M47.5554 39.086L45.9714 34.757C45.8934 34.565 45.8124 34.337 45.7284 34.073C45.6444 33.809 45.5604 33.524 45.4764 33.218C45.3984 33.524 45.3174 33.812 45.2334 34.082C45.1494 34.346 45.0684 34.577 44.9904 34.775L43.4154 39.086H47.5554ZM51.8304 44H49.9584C49.7484 44 49.5774 43.949 49.4454 43.847C49.3134 43.739 49.2144 43.607 49.1484 43.451L48.1764 40.796H42.7854L41.8134 43.451C41.7654 43.589 41.6724 43.715 41.5344 43.829C41.3964 43.943 41.2254 44 41.0214 44H39.1314L44.2524 30.986H46.7184L51.8304 44Z" fill="white"/>
<path d="M60.0535 39.086L58.4695 34.757C58.3915 34.565 58.3105 34.337 58.2265 34.073C58.1425 33.809 58.0585 33.524 57.9745 33.218C57.8965 33.524 57.8155 33.812 57.7315 34.082C57.6475 34.346 57.5665 34.577 57.4885 34.775L55.9135 39.086H60.0535ZM64.3285 44H62.4565C62.2465 44 62.0755 43.949 61.9435 43.847C61.8115 43.739 61.7125 43.607 61.6465 43.451L60.6745 40.796H55.2835L54.3115 43.451C54.2635 43.589 54.1705 43.715 54.0325 43.829C53.8945 43.943 53.7235 44 53.5195 44H51.6295L56.7505 30.986H59.2165L64.3285 44Z" fill="white"/>
<path d="M69.9055 37.529C70.3495 37.529 70.7365 37.475 71.0665 37.367C71.3965 37.253 71.6695 37.094 71.8855 36.89C72.1075 36.68 72.2725 36.428 72.3805 36.134C72.4885 35.834 72.5425 35.501 72.5425 35.135C72.5425 34.787 72.4885 34.472 72.3805 34.19C72.2725 33.908 72.1105 33.668 71.8945 33.47C71.6785 33.272 71.4055 33.122 71.0755 33.02C70.7455 32.912 70.3555 32.858 69.9055 32.858H68.0965V37.529H69.9055ZM69.9055 30.986C70.7755 30.986 71.5285 31.088 72.1645 31.292C72.8005 31.496 73.3255 31.781 73.7395 32.147C74.1535 32.513 74.4595 32.951 74.6575 33.461C74.8615 33.971 74.9635 34.529 74.9635 35.135C74.9635 35.765 74.8585 36.344 74.6485 36.872C74.4385 37.394 74.1235 37.844 73.7035 38.222C73.2835 38.6 72.7555 38.894 72.1195 39.104C71.4895 39.314 70.7515 39.419 69.9055 39.419H68.0965V44H65.6755V30.986H69.9055Z" fill="white"/>
<path d="M232.732 39.086L231.148 34.757C231.07 34.565 230.989 34.337 230.905 34.073C230.821 33.809 230.737 33.524 230.653 33.218C230.575 33.524 230.494 33.812 230.41 34.082C230.326 34.346 230.245 34.577 230.167 34.775L228.592 39.086H232.732ZM237.007 44H235.135C234.925 44 234.754 43.949 234.622 43.847C234.49 43.739 234.391 43.607 234.325 43.451L233.353 40.796H227.962L226.99 43.451C226.942 43.589 226.849 43.715 226.711 43.829C226.573 43.943 226.402 44 226.198 44H224.308L229.429 30.986H231.895L237.007 44Z" fill="white"/>
<path d="M243.223 42.11C243.673 42.11 244.051 42.056 244.357 41.948C244.663 41.84 244.906 41.696 245.086 41.516C245.272 41.336 245.404 41.126 245.482 40.886C245.566 40.646 245.608 40.391 245.608 40.121C245.608 39.839 245.563 39.587 245.473 39.365C245.383 39.137 245.242 38.945 245.05 38.789C244.858 38.627 244.609 38.504 244.303 38.42C244.003 38.336 243.64 38.294 243.214 38.294H240.775V42.11H243.223ZM240.775 32.858V36.62H242.701C243.529 36.62 244.153 36.47 244.573 36.17C244.999 35.87 245.212 35.393 245.212 34.739C245.212 34.061 245.02 33.578 244.636 33.29C244.252 33.002 243.652 32.858 242.836 32.858H240.775ZM242.836 30.986C243.688 30.986 244.417 31.067 245.023 31.229C245.629 31.391 246.124 31.622 246.508 31.922C246.898 32.222 247.183 32.585 247.363 33.011C247.543 33.437 247.633 33.917 247.633 34.451C247.633 34.757 247.588 35.051 247.498 35.333C247.408 35.609 247.267 35.87 247.075 36.116C246.889 36.356 246.649 36.575 246.355 36.773C246.067 36.971 245.722 37.139 245.32 37.277C247.108 37.679 248.002 38.645 248.002 40.175C248.002 40.727 247.897 41.237 247.687 41.705C247.477 42.173 247.171 42.578 246.769 42.92C246.367 43.256 245.872 43.52 245.284 43.712C244.696 43.904 244.024 44 243.268 44H238.354V30.986H242.836Z" fill="white"/>
<path d="M257.132 33.353C257.06 33.479 256.982 33.572 256.898 33.632C256.82 33.686 256.721 33.713 256.601 33.713C256.475 33.713 256.337 33.668 256.187 33.578C256.043 33.482 255.869 33.377 255.665 33.263C255.461 33.149 255.221 33.047 254.945 32.957C254.675 32.861 254.354 32.813 253.982 32.813C253.646 32.813 253.352 32.855 253.1 32.939C252.848 33.017 252.635 33.128 252.461 33.272C252.293 33.416 252.167 33.59 252.083 33.794C251.999 33.992 251.957 34.211 251.957 34.451C251.957 34.757 252.041 35.012 252.209 35.216C252.383 35.42 252.611 35.594 252.893 35.738C253.175 35.882 253.496 36.011 253.856 36.125C254.216 36.239 254.585 36.362 254.963 36.494C255.341 36.62 255.71 36.77 256.07 36.944C256.43 37.112 256.751 37.328 257.033 37.592C257.315 37.85 257.54 38.168 257.708 38.546C257.882 38.924 257.969 39.383 257.969 39.923C257.969 40.511 257.867 41.063 257.663 41.579C257.465 42.089 257.171 42.536 256.781 42.92C256.397 43.298 255.926 43.598 255.368 43.82C254.81 44.036 254.171 44.144 253.451 44.144C253.037 44.144 252.629 44.102 252.227 44.018C251.825 43.94 251.438 43.826 251.066 43.676C250.7 43.526 250.355 43.346 250.031 43.136C249.707 42.926 249.419 42.692 249.167 42.434L249.878 41.273C249.938 41.189 250.016 41.12 250.112 41.066C250.208 41.006 250.31 40.976 250.418 40.976C250.568 40.976 250.73 41.039 250.904 41.165C251.078 41.285 251.285 41.42 251.525 41.57C251.765 41.72 252.044 41.858 252.362 41.984C252.686 42.104 253.073 42.164 253.523 42.164C254.213 42.164 254.747 42.002 255.125 41.678C255.503 41.348 255.692 40.877 255.692 40.265C255.692 39.923 255.605 39.644 255.431 39.428C255.263 39.212 255.038 39.032 254.756 38.888C254.474 38.738 254.153 38.612 253.793 38.51C253.433 38.408 253.067 38.297 252.695 38.177C252.323 38.057 251.957 37.913 251.597 37.745C251.237 37.577 250.916 37.358 250.634 37.088C250.352 36.818 250.124 36.482 249.95 36.08C249.782 35.672 249.698 35.171 249.698 34.577C249.698 34.103 249.791 33.641 249.977 33.191C250.169 32.741 250.445 32.342 250.805 31.994C251.165 31.646 251.609 31.367 252.137 31.157C252.665 30.947 253.271 30.842 253.955 30.842C254.723 30.842 255.431 30.962 256.079 31.202C256.727 31.442 257.279 31.778 257.735 32.21L257.132 33.353Z" fill="white"/>
<path d="M262.511 32.912V36.521H267.065V38.384H262.511V42.065H268.289V44H260.081V30.986H268.289V32.912H262.511Z" fill="white"/>
<path d="M281.405 30.986V44H280.163C279.971 44 279.809 43.97 279.677 43.91C279.551 43.844 279.428 43.736 279.308 43.586L272.513 34.91C272.549 35.306 272.567 35.672 272.567 36.008V44H270.434V30.986H271.703C271.805 30.986 271.892 30.992 271.964 31.004C272.042 31.01 272.108 31.028 272.162 31.058C272.222 31.082 272.279 31.121 272.333 31.175C272.387 31.223 272.447 31.289 272.513 31.373L279.335 40.085C279.317 39.875 279.302 39.668 279.29 39.464C279.278 39.26 279.272 39.071 279.272 38.897V30.986H281.405Z" fill="white"/>
<path d="M293.393 32.975H289.469V44H287.048V32.975H283.124V30.986H293.393V32.975Z" fill="white"/>
<path d="M297.526 32.912V36.521H302.08V38.384H297.526V42.065H303.304V44H295.096V30.986H303.304V32.912H297.526Z" fill="white"/>
<path d="M307.88 44H305.45V30.986H307.88V44ZM305.927 28.997C305.927 29.159 305.894 29.312 305.828 29.456C305.762 29.6 305.672 29.726 305.558 29.834C305.45 29.942 305.321 30.026 305.171 30.086C305.021 30.146 304.862 30.176 304.694 30.176C304.538 30.176 304.388 30.146 304.244 30.086C304.106 30.026 303.983 29.942 303.875 29.834C303.767 29.726 303.68 29.6 303.614 29.456C303.548 29.312 303.515 29.159 303.515 28.997C303.515 28.835 303.548 28.682 303.614 28.538C303.68 28.388 303.767 28.259 303.875 28.151C303.983 28.037 304.106 27.947 304.244 27.881C304.388 27.815 304.538 27.782 304.694 27.782C304.862 27.782 305.021 27.815 305.171 27.881C305.321 27.947 305.45 28.037 305.558 28.151C305.672 28.259 305.762 28.388 305.828 28.538C305.894 28.682 305.927 28.835 305.927 28.997ZM309.887 28.997C309.887 29.159 309.854 29.312 309.788 29.456C309.728 29.6 309.641 29.726 309.527 29.834C309.419 29.942 309.29 30.026 309.14 30.086C308.996 30.146 308.843 30.176 308.681 30.176C308.513 30.176 308.354 30.146 308.204 30.086C308.06 30.026 307.934 29.942 307.826 29.834C307.718 29.726 307.631 29.6 307.565 29.456C307.505 29.312 307.475 29.159 307.475 28.997C307.475 28.835 307.505 28.682 307.565 28.538C307.631 28.388 307.718 28.259 307.826 28.151C307.934 28.037 308.06 27.947 308.204 27.881C308.354 27.815 308.513 27.782 308.681 27.782C308.843 27.782 308.996 27.815 309.14 27.881C309.29 27.947 309.419 28.037 309.527 28.151C309.641 28.259 309.728 28.388 309.788 28.538C309.854 28.682 309.887 28.835 309.887 28.997Z" fill="white"/>
<path d="M317.724 33.353C317.652 33.479 317.574 33.572 317.49 33.632C317.412 33.686 317.313 33.713 317.193 33.713C317.067 33.713 316.929 33.668 316.779 33.578C316.635 33.482 316.461 33.377 316.257 33.263C316.053 33.149 315.813 33.047 315.537 32.957C315.267 32.861 314.946 32.813 314.574 32.813C314.238 32.813 313.944 32.855 313.692 32.939C313.44 33.017 313.227 33.128 313.053 33.272C312.885 33.416 312.759 33.59 312.675 33.794C312.591 33.992 312.549 34.211 312.549 34.451C312.549 34.757 312.633 35.012 312.801 35.216C312.975 35.42 313.203 35.594 313.485 35.738C313.767 35.882 314.088 36.011 314.448 36.125C314.808 36.239 315.177 36.362 315.555 36.494C315.933 36.62 316.302 36.77 316.662 36.944C317.022 37.112 317.343 37.328 317.625 37.592C317.907 37.85 318.132 38.168 318.3 38.546C318.474 38.924 318.561 39.383 318.561 39.923C318.561 40.511 318.459 41.063 318.255 41.579C318.057 42.089 317.763 42.536 317.373 42.92C316.989 43.298 316.518 43.598 315.96 43.82C315.402 44.036 314.763 44.144 314.043 44.144C313.629 44.144 313.221 44.102 312.819 44.018C312.417 43.94 312.03 43.826 311.658 43.676C311.292 43.526 310.947 43.346 310.623 43.136C310.299 42.926 310.011 42.692 309.759 42.434L310.47 41.273C310.53 41.189 310.608 41.12 310.704 41.066C310.8 41.006 310.902 40.976 311.01 40.976C311.16 40.976 311.322 41.039 311.496 41.165C311.67 41.285 311.877 41.42 312.117 41.57C312.357 41.72 312.636 41.858 312.954 41.984C313.278 42.104 313.665 42.164 314.115 42.164C314.805 42.164 315.339 42.002 315.717 41.678C316.095 41.348 316.284 40.877 316.284 40.265C316.284 39.923 316.197 39.644 316.023 39.428C315.855 39.212 315.63 39.032 315.348 38.888C315.066 38.738 314.745 38.612 314.385 38.51C314.025 38.408 313.659 38.297 313.287 38.177C312.915 38.057 312.549 37.913 312.189 37.745C311.829 37.577 311.508 37.358 311.226 37.088C310.944 36.818 310.716 36.482 310.542 36.08C310.374 35.672 310.29 35.171 310.29 34.577C310.29 34.103 310.383 33.641 310.569 33.191C310.761 32.741 311.037 32.342 311.397 31.994C311.757 31.646 312.201 31.367 312.729 31.157C313.257 30.947 313.863 30.842 314.547 30.842C315.315 30.842 316.023 30.962 316.671 31.202C317.319 31.442 317.871 31.778 318.327 32.21L317.724 33.353Z" fill="white"/>
<path d="M334.785 30.986V44H332.652V35.594C332.652 35.258 332.67 34.895 332.706 34.505L328.773 41.894C328.587 42.248 328.302 42.425 327.918 42.425H327.576C327.192 42.425 326.907 42.248 326.721 41.894L322.743 34.478C322.761 34.676 322.776 34.871 322.788 35.063C322.8 35.255 322.806 35.432 322.806 35.594V44H320.673V30.986H322.5C322.608 30.986 322.701 30.989 322.779 30.995C322.857 31.001 322.926 31.016 322.986 31.04C323.052 31.064 323.109 31.103 323.157 31.157C323.211 31.211 323.262 31.283 323.31 31.373L327.207 38.6C327.309 38.792 327.402 38.99 327.486 39.194C327.576 39.398 327.663 39.608 327.747 39.824C327.831 39.602 327.918 39.389 328.008 39.185C328.098 38.975 328.194 38.774 328.296 38.582L332.139 31.373C332.187 31.283 332.238 31.211 332.292 31.157C332.346 31.103 332.403 31.064 332.463 31.04C332.529 31.016 332.601 31.001 332.679 30.995C332.757 30.989 332.85 30.986 332.958 30.986H334.785Z" fill="white"/>
<path d="M340.118 32.912V36.521H344.672V38.384H340.118V42.065H345.896V44H337.688V30.986H345.896V32.912H340.118Z" fill="white"/>
<g opacity="0.7">
<path d="M25.22 101.79L24.72 102.41C25 102.27 25.3 102.163 25.62 102.09C25.9466 102.01 26.2966 101.97 26.67 101.97C27.2166 101.97 27.7466 102.06 28.26 102.24C28.78 102.42 29.2366 102.693 29.63 103.06C30.0233 103.42 30.34 103.87 30.58 104.41C30.82 104.95 30.94 105.58 30.94 106.3C30.94 106.973 30.8166 107.607 30.57 108.2C30.3233 108.787 29.9766 109.3 29.53 109.74C29.0833 110.18 28.5433 110.527 27.91 110.78C27.2833 111.033 26.59 111.16 25.83 111.16C25.0566 111.16 24.3633 111.037 23.75 110.79C23.1366 110.543 22.6133 110.2 22.18 109.76C21.7466 109.313 21.4133 108.78 21.18 108.16C20.9533 107.533 20.84 106.84 20.84 106.08C20.84 105.4 20.9766 104.703 21.25 103.99C21.53 103.27 21.96 102.523 22.54 101.75L25.99 97.12C26.11 96.96 26.2833 96.8233 26.51 96.71C26.7433 96.5967 27.01 96.54 27.31 96.54H29.51L25.22 101.79ZM25.78 109.14C26.1733 109.14 26.5333 109.073 26.86 108.94C27.1933 108.807 27.4766 108.62 27.71 108.38C27.95 108.14 28.1366 107.86 28.27 107.54C28.4033 107.213 28.47 106.86 28.47 106.48C28.47 106.067 28.4066 105.697 28.28 105.37C28.1533 105.037 27.9733 104.757 27.74 104.53C27.5066 104.297 27.2266 104.12 26.9 104C26.5733 103.88 26.2133 103.82 25.82 103.82C25.4266 103.82 25.07 103.887 24.75 104.02C24.43 104.153 24.1566 104.34 23.93 104.58C23.7033 104.813 23.5266 105.093 23.4 105.42C23.2733 105.74 23.21 106.087 23.21 106.46C23.21 106.86 23.2633 107.227 23.37 107.56C23.4833 107.887 23.6466 108.167 23.86 108.4C24.08 108.633 24.35 108.817 24.67 108.95C24.99 109.077 25.36 109.14 25.78 109.14Z" fill="#213E88"/>
<path d="M32.7415 103.93H37.9215V105.99H32.7415V103.93Z" fill="#213E88"/>
<path d="M49.9825 96.54V97.61C49.9825 97.93 49.9491 98.19 49.8825 98.39C49.8158 98.5833 49.7491 98.7467 49.6825 98.88L44.2025 110.16C44.0891 110.393 43.9291 110.593 43.7225 110.76C43.5158 110.92 43.2391 111 42.8925 111H41.1025L46.6925 99.95C46.8191 99.7233 46.9425 99.5167 47.0625 99.33C47.1891 99.1367 47.3291 98.9533 47.4825 98.78H40.5625C40.4091 98.78 40.2758 98.7233 40.1625 98.61C40.0491 98.4967 39.9925 98.3633 39.9925 98.21V96.54H49.9825Z" fill="#213E88"/>
<path d="M65.5873 100.74V111H64.0773C63.7506 111 63.544 110.85 63.4573 110.55L63.2873 109.73C62.8673 110.157 62.404 110.503 61.8973 110.77C61.3906 111.03 60.794 111.16 60.1073 111.16C59.5473 111.16 59.0506 111.067 58.6173 110.88C58.1906 110.687 57.8306 110.417 57.5373 110.07C57.244 109.723 57.0206 109.313 56.8673 108.84C56.7206 108.36 56.6473 107.833 56.6473 107.26V100.74H59.1173V107.26C59.1173 107.887 59.2606 108.373 59.5473 108.72C59.8406 109.06 60.2773 109.23 60.8573 109.23C61.284 109.23 61.684 109.137 62.0573 108.95C62.4306 108.757 62.784 108.493 63.1173 108.16V100.74H65.5873Z" fill="#213E88"/>
<path d="M76.8764 100.74V111H75.3664C75.0397 111 74.833 110.85 74.7464 110.55L74.5764 109.73C74.1564 110.157 73.693 110.503 73.1864 110.77C72.6797 111.03 72.083 111.16 71.3964 111.16C70.8364 111.16 70.3397 111.067 69.9064 110.88C69.4797 110.687 69.1197 110.417 68.8264 110.07C68.533 109.723 68.3097 109.313 68.1564 108.84C68.0097 108.36 67.9364 107.833 67.9364 107.26V100.74H70.4064V107.26C70.4064 107.887 70.5497 108.373 70.8364 108.72C71.1297 109.06 71.5664 109.23 72.1464 109.23C72.573 109.23 72.973 109.137 73.3464 108.95C73.7197 108.757 74.073 108.493 74.4064 108.16V100.74H76.8764Z" fill="#213E88"/>
<path d="M81.6554 102.52C81.9754 101.907 82.3554 101.427 82.7954 101.08C83.2354 100.727 83.7554 100.55 84.3554 100.55C84.8288 100.55 85.2088 100.653 85.4954 100.86L85.3354 102.71C85.3021 102.83 85.2521 102.917 85.1854 102.97C85.1254 103.017 85.0421 103.04 84.9354 103.04C84.8354 103.04 84.6854 103.023 84.4854 102.99C84.2921 102.957 84.1021 102.94 83.9154 102.94C83.6421 102.94 83.3988 102.98 83.1854 103.06C82.9721 103.14 82.7788 103.257 82.6054 103.41C82.4388 103.557 82.2888 103.737 82.1554 103.95C82.0288 104.163 81.9088 104.407 81.7954 104.68V111H79.3254V100.74H80.7754C81.0288 100.74 81.2054 100.787 81.3054 100.88C81.4054 100.967 81.4721 101.127 81.5054 101.36L81.6554 102.52Z" fill="#213E88"/>
<path d="M97.48 102.74C97.4133 102.847 97.3433 102.923 97.27 102.97C97.1966 103.01 97.1033 103.03 96.99 103.03C96.87 103.03 96.74 102.997 96.6 102.93C96.4666 102.863 96.31 102.79 96.13 102.71C95.95 102.623 95.7433 102.547 95.51 102.48C95.2833 102.413 95.0133 102.38 94.7 102.38C94.2133 102.38 93.83 102.483 93.55 102.69C93.2766 102.897 93.14 103.167 93.14 103.5C93.14 103.72 93.21 103.907 93.35 104.06C93.4966 104.207 93.6866 104.337 93.92 104.45C94.16 104.563 94.43 104.667 94.73 104.76C95.03 104.847 95.3333 104.943 95.64 105.05C95.9533 105.157 96.26 105.28 96.56 105.42C96.86 105.553 97.1266 105.727 97.36 105.94C97.6 106.147 97.79 106.397 97.93 106.69C98.0766 106.983 98.15 107.337 98.15 107.75C98.15 108.243 98.06 108.7 97.88 109.12C97.7066 109.533 97.4466 109.893 97.1 110.2C96.7533 110.5 96.3233 110.737 95.81 110.91C95.3033 111.077 94.7166 111.16 94.05 111.16C93.6966 111.16 93.35 111.127 93.01 111.06C92.6766 111 92.3533 110.913 92.04 110.8C91.7333 110.687 91.4466 110.553 91.18 110.4C90.92 110.247 90.69 110.08 90.49 109.9L91.06 108.96C91.1333 108.847 91.22 108.76 91.32 108.7C91.42 108.64 91.5466 108.61 91.7 108.61C91.8533 108.61 91.9966 108.653 92.13 108.74C92.27 108.827 92.43 108.92 92.61 109.02C92.79 109.12 93 109.213 93.24 109.3C93.4866 109.387 93.7966 109.43 94.17 109.43C94.4633 109.43 94.7133 109.397 94.92 109.33C95.1333 109.257 95.3066 109.163 95.44 109.05C95.58 108.937 95.68 108.807 95.74 108.66C95.8066 108.507 95.84 108.35 95.84 108.19C95.84 107.95 95.7666 107.753 95.62 107.6C95.48 107.447 95.29 107.313 95.05 107.2C94.8166 107.087 94.5466 106.987 94.24 106.9C93.94 106.807 93.63 106.707 93.31 106.6C92.9966 106.493 92.6866 106.37 92.38 106.23C92.08 106.083 91.81 105.9 91.57 105.68C91.3366 105.46 91.1466 105.19 91 104.87C90.86 104.55 90.79 104.163 90.79 103.71C90.79 103.29 90.8733 102.89 91.04 102.51C91.2066 102.13 91.45 101.8 91.77 101.52C92.0966 101.233 92.5 101.007 92.98 100.84C93.4666 100.667 94.0266 100.58 94.66 100.58C95.3666 100.58 96.01 100.697 96.59 100.93C97.17 101.163 97.6533 101.47 98.04 101.85L97.48 102.74Z" fill="#213E88"/>
<path d="M102.509 96.14V111H100.039V96.14H102.509Z" fill="#213E88"/>
<path d="M110.39 106.62C109.677 106.653 109.077 106.717 108.59 106.81C108.103 106.897 107.713 107.01 107.42 107.15C107.127 107.29 106.917 107.453 106.79 107.64C106.663 107.827 106.6 108.03 106.6 108.25C106.6 108.683 106.727 108.993 106.98 109.18C107.24 109.367 107.577 109.46 107.99 109.46C108.497 109.46 108.933 109.37 109.3 109.19C109.673 109.003 110.037 108.723 110.39 108.35V106.62ZM104.73 102.17C105.91 101.09 107.33 100.55 108.99 100.55C109.59 100.55 110.127 100.65 110.6 100.85C111.073 101.043 111.473 101.317 111.8 101.67C112.127 102.017 112.373 102.433 112.54 102.92C112.713 103.407 112.8 103.94 112.8 104.52V111H111.68C111.447 111 111.267 110.967 111.14 110.9C111.013 110.827 110.913 110.683 110.84 110.47L110.62 109.73C110.36 109.963 110.107 110.17 109.86 110.35C109.613 110.523 109.357 110.67 109.09 110.79C108.823 110.91 108.537 111 108.23 111.06C107.93 111.127 107.597 111.16 107.23 111.16C106.797 111.16 106.397 111.103 106.03 110.99C105.663 110.87 105.347 110.693 105.08 110.46C104.813 110.227 104.607 109.937 104.46 109.59C104.313 109.243 104.24 108.84 104.24 108.38C104.24 108.12 104.283 107.863 104.37 107.61C104.457 107.35 104.597 107.103 104.79 106.87C104.99 106.637 105.247 106.417 105.56 106.21C105.873 106.003 106.257 105.823 106.71 105.67C107.17 105.517 107.703 105.393 108.31 105.3C108.917 105.2 109.61 105.14 110.39 105.12V104.52C110.39 103.833 110.243 103.327 109.95 103C109.657 102.667 109.233 102.5 108.68 102.5C108.28 102.5 107.947 102.547 107.68 102.64C107.42 102.733 107.19 102.84 106.99 102.96C106.79 103.073 106.607 103.177 106.44 103.27C106.28 103.363 106.1 103.41 105.9 103.41C105.727 103.41 105.58 103.367 105.46 103.28C105.34 103.187 105.243 103.08 105.17 102.96L104.73 102.17Z" fill="#213E88"/>
<path d="M120.546 106.62C119.833 106.653 119.233 106.717 118.746 106.81C118.26 106.897 117.87 107.01 117.576 107.15C117.283 107.29 117.073 107.453 116.946 107.64C116.82 107.827 116.756 108.03 116.756 108.25C116.756 108.683 116.883 108.993 117.136 109.18C117.396 109.367 117.733 109.46 118.146 109.46C118.653 109.46 119.09 109.37 119.456 109.19C119.83 109.003 120.193 108.723 120.546 108.35V106.62ZM114.886 102.17C116.066 101.09 117.486 100.55 119.146 100.55C119.746 100.55 120.283 100.65 120.756 100.85C121.23 101.043 121.63 101.317 121.956 101.67C122.283 102.017 122.53 102.433 122.696 102.92C122.87 103.407 122.956 103.94 122.956 104.52V111H121.836C121.603 111 121.423 110.967 121.296 110.9C121.17 110.827 121.07 110.683 120.996 110.47L120.776 109.73C120.516 109.963 120.263 110.17 120.016 110.35C119.77 110.523 119.513 110.67 119.246 110.79C118.98 110.91 118.693 111 118.386 111.06C118.086 111.127 117.753 111.16 117.386 111.16C116.953 111.16 116.553 111.103 116.186 110.99C115.82 110.87 115.503 110.693 115.236 110.46C114.97 110.227 114.763 109.937 114.616 109.59C114.47 109.243 114.396 108.84 114.396 108.38C114.396 108.12 114.44 107.863 114.526 107.61C114.613 107.35 114.753 107.103 114.946 106.87C115.146 106.637 115.403 106.417 115.716 106.21C116.03 106.003 116.413 105.823 116.866 105.67C117.326 105.517 117.86 105.393 118.466 105.3C119.073 105.2 119.766 105.14 120.546 105.12V104.52C120.546 103.833 120.4 103.327 120.106 103C119.813 102.667 119.39 102.5 118.836 102.5C118.436 102.5 118.103 102.547 117.836 102.64C117.576 102.733 117.346 102.84 117.146 102.96C116.946 103.073 116.763 103.177 116.596 103.27C116.436 103.363 116.256 103.41 116.056 103.41C115.883 103.41 115.736 103.367 115.616 103.28C115.496 103.187 115.4 103.08 115.326 102.96L114.886 102.17Z" fill="#213E88"/>
<path d="M127.752 108.34C128.032 108.68 128.336 108.92 128.662 109.06C128.996 109.2 129.356 109.27 129.742 109.27C130.116 109.27 130.452 109.2 130.752 109.06C131.052 108.92 131.306 108.707 131.512 108.42C131.726 108.133 131.889 107.773 132.002 107.34C132.116 106.9 132.172 106.383 132.172 105.79C132.172 105.19 132.122 104.683 132.022 104.27C131.929 103.85 131.792 103.51 131.612 103.25C131.432 102.99 131.212 102.8 130.952 102.68C130.699 102.56 130.409 102.5 130.082 102.5C129.569 102.5 129.132 102.61 128.772 102.83C128.412 103.043 128.072 103.347 127.752 103.74V108.34ZM127.622 102.14C128.042 101.667 128.519 101.283 129.052 100.99C129.586 100.697 130.212 100.55 130.932 100.55C131.492 100.55 132.002 100.667 132.462 100.9C132.929 101.133 133.329 101.473 133.662 101.92C134.002 102.36 134.262 102.907 134.442 103.56C134.629 104.207 134.722 104.95 134.722 105.79C134.722 106.557 134.619 107.267 134.412 107.92C134.206 108.573 133.909 109.14 133.522 109.62C133.142 110.1 132.679 110.477 132.132 110.75C131.592 111.017 130.986 111.15 130.312 111.15C129.739 111.15 129.249 111.063 128.842 110.89C128.436 110.71 128.072 110.463 127.752 110.15V114.35H125.282V100.74H126.792C127.112 100.74 127.322 100.89 127.422 101.19L127.622 102.14Z" fill="#213E88"/>
</g>
<g opacity="0.7">
<path d="M223.08 101.57C223.18 100.877 223.373 100.27 223.66 99.75C223.947 99.2233 224.303 98.7867 224.73 98.44C225.163 98.0867 225.657 97.8233 226.21 97.65C226.77 97.47 227.37 97.38 228.01 97.38C228.677 97.38 229.277 97.4767 229.81 97.67C230.35 97.8567 230.81 98.12 231.19 98.46C231.57 98.7933 231.86 99.1867 232.06 99.64C232.267 100.093 232.37 100.583 232.37 101.11C232.37 101.57 232.317 101.977 232.21 102.33C232.11 102.677 231.963 102.98 231.77 103.24C231.577 103.5 231.337 103.72 231.05 103.9C230.763 104.08 230.44 104.23 230.08 104.35C230.947 104.623 231.593 105.04 232.02 105.6C232.447 106.16 232.66 106.863 232.66 107.71C232.66 108.43 232.527 109.067 232.26 109.62C231.993 110.173 231.633 110.64 231.18 111.02C230.727 111.393 230.2 111.677 229.6 111.87C229.007 112.063 228.377 112.16 227.71 112.16C226.983 112.16 226.35 112.077 225.81 111.91C225.27 111.743 224.8 111.497 224.4 111.17C224 110.843 223.66 110.443 223.38 109.97C223.1 109.497 222.86 108.95 222.66 108.33L223.75 107.88C224.037 107.76 224.303 107.73 224.55 107.79C224.803 107.843 224.987 107.977 225.1 108.19C225.22 108.423 225.35 108.653 225.49 108.88C225.637 109.107 225.81 109.31 226.01 109.49C226.21 109.663 226.443 109.807 226.71 109.92C226.983 110.027 227.307 110.08 227.68 110.08C228.1 110.08 228.467 110.013 228.78 109.88C229.093 109.74 229.353 109.56 229.56 109.34C229.773 109.12 229.93 108.877 230.03 108.61C230.137 108.337 230.19 108.063 230.19 107.79C230.19 107.443 230.153 107.13 230.08 106.85C230.007 106.563 229.853 106.32 229.62 106.12C229.387 105.92 229.05 105.763 228.61 105.65C228.177 105.537 227.593 105.48 226.86 105.48V103.72C227.467 103.713 227.97 103.657 228.37 103.55C228.77 103.443 229.087 103.297 229.32 103.11C229.56 102.917 229.727 102.687 229.82 102.42C229.913 102.153 229.96 101.86 229.96 101.54C229.96 100.86 229.77 100.343 229.39 99.99C229.01 99.6367 228.503 99.46 227.87 99.46C227.577 99.46 227.307 99.5033 227.06 99.59C226.813 99.67 226.59 99.7867 226.39 99.94C226.197 100.087 226.033 100.26 225.9 100.46C225.767 100.66 225.667 100.88 225.6 101.12C225.487 101.427 225.337 101.63 225.15 101.73C224.97 101.83 224.713 101.853 224.38 101.8L223.08 101.57Z" fill="#213E88"/>
<path d="M234.782 114.45C234.662 114.35 234.602 114.227 234.602 114.08C234.602 114.027 234.618 113.967 234.652 113.9C234.692 113.833 234.738 113.773 234.792 113.72C234.865 113.64 234.955 113.54 235.062 113.42C235.168 113.307 235.275 113.173 235.382 113.02C235.488 112.873 235.585 112.71 235.672 112.53C235.765 112.357 235.835 112.17 235.882 111.97C235.668 111.97 235.475 111.933 235.302 111.86C235.128 111.78 234.978 111.673 234.852 111.54C234.732 111.407 234.635 111.25 234.562 111.07C234.495 110.89 234.462 110.693 234.462 110.48C234.462 110.293 234.495 110.12 234.562 109.96C234.635 109.793 234.735 109.65 234.862 109.53C234.988 109.403 235.142 109.307 235.322 109.24C235.502 109.167 235.698 109.13 235.912 109.13C236.165 109.13 236.385 109.177 236.572 109.27C236.765 109.357 236.922 109.48 237.042 109.64C237.168 109.793 237.262 109.973 237.322 110.18C237.388 110.38 237.422 110.593 237.422 110.82C237.422 111.14 237.372 111.477 237.272 111.83C237.178 112.183 237.038 112.537 236.852 112.89C236.665 113.243 236.432 113.587 236.152 113.92C235.878 114.253 235.565 114.56 235.212 114.84L234.782 114.45Z" fill="#213E88"/>
<path d="M248.099 109.7C248.366 109.7 248.576 109.777 248.729 109.93C248.889 110.077 248.969 110.273 248.969 110.52V112H239.049V111.18C239.049 111.013 239.082 110.84 239.149 110.66C239.222 110.473 239.336 110.307 239.489 110.16L243.879 105.76C244.246 105.387 244.572 105.03 244.859 104.69C245.152 104.35 245.396 104.013 245.589 103.68C245.782 103.347 245.929 103.01 246.029 102.67C246.136 102.323 246.189 101.96 246.189 101.58C246.189 101.233 246.139 100.93 246.039 100.67C245.939 100.403 245.796 100.18 245.609 100C245.429 99.82 245.209 99.6867 244.949 99.6C244.696 99.5067 244.409 99.46 244.089 99.46C243.796 99.46 243.522 99.5033 243.269 99.59C243.022 99.67 242.802 99.7867 242.609 99.94C242.416 100.087 242.252 100.26 242.119 100.46C241.986 100.66 241.886 100.88 241.819 101.12C241.706 101.427 241.559 101.63 241.379 101.73C241.199 101.83 240.939 101.853 240.599 101.8L239.299 101.57C239.399 100.877 239.592 100.27 239.879 99.75C240.166 99.2233 240.522 98.7867 240.949 98.44C241.382 98.0867 241.876 97.8233 242.429 97.65C242.989 97.47 243.589 97.38 244.229 97.38C244.896 97.38 245.506 97.48 246.059 97.68C246.612 97.8733 247.086 98.15 247.479 98.51C247.872 98.87 248.179 99.3033 248.399 99.81C248.619 100.317 248.729 100.88 248.729 101.5C248.729 102.033 248.649 102.527 248.489 102.98C248.336 103.433 248.126 103.867 247.859 104.28C247.599 104.693 247.292 105.093 246.939 105.48C246.586 105.867 246.216 106.26 245.829 106.66L242.569 109.99C242.882 109.897 243.192 109.827 243.499 109.78C243.812 109.727 244.109 109.7 244.389 109.7H248.099Z" fill="#213E88"/>
<path d="M262.414 104.36C262.134 104.02 261.827 103.78 261.494 103.64C261.167 103.5 260.814 103.43 260.434 103.43C260.061 103.43 259.724 103.5 259.424 103.64C259.124 103.78 258.867 103.993 258.654 104.28C258.441 104.56 258.277 104.92 258.164 105.36C258.051 105.793 257.994 106.307 257.994 106.9C257.994 107.5 258.041 108.01 258.134 108.43C258.234 108.843 258.374 109.183 258.554 109.45C258.734 109.71 258.954 109.9 259.214 110.02C259.474 110.133 259.764 110.19 260.084 110.19C260.597 110.19 261.034 110.083 261.394 109.87C261.754 109.657 262.094 109.353 262.414 108.96V104.36ZM264.884 97.14V112H263.374C263.047 112 262.841 111.85 262.754 111.55L262.544 110.56C262.131 111.033 261.654 111.417 261.114 111.71C260.581 112.003 259.957 112.15 259.244 112.15C258.684 112.15 258.171 112.033 257.704 111.8C257.237 111.567 256.834 111.23 256.494 110.79C256.161 110.343 255.901 109.793 255.714 109.14C255.534 108.487 255.444 107.74 255.444 106.9C255.444 106.14 255.547 105.433 255.754 104.78C255.961 104.127 256.257 103.56 256.644 103.08C257.031 102.6 257.494 102.227 258.034 101.96C258.574 101.687 259.181 101.55 259.854 101.55C260.427 101.55 260.917 101.64 261.324 101.82C261.731 102 262.094 102.243 262.414 102.55V97.14H264.884Z" fill="#213E88"/>
<path d="M272.742 107.62C272.028 107.653 271.428 107.717 270.942 107.81C270.455 107.897 270.065 108.01 269.772 108.15C269.478 108.29 269.268 108.453 269.142 108.64C269.015 108.827 268.952 109.03 268.952 109.25C268.952 109.683 269.078 109.993 269.332 110.18C269.592 110.367 269.928 110.46 270.342 110.46C270.848 110.46 271.285 110.37 271.652 110.19C272.025 110.003 272.388 109.723 272.742 109.35V107.62ZM267.082 103.17C268.262 102.09 269.682 101.55 271.342 101.55C271.942 101.55 272.478 101.65 272.952 101.85C273.425 102.043 273.825 102.317 274.152 102.67C274.478 103.017 274.725 103.433 274.892 103.92C275.065 104.407 275.152 104.94 275.152 105.52V112H274.032C273.798 112 273.618 111.967 273.492 111.9C273.365 111.827 273.265 111.683 273.192 111.47L272.972 110.73C272.712 110.963 272.458 111.17 272.212 111.35C271.965 111.523 271.708 111.67 271.442 111.79C271.175 111.91 270.888 112 270.582 112.06C270.282 112.127 269.948 112.16 269.582 112.16C269.148 112.16 268.748 112.103 268.382 111.99C268.015 111.87 267.698 111.693 267.432 111.46C267.165 111.227 266.958 110.937 266.812 110.59C266.665 110.243 266.592 109.84 266.592 109.38C266.592 109.12 266.635 108.863 266.722 108.61C266.808 108.35 266.948 108.103 267.142 107.87C267.342 107.637 267.598 107.417 267.912 107.21C268.225 107.003 268.608 106.823 269.062 106.67C269.522 106.517 270.055 106.393 270.662 106.3C271.268 106.2 271.962 106.14 272.742 106.12V105.52C272.742 104.833 272.595 104.327 272.302 104C272.008 103.667 271.585 103.5 271.032 103.5C270.632 103.5 270.298 103.547 270.032 103.64C269.772 103.733 269.542 103.84 269.342 103.96C269.142 104.073 268.958 104.177 268.792 104.27C268.632 104.363 268.452 104.41 268.252 104.41C268.078 104.41 267.932 104.367 267.812 104.28C267.692 104.187 267.595 104.08 267.522 103.96L267.082 103.17Z" fill="#213E88"/>
<path d="M281.228 106.62C281.535 106.62 281.801 106.58 282.028 106.5C282.255 106.413 282.441 106.297 282.588 106.15C282.741 106.003 282.855 105.827 282.928 105.62C283.008 105.413 283.048 105.187 283.048 104.94C283.048 104.433 282.895 104.033 282.588 103.74C282.288 103.44 281.835 103.29 281.228 103.29C280.621 103.29 280.165 103.44 279.858 103.74C279.558 104.033 279.408 104.433 279.408 104.94C279.408 105.18 279.445 105.403 279.518 105.61C279.598 105.817 279.711 105.997 279.858 106.15C280.011 106.297 280.201 106.413 280.428 106.5C280.661 106.58 280.928 106.62 281.228 106.62ZM284.018 112.46C284.018 112.26 283.958 112.097 283.838 111.97C283.718 111.843 283.555 111.747 283.348 111.68C283.141 111.607 282.898 111.553 282.618 111.52C282.345 111.487 282.051 111.463 281.738 111.45C281.431 111.43 281.111 111.413 280.778 111.4C280.451 111.387 280.131 111.36 279.818 111.32C279.545 111.473 279.321 111.653 279.148 111.86C278.981 112.067 278.898 112.307 278.898 112.58C278.898 112.76 278.941 112.927 279.028 113.08C279.121 113.24 279.265 113.377 279.458 113.49C279.658 113.603 279.915 113.69 280.228 113.75C280.541 113.817 280.925 113.85 281.378 113.85C281.838 113.85 282.235 113.813 282.568 113.74C282.901 113.673 283.175 113.577 283.388 113.45C283.608 113.33 283.768 113.183 283.868 113.01C283.968 112.843 284.018 112.66 284.018 112.46ZM286.478 102.09V103.01C286.478 103.303 286.301 103.483 285.948 103.55L285.028 103.72C285.168 104.073 285.238 104.46 285.238 104.88C285.238 105.387 285.135 105.847 284.928 106.26C284.728 106.667 284.448 107.013 284.088 107.3C283.728 107.587 283.301 107.81 282.808 107.97C282.321 108.123 281.795 108.2 281.228 108.2C281.028 108.2 280.835 108.19 280.648 108.17C280.461 108.15 280.278 108.123 280.098 108.09C279.778 108.283 279.618 108.5 279.618 108.74C279.618 108.947 279.711 109.1 279.898 109.2C280.091 109.293 280.345 109.36 280.658 109.4C280.971 109.44 281.328 109.467 281.728 109.48C282.128 109.487 282.538 109.507 282.958 109.54C283.378 109.573 283.788 109.633 284.188 109.72C284.588 109.8 284.945 109.93 285.258 110.11C285.571 110.29 285.821 110.537 286.008 110.85C286.201 111.157 286.298 111.553 286.298 112.04C286.298 112.493 286.185 112.933 285.958 113.36C285.738 113.787 285.415 114.167 284.988 114.5C284.568 114.833 284.048 115.1 283.428 115.3C282.815 115.507 282.115 115.61 281.328 115.61C280.555 115.61 279.881 115.533 279.308 115.38C278.735 115.233 278.258 115.033 277.878 114.78C277.498 114.533 277.215 114.247 277.028 113.92C276.841 113.593 276.748 113.253 276.748 112.9C276.748 112.42 276.891 112.02 277.178 111.7C277.471 111.373 277.871 111.113 278.378 110.92C278.105 110.78 277.888 110.593 277.728 110.36C277.568 110.127 277.488 109.82 277.488 109.44C277.488 109.287 277.515 109.13 277.568 108.97C277.628 108.803 277.711 108.64 277.818 108.48C277.931 108.32 278.071 108.17 278.238 108.03C278.405 107.883 278.601 107.753 278.828 107.64C278.308 107.36 277.898 106.987 277.598 106.52C277.305 106.053 277.158 105.507 277.158 104.88C277.158 104.373 277.258 103.917 277.458 103.51C277.665 103.097 277.948 102.747 278.308 102.46C278.675 102.167 279.105 101.943 279.598 101.79C280.098 101.637 280.641 101.56 281.228 101.56C281.668 101.56 282.081 101.607 282.468 101.7C282.855 101.787 283.208 101.917 283.528 102.09H286.478Z" fill="#213E88"/>
<path d="M294.478 105.69C294.478 105.37 294.432 105.07 294.338 104.79C294.252 104.503 294.118 104.253 293.938 104.04C293.758 103.827 293.528 103.66 293.248 103.54C292.975 103.413 292.655 103.35 292.288 103.35C291.575 103.35 291.012 103.553 290.598 103.96C290.192 104.367 289.932 104.943 289.818 105.69H294.478ZM289.768 107.18C289.808 107.707 289.902 108.163 290.048 108.55C290.195 108.93 290.388 109.247 290.628 109.5C290.868 109.747 291.152 109.933 291.478 110.06C291.812 110.18 292.178 110.24 292.578 110.24C292.978 110.24 293.322 110.193 293.608 110.1C293.902 110.007 294.155 109.903 294.368 109.79C294.588 109.677 294.778 109.573 294.938 109.48C295.105 109.387 295.265 109.34 295.418 109.34C295.625 109.34 295.778 109.417 295.878 109.57L296.588 110.47C296.315 110.79 296.008 111.06 295.668 111.28C295.328 111.493 294.972 111.667 294.598 111.8C294.232 111.927 293.855 112.017 293.468 112.07C293.088 112.123 292.718 112.15 292.358 112.15C291.645 112.15 290.982 112.033 290.368 111.8C289.755 111.56 289.222 111.21 288.768 110.75C288.315 110.283 287.958 109.71 287.698 109.03C287.438 108.343 287.308 107.55 287.308 106.65C287.308 105.95 287.422 105.293 287.648 104.68C287.875 104.06 288.198 103.523 288.618 103.07C289.045 102.61 289.562 102.247 290.168 101.98C290.782 101.713 291.472 101.58 292.238 101.58C292.885 101.58 293.482 101.683 294.028 101.89C294.575 102.097 295.045 102.4 295.438 102.8C295.832 103.193 296.138 103.68 296.358 104.26C296.585 104.833 296.698 105.49 296.698 106.23C296.698 106.603 296.658 106.857 296.578 106.99C296.498 107.117 296.345 107.18 296.118 107.18H289.768Z" fill="#213E88"/>
<path d="M300.862 103C301.069 102.793 301.285 102.603 301.512 102.43C301.745 102.25 301.989 102.1 302.242 101.98C302.502 101.853 302.779 101.757 303.072 101.69C303.365 101.617 303.685 101.58 304.032 101.58C304.592 101.58 305.089 101.677 305.522 101.87C305.955 102.057 306.315 102.323 306.602 102.67C306.895 103.01 307.115 103.42 307.262 103.9C307.415 104.373 307.492 104.897 307.492 105.47V112H305.022V105.47C305.022 104.843 304.879 104.36 304.592 104.02C304.305 103.673 303.869 103.5 303.282 103.5C302.855 103.5 302.455 103.597 302.082 103.79C301.709 103.983 301.355 104.247 301.022 104.58V112H298.552V101.74H300.062C300.382 101.74 300.592 101.89 300.692 102.19L300.862 103Z" fill="#213E88"/>
<path d="M321.314 105.69C321.314 105.37 321.268 105.07 321.174 104.79C321.088 104.503 320.954 104.253 320.774 104.04C320.594 103.827 320.364 103.66 320.084 103.54C319.811 103.413 319.491 103.35 319.124 103.35C318.411 103.35 317.848 103.553 317.434 103.96C317.028 104.367 316.768 104.943 316.654 105.69H321.314ZM316.604 107.18C316.644 107.707 316.738 108.163 316.884 108.55C317.031 108.93 317.224 109.247 317.464 109.5C317.704 109.747 317.988 109.933 318.314 110.06C318.648 110.18 319.014 110.24 319.414 110.24C319.814 110.24 320.158 110.193 320.444 110.1C320.738 110.007 320.991 109.903 321.204 109.79C321.424 109.677 321.614 109.573 321.774 109.48C321.941 109.387 322.101 109.34 322.254 109.34C322.461 109.34 322.614 109.417 322.714 109.57L323.424 110.47C323.151 110.79 322.844 111.06 322.504 111.28C322.164 111.493 321.808 111.667 321.434 111.8C321.068 111.927 320.691 112.017 320.304 112.07C319.924 112.123 319.554 112.15 319.194 112.15C318.481 112.15 317.818 112.033 317.204 111.8C316.591 111.56 316.058 111.21 315.604 110.75C315.151 110.283 314.794 109.71 314.534 109.03C314.274 108.343 314.144 107.55 314.144 106.65C314.144 105.95 314.258 105.293 314.484 104.68C314.711 104.06 315.034 103.523 315.454 103.07C315.881 102.61 316.398 102.247 317.004 101.98C317.618 101.713 318.308 101.58 319.074 101.58C319.721 101.58 320.318 101.683 320.864 101.89C321.411 102.097 321.881 102.4 322.274 102.8C322.668 103.193 322.974 103.68 323.194 104.26C323.421 104.833 323.534 105.49 323.534 106.23C323.534 106.603 323.494 106.857 323.414 106.99C323.334 107.117 323.181 107.18 322.954 107.18H316.604Z" fill="#213E88"/>
<path d="M334.392 112H332.012C331.832 112 331.685 111.953 331.572 111.86C331.465 111.767 331.375 111.66 331.302 111.54L329.132 107.97C329.098 108.083 329.058 108.19 329.012 108.29C328.972 108.39 328.925 108.483 328.872 108.57L326.952 111.54C326.878 111.653 326.788 111.76 326.682 111.86C326.575 111.953 326.442 112 326.282 112H324.072L327.592 106.71L324.212 101.74H326.592C326.772 101.74 326.905 101.767 326.992 101.82C327.078 101.867 327.155 101.947 327.222 102.06L329.372 105.48C329.445 105.253 329.548 105.03 329.682 104.81L331.412 102.11C331.558 101.863 331.748 101.74 331.982 101.74H334.252L330.882 106.6L334.392 112Z" fill="#213E88"/>
<path d="M339.101 112.16C338.208 112.16 337.521 111.91 337.041 111.41C336.568 110.903 336.331 110.207 336.331 109.32V103.59H335.281C335.148 103.59 335.034 103.547 334.941 103.46C334.848 103.373 334.801 103.243 334.801 103.07V102.09L336.451 101.82L336.971 99.02C337.004 98.8867 337.068 98.7833 337.161 98.71C337.254 98.6367 337.374 98.6 337.521 98.6H338.801V101.83H341.541V103.59H338.801V109.15C338.801 109.47 338.878 109.72 339.031 109.9C339.191 110.08 339.408 110.17 339.681 110.17C339.834 110.17 339.961 110.153 340.061 110.12C340.168 110.08 340.258 110.04 340.331 110C340.411 109.96 340.481 109.923 340.541 109.89C340.601 109.85 340.661 109.83 340.721 109.83C340.794 109.83 340.854 109.85 340.901 109.89C340.948 109.923 340.998 109.977 341.051 110.05L341.791 111.25C341.431 111.55 341.018 111.777 340.551 111.93C340.084 112.083 339.601 112.16 339.101 112.16Z" fill="#213E88"/>
<path d="M345.452 103.52C345.772 102.907 346.152 102.427 346.592 102.08C347.032 101.727 347.552 101.55 348.152 101.55C348.626 101.55 349.006 101.653 349.292 101.86L349.132 103.71C349.099 103.83 349.049 103.917 348.982 103.97C348.922 104.017 348.839 104.04 348.732 104.04C348.632 104.04 348.482 104.023 348.282 103.99C348.089 103.957 347.899 103.94 347.712 103.94C347.439 103.94 347.196 103.98 346.982 104.06C346.769 104.14 346.576 104.257 346.402 104.41C346.236 104.557 346.086 104.737 345.952 104.95C345.826 105.163 345.706 105.407 345.592 105.68V112H343.122V101.74H344.572C344.826 101.74 345.002 101.787 345.102 101.88C345.202 101.967 345.269 102.127 345.302 102.36L345.452 103.52Z" fill="#213E88"/>
<path d="M355.867 107.62C355.153 107.653 354.553 107.717 354.067 107.81C353.58 107.897 353.19 108.01 352.897 108.15C352.603 108.29 352.393 108.453 352.267 108.64C352.14 108.827 352.077 109.03 352.077 109.25C352.077 109.683 352.203 109.993 352.457 110.18C352.717 110.367 353.053 110.46 353.467 110.46C353.973 110.46 354.41 110.37 354.777 110.19C355.15 110.003 355.513 109.723 355.867 109.35V107.62ZM350.207 103.17C351.387 102.09 352.807 101.55 354.467 101.55C355.067 101.55 355.603 101.65 356.077 101.85C356.55 102.043 356.95 102.317 357.277 102.67C357.603 103.017 357.85 103.433 358.017 103.92C358.19 104.407 358.277 104.94 358.277 105.52V112H357.157C356.923 112 356.743 111.967 356.617 111.9C356.49 111.827 356.39 111.683 356.317 111.47L356.097 110.73C355.837 110.963 355.583 111.17 355.337 111.35C355.09 111.523 354.833 111.67 354.567 111.79C354.3 111.91 354.013 112 353.707 112.06C353.407 112.127 353.073 112.16 352.707 112.16C352.273 112.16 351.873 112.103 351.507 111.99C351.14 111.87 350.823 111.693 350.557 111.46C350.29 111.227 350.083 110.937 349.937 110.59C349.79 110.243 349.717 109.84 349.717 109.38C349.717 109.12 349.76 108.863 349.847 108.61C349.933 108.35 350.073 108.103 350.267 107.87C350.467 107.637 350.723 107.417 351.037 107.21C351.35 107.003 351.733 106.823 352.187 106.67C352.647 106.517 353.18 106.393 353.787 106.3C354.393 106.2 355.087 106.14 355.867 106.12V105.52C355.867 104.833 355.72 104.327 355.427 104C355.133 103.667 354.71 103.5 354.157 103.5C353.757 103.5 353.423 103.547 353.157 103.64C352.897 103.733 352.667 103.84 352.467 103.96C352.267 104.073 352.083 104.177 351.917 104.27C351.757 104.363 351.577 104.41 351.377 104.41C351.203 104.41 351.057 104.367 350.937 104.28C350.817 104.187 350.72 104.08 350.647 103.96L350.207 103.17Z" fill="#213E88"/>
</g>
<path opacity="0.3" d="M0 134H428V136H0V134Z" fill="#367CFF"/>
<g opacity="0.7">
<path d="M25.38 170.9C25.0667 171.053 24.7233 171.173 24.35 171.26C24.7233 171.347 25.0667 171.467 25.38 171.62L29.01 173.49C29.1633 173.563 29.2733 173.657 29.34 173.77C29.4067 173.883 29.44 174.007 29.44 174.14V175.9L21.51 171.76V170.76L29.44 166.63V168.39C29.44 168.523 29.4067 168.647 29.34 168.76C29.2733 168.867 29.1633 168.96 29.01 169.04L25.38 170.9Z" fill="#213E88"/>
<path d="M41.6849 168.79L41.1849 169.41C41.4649 169.27 41.7649 169.163 42.0849 169.09C42.4115 169.01 42.7615 168.97 43.1349 168.97C43.6815 168.97 44.2115 169.06 44.7249 169.24C45.2449 169.42 45.7015 169.693 46.0949 170.06C46.4882 170.42 46.8049 170.87 47.0449 171.41C47.2849 171.95 47.4049 172.58 47.4049 173.3C47.4049 173.973 47.2815 174.607 47.0349 175.2C46.7882 175.787 46.4415 176.3 45.9949 176.74C45.5482 177.18 45.0082 177.527 44.3749 177.78C43.7482 178.033 43.0549 178.16 42.2949 178.16C41.5215 178.16 40.8282 178.037 40.2149 177.79C39.6015 177.543 39.0782 177.2 38.6449 176.76C38.2115 176.313 37.8782 175.78 37.6449 175.16C37.4182 174.533 37.3049 173.84 37.3049 173.08C37.3049 172.4 37.4415 171.703 37.7149 170.99C37.9949 170.27 38.4249 169.523 39.0049 168.75L42.4549 164.12C42.5749 163.96 42.7482 163.823 42.9749 163.71C43.2082 163.597 43.4749 163.54 43.7749 163.54H45.9749L41.6849 168.79ZM42.2449 176.14C42.6382 176.14 42.9982 176.073 43.3249 175.94C43.6582 175.807 43.9415 175.62 44.1749 175.38C44.4149 175.14 44.6015 174.86 44.7349 174.54C44.8682 174.213 44.9349 173.86 44.9349 173.48C44.9349 173.067 44.8715 172.697 44.7449 172.37C44.6182 172.037 44.4382 171.757 44.2049 171.53C43.9715 171.297 43.6915 171.12 43.3649 171C43.0382 170.88 42.6782 170.82 42.2849 170.82C41.8915 170.82 41.5349 170.887 41.2149 171.02C40.8949 171.153 40.6215 171.34 40.3949 171.58C40.1682 171.813 39.9915 172.093 39.8649 172.42C39.7382 172.74 39.6749 173.087 39.6749 173.46C39.6749 173.86 39.7282 174.227 39.8349 174.56C39.9482 174.887 40.1115 175.167 40.3249 175.4C40.5449 175.633 40.8149 175.817 41.1349 175.95C41.4549 176.077 41.8249 176.14 42.2449 176.14Z" fill="#213E88"/>
<path d="M62.9897 167.74V178H61.4797C61.153 178 60.9464 177.85 60.8597 177.55L60.6897 176.73C60.2697 177.157 59.8064 177.503 59.2997 177.77C58.793 178.03 58.1964 178.16 57.5097 178.16C56.9497 178.16 56.453 178.067 56.0197 177.88C55.593 177.687 55.233 177.417 54.9397 177.07C54.6464 176.723 54.423 176.313 54.2697 175.84C54.123 175.36 54.0497 174.833 54.0497 174.26V167.74H56.5197V174.26C56.5197 174.887 56.663 175.373 56.9497 175.72C57.243 176.06 57.6797 176.23 58.2597 176.23C58.6864 176.23 59.0864 176.137 59.4597 175.95C59.833 175.757 60.1864 175.493 60.5197 175.16V167.74H62.9897Z" fill="#213E88"/>
<path d="M74.2788 167.74V178H72.7688C72.4421 178 72.2354 177.85 72.1488 177.55L71.9788 176.73C71.5588 177.157 71.0954 177.503 70.5888 177.77C70.0821 178.03 69.4854 178.16 68.7988 178.16C68.2388 178.16 67.7421 178.067 67.3088 177.88C66.8821 177.687 66.5221 177.417 66.2288 177.07C65.9354 176.723 65.7121 176.313 65.5588 175.84C65.4121 175.36 65.3388 174.833 65.3388 174.26V167.74H67.8088V174.26C67.8088 174.887 67.9521 175.373 68.2388 175.72C68.5321 176.06 68.9688 176.23 69.5488 176.23C69.9754 176.23 70.3754 176.137 70.7488 175.95C71.1221 175.757 71.4754 175.493 71.8088 175.16V167.74H74.2788Z" fill="#213E88"/>
<path d="M79.0578 169.52C79.3778 168.907 79.7578 168.427 80.1978 168.08C80.6378 167.727 81.1578 167.55 81.7578 167.55C82.2312 167.55 82.6112 167.653 82.8978 167.86L82.7378 169.71C82.7045 169.83 82.6545 169.917 82.5878 169.97C82.5278 170.017 82.4445 170.04 82.3378 170.04C82.2378 170.04 82.0878 170.023 81.8878 169.99C81.6945 169.957 81.5045 169.94 81.3178 169.94C81.0445 169.94 80.8012 169.98 80.5878 170.06C80.3745 170.14 80.1812 170.257 80.0078 170.41C79.8412 170.557 79.6912 170.737 79.5578 170.95C79.4312 171.163 79.3112 171.407 79.1978 171.68V178H76.7278V167.74H78.1778C78.4312 167.74 78.6078 167.787 78.7078 167.88C78.8078 167.967 78.8745 168.127 78.9078 168.36L79.0578 169.52Z" fill="#213E88"/>
<path d="M94.8824 169.74C94.8157 169.847 94.7457 169.923 94.6724 169.97C94.599 170.01 94.5057 170.03 94.3923 170.03C94.2723 170.03 94.1424 169.997 94.0023 169.93C93.869 169.863 93.7123 169.79 93.5323 169.71C93.3523 169.623 93.1457 169.547 92.9124 169.48C92.6857 169.413 92.4157 169.38 92.1023 169.38C91.6157 169.38 91.2324 169.483 90.9524 169.69C90.679 169.897 90.5424 170.167 90.5424 170.5C90.5424 170.72 90.6123 170.907 90.7523 171.06C90.899 171.207 91.089 171.337 91.3223 171.45C91.5623 171.563 91.8324 171.667 92.1324 171.76C92.4324 171.847 92.7357 171.943 93.0424 172.05C93.3557 172.157 93.6623 172.28 93.9623 172.42C94.2623 172.553 94.529 172.727 94.7624 172.94C95.0024 173.147 95.1924 173.397 95.3324 173.69C95.479 173.983 95.5524 174.337 95.5524 174.75C95.5524 175.243 95.4623 175.7 95.2823 176.12C95.109 176.533 94.849 176.893 94.5023 177.2C94.1557 177.5 93.7257 177.737 93.2123 177.91C92.7057 178.077 92.119 178.16 91.4524 178.16C91.099 178.16 90.7524 178.127 90.4124 178.06C90.079 178 89.7557 177.913 89.4424 177.8C89.1357 177.687 88.849 177.553 88.5824 177.4C88.3224 177.247 88.0923 177.08 87.8923 176.9L88.4623 175.96C88.5357 175.847 88.6224 175.76 88.7224 175.7C88.8224 175.64 88.949 175.61 89.1023 175.61C89.2557 175.61 89.399 175.653 89.5323 175.74C89.6723 175.827 89.8324 175.92 90.0124 176.02C90.1924 176.12 90.4023 176.213 90.6423 176.3C90.889 176.387 91.199 176.43 91.5723 176.43C91.8657 176.43 92.1157 176.397 92.3223 176.33C92.5357 176.257 92.709 176.163 92.8424 176.05C92.9824 175.937 93.0823 175.807 93.1423 175.66C93.209 175.507 93.2424 175.35 93.2424 175.19C93.2424 174.95 93.169 174.753 93.0224 174.6C92.8824 174.447 92.6924 174.313 92.4524 174.2C92.219 174.087 91.949 173.987 91.6423 173.9C91.3423 173.807 91.0323 173.707 90.7123 173.6C90.399 173.493 90.089 173.37 89.7823 173.23C89.4823 173.083 89.2124 172.9 88.9724 172.68C88.739 172.46 88.549 172.19 88.4024 171.87C88.2624 171.55 88.1924 171.163 88.1924 170.71C88.1924 170.29 88.2757 169.89 88.4424 169.51C88.609 169.13 88.8523 168.8 89.1723 168.52C89.499 168.233 89.9024 168.007 90.3824 167.84C90.869 167.667 91.429 167.58 92.0624 167.58C92.769 167.58 93.4124 167.697 93.9924 167.93C94.5724 168.163 95.0557 168.47 95.4424 168.85L94.8824 169.74Z" fill="#213E88"/>
<path d="M99.9114 163.14V178H97.4414V163.14H99.9114Z" fill="#213E88"/>
<path d="M107.792 173.62C107.079 173.653 106.479 173.717 105.992 173.81C105.506 173.897 105.116 174.01 104.822 174.15C104.529 174.29 104.319 174.453 104.192 174.64C104.066 174.827 104.002 175.03 104.002 175.25C104.002 175.683 104.129 175.993 104.382 176.18C104.642 176.367 104.979 176.46 105.392 176.46C105.899 176.46 106.336 176.37 106.702 176.19C107.076 176.003 107.439 175.723 107.792 175.35V173.62ZM102.132 169.17C103.312 168.09 104.732 167.55 106.392 167.55C106.992 167.55 107.529 167.65 108.002 167.85C108.476 168.043 108.876 168.317 109.202 168.67C109.529 169.017 109.776 169.433 109.942 169.92C110.116 170.407 110.202 170.94 110.202 171.52V178H109.082C108.849 178 108.669 177.967 108.542 177.9C108.416 177.827 108.316 177.683 108.242 177.47L108.022 176.73C107.762 176.963 107.509 177.17 107.262 177.35C107.016 177.523 106.759 177.67 106.492 177.79C106.226 177.91 105.939 178 105.632 178.06C105.332 178.127 104.999 178.16 104.632 178.16C104.199 178.16 103.799 178.103 103.432 177.99C103.066 177.87 102.749 177.693 102.482 177.46C102.216 177.227 102.009 176.937 101.862 176.59C101.716 176.243 101.642 175.84 101.642 175.38C101.642 175.12 101.686 174.863 101.772 174.61C101.859 174.35 101.999 174.103 102.192 173.87C102.392 173.637 102.649 173.417 102.962 173.21C103.276 173.003 103.659 172.823 104.112 172.67C104.572 172.517 105.106 172.393 105.712 172.3C106.319 172.2 107.012 172.14 107.792 172.12V171.52C107.792 170.833 107.646 170.327 107.352 170C107.059 169.667 106.636 169.5 106.082 169.5C105.682 169.5 105.349 169.547 105.082 169.64C104.822 169.733 104.592 169.84 104.392 169.96C104.192 170.073 104.009 170.177 103.842 170.27C103.682 170.363 103.502 170.41 103.302 170.41C103.129 170.41 102.982 170.367 102.862 170.28C102.742 170.187 102.646 170.08 102.572 169.96L102.132 169.17Z" fill="#213E88"/>
<path d="M117.949 173.62C117.235 173.653 116.635 173.717 116.149 173.81C115.662 173.897 115.272 174.01 114.979 174.15C114.685 174.29 114.475 174.453 114.349 174.64C114.222 174.827 114.159 175.03 114.159 175.25C114.159 175.683 114.285 175.993 114.539 176.18C114.799 176.367 115.135 176.46 115.549 176.46C116.055 176.46 116.492 176.37 116.859 176.19C117.232 176.003 117.595 175.723 117.949 175.35V173.62ZM112.289 169.17C113.469 168.09 114.889 167.55 116.549 167.55C117.149 167.55 117.685 167.65 118.159 167.85C118.632 168.043 119.032 168.317 119.359 168.67C119.685 169.017 119.932 169.433 120.099 169.92C120.272 170.407 120.359 170.94 120.359 171.52V178H119.239C119.005 178 118.825 177.967 118.699 177.9C118.572 177.827 118.472 177.683 118.399 177.47L118.179 176.73C117.919 176.963 117.665 177.17 117.419 177.35C117.172 177.523 116.915 177.67 116.649 177.79C116.382 177.91 116.095 178 115.789 178.06C115.489 178.127 115.155 178.16 114.789 178.16C114.355 178.16 113.955 178.103 113.589 177.99C113.222 177.87 112.905 177.693 112.639 177.46C112.372 177.227 112.165 176.937 112.019 176.59C111.872 176.243 111.799 175.84 111.799 175.38C111.799 175.12 111.842 174.863 111.929 174.61C112.015 174.35 112.155 174.103 112.349 173.87C112.549 173.637 112.805 173.417 113.119 173.21C113.432 173.003 113.815 172.823 114.269 172.67C114.729 172.517 115.262 172.393 115.869 172.3C116.475 172.2 117.169 172.14 117.949 172.12V171.52C117.949 170.833 117.802 170.327 117.509 170C117.215 169.667 116.792 169.5 116.239 169.5C115.839 169.5 115.505 169.547 115.239 169.64C114.979 169.733 114.749 169.84 114.549 169.96C114.349 170.073 114.165 170.177 113.999 170.27C113.839 170.363 113.659 170.41 113.459 170.41C113.285 170.41 113.139 170.367 113.019 170.28C112.899 170.187 112.802 170.08 112.729 169.96L112.289 169.17Z" fill="#213E88"/>
<path d="M125.155 175.34C125.435 175.68 125.738 175.92 126.065 176.06C126.398 176.2 126.758 176.27 127.145 176.27C127.518 176.27 127.855 176.2 128.155 176.06C128.455 175.92 128.708 175.707 128.915 175.42C129.128 175.133 129.292 174.773 129.405 174.34C129.518 173.9 129.575 173.383 129.575 172.79C129.575 172.19 129.525 171.683 129.425 171.27C129.332 170.85 129.195 170.51 129.015 170.25C128.835 169.99 128.615 169.8 128.355 169.68C128.102 169.56 127.812 169.5 127.485 169.5C126.972 169.5 126.535 169.61 126.175 169.83C125.815 170.043 125.475 170.347 125.155 170.74V175.34ZM125.025 169.14C125.445 168.667 125.922 168.283 126.455 167.99C126.988 167.697 127.615 167.55 128.335 167.55C128.895 167.55 129.405 167.667 129.865 167.9C130.332 168.133 130.732 168.473 131.065 168.92C131.405 169.36 131.665 169.907 131.845 170.56C132.032 171.207 132.125 171.95 132.125 172.79C132.125 173.557 132.022 174.267 131.815 174.92C131.608 175.573 131.312 176.14 130.925 176.62C130.545 177.1 130.082 177.477 129.535 177.75C128.995 178.017 128.388 178.15 127.715 178.15C127.142 178.15 126.652 178.063 126.245 177.89C125.838 177.71 125.475 177.463 125.155 177.15V181.35H122.685V167.74H124.195C124.515 167.74 124.725 167.89 124.825 168.19L125.025 169.14Z" fill="#213E88"/>
</g>
<g opacity="0.7">
<path d="M227.22 168.79L226.72 169.41C227 169.27 227.3 169.163 227.62 169.09C227.947 169.01 228.297 168.97 228.67 168.97C229.217 168.97 229.747 169.06 230.26 169.24C230.78 169.42 231.237 169.693 231.63 170.06C232.023 170.42 232.34 170.87 232.58 171.41C232.82 171.95 232.94 172.58 232.94 173.3C232.94 173.973 232.817 174.607 232.57 175.2C232.323 175.787 231.977 176.3 231.53 176.74C231.083 177.18 230.543 177.527 229.91 177.78C229.283 178.033 228.59 178.16 227.83 178.16C227.057 178.16 226.363 178.037 225.75 177.79C225.137 177.543 224.613 177.2 224.18 176.76C223.747 176.313 223.413 175.78 223.18 175.16C222.953 174.533 222.84 173.84 222.84 173.08C222.84 172.4 222.977 171.703 223.25 170.99C223.53 170.27 223.96 169.523 224.54 168.75L227.99 164.12C228.11 163.96 228.283 163.823 228.51 163.71C228.743 163.597 229.01 163.54 229.31 163.54H231.51L227.22 168.79ZM227.78 176.14C228.173 176.14 228.533 176.073 228.86 175.94C229.193 175.807 229.477 175.62 229.71 175.38C229.95 175.14 230.137 174.86 230.27 174.54C230.403 174.213 230.47 173.86 230.47 173.48C230.47 173.067 230.407 172.697 230.28 172.37C230.153 172.037 229.973 171.757 229.74 171.53C229.507 171.297 229.227 171.12 228.9 171C228.573 170.88 228.213 170.82 227.82 170.82C227.427 170.82 227.07 170.887 226.75 171.02C226.43 171.153 226.157 171.34 225.93 171.58C225.703 171.813 225.527 172.093 225.4 172.42C225.273 172.74 225.21 173.087 225.21 173.46C225.21 173.86 225.263 174.227 225.37 174.56C225.483 174.887 225.647 175.167 225.86 175.4C226.08 175.633 226.35 175.817 226.67 175.95C226.99 176.077 227.36 176.14 227.78 176.14Z" fill="#213E88"/>
<path d="M234.782 180.45C234.662 180.35 234.602 180.227 234.602 180.08C234.602 180.027 234.618 179.967 234.652 179.9C234.692 179.833 234.738 179.773 234.792 179.72C234.865 179.64 234.955 179.54 235.062 179.42C235.168 179.307 235.275 179.173 235.382 179.02C235.488 178.873 235.585 178.71 235.672 178.53C235.765 178.357 235.835 178.17 235.882 177.97C235.668 177.97 235.475 177.933 235.302 177.86C235.128 177.78 234.978 177.673 234.852 177.54C234.732 177.407 234.635 177.25 234.562 177.07C234.495 176.89 234.462 176.693 234.462 176.48C234.462 176.293 234.495 176.12 234.562 175.96C234.635 175.793 234.735 175.65 234.862 175.53C234.988 175.403 235.142 175.307 235.322 175.24C235.502 175.167 235.698 175.13 235.912 175.13C236.165 175.13 236.385 175.177 236.572 175.27C236.765 175.357 236.922 175.48 237.042 175.64C237.168 175.793 237.262 175.973 237.322 176.18C237.388 176.38 237.422 176.593 237.422 176.82C237.422 177.14 237.372 177.477 237.272 177.83C237.178 178.183 237.038 178.537 236.852 178.89C236.665 179.243 236.432 179.587 236.152 179.92C235.878 180.253 235.565 180.56 235.212 180.84L234.782 180.45Z" fill="#213E88"/>
<path d="M249.389 170.77C249.389 172.03 249.252 173.127 248.979 174.06C248.712 174.987 248.339 175.753 247.859 176.36C247.386 176.967 246.822 177.42 246.169 177.72C245.522 178.013 244.822 178.16 244.069 178.16C243.316 178.16 242.616 178.013 241.969 177.72C241.329 177.42 240.772 176.967 240.299 176.36C239.826 175.753 239.456 174.987 239.189 174.06C238.922 173.127 238.789 172.03 238.789 170.77C238.789 169.503 238.922 168.407 239.189 167.48C239.456 166.553 239.826 165.787 240.299 165.18C240.772 164.573 241.329 164.123 241.969 163.83C242.616 163.53 243.316 163.38 244.069 163.38C244.822 163.38 245.522 163.53 246.169 163.83C246.822 164.123 247.386 164.573 247.859 165.18C248.339 165.787 248.712 166.553 248.979 167.48C249.252 168.407 249.389 169.503 249.389 170.77ZM246.839 170.77C246.839 169.723 246.762 168.857 246.609 168.17C246.456 167.483 246.249 166.937 245.989 166.53C245.736 166.123 245.442 165.84 245.109 165.68C244.776 165.513 244.429 165.43 244.069 165.43C243.716 165.43 243.372 165.513 243.039 165.68C242.712 165.84 242.422 166.123 242.169 166.53C241.916 166.937 241.712 167.483 241.559 168.17C241.412 168.857 241.339 169.723 241.339 170.77C241.339 171.817 241.412 172.683 241.559 173.37C241.712 174.057 241.916 174.603 242.169 175.01C242.422 175.417 242.712 175.703 243.039 175.87C243.372 176.03 243.716 176.11 244.069 176.11C244.429 176.11 244.776 176.03 245.109 175.87C245.442 175.703 245.736 175.417 245.989 175.01C246.249 174.603 246.456 174.057 246.609 173.37C246.762 172.683 246.839 171.817 246.839 170.77Z" fill="#213E88"/>
<path d="M262.414 170.36C262.134 170.02 261.827 169.78 261.494 169.64C261.167 169.5 260.814 169.43 260.434 169.43C260.061 169.43 259.724 169.5 259.424 169.64C259.124 169.78 258.867 169.993 258.654 170.28C258.441 170.56 258.277 170.92 258.164 171.36C258.051 171.793 257.994 172.307 257.994 172.9C257.994 173.5 258.041 174.01 258.134 174.43C258.234 174.843 258.374 175.183 258.554 175.45C258.734 175.71 258.954 175.9 259.214 176.02C259.474 176.133 259.764 176.19 260.084 176.19C260.597 176.19 261.034 176.083 261.394 175.87C261.754 175.657 262.094 175.353 262.414 174.96V170.36ZM264.884 163.14V178H263.374C263.047 178 262.841 177.85 262.754 177.55L262.544 176.56C262.131 177.033 261.654 177.417 261.114 177.71C260.581 178.003 259.957 178.15 259.244 178.15C258.684 178.15 258.171 178.033 257.704 177.8C257.237 177.567 256.834 177.23 256.494 176.79C256.161 176.343 255.901 175.793 255.714 175.14C255.534 174.487 255.444 173.74 255.444 172.9C255.444 172.14 255.547 171.433 255.754 170.78C255.961 170.127 256.257 169.56 256.644 169.08C257.031 168.6 257.494 168.227 258.034 167.96C258.574 167.687 259.181 167.55 259.854 167.55C260.427 167.55 260.917 167.64 261.324 167.82C261.731 168 262.094 168.243 262.414 168.55V163.14H264.884Z" fill="#213E88"/>
<path d="M272.742 173.62C272.028 173.653 271.428 173.717 270.942 173.81C270.455 173.897 270.065 174.01 269.772 174.15C269.478 174.29 269.268 174.453 269.142 174.64C269.015 174.827 268.952 175.03 268.952 175.25C268.952 175.683 269.078 175.993 269.332 176.18C269.592 176.367 269.928 176.46 270.342 176.46C270.848 176.46 271.285 176.37 271.652 176.19C272.025 176.003 272.388 175.723 272.742 175.35V173.62ZM267.082 169.17C268.262 168.09 269.682 167.55 271.342 167.55C271.942 167.55 272.478 167.65 272.952 167.85C273.425 168.043 273.825 168.317 274.152 168.67C274.478 169.017 274.725 169.433 274.892 169.92C275.065 170.407 275.152 170.94 275.152 171.52V178H274.032C273.798 178 273.618 177.967 273.492 177.9C273.365 177.827 273.265 177.683 273.192 177.47L272.972 176.73C272.712 176.963 272.458 177.17 272.212 177.35C271.965 177.523 271.708 177.67 271.442 177.79C271.175 177.91 270.888 178 270.582 178.06C270.282 178.127 269.948 178.16 269.582 178.16C269.148 178.16 268.748 178.103 268.382 177.99C268.015 177.87 267.698 177.693 267.432 177.46C267.165 177.227 266.958 176.937 266.812 176.59C266.665 176.243 266.592 175.84 266.592 175.38C266.592 175.12 266.635 174.863 266.722 174.61C266.808 174.35 266.948 174.103 267.142 173.87C267.342 173.637 267.598 173.417 267.912 173.21C268.225 173.003 268.608 172.823 269.062 172.67C269.522 172.517 270.055 172.393 270.662 172.3C271.268 172.2 271.962 172.14 272.742 172.12V171.52C272.742 170.833 272.595 170.327 272.302 170C272.008 169.667 271.585 169.5 271.032 169.5C270.632 169.5 270.298 169.547 270.032 169.64C269.772 169.733 269.542 169.84 269.342 169.96C269.142 170.073 268.958 170.177 268.792 170.27C268.632 170.363 268.452 170.41 268.252 170.41C268.078 170.41 267.932 170.367 267.812 170.28C267.692 170.187 267.595 170.08 267.522 169.96L267.082 169.17Z" fill="#213E88"/>
<path d="M281.228 172.62C281.534 172.62 281.801 172.58 282.028 172.5C282.254 172.413 282.441 172.297 282.588 172.15C282.741 172.003 282.854 171.827 282.928 171.62C283.008 171.413 283.048 171.187 283.048 170.94C283.048 170.433 282.894 170.033 282.588 169.74C282.288 169.44 281.834 169.29 281.228 169.29C280.621 169.29 280.164 169.44 279.858 169.74C279.558 170.033 279.408 170.433 279.408 170.94C279.408 171.18 279.444 171.403 279.518 171.61C279.598 171.817 279.711 171.997 279.858 172.15C280.011 172.297 280.201 172.413 280.428 172.5C280.661 172.58 280.928 172.62 281.228 172.62ZM284.018 178.46C284.018 178.26 283.958 178.097 283.838 177.97C283.718 177.843 283.554 177.747 283.348 177.68C283.141 177.607 282.898 177.553 282.618 177.52C282.344 177.487 282.051 177.463 281.738 177.45C281.431 177.43 281.111 177.413 280.778 177.4C280.451 177.387 280.131 177.36 279.818 177.32C279.544 177.473 279.321 177.653 279.148 177.86C278.981 178.067 278.898 178.307 278.898 178.58C278.898 178.76 278.941 178.927 279.028 179.08C279.121 179.24 279.264 179.377 279.458 179.49C279.658 179.603 279.914 179.69 280.228 179.75C280.541 179.817 280.924 179.85 281.378 179.85C281.838 179.85 282.234 179.813 282.568 179.74C282.901 179.673 283.174 179.577 283.388 179.45C283.608 179.33 283.768 179.183 283.868 179.01C283.968 178.843 284.018 178.66 284.018 178.46ZM286.478 168.09V169.01C286.478 169.303 286.301 169.483 285.948 169.55L285.028 169.72C285.168 170.073 285.238 170.46 285.238 170.88C285.238 171.387 285.134 171.847 284.928 172.26C284.728 172.667 284.448 173.013 284.088 173.3C283.728 173.587 283.301 173.81 282.808 173.97C282.321 174.123 281.794 174.2 281.228 174.2C281.028 174.2 280.834 174.19 280.648 174.17C280.461 174.15 280.278 174.123 280.098 174.09C279.778 174.283 279.618 174.5 279.618 174.74C279.618 174.947 279.711 175.1 279.898 175.2C280.091 175.293 280.344 175.36 280.658 175.4C280.971 175.44 281.328 175.467 281.728 175.48C282.128 175.487 282.538 175.507 282.958 175.54C283.378 175.573 283.788 175.633 284.188 175.72C284.588 175.8 284.944 175.93 285.258 176.11C285.571 176.29 285.821 176.537 286.008 176.85C286.201 177.157 286.298 177.553 286.298 178.04C286.298 178.493 286.184 178.933 285.958 179.36C285.738 179.787 285.414 180.167 284.988 180.5C284.568 180.833 284.048 181.1 283.428 181.3C282.814 181.507 282.114 181.61 281.328 181.61C280.554 181.61 279.881 181.533 279.308 181.38C278.734 181.233 278.258 181.033 277.878 180.78C277.498 180.533 277.214 180.247 277.028 179.92C276.841 179.593 276.748 179.253 276.748 178.9C276.748 178.42 276.891 178.02 277.178 177.7C277.471 177.373 277.871 177.113 278.378 176.92C278.104 176.78 277.888 176.593 277.728 176.36C277.568 176.127 277.488 175.82 277.488 175.44C277.488 175.287 277.514 175.13 277.568 174.97C277.628 174.803 277.711 174.64 277.818 174.48C277.931 174.32 278.071 174.17 278.238 174.03C278.404 173.883 278.601 173.753 278.828 173.64C278.308 173.36 277.898 172.987 277.598 172.52C277.304 172.053 277.158 171.507 277.158 170.88C277.158 170.373 277.258 169.917 277.458 169.51C277.664 169.097 277.948 168.747 278.308 168.46C278.674 168.167 279.104 167.943 279.598 167.79C280.098 167.637 280.641 167.56 281.228 167.56C281.668 167.56 282.081 167.607 282.468 167.7C282.854 167.787 283.208 167.917 283.528 168.09H286.478Z" fill="#213E88"/>
<path d="M294.478 171.69C294.478 171.37 294.432 171.07 294.338 170.79C294.252 170.503 294.118 170.253 293.938 170.04C293.758 169.827 293.528 169.66 293.248 169.54C292.975 169.413 292.655 169.35 292.288 169.35C291.575 169.35 291.012 169.553 290.598 169.96C290.192 170.367 289.932 170.943 289.818 171.69H294.478ZM289.768 173.18C289.808 173.707 289.902 174.163 290.048 174.55C290.195 174.93 290.388 175.247 290.628 175.5C290.868 175.747 291.152 175.933 291.478 176.06C291.812 176.18 292.178 176.24 292.578 176.24C292.978 176.24 293.322 176.193 293.608 176.1C293.902 176.007 294.155 175.903 294.368 175.79C294.588 175.677 294.778 175.573 294.938 175.48C295.105 175.387 295.265 175.34 295.418 175.34C295.625 175.34 295.778 175.417 295.878 175.57L296.588 176.47C296.315 176.79 296.008 177.06 295.668 177.28C295.328 177.493 294.972 177.667 294.598 177.8C294.232 177.927 293.855 178.017 293.468 178.07C293.088 178.123 292.718 178.15 292.358 178.15C291.645 178.15 290.982 178.033 290.368 177.8C289.755 177.56 289.222 177.21 288.768 176.75C288.315 176.283 287.958 175.71 287.698 175.03C287.438 174.343 287.308 173.55 287.308 172.65C287.308 171.95 287.422 171.293 287.648 170.68C287.875 170.06 288.198 169.523 288.618 169.07C289.045 168.61 289.562 168.247 290.168 167.98C290.782 167.713 291.472 167.58 292.238 167.58C292.885 167.58 293.482 167.683 294.028 167.89C294.575 168.097 295.045 168.4 295.438 168.8C295.832 169.193 296.138 169.68 296.358 170.26C296.585 170.833 296.698 171.49 296.698 172.23C296.698 172.603 296.658 172.857 296.578 172.99C296.498 173.117 296.345 173.18 296.118 173.18H289.768Z" fill="#213E88"/>
<path d="M300.862 169C301.069 168.793 301.285 168.603 301.512 168.43C301.745 168.25 301.989 168.1 302.242 167.98C302.502 167.853 302.779 167.757 303.072 167.69C303.365 167.617 303.685 167.58 304.032 167.58C304.592 167.58 305.089 167.677 305.522 167.87C305.955 168.057 306.315 168.323 306.602 168.67C306.895 169.01 307.115 169.42 307.262 169.9C307.415 170.373 307.492 170.897 307.492 171.47V178H305.022V171.47C305.022 170.843 304.879 170.36 304.592 170.02C304.305 169.673 303.869 169.5 303.282 169.5C302.855 169.5 302.455 169.597 302.082 169.79C301.709 169.983 301.355 170.247 301.022 170.58V178H298.552V167.74H300.062C300.382 167.74 300.592 167.89 300.692 168.19L300.862 169Z" fill="#213E88"/>
<path d="M321.314 171.69C321.314 171.37 321.268 171.07 321.174 170.79C321.088 170.503 320.954 170.253 320.774 170.04C320.594 169.827 320.364 169.66 320.084 169.54C319.811 169.413 319.491 169.35 319.124 169.35C318.411 169.35 317.848 169.553 317.434 169.96C317.028 170.367 316.768 170.943 316.654 171.69H321.314ZM316.604 173.18C316.644 173.707 316.738 174.163 316.884 174.55C317.031 174.93 317.224 175.247 317.464 175.5C317.704 175.747 317.988 175.933 318.314 176.06C318.648 176.18 319.014 176.24 319.414 176.24C319.814 176.24 320.158 176.193 320.444 176.1C320.738 176.007 320.991 175.903 321.204 175.79C321.424 175.677 321.614 175.573 321.774 175.48C321.941 175.387 322.101 175.34 322.254 175.34C322.461 175.34 322.614 175.417 322.714 175.57L323.424 176.47C323.151 176.79 322.844 177.06 322.504 177.28C322.164 177.493 321.808 177.667 321.434 177.8C321.068 177.927 320.691 178.017 320.304 178.07C319.924 178.123 319.554 178.15 319.194 178.15C318.481 178.15 317.818 178.033 317.204 177.8C316.591 177.56 316.058 177.21 315.604 176.75C315.151 176.283 314.794 175.71 314.534 175.03C314.274 174.343 314.144 173.55 314.144 172.65C314.144 171.95 314.258 171.293 314.484 170.68C314.711 170.06 315.034 169.523 315.454 169.07C315.881 168.61 316.398 168.247 317.004 167.98C317.618 167.713 318.308 167.58 319.074 167.58C319.721 167.58 320.318 167.683 320.864 167.89C321.411 168.097 321.881 168.4 322.274 168.8C322.668 169.193 322.974 169.68 323.194 170.26C323.421 170.833 323.534 171.49 323.534 172.23C323.534 172.603 323.494 172.857 323.414 172.99C323.334 173.117 323.181 173.18 322.954 173.18H316.604Z" fill="#213E88"/>
<path d="M334.392 178H332.012C331.832 178 331.685 177.953 331.572 177.86C331.465 177.767 331.375 177.66 331.302 177.54L329.132 173.97C329.098 174.083 329.058 174.19 329.012 174.29C328.972 174.39 328.925 174.483 328.872 174.57L326.952 177.54C326.878 177.653 326.788 177.76 326.682 177.86C326.575 177.953 326.442 178 326.282 178H324.072L327.592 172.71L324.212 167.74H326.592C326.772 167.74 326.905 167.767 326.992 167.82C327.078 167.867 327.155 167.947 327.222 168.06L329.372 171.48C329.445 171.253 329.548 171.03 329.682 170.81L331.412 168.11C331.558 167.863 331.748 167.74 331.982 167.74H334.252L330.882 172.6L334.392 178Z" fill="#213E88"/>
<path d="M339.101 178.16C338.208 178.16 337.521 177.91 337.041 177.41C336.568 176.903 336.331 176.207 336.331 175.32V169.59H335.281C335.148 169.59 335.034 169.547 334.941 169.46C334.848 169.373 334.801 169.243 334.801 169.07V168.09L336.451 167.82L336.971 165.02C337.004 164.887 337.068 164.783 337.161 164.71C337.254 164.637 337.374 164.6 337.521 164.6H338.801V167.83H341.541V169.59H338.801V175.15C338.801 175.47 338.878 175.72 339.031 175.9C339.191 176.08 339.408 176.17 339.681 176.17C339.834 176.17 339.961 176.153 340.061 176.12C340.168 176.08 340.258 176.04 340.331 176C340.411 175.96 340.481 175.923 340.541 175.89C340.601 175.85 340.661 175.83 340.721 175.83C340.794 175.83 340.854 175.85 340.901 175.89C340.948 175.923 340.998 175.977 341.051 176.05L341.791 177.25C341.431 177.55 341.018 177.777 340.551 177.93C340.084 178.083 339.601 178.16 339.101 178.16Z" fill="#213E88"/>
<path d="M345.452 169.52C345.772 168.907 346.152 168.427 346.592 168.08C347.032 167.727 347.552 167.55 348.152 167.55C348.626 167.55 349.006 167.653 349.292 167.86L349.132 169.71C349.099 169.83 349.049 169.917 348.982 169.97C348.922 170.017 348.839 170.04 348.732 170.04C348.632 170.04 348.482 170.023 348.282 169.99C348.089 169.957 347.899 169.94 347.712 169.94C347.439 169.94 347.196 169.98 346.982 170.06C346.769 170.14 346.576 170.257 346.402 170.41C346.236 170.557 346.086 170.737 345.952 170.95C345.826 171.163 345.706 171.407 345.592 171.68V178H343.122V167.74H344.572C344.826 167.74 345.002 167.787 345.102 167.88C345.202 167.967 345.269 168.127 345.302 168.36L345.452 169.52Z" fill="#213E88"/>
<path d="M355.867 173.62C355.153 173.653 354.553 173.717 354.067 173.81C353.58 173.897 353.19 174.01 352.897 174.15C352.603 174.29 352.393 174.453 352.267 174.64C352.14 174.827 352.077 175.03 352.077 175.25C352.077 175.683 352.203 175.993 352.457 176.18C352.717 176.367 353.053 176.46 353.467 176.46C353.973 176.46 354.41 176.37 354.777 176.19C355.15 176.003 355.513 175.723 355.867 175.35V173.62ZM350.207 169.17C351.387 168.09 352.807 167.55 354.467 167.55C355.067 167.55 355.603 167.65 356.077 167.85C356.55 168.043 356.95 168.317 357.277 168.67C357.603 169.017 357.85 169.433 358.017 169.92C358.19 170.407 358.277 170.94 358.277 171.52V178H357.157C356.923 178 356.743 177.967 356.617 177.9C356.49 177.827 356.39 177.683 356.317 177.47L356.097 176.73C355.837 176.963 355.583 177.17 355.337 177.35C355.09 177.523 354.833 177.67 354.567 177.79C354.3 177.91 354.013 178 353.707 178.06C353.407 178.127 353.073 178.16 352.707 178.16C352.273 178.16 351.873 178.103 351.507 177.99C351.14 177.87 350.823 177.693 350.557 177.46C350.29 177.227 350.083 176.937 349.937 176.59C349.79 176.243 349.717 175.84 349.717 175.38C349.717 175.12 349.76 174.863 349.847 174.61C349.933 174.35 350.073 174.103 350.267 173.87C350.467 173.637 350.723 173.417 351.037 173.21C351.35 173.003 351.733 172.823 352.187 172.67C352.647 172.517 353.18 172.393 353.787 172.3C354.393 172.2 355.087 172.14 355.867 172.12V171.52C355.867 170.833 355.72 170.327 355.427 170C355.133 169.667 354.71 169.5 354.157 169.5C353.757 169.5 353.423 169.547 353.157 169.64C352.897 169.733 352.667 169.84 352.467 169.96C352.267 170.073 352.083 170.177 351.917 170.27C351.757 170.363 351.577 170.41 351.377 170.41C351.203 170.41 351.057 170.367 350.937 170.28C350.817 170.187 350.72 170.08 350.647 169.96L350.207 169.17Z" fill="#213E88"/>
</g>
</svg>
