<svg width="294" height="180" viewBox="0 0 294 180" fill="none" xmlns="http://www.w3.org/2000/svg">
<path d="M0 0H294V180H0V0Z" fill="white"/>
<path fill-rule="evenodd" clip-rule="evenodd" d="M147 122C171.853 122 192 101.853 192 77C192 52.1472 171.853 32 147 32C122.147 32 102 52.1472 102 77C102 101.853 122.147 122 147 122ZM147 112C166.33 112 182 96.33 182 77C182 57.67 166.33 42 147 42C127.67 42 112 57.67 112 77C112 96.33 127.67 112 147 112Z" fill="#90CDF4"/>
<path d="M135.75 77C139.196 77 142 74.1961 142 70.75C142 67.3039 139.196 64.5 135.75 64.5C132.304 64.5 129.5 67.3039 129.5 70.75C129.5 74.1961 132.304 77 135.75 77ZM163.25 67H145.75C145.059 67 144.5 67.5594 144.5 68.25V79.5H127V63.25C127 62.5594 126.441 62 125.75 62H123.25C122.559 62 122 62.5594 122 63.25V90.75C122 91.4406 122.559 92 123.25 92H125.75C126.441 92 127 91.4406 127 90.75V87H167V90.75C167 91.4406 167.559 92 168.25 92H170.75C171.441 92 172 91.4406 172 90.75V75.75C172 70.9172 168.083 67 163.25 67Z" fill="#213E88"/>
<path d="M53.5521 138.324V138.966C53.5521 139.158 53.5321 139.314 53.4921 139.434C53.4521 139.55 53.4121 139.648 53.3721 139.728L50.0841 146.496C50.0161 146.636 49.9201 146.756 49.7961 146.856C49.6721 146.952 49.5061 147 49.2981 147H48.2241L51.5781 140.37C51.6541 140.234 51.7281 140.11 51.8001 139.998C51.8761 139.882 51.9601 139.772 52.0521 139.668H47.9001C47.8081 139.668 47.7281 139.634 47.6601 139.566C47.5921 139.498 47.5581 139.418 47.5581 139.326V138.324H53.5521Z" fill="#213E88"/>
<path d="M54.069 148.47C53.997 148.41 53.961 148.336 53.961 148.248C53.961 148.216 53.971 148.18 53.991 148.14C54.015 148.1 54.043 148.064 54.075 148.032C54.119 147.984 54.173 147.924 54.237 147.852C54.301 147.784 54.365 147.704 54.429 147.612C54.493 147.524 54.551 147.426 54.603 147.318C54.659 147.214 54.701 147.102 54.729 146.982C54.601 146.982 54.485 146.96 54.381 146.916C54.277 146.868 54.187 146.804 54.111 146.724C54.039 146.644 53.981 146.55 53.937 146.442C53.897 146.334 53.877 146.216 53.877 146.088C53.877 145.976 53.897 145.872 53.937 145.776C53.981 145.676 54.041 145.59 54.117 145.518C54.193 145.442 54.285 145.384 54.393 145.344C54.501 145.3 54.619 145.278 54.747 145.278C54.899 145.278 55.031 145.306 55.143 145.362C55.259 145.414 55.353 145.488 55.425 145.584C55.501 145.676 55.557 145.784 55.593 145.908C55.633 146.028 55.653 146.156 55.653 146.292C55.653 146.484 55.623 146.686 55.563 146.898C55.507 147.11 55.423 147.322 55.311 147.534C55.199 147.746 55.059 147.952 54.891 148.152C54.727 148.352 54.539 148.536 54.327 148.704L54.069 148.47Z" fill="#213E88"/>
<path d="M56.2215 140.742C56.2815 140.326 56.3975 139.962 56.5695 139.65C56.7415 139.334 56.9555 139.072 57.2115 138.864C57.4715 138.652 57.7675 138.494 58.0995 138.39C58.4355 138.282 58.7955 138.228 59.1795 138.228C59.5795 138.228 59.9395 138.286 60.2595 138.402C60.5835 138.514 60.8595 138.672 61.0875 138.876C61.3155 139.076 61.4895 139.312 61.6095 139.584C61.7335 139.856 61.7955 140.15 61.7955 140.466C61.7955 140.742 61.7635 140.986 61.6995 141.198C61.6395 141.406 61.5515 141.588 61.4355 141.744C61.3195 141.9 61.1755 142.032 61.0035 142.14C60.8315 142.248 60.6375 142.338 60.4215 142.41C60.9415 142.574 61.3295 142.824 61.5855 143.16C61.8415 143.496 61.9695 143.918 61.9695 144.426C61.9695 144.858 61.8895 145.24 61.7295 145.572C61.5695 145.904 61.3535 146.184 61.0815 146.412C60.8095 146.636 60.4935 146.806 60.1335 146.922C59.7775 147.038 59.3995 147.096 58.9995 147.096C58.5635 147.096 58.1835 147.046 57.8595 146.946C57.5355 146.846 57.2535 146.698 57.0135 146.502C56.7735 146.306 56.5695 146.066 56.4015 145.782C56.2335 145.498 56.0895 145.17 55.9695 144.798L56.6235 144.528C56.7955 144.456 56.9555 144.438 57.1035 144.474C57.2555 144.506 57.3655 144.586 57.4335 144.714C57.5055 144.854 57.5835 144.992 57.6675 145.128C57.7555 145.264 57.8595 145.386 57.9795 145.494C58.0995 145.598 58.2395 145.684 58.3995 145.752C58.5635 145.816 58.7575 145.848 58.9815 145.848C59.2335 145.848 59.4535 145.808 59.6415 145.728C59.8295 145.644 59.9855 145.536 60.1095 145.404C60.2375 145.272 60.3315 145.126 60.3915 144.966C60.4555 144.802 60.4875 144.638 60.4875 144.474C60.4875 144.266 60.4655 144.078 60.4215 143.91C60.3775 143.738 60.2855 143.592 60.1455 143.472C60.0055 143.352 59.8035 143.258 59.5395 143.19C59.2795 143.122 58.9295 143.088 58.4895 143.088V142.032C58.8535 142.028 59.1555 141.994 59.3955 141.93C59.6355 141.866 59.8255 141.778 59.9655 141.666C60.1095 141.55 60.2095 141.412 60.2655 141.252C60.3215 141.092 60.3495 140.916 60.3495 140.724C60.3495 140.316 60.2355 140.006 60.0075 139.794C59.7795 139.582 59.4755 139.476 59.0955 139.476C58.9195 139.476 58.7575 139.502 58.6095 139.554C58.4615 139.602 58.3275 139.672 58.2075 139.764C58.0915 139.852 57.9935 139.956 57.9135 140.076C57.8335 140.196 57.7735 140.328 57.7335 140.472C57.6655 140.656 57.5755 140.778 57.4635 140.838C57.3555 140.898 57.2015 140.912 57.0015 140.88L56.2215 140.742Z" fill="#213E88"/>
<path d="M70.2885 140.844V147H69.3824C69.1864 147 69.0624 146.91 69.0104 146.73L68.9084 146.238C68.6564 146.494 68.3784 146.702 68.0744 146.862C67.7704 147.018 67.4125 147.096 67.0005 147.096C66.6645 147.096 66.3664 147.04 66.1064 146.928C65.8504 146.812 65.6344 146.65 65.4584 146.442C65.2824 146.234 65.1484 145.988 65.0564 145.704C64.9684 145.416 64.9244 145.1 64.9244 144.756V140.844H66.4064V144.756C66.4064 145.132 66.4924 145.424 66.6644 145.632C66.8404 145.836 67.1024 145.938 67.4504 145.938C67.7064 145.938 67.9464 145.882 68.1705 145.77C68.3945 145.654 68.6064 145.496 68.8064 145.296V140.844H70.2885Z" fill="#213E88"/>
<path d="M76.4619 140.844V147H75.5559C75.3599 147 75.2359 146.91 75.1839 146.73L75.0819 146.238C74.8299 146.494 74.5519 146.702 74.2479 146.862C73.9439 147.018 73.5859 147.096 73.1739 147.096C72.8379 147.096 72.5399 147.04 72.2799 146.928C72.0239 146.812 71.8079 146.65 71.6319 146.442C71.4559 146.234 71.3219 145.988 71.2299 145.704C71.1419 145.416 71.0979 145.1 71.0979 144.756V140.844H72.5799V144.756C72.5799 145.132 72.6659 145.424 72.8379 145.632C73.0139 145.836 73.2759 145.938 73.6239 145.938C73.8799 145.938 74.1199 145.882 74.3439 145.77C74.5679 145.654 74.7799 145.496 74.9799 145.296V140.844H76.4619Z" fill="#213E88"/>
<path d="M78.7293 141.912C78.9213 141.544 79.1493 141.256 79.4133 141.048C79.6773 140.836 79.9893 140.73 80.3493 140.73C80.6333 140.73 80.8613 140.792 81.0333 140.916L80.9373 142.026C80.9173 142.098 80.8873 142.15 80.8473 142.182C80.8113 142.21 80.7613 142.224 80.6973 142.224C80.6373 142.224 80.5473 142.214 80.4273 142.194C80.3113 142.174 80.1973 142.164 80.0853 142.164C79.9213 142.164 79.7753 142.188 79.6473 142.236C79.5193 142.284 79.4033 142.354 79.2993 142.446C79.1993 142.534 79.1093 142.642 79.0293 142.77C78.9533 142.898 78.8813 143.044 78.8133 143.208V147H77.3313V140.844H78.2013C78.3533 140.844 78.4593 140.872 78.5193 140.928C78.5793 140.98 78.6193 141.076 78.6393 141.216L78.7293 141.912Z" fill="#213E88"/>
<path d="M87.234 143.214C87.234 143.022 87.206 142.842 87.15 142.674C87.098 142.502 87.018 142.352 86.91 142.224C86.802 142.096 86.664 141.996 86.496 141.924C86.332 141.848 86.14 141.81 85.92 141.81C85.492 141.81 85.154 141.932 84.906 142.176C84.662 142.42 84.506 142.766 84.438 143.214H87.234ZM84.408 144.108C84.432 144.424 84.488 144.698 84.576 144.93C84.664 145.158 84.78 145.348 84.924 145.5C85.068 145.648 85.238 145.76 85.434 145.836C85.634 145.908 85.854 145.944 86.094 145.944C86.334 145.944 86.54 145.916 86.712 145.86C86.888 145.804 87.04 145.742 87.168 145.674C87.3 145.606 87.414 145.544 87.51 145.488C87.61 145.432 87.706 145.404 87.798 145.404C87.922 145.404 88.014 145.45 88.074 145.542L88.5 146.082C88.336 146.274 88.152 146.436 87.948 146.568C87.744 146.696 87.53 146.8 87.306 146.88C87.086 146.956 86.86 147.01 86.628 147.042C86.4 147.074 86.178 147.09 85.962 147.09C85.534 147.09 85.136 147.02 84.768 146.88C84.4 146.736 84.08 146.526 83.808 146.25C83.536 145.97 83.322 145.626 83.166 145.218C83.01 144.806 82.932 144.33 82.932 143.79C82.932 143.37 83 142.976 83.136 142.608C83.272 142.236 83.466 141.914 83.718 141.642C83.974 141.366 84.284 141.148 84.648 140.988C85.016 140.828 85.43 140.748 85.89 140.748C86.278 140.748 86.636 140.81 86.964 140.934C87.292 141.058 87.574 141.24 87.81 141.48C88.046 141.716 88.23 142.008 88.362 142.356C88.498 142.7 88.566 143.094 88.566 143.538C88.566 143.762 88.542 143.914 88.494 143.994C88.446 144.07 88.354 144.108 88.218 144.108H84.408Z" fill="#213E88"/>
<path d="M94.4804 147H93.0524C92.9444 147 92.8564 146.972 92.7884 146.916C92.7244 146.86 92.6704 146.796 92.6264 146.724L91.3244 144.582C91.3044 144.65 91.2804 144.714 91.2524 144.774C91.2284 144.834 91.2004 144.89 91.1684 144.942L90.0164 146.724C89.9724 146.792 89.9185 146.856 89.8545 146.916C89.7905 146.972 89.7104 147 89.6144 147H88.2884L90.4004 143.826L88.3724 140.844H89.8004C89.9084 140.844 89.9884 140.86 90.0404 140.892C90.0924 140.92 90.1384 140.968 90.1784 141.036L91.4684 143.088C91.5124 142.952 91.5744 142.818 91.6544 142.686L92.6924 141.066C92.7804 140.918 92.8945 140.844 93.0345 140.844H94.3965L92.3745 143.76L94.4804 147Z" fill="#213E88"/>
<path d="M96.706 147.096C96.17 147.096 95.758 146.946 95.47 146.646C95.186 146.342 95.044 145.924 95.044 145.392V141.954H94.414C94.334 141.954 94.266 141.928 94.21 141.876C94.154 141.824 94.126 141.746 94.126 141.642V141.054L95.116 140.892L95.428 139.212C95.448 139.132 95.486 139.07 95.542 139.026C95.598 138.982 95.67 138.96 95.758 138.96H96.526V140.898H98.17V141.954H96.526V145.29C96.526 145.482 96.572 145.632 96.664 145.74C96.76 145.848 96.89 145.902 97.054 145.902C97.146 145.902 97.222 145.892 97.282 145.872C97.346 145.848 97.4 145.824 97.444 145.8C97.492 145.776 97.534 145.754 97.57 145.734C97.606 145.71 97.642 145.698 97.678 145.698C97.722 145.698 97.758 145.71 97.786 145.734C97.814 145.754 97.844 145.786 97.876 145.83L98.32 146.55C98.104 146.73 97.856 146.866 97.576 146.958C97.296 147.05 97.006 147.096 96.706 147.096Z" fill="#213E88"/>
<path d="M99.9168 141.912C100.109 141.544 100.337 141.256 100.601 141.048C100.865 140.836 101.177 140.73 101.537 140.73C101.821 140.73 102.049 140.792 102.221 140.916L102.125 142.026C102.105 142.098 102.075 142.15 102.035 142.182C101.999 142.21 101.949 142.224 101.885 142.224C101.825 142.224 101.735 142.214 101.615 142.194C101.499 142.174 101.385 142.164 101.273 142.164C101.109 142.164 100.963 142.188 100.835 142.236C100.707 142.284 100.591 142.354 100.487 142.446C100.387 142.534 100.297 142.642 100.217 142.77C100.141 142.898 100.069 143.044 100.001 143.208V147H98.5188V140.844H99.3888C99.5408 140.844 99.6468 140.872 99.7068 140.928C99.7668 140.98 99.8068 141.076 99.8268 141.216L99.9168 141.912Z" fill="#213E88"/>
<path d="M105.565 144.372C105.137 144.392 104.777 144.43 104.485 144.486C104.193 144.538 103.959 144.606 103.783 144.69C103.607 144.774 103.481 144.872 103.405 144.984C103.329 145.096 103.291 145.218 103.291 145.35C103.291 145.61 103.367 145.796 103.519 145.908C103.675 146.02 103.877 146.076 104.125 146.076C104.429 146.076 104.691 146.022 104.911 145.914C105.135 145.802 105.353 145.634 105.565 145.41V144.372ZM102.169 141.702C102.877 141.054 103.729 140.73 104.725 140.73C105.085 140.73 105.407 140.79 105.691 140.91C105.975 141.026 106.215 141.19 106.411 141.402C106.607 141.61 106.755 141.86 106.855 142.152C106.959 142.444 107.011 142.764 107.011 143.112V147H106.339C106.199 147 106.091 146.98 106.015 146.94C105.939 146.896 105.879 146.81 105.835 146.682L105.703 146.238C105.547 146.378 105.395 146.502 105.247 146.61C105.099 146.714 104.945 146.802 104.785 146.874C104.625 146.946 104.453 147 104.269 147.036C104.089 147.076 103.889 147.096 103.669 147.096C103.409 147.096 103.169 147.062 102.949 146.994C102.729 146.922 102.539 146.816 102.379 146.676C102.219 146.536 102.095 146.362 102.007 146.154C101.919 145.946 101.875 145.704 101.875 145.428C101.875 145.272 101.901 145.118 101.953 144.966C102.005 144.81 102.089 144.662 102.205 144.522C102.325 144.382 102.479 144.25 102.667 144.126C102.855 144.002 103.085 143.894 103.357 143.802C103.633 143.71 103.953 143.636 104.317 143.58C104.681 143.52 105.097 143.484 105.565 143.472V143.112C105.565 142.7 105.477 142.396 105.301 142.2C105.125 142 104.871 141.9 104.539 141.9C104.299 141.9 104.099 141.928 103.939 141.984C103.783 142.04 103.645 142.104 103.525 142.176C103.405 142.244 103.295 142.306 103.195 142.362C103.099 142.418 102.991 142.446 102.871 142.446C102.767 142.446 102.679 142.42 102.607 142.368C102.535 142.312 102.477 142.248 102.433 142.176L102.169 141.702Z" fill="#213E88"/>
<path d="M113.881 142.044C113.841 142.108 113.799 142.154 113.755 142.182C113.711 142.206 113.655 142.218 113.587 142.218C113.515 142.218 113.437 142.198 113.353 142.158C113.273 142.118 113.179 142.074 113.071 142.026C112.963 141.974 112.839 141.928 112.699 141.888C112.563 141.848 112.401 141.828 112.213 141.828C111.921 141.828 111.691 141.89 111.523 142.014C111.359 142.138 111.277 142.3 111.277 142.5C111.277 142.632 111.319 142.744 111.403 142.836C111.491 142.924 111.605 143.002 111.745 143.07C111.889 143.138 112.051 143.2 112.231 143.256C112.411 143.308 112.593 143.366 112.777 143.43C112.965 143.494 113.149 143.568 113.329 143.652C113.509 143.732 113.669 143.836 113.809 143.964C113.953 144.088 114.067 144.238 114.151 144.414C114.239 144.59 114.283 144.802 114.283 145.05C114.283 145.346 114.229 145.62 114.121 145.872C114.017 146.12 113.861 146.336 113.653 146.52C113.445 146.7 113.187 146.842 112.879 146.946C112.575 147.046 112.223 147.096 111.823 147.096C111.611 147.096 111.403 147.076 111.199 147.036C110.999 147 110.805 146.948 110.617 146.88C110.433 146.812 110.261 146.732 110.101 146.64C109.945 146.548 109.807 146.448 109.687 146.34L110.029 145.776C110.073 145.708 110.125 145.656 110.185 145.62C110.245 145.584 110.321 145.566 110.413 145.566C110.505 145.566 110.591 145.592 110.671 145.644C110.755 145.696 110.851 145.752 110.959 145.812C111.067 145.872 111.193 145.928 111.337 145.98C111.485 146.032 111.671 146.058 111.895 146.058C112.071 146.058 112.221 146.038 112.345 145.998C112.473 145.954 112.577 145.898 112.657 145.83C112.741 145.762 112.801 145.684 112.837 145.596C112.877 145.504 112.897 145.41 112.897 145.314C112.897 145.17 112.853 145.052 112.765 144.96C112.681 144.868 112.567 144.788 112.423 144.72C112.283 144.652 112.121 144.592 111.937 144.54C111.757 144.484 111.571 144.424 111.379 144.36C111.191 144.296 111.005 144.222 110.821 144.138C110.641 144.05 110.479 143.94 110.335 143.808C110.195 143.676 110.081 143.514 109.993 143.322C109.909 143.13 109.867 142.898 109.867 142.626C109.867 142.374 109.917 142.134 110.017 141.906C110.117 141.678 110.263 141.48 110.455 141.312C110.651 141.14 110.893 141.004 111.181 140.904C111.473 140.8 111.809 140.748 112.189 140.748C112.613 140.748 112.999 140.818 113.347 140.958C113.695 141.098 113.985 141.282 114.217 141.51L113.881 142.044Z" fill="#213E88"/>
<path d="M116.299 138.084V147H114.817V138.084H116.299Z" fill="#213E88"/>
<path d="M120.427 144.372C119.999 144.392 119.639 144.43 119.347 144.486C119.055 144.538 118.821 144.606 118.645 144.69C118.469 144.774 118.343 144.872 118.267 144.984C118.191 145.096 118.153 145.218 118.153 145.35C118.153 145.61 118.229 145.796 118.381 145.908C118.537 146.02 118.739 146.076 118.987 146.076C119.291 146.076 119.553 146.022 119.773 145.914C119.997 145.802 120.215 145.634 120.427 145.41V144.372ZM117.031 141.702C117.739 141.054 118.591 140.73 119.587 140.73C119.947 140.73 120.269 140.79 120.553 140.91C120.837 141.026 121.077 141.19 121.273 141.402C121.469 141.61 121.617 141.86 121.717 142.152C121.821 142.444 121.873 142.764 121.873 143.112V147H121.201C121.061 147 120.953 146.98 120.877 146.94C120.801 146.896 120.741 146.81 120.697 146.682L120.565 146.238C120.409 146.378 120.257 146.502 120.109 146.61C119.961 146.714 119.807 146.802 119.647 146.874C119.487 146.946 119.315 147 119.131 147.036C118.951 147.076 118.751 147.096 118.531 147.096C118.271 147.096 118.031 147.062 117.811 146.994C117.591 146.922 117.401 146.816 117.241 146.676C117.081 146.536 116.957 146.362 116.869 146.154C116.781 145.946 116.737 145.704 116.737 145.428C116.737 145.272 116.763 145.118 116.815 144.966C116.867 144.81 116.951 144.662 117.067 144.522C117.187 144.382 117.341 144.25 117.529 144.126C117.717 144.002 117.947 143.894 118.219 143.802C118.495 143.71 118.815 143.636 119.179 143.58C119.543 143.52 119.959 143.484 120.427 143.472V143.112C120.427 142.7 120.339 142.396 120.163 142.2C119.987 142 119.733 141.9 119.401 141.9C119.161 141.9 118.961 141.928 118.801 141.984C118.645 142.04 118.507 142.104 118.387 142.176C118.267 142.244 118.157 142.306 118.057 142.362C117.961 142.418 117.853 142.446 117.733 142.446C117.629 142.446 117.541 142.42 117.469 142.368C117.397 142.312 117.339 142.248 117.295 142.176L117.031 141.702Z" fill="#213E88"/>
<path d="M125.921 144.372C125.493 144.392 125.133 144.43 124.841 144.486C124.549 144.538 124.315 144.606 124.139 144.69C123.963 144.774 123.837 144.872 123.761 144.984C123.685 145.096 123.647 145.218 123.647 145.35C123.647 145.61 123.723 145.796 123.875 145.908C124.031 146.02 124.233 146.076 124.481 146.076C124.785 146.076 125.047 146.022 125.267 145.914C125.491 145.802 125.709 145.634 125.921 145.41V144.372ZM122.525 141.702C123.233 141.054 124.085 140.73 125.081 140.73C125.441 140.73 125.763 140.79 126.047 140.91C126.331 141.026 126.571 141.19 126.767 141.402C126.963 141.61 127.111 141.86 127.211 142.152C127.315 142.444 127.367 142.764 127.367 143.112V147H126.695C126.555 147 126.447 146.98 126.371 146.94C126.295 146.896 126.235 146.81 126.191 146.682L126.059 146.238C125.903 146.378 125.751 146.502 125.603 146.61C125.455 146.714 125.301 146.802 125.141 146.874C124.981 146.946 124.809 147 124.625 147.036C124.445 147.076 124.245 147.096 124.025 147.096C123.765 147.096 123.525 147.062 123.305 146.994C123.085 146.922 122.895 146.816 122.735 146.676C122.575 146.536 122.451 146.362 122.363 146.154C122.275 145.946 122.231 145.704 122.231 145.428C122.231 145.272 122.257 145.118 122.309 144.966C122.361 144.81 122.445 144.662 122.561 144.522C122.681 144.382 122.835 144.25 123.023 144.126C123.211 144.002 123.441 143.894 123.713 143.802C123.989 143.71 124.309 143.636 124.673 143.58C125.037 143.52 125.453 143.484 125.921 143.472V143.112C125.921 142.7 125.833 142.396 125.657 142.2C125.481 142 125.227 141.9 124.895 141.9C124.655 141.9 124.455 141.928 124.295 141.984C124.139 142.04 124.001 142.104 123.881 142.176C123.761 142.244 123.651 142.306 123.551 142.362C123.455 142.418 123.347 142.446 123.227 142.446C123.123 142.446 123.035 142.42 122.963 142.368C122.891 142.312 122.833 142.248 122.789 142.176L122.525 141.702Z" fill="#213E88"/>
<path d="M129.645 145.404C129.813 145.608 129.995 145.752 130.191 145.836C130.391 145.92 130.607 145.962 130.839 145.962C131.063 145.962 131.265 145.92 131.445 145.836C131.625 145.752 131.777 145.624 131.901 145.452C132.029 145.28 132.127 145.064 132.195 144.804C132.263 144.54 132.297 144.23 132.297 143.874C132.297 143.514 132.267 143.21 132.207 142.962C132.151 142.71 132.069 142.506 131.961 142.35C131.853 142.194 131.721 142.08 131.565 142.008C131.413 141.936 131.239 141.9 131.043 141.9C130.735 141.9 130.473 141.966 130.257 142.098C130.041 142.226 129.837 142.408 129.645 142.644V145.404ZM129.567 141.684C129.819 141.4 130.105 141.17 130.425 140.994C130.745 140.818 131.121 140.73 131.553 140.73C131.889 140.73 132.195 140.8 132.471 140.94C132.751 141.08 132.991 141.284 133.191 141.552C133.395 141.816 133.551 142.144 133.659 142.536C133.771 142.924 133.827 143.37 133.827 143.874C133.827 144.334 133.765 144.76 133.641 145.152C133.517 145.544 133.339 145.884 133.107 146.172C132.879 146.46 132.601 146.686 132.273 146.85C131.949 147.01 131.585 147.09 131.181 147.09C130.837 147.09 130.543 147.038 130.299 146.934C130.055 146.826 129.837 146.678 129.645 146.49V149.01H128.163V140.844H129.069C129.261 140.844 129.387 140.934 129.447 141.114L129.567 141.684Z" fill="#213E88"/>
<path d="M142.911 147H141.429V141.954H138.573V145.29C138.573 145.482 138.619 145.632 138.711 145.74C138.807 145.848 138.937 145.902 139.101 145.902C139.193 145.902 139.269 145.892 139.329 145.872C139.393 145.848 139.447 145.824 139.491 145.8C139.539 145.776 139.581 145.754 139.617 145.734C139.653 145.71 139.689 145.698 139.725 145.698C139.769 145.698 139.805 145.71 139.833 145.734C139.861 145.754 139.891 145.786 139.923 145.83L140.367 146.55C140.151 146.73 139.903 146.866 139.623 146.958C139.343 147.05 139.053 147.096 138.753 147.096C138.217 147.096 137.805 146.946 137.517 146.646C137.233 146.342 137.091 145.924 137.091 145.392V141.954H136.461C136.381 141.954 136.313 141.928 136.257 141.876C136.201 141.824 136.173 141.746 136.173 141.642V141.054L137.163 140.886L137.475 139.212C137.495 139.132 137.533 139.07 137.589 139.026C137.645 138.982 137.717 138.96 137.805 138.96H138.573V140.898H142.911V147ZM143.169 139.026C143.169 139.154 143.143 139.276 143.091 139.392C143.039 139.504 142.969 139.602 142.881 139.686C142.797 139.77 142.695 139.838 142.575 139.89C142.459 139.938 142.335 139.962 142.203 139.962C142.075 139.962 141.955 139.938 141.843 139.89C141.731 139.838 141.633 139.77 141.549 139.686C141.465 139.602 141.397 139.504 141.345 139.392C141.297 139.276 141.273 139.154 141.273 139.026C141.273 138.894 141.297 138.772 141.345 138.66C141.397 138.544 141.465 138.444 141.549 138.36C141.633 138.272 141.731 138.204 141.843 138.156C141.955 138.104 142.075 138.078 142.203 138.078C142.335 138.078 142.459 138.104 142.575 138.156C142.695 138.204 142.797 138.272 142.881 138.36C142.969 138.444 143.039 138.544 143.091 138.66C143.143 138.772 143.169 138.894 143.169 139.026Z" fill="#213E88"/>
<path d="M145.36 140.844V147.21C145.36 147.478 145.324 147.73 145.252 147.966C145.184 148.202 145.072 148.408 144.916 148.584C144.764 148.764 144.562 148.904 144.31 149.004C144.062 149.108 143.758 149.16 143.398 149.16C143.258 149.16 143.128 149.15 143.008 149.13C142.888 149.114 142.764 149.086 142.636 149.046L142.69 148.248C142.702 148.168 142.734 148.116 142.786 148.092C142.838 148.072 142.938 148.062 143.086 148.062C143.234 148.062 143.358 148.046 143.458 148.014C143.562 147.986 143.644 147.938 143.704 147.87C143.764 147.806 143.806 147.72 143.83 147.612C143.858 147.504 143.872 147.37 143.872 147.21V140.844H145.36ZM145.564 139.05C145.564 139.178 145.538 139.298 145.486 139.41C145.434 139.522 145.364 139.62 145.276 139.704C145.192 139.788 145.09 139.856 144.97 139.908C144.854 139.956 144.73 139.98 144.598 139.98C144.47 139.98 144.35 139.956 144.238 139.908C144.126 139.856 144.028 139.788 143.944 139.704C143.86 139.62 143.792 139.522 143.74 139.41C143.692 139.298 143.668 139.178 143.668 139.05C143.668 138.918 143.692 138.794 143.74 138.678C143.792 138.562 143.86 138.462 143.944 138.378C144.028 138.294 144.126 138.228 144.238 138.18C144.35 138.128 144.47 138.102 144.598 138.102C144.73 138.102 144.854 138.128 144.97 138.18C145.09 138.228 145.192 138.294 145.276 138.378C145.364 138.462 145.434 138.562 145.486 138.678C145.538 138.794 145.564 138.918 145.564 139.05Z" fill="#213E88"/>
<path d="M150.134 142.416C149.966 142.212 149.782 142.068 149.582 141.984C149.386 141.9 149.174 141.858 148.946 141.858C148.722 141.858 148.52 141.9 148.34 141.984C148.16 142.068 148.006 142.196 147.878 142.368C147.75 142.536 147.652 142.752 147.584 143.016C147.516 143.276 147.482 143.584 147.482 143.94C147.482 144.3 147.51 144.606 147.566 144.858C147.626 145.106 147.71 145.31 147.818 145.47C147.926 145.626 148.058 145.74 148.214 145.812C148.37 145.88 148.544 145.914 148.736 145.914C149.044 145.914 149.306 145.85 149.522 145.722C149.738 145.594 149.942 145.412 150.134 145.176V142.416ZM151.616 138.084V147H150.71C150.514 147 150.39 146.91 150.338 146.73L150.212 146.136C149.964 146.42 149.678 146.65 149.354 146.826C149.034 147.002 148.66 147.09 148.232 147.09C147.896 147.09 147.588 147.02 147.308 146.88C147.028 146.74 146.786 146.538 146.582 146.274C146.382 146.006 146.226 145.676 146.114 145.284C146.006 144.892 145.952 144.444 145.952 143.94C145.952 143.484 146.014 143.06 146.138 142.668C146.262 142.276 146.44 141.936 146.672 141.648C146.904 141.36 147.182 141.136 147.506 140.976C147.83 140.812 148.194 140.73 148.598 140.73C148.942 140.73 149.236 140.784 149.48 140.892C149.724 141 149.942 141.146 150.134 141.33V138.084H151.616Z" fill="#213E88"/>
<path d="M156.445 143.214C156.445 143.022 156.417 142.842 156.361 142.674C156.309 142.502 156.229 142.352 156.121 142.224C156.013 142.096 155.875 141.996 155.707 141.924C155.543 141.848 155.351 141.81 155.131 141.81C154.703 141.81 154.365 141.932 154.117 142.176C153.873 142.42 153.717 142.766 153.649 143.214H156.445ZM153.619 144.108C153.643 144.424 153.699 144.698 153.787 144.93C153.875 145.158 153.991 145.348 154.135 145.5C154.279 145.648 154.449 145.76 154.645 145.836C154.845 145.908 155.065 145.944 155.305 145.944C155.545 145.944 155.751 145.916 155.923 145.86C156.099 145.804 156.251 145.742 156.379 145.674C156.511 145.606 156.625 145.544 156.721 145.488C156.821 145.432 156.917 145.404 157.009 145.404C157.133 145.404 157.225 145.45 157.285 145.542L157.711 146.082C157.547 146.274 157.363 146.436 157.159 146.568C156.955 146.696 156.741 146.8 156.517 146.88C156.297 146.956 156.071 147.01 155.839 147.042C155.611 147.074 155.389 147.09 155.173 147.09C154.745 147.09 154.347 147.02 153.979 146.88C153.611 146.736 153.291 146.526 153.019 146.25C152.747 145.97 152.533 145.626 152.377 145.218C152.221 144.806 152.143 144.33 152.143 143.79C152.143 143.37 152.211 142.976 152.347 142.608C152.483 142.236 152.677 141.914 152.929 141.642C153.185 141.366 153.495 141.148 153.859 140.988C154.227 140.828 154.641 140.748 155.101 140.748C155.489 140.748 155.847 140.81 156.175 140.934C156.503 141.058 156.785 141.24 157.021 141.48C157.257 141.716 157.441 142.008 157.573 142.356C157.709 142.7 157.777 143.094 157.777 143.538C157.777 143.762 157.753 143.914 157.705 143.994C157.657 144.07 157.565 144.108 157.429 144.108H153.619Z" fill="#213E88"/>
<path d="M159.675 141.6C159.799 141.476 159.929 141.362 160.065 141.258C160.205 141.15 160.351 141.06 160.503 140.988C160.659 140.912 160.825 140.854 161.001 140.814C161.177 140.77 161.369 140.748 161.577 140.748C161.913 140.748 162.211 140.806 162.471 140.922C162.731 141.034 162.947 141.194 163.119 141.402C163.295 141.606 163.427 141.852 163.515 142.14C163.607 142.424 163.653 142.738 163.653 143.082V147H162.171V143.082C162.171 142.706 162.085 142.416 161.913 142.212C161.741 142.004 161.479 141.9 161.127 141.9C160.871 141.9 160.631 141.958 160.407 142.074C160.183 142.19 159.971 142.348 159.771 142.548V147H158.289V140.844H159.195C159.387 140.844 159.513 140.934 159.573 141.114L159.675 141.6Z" fill="#213E88"/>
<path d="M168.219 142.044C168.179 142.108 168.137 142.154 168.093 142.182C168.049 142.206 167.993 142.218 167.925 142.218C167.853 142.218 167.775 142.198 167.691 142.158C167.611 142.118 167.517 142.074 167.409 142.026C167.301 141.974 167.177 141.928 167.037 141.888C166.901 141.848 166.739 141.828 166.551 141.828C166.259 141.828 166.029 141.89 165.861 142.014C165.697 142.138 165.615 142.3 165.615 142.5C165.615 142.632 165.657 142.744 165.741 142.836C165.829 142.924 165.943 143.002 166.083 143.07C166.227 143.138 166.389 143.2 166.569 143.256C166.749 143.308 166.931 143.366 167.115 143.43C167.303 143.494 167.487 143.568 167.667 143.652C167.847 143.732 168.007 143.836 168.147 143.964C168.291 144.088 168.405 144.238 168.489 144.414C168.577 144.59 168.621 144.802 168.621 145.05C168.621 145.346 168.567 145.62 168.459 145.872C168.355 146.12 168.199 146.336 167.991 146.52C167.783 146.7 167.525 146.842 167.217 146.946C166.913 147.046 166.561 147.096 166.161 147.096C165.949 147.096 165.741 147.076 165.537 147.036C165.337 147 165.143 146.948 164.955 146.88C164.771 146.812 164.599 146.732 164.439 146.64C164.283 146.548 164.145 146.448 164.025 146.34L164.367 145.776C164.411 145.708 164.463 145.656 164.523 145.62C164.583 145.584 164.659 145.566 164.751 145.566C164.843 145.566 164.929 145.592 165.009 145.644C165.093 145.696 165.189 145.752 165.297 145.812C165.405 145.872 165.531 145.928 165.675 145.98C165.823 146.032 166.009 146.058 166.233 146.058C166.409 146.058 166.559 146.038 166.683 145.998C166.811 145.954 166.915 145.898 166.995 145.83C167.079 145.762 167.139 145.684 167.175 145.596C167.215 145.504 167.235 145.41 167.235 145.314C167.235 145.17 167.191 145.052 167.103 144.96C167.019 144.868 166.905 144.788 166.761 144.72C166.621 144.652 166.459 144.592 166.275 144.54C166.095 144.484 165.909 144.424 165.717 144.36C165.529 144.296 165.343 144.222 165.159 144.138C164.979 144.05 164.817 143.94 164.673 143.808C164.533 143.676 164.419 143.514 164.331 143.322C164.247 143.13 164.205 142.898 164.205 142.626C164.205 142.374 164.255 142.134 164.355 141.906C164.455 141.678 164.601 141.48 164.793 141.312C164.989 141.14 165.231 141.004 165.519 140.904C165.811 140.8 166.147 140.748 166.527 140.748C166.951 140.748 167.337 140.818 167.685 140.958C168.033 141.098 168.323 141.282 168.555 141.51L168.219 142.044Z" fill="#213E88"/>
<path d="M172.936 141.504C173.176 141.28 173.44 141.098 173.728 140.958C174.016 140.818 174.354 140.748 174.742 140.748C175.078 140.748 175.376 140.806 175.636 140.922C175.896 141.034 176.112 141.194 176.284 141.402C176.46 141.606 176.592 141.852 176.68 142.14C176.772 142.424 176.818 142.738 176.818 143.082V147H175.336V143.082C175.336 142.706 175.25 142.416 175.078 142.212C174.906 142.004 174.644 141.9 174.292 141.9C174.036 141.9 173.796 141.958 173.572 142.074C173.348 142.19 173.136 142.348 172.936 142.548V147H171.454V138.084H172.936V141.504Z" fill="#213E88"/>
<path d="M181.593 143.214C181.593 143.022 181.565 142.842 181.509 142.674C181.457 142.502 181.377 142.352 181.269 142.224C181.161 142.096 181.023 141.996 180.855 141.924C180.691 141.848 180.499 141.81 180.279 141.81C179.851 141.81 179.513 141.932 179.265 142.176C179.021 142.42 178.865 142.766 178.797 143.214H181.593ZM178.767 144.108C178.791 144.424 178.847 144.698 178.935 144.93C179.023 145.158 179.139 145.348 179.283 145.5C179.427 145.648 179.597 145.76 179.793 145.836C179.993 145.908 180.213 145.944 180.453 145.944C180.693 145.944 180.899 145.916 181.071 145.86C181.247 145.804 181.399 145.742 181.527 145.674C181.659 145.606 181.773 145.544 181.869 145.488C181.969 145.432 182.065 145.404 182.157 145.404C182.281 145.404 182.373 145.45 182.433 145.542L182.859 146.082C182.695 146.274 182.511 146.436 182.307 146.568C182.103 146.696 181.889 146.8 181.665 146.88C181.445 146.956 181.219 147.01 180.987 147.042C180.759 147.074 180.537 147.09 180.321 147.09C179.893 147.09 179.495 147.02 179.127 146.88C178.759 146.736 178.439 146.526 178.167 146.25C177.895 145.97 177.681 145.626 177.525 145.218C177.369 144.806 177.291 144.33 177.291 143.79C177.291 143.37 177.359 142.976 177.495 142.608C177.631 142.236 177.825 141.914 178.077 141.642C178.333 141.366 178.643 141.148 179.007 140.988C179.375 140.828 179.789 140.748 180.249 140.748C180.637 140.748 180.995 140.81 181.323 140.934C181.651 141.058 181.933 141.24 182.169 141.48C182.405 141.716 182.589 142.008 182.721 142.356C182.857 142.7 182.925 143.094 182.925 143.538C182.925 143.762 182.901 143.914 182.853 143.994C182.805 144.07 182.713 144.108 182.577 144.108H178.767Z" fill="#213E88"/>
<path d="M185.431 147.096C184.895 147.096 184.483 146.946 184.195 146.646C183.911 146.342 183.769 145.924 183.769 145.392V141.954H183.139C183.059 141.954 182.991 141.928 182.935 141.876C182.879 141.824 182.851 141.746 182.851 141.642V141.054L183.841 140.892L184.153 139.212C184.173 139.132 184.211 139.07 184.267 139.026C184.323 138.982 184.395 138.96 184.483 138.96H185.251V140.898H186.895V141.954H185.251V145.29C185.251 145.482 185.297 145.632 185.389 145.74C185.485 145.848 185.615 145.902 185.779 145.902C185.871 145.902 185.947 145.892 186.007 145.872C186.071 145.848 186.125 145.824 186.169 145.8C186.217 145.776 186.259 145.754 186.295 145.734C186.331 145.71 186.367 145.698 186.403 145.698C186.447 145.698 186.483 145.71 186.511 145.734C186.539 145.754 186.569 145.786 186.601 145.83L187.045 146.55C186.829 146.73 186.581 146.866 186.301 146.958C186.021 147.05 185.731 147.096 185.431 147.096Z" fill="#213E88"/>
<path d="M191.044 145.404C191.212 145.608 191.394 145.752 191.59 145.836C191.79 145.92 192.006 145.962 192.238 145.962C192.462 145.962 192.664 145.92 192.844 145.836C193.024 145.752 193.176 145.624 193.3 145.452C193.428 145.28 193.526 145.064 193.594 144.804C193.662 144.54 193.696 144.23 193.696 143.874C193.696 143.514 193.666 143.21 193.606 142.962C193.55 142.71 193.468 142.506 193.36 142.35C193.252 142.194 193.12 142.08 192.964 142.008C192.812 141.936 192.638 141.9 192.442 141.9C192.134 141.9 191.872 141.966 191.656 142.098C191.44 142.226 191.236 142.408 191.044 142.644V145.404ZM190.966 141.684C191.218 141.4 191.504 141.17 191.824 140.994C192.144 140.818 192.52 140.73 192.952 140.73C193.288 140.73 193.594 140.8 193.87 140.94C194.15 141.08 194.39 141.284 194.59 141.552C194.794 141.816 194.95 142.144 195.058 142.536C195.17 142.924 195.226 143.37 195.226 143.874C195.226 144.334 195.164 144.76 195.04 145.152C194.916 145.544 194.738 145.884 194.506 146.172C194.278 146.46 194 146.686 193.672 146.85C193.348 147.01 192.984 147.09 192.58 147.09C192.236 147.09 191.942 147.038 191.698 146.934C191.454 146.826 191.236 146.678 191.044 146.49V149.01H189.562V140.844H190.468C190.66 140.844 190.786 140.934 190.846 141.114L190.966 141.684Z" fill="#213E88"/>
<path d="M197.18 141.912C197.372 141.544 197.6 141.256 197.864 141.048C198.128 140.836 198.44 140.73 198.8 140.73C199.084 140.73 199.312 140.792 199.484 140.916L199.388 142.026C199.368 142.098 199.338 142.15 199.298 142.182C199.262 142.21 199.212 142.224 199.148 142.224C199.088 142.224 198.998 142.214 198.878 142.194C198.762 142.174 198.648 142.164 198.536 142.164C198.372 142.164 198.226 142.188 198.098 142.236C197.97 142.284 197.854 142.354 197.75 142.446C197.65 142.534 197.56 142.642 197.48 142.77C197.404 142.898 197.332 143.044 197.264 143.208V147H195.782V140.844H196.652C196.804 140.844 196.91 140.872 196.97 140.928C197.03 140.98 197.07 141.076 197.09 141.216L197.18 141.912Z" fill="#213E88"/>
<path d="M202.207 140.748C202.663 140.748 203.077 140.822 203.449 140.97C203.825 141.118 204.145 141.328 204.409 141.6C204.677 141.872 204.883 142.204 205.027 142.596C205.171 142.988 205.243 143.426 205.243 143.91C205.243 144.398 205.171 144.838 205.027 145.23C204.883 145.622 204.677 145.956 204.409 146.232C204.145 146.508 203.825 146.72 203.449 146.868C203.077 147.016 202.663 147.09 202.207 147.09C201.747 147.09 201.329 147.016 200.953 146.868C200.577 146.72 200.255 146.508 199.987 146.232C199.723 145.956 199.517 145.622 199.369 145.23C199.225 144.838 199.153 144.398 199.153 143.91C199.153 143.426 199.225 142.988 199.369 142.596C199.517 142.204 199.723 141.872 199.987 141.6C200.255 141.328 200.577 141.118 200.953 140.97C201.329 140.822 201.747 140.748 202.207 140.748ZM202.207 145.95C202.719 145.95 203.097 145.778 203.341 145.434C203.589 145.09 203.713 144.586 203.713 143.922C203.713 143.258 203.589 142.752 203.341 142.404C203.097 142.056 202.719 141.882 202.207 141.882C201.687 141.882 201.301 142.058 201.049 142.41C200.801 142.758 200.677 143.262 200.677 143.922C200.677 144.582 200.801 145.086 201.049 145.434C201.301 145.778 201.687 145.95 202.207 145.95Z" fill="#213E88"/>
<path d="M207.977 143.772C208.161 143.772 208.321 143.748 208.457 143.7C208.593 143.648 208.705 143.578 208.793 143.49C208.885 143.402 208.953 143.296 208.997 143.172C209.045 143.048 209.069 142.912 209.069 142.764C209.069 142.46 208.977 142.22 208.793 142.044C208.613 141.864 208.341 141.774 207.977 141.774C207.613 141.774 207.339 141.864 207.155 142.044C206.975 142.22 206.885 142.46 206.885 142.764C206.885 142.908 206.907 143.042 206.951 143.166C206.999 143.29 207.067 143.398 207.155 143.49C207.247 143.578 207.361 143.648 207.497 143.7C207.637 143.748 207.797 143.772 207.977 143.772ZM209.651 147.276C209.651 147.156 209.615 147.058 209.543 146.982C209.471 146.906 209.373 146.848 209.249 146.808C209.125 146.764 208.979 146.732 208.811 146.712C208.647 146.692 208.471 146.678 208.283 146.67C208.099 146.658 207.907 146.648 207.707 146.64C207.511 146.632 207.319 146.616 207.131 146.592C206.967 146.684 206.833 146.792 206.729 146.916C206.629 147.04 206.579 147.184 206.579 147.348C206.579 147.456 206.605 147.556 206.657 147.648C206.713 147.744 206.799 147.826 206.915 147.894C207.035 147.962 207.189 148.014 207.377 148.05C207.565 148.09 207.795 148.11 208.067 148.11C208.343 148.11 208.581 148.088 208.781 148.044C208.981 148.004 209.145 147.946 209.273 147.87C209.405 147.798 209.501 147.71 209.561 147.606C209.621 147.506 209.651 147.396 209.651 147.276ZM211.127 141.054V141.606C211.127 141.782 211.021 141.89 210.809 141.93L210.257 142.032C210.341 142.244 210.383 142.476 210.383 142.728C210.383 143.032 210.321 143.308 210.197 143.556C210.077 143.8 209.909 144.008 209.693 144.18C209.477 144.352 209.221 144.486 208.925 144.582C208.633 144.674 208.317 144.72 207.977 144.72C207.857 144.72 207.741 144.714 207.629 144.702C207.517 144.69 207.407 144.674 207.299 144.654C207.107 144.77 207.011 144.9 207.011 145.044C207.011 145.168 207.067 145.26 207.179 145.32C207.295 145.376 207.447 145.416 207.635 145.44C207.823 145.464 208.037 145.48 208.277 145.488C208.517 145.492 208.763 145.504 209.015 145.524C209.267 145.544 209.513 145.58 209.753 145.632C209.993 145.68 210.207 145.758 210.395 145.866C210.583 145.974 210.733 146.122 210.845 146.31C210.961 146.494 211.019 146.732 211.019 147.024C211.019 147.296 210.951 147.56 210.815 147.816C210.683 148.072 210.489 148.3 210.233 148.5C209.981 148.7 209.669 148.86 209.297 148.98C208.929 149.104 208.509 149.166 208.037 149.166C207.573 149.166 207.169 149.12 206.825 149.028C206.481 148.94 206.195 148.82 205.967 148.668C205.739 148.52 205.569 148.348 205.457 148.152C205.345 147.956 205.289 147.752 205.289 147.54C205.289 147.252 205.375 147.012 205.547 146.82C205.723 146.624 205.963 146.468 206.267 146.352C206.103 146.268 205.973 146.156 205.877 146.016C205.781 145.876 205.733 145.692 205.733 145.464C205.733 145.372 205.749 145.278 205.781 145.182C205.817 145.082 205.867 144.984 205.931 144.888C205.999 144.792 206.083 144.702 206.183 144.618C206.283 144.53 206.401 144.452 206.537 144.384C206.225 144.216 205.979 143.992 205.799 143.712C205.623 143.432 205.535 143.104 205.535 142.728C205.535 142.424 205.595 142.15 205.715 141.906C205.839 141.658 206.009 141.448 206.225 141.276C206.445 141.1 206.703 140.966 206.999 140.874C207.299 140.782 207.625 140.736 207.977 140.736C208.241 140.736 208.489 140.764 208.721 140.82C208.953 140.872 209.165 140.95 209.357 141.054H211.127Z" fill="#213E88"/>
<path d="M212.864 141.912C213.056 141.544 213.284 141.256 213.548 141.048C213.812 140.836 214.124 140.73 214.484 140.73C214.768 140.73 214.996 140.792 215.168 140.916L215.072 142.026C215.052 142.098 215.022 142.15 214.982 142.182C214.946 142.21 214.896 142.224 214.832 142.224C214.772 142.224 214.682 142.214 214.562 142.194C214.446 142.174 214.332 142.164 214.22 142.164C214.056 142.164 213.91 142.188 213.782 142.236C213.654 142.284 213.538 142.354 213.434 142.446C213.334 142.534 213.244 142.642 213.164 142.77C213.088 142.898 213.016 143.044 212.948 143.208V147H211.466V140.844H212.336C212.488 140.844 212.594 140.872 212.654 140.928C212.714 140.98 212.754 141.076 212.774 141.216L212.864 141.912Z" fill="#213E88"/>
<path d="M218.513 144.372C218.085 144.392 217.725 144.43 217.433 144.486C217.141 144.538 216.907 144.606 216.731 144.69C216.555 144.774 216.429 144.872 216.353 144.984C216.277 145.096 216.239 145.218 216.239 145.35C216.239 145.61 216.315 145.796 216.467 145.908C216.623 146.02 216.825 146.076 217.073 146.076C217.377 146.076 217.639 146.022 217.859 145.914C218.083 145.802 218.301 145.634 218.513 145.41V144.372ZM215.117 141.702C215.825 141.054 216.677 140.73 217.673 140.73C218.033 140.73 218.355 140.79 218.639 140.91C218.923 141.026 219.163 141.19 219.359 141.402C219.555 141.61 219.703 141.86 219.803 142.152C219.907 142.444 219.959 142.764 219.959 143.112V147H219.287C219.147 147 219.039 146.98 218.963 146.94C218.887 146.896 218.827 146.81 218.783 146.682L218.651 146.238C218.495 146.378 218.343 146.502 218.195 146.61C218.047 146.714 217.893 146.802 217.733 146.874C217.573 146.946 217.401 147 217.217 147.036C217.037 147.076 216.837 147.096 216.617 147.096C216.357 147.096 216.117 147.062 215.897 146.994C215.677 146.922 215.487 146.816 215.327 146.676C215.167 146.536 215.043 146.362 214.955 146.154C214.867 145.946 214.823 145.704 214.823 145.428C214.823 145.272 214.849 145.118 214.901 144.966C214.953 144.81 215.037 144.662 215.153 144.522C215.273 144.382 215.427 144.25 215.615 144.126C215.803 144.002 216.033 143.894 216.305 143.802C216.581 143.71 216.901 143.636 217.265 143.58C217.629 143.52 218.045 143.484 218.513 143.472V143.112C218.513 142.7 218.425 142.396 218.249 142.2C218.073 142 217.819 141.9 217.487 141.9C217.247 141.9 217.047 141.928 216.887 141.984C216.731 142.04 216.593 142.104 216.473 142.176C216.353 142.244 216.243 142.306 216.143 142.362C216.047 142.418 215.939 142.446 215.819 142.446C215.715 142.446 215.627 142.42 215.555 142.368C215.483 142.312 215.425 142.248 215.381 142.176L215.117 141.702Z" fill="#213E88"/>
<path d="M220.755 147V140.844H221.661C221.853 140.844 221.979 140.934 222.039 141.114L222.135 141.57C222.243 141.45 222.355 141.34 222.471 141.24C222.591 141.14 222.717 141.054 222.849 140.982C222.985 140.91 223.129 140.854 223.281 140.814C223.437 140.77 223.607 140.748 223.791 140.748C224.179 140.748 224.497 140.854 224.745 141.066C224.997 141.274 225.185 141.552 225.309 141.9C225.405 141.696 225.525 141.522 225.669 141.378C225.813 141.23 225.971 141.11 226.143 141.018C226.315 140.926 226.497 140.858 226.689 140.814C226.885 140.77 227.081 140.748 227.277 140.748C227.617 140.748 227.919 140.8 228.183 140.904C228.447 141.008 228.669 141.16 228.849 141.36C229.029 141.56 229.165 141.804 229.257 142.092C229.353 142.38 229.401 142.71 229.401 143.082V147H227.919V143.082C227.919 142.69 227.833 142.396 227.661 142.2C227.489 142 227.237 141.9 226.905 141.9C226.753 141.9 226.611 141.926 226.479 141.978C226.351 142.03 226.237 142.106 226.137 142.206C226.041 142.302 225.965 142.424 225.909 142.572C225.853 142.72 225.825 142.89 225.825 143.082V147H224.337V143.082C224.337 142.67 224.253 142.37 224.085 142.182C223.921 141.994 223.679 141.9 223.359 141.9C223.143 141.9 222.941 141.954 222.753 142.062C222.569 142.166 222.397 142.31 222.237 142.494V147H220.755Z" fill="#213E88"/>
<path d="M230.209 147V140.844H231.115C231.307 140.844 231.433 140.934 231.493 141.114L231.589 141.57C231.697 141.45 231.809 141.34 231.925 141.24C232.045 141.14 232.171 141.054 232.303 140.982C232.439 140.91 232.583 140.854 232.735 140.814C232.891 140.77 233.061 140.748 233.245 140.748C233.633 140.748 233.951 140.854 234.199 141.066C234.451 141.274 234.639 141.552 234.763 141.9C234.859 141.696 234.979 141.522 235.123 141.378C235.267 141.23 235.425 141.11 235.597 141.018C235.769 140.926 235.951 140.858 236.143 140.814C236.339 140.77 236.535 140.748 236.731 140.748C237.071 140.748 237.373 140.8 237.637 140.904C237.901 141.008 238.123 141.16 238.303 141.36C238.483 141.56 238.619 141.804 238.711 142.092C238.807 142.38 238.855 142.71 238.855 143.082V147H237.373V143.082C237.373 142.69 237.287 142.396 237.115 142.2C236.943 142 236.691 141.9 236.359 141.9C236.207 141.9 236.065 141.926 235.933 141.978C235.805 142.03 235.691 142.106 235.591 142.206C235.495 142.302 235.419 142.424 235.363 142.572C235.307 142.72 235.279 142.89 235.279 143.082V147H233.791V143.082C233.791 142.67 233.707 142.37 233.539 142.182C233.375 141.994 233.133 141.9 232.813 141.9C232.597 141.9 232.395 141.954 232.207 142.062C232.023 142.166 231.851 142.31 231.691 142.494V147H230.209Z" fill="#213E88"/>
<path d="M242.916 144.372C242.488 144.392 242.128 144.43 241.836 144.486C241.544 144.538 241.31 144.606 241.134 144.69C240.958 144.774 240.832 144.872 240.756 144.984C240.68 145.096 240.642 145.218 240.642 145.35C240.642 145.61 240.718 145.796 240.87 145.908C241.026 146.02 241.228 146.076 241.476 146.076C241.78 146.076 242.042 146.022 242.262 145.914C242.486 145.802 242.704 145.634 242.916 145.41V144.372ZM239.52 141.702C240.228 141.054 241.08 140.73 242.076 140.73C242.436 140.73 242.758 140.79 243.042 140.91C243.326 141.026 243.566 141.19 243.762 141.402C243.958 141.61 244.106 141.86 244.206 142.152C244.31 142.444 244.362 142.764 244.362 143.112V147H243.69C243.55 147 243.442 146.98 243.366 146.94C243.29 146.896 243.23 146.81 243.186 146.682L243.054 146.238C242.898 146.378 242.746 146.502 242.598 146.61C242.45 146.714 242.296 146.802 242.136 146.874C241.976 146.946 241.804 147 241.62 147.036C241.44 147.076 241.24 147.096 241.02 147.096C240.76 147.096 240.52 147.062 240.3 146.994C240.08 146.922 239.89 146.816 239.73 146.676C239.57 146.536 239.446 146.362 239.358 146.154C239.27 145.946 239.226 145.704 239.226 145.428C239.226 145.272 239.252 145.118 239.304 144.966C239.356 144.81 239.44 144.662 239.556 144.522C239.676 144.382 239.83 144.25 240.018 144.126C240.206 144.002 240.436 143.894 240.708 143.802C240.984 143.71 241.304 143.636 241.668 143.58C242.032 143.52 242.448 143.484 242.916 143.472V143.112C242.916 142.7 242.828 142.396 242.652 142.2C242.476 142 242.222 141.9 241.89 141.9C241.65 141.9 241.45 141.928 241.29 141.984C241.134 142.04 240.996 142.104 240.876 142.176C240.756 142.244 240.646 142.306 240.546 142.362C240.45 142.418 240.342 142.446 240.222 142.446C240.118 142.446 240.03 142.42 239.958 142.368C239.886 142.312 239.828 142.248 239.784 142.176L239.52 141.702Z" fill="#213E88"/>
</svg>
