<svg width="575" height="284" viewBox="0 0 575 284" fill="none" xmlns="http://www.w3.org/2000/svg">
<path d="M283.465 0H0V283.465H283.465V0Z" fill="#213E88"/>
<path d="M283.465 113.387V28.347H198.425C151.459 28.347 113.386 66.42 113.386 113.386C113.386 160.352 151.46 198.425 198.426 198.425C234.38 198.425 265.1 176.101 277.539 144.567H283.465V141.734" fill="white"/>
<path d="M242.824 262.205H253.683V229.223H262.015V219.685H234.434V229.223H242.824V262.205ZM203.292 219.685H193.926V262.206H204.326L204.096 236.578L220.357 262.206H229.781V219.685H219.381L219.61 245.599L203.292 219.685ZM172.666 247.438H163.3L167.897 232.613L172.666 247.438ZM160.599 256.057H175.481L177.493 262.205H189.387L173.068 219.684H163.702L146.866 262.205H158.646L160.599 256.057ZM112.505 262.205H123.365V229.223H127.387C128.881 229.223 130.605 229.626 131.812 230.372C133.248 231.292 134.34 233.072 134.34 235.313C134.34 237.669 133.248 239.68 131.927 240.542C130.49 241.461 128.134 241.69 125.376 241.69H123.595L134.685 262.204H145.89L137.098 246.574C139.109 245.713 141.178 244.276 142.614 242.035C143.821 240.139 144.74 237.61 144.74 234.336C144.74 229.682 143.131 225.486 139.569 222.729C137.213 220.891 133.076 219.684 126.411 219.684H112.505V262.205V262.205ZM91.245 247.438H81.879L86.476 232.613L91.245 247.438ZM79.179 256.057H94.061L96.072 262.205H107.966L91.648 219.684H82.282L65.446 262.205H77.225L79.179 256.057ZM65.159 233.935C62.803 225.718 54.069 218.88 43.899 218.88C31.373 218.88 21.145 228.073 21.145 240.773C21.145 253.012 30.855 263.067 43.726 263.067C50.737 263.067 60.275 259.562 64.412 250.196C66.251 246.059 66.595 241.06 66.366 238.015H41.141V246.691H53.839C53.265 248.76 52.058 250.483 50.334 251.633C48.611 252.839 46.37 253.529 43.669 253.529C38.325 253.529 32.005 249.679 32.005 240.773C32.005 232.384 38.268 228.419 43.611 228.419C46.599 228.419 48.955 229.511 50.737 231.062C51.656 231.924 52.403 232.901 52.977 233.935H65.159V233.935Z" fill="white"/>
<path d="M267.864 252.461C268.272 252.461 269.106 252.48 269.106 253.476C269.106 254.676 268.161 254.676 267.753 254.676H266.808V252.461H267.864ZM264.844 251.114V258.976H266.808V255.949H267.587C268.828 255.949 268.939 256.65 268.995 257.094C269.032 257.353 269.106 258.699 269.254 258.977H271.162C271.014 258.571 271.014 258.423 270.921 257.057C270.847 255.858 270.366 255.47 269.791 255.23C270.847 254.751 271.07 253.975 271.07 253.33C271.07 251.742 269.699 251.115 268.179 251.115H264.844V251.114ZM267.901 249.452C271.033 249.452 273.423 252.073 273.423 255.118C273.423 258.293 270.921 260.783 267.883 260.783C264.844 260.783 262.325 258.256 262.325 255.118C262.325 252.017 264.752 249.452 267.883 249.452H267.901ZM267.92 248.032C263.863 248.032 260.787 251.317 260.787 255.119C260.787 259.014 263.974 262.205 267.883 262.205C271.774 262.205 274.96 259.031 274.96 255.119C274.96 251.299 271.848 248.032 267.939 248.032H267.92Z" fill="white"/>
<path d="M283.465 141.733V99.213V85.04H255.118H248.032H219.685H212.598H184.252V99.213V141.733H212.598V99.213H219.685V141.733H248.032V99.213H255.118V141.733H283.465Z" fill="#213E88"/>
<path d="M572.244 1.77301H292.323V281.694H572.244V1.77301Z" stroke="white" stroke-width="3.543" stroke-miterlimit="10"/>
<path d="M493.285 262.205H516.844V258.011H497.997V242.841H516.728V238.647H497.997V223.879H516.844V219.686H493.285V262.205ZM465.762 223.879H472.427C476.047 223.879 478.231 224.281 480.357 225.661C482.253 226.867 483.575 229.568 483.575 232.613C483.575 235.601 482.254 238.301 480.415 239.508C478.289 240.887 476.105 241.29 472.543 241.29H465.763V223.879H465.762ZM460.993 219.686V262.206H465.763V245.485H472.6C478.117 245.485 480.991 244.796 483.805 242.612C486.391 240.601 488.172 236.521 488.172 232.499C488.172 228.535 486.448 224.57 483.633 222.386C480.99 220.375 478.174 219.687 472.198 219.687H460.993V219.686ZM433.873 223.879H440.538C444.158 223.879 446.342 224.281 448.468 225.661C450.364 226.867 451.686 229.568 451.686 232.613C451.686 235.601 450.365 238.301 448.526 239.508C446.4 240.887 444.216 241.29 440.654 241.29H433.874V223.879H433.873ZM429.104 219.686V262.206H433.873V245.485H440.711C446.227 245.485 449.1 244.796 451.916 242.612C454.501 240.601 456.282 236.521 456.282 232.499C456.282 228.535 454.558 224.57 451.743 222.386C449.099 220.375 446.284 219.687 440.308 219.687H429.104V219.686ZM392.675 219.686V246.633C392.675 251.288 393.02 256.114 397.502 259.735C400.145 262.09 403.88 262.953 406.868 262.953C410.545 262.953 413.705 261.746 416.06 259.735C420.313 256.46 420.945 251.576 420.887 246.633V219.686H416.175V246.633C416.175 249.966 416.175 252.438 414.164 255.252C412.728 257.378 409.912 258.757 406.867 258.757C403.763 258.757 400.948 257.321 399.454 255.195C397.443 252.322 397.443 249.851 397.443 246.633V219.686H392.675V219.686ZM358.085 262.205H362.856V223.879H369.52C373.371 223.879 376.013 224.052 378.139 225.431C380.783 227.155 382.333 230.488 382.333 233.648C382.333 236.694 381.357 239.28 379.116 241.462C376.817 243.588 372.679 243.646 369.692 243.646H368.313L380.322 262.206H385.494L374.921 246.29C378.828 245.887 381.874 245.083 384.402 241.635C386.182 239.222 386.988 236.177 386.929 233.304C386.929 228.478 384.574 223.939 381.126 221.869C378.942 220.49 375.839 219.686 369.174 219.686H358.084V262.205H358.085ZM349.524 230.717C346.191 223.764 338.204 218.939 329.585 218.939C317.289 218.939 307.291 228.131 307.291 240.887C307.291 253.471 317.117 263.01 329.528 263.01C338.089 263.01 346.593 258.356 350.271 250.368C351.535 247.725 352.11 244.622 352.167 242.152H325.506V246.059H346.652C345.962 249.39 343.893 252.609 340.906 254.964C337.975 257.263 334.01 258.815 329.529 258.815C320.219 258.815 312.06 251.69 312.06 240.886C312.06 230.256 320.163 223.131 329.47 223.131C333.263 223.131 336.595 224.223 339.355 226.119C341.193 227.326 342.801 228.877 344.124 230.716H349.524V230.717Z" fill="#213E88"/>
</svg>
