<svg width="379" height="119" viewBox="0 0 379 119" fill="none" xmlns="http://www.w3.org/2000/svg">
<g clip-path="url(#clip0)">
<path d="M12.1 118.6C13.3 118.6 14.5 118.6 15.7 118.6C17.1 118.6 18.4 118.6 19.8 118.6C22.8 118.6 25.9 118.5 28.9 118.5C38.5 118.3 48.1 118.2 57.7 118C62.3 117.9 66.9 117.9 71.5 117.8C81.8 117.6 92.1 117.5 102.4 117.3C107.8 117.2 113.2 117.2 118.6 117.1C125.1 117 131.6 117 138.1 116.8C144.3 116.6 150.6 116.7 156.8 116.6C170.5 116.4 184.2 116.4 197.9 116.4C201.5 116.4 205 116.4 208.6 116.4C222.5 116.3 236.3 116.3 250.2 116.1C258.2 116 266.1 116.1 274.1 115.9C282.1 115.7 290.2 115.8 298.2 115.7C305 115.6 311.9 115.6 318.7 115.4C328.1 115.2 337.5 115.2 346.9 115.2C352.5 115.2 358 115.2 363.6 115.2C366.3 115.2 369 115.1 371.6 115C373.4 115 374.4 113.5 373.7 111.8C373.3 110.8 373.5 110.4 374.6 110.1C375.8 109.7 375.7 108.6 375.7 107.7C375.7 107.1 375.5 106.5 376.5 106.7C377 106.8 376.9 106.3 377 106C377.4 104.3 377.5 102.6 377.7 100.9C377.9 99.2 378.1 97.5 378.9 95.9C378.9 95.2 378.9 94.5 378.9 93.7C377.8 94 377.6 93.5 377.8 92.5C378.1 91.7 377.9 91.2 376.8 91.2C374.8 91.2 372.9 91.1 370.9 91C367.6 90.9 364.4 90.6 361.1 90.8C358.6 91 356.2 91.3 353.7 91.5C348 91.9 342.4 92 336.7 91.8C335.6 91.8 335.2 91.6 335.6 90.5C335.8 89.7 335.6 89.3 334.6 89.4C332.8 89.5 331.1 89.5 329.3 89.5C322.5 89.6 315.7 89.7 308.9 89.9C308.1 89.9 307.9 89.7 308.1 88.9C308.3 88.2 308 88 307.3 88C306.3 88.1 305.2 88.1 304.2 88.1C297.8 88.2 291.5 88.2 285.1 88.3C278.8 88.5 272.5 88.4 266.2 88.5C258.6 88.7 251.1 88.7 243.5 88.7C227.1 88.9 210.6 88.9 194.2 89C159.7 89.1 125.3 88.9 90.8 89.2C76.2 89.3 61.7 89.2 47.1 89.4C34.1 89.6 21 89.5 7.99999 89.5C5.89999 89.5 3.99999 90.3 1.99999 90.3C1.79999 90.3 1.59999 90.4 1.49999 90.6C0.999992 91.9 0.299993 93.1 0.199993 94.5C0.0999925 96.5 0.199993 98.6 0.199993 100.6C0.199993 100.9 -7.45058e-06 101.4 0.499993 101.5C1.19999 101.7 1.09999 102.2 1.09999 102.8C1.09999 104.6 1.19999 106.3 2.29999 108C2.79999 108.8 3.79999 109.6 3.39999 110.9C3.39999 111 3.49999 111.1 3.59999 111.2C4.29999 112.5 5.39999 113.7 5.09999 115.4C4.99999 115.8 5.29999 116.3 5.69999 116.4C7.19999 116.7 7.59999 118.4 8.99999 118.9C9.19999 118.9 9.49999 118.9 9.69999 118.9C10.4 118.3 11.2 118.7 12.1 118.6Z" fill="#213E88"/>
<path d="M19.7 118.6C18.3 118.6 17 118.6 15.6 118.6C15.6 118.7 15.6 118.7 15.6 118.8C17 118.8 18.3 118.8 19.7 118.8C19.7 118.8 19.7 118.7 19.7 118.6Z" fill="#213E88"/>
<path d="M15.7 118.6C14.5 118.6 13.3 118.6 12.1 118.6C12.1 118.7 12.1 118.7 12.1 118.8C13.3 118.8 14.5 118.8 15.7 118.8C15.6 118.8 15.6 118.7 15.7 118.6Z" fill="#213E88"/>
<path d="M12.1 118.6C11.3 118.7 10.4 118.3 9.7 118.8C10.5 118.8 11.3 118.8 12.1 118.8C12 118.8 12 118.7 12.1 118.6Z" fill="#213E88"/>
<path d="M216.6 65.6C220.6 65.6 224.6 65.6 228.6 65.6C230.2 65.6 230.2 65.6 230.2 63.9C230 57.9 229.9 51.8 229.7 45.8C229.6 40.9 229.4 36 229.3 31.1C229.2 28.7 229.3 26.3 229.3 23.7C229.5 24.1 229.7 24.4 229.9 24.7C238 38 246 51.3 254 64.6C254.4 65.3 254.8 65.5 255.6 65.5C259.5 65.5 263.4 65.5 267.4 65.5C268.2 65.5 268.5 65.4 268.5 64.5C268.5 43.4 268.5 22.4 268.5 1.30001C268.5 0.500012 268.3 0.200012 267.4 0.200012C263.3 0.200012 259.2 0.200012 255 0.200012C254.1 0.200012 254 0.500012 254 1.30001C254.1 4.70001 254.2 8.10001 254.2 11.5C254.3 17.6 254.5 23.6 254.6 29.7C254.7 33.9 254.6 38.2 254.6 42.5C254.4 42.1 254.1 41.8 253.9 41.4C246 28 238.1 14.6 230.2 1.20001C229.8 0.500012 229.3 0.200012 228.4 0.200012C224.4 0.300012 220.4 0.200012 216.4 0.200012C215.6 0.200012 215.3 0.400012 215.3 1.20001C215.3 22.3 215.3 43.3 215.3 64.4C215.6 65.4 215.8 65.6 216.6 65.6Z" fill="#213E88"/>
<path d="M20.4 65.6C21.2 65.6 21.6 65.3 21.8 64.6C22.9 60.7 24.2 56.7 25.3 52.8C25.5 52 25.9 51.8 26.7 51.8C32.9 51.8 39.1 51.8 45.3 51.8C46.2 51.8 46.6 52.1 46.8 53C48 56.9 49.2 60.9 50.4 64.8C50.5 65.2 50.5 65.7 51.2 65.7C56.5 65.7 61.8 65.7 67 65.7C67 65.5 67 65.5 67 65.4C59.5 43.9 51.9 22.5 44.4 1.10002C44.1 0.400023 43.8 0.200023 43.1 0.300023C38.8 0.300023 34.5 0.300023 30.3 0.300023C27.4 0.300023 27.4 0.300022 26.5 3.00002C20.3 21 14.1 39 7.99999 56.9C6.99999 59.7 6.09999 62.6 5.09999 65.5C10.3 65.6 15.4 65.6 20.4 65.6ZM29.3 38.9C31.4 31 33.5 23.1 35.7 15.3C35.8 15.3 35.9 15.3 35.9 15.3C37.3 20.2 38.7 25.2 40.1 30.1C40.9 33 41.7 35.9 42.6 38.8C42.8 39.6 42.6 39.7 41.9 39.7C37.9 39.7 34 39.7 30 39.7C29.3 39.8 29.1 39.6 29.3 38.9Z" fill="#213E88"/>
<path d="M106.1 49C106.1 54.2 106.1 59.5 106.1 64.7C106.1 65.3 106.1 65.6 106.9 65.6C110.9 65.6 114.9 65.6 118.9 65.6C119.6 65.6 119.7 65.3 119.6 64.8C119.5 63.6 119.5 62.3 119.4 60.8C121.4 62.9 123.3 64.7 125.8 65.8C133.7 69.1 144 65.9 148.3 58.2C153.7 48.6 154.1 38.5 150.2 28.3C147.9 22.5 143.7 18.3 137.4 16.9C131.1 15.6 125 16.3 119.9 20.7C119.7 20.3 119.8 19.8 119.8 19.4C119.8 13.3 119.8 7.20001 119.8 1.20001C119.8 0.400012 119.6 0.200012 118.8 0.200012C115 0.200012 111.2 0.300012 107.4 0.200012C106.4 0.200012 106.2 0.400012 106.2 1.40001C106.1 17.3 106.1 33.1 106.1 49ZM120.5 34.1C122.2 29.4 126.6 26.9 131.5 27.9C134.3 28.5 136.1 30.3 137.3 32.8C138.9 36.4 139 40.2 138.6 44.1C138.4 46.4 137.9 48.7 136.8 50.8C135.2 53.9 132.7 55.6 129.2 55.7C125.9 55.7 123.3 54.3 121.5 51.5C119.7 48.5 119.4 45.2 119.5 41.6C119.4 39.1 119.6 36.5 120.5 34.1Z" fill="#213E88"/>
<path d="M346 66.4C352.3 67.6 358 66.6 362.6 61.3C362.6 62.5 362.7 63.5 362.6 64.5C362.5 65.3 362.7 65.6 363.6 65.6C367.4 65.5 371.1 65.6 374.9 65.6C375.7 65.6 375.9 65.4 375.9 64.6C375.9 43.5 375.9 22.4 375.9 1.29999C375.9 0.499988 375.7 0.299988 374.9 0.299988C371 0.299988 367.1 0.399988 363.1 0.299988C362.2 0.299988 361.9 0.499988 361.9 1.49999C361.9 7.49999 361.9 13.5 361.9 19.5C361.9 19.9 362 20.3 361.8 20.7C360.7 19.9 359.7 19.2 358.6 18.6C357.5 18 356.3 17.5 355.1 17.2C347 15.2 337.3 18.3 332.7 27.6C328.1 36.8 328.2 46.4 332.4 55.7C335.1 61.4 339.7 65.2 346 66.4ZM345.9 31.7C348 28.7 350.9 27.3 354.6 27.8C358 28.2 360.1 30.4 361.3 33.4C362.3 36 362.6 38.8 362.6 41.2C362.6 44.8 362.3 47.9 360.9 50.7C359.4 53.8 356.8 55.2 353.5 55.3C350.3 55.4 347.7 54.2 345.9 51.4C343.9 48.2 343.6 44.7 343.6 41.2C343.5 37.9 343.9 34.6 345.9 31.7Z" fill="#213E88"/>
<path d="M286.1 62.9C294.2 68.4 307 68.3 315.1 62.7C318.8 60.2 321.6 56.8 323.1 52.5C323.2 52.1 323.6 51.7 322.8 51.6C318.6 51.3 314.4 51 310.1 50.7C309.7 50.7 309.5 50.8 309.3 51.2C306.4 55.6 301.2 57.2 296.4 55C292.9 53.4 291.2 50.3 290.6 46.6C290.4 45.7 290.6 45.5 291.5 45.6C296.7 45.6 302 45.6 307.2 45.6C312.4 45.6 317.7 45.6 322.9 45.6C323.8 45.6 324 45.4 324 44.5C323.9 40.7 323.7 36.9 322.6 33.3C320.7 27 317.3 21.8 311.3 18.7C306.6 16.3 301.5 15.9 296.3 16.7C289.3 17.7 283.7 21.1 280 27.1C276 33.6 275.2 40.6 276.7 48C277.9 54.1 280.8 59.3 286.1 62.9ZM290.7 34.6C292.2 27.6 301.1 24.5 306.5 29.1C308.1 30.5 309 32.3 309.4 34.3C309.6 35.1 309.4 35.3 308.6 35.3C305.7 35.2 302.8 35.3 300 35.3C297.2 35.3 294.3 35.3 291.5 35.3C291 35.3 290.5 35.4 290.7 34.6Z" fill="#213E88"/>
<path d="M175.2 66.1C180.5 67.5 185.8 67.2 191 65.6C194.9 64.4 198.3 62.3 201.1 59.3C205.8 54.3 207.6 48.3 207.7 40.6C207.8 39.6 207.6 37.6 207.1 35.6C205.4 27.6 201.2 21.4 193.5 18.1C188.9 16.2 184.1 15.9 179.3 16.6C170.4 17.8 163.7 22.2 160.3 30.7C157.2 38.3 157.4 46.1 160.6 53.7C163.3 60.1 168.3 64.4 175.2 66.1ZM173.3 34.4C174.9 29.8 178.2 27.4 183 27.3C187.4 27.2 190.8 29.5 192.6 33.9C193.6 36.2 193.8 38.7 193.8 41.2C193.8 43.8 193.6 46.5 192.6 49C190.8 53.7 187.1 56.2 182.4 56C177.8 55.8 174.4 53 173.1 48.2C171.8 43.5 171.7 38.9 173.3 34.4Z" fill="#213E88"/>
<path d="M73.9 65.6C77.9 65.6 81.8 65.5 85.8 65.6C86.8 65.6 86.9 65.3 86.9 64.4C86.9 59 86.8 53.6 86.9 48.2C87 44.7 86.9 41.2 87.2 37.7C87.7 33.2 90.3 30.2 94.8 29.3C96.6 29 98.4 28.9 100.2 29.2C100.7 29.3 101 29.3 101 28.6C101 24.9 101 21.2 101 17.6C101 17.1 100.9 16.9 100.4 16.8C94.9 16.3 90.2 17.7 87.4 23.2C87.1 23.7 86.9 24.3 86.6 24.8C86.5 24.8 86.5 24.8 86.4 24.8C86.4 22.7 86.4 20.7 86.4 18.6C86.4 17.9 86.3 17.6 85.5 17.6C81.7 17.6 77.8 17.6 74 17.6C73.3 17.6 73 17.8 73 18.6C73 33.9 73 49.2 73 64.5C72.8 65.5 73.1 65.6 73.9 65.6Z" fill="#213E88"/>
</g>
<defs>
<clipPath id="clip0">
<rect width="378.8" height="118.8" fill="white"/>
</clipPath>
</defs>
</svg>
