<svg width="211" height="63" viewBox="0 0 211 63" fill="none" xmlns="http://www.w3.org/2000/svg">
<path d="M193.2 35.7V29.6H190.6V28.6H197.2V29.6H194.7V35.7H193.2Z" fill="#213E88"/>
<path d="M25.8 48.8L13.5 15.4H20.9L30.5 41.2L39.8 15.4H44.7L32.8 48.8H25.8Z" fill="#213E88"/>
<path d="M48.8 15.4H55.7V35.9C55.7 39.6 56.3 42 57.6 43.3C58.9 44.5 60.5 45.1 62.5 45.1C64.5 45.1 66 44.5 67.2 43.3C68.4 42.1 68.9 39.8 68.9 36.4V15.4H74.9V35.9C74.9 39.8 74.4 42.5 73.4 44.2C72.4 45.9 71 47.2 69.2 48.2C67.4 49.2 65 49.6 62.2 49.6C59.4 49.6 57.1 49.2 55.1 48.3C53.1 47.4 51.5 46.1 50.4 44.3C49.2 42.5 48.7 39.7 48.7 35.9V15.4H48.8Z" fill="#213E88"/>
<path d="M84.5 40.6V41.5L84.8 41.3C84.7 41.1 84.7 40.8 84.6 40.6H84.5Z" fill="#213E88"/>
<path d="M88.9 30.8C88.9 30.7 89 30.5 89.2 30.5C89.3 30.5 89.5 30.6 89.5 30.8C89.5 30.9 89.4 31.1 89.2 31.1C89 31.1 88.9 31 88.9 30.8Z" fill="#213E88"/>
<path d="M105.4 38.9C105 37.8 103.9 37.1 102.5 37.2C101.7 35.7 100.4 36.4 100 36.8C100.4 37.2 100.7 37.3 101.2 37.4V37.7C100.3 37.7 100 37.3 99.4 36.6C99.1 38.8 101.7 39.6 102.5 37.8C103.7 37.8 104.5 38.3 104.7 39.1C105 39.9 104.7 40.7 104.3 41.1C103.6 42 102.4 42 101.3 41.4C100.6 41.1 99.9 40.4 99.3 39.7C98.4 38.7 97.9 38.2 97.2 37.9C96.8 37.7 96.4 37.6 96.1 37.6C95.9 37.6 95.7 37.5 95.4 37.5C95.2 37.5 95 37.5 94.8 37.6C93.2 37.8 91.6 38.5 89.7 38.7H88.7C88.1 39.3 87.5 39.8 87 40.2L85.8 41.2C85.3 41.7 85 41.9 85 41.9C85.1 43 85.2 43.6 85.2 44.6C85.2 45.5 85.2 45.9 85.2 46.2C85.2 46.6 85.1 46.9 85 47.2C84.9 47.5 84.7 47.7 84.3 47.7C84 47.8 83.2 47.2 82.9 47.6C82.7 47.9 82.9 48.6 83.2 48.8H85.4C85.7 48.3 85.8 47.9 85.9 47.6C86.1 47.3 86.2 46.9 86.4 46.7C86.6 46.4 86.7 46.1 86.8 45.8C86.8 45.5 86.9 45.3 87 45.1C87.2 44.7 87.4 44.3 87.5 44.1C87.5 44 87.6 44 87.6 43.9C87.7 44 87.8 44.2 87.8 44.3C88.3 45.1 88.8 45.7 89.5 46C89.8 46.1 90 46.3 90.1 46.4C90.2 46.5 90.2 46.8 90.2 47.1C90.2 47.4 90.1 47.7 89.8 47.8C89.3 48 88.6 47.3 88.3 47.7C88 48 88.3 48.5 88.6 48.9H90.6C91.1 48.1 91.3 47.1 91.3 46.2C91.3 45.3 91.3 45.1 90.7 44.8C90.5 44.7 90.3 44.2 90.2 43.8C90.2 43.7 90.2 43.7 90.2 43.5C91.1 43.2 92.2 42.6 93.3 41.8C93.3 42 93.3 42.1 93.3 42.3C93.5 43.6 93.6 44.7 94.6 45.6C94.9 45.9 95.1 46.1 95.1 46.3C95.1 46.4 95 46.8 94.8 47C94.6 47.5 94.1 47.9 93.7 47.9C93.2 48 92.7 47.3 92.3 47.7C92 48 92.4 48.7 92.6 48.9H94.6C95.3 47.7 96.2 46.7 96.5 46C96.7 45.5 96.7 45.3 96.3 45.2C95.6 44.8 95.7 44 95.9 43.1C95.9 42.9 96 42.8 96.1 42.6C96.6 44 97.3 45.3 98.8 45.7C99.1 45.7 99.4 45.9 99.5 46C99.5 46.1 99.5 46.4 99.5 46.6C99.4 47 99.2 47.6 98.8 47.8C98.4 48.1 97.5 47.1 97.2 47.7C97 48.1 97.4 48.7 97.5 48.9H99.5C100 47.7 100.5 46.6 100.7 45.8C100.8 44.9 100.8 44.5 100.1 44.4C99.7 44.4 99.4 44.2 99.3 43.7C99 42.8 99.1 41.2 98.4 40.2C99.2 41.1 100 41.8 100.8 42.2C102.5 43.1 104.3 42.8 105.1 41.6C105.6 40.6 105.6 39.6 105.4 38.9Z" fill="#213E88"/>
<path d="M122.3 15.6C120.8 15.4 117.4 15.8 114.4 16.4C116.2 15.5 116.8 15.3 117.4 14.9C117.6 14.8 117.7 14.5 117.7 14.1C117.7 13.7 117.3 13.6 116.8 13.7C116.3 13.7 115.3 14.1 114 14.5C111.5 15.5 107.9 17.2 103.6 20.1C99.8 22.7 97.3 24.9 94.6 27.6C93.9 28.3 93.1 29.2 92.2 30.2C92.1 30 92 29.9 91.7 30C92.7 27.8 92.8 27.7 93.3 26.5C93.5 25.9 93.4 25.5 93.2 25.2C92.9 24.7 92.5 25 92.2 25.2C91.8 25.7 91.7 25.8 90.8 26.9C91.9 23.2 92.5 22.9 93.5 20.8C93.6 20.5 93.6 20.1 93.5 19.8C93.4 19.5 93.2 19.4 93 19.5C92.6 19.7 92.5 19.9 91.7 20.8C92.8 18.7 94.3 16.2 94.5 15.8C94.7 15.4 94.9 15.3 94.5 14.6C94.1 14 93.8 14.5 93.5 14.7C93.3 14.8 92.8 15.3 92.1 16.2C93.7 13.2 95.2 11.8 95.5 11.3C95.9 10.7 95.9 10.6 95.6 9.89999C95.3 9.29999 94.8 9.59999 94.6 9.89999C93.5 11 93.5 10.7 91.6 13C92.6 10.4 94.3 8.39999 94.9 7.39999C95.2 6.99999 95.2 6.79999 94.9 5.89999C94.8 5.49999 94.4 5.29999 94 5.29999C93.5 5.49999 93 5.79999 92 6.69999C89.9 8.59999 87.1 11.3 84.8 16.2C82.6 20.8 82.1 25.1 82.1 28.1C82.1 32.7 83.3 36.7 84.4 39.3C84.4 39.2 84.4 39.1 84.4 39C84.3 37.8 84.5 36.3 84.8 35.6C85.3 33.8 85.9 32.8 86.4 32L85.5 30.8L86.7 31.2L86 29.6C86 29.6 86.9 29.7 87.6 30.6C88 30.2 88.9 29.9 89.7 30.5C90.3 30.5 90.6 30.6 90.9 30.7C91.5 31.1 91.4 31.7 91.4 31.9C91.1 31.6 90.1 31 89.2 31.8L91 32.4L88.7 32.6V35L85.9 37.5V38.4L87.8 36.7V37.6L84.5 40.6V41.5L88.7 37.7L89.8 36.8C90.4 36.3 90.7 36 91.1 35.8C91.5 35.5 91.6 35.8 91.7 36.3C91.8 36.7 92.3 37.1 93.3 36.2C96.2 33.5 99.3 32.1 102.6 30.5C100.8 31.7 97.6 33.5 96.5 34.7C96 35.3 96.5 36.6 97.3 36C98.7 35.1 100.5 34.9 101.5 35C101.9 35 102.4 34.7 102.7 34.3C103 34 103 33.6 102.4 33.6C105.4 32.7 106.2 32.4 108.7 32.2C109.4 32.2 109.8 31.8 109.9 31.2C110 30.7 109.8 30.5 109.1 30.5C108.4 30.4 107.1 30.6 105.8 30.8C108.7 29.6 112.2 28.9 115 28.1C115.9 27.8 116 27.6 116 27.1C116.1 26.5 115.7 26.5 114.7 26.5C112.7 26.6 109.7 26.8 105.1 28.1C109.4 25.9 111.9 24.9 115.8 23.9C116.9 23.6 117 23.3 117.1 22.8C117.3 22.2 116.8 22.2 116.4 22.2C115.8 22.2 114.5 22.2 111.8 23C114.4 21.9 117.3 20.5 119.3 19.9C119.7 19.7 120 19.5 120 19C120 18.6 119.9 18.6 119.5 18.6C118.6 18.6 117.2 18.9 115.5 19.4C119 17.9 120.1 17.4 122.5 17C123.3 16.8 123.4 16.6 123.5 16.1C123.2 15.6 122.8 15.6 122.3 15.6ZM87.2 27.6C87.2 27.3 87 27.1 86.8 27C87.3 25.7 87.8 24.8 88.8 23.4C87.9 25.2 87.5 26.8 87.2 27.6ZM84 26.5C84.7 19 88.1 13.5 90.4 10.9C87.1 15.9 85.2 22.8 84 26.5ZM96.5 28.7C100.9 24.5 106.9 20.1 114.5 18.3C108.1 20.5 99.3 26.5 96.5 28.7Z" fill="#213E88"/>
<path d="M131.9 22.7L129.3 15.5H130.9L132.9 21.1L134.9 15.5H136L133.4 22.7H131.9Z" fill="#213E88"/>
<path d="M138.3 18.8H138.6C139.2 18.8 139.6 18.7 139.9 18.4C140.1 18.1 140.3 17.8 140.3 17.5C140.3 17.2 140.2 17 140 16.8C139.8 16.6 139.4 16.5 138.8 16.5H138.3V18.8V18.8ZM136.9 22.7V15.6H139.6C140.1 15.6 140.6 15.7 140.8 15.8C141.1 15.9 141.3 16.1 141.5 16.4C141.7 16.7 141.7 17 141.7 17.3C141.7 17.7 141.6 18.1 141.3 18.5C141.1 18.9 140.7 19.2 140.3 19.4L142.6 22.7H140.8L139 19.8H138.2V22.7H136.9V22.7Z" fill="#213E88"/>
<path d="M145.2 15.5H143.7V22.6H145.2V15.5Z" fill="#213E88"/>
<path d="M145.8 23.9V22.8C146.2 23 146.6 23 147 23C147.2 23 147.3 23 147.5 22.9C147.6 22.8 147.7 22.7 147.8 22.6C147.9 22.5 147.9 22.2 147.9 21.7V15.4H149.4V21.5C149.4 22.2 149.3 22.7 149.2 23C149 23.3 148.8 23.6 148.5 23.7C148.2 23.9 147.7 24 147.2 24C146.6 24.1 146.2 24.1 145.8 23.9Z" fill="#213E88"/>
<path d="M151.1 22.7V15.5H155.7V16.5H152.6V18.5H155.2V19.5H152.6V21.7H155.9V22.7H151.1Z" fill="#213E88"/>
<path d="M130 28.6H131.5V33C131.5 33.8 131.6 34.3 131.9 34.6C132.2 34.9 132.5 35 132.9 35C133.3 35 133.7 34.9 133.9 34.6C134.1 34.3 134.3 33.9 134.3 33.1V28.6H135.6V33C135.6 33.8 135.5 34.4 135.3 34.8C135.1 35.2 134.8 35.4 134.4 35.6C134 35.8 133.5 35.9 132.9 35.9C132.3 35.9 131.8 35.8 131.4 35.6C131 35.4 130.6 35.1 130.4 34.7C130.2 34.3 130 33.7 130 32.9V28.6Z" fill="#213E88"/>
<path d="M137.4 35.7V28.6H138.7L142 33.5V28.6H143.2V35.7H141.9L138.6 30.9V35.7H137.4Z" fill="#213E88"/>
<path d="M146.6 28.6H145.1V35.7H146.6V28.6Z" fill="#213E88"/>
<path d="M150.2 35.7L147.6 28.6H149.2L151.2 34.1L153.2 28.6H154.3L151.7 35.7H150.2Z" fill="#213E88"/>
<path d="M155.1 35.7V28.6H159.6V29.6H156.6V31.6H159.1V32.5H156.6V34.7H159.9V35.7H155.1Z" fill="#213E88"/>
<path d="M162.5 31.8H162.8C163.4 31.8 163.8 31.7 164.1 31.4C164.3 31.1 164.5 30.8 164.5 30.5C164.5 30.2 164.4 30 164.2 29.8C164 29.6 163.6 29.5 163 29.5H162.5V31.8V31.8ZM161.1 35.7V28.6H163.8C164.3 28.6 164.8 28.7 165 28.8C165.3 28.9 165.5 29.1 165.7 29.4C165.9 29.7 165.9 30 165.9 30.3C165.9 30.7 165.8 31.1 165.5 31.5C165.3 31.9 164.9 32.2 164.5 32.3L166.8 35.6H165L163.2 32.7H162.4V35.6H161.1V35.7Z" fill="#213E88"/>
<path d="M167.3 35.7V34.5C167.9 34.7 168.3 34.9 168.6 34.9C168.9 34.9 169.1 35 169.4 35C169.8 35 170.1 34.9 170.3 34.7C170.5 34.5 170.6 34.3 170.6 34C170.6 33.8 170.5 33.6 170.4 33.5C170.3 33.3 170 33.1 169.6 32.9L169.1 32.6C168.4 32.2 167.9 31.9 167.7 31.5C167.5 31.2 167.3 30.8 167.3 30.4C167.3 29.9 167.5 29.4 167.9 29C168.3 28.6 168.9 28.4 169.7 28.4C170.3 28.4 170.9 28.5 171.6 28.6V29.7C170.9 29.4 170.3 29.3 169.8 29.3C169.4 29.3 169.2 29.4 169 29.5C168.8 29.7 168.7 29.8 168.7 30.1C168.7 30.3 168.8 30.4 168.9 30.6C169 30.7 169.3 30.9 169.7 31.2L170.2 31.5C171 31.9 171.5 32.3 171.7 32.6C171.9 32.9 172 33.3 172 33.7C172 34.3 171.8 34.8 171.3 35.2C170.9 35.6 170.1 35.8 169.2 35.8C168.8 35.9 168.1 35.8 167.3 35.7Z" fill="#213E88"/>
<path d="M174.9 28.6H173.4V35.7H174.9V28.6Z" fill="#213E88"/>
<path d="M178 35.7V29.6H175.4V28.6H182V29.6H179.4V35.7H178Z" fill="#213E88"/>
<path d="M182.6 35.7V28.6H187.1V29.6H184V31.6H186.6V32.5H184V34.7H187.4V35.7H182.6Z" fill="#213E88"/>
<path d="M190.1 28.6H188.6V35.7H190.1V28.6Z" fill="#213E88"/>
<path d="M131.5 45.9H133.7L132.6 43.1L131.5 45.9ZM129.3 48.8L132.1 41.7H133.6L136.4 48.8H134.9L134.2 46.9H131.2L130.5 48.8H129.3Z" fill="#213E88"/>
<path d="M137.3 48.8V41.6H139.2L141 46.7L142.7 41.6H144.5V48.8H143.1V43.4L141.3 48.3H140.1L138.4 43.3V48.8H137.3Z" fill="#213E88"/>
<path d="M145.9 48.7V47.5C146.5 47.7 146.9 47.9 147.1 47.9C147.4 47.9 147.6 48 147.9 48C148.3 48 148.6 47.9 148.8 47.7C149 47.5 149.1 47.3 149.1 47C149.1 46.8 149 46.6 148.9 46.5C148.8 46.3 148.5 46.1 148.1 45.9L147.6 45.6C146.9 45.2 146.4 44.9 146.2 44.5C146 44.2 145.8 43.8 145.8 43.4C145.8 42.9 146 42.4 146.4 42C146.8 41.6 147.4 41.4 148.2 41.4C148.8 41.4 149.4 41.5 150.1 41.6V42.7C149.4 42.4 148.8 42.3 148.3 42.3C147.9 42.3 147.7 42.4 147.5 42.5C147.3 42.7 147.2 42.8 147.2 43.1C147.2 43.3 147.3 43.4 147.4 43.6C147.5 43.7 147.8 43.9 148.2 44.2L148.7 44.5C149.5 44.9 150 45.3 150.2 45.7C150.4 46 150.5 46.4 150.5 46.8C150.5 47.4 150.3 47.9 149.8 48.3C149.4 48.7 148.6 48.9 147.7 48.9C147.4 48.9 146.7 48.9 145.9 48.7Z" fill="#213E88"/>
<path d="M153.2 48.8V42.6H150.7V41.6H157.3V42.6H154.7V48.8H153.2Z" fill="#213E88"/>
<path d="M157.9 48.8V41.6H162.4V42.6H159.4V44.6H161.9V45.6H159.4V47.8H162.7V48.8H157.9Z" fill="#213E88"/>
<path d="M165.2 44.9H165.5C166.1 44.9 166.5 44.8 166.8 44.5C167 44.2 167.1 43.9 167.1 43.6C167.1 43.3 167 43.1 166.8 42.9C166.6 42.7 166.2 42.6 165.6 42.6H165.1V44.9H165.2ZM163.8 48.8V41.7H166.5C167 41.7 167.5 41.8 167.8 41.9C168.1 42 168.3 42.2 168.5 42.5C168.7 42.8 168.8 43.1 168.8 43.4C168.8 43.8 168.7 44.2 168.4 44.6C168.2 45 167.8 45.3 167.4 45.5L169.7 48.8H167.9L166.1 45.9H165.3V48.8H163.8Z" fill="#213E88"/>
<path d="M171.9 47.8H173C173.6 47.8 174 47.7 174.3 47.5C174.6 47.3 174.8 47 175 46.6C175.2 46.2 175.3 45.7 175.3 45.2C175.3 44.7 175.2 44.2 175 43.9C174.8 43.5 174.6 43.2 174.3 43C174 42.8 173.5 42.7 172.7 42.7H171.8V47.8H171.9ZM170.4 48.8V41.7H173.5C174.3 41.7 175 41.8 175.4 42.1C175.9 42.4 176.2 42.8 176.5 43.3C176.8 43.8 176.9 44.4 176.9 45.2C176.9 45.9 176.8 46.5 176.5 47.1C176.2 47.7 175.9 48.1 175.4 48.4C174.9 48.7 174.2 48.9 173.4 48.9H170.4V48.8Z" fill="#213E88"/>
<path d="M179.2 45.9H181.4L180.3 43.1L179.2 45.9ZM177 48.8L179.8 41.7H181.3L184.1 48.8H182.6L181.9 46.9H178.9L178.2 48.8H177Z" fill="#213E88"/>
<path d="M184.8 48.8V41.6H186.8L188.5 46.7L190.3 41.6H192V48.8H190.6V43.4L188.9 48.3H187.7L186 43.3V48.8H184.8Z" fill="#213E88"/>
</svg>
