<svg width="221" height="62" viewBox="0 0 221 62" fill="none" xmlns="http://www.w3.org/2000/svg">
<path fill-rule="evenodd" clip-rule="evenodd" d="M6.449 48.362H3.87C1.733 48.362 0 46.629 0 44.492V17.326C0 15.189 1.733 13.456 3.87 13.456H6.025C8.162 13.456 9.895 15.189 9.895 17.326V44.916C9.895 46.819 8.352 48.362 6.449 48.362" fill="#213E88"/>
<path fill-rule="evenodd" clip-rule="evenodd" d="M60.804 61.818H58.225C56.088 61.818 54.355 60.085 54.355 57.948V3.87C54.355 1.733 56.088 0 58.225 0H60.38C62.517 0 64.25 1.733 64.25 3.87V58.372C64.25 60.275 62.707 61.818 60.804 61.818" fill="#213E88"/>
<path fill-rule="evenodd" clip-rule="evenodd" d="M24.5673 61.818H21.9883C19.8513 61.818 18.1183 60.085 18.1183 57.948V3.87C18.1183 1.733 19.8513 0 21.9883 0H24.1433C26.2803 0 28.0133 1.733 28.0133 3.87V58.372C28.0133 60.275 26.4703 61.818 24.5673 61.818" fill="#213E88"/>
<path fill-rule="evenodd" clip-rule="evenodd" d="M78.9223 48.362H76.3433C74.2063 48.362 72.4733 46.629 72.4733 44.492V17.326C72.4733 15.189 74.2063 13.456 76.3433 13.456H78.4983C80.6353 13.456 82.3683 15.189 82.3683 17.326V44.916C82.3683 46.819 80.8253 48.362 78.9223 48.362" fill="#213E88"/>
<path fill-rule="evenodd" clip-rule="evenodd" d="M42.6856 49.4567H40.1066C37.9696 49.4567 36.2366 47.7237 36.2366 45.5867V19.1917C36.2366 17.0537 37.9696 15.3217 40.1066 15.3217H42.2616C44.3986 15.3217 46.1316 17.0537 46.1316 19.1917V46.0107C46.1316 47.9137 44.5886 49.4567 42.6856 49.4567" fill="#213E88"/>
<path fill-rule="evenodd" clip-rule="evenodd" d="M125.981 33.8609L123.942 29.4329H123.915L121.902 33.8609H125.981ZM114.951 39.6039L123.351 21.5429C123.432 21.3819 123.62 21.2479 123.807 21.2479H124.076C124.263 21.2479 124.451 21.3819 124.532 21.5429L132.932 39.6039C133.093 39.9529 132.878 40.3019 132.476 40.3019H129.497C129.014 40.3019 128.799 40.1409 128.557 39.6309L127.591 37.5109H120.292L119.326 39.6579C119.192 39.9799 118.896 40.3019 118.36 40.3019H115.407C115.005 40.3019 114.79 39.9529 114.951 39.6039V39.6039Z" fill="#213E88"/>
<path fill-rule="evenodd" clip-rule="evenodd" d="M154.024 21.2478C156.708 21.2478 158.694 22.0798 160.519 23.7438C160.76 23.9588 160.76 24.2798 160.545 24.4948L158.452 26.6688C158.264 26.8568 157.969 26.8568 157.781 26.6688C156.788 25.7828 155.473 25.2998 154.158 25.2998C151.126 25.2998 148.898 27.8228 148.898 30.8288C148.898 33.8068 151.153 36.2758 154.185 36.2758C155.446 36.2758 156.815 35.8198 157.781 34.9878C157.969 34.8268 158.318 34.8268 158.479 35.0148L160.572 37.2418C160.76 37.4298 160.733 37.7788 160.545 37.9668C158.72 39.7378 156.413 40.5698 154.024 40.5698C148.657 40.5698 144.336 36.3028 144.336 30.9358C144.336 25.5688 148.657 21.2478 154.024 21.2478" fill="#213E88"/>
<path fill-rule="evenodd" clip-rule="evenodd" d="M176.352 21.6772C176.379 21.4352 176.62 21.2482 176.835 21.2482H177.264C177.399 21.2482 177.64 21.3552 177.721 21.5162L183.947 33.1092H184L190.226 21.5162C190.307 21.3552 190.548 21.2482 190.683 21.2482H191.112C191.327 21.2482 191.568 21.4352 191.595 21.6772L194.628 39.7112C194.681 40.0602 194.44 40.3012 194.118 40.3012H190.951C190.709 40.3012 190.468 40.0872 190.441 39.8722L189.233 31.5802H189.18L184.671 40.2752C184.591 40.4362 184.349 40.5702 184.215 40.5702H183.732C183.571 40.5702 183.356 40.4362 183.276 40.2752L178.741 31.5802H178.687L177.506 39.8722C177.479 40.0872 177.264 40.3012 176.996 40.3012H173.829C173.507 40.3012 173.266 40.0602 173.32 39.7112L176.352 21.6772Z" fill="#213E88"/>
<path fill-rule="evenodd" clip-rule="evenodd" d="M208.797 22.0261C208.797 21.7581 209.012 21.5161 209.307 21.5161H220.417C220.712 21.5161 220.927 21.7581 220.927 22.0261V24.9511C220.927 25.2191 220.712 25.4611 220.417 25.4611H212.983V28.7891H219.102C219.371 28.7891 219.612 29.0301 219.612 29.2991V32.2241C219.612 32.5191 219.371 32.7341 219.102 32.7341H212.983V36.3571H220.417C220.712 36.3571 220.927 36.5981 220.927 36.8661V39.7921C220.927 40.0601 220.712 40.3021 220.417 40.3021H209.307C209.012 40.3021 208.797 40.0601 208.797 39.7921V22.0261Z" fill="#213E88"/>
</svg>
