<svg width="798" height="154" viewBox="0 0 798 154" fill="none" xmlns="http://www.w3.org/2000/svg">
<path d="M24.4241 146.968H5.31421V88.9142H24.4241C44.6419 88.9142 55.4778 98.7911 55.4778 117.901C55.4778 136.848 46.4768 146.968 24.4241 146.968ZM23.0394 97.7456H16.7733V138.133H22.9009C38.6874 138.455 43.7765 130.748 43.7765 117.981C43.7765 103.929 36.4717 97.7456 23.0394 97.7456Z" fill="#213E88"/>
<path d="M72.9952 122.478C73.3068 117.178 75.9033 112.279 81.8925 112.279C87.7085 112.279 90.5819 116.613 90.3396 122.478H72.9952ZM82.2386 105.455C66.9715 105.455 61.6747 116.295 61.6747 126.49C61.6747 138.617 67.7677 147.688 80.7846 148.089C91.1358 148.172 100.31 145.039 100.933 133.719H90.3396C90.3396 138.295 86.6353 141.266 82.3079 141.266C75.0032 141.266 72.6837 135.886 72.5798 129.301L101.833 129.222C102.699 117.178 97.4712 105.455 82.2386 105.455Z" fill="#213E88"/>
<path d="M148.812 146.968H137.872L137.803 140.383C135.968 145.6 130.879 148.252 124.648 148.252C117.239 148.252 110.246 143.755 110.177 132.995V106.899H121.255V131.468C121.186 137.25 123.436 140.463 128.871 140.542C133.787 140.542 137.803 137.731 137.803 129.945V106.899H148.812V146.968Z" fill="#213E88"/>
<path d="M163.006 107.062V100.716L173.703 95.0973V107.062H183.916V114.848H173.703V134.2C173.703 138.133 175.053 140.383 179.069 140.542C180.593 140.542 181.977 140.702 183.985 140.141V147.047C178.758 147.771 172.734 149.135 167.749 146.483C163.975 144.478 163.006 140.944 163.006 135.325V114.848H154.42V107.062H163.006Z" fill="#213E88"/>
<path d="M225.494 129.703C227.26 133.238 227.19 137.894 225.009 141.107C221.236 146.885 213.031 148.332 206.696 148.172C197.695 147.608 189.698 145.282 190.078 134.522H201.018C200.914 139.178 203.822 140.864 207.977 141.023C211.993 141.023 216.008 139.659 216.008 135.966C216.008 132.995 213.204 131.711 209.604 130.908C205.484 130.025 202.541 129.623 197.937 127.775C194.267 126.009 190.632 123.039 190.632 117.42C190.632 112.76 194.267 109.229 199.01 107.301C202.195 105.937 206.142 105.535 209.535 105.535C217.151 105.535 225.425 108.183 224.94 117.818H214.658C214.658 116.374 214.347 114.768 213.135 113.806C210.885 111.798 203.961 111.555 201.814 114.848C199.391 120.47 206.869 120.871 215.143 123.118C220.37 124.323 223.902 126.49 225.494 129.703Z" fill="#213E88"/>
<path d="M252.878 105.372C261.637 105.372 270.707 109.388 270.707 120.39L259.94 120.307C259.94 115.17 257.136 112.037 251.839 112.279C250.455 112.359 249.001 112.84 247.824 113.484C244.5 115.412 243.462 120.792 243.462 126.172C243.462 131.87 244.846 137.413 247.339 139.417C249.001 141.023 251.978 141.508 254.54 141.023C258.798 140.303 260.079 136.125 260.183 132.514L270.707 132.434C270.846 143.914 261.464 148.252 251.666 148.089C238.58 147.608 232.556 139.099 232.556 126.49C232.556 113.726 239.861 105.372 252.878 105.372Z" fill="#213E88"/>
<path d="M279.189 88.9938H290.267V113.241C293.175 108.104 297.503 105.857 303.353 105.857C310.762 105.857 317.755 111.396 317.755 119.345V146.968H306.815V122.395C306.815 116.935 304.496 113.324 299.268 113.324C294.387 113.324 290.198 116.534 290.198 123.921V146.968H279.189V88.9938Z" fill="#213E88"/>
<path d="M337.661 122.478C337.973 117.178 340.535 112.279 346.558 112.279C352.34 112.279 355.248 116.613 355.006 122.478H337.661ZM346.905 105.455C331.637 105.455 326.341 116.295 326.341 126.49C326.341 138.617 332.434 147.688 345.451 148.089C355.802 148.172 364.976 145.039 365.599 133.719H355.006C355.006 138.295 351.301 141.266 346.974 141.266C339.669 141.266 337.35 135.886 337.246 129.301L366.499 129.222C367.365 117.178 362.137 105.455 346.905 105.455Z" fill="#213E88"/>
<path d="M434.803 145.282C431.064 146.483 426.218 146.968 421.025 146.968H400.045V89.0735H422.375C432.345 89.0735 442.766 92.2065 443.181 103.368C443.424 110.434 438.612 114.927 432.588 116.935C437.227 118.14 441 119.504 443.562 123.842C445.812 127.695 445.985 132.836 444.151 137.091C442.212 141.107 439.235 143.755 434.803 145.282ZM422.375 97.7457H411.054V112.76H422.548C428.572 112.76 431.688 110.271 431.688 105.372C431.688 100.796 428.087 97.7457 422.375 97.7457ZM423.517 121.432L411.054 121.353V138.375H423.102C431.134 138.375 433.696 134.439 433.696 129.544C433.696 125.77 430.961 121.353 423.517 121.432Z" fill="#213E88"/>
<path d="M469.838 141.186C465.753 140.864 463.33 138.856 463.33 135.003C463.399 126.573 474.096 127.456 479.636 127.456C479.878 134.12 479.324 141.023 469.838 141.186ZM490.16 117.901C490.16 109.71 481.332 105.615 471.119 105.694C461.391 105.857 454.329 108.987 454.19 118.382H464.853C464.611 114.045 467.588 111.798 471.535 111.718C477.455 111.718 480.12 114.446 479.566 121.193C473.681 121.512 465.822 121.11 459.972 123.842C455.714 125.85 452.425 129.623 452.425 135.644C452.425 143.353 457.791 148.01 465.649 148.252C471.292 148.813 477.697 146.324 480.19 141.107L480.605 146.968H490.16C490.16 137.25 490.16 127.695 490.16 117.901Z" fill="#213E88"/>
<path d="M500.823 106.899H511.901V113.324C514.809 108.104 520.106 105.857 526.06 105.857C532.707 105.857 539.527 109.71 539.527 119.345V146.968H528.449V122.395C528.518 117.178 525.956 113.324 520.902 113.324C515.917 113.324 511.832 116.534 511.832 123.921V146.968H500.823V106.899Z" fill="#213E88"/>
<path d="M578.301 146.968L561.441 124.001L576.708 106.899H589.725L573.904 123.599L592.53 146.968H578.301ZM550.225 88.9938H561.13V146.968H550.225V88.9938Z" fill="#213E88"/>
<path d="M651.279 5.30817H792.284V146.884H651.279V5.30817ZM736.962 38.8406L681.883 112.764H706.774L762.061 38.8406H736.962ZM670.908 127.276H772.655V24.9201H670.908V127.276Z" fill="#213E88"/>
</svg>
