<svg width="166" height="77" viewBox="0 0 166 77" fill="none" xmlns="http://www.w3.org/2000/svg">
<path fill-rule="evenodd" clip-rule="evenodd" d="M88.5817 48.1754C90.2407 48.1754 91.8167 46.9314 92.3147 46.1014V43.4474C92.0657 43.2814 90.9037 42.7834 89.4107 42.7834C87.4207 42.7834 86.0517 43.8204 86.0517 45.5214C86.0517 47.0144 87.0467 48.1754 88.5817 48.1754M89.0797 40.2124C90.8207 40.2124 92.3557 40.7104 92.3557 40.7104C92.3967 38.0974 91.8997 37.0604 89.7837 37.0604C87.8767 37.0604 86.0097 37.5584 85.1387 37.8064C84.6417 37.9314 84.3517 37.5994 84.2267 37.1434L83.8947 35.6084C83.7707 35.0694 84.0607 34.7794 84.4337 34.6544C84.7247 34.5304 87.0887 33.7004 90.1577 33.7004C95.4667 33.7004 95.9637 36.9354 95.9637 41.0834V49.9174C95.9637 50.3324 95.5907 50.7054 95.1757 50.7054H94.0147C93.6417 50.7054 93.4757 50.5394 93.3097 50.1244L92.8947 49.0044C91.9827 49.8764 90.3647 51.1194 87.7937 51.1194C84.6827 51.1194 82.4437 49.0044 82.4437 45.5624C82.4437 42.5344 84.8487 40.2124 89.0797 40.2124" fill="#213E88"/>
<path fill-rule="evenodd" clip-rule="evenodd" d="M108.654 33.7007C111.184 33.7007 113.133 34.7377 114.668 36.6447C114.958 37.0187 114.875 37.5167 114.502 37.8067L113.133 39.0507C112.635 39.5067 112.345 39.1757 112.014 38.8847C111.267 38.0557 110.064 37.3087 108.696 37.3087C106 37.3087 103.884 39.5897 103.884 42.4107C103.884 45.2717 105.958 47.5537 108.654 47.5537C110.769 47.5537 111.64 46.4747 112.511 45.6457C112.884 45.2717 113.257 45.2717 113.631 45.5627L114.75 46.4747C115.166 46.8067 115.331 47.2217 115.041 47.6367C113.714 49.7517 111.474 51.1197 108.612 51.1197C103.967 51.1197 99.9442 47.4287 99.9442 42.4517C99.9442 37.5577 104.05 33.7007 108.654 33.7007" fill="#213E88"/>
<path fill-rule="evenodd" clip-rule="evenodd" d="M119.188 34.9036C119.188 34.4886 119.561 34.1156 119.976 34.1156H121.137C121.511 34.1156 121.718 34.3226 121.842 34.6126L122.299 36.0236C122.672 35.6496 124.58 33.7006 127.773 33.7006C130.179 33.7006 131.921 34.6546 133.124 36.3546C133.58 35.8986 135.985 33.7006 139.137 33.7006C144.197 33.7006 145.98 37.2676 145.98 41.5806V49.9166C145.98 50.3316 145.649 50.7056 145.192 50.7056H142.87C142.414 50.7056 142.082 50.3316 142.082 49.9166V41.4156C142.082 38.8016 140.879 37.3086 138.639 37.3086C136.109 37.3086 134.658 39.0926 134.367 39.3406C134.45 39.7146 134.492 40.5026 134.492 41.3326V49.9166C134.492 50.3316 134.119 50.7056 133.704 50.7056H131.506C131.05 50.7056 130.718 50.3316 130.718 49.9166V41.4156C130.718 38.7606 129.515 37.3086 127.193 37.3086C124.704 37.3086 123.294 39.2586 123.087 39.7976V49.9166C123.087 50.3316 122.713 50.7056 122.299 50.7056H119.976C119.561 50.7056 119.188 50.3316 119.188 49.9166V34.9036Z" fill="#213E88"/>
<path fill-rule="evenodd" clip-rule="evenodd" d="M162.03 40.5854C161.906 38.5944 160.247 36.8944 158.215 36.8944C155.975 36.8944 154.233 38.5114 153.984 40.5854H162.03ZM158.256 33.7004C162.569 33.7004 165.887 36.9354 165.887 41.3734C165.887 41.6634 165.846 42.2034 165.804 42.4934C165.763 42.9084 165.431 43.1984 165.058 43.1984H153.777C153.901 45.4384 155.85 47.6364 158.546 47.6364C160.039 47.6364 161.408 46.9724 162.238 46.4334C162.735 46.1434 163.026 45.9774 163.357 46.3914L164.519 47.9674C164.809 48.3004 164.933 48.6314 164.436 49.0464C163.233 50.0834 161.076 51.1194 158.297 51.1194C153.279 51.1194 149.961 47.1804 149.961 42.4104C149.961 37.7234 153.279 33.7004 158.256 33.7004V33.7004Z" fill="#213E88"/>
<mask id="mask0" mask-type="alpha" maskUnits="userSpaceOnUse" x="0" y="0" width="63" height="77">
<path fill-rule="evenodd" clip-rule="evenodd" d="M62.187 0H0L0 76.7469H62.187V0V0Z" fill="white"/>
</mask>
<g mask="url(#mask0)">
<path fill-rule="evenodd" clip-rule="evenodd" d="M56.355 54.8219C56.355 60.1639 51.985 64.5339 46.643 64.5339H15.544C10.202 64.5339 5.832 60.1639 5.832 54.8219V28.0389C5.832 25.6159 7.814 23.6339 10.237 23.6339H51.95C54.373 23.6339 56.355 25.6159 56.355 28.0389V54.8219ZM56.486 17.3779H36.553L46.725 3.59687C47.465 2.59387 47.252 1.18087 46.249 0.44087C45.246 -0.29913 43.833 -0.0871297 43.093 0.91587L30.943 17.3779H30.271L22.356 9.46287C21.475 8.58087 20.046 8.58087 19.164 9.46287C18.283 10.3439 18.283 11.7729 19.164 12.6539L23.888 17.3779H5.701C2.565 17.3779 0 19.9429 0 23.0789V56.1429C0 64.1989 6.591 70.7899 14.647 70.7899H22.632L19.948 72.5539C18.906 73.2379 18.617 74.6379 19.301 75.6789C19.986 76.7209 21.384 77.0109 22.426 76.3269L30.853 70.7899H31.331L39.808 76.3749C40.19 76.6269 40.621 76.7469 41.047 76.7469C41.781 76.7469 42.5 76.3899 42.934 75.7309C43.62 74.6909 43.332 73.2909 42.291 72.6049L39.536 70.7899H47.54C55.596 70.7899 62.187 64.1989 62.187 56.1429V23.0789C62.187 19.9429 59.622 17.3779 56.486 17.3779V17.3779Z" fill="#213E88"/>
</g>
</svg>
