<svg width="109" height="75" viewBox="0 0 109 75" fill="none" xmlns="http://www.w3.org/2000/svg">
<path d="M41.3126 68.2853H42.1093L40.1745 69.9924V64.6434H38.3536V65.4401H39.1502V72.1548H38.2398V72.9514H40.7435V72.1548H40.0607V70.22L41.9954 72.1548H41.3126V72.9514H43.8164V72.1548H43.2473L41.3126 70.22L43.2473 68.2853H43.8164V67.4886H41.3126V68.2853ZM31.2974 32.6631C31.4112 31.8665 32.2079 31.1836 33.1184 31.1836C34.0288 31.1836 34.9393 31.8665 34.9393 32.6631H31.2974ZM33.1184 30.387C31.6388 30.387 30.387 31.6388 30.387 33.1184C30.387 34.7117 31.6388 35.8498 33.1184 35.8498C34.3703 35.8498 35.5083 35.1669 35.8498 34.2564H34.9393C34.5979 34.8255 34.0288 35.1669 33.2322 35.1669C32.4355 35.1669 31.6388 34.5979 31.525 33.5736H36.0774C35.8498 31.7527 34.7117 30.387 33.1184 30.387ZM56.6768 57.3596C56.7906 56.4492 57.5873 55.8801 58.4977 55.8801C59.4082 55.8801 60.3187 56.563 60.3187 57.3596H56.6768ZM58.4977 55.0835C57.0182 55.0835 55.7663 56.2216 55.7663 57.8149C55.7663 59.4082 57.0182 60.5463 58.4977 60.5463C59.7496 60.5463 60.8877 59.8634 61.2291 58.953H60.3187C59.9772 59.522 59.4082 59.8634 58.6115 59.8634C57.8149 59.8634 57.0182 59.2944 56.9044 58.2701H61.4568C61.2291 56.4492 60.091 55.0835 58.4977 55.0835ZM36.7602 57.8149C36.7602 56.7906 37.3293 55.8801 38.4674 55.8801C39.264 55.8801 40.1745 56.563 40.1745 57.8149C40.1745 59.0668 39.3778 59.7496 38.4674 59.7496C37.3293 59.7496 36.7602 58.8392 36.7602 57.8149ZM40.1745 59.6358V60.4325H41.8816V59.6358H40.9712V55.8801H41.8816V55.0835H40.1745V55.8801C39.8331 55.3111 39.0364 54.9697 38.3536 54.9697C36.7602 54.9697 35.736 56.1077 35.736 57.7011C35.736 59.2944 36.7602 60.4325 38.3536 60.4325C39.0364 60.5463 39.8331 60.2049 40.1745 59.6358ZM54.4006 47.3445V48.1411H57.0182V47.3445H56.2215V44.2716C56.2215 43.2473 55.4249 42.7921 54.6282 42.7921C53.9454 42.7921 53.1487 43.2473 52.8073 43.7026V39.8331H50.9863V40.6297H51.8968V47.3445H50.9863V48.1411H53.7178V47.3445H52.8073V44.3854C53.3763 43.9302 53.8316 43.475 54.6282 43.475C55.0835 43.475 55.3111 43.8164 55.3111 44.3854V47.2307H54.4006V47.3445ZM56.9044 68.5129V67.4886H55.0835V68.2853H55.9939V72.041H55.0835V72.8376H57.9287V72.041H56.9044V70.22C56.9044 68.8543 57.2458 68.3991 58.8391 68.2853V67.3748C58.0425 67.3748 57.2458 67.7162 56.9044 68.5129ZM31.1836 69.651C31.2974 68.8543 32.0941 68.1715 33.0046 68.1715C33.915 68.1715 34.8255 68.8543 34.8255 69.651H31.1836ZM33.0046 67.3748C31.525 67.3748 30.2731 68.5129 30.2731 70.1062C30.2731 71.6995 31.525 72.8376 33.0046 72.8376C34.2564 72.8376 35.3945 72.1548 35.736 71.2443H34.8255C34.4841 71.8134 33.915 72.1548 33.1184 72.1548C32.3217 72.1548 31.525 71.5857 31.4112 70.5615H35.9636C35.736 68.7405 34.5979 67.3748 33.0046 67.3748ZM47.5721 69.651C47.6859 68.8543 48.4826 68.1715 49.393 68.1715C50.3035 68.1715 51.214 68.8543 51.214 69.651H47.5721ZM49.2792 67.3748C47.7997 67.3748 46.5478 68.5129 46.5478 70.1062C46.5478 71.6995 47.7997 72.8376 49.2792 72.8376C50.5311 72.8376 51.6692 72.1548 52.0106 71.2443H51.1002C50.7587 71.8134 50.1897 72.1548 49.393 72.1548C48.5964 72.1548 47.7997 71.5857 47.6859 70.5615H52.2382C52.0106 68.7405 50.9863 67.3748 49.2792 67.3748ZM52.2382 52.2382H50.4173V53.0349H51.3278V59.7496H50.4173V60.5463H53.1487V59.7496H52.2382V52.2382ZM48.2549 47.003L47.6859 46.434C47.2307 46.8892 46.6616 47.3445 45.8649 47.3445C44.8407 47.3445 44.2716 46.5478 44.2716 45.4097C44.2716 44.2716 44.9545 43.475 45.8649 43.475C46.5478 43.475 47.2306 43.9302 47.3445 44.613H48.0273V42.7921H47.2307V43.3612C46.8892 42.9059 46.3202 42.6783 45.7511 42.6783C44.044 42.6783 43.1335 43.8164 43.1335 45.4097C43.1335 47.003 44.044 48.1411 45.7511 48.1411C46.8892 48.2549 47.6859 47.7997 48.2549 47.003ZM18.0956 68.5129V67.4886H16.2747V68.2853H17.0713V72.041H16.1609V72.8376H19.0061V72.041H17.9818V70.22C17.9818 68.8543 18.3232 68.3991 19.9165 68.2853V67.3748C19.2337 67.3748 18.437 67.7162 18.0956 68.5129ZM14.3399 47.4583C13.2018 47.4583 12.6328 46.5478 12.6328 45.5235C12.6328 44.4992 13.2018 43.5888 14.3399 43.5888C15.1366 43.5888 16.047 44.2716 16.047 45.5235C16.047 46.6616 15.2504 47.4583 14.3399 47.4583ZM16.047 47.3445V48.1411H17.7542V47.3445H16.8437V43.5888H17.7542V42.7921H16.047V43.5888C15.7056 43.0197 14.909 42.6783 14.2261 42.6783C12.6328 42.6783 11.6085 43.8164 11.6085 45.4097C11.6085 46.8892 12.6328 48.1411 14.2261 48.1411C14.909 48.2549 15.7056 47.7997 16.047 47.3445ZM18.5508 59.7496C17.4127 59.7496 16.7299 58.953 16.7299 57.8149C16.7299 56.6768 17.4127 55.8801 18.5508 55.8801C19.6889 55.8801 20.3718 56.6768 20.3718 57.8149C20.3718 58.953 19.6889 59.7496 18.5508 59.7496ZM18.5508 55.0835C16.9575 55.0835 15.7056 56.1077 15.7056 57.8149C15.7056 59.522 16.8437 60.5463 18.5508 60.5463C20.258 60.5463 21.3961 59.522 21.3961 57.8149C21.3961 56.1077 20.1442 55.0835 18.5508 55.0835ZM8.99089 69.651C9.1047 68.8543 9.90137 68.1715 10.8118 68.1715C11.7223 68.1715 12.6328 68.8543 12.6328 69.651H8.99089ZM10.8118 67.3748C9.33232 67.3748 8.08043 68.5129 8.08043 70.1062C8.08043 71.6995 9.33232 72.8376 10.8118 72.8376C12.0637 72.8376 13.2018 72.1548 13.5432 71.2443H12.519C12.1775 71.8134 11.6085 72.1548 10.8118 72.1548C10.0152 72.1548 9.21851 71.5857 9.1047 70.5615H13.6571C13.5432 68.7405 12.4052 67.3748 10.8118 67.3748ZM30.7284 46.8892C30.7284 48.0273 30.956 48.2549 31.8665 48.2549C32.0941 48.2549 32.4355 48.2549 32.6631 48.1411V47.3445C32.5493 47.3445 32.3217 47.3445 32.2079 47.3445C31.8665 47.3445 31.7527 47.3445 31.7527 46.5478V43.5888H32.7769V42.7921H31.7527V40.9712H30.7284V42.7921H29.8179V43.5888H30.7284V46.8892ZM30.387 11.3809C30.7284 11.3809 31.0698 11.0395 31.0698 10.698C31.0698 10.2428 30.7284 10.0152 30.387 10.0152C30.0455 10.0152 29.7041 10.3566 29.7041 10.698C29.7041 11.0395 29.9317 11.3809 30.387 11.3809ZM26.4036 72.041H24.0137L27.2003 68.2853V67.4886H22.8756V69.1958H23.786V68.2853H25.9484L22.7618 72.041V72.8376H27.3141V70.9029H26.4036V72.041ZM27.5417 19.5751C27.5417 18.5508 26.7451 18.0956 25.9484 18.0956C25.2656 18.0956 24.4689 18.5508 24.1275 19.0061V18.2094H22.3065V19.0061H23.217V22.7618H22.3065V23.5584H25.0379V22.7618H24.1275V19.8027C24.6965 19.3475 25.1517 18.8923 25.9484 18.8923C26.4036 18.8923 26.6313 19.3475 26.6313 19.8027V22.648H25.7208V23.4446H28.3384V22.648H27.5417V19.5751ZM25.9484 56.2215V55.1973H24.1275V55.9939H25.0379V59.7496H24.1275V60.5463H26.9727V59.7496H25.9484V57.9287C25.9484 56.563 26.2898 56.1077 27.8832 55.9939V55.0835C26.9727 55.0835 26.2898 55.3111 25.9484 56.2215ZM73.1791 68.8543C73.1791 67.83 72.3824 67.3748 71.5857 67.3748C70.9029 67.3748 70.1062 67.83 69.7648 68.2853V67.4886H67.9438V68.2853H68.8543V72.041H67.9438V72.8376H70.5615V72.041H69.651V69.0819C70.22 68.6267 70.6753 68.1715 71.4719 68.1715C71.9272 68.1715 72.1548 68.5129 72.1548 69.0819V71.9272H71.2443V72.7238H73.9757V71.9272H73.1791V68.8543ZM88.7709 22.7618C87.6328 22.7618 87.0637 21.7375 87.0637 20.827C87.0637 19.8027 87.6328 18.8923 88.7709 18.8923C89.5675 18.8923 90.478 19.5751 90.478 20.827C90.478 22.0789 89.6813 22.7618 88.7709 22.7618ZM92.2989 23.4446V22.648H91.5023V15.2504H89.5675V16.047H90.5918V19.0061C90.2504 18.437 89.4537 18.0956 88.8847 18.0956C87.2913 18.0956 86.2671 19.3475 86.2671 20.827C86.2671 22.4203 87.2913 23.5584 88.8847 23.5584C89.5675 23.5584 90.2504 23.217 90.7056 22.648V23.4446H92.2989V23.4446ZM85.4704 35.2807C85.9256 35.736 86.6085 35.9636 87.2913 35.9636C88.3156 35.9636 89.3399 35.5083 89.3399 34.3703C89.3399 32.0941 85.5842 33.346 85.5842 31.9803C85.5842 31.4112 86.1533 31.2974 86.8361 31.2974C87.1775 31.2974 87.4052 31.4112 87.6328 31.525C87.8604 31.6388 88.088 31.9803 88.2018 32.2079H88.9985V30.6146H88.2018V31.0698C87.7466 30.7284 87.1775 30.5008 86.6085 30.5008C85.698 30.5008 84.6737 30.956 84.6737 31.9803C84.6737 34.4841 88.4294 33.1184 88.4294 34.3703C88.4294 35.0531 87.6328 35.1669 87.1775 35.1669C86.6085 35.1669 85.698 34.8255 85.4704 34.1426H84.6737V35.8498H85.4704V35.2807V35.2807ZM88.4294 41.085C88.4294 40.6297 88.088 40.4021 87.7466 40.4021C87.4052 40.4021 87.0637 40.7435 87.0637 41.085C87.0637 41.5402 87.4052 41.7678 87.7466 41.7678C88.088 41.7678 88.4294 41.4264 88.4294 41.085ZM86.4947 47.3445V48.1411H89.2261V47.3445H88.3156V42.9059H86.4947V43.7026H87.4052V47.4583H86.4947V47.3445ZM85.9256 69.651C86.0395 68.8543 86.8361 68.1715 87.7466 68.1715C88.6571 68.1715 89.5675 68.8543 89.5675 69.651H85.9256ZM87.7466 67.3748C86.2671 67.3748 85.0152 68.5129 85.0152 70.1062C85.0152 71.6995 86.2671 72.8376 87.7466 72.8376C88.9985 72.8376 90.1366 72.1548 90.478 71.2443H89.5675C89.2261 71.8134 88.6571 72.1548 87.8604 72.1548C87.0637 72.1548 86.2671 71.5857 86.1533 70.5615H90.7056C90.478 68.7405 89.3399 67.3748 87.7466 67.3748ZM93.8923 48.0273V42.9059H91.9575V43.7026H92.868V48.4825C92.868 49.1654 92.5266 49.6206 91.7299 49.6206V50.5311C93.437 50.3035 93.8923 49.6206 93.8923 48.0273ZM105.387 18.8923C106.297 18.8923 107.208 19.5751 107.208 20.3718H103.566C103.68 19.5751 104.476 18.8923 105.387 18.8923ZM105.273 22.7618C104.476 22.7618 103.68 22.1927 103.566 21.1684H108.118C108.118 19.4613 106.98 18.0956 105.387 18.0956C103.907 18.0956 102.656 19.2337 102.656 20.827C102.656 22.4203 103.907 23.5584 105.387 23.5584C106.639 23.5584 107.777 22.8756 108.118 21.9651H107.208C106.753 22.4203 106.07 22.7618 105.273 22.7618ZM98.1032 68.8543C98.1032 67.83 97.3065 67.3748 96.5099 67.3748C95.827 67.3748 95.0303 67.83 94.6889 68.2853V67.4886H92.868V68.2853H93.7785V72.041H92.868V72.8376H95.5994V72.041H94.6889V69.0819C95.258 68.6267 95.7132 68.1715 96.5099 68.1715C96.9651 68.1715 97.1927 68.5129 97.1927 69.0819V71.9272H96.2822V72.7238H98.8998V71.9272H98.1032V68.8543ZM96.1684 19.5751C96.1684 19.0061 96.7375 18.8923 97.4203 18.8923C97.7618 18.8923 97.9894 19.0061 98.217 19.1199C98.4446 19.2337 98.6722 19.5751 98.786 19.8027H99.5827V18.2094H98.786V18.6646C98.3308 18.3232 97.7618 18.0956 97.1927 18.0956C96.2822 18.0956 95.258 18.5508 95.258 19.5751C95.258 22.0789 99.0137 20.7132 99.0137 21.9651C99.0137 22.648 98.217 22.7618 97.7618 22.7618C97.1927 22.7618 96.2822 22.4203 96.0546 21.7375H95.258V23.4446H96.0546V22.8756C96.5099 23.3308 97.1927 23.5584 97.8756 23.5584C98.8998 23.5584 99.9241 23.1032 99.9241 21.9651C99.8103 19.6889 96.1684 20.9408 96.1684 19.5751ZM78.3005 35.1669C77.1624 35.1669 76.5933 34.1426 76.5933 33.2322C76.5933 31.8665 77.39 31.2974 78.3005 31.2974C79.3247 31.2974 80.0076 32.0941 80.0076 33.2322C80.0076 34.3703 78.9833 35.1669 78.3005 35.1669ZM80.9181 35.5083V31.2974H81.8285V30.5008H80.0076V31.2974C79.5524 30.7284 78.8695 30.387 78.1866 30.387C76.4795 30.387 75.569 31.8665 75.569 33.1184C75.569 34.4841 76.3657 35.8498 78.1866 35.8498C79.0971 35.8498 79.8938 35.2807 79.8938 34.9393V35.5083C79.8938 36.7602 79.2109 37.2155 78.1866 37.2155C77.6176 37.2155 76.9347 36.9879 76.7071 36.4188H75.569C75.9105 37.5569 77.0486 38.0121 78.0728 38.0121C80.0076 38.1259 80.9181 37.3293 80.9181 35.5083ZM69.4234 35.0531H68.5129V32.0941C69.0819 31.6388 69.5372 31.1836 70.3338 31.1836C70.7891 31.1836 71.0167 31.6388 71.0167 32.0941V34.9393H70.1062V35.736H72.8376V34.9393H72.041V31.8665C72.041 30.8422 71.2443 30.387 70.4476 30.387C69.7648 30.387 68.9681 30.8422 68.6267 31.2974V30.5008H66.8058V31.2974H67.7162V35.0531H66.8058V35.8498H69.4234V35.0531ZM10.5842 55.8801C11.7223 55.8801 12.4052 56.6768 12.4052 57.8149C12.4052 58.953 11.7223 59.7496 10.5842 59.7496C9.44613 59.7496 8.76328 58.953 8.76328 57.8149C8.76328 56.6768 9.44613 55.8801 10.5842 55.8801ZM10.5842 60.5463C12.2913 60.5463 13.4294 59.522 13.4294 57.8149C13.4294 56.1077 12.1775 55.0835 10.5842 55.0835C8.99089 55.0835 7.739 56.1077 7.739 57.8149C7.739 59.522 8.87709 60.5463 10.5842 60.5463ZM82.739 19.5751C82.739 18.5508 81.9423 18.0956 81.1457 18.0956C80.4628 18.0956 79.6662 18.5508 79.3247 19.0061V18.2094H77.39V19.0061H78.3005V22.7618H77.39V23.5584H80.1214V22.7618H79.2109V19.8027C79.78 19.3475 80.2352 18.8923 81.0319 18.8923C81.4871 18.8923 81.7147 19.3475 81.7147 19.8027V22.648H80.8042V23.4446H83.4219V22.648H82.6252V19.5751H82.739ZM62.2534 47.4583C61.1153 47.4583 60.5463 46.5478 60.5463 45.5235C60.5463 44.4992 61.1153 43.5888 62.2534 43.5888C63.0501 43.5888 63.9605 44.2716 63.9605 45.5235C63.9605 46.6616 63.1639 47.4583 62.2534 47.4583ZM63.9605 43.5888C63.6191 43.0197 62.8225 42.6783 62.1396 42.6783C60.5463 42.6783 59.522 43.8164 59.522 45.4097C59.522 46.8892 60.5463 48.1411 62.1396 48.1411C62.8225 48.1411 63.5053 47.7997 63.9605 47.2307V48.0273H65.6677V47.2307H64.871V43.475H65.7815V42.6783H64.0744V43.5888H63.9605ZM63.8467 65.6677C63.8467 65.2124 63.5053 64.9848 63.1639 64.9848C62.8225 64.9848 62.481 65.3262 62.481 65.6677C62.481 66.1229 62.8225 66.3505 63.1639 66.3505C63.5053 66.3505 63.8467 66.1229 63.8467 65.6677ZM72.041 47.4583C71.1305 47.4583 70.4476 46.6616 70.4476 45.5235C70.4476 44.3854 71.1305 43.5888 72.041 43.5888C73.0653 43.5888 73.7481 44.613 73.7481 45.5235C73.7481 46.434 73.0653 47.4583 72.041 47.4583ZM72.2686 42.6783C71.4719 42.6783 70.9029 42.9059 70.3338 43.5888V42.7921H68.5129V43.5888H69.4234V49.7344H68.5129V50.5311H71.3581V49.7344H70.3338V47.4583C70.6753 48.0273 71.3581 48.2549 72.1548 48.2549C73.4067 48.2549 74.6586 47.1168 74.6586 45.5235C74.7724 43.9302 73.6343 42.6783 72.2686 42.6783ZM80.8042 47.4583C79.8938 47.4583 79.2109 46.6616 79.2109 45.5235C79.2109 44.3854 79.8938 43.5888 80.8042 43.5888C81.8285 43.5888 82.5114 44.613 82.5114 45.5235C82.5114 46.434 81.8285 47.4583 80.8042 47.4583ZM81.0319 42.6783C80.2352 42.6783 79.6662 42.9059 79.0971 43.5888V42.7921H77.2762V43.5888H78.1866V49.7344H77.2762V50.5311H80.1214V49.7344H79.0971V47.4583C79.4385 48.0273 80.1214 48.2549 80.9181 48.2549C82.17 48.2549 83.4219 47.1168 83.4219 45.5235C83.5357 43.9302 82.3976 42.6783 81.0319 42.6783ZM79.2109 72.041C78.0728 72.041 77.5038 71.0167 77.5038 70.1062C77.5038 68.7405 78.3005 68.1715 79.2109 68.1715C80.2352 68.1715 80.9181 68.9681 80.9181 70.1062C80.8042 71.3581 79.8938 72.041 79.2109 72.041ZM80.9181 68.2853C80.4628 67.7162 79.78 67.3748 79.0971 67.3748C77.39 67.3748 76.4795 68.8543 76.4795 70.1062C76.4795 71.4719 77.2762 72.8376 79.0971 72.8376C80.0076 72.8376 80.8042 72.2686 80.8042 71.9272V72.4962C80.8042 73.7481 80.1214 74.2033 79.0971 74.2033C78.5281 74.2033 77.8452 73.9757 77.6176 73.4067H76.4795C76.8209 74.5448 77.959 75 78.9833 75C80.8042 75 81.7147 74.2033 81.7147 72.3824V68.2853H82.6252V67.4886H80.8042V68.2853H80.9181ZM63.8467 67.4886H62.0258V68.2853H62.9363V72.041H62.0258V72.8376H64.7572V72.041H63.8467V67.4886ZM47.5721 59.6358H46.6616V52.2382H44.8407V53.0349H45.7511V59.7496H44.8407V60.5463H47.5721V59.6358ZM36.6464 47.5721C37.1017 48.0273 37.7845 48.2549 38.4674 48.2549C39.4917 48.2549 40.5159 47.7997 40.5159 46.6616C40.5159 44.3854 36.7602 45.6373 36.7602 44.2716C36.7602 43.7026 37.3293 43.5888 38.0121 43.5888C38.3536 43.5888 38.5812 43.7026 38.8088 43.8164C39.0364 43.9302 39.264 44.1578 39.3778 44.4992H40.1745V42.9059H39.3778V43.3612C38.9226 43.0197 38.3536 42.7921 37.7845 42.7921C36.8741 42.7921 35.8498 43.2473 35.8498 44.2716C35.8498 46.7754 39.6055 45.4097 39.6055 46.6616C39.6055 47.3445 38.8088 47.4583 38.3536 47.4583C37.7845 47.4583 36.8741 47.2307 36.6464 46.434H35.8498V48.1411H36.6464V47.5721ZM47.1168 32.6631C47.2307 31.8665 48.0273 31.1836 48.9378 31.1836C49.8483 31.1836 50.7587 31.8665 50.7587 32.6631H47.1168ZM48.9378 30.387C47.4583 30.387 46.2064 31.6388 46.2064 33.1184C46.2064 34.7117 47.4583 35.8498 48.9378 35.8498C50.1897 35.8498 51.3278 35.1669 51.6692 34.2564H50.7587C50.4173 34.8255 49.8483 35.1669 49.0516 35.1669C48.2549 35.1669 47.4583 34.5979 47.3445 33.5736H51.8968C51.6692 31.7527 50.5311 30.387 48.9378 30.387ZM41.9954 22.7618C40.8574 22.7618 40.2883 21.7375 40.2883 20.827C40.2883 19.8027 40.8574 18.8923 41.9954 18.8923C42.7921 18.8923 43.7026 19.5751 43.7026 20.827C43.7026 22.0789 42.7921 22.7618 41.9954 22.7618ZM45.4097 22.648H44.613V15.2504H42.6783V16.047H43.7026V19.0061C43.3612 18.437 42.5645 18.0956 41.9954 18.0956C40.4021 18.0956 39.3778 19.3475 39.3778 20.827C39.3778 22.4203 40.4021 23.5584 41.9954 23.5584C42.6783 23.5584 43.3612 23.217 43.8164 22.648V23.4446H45.5235V22.648H45.4097ZM19.8027 31.2974V30.387C18.8923 30.387 18.2094 30.7284 17.7542 31.525V30.5008H15.9332V31.2974H16.8437V35.0531H15.9332V35.8498H18.7785V35.0531H17.7542V33.2322C17.7542 31.8665 18.2094 31.4112 19.8027 31.2974ZM43.8164 31.2974V30.5008H41.3126V31.2974H41.9954L40.0607 32.8907V27.5417H38.2398V28.3384H39.0364V35.0531H38.1259V35.8498H40.6297V35.0531H39.9469V33.1184L41.8816 35.0531H41.1988V35.8498H43.7026V35.0531H43.2473L41.3126 33.0046L43.2473 31.2974H43.8164ZM20.4856 9.90137C20.1442 9.90137 19.8027 10.2428 19.8027 10.5842C19.8027 11.0395 20.1442 11.2671 20.4856 11.2671C20.827 11.2671 21.1684 10.9256 21.1684 10.5842C21.2822 10.2428 20.9408 9.90137 20.4856 9.90137ZM22.648 35.736H27.0865V33.8012H26.176V34.9393H23.8998L27.0865 31.1836V30.387H22.7618V32.0941H23.6722V31.0698H25.8346L22.648 34.8255V35.736ZM27.997 6.82853V5.91806C27.0865 5.91806 26.4036 6.25948 25.9484 7.05615V6.03187H24.1275V6.82853H25.0379V10.5842H24.1275V11.3809H26.9727V10.5842H25.9484V8.76328C25.9484 7.39757 26.4036 6.94234 27.997 6.82853ZM23.3308 43.475C24.1275 43.475 25.0379 44.1578 25.0379 45.4097C25.0379 46.6616 24.2413 47.3445 23.3308 47.3445C22.1927 47.3445 21.6237 46.434 21.6237 45.4097C21.6237 44.4992 22.0789 43.475 23.3308 43.475ZM20.5994 45.4097C20.5994 46.8892 21.6237 48.1411 23.217 48.1411C23.8998 48.1411 24.5827 47.7997 25.0379 47.2307V48.0273H26.7451V47.2307H25.8346V43.475H26.7451V42.6783H25.0379V43.475C24.6965 42.9059 23.8998 42.5645 23.217 42.5645C21.6237 42.6783 20.5994 43.9302 20.5994 45.4097ZM31.8665 20.3718C31.9803 19.5751 32.7769 18.8923 33.6874 18.8923C34.5979 18.8923 35.5083 19.5751 35.5083 20.3718H31.8665ZM33.6874 18.0956C32.2079 18.0956 30.956 19.2337 30.956 20.827C30.956 22.4203 32.2079 23.5584 33.6874 23.5584C34.9393 23.5584 36.0774 22.8756 36.4188 21.9651H35.5083C35.1669 22.5341 34.5979 22.8756 33.8012 22.8756C33.0046 22.8756 32.2079 22.3065 32.0941 21.2822H36.6464C36.4188 19.4613 35.2807 18.0956 33.6874 18.0956ZM61.3429 35.0531V35.8498H64.0744V35.0531H63.1639V30.6146H61.4568V31.4112H62.3672V35.1669H61.3429V35.0531ZM48.824 20.3718C48.9378 19.5751 49.7344 18.8923 50.6449 18.8923C51.5554 18.8923 52.4659 19.5751 52.4659 20.3718H48.824ZM50.6449 18.0956C49.1654 18.0956 47.9135 19.2337 47.9135 20.827C47.9135 22.4203 49.1654 23.5584 50.6449 23.5584C51.8968 23.5584 53.0349 22.8756 53.3763 21.9651H52.352C52.0106 22.5341 51.4416 22.8756 50.6449 22.8756C49.8483 22.8756 49.0516 22.3065 48.9378 21.2822H53.4901C53.3763 19.4613 52.2382 18.0956 50.6449 18.0956ZM42.6783 10.8118H76.5933V10.0152H43.0197L33.1184 0H0.113809V0.796662H32.7769L42.6783 10.8118ZM93.0956 41.7678C93.437 41.7678 93.7785 41.4264 93.7785 41.085C93.7785 40.6297 93.437 40.4021 93.0956 40.4021C92.7542 40.4021 92.4127 40.7435 92.4127 41.085C92.4127 41.4264 92.7542 41.7678 93.0956 41.7678ZM71.1305 22.7618C69.9924 22.7618 69.4234 21.8513 69.4234 20.827C69.4234 19.8027 69.9924 18.8923 71.1305 18.8923C71.9272 18.8923 72.8376 19.5751 72.8376 20.827C72.8376 22.0789 71.9272 22.7618 71.1305 22.7618ZM74.5448 19.0061V18.2094H72.8376V19.0061C72.4962 18.437 71.6995 18.0956 71.0167 18.0956C69.4234 18.0956 68.3991 19.2337 68.3991 20.827C68.3991 22.3065 69.4234 23.5584 71.0167 23.5584C71.6995 23.5584 72.3824 23.217 72.8376 22.648V23.4446H74.5448V22.648H73.6343V18.8923H74.5448V19.0061ZM58.3839 31.2974V30.387C57.4734 30.387 56.7906 30.7284 56.3354 31.525V30.5008H54.6282V31.2974H55.5387V35.0531H54.6282V35.8498H57.4734V35.0531H56.4492V33.2322C56.4492 31.8665 56.7906 31.4112 58.3839 31.2974ZM59.9772 18.8923V17.9818C59.0668 17.9818 58.3839 18.3232 57.9287 19.1199V18.2094H56.1077V19.0061H57.0182V22.7618H56.1077V23.5584H58.953V22.7618H57.9287V20.9408C57.9287 19.5751 58.3839 19.0061 59.9772 18.8923ZM65.6677 22.648H64.871V15.2504H63.0501V16.047H63.9605V22.7618H63.0501V23.5584H65.7815V22.648H65.6677ZM63.2777 28.6798C63.2777 28.2246 62.9363 27.997 62.5948 27.997C62.2534 27.997 61.912 28.3384 61.912 28.6798C61.912 29.1351 62.2534 29.3627 62.5948 29.3627C62.9363 29.4765 63.2777 29.1351 63.2777 28.6798ZM9.44613 20.3718C9.55994 19.5751 10.3566 18.8923 11.2671 18.8923C12.1775 18.8923 13.088 19.5751 13.088 20.3718H9.44613ZM11.2671 18.0956C9.78756 18.0956 8.53566 19.2337 8.53566 20.827C8.53566 22.4203 9.78756 23.5584 11.2671 23.5584C12.519 23.5584 13.6571 22.8756 13.9985 21.9651H13.088C12.7466 22.5341 12.1775 22.8756 11.3809 22.8756C10.5842 22.8756 9.78756 22.3065 9.67375 21.2822H14.2261C13.9985 19.4613 12.9742 18.0956 11.2671 18.0956ZM2.84522 22.7618C1.70713 22.7618 1.13809 21.7375 1.13809 20.827C1.13809 19.8027 1.70713 18.8923 2.84522 18.8923C3.64188 18.8923 4.55235 19.5751 4.55235 20.827C4.55235 22.0789 3.64188 22.7618 2.84522 22.7618ZM6.25948 23.4446V22.648H5.46282V15.2504H3.52807V16.047H4.55235V19.0061C4.21093 18.437 3.41426 18.0956 2.84522 18.0956C1.2519 18.0956 0.227617 19.3475 0.227617 20.827C0.227617 22.4203 1.2519 23.5584 2.84522 23.5584C3.52807 23.5584 4.21093 23.217 4.66616 22.648V23.4446H6.25948V23.4446ZM10.129 10.5842C10.129 10.129 9.78756 9.90137 9.44613 9.90137C9.1047 9.90137 8.76328 10.2428 8.76328 10.5842C8.76328 11.0395 9.1047 11.2671 9.44613 11.2671C9.78756 11.3809 10.129 11.0395 10.129 10.5842ZM2.84522 6.71472C3.64188 6.71472 4.55235 7.39757 4.55235 8.64947C4.55235 9.90136 3.75569 10.5842 2.84522 10.5842C1.70713 10.5842 1.13809 9.67375 1.13809 8.64947C1.13809 7.62519 1.59332 6.71472 2.84522 6.71472ZM2.73141 11.3809C3.41426 11.3809 4.09712 11.0395 4.55235 10.4704V11.2671H6.25948V10.4704H5.34901V6.82853H6.25948V6.03187H4.55235V6.82853C4.21093 6.25948 3.41426 5.91806 2.73141 5.91806C1.13809 5.91806 0.113809 7.05614 0.113809 8.64947C0.113809 10.2428 1.13809 11.3809 2.73141 11.3809ZM17.4127 9.78755C17.4127 7.51138 13.6571 8.76328 13.6571 7.39757C13.6571 6.82853 14.2261 6.71472 14.909 6.71472C15.2504 6.71472 15.478 6.82853 15.7056 6.94233C15.9332 7.05614 16.1608 7.28376 16.2747 7.62519H17.0713V6.03187H16.2747V6.4871C15.8194 6.14568 15.2504 5.91806 14.6813 5.91806C13.7709 5.91806 12.7466 6.37329 12.7466 7.39757C12.7466 9.90137 16.5023 8.53566 16.5023 9.78755C16.5023 10.4704 15.7056 10.5842 15.2504 10.5842C14.6813 10.5842 13.7709 10.2428 13.5432 9.55994H12.7466V11.2671H13.5432V10.698C13.9985 11.1533 14.6813 11.3809 15.3642 11.3809C16.3885 11.3809 17.4127 10.9256 17.4127 9.78755ZM6.82853 47.3445V48.1411H9.33232V47.3445H8.64947V44.613C8.64947 43.7026 8.19423 42.6783 7.16995 42.6783C6.37329 42.6783 5.80425 43.0197 5.23521 43.5888C5.00759 43.0197 4.43854 42.6783 3.75569 42.6783C3.18665 42.6783 2.50379 43.1335 2.04856 43.475V42.7921H0.227617V43.5888H1.02428V47.3445H0.227617V48.1411H2.84522V47.3445H2.04856V44.3854C2.27618 44.044 2.95903 43.475 3.41426 43.475C4.09712 43.475 4.32473 43.8164 4.32473 44.4992V47.3445H3.52807V48.1411H6.03187V47.3445H5.23521V44.3854C5.46282 44.044 6.14568 43.475 6.60091 43.475C7.28376 43.475 7.51138 43.8164 7.51138 44.4992V47.3445H6.82853V47.3445ZM3.41426 68.2853H4.21093L2.84522 71.3581L1.70713 68.2853H2.50379V67.4886H0V68.2853H0.682853L2.50379 72.7238H3.18665L5.1214 68.2853H5.80425V67.4886H3.41426V68.2853ZM2.50379 35.736H3.18665L5.1214 31.2974H5.80425V30.5008H3.41426V31.2974H4.21093L2.84522 34.3703L1.70713 31.2974H2.50379V30.5008H0V31.2974H0.682853L2.50379 35.736ZM3.41426 55.8801H4.21093L2.84522 58.953L1.70713 55.8801H2.50379V55.0835H0V55.8801H0.682853L2.50379 60.3187H3.18665L5.1214 55.8801H5.80425V55.0835H3.41426V55.8801ZM8.87709 32.6631C8.9909 31.8665 9.78756 31.1836 10.698 31.1836C11.6085 31.1836 12.519 31.8665 12.519 32.6631H8.87709ZM10.698 30.387C9.21851 30.387 7.96662 31.6388 7.96662 33.1184C7.96662 34.7117 9.21851 35.8498 10.698 35.8498C11.9499 35.8498 13.088 35.1669 13.4294 34.2564H12.519C12.1775 34.8255 11.6085 35.1669 10.8118 35.1669C10.0152 35.1669 9.21851 34.5979 9.1047 33.5736H13.6571C13.4294 31.7527 12.2913 30.387 10.698 30.387Z" fill="#213E88"/>
</svg>
