<svg width="252" height="83" viewBox="0 0 252 83" fill="none" xmlns="http://www.w3.org/2000/svg">
<path d="M232.827 67.2532L232.959 66.7277C233.835 63.6187 236.506 61.5606 239.615 61.5606C243.074 61.5606 245.395 63.4435 246.008 66.7715L246.096 67.2532H232.827ZM240.009 57.5757C233.265 57.5757 228.23 62.6991 228.23 69.4864C228.23 76.2738 233.353 81.3971 240.14 81.3971C243.731 81.3971 247.147 79.9959 249.292 77.675L246.315 74.5222C245.264 75.5731 243.206 77.062 240.096 77.062C236.287 77.062 233.397 74.6536 232.827 71.0191L232.74 70.5374H251V69.5302C250.65 62.1298 246.446 57.5757 240.009 57.5757" fill="#213E88"/>
<path d="M114.728 67.2532L114.859 66.7277C115.735 63.6187 118.406 61.5606 121.515 61.5606C124.975 61.5606 127.295 63.4435 127.908 66.7715L127.996 67.2532H114.728ZM121.909 57.5757C115.166 57.5757 110.13 62.6991 110.13 69.4864C110.13 76.2738 115.253 81.3971 122.041 81.3971C125.631 81.3971 129.047 79.9959 131.193 77.675L128.215 74.5222C127.164 75.5731 125.106 77.062 121.997 77.062C118.187 77.062 115.297 74.6536 114.728 71.0191L114.64 70.5374H132.9V69.5302C132.55 62.1298 128.346 57.5757 121.909 57.5757" fill="#213E88"/>
<path d="M200.599 47.4604C198.803 47.4604 197.402 48.9055 197.402 50.6571C197.402 52.4524 198.847 53.8975 200.599 53.8975C202.394 53.8975 203.839 52.4524 203.839 50.6571C203.839 48.9055 202.394 47.4604 200.599 47.4604Z" fill="#213E88"/>
<path d="M141.352 47.9421H136.929V80.9592H141.352V47.9421Z" fill="#213E88"/>
<path d="M202.832 57.926H198.409V80.9592H202.832V57.926Z" fill="#213E88"/>
<path d="M226.39 77.1057H213.692L226.39 59.4586V57.926H207.386V61.7795H220.041L207.386 79.3828V80.9592H226.39V77.1057Z" fill="#213E88"/>
<path d="M189.257 65.1513L189.345 65.2389V73.6026L189.257 73.6902C187.856 75.7921 185.316 77.1058 182.557 77.1058C178.31 77.1058 175.245 73.8654 175.245 69.3988C175.245 64.9323 178.31 61.6919 182.557 61.6919C185.316 61.7357 187.9 63.0494 189.257 65.1513V65.1513ZM170.69 69.4426C170.69 76.23 175.77 81.3533 182.514 81.3533C184.878 81.3533 187.024 80.6527 188.644 79.339L189.301 78.8135V80.9592H193.724V57.9261H189.301V60.1593L188.644 59.6338C186.98 58.2764 184.834 57.5757 182.514 57.5757C175.77 57.5757 170.69 62.6553 170.69 69.4426" fill="#213E88"/>
<path d="M157.641 57.5757C155.058 57.5757 152.737 58.4953 151.248 60.0717L150.547 60.8599V47.9421H146.125V80.9592H150.547V66.2898V66.246C151.511 63.3559 153.7 61.7795 156.634 61.7795C160.444 61.7795 162.502 64.7572 162.502 67.5159V80.9592H166.925V67.3845C166.925 61.4292 163.29 57.5757 157.641 57.5757Z" fill="#213E88"/>
<path d="M90.1183 76.624H84.5132V52.2334H90.1183C97.3873 52.2334 102.642 57.3568 102.642 64.4068C102.642 71.5007 97.3873 76.624 90.1183 76.624ZM90.1183 47.9421H79.784V80.9592H90.1183C100.015 80.9592 107.459 73.8653 107.459 64.4506C107.459 55.0359 100.015 47.9421 90.1183 47.9421" fill="#213E88"/>
<path d="M170.121 7.26184H165.699V40.279H170.121V7.26184Z" fill="#213E88"/>
<path d="M88.1915 28.4996L94.0155 13.9616L99.7957 28.4996H88.1915ZM92.1764 7.26184L78.6017 40.279H83.6375L86.6589 32.7472H101.372L104.394 40.279H109.473L95.8984 7.26184H92.1764Z" fill="#213E88"/>
<path d="M125.018 16.8955C122.435 16.8955 120.114 17.8151 118.625 19.3915L117.924 20.1797V7.26184H113.502V40.279H117.924V25.6095L117.968 25.5658C118.932 22.6757 121.121 21.0992 124.055 21.0992C127.865 21.0992 129.923 24.0769 129.923 26.8356V40.279H134.345V26.7043C134.258 20.7489 130.623 16.8955 125.018 16.8955Z" fill="#213E88"/>
<path d="M149.978 36.4693C145.687 36.4693 142.622 33.2289 142.622 28.7624C142.622 24.2959 145.731 21.0555 149.978 21.0555C154.182 21.0555 157.335 24.3835 157.335 28.7624C157.379 33.1851 154.182 36.4693 149.978 36.4693V36.4693ZM149.978 16.8955C143.191 16.8955 138.024 22.0189 138.024 28.8062C138.024 35.5935 143.147 40.7169 149.978 40.7169C156.765 40.7169 161.933 35.5935 161.933 28.8062C161.933 21.9751 156.809 16.8955 149.978 16.8955Z" fill="#213E88"/>
<path d="M192.454 24.6024V32.9661L192.366 33.0537C190.965 35.1556 188.425 36.4693 185.666 36.4693C181.419 36.4693 178.354 33.2289 178.354 28.7624C178.354 24.2959 181.419 21.0555 185.666 21.0555C188.381 21.0555 190.965 22.3691 192.366 24.471L192.454 24.6024ZM185.666 16.8955C178.923 16.8955 173.843 22.0188 173.843 28.8062C173.843 35.5935 178.923 40.7168 185.666 40.7168C188.031 40.7168 190.177 40.0162 191.797 38.7025L192.454 38.1771V40.3227H196.876V7.26184H192.454V19.479L191.797 18.9536C190.089 17.5961 187.987 16.8955 185.666 16.8955" fill="#213E88"/>
<path d="M31.8785 5.29135C33.0608 5.29135 34.0242 4.32798 34.0242 3.14567C34.0242 1.96336 33.0608 1 31.8347 1C30.6524 1 29.689 1.96336 29.689 3.14567C29.7328 4.32798 30.6962 5.29135 31.8785 5.29135Z" fill="#213E88"/>
<path d="M31.8785 5.29135C33.0608 5.29135 34.0242 4.32798 34.0242 3.14567C34.0242 1.96336 33.0608 1 31.8347 1C30.6524 1 29.689 1.96336 29.689 3.14567C29.7328 4.32798 30.6962 5.29135 31.8785 5.29135Z" fill="#213E88"/>
<path d="M16.3333 16.5014H20.6684C20.6684 16.5014 19.9678 15.8008 17.2967 12.9545C15.764 11.3343 15.6327 10.0644 17.5594 10.0644H17.9973L20.1867 6.78018C20.1867 6.78018 18.3038 6.73639 17.5156 6.73639C12.3485 6.73639 11.4289 11.8159 14.0125 14.2681C15.983 16.0635 16.3333 16.5014 16.3333 16.5014" fill="#213E88"/>
<path d="M16.3333 16.5014H20.6684C20.6684 16.5014 19.9678 15.8008 17.2967 12.9545C15.764 11.3343 15.6327 10.0644 17.5594 10.0644H17.9973L20.1867 6.78018C20.1867 6.78018 18.3038 6.73639 17.5156 6.73639C12.3485 6.73639 11.4289 11.8159 14.0125 14.2681C15.983 16.0635 16.3333 16.5014 16.3333 16.5014" fill="#213E88"/>
<path d="M46.2414 9.93299C48.1681 9.93299 48.0368 11.2029 46.5041 12.8231C43.833 15.6694 43.1761 16.37 43.1761 16.37H47.5113C47.5113 16.37 47.9054 15.9759 49.8321 14.093C52.4157 11.6408 51.4523 6.56122 46.329 6.56122C45.497 6.56122 43.6578 6.6488 43.6578 6.6488L45.8473 9.93299H46.2414Z" fill="#213E88"/>
<path d="M46.2414 9.93299C48.1681 9.93299 48.0368 11.2029 46.5041 12.8231C43.833 15.6694 43.1761 16.37 43.1761 16.37H47.5113C47.5113 16.37 47.9054 15.9759 49.8321 14.093C52.4157 11.6408 51.4523 6.56122 46.329 6.56122C45.497 6.56122 43.6578 6.6488 43.6578 6.6488L45.8473 9.93299H46.2414Z" fill="#213E88"/>
<path d="M31.9223 16.2824L33.5863 14.8374L33.5425 6.6488H30.2145L30.2583 14.8812L31.9223 16.2824Z" fill="#213E88"/>
<path d="M31.9223 16.2824L33.5863 14.8374L33.5425 6.6488H30.2145L30.2583 14.8812L31.9223 16.2824Z" fill="#213E88"/>
<path d="M58.0645 50.3067C58.8965 54.2478 58.6338 58.1888 57.2763 62.0423C55.5685 66.7715 52.9411 69.9681 49.657 71.1942C48.9125 71.457 47.5551 71.8949 45.8473 71.9386C44.7526 71.9386 43.3075 71.5445 42.3879 71.1066C41.8625 70.8877 40.7677 70.3622 40.7677 70.3622C37.8338 68.742 33.6739 65.4578 33.7177 63.2684C33.7177 62.5239 35.4254 61.2979 36.8705 61.2541C38.8848 61.2541 40.505 59.5901 40.505 57.5758V57.4006L39.7606 54.204L39.7168 54.1164C39.1913 52.3648 37.8338 46.4095 42.4755 43.7384L46.5041 41.8116L45.0591 38.7902L40.9429 40.7607L40.8115 40.8045C36.2136 43.4318 34.5934 48.7303 36.4326 55.036L37.0456 57.7509C37.0019 57.8385 36.9143 57.9261 36.7829 57.9261C35.4254 57.9261 33.8928 58.4515 32.6667 59.3273C32.404 59.5025 32.185 59.6776 31.9661 59.8966C30.6086 58.6705 28.6381 57.9699 27.1055 58.0137C26.9741 58.0137 26.8865 57.9261 26.8427 57.8385L27.4558 55.1236C29.2511 48.8179 27.5872 43.5194 22.9455 40.9358L18.7417 38.9653L17.3405 41.9868L21.3691 43.8697C26.0107 46.4971 24.7409 52.4524 24.2154 54.2478L23.471 57.532V57.7071C23.471 59.7214 25.135 61.3416 27.1493 61.3416C28.5505 61.3416 30.3021 62.524 30.3021 63.3122C30.3459 65.5016 26.2297 68.7858 23.2958 70.4498C23.0331 70.5812 22.7265 70.7563 22.4638 70.8877C21.5004 71.457 20.0554 72.07 18.3476 72.07C17.9097 72.07 16.3333 72.1138 14.3628 71.3694C11.0786 70.0995 8.36366 66.9905 6.65588 62.2612C4.99189 57.7509 4.86052 53.153 6.26178 48.5552C6.65588 47.1539 7.61925 45.0958 7.57546 45.052C9.72113 40.4542 13.2681 36.1628 17.8221 32.5283C17.9097 32.4845 24.6533 27.2298 30.2583 23.5077L22.639 18.3406H17.9973C17.9973 18.3406 17.6032 18.3406 17.3843 18.3406C12.874 18.7785 8.93292 20.4863 5.7801 23.5077C2.58348 26.4416 0.656752 31.9153 1.05085 37.17C1.22601 39.4032 1.75148 41.4613 2.62727 43.388C3.15274 42.3371 3.85337 40.9796 4.77294 39.4032C4.554 38.5274 4.42263 37.6954 4.37884 36.9072C4.07232 32.7035 5.56115 28.1932 8.01335 25.9599C10.6407 23.4639 13.8811 22.0627 17.6032 21.6686L27.0179 21.6248C21.6318 25.3031 15.8516 29.8134 15.7641 29.8572C11.9982 32.8786 8.88914 36.2504 6.61209 39.9287C5.16705 42.3371 3.76579 45.4461 3.80958 45.4899C1.53254 51.4453 1.44496 57.6196 3.54684 63.3997C6.1742 70.5812 10.2466 73.3837 13.2243 74.4784C14.6693 75.0039 16.2457 75.2666 17.8221 75.2666C20.2306 75.2666 22.3324 74.4784 22.2887 74.4784C22.9893 74.2157 24.303 73.734 24.9598 73.3399C25.5728 72.9896 29.689 70.625 32.0099 67.5159C34.3307 70.5374 38.3155 72.8144 39.0599 73.2523C39.0599 73.2523 40.8553 74.3033 42.3004 74.7412C43.9206 75.1791 45.6721 75.1791 46.2414 75.1791C47.8178 75.1791 49.3504 74.8725 50.8393 74.3471C53.8169 73.2085 57.8893 70.3622 60.4291 63.1808C62.2683 58.0574 62.3558 52.6714 60.7794 47.3729C60.0788 48.2924 59.203 49.2996 58.0645 50.3067" fill="#213E88"/>
<path d="M58.0645 50.3067C58.8965 54.2478 58.6338 58.1888 57.2763 62.0423C55.5685 66.7715 52.9411 69.9681 49.657 71.1942C48.9125 71.457 47.5551 71.8949 45.8473 71.9386C44.7526 71.9386 43.3075 71.5445 42.3879 71.1066C41.8625 70.8877 40.7677 70.3622 40.7677 70.3622C37.8338 68.742 33.6739 65.4578 33.7177 63.2684C33.7177 62.5239 35.4254 61.2979 36.8705 61.2541C38.8848 61.2541 40.505 59.5901 40.505 57.5758V57.4006L39.7606 54.204L39.7168 54.1164C39.1913 52.3648 37.8338 46.4095 42.4755 43.7384L46.5041 41.8116L45.0591 38.7902L40.9429 40.7607L40.8115 40.8045C36.2136 43.4318 34.5934 48.7303 36.4326 55.036L37.0456 57.7509C37.0019 57.8385 36.9143 57.9261 36.7829 57.9261C35.4254 57.9261 33.8928 58.4515 32.6667 59.3273C32.404 59.5025 32.185 59.6776 31.9661 59.8966C30.6086 58.6705 28.6381 57.9699 27.1055 58.0137C26.9741 58.0137 26.8865 57.9261 26.8427 57.8385L27.4558 55.1236C29.2511 48.8179 27.5872 43.5194 22.9455 40.9358L18.7417 38.9653L17.3405 41.9868L21.3691 43.8697C26.0107 46.4971 24.7409 52.4524 24.2154 54.2478L23.471 57.532V57.7071C23.471 59.7214 25.135 61.3416 27.1493 61.3416C28.5505 61.3416 30.3021 62.524 30.3021 63.3122C30.3459 65.5016 26.2297 68.7858 23.2958 70.4498C23.0331 70.5812 22.7265 70.7563 22.4638 70.8877C21.5004 71.457 20.0554 72.07 18.3476 72.07C17.9097 72.07 16.3333 72.1138 14.3628 71.3694C11.0786 70.0995 8.36366 66.9905 6.65588 62.2612C4.99189 57.7509 4.86052 53.153 6.26178 48.5552C6.65588 47.1539 7.61925 45.0958 7.57546 45.052C9.72113 40.4542 13.2681 36.1628 17.8221 32.5283C17.9097 32.4845 24.6533 27.2298 30.2583 23.5077L22.639 18.3406H17.9973C17.9973 18.3406 17.6032 18.3406 17.3843 18.3406C12.874 18.7785 8.93292 20.4863 5.7801 23.5077C2.58348 26.4416 0.656752 31.9153 1.05085 37.17C1.22601 39.4032 1.75148 41.4613 2.62727 43.388C3.15274 42.3371 3.85337 40.9796 4.77294 39.4032C4.554 38.5274 4.42263 37.6954 4.37884 36.9072C4.07232 32.7035 5.56115 28.1932 8.01335 25.9599C10.6407 23.4639 13.8811 22.0627 17.6032 21.6686L27.0179 21.6248C21.6318 25.3031 15.8516 29.8134 15.7641 29.8572C11.9982 32.8786 8.88914 36.2504 6.61209 39.9287C5.16705 42.3371 3.76579 45.4461 3.80958 45.4899C1.53254 51.4453 1.44496 57.6196 3.54684 63.3997C6.1742 70.5812 10.2466 73.3837 13.2243 74.4784C14.6693 75.0039 16.2457 75.2666 17.8221 75.2666C20.2306 75.2666 22.3324 74.4784 22.2887 74.4784C22.9893 74.2157 24.303 73.734 24.9598 73.3399C25.5728 72.9896 29.689 70.625 32.0099 67.5159C34.3307 70.5374 38.3155 72.8144 39.0599 73.2523C39.0599 73.2523 40.8553 74.3033 42.3004 74.7412C43.9206 75.1791 45.6721 75.1791 46.2414 75.1791C47.8178 75.1791 49.3504 74.8725 50.8393 74.3471C53.8169 73.2085 57.8893 70.3622 60.4291 63.1808C62.2683 58.0574 62.3558 52.6714 60.7794 47.3729C60.0788 48.2924 59.203 49.2996 58.0645 50.3067" fill="#213E88"/>
<path d="M24.7409 17.3334L35.3817 24.9528C35.513 25.0403 36.2136 25.4782 36.2136 25.4782C41.0743 28.8062 45.8035 32.3969 45.8473 32.4407C49.8759 35.5498 53.0725 39.2281 55.3058 43.1691C56.2253 41.8554 56.7508 40.4104 57.0136 39.4908C54.6927 35.9439 51.6275 32.6597 47.9054 29.7696C47.8616 29.7258 43.6578 26.5292 39.06 23.3325C37.1332 22.1502 31.4406 18.2968 31.4406 18.2968C28.7257 16.5452 24.8284 12.9545 24.8284 12.9545C23.3834 11.5532 23.2082 10.0206 24.9598 10.0206H28.3754V6.69263H25.0036C19.5299 6.73642 18.6979 11.2467 21.6756 14.4433C22.8141 15.7132 24.7409 17.3334 24.7409 17.3334" fill="#213E88"/>
<path d="M24.7409 17.3334L35.3817 24.9528C35.513 25.0403 36.2136 25.4782 36.2136 25.4782C41.0743 28.8062 45.8035 32.3969 45.8473 32.4407C49.8759 35.5498 53.0725 39.2281 55.3058 43.1691C56.2253 41.8554 56.7508 40.4104 57.0136 39.4908C54.6927 35.9439 51.6275 32.6597 47.9054 29.7696C47.8616 29.7258 43.6578 26.5292 39.06 23.3325C37.1332 22.1502 31.4406 18.2968 31.4406 18.2968C28.7257 16.5452 24.8284 12.9545 24.8284 12.9545C23.3834 11.5532 23.2082 10.0206 24.9598 10.0206H28.3754V6.69263H25.0036C19.5299 6.73642 18.6979 11.2467 21.6756 14.4433C22.8141 15.7132 24.7409 17.3334 24.7409 17.3334" fill="#213E88"/>
<path d="M39.8919 75.6607C37.8776 77.3247 34.7686 78.0253 32.0536 78.0691C29.3825 78.0253 26.361 77.3685 24.3467 75.8359C23.4272 76.1862 22.0697 76.6679 20.7122 76.9744C21.9383 78.4632 23.6461 79.6017 25.8356 80.3899C28.0688 81.1782 30.3021 81.3971 31.7471 81.4409C31.8785 81.4409 31.9661 81.4409 32.0974 81.4409C32.2288 81.4409 32.3602 81.4409 32.4915 81.4409C33.9366 81.3971 36.1698 81.1344 38.4031 80.3462C40.5925 79.5579 42.3003 78.3756 43.5264 76.843C42.0376 76.4927 40.7239 76.011 39.8919 75.6607" fill="#213E88"/>
<path d="M39.8919 75.6607C37.8776 77.3247 34.7686 78.0253 32.0536 78.0691C29.3825 78.0253 26.361 77.3685 24.3467 75.8359C23.4272 76.1862 22.0697 76.6679 20.7122 76.9744C21.9383 78.4632 23.6461 79.6017 25.8356 80.3899C28.0688 81.1782 30.3021 81.3971 31.7471 81.4409C31.8785 81.4409 31.9661 81.4409 32.0974 81.4409C32.2288 81.4409 32.3602 81.4409 32.4915 81.4409C33.9366 81.3971 36.1698 81.1344 38.4031 80.3462C40.5925 79.5579 42.3003 78.3756 43.5264 76.843C42.0376 76.4927 40.7239 76.011 39.8919 75.6607" fill="#213E88"/>
<path d="M57.8455 23.2888C54.6927 20.3987 50.883 18.6909 46.5041 18.253L46.11 18.2092C45.891 18.2092 45.4969 18.2092 45.4969 18.2092L37.79 18.253C38.5782 17.6399 39.3664 17.0269 40.1546 16.37C40.1546 16.37 40.286 16.3263 40.6363 15.9759C40.9866 15.6694 41.5997 14.925 41.5997 14.925C41.7749 14.7498 41.95 14.5309 42.169 14.312C45.1904 11.1153 44.3146 6.60504 38.841 6.60504H35.4692V9.93303H38.8848C40.7239 9.93303 40.1546 11.5094 38.8848 13.1296C37.177 14.6185 35.3378 16.0197 33.3673 17.3772C35.6881 19.0412 38.0528 20.53 39.7605 21.581L45.9786 21.5372C49.7007 21.8875 52.9411 23.2888 55.6123 25.741C58.0645 27.9742 59.5971 32.4407 59.3343 36.6445C59.2468 37.9144 58.984 39.447 58.4148 40.9796C57.8017 42.5998 56.707 44.7893 54.7803 46.3219L54.7365 46.3657C54.2548 46.8036 53.7731 47.1977 53.2039 47.5918C44.4022 53.7661 43.7454 61.6482 43.3951 65.8519C43.3513 66.2022 43.3513 66.5526 43.3075 66.8591C43.3075 67.0342 43.2637 67.2532 43.2637 67.4283C43.2199 67.9538 43.1761 68.6107 43.0447 69.2675C43.8767 69.7054 45.059 70.0995 46.3289 69.9681C46.4603 69.0923 46.5479 68.3479 46.5917 67.6911C46.5917 67.5159 46.6355 67.297 46.6355 67.1656C46.6792 66.8153 46.6792 66.465 46.723 66.0709C47.0734 61.9109 47.6426 55.5614 55.043 50.3067C55.0868 50.2629 55.1744 50.1754 55.2182 50.1316C59.2906 47.1977 60.867 43.6508 60.867 43.607C60.9108 43.5194 60.9546 43.4756 60.9983 43.4318C62.0055 41.3737 62.5748 39.0967 62.7499 36.7321C63.0126 31.6525 61.0421 26.1788 57.8455 23.2888" fill="#213E88"/>
<path d="M57.8455 23.2888C54.6927 20.3987 50.883 18.6909 46.5041 18.253L46.11 18.2092C45.891 18.2092 45.4969 18.2092 45.4969 18.2092L37.79 18.253C38.5782 17.6399 39.3664 17.0269 40.1546 16.37C40.1546 16.37 40.286 16.3263 40.6363 15.9759C40.9866 15.6694 41.5997 14.925 41.5997 14.925C41.7749 14.7498 41.95 14.5309 42.169 14.312C45.1904 11.1153 44.3146 6.60504 38.841 6.60504H35.4692V9.93303H38.8848C40.7239 9.93303 40.1546 11.5094 38.8848 13.1296C37.177 14.6185 35.3378 16.0197 33.3673 17.3772C35.6881 19.0412 38.0528 20.53 39.7605 21.581L45.9786 21.5372C49.7007 21.8875 52.9411 23.2888 55.6123 25.741C58.0645 27.9742 59.5971 32.4407 59.3343 36.6445C59.2468 37.9144 58.984 39.447 58.4148 40.9796C57.8017 42.5998 56.707 44.7893 54.7803 46.3219L54.7365 46.3657C54.2548 46.8036 53.7731 47.1977 53.2039 47.5918C44.4022 53.7661 43.7454 61.6482 43.3951 65.8519C43.3513 66.2022 43.3513 66.5526 43.3075 66.8591C43.3075 67.0342 43.2637 67.2532 43.2637 67.4283C43.2199 67.9538 43.1761 68.6107 43.0447 69.2675C43.8767 69.7054 45.059 70.0995 46.3289 69.9681C46.4603 69.0923 46.5479 68.3479 46.5917 67.6911C46.5917 67.5159 46.6355 67.297 46.6355 67.1656C46.6792 66.8153 46.6792 66.465 46.723 66.0709C47.0734 61.9109 47.6426 55.5614 55.043 50.3067C55.0868 50.2629 55.1744 50.1754 55.2182 50.1316C59.2906 47.1977 60.867 43.6508 60.867 43.607C60.9108 43.5194 60.9546 43.4756 60.9983 43.4318C62.0055 41.3737 62.5748 39.0967 62.7499 36.7321C63.0126 31.6525 61.0421 26.1788 57.8455 23.2888" fill="#213E88"/>
<path d="M21.0626 69.574C20.9312 68.8734 20.8874 68.1727 20.7998 67.6473C20.7998 67.4283 20.756 67.2532 20.756 67.078C20.7123 66.7715 20.6685 66.4212 20.6685 66.0709C20.2744 61.8671 19.5299 53.985 10.6845 47.8983C10.0715 47.5042 9.54599 47.0663 9.06431 46.6284C8.53884 47.9421 8.18852 49.1682 8.01337 50.0878C8.2761 50.2629 8.49505 50.4819 8.75778 50.657C16.3333 55.868 16.9026 62.2174 17.2967 66.3774C17.3405 66.7715 17.3843 67.1218 17.3843 67.4721C17.3843 67.6473 17.4281 67.8224 17.4281 67.9976C17.4718 68.6106 17.5594 69.3988 17.7346 70.2308C19.0483 70.3622 20.1868 70.0119 21.0626 69.574" fill="#213E88"/>
<path d="M21.0626 69.574C20.9312 68.8734 20.8874 68.1727 20.7998 67.6473C20.7998 67.4283 20.756 67.2532 20.756 67.078C20.7123 66.7715 20.6685 66.4212 20.6685 66.0709C20.2744 61.8671 19.5299 53.985 10.6845 47.8983C10.0715 47.5042 9.54599 47.0663 9.06431 46.6284C8.53884 47.9421 8.18852 49.1682 8.01337 50.0878C8.2761 50.2629 8.49505 50.4819 8.75778 50.657C16.3333 55.868 16.9026 62.2174 17.2967 66.3774C17.3405 66.7715 17.3843 67.1218 17.3843 67.4721C17.3843 67.6473 17.4281 67.8224 17.4281 67.9976C17.4718 68.6106 17.5594 69.3988 17.7346 70.2308C19.0483 70.3622 20.1868 70.0119 21.0626 69.574" fill="#213E88"/>
</svg>
