<svg width="253" height="68" viewBox="0 0 253 68" fill="none" xmlns="http://www.w3.org/2000/svg">
<path fill-rule="evenodd" clip-rule="evenodd" d="M29.6407 35.2269V30.5829C29.6407 28.4389 31.3847 26.6939 33.5287 26.6939C35.6737 26.6939 37.4177 28.4389 37.4177 30.5829V35.2269H29.6407ZM33.5287 21.0349C28.5397 21.0349 24.4377 24.8849 24.0227 29.7689C24.0037 29.9039 23.9817 30.0379 23.9817 30.1779V43.1939C23.9817 44.7559 25.2487 46.0229 26.8117 46.0229C28.3737 46.0229 29.6407 44.7559 29.6407 43.1939V40.8859H37.4177V43.1939C37.4177 44.7559 38.6837 46.0229 40.2467 46.0229C41.8097 46.0229 43.0767 44.7559 43.0767 43.1939V30.1779C43.0767 30.0379 43.0547 29.9039 43.0347 29.7689C42.6197 24.8849 38.5187 21.0349 33.5287 21.0349V21.0349Z" fill="#213E88"/>
<path fill-rule="evenodd" clip-rule="evenodd" d="M33.529 61.3994C18.161 61.3994 5.659 48.8974 5.659 33.5294C5.659 18.1614 18.161 5.65937 33.529 5.65937C48.897 5.65937 61.399 18.1614 61.399 33.5294C61.399 48.8974 48.897 61.3994 33.529 61.3994M33.529 0.000366211C15.041 0.000366211 0 15.0414 0 33.5294C0 52.0174 15.041 67.0584 33.529 67.0584C52.017 67.0584 67.058 52.0174 67.058 33.5294C67.058 15.0414 52.017 0.000366211 33.529 0.000366211" fill="#213E88"/>
<path fill-rule="evenodd" clip-rule="evenodd" d="M99.0571 35.2269V30.5829C99.0571 28.4389 100.801 26.6939 102.945 26.6939C105.09 26.6939 106.834 28.4389 106.834 30.5829V35.2269H99.0571ZM102.945 21.0349C97.9561 21.0349 93.8541 24.8849 93.4391 29.7689C93.4201 29.9039 93.3981 30.0379 93.3981 30.1779V43.1939C93.3981 44.7559 94.6651 46.0229 96.2281 46.0229C97.7901 46.0229 99.0571 44.7559 99.0571 43.1939V40.8859H106.834V43.1939C106.834 44.7559 108.1 46.0229 109.663 46.0229C111.226 46.0229 112.493 44.7559 112.493 43.1939V30.1779C112.493 30.0379 112.471 29.9039 112.451 29.7689C112.036 24.8849 107.935 21.0349 102.945 21.0349V21.0349Z" fill="#213E88"/>
<path fill-rule="evenodd" clip-rule="evenodd" d="M161.065 21.0354C158.447 21.0354 156.074 22.0954 154.347 23.8074C152.621 22.0954 150.247 21.0354 147.629 21.0354C142.64 21.0354 138.539 24.8844 138.123 29.7694C138.104 29.9034 138.082 30.0384 138.082 30.1784V43.1934C138.082 44.7564 139.349 46.0234 140.912 46.0234C142.475 46.0234 143.741 44.7564 143.741 43.1934V30.5824C143.741 28.4384 145.485 26.6944 147.629 26.6944C149.774 26.6944 151.518 28.4384 151.518 30.5824V37.5344C151.518 39.0974 152.784 40.3644 154.347 40.3644C155.91 40.3644 157.177 39.0974 157.177 37.5344V30.5824C157.177 28.4384 158.921 26.6944 161.065 26.6944C163.209 26.6944 164.953 28.4384 164.953 30.5824V43.1934C164.953 44.7564 166.22 46.0234 167.783 46.0234C169.346 46.0234 170.612 44.7564 170.612 43.1934V30.1784C170.612 30.0384 170.591 29.9034 170.571 29.7694C170.156 24.8844 166.055 21.0354 161.065 21.0354" fill="#213E88"/>
<path fill-rule="evenodd" clip-rule="evenodd" d="M132.774 37.5965C131.422 36.8135 129.69 37.2765 128.908 38.6285C128.214 39.8285 126.923 40.5745 125.538 40.5745C123.394 40.5745 121.65 38.8295 121.65 36.6855V30.6325C121.65 30.6305 121.651 30.6285 121.651 30.6265C121.651 28.4825 123.395 26.7385 125.539 26.7385C126.833 26.7385 128.039 27.3805 128.765 28.4545C129.312 29.2645 130.204 29.7005 131.112 29.7005C131.657 29.7005 132.208 29.5435 132.694 29.2155C133.989 28.3405 134.329 26.5815 133.454 25.2865C131.674 22.6525 128.715 21.0795 125.539 21.0795C120.583 21.0795 116.5 24.8765 116.038 29.7135C116.013 29.8655 115.991 30.0185 115.991 30.1785V37.5345C115.991 37.8695 116.06 38.1875 116.167 38.4855C117.012 42.8915 120.89 46.2335 125.538 46.2335C128.935 46.2335 132.104 44.4055 133.806 41.4625C134.589 40.1095 134.127 38.3795 132.774 37.5965" fill="#213E88"/>
<path fill-rule="evenodd" clip-rule="evenodd" d="M228.965 37.4694C227.613 36.6854 225.881 37.1494 225.099 38.5014C224.405 39.7014 223.114 40.4474 221.729 40.4474C219.585 40.4474 217.841 38.7024 217.841 36.5584V30.5054C217.841 30.5034 217.842 30.5014 217.842 30.4994C217.842 28.3554 219.586 26.6114 221.73 26.6114C223.024 26.6114 224.229 27.2534 224.956 28.3274C225.503 29.1374 226.395 29.5734 227.303 29.5734C227.848 29.5734 228.399 29.4164 228.885 29.0884C230.18 28.2134 230.52 26.4544 229.645 25.1594C227.865 22.5254 224.906 20.9524 221.73 20.9524C216.774 20.9524 212.691 24.7494 212.229 29.5864C212.204 29.7384 212.182 29.8914 212.182 30.0514V37.4074C212.182 37.7424 212.251 38.0604 212.358 38.3584C213.203 42.7644 217.081 46.1064 221.729 46.1064C225.126 46.1064 228.295 44.2784 229.997 41.3354C230.78 39.9824 230.318 38.2524 228.965 37.4694" fill="#213E88"/>
<path fill-rule="evenodd" clip-rule="evenodd" d="M243.119 40.427C243.074 40.427 243.032 40.438 242.988 40.44C240.905 40.37 239.231 38.658 239.231 36.559V30.5C239.231 28.356 240.975 26.611 243.119 26.611C244.413 26.611 245.619 27.253 246.345 28.328C246.779 28.969 247.007 29.72 247.007 30.5V36.539C247.007 37.318 246.779 38.069 246.345 38.711C245.619 39.785 244.413 40.427 243.119 40.427M252.64 29.792C252.639 29.777 252.637 29.762 252.636 29.747C252.625 29.654 252.623 29.557 252.604 29.467C252.438 27.926 251.908 26.453 251.034 25.16C249.255 22.525 246.296 20.952 243.119 20.952C238.159 20.952 234.074 24.755 233.618 29.597C233.593 29.746 233.572 29.895 233.572 30.051V37.407C233.572 37.743 233.64 38.06 233.748 38.358C234.592 42.764 238.47 46.106 243.119 46.106C243.217 46.106 243.309 46.087 243.404 46.077C246.471 45.986 249.308 44.434 251.034 41.879C251.752 40.817 252.236 39.634 252.48 38.392C252.595 38.084 252.666 37.755 252.666 37.407V30.051C252.666 29.962 252.648 29.879 252.64 29.792" fill="#213E88"/>
<path fill-rule="evenodd" clip-rule="evenodd" d="M188.128 29.898H180.451C180.741 28.039 182.348 26.611 184.288 26.611C185.581 26.611 186.787 27.253 187.513 28.328C187.834 28.802 188.041 29.337 188.128 29.898M192.202 25.159C190.422 22.525 187.463 20.952 184.288 20.952C179.241 20.952 175.108 24.89 174.773 29.853C174.761 29.961 174.74 30.067 174.74 30.178V37.535C174.74 37.942 174.83 38.328 174.986 38.678C175.953 42.924 179.752 46.106 184.288 46.106C184.292 46.106 184.296 46.105 184.3 46.105C187.692 46.1 190.854 44.274 192.555 41.335C193.338 39.983 192.876 38.252 191.524 37.469C190.17 36.686 188.44 37.148 187.657 38.5C186.962 39.7 185.671 40.446 184.288 40.446C184.286 40.446 184.284 40.447 184.282 40.447C182.14 40.444 180.399 38.701 180.399 36.559V35.557H191.005C192.568 35.557 193.835 34.29 193.835 32.727V29.474C193.835 29.059 193.741 28.669 193.581 28.314C193.318 27.194 192.856 26.126 192.202 25.159" fill="#213E88"/>
</svg>
