<svg width="212" height="70" viewBox="0 0 212 70" fill="none" xmlns="http://www.w3.org/2000/svg">
<path fill-rule="evenodd" clip-rule="evenodd" d="M15.765 50.46L23.518 42.707H39.266L45.305 63.909L15.765 50.46ZM4.91603 23.568L19.32 25.401V40.674C19.32 40.822 19.337 40.967 19.367 41.106L12.509 47.964L4.91603 23.568ZM19.32 21.301L6.40303 19.657L19.32 6.74095V21.301ZM47.7 11.283L35.749 23.393L23.387 21.819V4.69195L47.7 11.283ZM23.387 38.64V25.919L34.902 27.385L38.108 38.64H23.387ZM57.335 38.64H42.337L38.771 26.121L50.672 14.061L57.335 38.64ZM48.846 61.492L43.495 42.707H56.832L48.846 61.492ZM61.956 40.142L53.716 9.74195C53.527 9.04495 52.982 8.49995 52.285 8.31095L21.885 0.0709514C21.274 -0.0950486 20.621 0.0339514 20.118 0.418951C20.084 0.443951 20.055 0.472951 20.023 0.499951L19.915 0.392951L0.596034 19.713L0.598034 19.715C0.556034 19.757 0.514034 19.798 0.475034 19.844C0.031034 20.374 -0.113966 21.094 0.092034 21.755L9.26303 51.2229C9.43603 51.7759 9.83503 52.229 10.363 52.469L47.623 69.434C47.893 69.557 48.18 69.617 48.465 69.617C48.943 69.617 49.416 69.448 49.792 69.124C50.034 68.917 50.215 68.659 50.334 68.377L50.337 68.379L61.574 41.949C61.585 41.935 61.598 41.923 61.608 41.909C61.993 41.406 62.121 40.753 61.956 40.142V40.142Z" fill="#213E88"/>
<path fill-rule="evenodd" clip-rule="evenodd" d="M95.1756 28.5879L91.8066 37.8859H98.5456L95.1756 28.5879ZM101.138 45.5979L99.8086 41.9359H90.5426L89.1816 45.5979H83.9326L92.2916 23.9869H98.0596L106.386 45.5979H101.138Z" fill="#213E88"/>
<path fill-rule="evenodd" clip-rule="evenodd" d="M119.216 34.8086C119.216 28.1666 124.238 23.6306 130.718 23.6306C135.48 23.6306 138.234 26.2226 139.757 28.9116L135.804 30.8556C134.897 29.1066 132.953 27.7126 130.718 27.7126C126.797 27.7126 123.946 30.7266 123.946 34.8086C123.946 38.8906 126.797 41.9036 130.718 41.9036C132.953 41.9036 134.897 40.5436 135.804 38.7606L139.757 40.6726C138.202 43.3616 135.48 45.9866 130.718 45.9866C124.238 45.9866 119.216 41.4506 119.216 34.8086" fill="#213E88"/>
<path fill-rule="evenodd" clip-rule="evenodd" d="M174.262 45.5974V30.4664L168.171 45.5974H166.162L160.071 30.4664V45.5974H155.47V23.9874H161.918L167.167 37.0434L172.415 23.9874H178.895V45.5974H174.262Z" fill="#213E88"/>
<path fill-rule="evenodd" clip-rule="evenodd" d="M196.131 45.5974V23.9874H211.424V28.0364H200.732V32.6054H211.197V36.6554H200.732V41.5474H211.424V45.5974H196.131Z" fill="#213E88"/>
</svg>
