<svg width="587" height="130" viewBox="0 0 587 130" fill="none" xmlns="http://www.w3.org/2000/svg">
<path d="M131.966 71.7585C139.221 71.7585 145.102 65.8846 145.102 58.6387C145.102 51.3928 139.221 45.5189 131.966 45.5189C124.712 45.5189 118.831 51.3928 118.831 58.6387C118.831 65.8846 124.712 71.7585 131.966 71.7585Z" fill="#213E88"/>
<path d="M213.238 71.7585C220.493 71.7585 226.374 65.8846 226.374 58.6387C226.374 51.3928 220.493 45.5189 213.238 45.5189C205.984 45.5189 200.103 51.3928 200.103 58.6387C200.103 65.8846 205.984 71.7585 213.238 71.7585Z" fill="#213E88"/>
<path d="M172.601 43.1232C179.855 43.1232 185.736 37.2492 185.736 30.0034C185.736 22.7575 179.855 16.8835 172.601 16.8835C165.346 16.8835 159.465 22.7575 159.465 30.0034C159.465 37.2492 165.346 43.1232 172.601 43.1232Z" fill="#213E88"/>
<path d="M214.147 107.234C213.23 105.398 211.946 103.77 210.375 102.45C208.803 101.13 206.977 100.145 205.01 99.5575C203.09 98.9727 200.809 96.8038 199.294 93.756L183.678 62.367C181.808 58.6068 177.274 56.243 172.604 56.243C167.935 56.243 163.4 58.6068 161.53 62.367L145.911 93.756C144.396 96.8003 142.114 98.9727 140.194 99.5575C138.227 100.145 136.401 101.129 134.829 102.449C133.257 103.77 131.974 105.398 131.058 107.234C129.306 110.832 129.048 114.975 130.341 118.762C131.633 122.549 134.371 125.672 137.959 127.452C141.546 129.232 145.692 129.524 149.494 128.265C153.296 127.006 156.446 124.297 158.258 120.729C159.171 118.892 159.695 116.888 159.8 114.84C159.904 112.792 159.586 110.745 158.865 108.825C158.173 106.943 158.525 103.817 160.043 100.77L168.907 82.961C169.592 81.5789 170.968 80.6149 172.604 80.6149C174.24 80.6149 175.616 81.5789 176.301 82.961L185.165 100.77C186.68 103.817 187.035 106.947 186.343 108.825C185.623 110.745 185.305 112.792 185.41 114.84C185.514 116.888 186.038 118.892 186.95 120.729C188.743 124.331 191.895 127.075 195.712 128.358C199.53 129.64 203.701 129.357 207.309 127.569C210.915 125.777 213.661 122.629 214.943 118.815C216.226 115.002 215.939 110.836 214.147 107.234V107.234Z" fill="#213E88"/>
<path d="M70.2303 126.655L68.3674 112.348C63.1693 122.923 51.1159 129.153 37.4055 129.153C14.3384 129.153 0 113.585 0 90.5451V19.4175H25.9731V84.7472C25.9731 97.4169 30.9584 105.295 44.6759 105.295C50.7008 105.295 54.8522 103.013 57.9747 99.9048C64.2054 94.0962 65.873 84.3432 65.873 75.6285V19.421H91.8355V126.658L70.2303 126.655V126.655ZM306.837 69.6498L305.965 63.0793C303.552 68.0054 297.942 70.9044 291.559 70.9044C280.825 70.9044 274.151 63.6605 274.151 52.9364V19.4175H286.24V50.2324C286.24 56.1225 288.56 59.794 294.944 59.794C297.75 59.794 299.681 58.7308 301.132 57.2813C304.031 54.5737 304.808 50.0374 304.808 45.9796V19.4175H316.893V69.6463H306.837V69.6498V69.6498ZM365.139 69.6498V38.8349C365.139 32.9413 363.205 29.369 356.818 29.369C352.567 29.369 349.76 32.073 348.114 35.7446C346.375 39.7067 346.471 44.9235 346.471 49.1727V69.6534H334.382V19.4175H344.538L345.407 25.8923C348.409 20.5763 354.402 18.1629 360.203 18.1629C370.936 18.1629 377.224 25.6974 377.224 36.1238V69.6427H365.142V69.6498H365.139ZM393.744 12.4606V0H406.699V12.4606H393.744ZM394.128 69.6498V19.4175H406.408V69.6463H394.128V69.6498ZM454.952 88.8724V66.0704C452.631 68.8737 447.791 70.9009 441.798 70.9009C436.671 70.9009 432.608 69.3557 429.511 66.843C423.518 61.9133 420.516 54.2831 420.516 44.4309C420.516 34.9649 423.518 27.4304 429.511 22.5007C432.608 19.988 436.671 18.248 441.702 18.248C447.216 18.248 452.826 20.2787 455.821 24.9177L456.598 19.4104H467.037V88.8688L454.952 88.8724V88.8724ZM444.115 28.4015C440.343 28.4015 437.732 30.1415 435.99 32.3636C433.474 35.6489 432.796 40.2844 432.796 44.6293C432.796 48.9743 433.474 53.5141 435.99 56.7994C437.728 59.025 440.343 60.7615 444.115 60.7615C453.593 60.7615 455.526 51.8768 455.526 44.6293C455.526 37.3819 453.593 28.4015 444.115 28.4015V28.4015ZM516.435 69.6498L515.563 63.0793C513.143 68.0054 507.536 70.9044 501.15 70.9044C490.42 70.9044 483.742 63.6605 483.742 52.9364V19.4175H495.831V50.2324C495.831 56.1225 498.151 59.794 504.535 59.794C507.341 59.794 509.268 58.7308 510.723 57.2813C513.625 54.5737 514.402 50.0374 514.402 45.9796V19.4175H526.488V69.6463H516.432V69.6498H516.435ZM586.428 48.3009H552.776C552.681 52.1638 554.033 55.8354 556.452 58.1532C558.195 59.794 560.611 61.2435 563.9 61.2435C567.381 61.2435 569.514 60.5666 571.252 58.823C572.32 57.7633 573.186 56.4095 573.672 54.5737H585.278C584.987 57.5719 582.958 61.5306 581.024 63.8448C576.773 68.8666 570.479 70.8973 564.095 70.8973C557.23 70.8973 552.198 68.4839 548.238 64.7166C543.207 59.8862 540.5 52.8336 540.5 44.6258C540.5 36.6093 542.916 29.4611 547.752 24.535C551.52 20.672 556.942 18.1593 563.801 18.1593C571.252 18.1593 578.022 21.154 582.181 27.4304C585.853 32.9377 586.726 38.6365 586.534 44.9164C586.534 44.9199 586.428 47.2377 586.428 48.3009V48.3009ZM571.341 30.7192C569.698 28.9791 567.182 27.8202 563.705 27.8202C560.029 27.8202 557.031 29.369 555.289 31.6832C553.554 33.9053 552.777 36.223 552.681 39.5083H574.442C574.343 35.741 573.275 32.8456 571.341 30.7192V30.7192Z" fill="#213E88"/>
</svg>
