<svg width="100" height="80" viewBox="0 0 100 80" fill="none" xmlns="http://www.w3.org/2000/svg">
<path fill-rule="evenodd" clip-rule="evenodd" d="M26.096 0.898621C26.5847 0.982169 27.0734 1.06639 27.5597 1.15266C29.5314 1.50247 31.3802 2.16869 33.0125 3.34767C34.7145 4.57216 35.8844 6.16563 36.2696 8.25033C36.6043 10.0476 36.4092 11.7681 35.3524 13.316C34.5122 14.5477 33.3206 15.2283 31.8569 15.4655C30.7712 15.6401 29.7312 15.5198 28.749 15.0219C26.1057 13.6801 26.1417 10.4739 27.6777 8.83002C28.1712 8.30767 28.7875 7.97218 29.4832 7.7805C29.6277 7.73974 29.7697 7.69903 29.9358 7.64876C29.772 7.29895 29.4976 7.08836 29.2232 6.88676C28.4937 6.35966 27.6632 6.06005 26.7845 5.90192C25.1595 5.61188 23.5803 5.77757 22.0853 6.48399C20.482 7.23402 19.3866 8.48013 18.7944 10.1336C18.0939 12.0841 18.1035 14.0587 18.7968 16.0044C19.5335 18.0675 21.0236 19.4118 23.041 20.2098C24.0907 20.6242 25.186 20.8422 26.3079 20.9431C27.473 21.0559 28.631 21.0266 29.7865 20.8663C29.8659 20.8595 29.9502 20.8595 30.1018 20.8527C29.5722 22.705 29.0498 24.5166 28.5154 26.3257C27.7378 26.484 26.9747 26.6158 26.226 26.7904C23.2264 27.4877 20.3785 28.5565 17.8218 30.3058C16.0163 31.5398 14.4924 33.0446 13.4789 34.9951C12.3378 37.1997 12.0176 39.5217 12.6219 41.9323C13.2141 44.2878 14.7596 45.8023 17.0322 46.5931C18.7462 47.1895 20.5229 47.2903 22.3188 47.1059C24.1749 46.9164 25.9564 46.4254 27.6824 45.728C27.7691 45.6941 27.863 45.6601 27.9689 45.62C28.2409 47.5419 28.9728 49.2791 29.9791 50.9181C29.2063 51.4642 28.3806 51.8863 27.538 52.2625C25.1619 53.3192 22.6895 54.0453 20.104 54.3759C16.8492 54.793 13.6402 54.5961 10.4889 53.6739C8.66653 53.144 6.99099 52.3175 5.51045 51.1194C3.4088 49.4229 2.01732 47.271 1.34807 44.6663C1.18921 44.0387 1.10971 43.3939 0.989405 42.7589C0.970297 42.6509 0.934162 42.5483 0.902771 42.4424V40.3743C0.938939 40.2161 0.979796 40.0558 1.00627 39.8949C1.15797 39.0849 1.25428 38.2606 1.4661 37.4651C2.42905 33.8539 4.54991 31.0095 7.43154 28.6875C9.733 26.8328 12.3282 25.4909 15.1255 24.5492C16.2498 24.1681 17.4078 23.8923 18.5513 23.5667C18.6909 23.5259 18.8281 23.4634 18.9653 23.4159C18.8618 23.3344 18.78 23.3174 18.6981 23.3079C17.1766 23.0973 15.7322 22.6586 14.3889 21.9038C12.6748 20.9357 11.3147 19.6273 10.3999 17.8708C9.41046 15.973 9.25634 13.9482 9.59338 11.8778C10.1086 8.72915 11.7239 6.21778 14.2565 4.28639C16.765 2.37422 19.6394 1.41334 22.7497 1.06352C23.118 1.02277 23.484 0.955506 23.8499 0.900486L26.096 0.898621Z" fill="#213E88"/>
<path fill-rule="evenodd" clip-rule="evenodd" d="M11.1308 79.1014C11.049 79.0151 10.9744 78.9166 10.8805 78.8426C7.84717 76.4655 4.80908 74.0908 1.77096 71.7161C1.56631 71.5558 1.35924 71.3976 1.10648 71.2033C1.7059 70.9275 2.27168 70.664 2.84222 70.4126C8.00847 68.1457 13.3192 66.2599 18.6972 64.5538C23.8635 62.9147 29.0779 61.441 34.3404 60.1422C38.2717 59.1717 42.215 58.2397 46.1703 57.365C49.909 56.5407 53.6645 55.7907 57.4248 55.0574C60.3835 54.4821 63.3566 53.9767 66.3273 53.4615C68.8069 53.0349 71.2889 52.63 73.7782 52.2418C75.9087 51.9062 78.044 51.6046 80.1818 51.2977C82.0956 51.0199 84.0143 50.7536 85.933 50.4949C87.5532 50.2789 89.1734 50.0873 90.7911 49.8883C92.303 49.7015 93.81 49.5168 95.3242 49.3395C96.3786 49.2172 97.4427 49.1072 98.4996 48.9945C98.6223 48.9809 98.7475 48.9921 98.928 48.9921C98.7957 50.2189 98.6079 51.4363 98.4273 52.6512C97.6305 52.7707 96.8649 52.8787 96.1042 53.0085C94.0964 53.344 92.0863 53.655 90.093 54.0412C87.2691 54.5873 84.4525 55.1627 81.643 55.781C77.1196 56.773 72.6201 57.8752 68.1376 59.0422C61.5823 60.7484 55.0607 62.5839 48.5993 64.6111C44.591 65.8715 40.602 67.1799 36.6274 68.5387C31.4322 70.3046 26.2997 72.248 21.2418 74.3735C17.9654 75.7514 14.7298 77.2202 11.5714 78.8497C11.4437 78.9176 11.333 79.0175 11.215 79.101L11.1308 79.1014Z" fill="#213E88"/>
<path fill-rule="evenodd" clip-rule="evenodd" d="M63.2482 18.2315C62.4465 20.4983 62.6295 22.6909 63.2939 24.8571C61.8832 26.5537 61.1393 28.5306 60.6097 30.601C60.2052 32.1825 60.003 33.7976 60.0271 35.427C60.0462 36.6755 60.2438 37.8976 60.7493 39.0526C60.9973 39.6231 61.3247 40.1452 61.7508 40.6101C62.6632 41.5949 63.8019 42.0167 65.1356 41.9808C66.9604 41.9264 68.3856 41.0822 69.5507 39.7523C70.9494 38.1564 71.7414 36.2585 72.2494 34.236C72.7549 32.216 72.8247 30.1744 72.5672 28.1185C72.5358 27.8624 72.531 27.5506 72.3794 27.3732C72.2518 27.2224 71.9388 27.2129 71.6981 27.1674C70.3957 26.9181 69.1631 26.4844 68.0846 25.6937C66.4644 24.5075 65.6459 22.9116 65.6796 20.9083C65.694 20.0241 65.9252 19.1879 66.4644 18.4643C67.1554 17.5321 68.1183 17.0695 69.2594 16.9545C70.9807 16.7868 72.4371 17.3858 73.6818 18.5408C74.7771 19.5593 75.4969 20.8221 76.0289 22.2023C76.1108 22.4034 76.1807 22.6146 76.2601 22.8184C76.2697 22.8456 76.2962 22.8592 76.3564 22.9237C76.9438 22.8327 77.5769 22.7532 78.1956 22.6316C80.8847 22.1018 83.3113 20.9519 85.5405 19.4015C86.9103 18.4478 88.2248 17.415 89.5609 16.4038C90.4974 15.6993 91.4242 14.9732 92.4666 14.4292C92.8806 14.2159 93.3188 14.0482 93.781 13.8471C94.5056 15.1435 95.2062 16.3895 95.8971 17.6332C95.5167 17.9015 95.1291 18.1365 94.7873 18.4263C93.8556 19.2147 93.3356 20.2259 93.2971 21.4504C93.278 22.1045 93.4753 22.7276 93.7257 23.3291C94.1157 24.2468 94.6381 25.0904 95.1677 25.9314C96.0368 27.3213 96.9251 28.6991 97.6401 30.18C98.3815 31.7064 98.875 33.3095 99.0484 34.994C99.2097 36.5923 98.9617 38.1547 98.4441 39.6715C97.5197 42.3649 95.7166 44.3274 93.2634 45.7268C91.4988 46.7357 89.5922 47.33 87.5748 47.5361C85.6272 47.7399 83.7037 47.6129 81.8356 46.9777C81.0556 46.7094 80.343 46.3256 79.705 45.8035C78.2149 44.6007 77.6564 42.3362 78.4195 40.5893C79.096 39.0389 80.8173 38.1882 82.4567 38.586C84.0552 38.9765 85.0518 40.5438 84.7437 42.2021C84.6761 42.5641 84.5656 42.9161 84.4596 43.3235C84.6956 43.3778 84.9314 43.4552 85.1674 43.4837C86.5709 43.678 87.8709 43.4144 89.0312 42.5875C90.2566 41.7153 90.9283 40.5028 91.1955 39.0435C91.4651 37.6057 91.2384 36.2279 90.6682 34.8884C90.0471 33.4266 89.2527 32.056 88.492 30.6662C87.8155 29.4178 87.1342 28.1717 86.6889 26.8178C86.465 26.1467 86.3037 25.4639 86.3133 24.7546C86.3157 24.5386 86.3495 24.3206 86.3809 24.031C83.5667 25.888 80.4876 26.8082 77.1943 27.182C77.2427 27.6059 77.3027 28.0112 77.3267 28.4209C77.3751 29.2596 77.4375 30.1007 77.4278 30.9418C77.4135 32.3173 77.2665 33.6855 76.9752 35.037C76.2819 38.2768 74.929 41.2026 72.7214 43.697C70.6872 45.995 68.2244 47.6485 65.1911 48.341C62.1121 49.0383 59.1943 48.6452 56.5318 46.8744C55.2968 46.0549 54.329 44.9934 53.6862 43.6539C53.6528 43.5846 53.6092 43.5147 53.5466 43.4074C53.2433 43.7959 52.9761 44.155 52.6872 44.5001C50.287 47.3468 47.3934 49.4843 43.8088 50.6321C42.3427 51.0994 40.8405 51.3032 39.3069 51.2C37.4605 51.0777 35.7464 50.5628 34.2755 49.3883C32.9852 48.3603 32.1859 47.0184 31.7694 45.4465C31.4228 44.1213 31.3746 42.7843 31.5528 41.428C31.921 38.6364 32.6554 35.9215 33.3896 33.2137C34.0781 30.676 34.8124 28.1527 35.5249 25.6199C35.5563 25.5023 35.5877 25.3875 35.6381 25.2007C34.4705 25.3828 33.3607 25.5554 32.1955 25.7422C32.2269 25.5887 32.244 25.4711 32.275 25.3611C32.6915 23.849 33.1128 22.3371 33.522 20.8226C33.599 20.5448 33.7122 20.4007 34.0275 20.3287C35.5466 20.0027 36.9453 19.4014 38.1442 18.3854C39.1769 17.5083 39.9232 16.4277 40.5034 15.2272C41.1365 13.914 41.5361 12.5241 41.9093 11.1271C41.9427 10.9932 41.9768 10.8615 42.0248 10.6815C44.2324 10.0009 46.4592 9.3109 48.7607 8.60162C47.8339 12.033 46.8805 15.4093 45.9441 18.8527C47.0009 18.8459 48.0072 18.6754 49.0183 18.5966C50.0366 18.5178 51.0501 18.3929 52.0684 18.2944C52.0827 18.6129 50.8912 23.0198 50.6192 23.6668C48.5753 23.8753 46.5146 24.0859 44.4418 24.2971C44.3335 24.6829 44.23 25.0376 44.1337 25.397C43.0648 29.3963 41.996 33.4029 40.9319 37.4046C40.5997 38.6603 40.3084 39.9207 40.176 41.2147C40.1159 41.7948 40.1569 42.3673 40.3662 42.9208C40.7442 43.9129 41.4856 44.4329 42.528 44.5287C43.5873 44.6272 44.5911 44.378 45.5637 43.9942C47.1117 43.3781 48.4766 42.475 49.7333 41.3991C50.5951 40.661 51.3703 39.8366 52.0685 38.9357C52.2538 38.6959 52.3405 38.4779 52.302 38.1521C52.1191 36.5946 52.2488 35.0394 52.4802 33.501C52.8341 31.1406 53.5442 28.8906 54.6203 26.7555C55.7518 24.5007 57.2251 22.5022 59.1149 20.82C60.2656 19.7944 61.5464 18.9558 62.9667 18.3375C63.0389 18.3103 63.1159 18.2831 63.2483 18.2322" fill="#213E88"/>
</svg>
