<svg width="205" height="63" viewBox="0 0 205 63" fill="none" xmlns="http://www.w3.org/2000/svg">
<path fill-rule="evenodd" clip-rule="evenodd" d="M52.3203 44.1539C51.8749 44.0528 51.5981 43.7121 51.704 43.3944C51.8087 43.0791 52.2553 42.9057 52.7018 43.0092C53.1483 43.1128 53.4228 43.451 53.318 43.7687C53.2121 44.0829 52.7656 44.2574 52.3203 44.1539ZM56.1561 14.9209C56.185 14.7585 56.469 14.6706 56.7904 14.7284C57.1106 14.7849 57.3477 14.9631 57.3188 15.1267C57.2899 15.2892 57.0059 15.3759 56.6857 15.3193C56.3631 15.2615 56.126 15.0834 56.1561 14.9209ZM52.8787 16.0908C52.5441 16.0318 52.3118 15.8429 52.3612 15.6696C52.4105 15.4962 52.7223 15.4036 53.0569 15.4638C53.3915 15.5227 53.6225 15.7117 53.5744 15.8838C53.5251 16.0571 53.2133 16.1486 52.8787 16.0908ZM40.927 18.5967C40.5937 18.551 40.4047 18.3524 40.507 18.1538C40.6093 17.9552 40.962 17.8312 41.2953 17.8782C41.6299 17.9239 41.8177 18.1225 41.7166 18.3211C41.6143 18.5173 41.2616 18.6412 40.927 18.5967V18.5967ZM32.9845 20.2119C32.6523 20.153 32.5007 19.9459 32.6487 19.751C32.798 19.556 33.1879 19.4453 33.5213 19.5054C33.8547 19.5656 34.0052 19.7726 33.8571 19.9664C33.7091 20.1614 33.3191 20.2709 32.9845 20.2119ZM28.8959 21.0244C28.5818 20.9678 28.4542 20.7788 28.6107 20.6019C28.7672 20.4238 29.1487 20.3263 29.4616 20.3816C29.7746 20.4382 29.9021 20.6272 29.7445 20.8041C29.588 20.9834 29.2089 21.0809 28.8959 21.0244ZM24.9397 21.8296C24.628 21.7742 24.5161 21.5828 24.6906 21.4035C24.8651 21.2254 25.2599 21.1255 25.5716 21.1808C25.8845 21.2362 25.9965 21.4276 25.8208 21.6069C25.6474 21.7862 25.2515 21.8861 24.9397 21.8296ZM22.4098 27.7826C22.0547 27.7188 21.9283 27.4756 22.1257 27.2385C22.3219 27.0014 22.7696 26.8618 23.1247 26.9244C23.4798 26.987 23.6061 27.2313 23.41 27.4684C23.2102 27.7043 22.7636 27.8451 22.4098 27.7826V27.7826ZM64.3153 21.6803C63.9398 21.5913 63.6653 21.3517 63.7014 21.1423C63.7387 20.9341 64.0734 20.8366 64.4489 20.9257C64.8244 21.0147 65.1 21.2555 65.0627 21.4649C65.0266 21.6719 64.692 21.7694 64.3153 21.6803V21.6803ZM68.1355 24.7603C67.766 24.6652 67.4976 24.4233 67.5337 24.2211C67.5686 24.0201 67.8972 23.9323 68.2655 24.0273C68.635 24.1224 68.9034 24.3631 68.8685 24.5666C68.8312 24.77 68.5038 24.8566 68.1355 24.7603V24.7603ZM71.7366 27.9101C71.3503 27.8127 71.0674 27.5587 71.1059 27.3432C71.1445 27.1266 71.4875 27.0315 71.875 27.1278C72.2602 27.2265 72.543 27.4793 72.5057 27.6947C72.466 27.9113 72.123 28.0076 71.7366 27.9101ZM79.2495 34.2423C78.8342 34.1062 78.5309 33.8005 78.573 33.5586C78.6152 33.3191 78.9871 33.2324 79.4023 33.366C79.8187 33.4996 80.1221 33.8054 80.0787 34.0449C80.0378 34.2868 79.6647 34.3746 79.2495 34.2423ZM26.8679 26.7246C26.5273 26.662 26.3913 26.4333 26.5634 26.2131C26.7355 25.9928 27.1495 25.864 27.4901 25.9254C27.8308 25.988 27.9668 26.2167 27.7958 26.4369C27.6237 26.6572 27.2085 26.786 26.8679 26.7246ZM37.1682 55.446C36.6579 55.3497 36.369 54.8911 36.5219 54.4229C36.676 53.9547 37.2152 53.6563 37.7255 53.755C38.2358 53.8512 38.5259 54.3098 38.3718 54.778C38.2178 55.2462 37.6786 55.5447 37.1682 55.446ZM36.9275 39.2215C36.5075 39.1397 36.28 38.8388 36.4208 38.5487C36.5616 38.2574 37.0154 38.0926 37.4366 38.1744C37.8567 38.2562 38.0842 38.5571 37.9433 38.8472C37.8025 39.1373 37.3476 39.3034 36.9275 39.2215ZM38.9122 43.8385C38.4705 43.7495 38.2226 43.4088 38.361 43.0791C38.4994 42.7481 38.9688 42.5507 39.4129 42.6373C39.8546 42.7264 40.1026 43.067 39.9642 43.3992C39.8258 43.7302 39.3552 43.9276 38.9122 43.8385V43.8385ZM40.9704 48.4976C40.4962 48.4014 40.2254 48.0066 40.3662 47.6166C40.507 47.229 41.0053 46.9895 41.4783 47.0882C41.9525 47.1845 42.2233 47.5793 42.0825 47.9693C41.9417 48.3592 41.4434 48.5963 40.9704 48.4976ZM43.0069 53.1447C42.505 53.0388 42.2125 52.6091 42.3497 52.1806C42.4881 51.7546 43.0057 51.4922 43.5064 51.5957C44.007 51.6992 44.3019 52.1313 44.1647 52.5574C44.0263 52.9846 43.5064 53.2482 43.0069 53.1447V53.1447ZM37.563 28.8959C37.1983 28.8261 37.0094 28.5854 37.1405 28.3615C37.2705 28.1376 37.6737 28.0136 38.0396 28.0859C38.4031 28.1557 38.5933 28.3964 38.4621 28.6203C38.3309 28.8429 37.9289 28.9681 37.563 28.8959ZM39.7018 33.0748C39.3275 33.0001 39.1241 32.7414 39.248 32.4982C39.3732 32.2563 39.7764 32.1203 40.1507 32.1949C40.525 32.2696 40.7273 32.5283 40.6045 32.7715C40.4805 33.0134 40.0761 33.1494 39.7018 33.0748ZM46.6188 46.2975C46.1531 46.1964 45.875 45.8293 45.9978 45.479C46.1218 45.1264 46.5996 44.9242 47.0654 45.0253C47.5312 45.1264 47.8092 45.4935 47.6864 45.8461C47.5625 46.1964 47.0846 46.3986 46.6188 46.2975ZM48.943 50.693C48.4519 50.5847 48.1546 50.173 48.2786 49.771C48.4026 49.3714 48.9021 49.1368 49.3931 49.2439C49.8842 49.3546 50.1815 49.7686 50.0575 50.1682C49.9335 50.569 49.434 50.8037 48.943 50.693ZM39.6079 23.6145C39.2444 23.5447 39.0519 23.3148 39.1794 23.0994C39.307 22.8839 39.7042 22.7684 40.0665 22.8358C40.4312 22.9056 40.6225 23.1367 40.495 23.3509C40.3674 23.5652 39.9702 23.6843 39.6079 23.6145ZM54.7708 48.3725C54.2942 48.2437 54.0065 47.8345 54.1281 47.4625C54.252 47.0882 54.7383 46.8932 55.2149 47.0232C55.6915 47.1532 55.9804 47.5612 55.8564 47.9356C55.7349 48.3099 55.2486 48.5049 54.7708 48.3725ZM57.2068 52.5574C56.6941 52.372 56.3932 51.9062 56.5352 51.5187C56.6785 51.1335 57.2105 50.9686 57.7244 51.1564C58.2383 51.3417 58.538 51.8051 58.3972 52.1927C58.254 52.5814 57.722 52.7427 57.2068 52.5574ZM60.5625 46.0712C60.0907 45.9508 59.7849 45.5825 59.8812 45.2455C59.9763 44.9097 60.4361 44.7328 60.9079 44.8532C61.3797 44.9735 61.6854 45.3442 61.5891 45.6812C61.4953 46.017 61.0343 46.194 60.5625 46.0712ZM63.273 50.0888C62.7638 49.9058 62.4389 49.4569 62.546 49.085C62.6543 48.7131 63.1538 48.5602 63.6641 48.742C64.1732 48.9249 64.4982 49.3763 64.3911 49.7482C64.2828 50.1201 63.7833 50.2729 63.273 50.0888ZM51.0818 25.255C50.7195 25.1984 50.4944 24.9746 50.5787 24.7567C50.6641 24.5365 51.0264 24.4053 51.3887 24.4618C51.751 24.5172 51.9772 24.7411 51.8918 24.9601C51.8075 25.1792 51.4452 25.3104 51.0818 25.255ZM54.2051 28.9609C53.826 28.8742 53.5864 28.6082 53.6707 28.3675C53.7549 28.1268 54.1305 28.0028 54.5108 28.0919C54.8899 28.1785 55.1294 28.4445 55.0452 28.6841C54.9597 28.9248 54.5842 29.0475 54.2051 28.9609V28.9609ZM57.107 32.6511C56.6905 32.55 56.4329 32.2587 56.5328 31.9975C56.6315 31.734 57.0492 31.6052 57.4668 31.7063C57.8833 31.8074 58.1408 32.1011 58.0409 32.3622C57.9422 32.6234 57.5234 32.7522 57.107 32.6511V32.6511ZM63.2212 40.0845C62.7662 39.9714 62.4401 39.6548 62.4906 39.3744C62.5424 39.0951 62.9528 38.9579 63.4078 39.0687C63.8627 39.1818 64.1889 39.4959 64.1383 39.7764C64.0854 40.058 63.6762 40.1952 63.2212 40.0845V40.0845ZM66.1808 43.7964C65.7187 43.67 65.4117 43.3077 65.4948 42.99C65.5778 42.6698 66.0196 42.5146 66.4817 42.6421C66.9427 42.7685 67.2496 43.1284 67.1666 43.4486C67.0835 43.7675 66.6418 43.9228 66.1808 43.7964ZM69.1754 47.7177C68.6939 47.5793 68.3726 47.1749 68.458 46.8174C68.5435 46.46 69.0045 46.2818 69.4859 46.4202C69.9685 46.5586 70.2887 46.9631 70.2032 47.3205C70.1178 47.6792 69.6568 47.8561 69.1754 47.7177ZM52.2553 20.5116C51.8954 20.437 51.6799 20.2192 51.775 20.0266C51.8689 19.8328 52.236 19.7377 52.5959 19.8123C52.9558 19.8882 53.1712 20.106 53.0773 20.2986C52.9834 20.4912 52.6139 20.5875 52.2553 20.5116ZM55.5652 24.0478C55.2161 23.9876 54.9886 23.7638 55.056 23.5483C55.1246 23.3317 55.4616 23.2053 55.8107 23.2667C56.1597 23.3256 56.3872 23.5495 56.3198 23.765C56.2524 23.9804 55.913 24.108 55.5652 24.0478ZM58.8377 27.5804C58.4405 27.4853 58.1781 27.212 58.2516 26.9713C58.3238 26.7306 58.7029 26.6115 59.0989 26.7077C59.4961 26.8028 59.7585 27.076 59.6863 27.3168C59.614 27.5563 59.2337 27.6754 58.8377 27.5804ZM62.1344 31.0575C61.7239 30.9528 61.4483 30.6676 61.5181 30.4196C61.5891 30.1717 61.9779 30.0561 62.3895 30.1609C62.7987 30.2644 63.0744 30.5496 63.0046 30.7964C62.9348 31.0431 62.546 31.1611 62.1344 31.0575ZM65.3636 34.5672C64.9736 34.4637 64.71 34.1797 64.775 33.9353C64.84 33.691 65.2083 33.5779 65.5995 33.6838C65.9895 33.7873 66.2531 34.0713 66.1893 34.3157C66.1231 34.56 65.7536 34.6731 65.3636 34.5672V34.5672ZM68.5074 38.166C68.0753 38.0408 67.7816 37.7074 67.8526 37.4209C67.9248 37.1345 68.3329 36.9973 68.765 37.1249C69.1982 37.2476 69.4919 37.581 69.4197 37.8699C69.3487 38.1563 68.9419 38.2899 68.5074 38.166ZM71.8594 41.6047C71.4068 41.4686 71.0999 41.1112 71.1721 40.8006C71.2444 40.4949 71.6692 40.3517 72.1206 40.4877C72.5719 40.6237 72.88 40.9836 72.8066 41.2893C72.7344 41.5986 72.3095 41.7395 71.8594 41.6047V41.6047ZM75.0814 45.2612C74.612 45.1155 74.2894 44.7304 74.3617 44.403C74.4351 44.0744 74.8756 43.9276 75.3462 44.0744C75.8168 44.2201 76.1394 44.6028 76.066 44.9326C75.9925 45.2612 75.552 45.4068 75.0814 45.2612ZM56.4895 19.444C56.1357 19.3718 55.8889 19.1648 55.9383 18.9795C55.9888 18.7941 56.315 18.7026 56.6688 18.7748C57.0227 18.8459 57.2694 19.0541 57.2201 19.2382C57.1707 19.4236 56.8434 19.5151 56.4895 19.444V19.444ZM60.0401 22.8647C59.6682 22.7792 59.413 22.5253 59.4684 22.3014C59.5238 22.0751 59.8704 21.962 60.2423 22.0486C60.613 22.1353 60.8682 22.388 60.8128 22.6119C60.7574 22.837 60.4108 22.9501 60.0401 22.8647V22.8647ZM63.4005 26.1336C63.0286 26.0397 62.7699 25.7906 62.8216 25.5764C62.8734 25.3609 63.2176 25.2622 63.5895 25.3549C63.9626 25.4476 64.2214 25.6979 64.1684 25.9122C64.1167 26.1276 63.7737 26.2263 63.4005 26.1336V26.1336ZM66.9427 29.464C66.554 29.3581 66.2807 29.086 66.3337 28.855C66.3866 28.6239 66.7465 28.5204 67.1365 28.6263C67.5265 28.731 67.7985 29.003 67.7443 29.2353C67.6926 29.4652 67.3327 29.5687 66.9427 29.464ZM70.403 32.7594C69.9661 32.6367 69.6604 32.3249 69.717 32.0686C69.776 31.8098 70.1756 31.7015 70.6125 31.8242C71.0494 31.9494 71.3563 32.2587 71.2985 32.5175C71.2407 32.7763 70.8387 32.8834 70.403 32.7594V32.7594ZM73.9657 36.038C73.5396 35.9128 73.2375 35.6119 73.2905 35.37C73.3434 35.1257 73.7334 35.0318 74.1583 35.1558C74.5843 35.281 74.8876 35.5795 74.8347 35.8214C74.7805 36.0669 74.393 36.1632 73.9657 36.038ZM77.4826 39.4514C77.0409 39.3106 76.7291 38.9676 76.7893 38.6871C76.8471 38.4055 77.2539 38.2924 77.6956 38.4332C78.1361 38.574 78.4467 38.9146 78.3889 39.1975C78.3311 39.4803 77.9243 39.5934 77.4826 39.4514ZM80.9357 42.8082C80.4759 42.6554 80.1534 42.2907 80.2123 41.9922C80.2725 41.6937 80.6926 41.5758 81.1523 41.7286C81.6121 41.8815 81.9359 42.2486 81.8757 42.5471C81.8155 42.8468 81.3943 42.9611 80.9357 42.8082V42.8082ZM36.9889 19.3815C36.6507 19.3213 36.481 19.1167 36.611 18.9253C36.741 18.7339 37.1189 18.628 37.4595 18.6882C37.7977 18.7484 37.9674 18.953 37.8374 19.1431C37.7062 19.3357 37.3271 19.4416 36.9889 19.3815V19.3815ZM20.4515 22.2412C20.6573 22.0414 21.0942 21.9295 21.4252 21.9896C21.755 22.0486 21.8561 22.258 21.6503 22.4566C21.4433 22.6564 21.0076 22.7684 20.6778 22.7082C20.3468 22.6468 20.2445 22.4386 20.4515 22.2412V22.2412ZM23.6711 32.6162C23.2992 32.55 23.1488 32.278 23.3353 32.0072C23.5207 31.7364 23.972 31.5703 24.3427 31.6365C24.7134 31.7039 24.8639 31.9759 24.6773 32.2467C24.4932 32.5175 24.0418 32.6836 23.6711 32.6162ZM28.2231 47.6226C27.7621 47.5408 27.5299 47.1472 27.7056 46.7416C27.8801 46.3396 28.3952 46.076 28.8562 46.1591C29.316 46.2385 29.5483 46.6345 29.3738 47.0377C29.1968 47.4421 28.6817 47.7057 28.2231 47.6226V47.6226ZM31.4066 57.8231C30.8662 57.7292 30.5665 57.249 30.7362 56.7555C30.9083 56.262 31.4837 55.9395 32.0229 56.0358C32.5633 56.1296 32.8618 56.6075 32.6921 57.1009C32.5212 57.5956 31.9446 57.917 31.4066 57.8231ZM32.1541 61.6481C32.246 61.3646 32.4356 61.123 32.6891 60.9662C32.9426 60.8095 33.2435 60.7479 33.5382 60.7924C34.128 60.8959 34.4638 61.4483 34.288 62.0261C34.1956 62.3097 34.0056 62.5515 33.7517 62.7082C33.4978 62.8649 33.1965 62.9264 32.9015 62.8818C32.3129 62.7783 31.9783 62.2259 32.1541 61.6481V61.6481ZM75.4196 30.9348C74.9923 30.8096 74.677 30.5207 74.7179 30.2921C74.7576 30.0622 75.138 29.9803 75.5665 30.1067C75.9925 30.2331 76.3091 30.5207 76.2682 30.7494C76.2272 30.9769 75.8481 31.0611 75.4196 30.9348ZM82.9481 37.2657C82.4859 37.108 82.1489 36.7698 82.1946 36.5062C82.2428 36.2426 82.6544 36.1536 83.1178 36.3112C83.58 36.4641 83.9158 36.8047 83.8701 37.0683C83.8231 37.3319 83.4115 37.4185 82.9481 37.2657V37.2657ZM33.5767 45.6487C33.1242 45.5645 32.9063 45.2142 33.0941 44.8688C33.2806 44.5234 33.7994 44.3139 34.2531 44.3982C34.7057 44.4824 34.9235 44.8327 34.7358 45.1781C34.5492 45.5236 34.0305 45.7354 33.5767 45.6487ZM35.423 50.6268C34.944 50.5377 34.6804 50.1285 34.8345 49.7169C34.9885 49.3053 35.5013 49.0441 35.9803 49.1367C36.4605 49.2282 36.7241 49.635 36.57 50.0491C36.416 50.4607 35.9021 50.7195 35.423 50.6268ZM39.035 60.3037C38.4729 60.1954 38.1431 59.6766 38.302 59.1471C38.4597 58.6163 39.0434 58.2744 39.6055 58.3828C40.1676 58.4911 40.4962 59.0086 40.3385 59.5394C40.1808 60.0702 39.5971 60.4108 39.035 60.3037ZM45.0108 57.8556C44.4837 57.7425 44.1683 57.2658 44.3055 56.788C44.4439 56.309 44.9832 56.0105 45.5103 56.1224C46.0387 56.2331 46.3553 56.7098 46.2156 57.19C46.0784 57.6678 45.5392 57.9663 45.0108 57.8556ZM51.219 55.1692C50.7014 55.0512 50.3861 54.5927 50.5113 54.1437C50.6364 53.6948 51.1564 53.4264 51.6715 53.5467C52.1879 53.6647 52.5044 54.1232 52.3792 54.5722C52.2553 55.0211 51.7353 55.2895 51.219 55.1692ZM85.9306 39.6633C85.9824 39.3599 86.4036 39.2564 86.8682 39.431C87.3328 39.6055 87.6662 39.9882 87.6132 40.2891C87.5603 40.59 87.1402 40.6959 86.6768 40.5214C86.2122 40.3469 85.8776 39.9642 85.9306 39.6633V39.6633ZM29.86 52.8258C29.3689 52.7391 29.1114 52.3034 29.2823 51.8545C29.4544 51.4055 29.99 51.1119 30.4811 51.1985C30.9709 51.2852 31.2309 51.7209 31.0588 52.1698C30.8867 52.6188 30.3511 52.9124 29.86 52.8258Z" fill="#213E88"/>
<path fill-rule="evenodd" clip-rule="evenodd" d="M43.7567 0.367065C49.7855 0.367065 54.7142 5.27533 53.2567 12.9001L50.7833 29.0644C50.3825 31.3741 51.4862 32.9713 53.5937 32.9713H61.5687L59.9414 43.8253H49.7362C41.8298 43.8253 38.5584 37.953 39.3961 32.6668L42.257 14.62C42.5916 12.5089 41.246 10.8588 39.2878 10.8588H29.9455L31.6077 0.369471H43.7567V0.367065V0.367065Z" fill="#213E88"/>
<path fill-rule="evenodd" clip-rule="evenodd" d="M15.8128 33.3143L14.1447 43.853H23.2294C31.5619 43.853 36.1825 38.9182 37.1466 32.8353L38.8665 21.9331H28.3495L27.1964 29.2534C26.8847 31.2176 25.2045 33.3167 21.9235 33.3167L15.8128 33.3143V33.3143Z" fill="#213E88"/>
<path fill-rule="evenodd" clip-rule="evenodd" d="M22.0162 9.30859C21.016 9.22675 17.5858 9.20629 16.8564 9.29295L16.7481 11.7591C16.7481 11.7591 18.5848 11.8061 19.4622 11.8061C21.0931 11.8061 22.8985 11.6652 22.8985 11.6652L22.7877 15.0389H12.8581C12.899 14.5996 13.508 6.41394 13.6272 0.36707H23.4774L23.3053 3.69501C23.3053 3.69501 21.6419 3.58428 19.946 3.58428C18.9904 3.58428 17.1537 3.64807 17.1537 3.64807L17.0129 5.97824C17.0129 5.97824 18.1972 6.04203 19.5308 6.04203C21.2869 6.04203 22.1426 5.95537 22.1426 5.95537L22.0162 9.30859ZM60.571 18.5558C60.2075 18.48 59.9415 18.2585 59.9764 18.0611C60.0101 17.8638 60.3339 17.7651 60.6973 17.8397C61.0608 17.9155 61.3268 18.137 61.2931 18.3344C61.257 18.5306 60.9332 18.6304 60.571 18.5558V18.5558ZM118.498 11.0731C118.387 11.782 117.923 12.125 116.793 12.125C115.745 12.125 114.711 11.7699 113.737 11.2644V14.8873C114.83 15.2339 116.476 15.3446 117.254 15.3446C121.26 15.3446 122.4 13.3984 122.483 11.2018C122.609 7.68133 117.941 5.83862 118.004 4.35097C118.041 3.50003 118.744 3.25088 119.534 3.25088C120.168 3.25088 121.384 3.42661 122.035 3.76121V0.415215C120.749 0.0986695 120.404 0.0324707 118.833 0.0324707C115.679 0.0324707 113.977 1.56224 114.068 4.44606C114.12 6.05286 115.138 7.29016 116.283 8.38182C117.319 9.36756 118.606 10.3882 118.498 11.0731V11.0731ZM74.5254 0.340588C74.4604 6.10822 73.6011 13.5741 73.5048 15.0389H76.6907C76.787 11.6604 77.2961 7.35395 77.384 4.93953C77.3876 4.85528 77.5392 4.85167 77.5392 4.93111C77.5392 5.35839 79.3952 14.3372 79.4903 15.0389H82.4391C83.4585 11.8121 84.9762 6.70882 85.4709 4.89981C85.4986 4.80834 85.6141 4.82399 85.6141 4.89861C85.5419 7.6729 85.5672 11.2668 85.2723 15.0389H88.6424C88.5473 10.4123 88.8013 4.29079 88.8663 0.340588H83.8954C83.2106 3.0234 81.6844 7.98825 81.4208 9.29295C81.4016 9.38081 81.3017 9.37238 81.2944 9.28934C81.1067 7.48153 79.8008 0.834063 79.6263 0.339385H74.5254V0.340588V0.340588ZM105.218 15.0401H101.538C101.801 12.2044 102.129 5.15136 102.095 0.293645C104.474 0.318921 108.346 0.293645 109.321 0.293645C111.806 0.293645 113.32 1.72112 113.208 4.33172C113.104 6.78826 111.83 7.8065 110.563 8.44441C110.529 8.45885 110.539 8.49617 110.556 8.53589C110.573 8.5756 112.985 15.0401 112.985 15.0401H108.794L106.121 6.70762C106.417 6.76298 106.763 6.79548 107.108 6.79548C108.201 6.79548 108.634 6.49939 108.892 6.24423C109.155 5.98666 109.449 5.44023 109.449 4.97805C109.449 3.64687 108.758 3.3532 107.742 3.3532H105.624C105.447 7.24726 105.311 11.1431 105.218 15.0401V15.0401ZM127.305 3.56743L127.242 5.95777C127.609 6.08535 129.873 6.03721 131.96 5.95777L131.863 9.31822C130.834 9.16777 127.498 9.20749 127.082 9.27128L126.894 15.0389H123.259C123.419 12.6173 123.896 5.03462 123.866 0.36707H133.339L133.169 3.66252C131.611 3.47235 127.929 3.48799 127.305 3.56743V3.56743ZM173.538 0.357438L173.314 3.72631C174.492 3.59993 176.819 3.59993 177.137 3.66252C177.186 4.89019 176.756 14.7525 176.723 15.0076H180.42C180.294 11.6604 180.546 4.96962 180.644 3.66252C181.121 3.56743 183.989 3.74196 184.435 3.80695L184.546 0.357438H173.538V0.357438ZM99.4146 9.30859C98.4144 9.22675 94.9853 9.20749 94.256 9.29295L94.1476 11.7603C94.1476 11.7603 95.9819 11.8073 96.8605 11.8073C98.4926 11.8073 100.298 11.6664 100.298 11.6664L100.187 15.0401H90.26C90.2997 14.602 90.91 6.41635 91.0291 0.369476H100.878L100.706 3.69742C100.706 3.69742 99.0426 3.5879 97.348 3.5879C96.3923 3.5879 94.5557 3.65048 94.5557 3.65048L94.4148 5.97944C94.4148 5.97944 95.598 6.04323 96.9327 6.04323C98.69 6.04323 99.5458 5.95657 99.5458 5.95657L99.4146 9.30859V9.30859ZM165.27 15.0401H161.591C161.852 12.2044 162.181 5.15136 162.148 0.293645C164.497 0.318921 168.642 0.293645 169.375 0.293645C171.859 0.293645 173.373 1.72112 173.261 4.33172C173.158 6.78826 171.883 7.8065 170.617 8.44441C170.582 8.45885 170.593 8.49617 170.607 8.53589C170.624 8.5756 173.038 15.0401 173.038 15.0401H168.845L166.172 6.70762C166.47 6.76298 166.813 6.79548 167.159 6.79548C168.254 6.79548 168.687 6.49939 168.943 6.24423C169.206 5.98666 169.502 5.44023 169.502 4.97805C169.502 3.64687 168.809 3.3532 167.796 3.3532H165.677C165.498 7.24721 165.363 11.1431 165.27 15.0401V15.0401ZM189.103 11.0731C188.99 11.782 188.529 12.125 187.396 12.125C186.35 12.125 185.314 11.7699 184.343 11.2644V14.8873C185.435 15.2339 187.078 15.3446 187.859 15.3446C191.863 15.3446 193.005 13.3984 193.085 11.2018C193.212 7.68133 188.547 5.83862 188.609 4.35097C188.644 3.50003 189.35 3.25088 190.139 3.25088C190.773 3.25088 191.989 3.42661 192.64 3.76121V0.415215C191.479 0.129963 190.945 0.0324707 189.436 0.0324707C186.282 0.0324707 184.58 1.56224 184.674 4.44606C184.725 6.05286 185.744 7.29016 186.888 8.38182C187.926 9.36756 189.211 10.3882 189.103 11.0731V11.0731ZM203.243 9.30859C202.244 9.22675 198.813 9.20749 198.085 9.29295L197.974 11.7603C197.974 11.7603 199.81 11.8073 200.69 11.8073C202.321 11.8073 204.126 11.6664 204.126 11.6664L204.015 15.0401H194.086C194.128 14.602 194.737 6.41635 194.855 0.369476H204.707L204.533 3.69742C204.533 3.69742 202.871 3.5879 201.176 3.5879C200.219 3.5879 198.384 3.65048 198.384 3.65048L198.243 5.97944C198.243 5.97944 199.427 6.04323 200.761 6.04323C202.517 6.04323 203.373 5.95657 203.373 5.95657L203.243 9.30859V9.30859Z" fill="#213E88"/>
<path fill-rule="evenodd" clip-rule="evenodd" d="M70.5547 4.1596C70.3958 3.63724 69.9649 1.10971 69.7928 0.227482L64.4753 0.367094C64.3502 0.840104 62.877 4.12228 62.7518 4.38827C61.092 7.91479 59.6152 11.5617 57.9952 15.0388H61.9033C62.6302 13.1877 63.1418 11.7603 63.8639 10.3328H68.5712C68.8853 11.3522 69.5003 13.219 69.7651 15.0388H73.9524C72.6237 11.4052 71.6776 7.80647 70.5547 4.1596V4.1596ZM67.66 7.16014H65.0001C64.9303 7.13246 64.8773 7.06024 64.9303 6.95914C65.5417 5.77601 66.4456 3.4904 66.5744 3.01258C66.5876 2.96082 66.6683 2.95842 66.6839 3.01258C66.9403 4.52789 67.6372 6.70037 67.7311 6.95914C67.7684 7.06626 67.7299 7.13246 67.66 7.16014ZM139.894 0C136.559 0 132.818 2.17729 132.818 8.09412C132.818 10.866 134.115 15.2795 139.764 15.2795C143.981 15.2795 146.773 12.3211 146.773 7.13727C146.775 2.63345 143.931 0 139.894 0ZM139.631 12.0274C138.09 12.0274 136.66 10.671 136.66 7.95692C136.66 5.99025 137.328 3.30866 139.844 3.30866C141.773 3.30866 142.982 4.85046 142.982 7.41651C142.983 10.1559 141.817 12.0274 139.631 12.0274V12.0274ZM154.279 0C150.945 0 147.206 2.17729 147.206 8.09412C147.206 10.866 148.501 15.2795 154.152 15.2795C158.369 15.2795 161.161 12.3211 161.161 7.13727C161.161 2.63345 158.317 0 154.279 0ZM154.016 12.0274C152.479 12.0274 151.046 10.671 151.046 7.95692C151.046 5.99025 151.714 3.30866 154.231 3.30866C156.159 3.30866 157.371 4.85046 157.371 7.41651C157.372 10.1559 156.206 12.0274 154.016 12.0274V12.0274ZM7.02177 0.365892H0.769097L0 15.0388H5.51607C11.3667 15.0388 12.3465 10.464 12.4825 7.86785C12.7581 2.63225 10.2342 0.365892 7.02177 0.365892V0.365892ZM8.81151 8.13385C8.49738 10.4568 7.9016 11.7855 4.83604 11.7855H3.89002L4.32572 3.58428H5.35961C8.05806 3.46031 9.20027 5.25366 8.81151 8.13385V8.13385Z" fill="#213E88"/>
</svg>
