<?xml version="1.0" encoding="UTF-8" standalone="no"?>
<!-- Created with Inkscape (http://www.inkscape.org/) -->

<svg
   xmlns:dc="http://purl.org/dc/elements/1.1/"
   xmlns:cc="http://creativecommons.org/ns#"
   xmlns:rdf="http://www.w3.org/1999/02/22-rdf-syntax-ns#"
   xmlns:svg="http://www.w3.org/2000/svg"
   xmlns="http://www.w3.org/2000/svg"
   version="1.1"
   width="1000"
   height="679.59003"
   id="svg12157">
  <defs
     id="defs12159" />
  <metadata
     id="metadata12162">
    <rdf:RDF>
      <cc:Work
         rdf:about="">
        <dc:format>image/svg+xml</dc:format>
        <dc:type
           rdf:resource="http://purl.org/dc/dcmitype/StillImage" />
        <dc:title></dc:title>
      </cc:Work>
    </rdf:RDF>
  </metadata>
  <g
     transform="translate(-326.25701,131.94587)"
     id="layer1">
    <g
       transform="matrix(18.952201,0,0,18.952201,-5807.0306,-9881.4169)"
       id="g12196">
      <path
         d="m 356.84375,517.0625 c -0.55707,6e-4 -1.1475,0.034 -1.71875,0.0625 l 1.625,6.6875 5.34375,0 c 0.35375,0.6 2.16625,3.7525 2.3125,4 0.14625,-0.2475 1.92875,-3.4 2.28125,-4 l 5.40625,0 c -0.605,0.8825 -5.05375,7.4575 -5.125,7.5625 0.04,0.06 1.75625,2.49625 3.34375,4.78125 2.85,-3.43125 4.08625,-7.20625 3.09375,-10.625 -1.56094,-5.37188 -8.20652,-8.47777 -16.5625,-8.46875 z m -7.25,0.75 c -1.17875,0.23375 -2.365,0.52625 -3.5625,0.875 -4.23375,1.235 -8.0325,3.03875 -11.125,5.1875 l 3.28125,8.65625 3.46875,-8.71875 4.1875,0 0.84375,5.71875 2.90625,-11.71875 z m 7.21875,6.15625 2.5625,10.6875 c 1.2825,-1.7475 2.40375,-3.23375 2.4375,-3.28125 -0.0713,-0.10375 -4.1225,-6.12 -5,-7.40625 z m -4.40625,1.5625 -2.0625,9.5 4.15625,0 -2.0625,-9.5 -0.0312,0 z m -22.375,2.65625 c -3.0825,3.535 -4.4675,7.4525 -3.4375,11 2.195,7.555 14.455,10.61125 27.375,6.84375 0.9825,-0.28625 1.94375,-0.5925 2.875,-0.9375 l -1.15625,-4.875 -6.5625,0 -1.25,4.9375 -5.0625,0 1.25,-5.03125 -1.15625,-9.375 -0.0625,0 -3.875,9.375 -1.65625,0 -3.71875,-9.375 -0.0312,0 -1.375,9.375 -4.15625,0 2,-11.9375 z m 34.375,6.71875 c -0.165,0.23375 -3.6875,5.21875 -3.6875,5.21875 l 0.71875,2.9375 c 2.16,-1.13375 4.085,-2.42125 5.75,-3.8125 -0.93,-1.43625 -2.66875,-4.1675 -2.78125,-4.34375 z"
         id="path1654"
         style="fill:#ff9600;fill-opacity:1;fill-rule:nonzero;stroke:none" />
      <path
         d="m 359.38759,534.65853 -2.59,-10.69 c 0.87625,1.28625 4.93875,7.29 5.01,7.39375 -0.035,0.0462 -1.1375,1.54875 -2.42,3.29625 m -9.04875,0.37125 2.065,-9.49875 0.0475,0 2.04,9.49875 -4.1525,0 z m 19.9625,1.1125 c -1.5875,-2.28625 -3.2775,-4.72 -3.31875,-4.77875 0.0725,-0.105 4.505,-6.655 5.11,-7.5375 l -5.405,0 c -0.3525,0.6 -2.14625,3.74125 -2.2925,3.99 -0.145,-0.24875 -1.93875,-3.39 -2.29125,-3.99 l -5.34125,0 -1.62625,-6.7075 c -1.7925,0.0888 -3.65,0.31625 -5.5425,0.69125 l -2.90375,11.73375 -0.8575,-5.71625 -4.18,0 -3.4725,8.7075 -3.26,-8.65375 c -1.9125,1.32875 -3.56125,2.78625 -4.8925,4.3125 l -2.0075,11.925 4.17875,0 1.35125,-9.3775 0.0425,0 3.70875,9.3775 1.67125,0 3.88,-9.3775 0.0437,0 1.1775,9.3725 -1.25125,5.0575 5.045,0 1.26125,-4.93875 6.54875,0 1.16875,4.8575 c 1.6125,-0.6 3.1425,-1.28375 4.57625,-2.03625 l -0.7125,-2.93625 0.001,0 c 0,0 3.51625,-4.9675 3.68,-5.2025 0.11375,0.17625 1.86625,2.88625 2.795,4.3225 1.1825,-0.9875 2.2275,-2.025 3.115,-3.095"
         id="path1666"
         style="fill:#ffffff;fill-opacity:1;fill-rule:nonzero;stroke:none" />
    </g>
  </g>
</svg>
