<svg width="221" height="141" viewBox="0 0 221 141" fill="none" xmlns="http://www.w3.org/2000/svg">
<path fill-rule="evenodd" clip-rule="evenodd" d="M45 119C69.8528 119 90 98.8528 90 74C90 49.1472 69.8528 29 45 29C20.1472 29 0 49.1472 0 74C0 98.8528 20.1472 119 45 119ZM45 109C64.33 109 80 93.33 80 74C80 54.67 64.33 39 45 39C25.67 39 10 54.67 10 74C10 93.33 25.67 109 45 109Z" fill="#213E88"/>
<path fill-rule="evenodd" clip-rule="evenodd" d="M43 29.0436C19.0752 30.09 0 49.8174 0 74C0 98.8528 20.1472 119 45 119C60.7319 119 74.5783 110.927 82.6226 98.6981L74.7693 92.4154C68.5982 102.37 57.5734 109 45 109C25.67 109 10 93.33 10 74C10 55.3413 24.6006 40.0927 43 39.0562V29.0436Z" fill="#D7E9FF"/>
<path d="M29.35 73.15V75H21.35V73.15H24.28V64.72C24.28 64.3867 24.29 64.0433 24.31 63.69L22.23 65.43C22.11 65.5233 21.99 65.5833 21.87 65.61C21.7567 65.63 21.6467 65.63 21.54 65.61C21.44 65.59 21.35 65.5567 21.27 65.51C21.19 65.4567 21.13 65.4 21.09 65.34L20.31 64.27L24.72 60.52H26.75V73.15H29.35ZM30.7816 77.45C30.6616 77.35 30.6016 77.2267 30.6016 77.08C30.6016 77.0267 30.6182 76.9667 30.6516 76.9C30.6916 76.8333 30.7382 76.7733 30.7916 76.72C30.8649 76.64 30.9549 76.54 31.0616 76.42C31.1682 76.3067 31.2749 76.1733 31.3816 76.02C31.4882 75.8733 31.5849 75.71 31.6716 75.53C31.7649 75.3567 31.8349 75.17 31.8816 74.97C31.6682 74.97 31.4749 74.9333 31.3016 74.86C31.1282 74.78 30.9782 74.6733 30.8516 74.54C30.7316 74.4067 30.6349 74.25 30.5616 74.07C30.4949 73.89 30.4616 73.6933 30.4616 73.48C30.4616 73.2933 30.4949 73.12 30.5616 72.96C30.6349 72.7933 30.7349 72.65 30.8616 72.53C30.9882 72.4033 31.1416 72.3067 31.3216 72.24C31.5016 72.1667 31.6982 72.13 31.9116 72.13C32.1649 72.13 32.3849 72.1767 32.5716 72.27C32.7649 72.3567 32.9216 72.48 33.0416 72.64C33.1682 72.7933 33.2616 72.9733 33.3216 73.18C33.3882 73.38 33.4216 73.5933 33.4216 73.82C33.4216 74.14 33.3716 74.4767 33.2716 74.83C33.1782 75.1833 33.0382 75.5367 32.8516 75.89C32.6649 76.2433 32.4316 76.5867 32.1516 76.92C31.8782 77.2533 31.5649 77.56 31.2116 77.84L30.7816 77.45ZM43.0991 72.7C43.3657 72.7 43.5757 72.7767 43.7291 72.93C43.8891 73.0767 43.9691 73.2733 43.9691 73.52V75H34.0491V74.18C34.0491 74.0133 34.0824 73.84 34.1491 73.66C34.2224 73.4733 34.3357 73.3067 34.4891 73.16L38.8791 68.76C39.2457 68.3867 39.5724 68.03 39.8591 67.69C40.1524 67.35 40.3957 67.0133 40.5891 66.68C40.7824 66.3467 40.9291 66.01 41.0291 65.67C41.1357 65.3233 41.1891 64.96 41.1891 64.58C41.1891 64.2333 41.1391 63.93 41.0391 63.67C40.9391 63.4033 40.7957 63.18 40.6091 63C40.4291 62.82 40.2091 62.6867 39.9491 62.6C39.6957 62.5067 39.4091 62.46 39.0891 62.46C38.7957 62.46 38.5224 62.5033 38.2691 62.59C38.0224 62.67 37.8024 62.7867 37.6091 62.94C37.4157 63.0867 37.2524 63.26 37.1191 63.46C36.9857 63.66 36.8857 63.88 36.8191 64.12C36.7057 64.4267 36.5591 64.63 36.3791 64.73C36.1991 64.83 35.9391 64.8533 35.5991 64.8L34.2991 64.57C34.3991 63.8767 34.5924 63.27 34.8791 62.75C35.1657 62.2233 35.5224 61.7867 35.9491 61.44C36.3824 61.0867 36.8757 60.8233 37.4291 60.65C37.9891 60.47 38.5891 60.38 39.2291 60.38C39.8957 60.38 40.5057 60.48 41.0591 60.68C41.6124 60.8733 42.0857 61.15 42.4791 61.51C42.8724 61.87 43.1791 62.3033 43.3991 62.81C43.6191 63.3167 43.7291 63.88 43.7291 64.5C43.7291 65.0333 43.6491 65.5267 43.4891 65.98C43.3357 66.4333 43.1257 66.8667 42.8591 67.28C42.5991 67.6933 42.2924 68.0933 41.9391 68.48C41.5857 68.8667 41.2157 69.26 40.8291 69.66L37.5691 72.99C37.8824 72.8967 38.1924 72.8267 38.4991 72.78C38.8124 72.7267 39.1091 72.7 39.3891 72.7H43.0991ZM44.9706 64.57C45.0706 63.8767 45.264 63.27 45.5506 62.75C45.8373 62.2233 46.194 61.7867 46.6206 61.44C47.054 61.0867 47.5473 60.8233 48.1006 60.65C48.6606 60.47 49.2606 60.38 49.9006 60.38C50.5673 60.38 51.1673 60.4767 51.7006 60.67C52.2406 60.8567 52.7006 61.12 53.0806 61.46C53.4606 61.7933 53.7506 62.1867 53.9506 62.64C54.1573 63.0933 54.2606 63.5833 54.2606 64.11C54.2606 64.57 54.2073 64.9767 54.1006 65.33C54.0006 65.6767 53.854 65.98 53.6606 66.24C53.4673 66.5 53.2273 66.72 52.9406 66.9C52.654 67.08 52.3306 67.23 51.9706 67.35C52.8373 67.6233 53.484 68.04 53.9106 68.6C54.3373 69.16 54.5506 69.8633 54.5506 70.71C54.5506 71.43 54.4173 72.0667 54.1506 72.62C53.884 73.1733 53.524 73.64 53.0706 74.02C52.6173 74.3933 52.0906 74.6767 51.4906 74.87C50.8973 75.0633 50.2673 75.16 49.6006 75.16C48.874 75.16 48.2406 75.0767 47.7006 74.91C47.1606 74.7433 46.6906 74.4967 46.2906 74.17C45.8906 73.8433 45.5506 73.4433 45.2706 72.97C44.9906 72.4967 44.7506 71.95 44.5506 71.33L45.6406 70.88C45.9273 70.76 46.194 70.73 46.4406 70.79C46.694 70.8433 46.8773 70.9767 46.9906 71.19C47.1106 71.4233 47.2406 71.6533 47.3806 71.88C47.5273 72.1067 47.7006 72.31 47.9006 72.49C48.1006 72.6633 48.334 72.8067 48.6006 72.92C48.874 73.0267 49.1973 73.08 49.5706 73.08C49.9906 73.08 50.3573 73.0133 50.6706 72.88C50.984 72.74 51.244 72.56 51.4506 72.34C51.664 72.12 51.8206 71.8767 51.9206 71.61C52.0273 71.3367 52.0806 71.0633 52.0806 70.79C52.0806 70.4433 52.044 70.13 51.9706 69.85C51.8973 69.5633 51.744 69.32 51.5106 69.12C51.2773 68.92 50.9406 68.7633 50.5006 68.65C50.0673 68.5367 49.484 68.48 48.7506 68.48V66.72C49.3573 66.7133 49.8606 66.6567 50.2606 66.55C50.6606 66.4433 50.9773 66.2967 51.2106 66.11C51.4506 65.9167 51.6173 65.6867 51.7106 65.42C51.804 65.1533 51.8506 64.86 51.8506 64.54C51.8506 63.86 51.6606 63.3433 51.2806 62.99C50.9006 62.6367 50.394 62.46 49.7606 62.46C49.4673 62.46 49.1973 62.5033 48.9506 62.59C48.704 62.67 48.4806 62.7867 48.2806 62.94C48.0873 63.0867 47.924 63.26 47.7906 63.46C47.6573 63.66 47.5573 63.88 47.4906 64.12C47.3773 64.4267 47.2273 64.63 47.0406 64.73C46.8606 64.83 46.604 64.8533 46.2706 64.8L44.9706 64.57ZM61.9422 64.04C61.9422 64.5867 61.8489 65.08 61.6622 65.52C61.4822 65.96 61.2389 66.3367 60.9322 66.65C60.6255 66.9567 60.2689 67.1933 59.8622 67.36C59.4555 67.5267 59.0322 67.61 58.5922 67.61C58.1122 67.61 57.6689 67.5267 57.2622 67.36C56.8555 67.1933 56.5022 66.9567 56.2022 66.65C55.9089 66.3367 55.6789 65.96 55.5122 65.52C55.3455 65.08 55.2622 64.5867 55.2622 64.04C55.2622 63.48 55.3455 62.9733 55.5122 62.52C55.6789 62.0667 55.9089 61.6833 56.2022 61.37C56.5022 61.0567 56.8555 60.8167 57.2622 60.65C57.6689 60.4767 58.1122 60.39 58.5922 60.39C59.0722 60.39 59.5155 60.4767 59.9222 60.65C60.3355 60.8167 60.6922 61.0567 60.9922 61.37C61.2922 61.6833 61.5255 62.0667 61.6922 62.52C61.8589 62.9733 61.9422 63.48 61.9422 64.04ZM60.0422 64.04C60.0422 63.6533 60.0022 63.33 59.9222 63.07C59.8489 62.81 59.7455 62.6 59.6122 62.44C59.4855 62.28 59.3322 62.1667 59.1522 62.1C58.9789 62.0267 58.7922 61.99 58.5922 61.99C58.3922 61.99 58.2055 62.0267 58.0322 62.1C57.8589 62.1667 57.7089 62.28 57.5822 62.44C57.4622 62.6 57.3655 62.81 57.2922 63.07C57.2189 63.33 57.1822 63.6533 57.1822 64.04C57.1822 64.4133 57.2189 64.7267 57.2922 64.98C57.3655 65.2267 57.4622 65.4267 57.5822 65.58C57.7089 65.7333 57.8589 65.8433 58.0322 65.91C58.2055 65.9767 58.3922 66.01 58.5922 66.01C58.7922 66.01 58.9789 65.9767 59.1522 65.91C59.3322 65.8433 59.4855 65.7333 59.6122 65.58C59.7455 65.4267 59.8489 65.2267 59.9222 64.98C60.0022 64.7267 60.0422 64.4133 60.0422 64.04ZM66.7522 60.93C66.8389 60.83 66.9389 60.74 67.0522 60.66C67.1722 60.58 67.3389 60.54 67.5522 60.54H69.3522L58.6122 74.63C58.5255 74.7367 58.4222 74.8267 58.3022 74.9C58.1822 74.9667 58.0355 75 57.8622 75H56.0222L66.7522 60.93ZM70.1122 71.6C70.1122 72.1467 70.0189 72.64 69.8322 73.08C69.6522 73.52 69.4089 73.8967 69.1022 74.21C68.7955 74.5167 68.4389 74.7567 68.0322 74.93C67.6255 75.0967 67.2022 75.18 66.7622 75.18C66.2822 75.18 65.8389 75.0967 65.4322 74.93C65.0255 74.7567 64.6722 74.5167 64.3722 74.21C64.0789 73.8967 63.8489 73.52 63.6822 73.08C63.5155 72.64 63.4322 72.1467 63.4322 71.6C63.4322 71.04 63.5155 70.5333 63.6822 70.08C63.8489 69.6267 64.0789 69.2433 64.3722 68.93C64.6722 68.6167 65.0255 68.3767 65.4322 68.21C65.8389 68.0367 66.2822 67.95 66.7622 67.95C67.2422 67.95 67.6855 68.0367 68.0922 68.21C68.5055 68.3767 68.8589 68.6167 69.1522 68.93C69.4522 69.2433 69.6855 69.6267 69.8522 70.08C70.0255 70.5333 70.1122 71.04 70.1122 71.6ZM68.2022 71.6C68.2022 71.2133 68.1655 70.89 68.0922 70.63C68.0189 70.37 67.9155 70.16 67.7822 70C67.6555 69.84 67.5022 69.7267 67.3222 69.66C67.1489 69.5867 66.9622 69.55 66.7622 69.55C66.5622 69.55 66.3755 69.5867 66.2022 69.66C66.0289 69.7267 65.8789 69.84 65.7522 70C65.6255 70.16 65.5255 70.37 65.4522 70.63C65.3855 70.89 65.3522 71.2133 65.3522 71.6C65.3522 71.9733 65.3855 72.2867 65.4522 72.54C65.5255 72.7933 65.6255 72.9967 65.7522 73.15C65.8789 73.3033 66.0289 73.4133 66.2022 73.48C66.3755 73.5467 66.5622 73.58 66.7622 73.58C66.9622 73.58 67.1489 73.5467 67.3222 73.48C67.5022 73.4133 67.6555 73.3033 67.7822 73.15C67.9155 72.9967 68.0189 72.7933 68.0922 72.54C68.1655 72.2867 68.2022 71.9733 68.2022 71.6Z" fill="#213E88"/>
<path d="M37.212 89.74C37.512 89.74 37.764 89.704 37.968 89.632C38.172 89.56 38.334 89.464 38.454 89.344C38.578 89.224 38.666 89.084 38.718 88.924C38.774 88.764 38.802 88.594 38.802 88.414C38.802 88.226 38.772 88.058 38.712 87.91C38.652 87.758 38.558 87.63 38.43 87.526C38.302 87.418 38.136 87.336 37.932 87.28C37.732 87.224 37.49 87.196 37.206 87.196H35.58V89.74H37.212ZM35.58 83.572V86.08H36.864C37.416 86.08 37.832 85.98 38.112 85.78C38.396 85.58 38.538 85.262 38.538 84.826C38.538 84.374 38.41 84.052 38.154 83.86C37.898 83.668 37.498 83.572 36.954 83.572H35.58ZM36.954 82.324C37.522 82.324 38.008 82.378 38.412 82.486C38.816 82.594 39.146 82.748 39.402 82.948C39.662 83.148 39.852 83.39 39.972 83.674C40.092 83.958 40.152 84.278 40.152 84.634C40.152 84.838 40.122 85.034 40.062 85.222C40.002 85.406 39.908 85.58 39.78 85.744C39.656 85.904 39.496 86.05 39.3 86.182C39.108 86.314 38.878 86.426 38.61 86.518C39.802 86.786 40.398 87.43 40.398 88.45C40.398 88.818 40.328 89.158 40.188 89.47C40.048 89.782 39.844 90.052 39.576 90.28C39.308 90.504 38.978 90.68 38.586 90.808C38.194 90.936 37.746 91 37.242 91H33.966V82.324H36.954ZM44.5104 89.74C44.8104 89.74 45.0624 89.704 45.2664 89.632C45.4704 89.56 45.6324 89.464 45.7524 89.344C45.8764 89.224 45.9644 89.084 46.0164 88.924C46.0724 88.764 46.1004 88.594 46.1004 88.414C46.1004 88.226 46.0704 88.058 46.0104 87.91C45.9504 87.758 45.8564 87.63 45.7284 87.526C45.6004 87.418 45.4344 87.336 45.2304 87.28C45.0304 87.224 44.7884 87.196 44.5044 87.196H42.8784V89.74H44.5104ZM42.8784 83.572V86.08H44.1624C44.7144 86.08 45.1304 85.98 45.4104 85.78C45.6944 85.58 45.8364 85.262 45.8364 84.826C45.8364 84.374 45.7084 84.052 45.4524 83.86C45.1964 83.668 44.7964 83.572 44.2524 83.572H42.8784ZM44.2524 82.324C44.8204 82.324 45.3064 82.378 45.7104 82.486C46.1144 82.594 46.4444 82.748 46.7004 82.948C46.9604 83.148 47.1504 83.39 47.2704 83.674C47.3904 83.958 47.4504 84.278 47.4504 84.634C47.4504 84.838 47.4204 85.034 47.3604 85.222C47.3004 85.406 47.2064 85.58 47.0784 85.744C46.9544 85.904 46.7944 86.05 46.5984 86.182C46.4064 86.314 46.1764 86.426 45.9084 86.518C47.1004 86.786 47.6964 87.43 47.6964 88.45C47.6964 88.818 47.6264 89.158 47.4864 89.47C47.3464 89.782 47.1424 90.052 46.8744 90.28C46.6064 90.504 46.2764 90.68 45.8844 90.808C45.4924 90.936 45.0444 91 44.5404 91H41.2644V82.324H44.2524ZM51.3829 86.686C51.6789 86.686 51.9369 86.65 52.1569 86.578C52.3769 86.502 52.5589 86.396 52.7029 86.26C52.8509 86.12 52.9609 85.952 53.0329 85.756C53.1049 85.556 53.1409 85.334 53.1409 85.09C53.1409 84.858 53.1049 84.648 53.0329 84.46C52.9609 84.272 52.8529 84.112 52.7089 83.98C52.5649 83.848 52.3829 83.748 52.1629 83.68C51.9429 83.608 51.6829 83.572 51.3829 83.572H50.1769V86.686H51.3829ZM51.3829 82.324C51.9629 82.324 52.4649 82.392 52.8889 82.528C53.3129 82.664 53.6629 82.854 53.9389 83.098C54.2149 83.342 54.4189 83.634 54.5509 83.974C54.6869 84.314 54.7549 84.686 54.7549 85.09C54.7549 85.51 54.6849 85.896 54.5449 86.248C54.4049 86.596 54.1949 86.896 53.9149 87.148C53.6349 87.4 53.2829 87.596 52.8589 87.736C52.4389 87.876 51.9469 87.946 51.3829 87.946H50.1769V91H48.5629V82.324H51.3829Z" fill="#213E88"/>
<path fill-rule="evenodd" clip-rule="evenodd" d="M176 119C200.853 119 221 98.8528 221 74C221 49.1472 200.853 29 176 29C151.147 29 131 49.1472 131 74C131 98.8528 151.147 119 176 119ZM176 109C195.33 109 211 93.33 211 74C211 54.67 195.33 39 176 39C156.67 39 141 54.67 141 74C141 93.33 156.67 109 176 109Z" fill="#213E88"/>
<path fill-rule="evenodd" clip-rule="evenodd" d="M174 29.0436C150.075 30.09 131 49.8174 131 74C131 98.8528 151.147 119 176 119C191.732 119 205.578 110.927 213.623 98.6981L205.769 92.4154C199.598 102.37 188.573 109 176 109C156.67 109 141 93.33 141 74C141 55.3413 155.601 40.0927 174 39.0562V29.0436Z" fill="#D7E9FF"/>
<path d="M160.35 73.15V75H152.35V73.15H155.28V64.72C155.28 64.3867 155.29 64.0433 155.31 63.69L153.23 65.43C153.11 65.5233 152.99 65.5833 152.87 65.61C152.757 65.63 152.647 65.63 152.54 65.61C152.44 65.59 152.35 65.5567 152.27 65.51C152.19 65.4567 152.13 65.4 152.09 65.34L151.31 64.27L155.72 60.52H157.75V73.15H160.35ZM161.782 77.45C161.662 77.35 161.602 77.2267 161.602 77.08C161.602 77.0267 161.618 76.9667 161.652 76.9C161.692 76.8333 161.738 76.7733 161.792 76.72C161.865 76.64 161.955 76.54 162.062 76.42C162.168 76.3067 162.275 76.1733 162.382 76.02C162.488 75.8733 162.585 75.71 162.672 75.53C162.765 75.3567 162.835 75.17 162.882 74.97C162.668 74.97 162.475 74.9333 162.302 74.86C162.128 74.78 161.978 74.6733 161.852 74.54C161.732 74.4067 161.635 74.25 161.562 74.07C161.495 73.89 161.462 73.6933 161.462 73.48C161.462 73.2933 161.495 73.12 161.562 72.96C161.635 72.7933 161.735 72.65 161.862 72.53C161.988 72.4033 162.142 72.3067 162.322 72.24C162.502 72.1667 162.698 72.13 162.912 72.13C163.165 72.13 163.385 72.1767 163.572 72.27C163.765 72.3567 163.922 72.48 164.042 72.64C164.168 72.7933 164.262 72.9733 164.322 73.18C164.388 73.38 164.422 73.5933 164.422 73.82C164.422 74.14 164.372 74.4767 164.272 74.83C164.178 75.1833 164.038 75.5367 163.852 75.89C163.665 76.2433 163.432 76.5867 163.152 76.92C162.878 77.2533 162.565 77.56 162.212 77.84L161.782 77.45ZM171.409 69.55V64.82C171.409 64.3733 171.439 63.88 171.499 63.34L167.009 69.55H171.409ZM175.379 69.55V70.98C175.379 71.1133 175.336 71.23 175.249 71.33C175.162 71.4233 175.039 71.47 174.879 71.47H173.559V75H171.409V71.47H165.309C165.142 71.47 164.996 71.42 164.869 71.32C164.742 71.2133 164.662 71.0833 164.629 70.93L164.369 69.68L171.219 60.53H173.559V69.55H175.379ZM185.241 73.15V75H177.241V73.15H180.171V64.72C180.171 64.3867 180.181 64.0433 180.201 63.69L178.121 65.43C178.001 65.5233 177.881 65.5833 177.761 65.61C177.647 65.63 177.537 65.63 177.431 65.61C177.331 65.59 177.241 65.5567 177.161 65.51C177.081 65.4567 177.021 65.4 176.981 65.34L176.201 64.27L180.611 60.52H182.641V73.15H185.241ZM192.942 64.04C192.942 64.5867 192.849 65.08 192.662 65.52C192.482 65.96 192.239 66.3367 191.932 66.65C191.626 66.9567 191.269 67.1933 190.862 67.36C190.456 67.5267 190.032 67.61 189.592 67.61C189.112 67.61 188.669 67.5267 188.262 67.36C187.856 67.1933 187.502 66.9567 187.202 66.65C186.909 66.3367 186.679 65.96 186.512 65.52C186.346 65.08 186.262 64.5867 186.262 64.04C186.262 63.48 186.346 62.9733 186.512 62.52C186.679 62.0667 186.909 61.6833 187.202 61.37C187.502 61.0567 187.856 60.8167 188.262 60.65C188.669 60.4767 189.112 60.39 189.592 60.39C190.072 60.39 190.516 60.4767 190.922 60.65C191.336 60.8167 191.692 61.0567 191.992 61.37C192.292 61.6833 192.526 62.0667 192.692 62.52C192.859 62.9733 192.942 63.48 192.942 64.04ZM191.042 64.04C191.042 63.6533 191.002 63.33 190.922 63.07C190.849 62.81 190.746 62.6 190.612 62.44C190.486 62.28 190.332 62.1667 190.152 62.1C189.979 62.0267 189.792 61.99 189.592 61.99C189.392 61.99 189.206 62.0267 189.032 62.1C188.859 62.1667 188.709 62.28 188.582 62.44C188.462 62.6 188.366 62.81 188.292 63.07C188.219 63.33 188.182 63.6533 188.182 64.04C188.182 64.4133 188.219 64.7267 188.292 64.98C188.366 65.2267 188.462 65.4267 188.582 65.58C188.709 65.7333 188.859 65.8433 189.032 65.91C189.206 65.9767 189.392 66.01 189.592 66.01C189.792 66.01 189.979 65.9767 190.152 65.91C190.332 65.8433 190.486 65.7333 190.612 65.58C190.746 65.4267 190.849 65.2267 190.922 64.98C191.002 64.7267 191.042 64.4133 191.042 64.04ZM197.752 60.93C197.839 60.83 197.939 60.74 198.052 60.66C198.172 60.58 198.339 60.54 198.552 60.54H200.352L189.612 74.63C189.526 74.7367 189.422 74.8267 189.302 74.9C189.182 74.9667 189.036 75 188.862 75H187.022L197.752 60.93ZM201.112 71.6C201.112 72.1467 201.019 72.64 200.832 73.08C200.652 73.52 200.409 73.8967 200.102 74.21C199.796 74.5167 199.439 74.7567 199.032 74.93C198.626 75.0967 198.202 75.18 197.762 75.18C197.282 75.18 196.839 75.0967 196.432 74.93C196.026 74.7567 195.672 74.5167 195.372 74.21C195.079 73.8967 194.849 73.52 194.682 73.08C194.516 72.64 194.432 72.1467 194.432 71.6C194.432 71.04 194.516 70.5333 194.682 70.08C194.849 69.6267 195.079 69.2433 195.372 68.93C195.672 68.6167 196.026 68.3767 196.432 68.21C196.839 68.0367 197.282 67.95 197.762 67.95C198.242 67.95 198.686 68.0367 199.092 68.21C199.506 68.3767 199.859 68.6167 200.152 68.93C200.452 69.2433 200.686 69.6267 200.852 70.08C201.026 70.5333 201.112 71.04 201.112 71.6ZM199.202 71.6C199.202 71.2133 199.166 70.89 199.092 70.63C199.019 70.37 198.916 70.16 198.782 70C198.656 69.84 198.502 69.7267 198.322 69.66C198.149 69.5867 197.962 69.55 197.762 69.55C197.562 69.55 197.376 69.5867 197.202 69.66C197.029 69.7267 196.879 69.84 196.752 70C196.626 70.16 196.526 70.37 196.452 70.63C196.386 70.89 196.352 71.2133 196.352 71.6C196.352 71.9733 196.386 72.2867 196.452 72.54C196.526 72.7933 196.626 72.9967 196.752 73.15C196.879 73.3033 197.029 73.4133 197.202 73.48C197.376 73.5467 197.562 73.58 197.762 73.58C197.962 73.58 198.149 73.5467 198.322 73.48C198.502 73.4133 198.656 73.3033 198.782 73.15C198.916 72.9967 199.019 72.7933 199.092 72.54C199.166 72.2867 199.202 71.9733 199.202 71.6Z" fill="#213E88"/>
<path d="M168.212 89.74C168.512 89.74 168.764 89.704 168.968 89.632C169.172 89.56 169.334 89.464 169.454 89.344C169.578 89.224 169.666 89.084 169.718 88.924C169.774 88.764 169.802 88.594 169.802 88.414C169.802 88.226 169.772 88.058 169.712 87.91C169.652 87.758 169.558 87.63 169.43 87.526C169.302 87.418 169.136 87.336 168.932 87.28C168.732 87.224 168.49 87.196 168.206 87.196H166.58V89.74H168.212ZM166.58 83.572V86.08H167.864C168.416 86.08 168.832 85.98 169.112 85.78C169.396 85.58 169.538 85.262 169.538 84.826C169.538 84.374 169.41 84.052 169.154 83.86C168.898 83.668 168.498 83.572 167.954 83.572H166.58ZM167.954 82.324C168.522 82.324 169.008 82.378 169.412 82.486C169.816 82.594 170.146 82.748 170.402 82.948C170.662 83.148 170.852 83.39 170.972 83.674C171.092 83.958 171.152 84.278 171.152 84.634C171.152 84.838 171.122 85.034 171.062 85.222C171.002 85.406 170.908 85.58 170.78 85.744C170.656 85.904 170.496 86.05 170.3 86.182C170.108 86.314 169.878 86.426 169.61 86.518C170.802 86.786 171.398 87.43 171.398 88.45C171.398 88.818 171.328 89.158 171.188 89.47C171.048 89.782 170.844 90.052 170.576 90.28C170.308 90.504 169.978 90.68 169.586 90.808C169.194 90.936 168.746 91 168.242 91H164.966V82.324H167.954ZM175.51 89.74C175.81 89.74 176.062 89.704 176.266 89.632C176.47 89.56 176.632 89.464 176.752 89.344C176.876 89.224 176.964 89.084 177.016 88.924C177.072 88.764 177.1 88.594 177.1 88.414C177.1 88.226 177.07 88.058 177.01 87.91C176.95 87.758 176.856 87.63 176.728 87.526C176.6 87.418 176.434 87.336 176.23 87.28C176.03 87.224 175.788 87.196 175.504 87.196H173.878V89.74H175.51ZM173.878 83.572V86.08H175.162C175.714 86.08 176.13 85.98 176.41 85.78C176.694 85.58 176.836 85.262 176.836 84.826C176.836 84.374 176.708 84.052 176.452 83.86C176.196 83.668 175.796 83.572 175.252 83.572H173.878ZM175.252 82.324C175.82 82.324 176.306 82.378 176.71 82.486C177.114 82.594 177.444 82.748 177.7 82.948C177.96 83.148 178.15 83.39 178.27 83.674C178.39 83.958 178.45 84.278 178.45 84.634C178.45 84.838 178.42 85.034 178.36 85.222C178.3 85.406 178.206 85.58 178.078 85.744C177.954 85.904 177.794 86.05 177.598 86.182C177.406 86.314 177.176 86.426 176.908 86.518C178.1 86.786 178.696 87.43 178.696 88.45C178.696 88.818 178.626 89.158 178.486 89.47C178.346 89.782 178.142 90.052 177.874 90.28C177.606 90.504 177.276 90.68 176.884 90.808C176.492 90.936 176.044 91 175.54 91H172.264V82.324H175.252ZM182.383 86.686C182.679 86.686 182.937 86.65 183.157 86.578C183.377 86.502 183.559 86.396 183.703 86.26C183.851 86.12 183.961 85.952 184.033 85.756C184.105 85.556 184.141 85.334 184.141 85.09C184.141 84.858 184.105 84.648 184.033 84.46C183.961 84.272 183.853 84.112 183.709 83.98C183.565 83.848 183.383 83.748 183.163 83.68C182.943 83.608 182.683 83.572 182.383 83.572H181.177V86.686H182.383ZM182.383 82.324C182.963 82.324 183.465 82.392 183.889 82.528C184.313 82.664 184.663 82.854 184.939 83.098C185.215 83.342 185.419 83.634 185.551 83.974C185.687 84.314 185.755 84.686 185.755 85.09C185.755 85.51 185.685 85.896 185.545 86.248C185.405 86.596 185.195 86.896 184.915 87.148C184.635 87.4 184.283 87.596 183.859 87.736C183.439 87.876 182.947 87.946 182.383 87.946H181.177V91H179.563V82.324H182.383Z" fill="#213E88"/>
<path d="M15.212 137.74C15.512 137.74 15.764 137.704 15.968 137.632C16.172 137.56 16.334 137.464 16.454 137.344C16.578 137.224 16.666 137.084 16.718 136.924C16.774 136.764 16.802 136.594 16.802 136.414C16.802 136.226 16.772 136.058 16.712 135.91C16.652 135.758 16.558 135.63 16.43 135.526C16.302 135.418 16.136 135.336 15.932 135.28C15.732 135.224 15.49 135.196 15.206 135.196H13.58V137.74H15.212ZM13.58 131.572V134.08H14.864C15.416 134.08 15.832 133.98 16.112 133.78C16.396 133.58 16.538 133.262 16.538 132.826C16.538 132.374 16.41 132.052 16.154 131.86C15.898 131.668 15.498 131.572 14.954 131.572H13.58ZM14.954 130.324C15.522 130.324 16.008 130.378 16.412 130.486C16.816 130.594 17.146 130.748 17.402 130.948C17.662 131.148 17.852 131.39 17.972 131.674C18.092 131.958 18.152 132.278 18.152 132.634C18.152 132.838 18.122 133.034 18.062 133.222C18.002 133.406 17.908 133.58 17.78 133.744C17.656 133.904 17.496 134.05 17.3 134.182C17.108 134.314 16.878 134.426 16.61 134.518C17.802 134.786 18.398 135.43 18.398 136.45C18.398 136.818 18.328 137.158 18.188 137.47C18.048 137.782 17.844 138.052 17.576 138.28C17.308 138.504 16.978 138.68 16.586 138.808C16.194 138.936 15.746 139 15.242 139H11.966V130.324H14.954ZM22.5104 137.74C22.8104 137.74 23.0624 137.704 23.2664 137.632C23.4704 137.56 23.6324 137.464 23.7524 137.344C23.8764 137.224 23.9644 137.084 24.0164 136.924C24.0724 136.764 24.1004 136.594 24.1004 136.414C24.1004 136.226 24.0704 136.058 24.0104 135.91C23.9504 135.758 23.8564 135.63 23.7284 135.526C23.6004 135.418 23.4344 135.336 23.2304 135.28C23.0304 135.224 22.7884 135.196 22.5044 135.196H20.8784V137.74H22.5104ZM20.8784 131.572V134.08H22.1624C22.7144 134.08 23.1304 133.98 23.4104 133.78C23.6944 133.58 23.8364 133.262 23.8364 132.826C23.8364 132.374 23.7084 132.052 23.4524 131.86C23.1964 131.668 22.7964 131.572 22.2524 131.572H20.8784ZM22.2524 130.324C22.8204 130.324 23.3064 130.378 23.7104 130.486C24.1144 130.594 24.4444 130.748 24.7004 130.948C24.9604 131.148 25.1504 131.39 25.2704 131.674C25.3904 131.958 25.4504 132.278 25.4504 132.634C25.4504 132.838 25.4204 133.034 25.3604 133.222C25.3004 133.406 25.2064 133.58 25.0784 133.744C24.9544 133.904 24.7944 134.05 24.5984 134.182C24.4064 134.314 24.1764 134.426 23.9084 134.518C25.1004 134.786 25.6964 135.43 25.6964 136.45C25.6964 136.818 25.6264 137.158 25.4864 137.47C25.3464 137.782 25.1424 138.052 24.8744 138.28C24.6064 138.504 24.2764 138.68 23.8844 138.808C23.4924 138.936 23.0444 139 22.5404 139H19.2644V130.324H22.2524ZM29.3829 134.686C29.6789 134.686 29.9369 134.65 30.1569 134.578C30.3769 134.502 30.5589 134.396 30.7029 134.26C30.8509 134.12 30.9609 133.952 31.0329 133.756C31.1049 133.556 31.1409 133.334 31.1409 133.09C31.1409 132.858 31.1049 132.648 31.0329 132.46C30.9609 132.272 30.8529 132.112 30.7089 131.98C30.5649 131.848 30.3829 131.748 30.1629 131.68C29.9429 131.608 29.6829 131.572 29.3829 131.572H28.1769V134.686H29.3829ZM29.3829 130.324C29.9629 130.324 30.4649 130.392 30.8889 130.528C31.3129 130.664 31.6629 130.854 31.9389 131.098C32.2149 131.342 32.4189 131.634 32.5509 131.974C32.6869 132.314 32.7549 132.686 32.7549 133.09C32.7549 133.51 32.6849 133.896 32.5449 134.248C32.4049 134.596 32.1949 134.896 31.9149 135.148C31.6349 135.4 31.2829 135.596 30.8589 135.736C30.4389 135.876 29.9469 135.946 29.3829 135.946H28.1769V139H26.5629V130.324H29.3829ZM38.7027 132.928C38.7027 133.412 38.8267 133.782 39.0747 134.038C39.3267 134.29 39.6827 134.416 40.1427 134.416C40.3827 134.416 40.5967 134.378 40.7847 134.302C40.9727 134.226 41.1307 134.122 41.2587 133.99C41.3867 133.858 41.4827 133.702 41.5467 133.522C41.6147 133.342 41.6487 133.148 41.6487 132.94C41.6487 132.704 41.6127 132.494 41.5407 132.31C41.4687 132.122 41.3667 131.964 41.2347 131.836C41.1027 131.708 40.9447 131.61 40.7607 131.542C40.5807 131.474 40.3827 131.44 40.1667 131.44C39.9427 131.44 39.7407 131.478 39.5607 131.554C39.3807 131.626 39.2267 131.728 39.0987 131.86C38.9707 131.992 38.8727 132.15 38.8047 132.334C38.7367 132.514 38.7027 132.712 38.7027 132.928ZM40.6707 135.634C40.7387 135.55 40.8027 135.468 40.8627 135.388C40.9227 135.308 40.9807 135.228 41.0367 135.148C40.8367 135.276 40.6167 135.374 40.3767 135.442C40.1367 135.506 39.8847 135.538 39.6207 135.538C39.3207 135.538 39.0267 135.486 38.7387 135.382C38.4507 135.278 38.1947 135.122 37.9707 134.914C37.7467 134.702 37.5647 134.442 37.4247 134.134C37.2887 133.822 37.2207 133.458 37.2207 133.042C37.2207 132.654 37.2927 132.29 37.4367 131.95C37.5807 131.61 37.7827 131.312 38.0427 131.056C38.3027 130.8 38.6147 130.598 38.9787 130.45C39.3427 130.302 39.7447 130.228 40.1847 130.228C40.6287 130.228 41.0267 130.298 41.3787 130.438C41.7347 130.578 42.0367 130.774 42.2847 131.026C42.5367 131.278 42.7287 131.58 42.8607 131.932C42.9967 132.284 43.0647 132.67 43.0647 133.09C43.0647 133.358 43.0407 133.612 42.9927 133.852C42.9487 134.092 42.8847 134.324 42.8007 134.548C42.7167 134.768 42.6147 134.984 42.4947 135.196C42.3747 135.408 42.2407 135.618 42.0927 135.826L40.1067 138.658C40.0387 138.754 39.9367 138.836 39.8007 138.904C39.6647 138.968 39.5107 139 39.3387 139H37.9767L40.6707 135.634ZM49.2936 137.89V139H44.4936V137.89H46.2516V132.832C46.2516 132.632 46.2576 132.426 46.2696 132.214L45.0216 133.258C44.9496 133.314 44.8776 133.35 44.8056 133.366C44.7376 133.378 44.6716 133.378 44.6076 133.366C44.5476 133.354 44.4936 133.334 44.4456 133.306C44.3976 133.274 44.3616 133.24 44.3376 133.204L43.8696 132.562L46.5156 130.312H47.7336V137.89H49.2936ZM50.0925 132.742C50.1525 132.326 50.2685 131.962 50.4405 131.65C50.6125 131.334 50.8265 131.072 51.0825 130.864C51.3425 130.652 51.6385 130.494 51.9705 130.39C52.3065 130.282 52.6665 130.228 53.0505 130.228C53.4505 130.228 53.8105 130.286 54.1305 130.402C54.4545 130.514 54.7305 130.672 54.9585 130.876C55.1865 131.076 55.3605 131.312 55.4805 131.584C55.6045 131.856 55.6665 132.15 55.6665 132.466C55.6665 132.742 55.6345 132.986 55.5705 133.198C55.5105 133.406 55.4225 133.588 55.3065 133.744C55.1905 133.9 55.0465 134.032 54.8745 134.14C54.7025 134.248 54.5085 134.338 54.2925 134.41C54.8125 134.574 55.2005 134.824 55.4565 135.16C55.7125 135.496 55.8405 135.918 55.8405 136.426C55.8405 136.858 55.7605 137.24 55.6005 137.572C55.4405 137.904 55.2245 138.184 54.9525 138.412C54.6805 138.636 54.3645 138.806 54.0045 138.922C53.6485 139.038 53.2705 139.096 52.8705 139.096C52.4345 139.096 52.0545 139.046 51.7305 138.946C51.4065 138.846 51.1245 138.698 50.8845 138.502C50.6445 138.306 50.4405 138.066 50.2725 137.782C50.1045 137.498 49.9605 137.17 49.8405 136.798L50.4945 136.528C50.6665 136.456 50.8265 136.438 50.9745 136.474C51.1265 136.506 51.2365 136.586 51.3045 136.714C51.3765 136.854 51.4545 136.992 51.5385 137.128C51.6265 137.264 51.7305 137.386 51.8505 137.494C51.9705 137.598 52.1105 137.684 52.2705 137.752C52.4345 137.816 52.6285 137.848 52.8525 137.848C53.1045 137.848 53.3245 137.808 53.5125 137.728C53.7005 137.644 53.8565 137.536 53.9805 137.404C54.1085 137.272 54.2025 137.126 54.2625 136.966C54.3265 136.802 54.3585 136.638 54.3585 136.474C54.3585 136.266 54.3365 136.078 54.2925 135.91C54.2485 135.738 54.1565 135.592 54.0165 135.472C53.8765 135.352 53.6745 135.258 53.4105 135.19C53.1505 135.122 52.8005 135.088 52.3605 135.088V134.032C52.7245 134.028 53.0265 133.994 53.2665 133.93C53.5065 133.866 53.6965 133.778 53.8365 133.666C53.9805 133.55 54.0805 133.412 54.1365 133.252C54.1925 133.092 54.2205 132.916 54.2205 132.724C54.2205 132.316 54.1065 132.006 53.8785 131.794C53.6505 131.582 53.3465 131.476 52.9665 131.476C52.7905 131.476 52.6285 131.502 52.4805 131.554C52.3325 131.602 52.1985 131.672 52.0785 131.764C51.9625 131.852 51.8645 131.956 51.7845 132.076C51.7045 132.196 51.6445 132.328 51.6045 132.472C51.5365 132.656 51.4465 132.778 51.3345 132.838C51.2265 132.898 51.0725 132.912 50.8725 132.88L50.0925 132.742ZM58.8554 139V132.844H59.7614C59.9534 132.844 60.0794 132.934 60.1394 133.114L60.2354 133.57C60.3434 133.45 60.4554 133.34 60.5714 133.24C60.6914 133.14 60.8174 133.054 60.9494 132.982C61.0854 132.91 61.2294 132.854 61.3814 132.814C61.5374 132.77 61.7074 132.748 61.8914 132.748C62.2794 132.748 62.5974 132.854 62.8454 133.066C63.0974 133.274 63.2854 133.552 63.4094 133.9C63.5054 133.696 63.6254 133.522 63.7694 133.378C63.9134 133.23 64.0714 133.11 64.2434 133.018C64.4154 132.926 64.5974 132.858 64.7894 132.814C64.9854 132.77 65.1814 132.748 65.3774 132.748C65.7174 132.748 66.0194 132.8 66.2834 132.904C66.5474 133.008 66.7694 133.16 66.9494 133.36C67.1294 133.56 67.2654 133.804 67.3574 134.092C67.4534 134.38 67.5014 134.71 67.5014 135.082V139H66.0194V135.082C66.0194 134.69 65.9334 134.396 65.7614 134.2C65.5894 134 65.3374 133.9 65.0054 133.9C64.8534 133.9 64.7114 133.926 64.5794 133.978C64.4514 134.03 64.3374 134.106 64.2374 134.206C64.1414 134.302 64.0654 134.424 64.0094 134.572C63.9534 134.72 63.9254 134.89 63.9254 135.082V139H62.4374V135.082C62.4374 134.67 62.3534 134.37 62.1854 134.182C62.0214 133.994 61.7794 133.9 61.4594 133.9C61.2434 133.9 61.0414 133.954 60.8534 134.062C60.6694 134.166 60.4974 134.31 60.3374 134.494V139H58.8554ZM69.7081 133.912C69.9001 133.544 70.1281 133.256 70.3921 133.048C70.6561 132.836 70.9681 132.73 71.3281 132.73C71.6121 132.73 71.8401 132.792 72.0121 132.916L71.9161 134.026C71.8961 134.098 71.8661 134.15 71.8261 134.182C71.7901 134.21 71.7401 134.224 71.6761 134.224C71.6161 134.224 71.5261 134.214 71.4061 134.194C71.2901 134.174 71.1761 134.164 71.0641 134.164C70.9001 134.164 70.7541 134.188 70.6261 134.236C70.4981 134.284 70.3821 134.354 70.2781 134.446C70.1781 134.534 70.0881 134.642 70.0081 134.77C69.9321 134.898 69.8601 135.044 69.7921 135.208V139H68.3101V132.844H69.1801C69.3321 132.844 69.4381 132.872 69.4981 132.928C69.5581 132.98 69.5981 133.076 69.6181 133.216L69.7081 133.912ZM75.8866 134.416C75.7186 134.212 75.5346 134.068 75.3346 133.984C75.1386 133.9 74.9266 133.858 74.6986 133.858C74.4746 133.858 74.2726 133.9 74.0926 133.984C73.9126 134.068 73.7586 134.196 73.6306 134.368C73.5026 134.536 73.4046 134.752 73.3366 135.016C73.2686 135.276 73.2346 135.584 73.2346 135.94C73.2346 136.3 73.2626 136.606 73.3186 136.858C73.3786 137.106 73.4626 137.31 73.5706 137.47C73.6786 137.626 73.8106 137.74 73.9666 137.812C74.1226 137.88 74.2966 137.914 74.4886 137.914C74.7966 137.914 75.0586 137.85 75.2746 137.722C75.4906 137.594 75.6946 137.412 75.8866 137.176V134.416ZM77.3686 130.084V139H76.4626C76.2666 139 76.1426 138.91 76.0906 138.73L75.9646 138.136C75.7166 138.42 75.4306 138.65 75.1066 138.826C74.7866 139.002 74.4126 139.09 73.9846 139.09C73.6486 139.09 73.3406 139.02 73.0606 138.88C72.7806 138.74 72.5386 138.538 72.3346 138.274C72.1346 138.006 71.9786 137.676 71.8666 137.284C71.7586 136.892 71.7046 136.444 71.7046 135.94C71.7046 135.484 71.7666 135.06 71.8906 134.668C72.0146 134.276 72.1926 133.936 72.4246 133.648C72.6566 133.36 72.9346 133.136 73.2586 132.976C73.5826 132.812 73.9466 132.73 74.3506 132.73C74.6946 132.73 74.9886 132.784 75.2326 132.892C75.4766 133 75.6946 133.146 75.8866 133.33V130.084H77.3686Z" fill="#213E88"/>
<path d="M146.212 137.74C146.512 137.74 146.764 137.704 146.968 137.632C147.172 137.56 147.334 137.464 147.454 137.344C147.578 137.224 147.666 137.084 147.718 136.924C147.774 136.764 147.802 136.594 147.802 136.414C147.802 136.226 147.772 136.058 147.712 135.91C147.652 135.758 147.558 135.63 147.43 135.526C147.302 135.418 147.136 135.336 146.932 135.28C146.732 135.224 146.49 135.196 146.206 135.196H144.58V137.74H146.212ZM144.58 131.572V134.08H145.864C146.416 134.08 146.832 133.98 147.112 133.78C147.396 133.58 147.538 133.262 147.538 132.826C147.538 132.374 147.41 132.052 147.154 131.86C146.898 131.668 146.498 131.572 145.954 131.572H144.58ZM145.954 130.324C146.522 130.324 147.008 130.378 147.412 130.486C147.816 130.594 148.146 130.748 148.402 130.948C148.662 131.148 148.852 131.39 148.972 131.674C149.092 131.958 149.152 132.278 149.152 132.634C149.152 132.838 149.122 133.034 149.062 133.222C149.002 133.406 148.908 133.58 148.78 133.744C148.656 133.904 148.496 134.05 148.3 134.182C148.108 134.314 147.878 134.426 147.61 134.518C148.802 134.786 149.398 135.43 149.398 136.45C149.398 136.818 149.328 137.158 149.188 137.47C149.048 137.782 148.844 138.052 148.576 138.28C148.308 138.504 147.978 138.68 147.586 138.808C147.194 138.936 146.746 139 146.242 139H142.966V130.324H145.954ZM153.51 137.74C153.81 137.74 154.062 137.704 154.266 137.632C154.47 137.56 154.632 137.464 154.752 137.344C154.876 137.224 154.964 137.084 155.016 136.924C155.072 136.764 155.1 136.594 155.1 136.414C155.1 136.226 155.07 136.058 155.01 135.91C154.95 135.758 154.856 135.63 154.728 135.526C154.6 135.418 154.434 135.336 154.23 135.28C154.03 135.224 153.788 135.196 153.504 135.196H151.878V137.74H153.51ZM151.878 131.572V134.08H153.162C153.714 134.08 154.13 133.98 154.41 133.78C154.694 133.58 154.836 133.262 154.836 132.826C154.836 132.374 154.708 132.052 154.452 131.86C154.196 131.668 153.796 131.572 153.252 131.572H151.878ZM153.252 130.324C153.82 130.324 154.306 130.378 154.71 130.486C155.114 130.594 155.444 130.748 155.7 130.948C155.96 131.148 156.15 131.39 156.27 131.674C156.39 131.958 156.45 132.278 156.45 132.634C156.45 132.838 156.42 133.034 156.36 133.222C156.3 133.406 156.206 133.58 156.078 133.744C155.954 133.904 155.794 134.05 155.598 134.182C155.406 134.314 155.176 134.426 154.908 134.518C156.1 134.786 156.696 135.43 156.696 136.45C156.696 136.818 156.626 137.158 156.486 137.47C156.346 137.782 156.142 138.052 155.874 138.28C155.606 138.504 155.276 138.68 154.884 138.808C154.492 138.936 154.044 139 153.54 139H150.264V130.324H153.252ZM160.383 134.686C160.679 134.686 160.937 134.65 161.157 134.578C161.377 134.502 161.559 134.396 161.703 134.26C161.851 134.12 161.961 133.952 162.033 133.756C162.105 133.556 162.141 133.334 162.141 133.09C162.141 132.858 162.105 132.648 162.033 132.46C161.961 132.272 161.853 132.112 161.709 131.98C161.565 131.848 161.383 131.748 161.163 131.68C160.943 131.608 160.683 131.572 160.383 131.572H159.177V134.686H160.383ZM160.383 130.324C160.963 130.324 161.465 130.392 161.889 130.528C162.313 130.664 162.663 130.854 162.939 131.098C163.215 131.342 163.419 131.634 163.551 131.974C163.687 132.314 163.755 132.686 163.755 133.09C163.755 133.51 163.685 133.896 163.545 134.248C163.405 134.596 163.195 134.896 162.915 135.148C162.635 135.4 162.283 135.596 161.859 135.736C161.439 135.876 160.947 135.946 160.383 135.946H159.177V139H157.563V130.324H160.383ZM170.159 133.474C170.351 133.434 170.535 133.406 170.711 133.39C170.887 133.37 171.057 133.36 171.221 133.36C171.677 133.36 172.079 133.428 172.427 133.564C172.775 133.7 173.067 133.888 173.303 134.128C173.539 134.368 173.717 134.65 173.837 134.974C173.957 135.294 174.017 135.64 174.017 136.012C174.017 136.472 173.935 136.892 173.771 137.272C173.611 137.652 173.387 137.978 173.099 138.25C172.811 138.518 172.469 138.726 172.073 138.874C171.681 139.022 171.253 139.096 170.789 139.096C170.517 139.096 170.259 139.068 170.015 139.012C169.771 138.956 169.541 138.882 169.325 138.79C169.113 138.694 168.915 138.586 168.731 138.466C168.551 138.342 168.389 138.212 168.245 138.076L168.701 137.446C168.797 137.31 168.923 137.242 169.079 137.242C169.179 137.242 169.281 137.274 169.385 137.338C169.489 137.402 169.607 137.472 169.739 137.548C169.875 137.624 170.033 137.694 170.213 137.758C170.397 137.822 170.617 137.854 170.873 137.854C171.145 137.854 171.385 137.81 171.593 137.722C171.801 137.634 171.973 137.512 172.109 137.356C172.249 137.196 172.353 137.008 172.421 136.792C172.493 136.572 172.529 136.334 172.529 136.078C172.529 135.606 172.391 135.238 172.115 134.974C171.843 134.706 171.439 134.572 170.903 134.572C170.491 134.572 170.069 134.648 169.637 134.8L168.713 134.536L169.433 130.324H173.717V130.954C173.717 131.166 173.651 131.338 173.519 131.47C173.387 131.602 173.163 131.668 172.847 131.668H170.465L170.159 133.474ZM174.732 132.742C174.792 132.326 174.908 131.962 175.08 131.65C175.252 131.334 175.466 131.072 175.722 130.864C175.982 130.652 176.278 130.494 176.61 130.39C176.946 130.282 177.306 130.228 177.69 130.228C178.09 130.228 178.45 130.286 178.77 130.402C179.094 130.514 179.37 130.672 179.598 130.876C179.826 131.076 180 131.312 180.12 131.584C180.244 131.856 180.306 132.15 180.306 132.466C180.306 132.742 180.274 132.986 180.21 133.198C180.15 133.406 180.062 133.588 179.946 133.744C179.83 133.9 179.686 134.032 179.514 134.14C179.342 134.248 179.148 134.338 178.932 134.41C179.452 134.574 179.84 134.824 180.096 135.16C180.352 135.496 180.48 135.918 180.48 136.426C180.48 136.858 180.4 137.24 180.24 137.572C180.08 137.904 179.864 138.184 179.592 138.412C179.32 138.636 179.004 138.806 178.644 138.922C178.288 139.038 177.91 139.096 177.51 139.096C177.074 139.096 176.694 139.046 176.37 138.946C176.046 138.846 175.764 138.698 175.524 138.502C175.284 138.306 175.08 138.066 174.912 137.782C174.744 137.498 174.6 137.17 174.48 136.798L175.134 136.528C175.306 136.456 175.466 136.438 175.614 136.474C175.766 136.506 175.876 136.586 175.944 136.714C176.016 136.854 176.094 136.992 176.178 137.128C176.266 137.264 176.37 137.386 176.49 137.494C176.61 137.598 176.75 137.684 176.91 137.752C177.074 137.816 177.268 137.848 177.492 137.848C177.744 137.848 177.964 137.808 178.152 137.728C178.34 137.644 178.496 137.536 178.62 137.404C178.748 137.272 178.842 137.126 178.902 136.966C178.966 136.802 178.998 136.638 178.998 136.474C178.998 136.266 178.976 136.078 178.932 135.91C178.888 135.738 178.796 135.592 178.656 135.472C178.516 135.352 178.314 135.258 178.05 135.19C177.79 135.122 177.44 135.088 177 135.088V134.032C177.364 134.028 177.666 133.994 177.906 133.93C178.146 133.866 178.336 133.778 178.476 133.666C178.62 133.55 178.72 133.412 178.776 133.252C178.832 133.092 178.86 132.916 178.86 132.724C178.86 132.316 178.746 132.006 178.518 131.794C178.29 131.582 177.986 131.476 177.606 131.476C177.43 131.476 177.268 131.502 177.12 131.554C176.972 131.602 176.838 131.672 176.718 131.764C176.602 131.852 176.504 131.956 176.424 132.076C176.344 132.196 176.284 132.328 176.244 132.472C176.176 132.656 176.086 132.778 175.974 132.838C175.866 132.898 175.712 132.912 175.512 132.88L174.732 132.742ZM186.331 137.62C186.491 137.62 186.617 137.666 186.709 137.758C186.805 137.846 186.853 137.964 186.853 138.112V139H180.901V138.508C180.901 138.408 180.921 138.304 180.961 138.196C181.005 138.084 181.073 137.984 181.165 137.896L183.799 135.256C184.019 135.032 184.215 134.818 184.387 134.614C184.563 134.41 184.709 134.208 184.825 134.008C184.941 133.808 185.029 133.606 185.089 133.402C185.153 133.194 185.185 132.976 185.185 132.748C185.185 132.54 185.155 132.358 185.095 132.202C185.035 132.042 184.949 131.908 184.837 131.8C184.729 131.692 184.597 131.612 184.441 131.56C184.289 131.504 184.117 131.476 183.925 131.476C183.749 131.476 183.585 131.502 183.433 131.554C183.285 131.602 183.153 131.672 183.037 131.764C182.921 131.852 182.823 131.956 182.743 132.076C182.663 132.196 182.603 132.328 182.563 132.472C182.495 132.656 182.407 132.778 182.299 132.838C182.191 132.898 182.035 132.912 181.831 132.88L181.051 132.742C181.111 132.326 181.227 131.962 181.399 131.65C181.571 131.334 181.785 131.072 182.041 130.864C182.301 130.652 182.597 130.494 182.929 130.39C183.265 130.282 183.625 130.228 184.009 130.228C184.409 130.228 184.775 130.288 185.107 130.408C185.439 130.524 185.723 130.69 185.959 130.906C186.195 131.122 186.379 131.382 186.511 131.686C186.643 131.99 186.709 132.328 186.709 132.7C186.709 133.02 186.661 133.316 186.565 133.588C186.473 133.86 186.347 134.12 186.187 134.368C186.031 134.616 185.847 134.856 185.635 135.088C185.423 135.32 185.201 135.556 184.969 135.796L183.013 137.794C183.201 137.738 183.387 137.696 183.571 137.668C183.759 137.636 183.937 137.62 184.105 137.62H186.331ZM189.855 139V132.844H190.761C190.953 132.844 191.079 132.934 191.139 133.114L191.235 133.57C191.343 133.45 191.455 133.34 191.571 133.24C191.691 133.14 191.817 133.054 191.949 132.982C192.085 132.91 192.229 132.854 192.381 132.814C192.537 132.77 192.707 132.748 192.891 132.748C193.279 132.748 193.597 132.854 193.845 133.066C194.097 133.274 194.285 133.552 194.409 133.9C194.505 133.696 194.625 133.522 194.769 133.378C194.913 133.23 195.071 133.11 195.243 133.018C195.415 132.926 195.597 132.858 195.789 132.814C195.985 132.77 196.181 132.748 196.377 132.748C196.717 132.748 197.019 132.8 197.283 132.904C197.547 133.008 197.769 133.16 197.949 133.36C198.129 133.56 198.265 133.804 198.357 134.092C198.453 134.38 198.501 134.71 198.501 135.082V139H197.019V135.082C197.019 134.69 196.933 134.396 196.761 134.2C196.589 134 196.337 133.9 196.005 133.9C195.853 133.9 195.711 133.926 195.579 133.978C195.451 134.03 195.337 134.106 195.237 134.206C195.141 134.302 195.065 134.424 195.009 134.572C194.953 134.72 194.925 134.89 194.925 135.082V139H193.437V135.082C193.437 134.67 193.353 134.37 193.185 134.182C193.021 133.994 192.779 133.9 192.459 133.9C192.243 133.9 192.041 133.954 191.853 134.062C191.669 134.166 191.497 134.31 191.337 134.494V139H189.855ZM200.708 133.912C200.9 133.544 201.128 133.256 201.392 133.048C201.656 132.836 201.968 132.73 202.328 132.73C202.612 132.73 202.84 132.792 203.012 132.916L202.916 134.026C202.896 134.098 202.866 134.15 202.826 134.182C202.79 134.21 202.74 134.224 202.676 134.224C202.616 134.224 202.526 134.214 202.406 134.194C202.29 134.174 202.176 134.164 202.064 134.164C201.9 134.164 201.754 134.188 201.626 134.236C201.498 134.284 201.382 134.354 201.278 134.446C201.178 134.534 201.088 134.642 201.008 134.77C200.932 134.898 200.86 135.044 200.792 135.208V139H199.31V132.844H200.18C200.332 132.844 200.438 132.872 200.498 132.928C200.558 132.98 200.598 133.076 200.618 133.216L200.708 133.912ZM206.887 134.416C206.719 134.212 206.535 134.068 206.335 133.984C206.139 133.9 205.927 133.858 205.699 133.858C205.475 133.858 205.273 133.9 205.093 133.984C204.913 134.068 204.759 134.196 204.631 134.368C204.503 134.536 204.405 134.752 204.337 135.016C204.269 135.276 204.235 135.584 204.235 135.94C204.235 136.3 204.263 136.606 204.319 136.858C204.379 137.106 204.463 137.31 204.571 137.47C204.679 137.626 204.811 137.74 204.967 137.812C205.123 137.88 205.297 137.914 205.489 137.914C205.797 137.914 206.059 137.85 206.275 137.722C206.491 137.594 206.695 137.412 206.887 137.176V134.416ZM208.369 130.084V139H207.463C207.267 139 207.143 138.91 207.091 138.73L206.965 138.136C206.717 138.42 206.431 138.65 206.107 138.826C205.787 139.002 205.413 139.09 204.985 139.09C204.649 139.09 204.341 139.02 204.061 138.88C203.781 138.74 203.539 138.538 203.335 138.274C203.135 138.006 202.979 137.676 202.867 137.284C202.759 136.892 202.705 136.444 202.705 135.94C202.705 135.484 202.767 135.06 202.891 134.668C203.015 134.276 203.193 133.936 203.425 133.648C203.657 133.36 203.935 133.136 204.259 132.976C204.583 132.812 204.947 132.73 205.351 132.73C205.695 132.73 205.989 132.784 206.233 132.892C206.477 133 206.695 133.146 206.887 133.33V130.084H208.369Z" fill="#213E88"/>
<path d="M27.28 3.324V12H26.452C26.324 12 26.216 11.98 26.128 11.94C26.044 11.896 25.962 11.824 25.882 11.724L21.352 5.94C21.376 6.204 21.388 6.448 21.388 6.672V12H19.966V3.324H20.812C20.88 3.324 20.938 3.328 20.986 3.336C21.038 3.34 21.082 3.352 21.118 3.372C21.158 3.388 21.196 3.414 21.232 3.45C21.268 3.482 21.308 3.526 21.352 3.582L25.9 9.39C25.888 9.25 25.878 9.112 25.87 8.976C25.862 8.84 25.858 8.714 25.858 8.598V3.324H27.28ZM32.1566 8.214C32.1566 8.022 32.1286 7.842 32.0726 7.674C32.0206 7.502 31.9406 7.352 31.8326 7.224C31.7246 7.096 31.5866 6.996 31.4186 6.924C31.2546 6.848 31.0626 6.81 30.8426 6.81C30.4146 6.81 30.0766 6.932 29.8286 7.176C29.5846 7.42 29.4286 7.766 29.3606 8.214H32.1566ZM29.3306 9.108C29.3546 9.424 29.4106 9.698 29.4986 9.93C29.5866 10.158 29.7026 10.348 29.8466 10.5C29.9906 10.648 30.1606 10.76 30.3566 10.836C30.5566 10.908 30.7766 10.944 31.0166 10.944C31.2566 10.944 31.4626 10.916 31.6346 10.86C31.8106 10.804 31.9626 10.742 32.0906 10.674C32.2226 10.606 32.3366 10.544 32.4326 10.488C32.5326 10.432 32.6286 10.404 32.7206 10.404C32.8446 10.404 32.9366 10.45 32.9966 10.542L33.4226 11.082C33.2586 11.274 33.0746 11.436 32.8706 11.568C32.6666 11.696 32.4526 11.8 32.2286 11.88C32.0086 11.956 31.7826 12.01 31.5506 12.042C31.3226 12.074 31.1006 12.09 30.8846 12.09C30.4566 12.09 30.0586 12.02 29.6906 11.88C29.3226 11.736 29.0026 11.526 28.7306 11.25C28.4586 10.97 28.2446 10.626 28.0886 10.218C27.9326 9.806 27.8546 9.33 27.8546 8.79C27.8546 8.37 27.9226 7.976 28.0586 7.608C28.1946 7.236 28.3886 6.914 28.6406 6.642C28.8966 6.366 29.2066 6.148 29.5706 5.988C29.9386 5.828 30.3526 5.748 30.8126 5.748C31.2006 5.748 31.5586 5.81 31.8866 5.934C32.2146 6.058 32.4966 6.24 32.7326 6.48C32.9686 6.716 33.1526 7.008 33.2846 7.356C33.4206 7.7 33.4886 8.094 33.4886 8.538C33.4886 8.762 33.4646 8.914 33.4166 8.994C33.3686 9.07 33.2766 9.108 33.1406 9.108H29.3306ZM37.8648 7.416C37.6968 7.212 37.5128 7.068 37.3128 6.984C37.1168 6.9 36.9048 6.858 36.6768 6.858C36.4528 6.858 36.2508 6.9 36.0708 6.984C35.8908 7.068 35.7368 7.196 35.6088 7.368C35.4808 7.536 35.3828 7.752 35.3148 8.016C35.2468 8.276 35.2128 8.584 35.2128 8.94C35.2128 9.3 35.2408 9.606 35.2968 9.858C35.3568 10.106 35.4408 10.31 35.5488 10.47C35.6568 10.626 35.7888 10.74 35.9448 10.812C36.1008 10.88 36.2748 10.914 36.4668 10.914C36.7748 10.914 37.0368 10.85 37.2528 10.722C37.4688 10.594 37.6728 10.412 37.8648 10.176V7.416ZM39.3468 3.084V12H38.4408C38.2448 12 38.1208 11.91 38.0688 11.73L37.9428 11.136C37.6948 11.42 37.4088 11.65 37.0848 11.826C36.7648 12.002 36.3908 12.09 35.9628 12.09C35.6268 12.09 35.3188 12.02 35.0388 11.88C34.7588 11.74 34.5168 11.538 34.3128 11.274C34.1128 11.006 33.9568 10.676 33.8448 10.284C33.7368 9.892 33.6828 9.444 33.6828 8.94C33.6828 8.484 33.7448 8.06 33.8688 7.668C33.9928 7.276 34.1708 6.936 34.4028 6.648C34.6348 6.36 34.9128 6.136 35.2368 5.976C35.5608 5.812 35.9248 5.73 36.3288 5.73C36.6728 5.73 36.9668 5.784 37.2108 5.892C37.4548 6 37.6728 6.146 37.8648 6.33V3.084H39.3468ZM44.1753 8.214C44.1753 8.022 44.1473 7.842 44.0913 7.674C44.0393 7.502 43.9593 7.352 43.8513 7.224C43.7433 7.096 43.6053 6.996 43.4373 6.924C43.2733 6.848 43.0813 6.81 42.8613 6.81C42.4333 6.81 42.0953 6.932 41.8473 7.176C41.6033 7.42 41.4473 7.766 41.3793 8.214H44.1753ZM41.3493 9.108C41.3733 9.424 41.4293 9.698 41.5173 9.93C41.6053 10.158 41.7213 10.348 41.8653 10.5C42.0093 10.648 42.1793 10.76 42.3753 10.836C42.5753 10.908 42.7953 10.944 43.0353 10.944C43.2753 10.944 43.4813 10.916 43.6533 10.86C43.8293 10.804 43.9813 10.742 44.1093 10.674C44.2413 10.606 44.3553 10.544 44.4513 10.488C44.5513 10.432 44.6473 10.404 44.7393 10.404C44.8633 10.404 44.9553 10.45 45.0153 10.542L45.4413 11.082C45.2773 11.274 45.0933 11.436 44.8893 11.568C44.6853 11.696 44.4713 11.8 44.2473 11.88C44.0273 11.956 43.8013 12.01 43.5693 12.042C43.3413 12.074 43.1193 12.09 42.9033 12.09C42.4753 12.09 42.0773 12.02 41.7093 11.88C41.3413 11.736 41.0213 11.526 40.7493 11.25C40.4773 10.97 40.2633 10.626 40.1073 10.218C39.9513 9.806 39.8733 9.33 39.8733 8.79C39.8733 8.37 39.9413 7.976 40.0773 7.608C40.2133 7.236 40.4073 6.914 40.6593 6.642C40.9153 6.366 41.2253 6.148 41.5893 5.988C41.9573 5.828 42.3713 5.748 42.8313 5.748C43.2193 5.748 43.5773 5.81 43.9053 5.934C44.2333 6.058 44.5153 6.24 44.7513 6.48C44.9873 6.716 45.1713 7.008 45.3033 7.356C45.4393 7.7 45.5073 8.094 45.5073 8.538C45.5073 8.762 45.4833 8.914 45.4353 8.994C45.3873 9.07 45.2953 9.108 45.1593 9.108H41.3493ZM47.4175 6.912C47.6095 6.544 47.8375 6.256 48.1015 6.048C48.3655 5.836 48.6775 5.73 49.0375 5.73C49.3215 5.73 49.5495 5.792 49.7215 5.916L49.6255 7.026C49.6055 7.098 49.5755 7.15 49.5355 7.182C49.4995 7.21 49.4495 7.224 49.3855 7.224C49.3255 7.224 49.2355 7.214 49.1155 7.194C48.9995 7.174 48.8855 7.164 48.7735 7.164C48.6095 7.164 48.4635 7.188 48.3355 7.236C48.2075 7.284 48.0915 7.354 47.9875 7.446C47.8875 7.534 47.7975 7.642 47.7175 7.77C47.6415 7.898 47.5695 8.044 47.5015 8.208V12H46.0195V5.844H46.8895C47.0415 5.844 47.1475 5.872 47.2075 5.928C47.2675 5.98 47.3075 6.076 47.3275 6.216L47.4175 6.912ZM51.3961 3.084V12H49.9141V3.084H51.3961ZM55.5246 9.372C55.0966 9.392 54.7366 9.43 54.4446 9.486C54.1526 9.538 53.9186 9.606 53.7426 9.69C53.5666 9.774 53.4406 9.872 53.3646 9.984C53.2886 10.096 53.2506 10.218 53.2506 10.35C53.2506 10.61 53.3266 10.796 53.4786 10.908C53.6346 11.02 53.8366 11.076 54.0846 11.076C54.3886 11.076 54.6506 11.022 54.8706 10.914C55.0946 10.802 55.3126 10.634 55.5246 10.41V9.372ZM52.1286 6.702C52.8366 6.054 53.6886 5.73 54.6846 5.73C55.0446 5.73 55.3666 5.79 55.6506 5.91C55.9346 6.026 56.1746 6.19 56.3706 6.402C56.5666 6.61 56.7146 6.86 56.8146 7.152C56.9186 7.444 56.9706 7.764 56.9706 8.112V12H56.2986C56.1586 12 56.0506 11.98 55.9746 11.94C55.8986 11.896 55.8386 11.81 55.7946 11.682L55.6626 11.238C55.5066 11.378 55.3546 11.502 55.2066 11.61C55.0586 11.714 54.9046 11.802 54.7446 11.874C54.5846 11.946 54.4126 12 54.2286 12.036C54.0486 12.076 53.8486 12.096 53.6286 12.096C53.3686 12.096 53.1286 12.062 52.9086 11.994C52.6886 11.922 52.4986 11.816 52.3386 11.676C52.1786 11.536 52.0546 11.362 51.9666 11.154C51.8786 10.946 51.8346 10.704 51.8346 10.428C51.8346 10.272 51.8606 10.118 51.9126 9.966C51.9646 9.81 52.0486 9.662 52.1646 9.522C52.2846 9.382 52.4386 9.25 52.6266 9.126C52.8146 9.002 53.0446 8.894 53.3166 8.802C53.5926 8.71 53.9126 8.636 54.2766 8.58C54.6406 8.52 55.0566 8.484 55.5246 8.472V8.112C55.5246 7.7 55.4366 7.396 55.2606 7.2C55.0846 7 54.8306 6.9 54.4986 6.9C54.2586 6.9 54.0586 6.928 53.8986 6.984C53.7426 7.04 53.6046 7.104 53.4846 7.176C53.3646 7.244 53.2546 7.306 53.1546 7.362C53.0586 7.418 52.9506 7.446 52.8306 7.446C52.7266 7.446 52.6386 7.42 52.5666 7.368C52.4946 7.312 52.4366 7.248 52.3926 7.176L52.1286 6.702ZM59.1524 6.6C59.2764 6.476 59.4064 6.362 59.5424 6.258C59.6824 6.15 59.8284 6.06 59.9804 5.988C60.1364 5.912 60.3024 5.854 60.4784 5.814C60.6544 5.77 60.8464 5.748 61.0544 5.748C61.3904 5.748 61.6884 5.806 61.9484 5.922C62.2084 6.034 62.4244 6.194 62.5964 6.402C62.7724 6.606 62.9044 6.852 62.9924 7.14C63.0844 7.424 63.1304 7.738 63.1304 8.082V12H61.6484V8.082C61.6484 7.706 61.5624 7.416 61.3904 7.212C61.2184 7.004 60.9564 6.9 60.6044 6.9C60.3484 6.9 60.1084 6.958 59.8844 7.074C59.6604 7.19 59.4484 7.348 59.2484 7.548V12H57.7664V5.844H58.6724C58.8644 5.844 58.9904 5.934 59.0504 6.114L59.1524 6.6ZM67.8038 7.416C67.6358 7.212 67.4518 7.068 67.2518 6.984C67.0558 6.9 66.8438 6.858 66.6158 6.858C66.3918 6.858 66.1898 6.9 66.0098 6.984C65.8298 7.068 65.6758 7.196 65.5478 7.368C65.4198 7.536 65.3218 7.752 65.2538 8.016C65.1858 8.276 65.1518 8.584 65.1518 8.94C65.1518 9.3 65.1798 9.606 65.2358 9.858C65.2958 10.106 65.3798 10.31 65.4878 10.47C65.5958 10.626 65.7278 10.74 65.8838 10.812C66.0398 10.88 66.2138 10.914 66.4058 10.914C66.7138 10.914 66.9758 10.85 67.1918 10.722C67.4078 10.594 67.6118 10.412 67.8038 10.176V7.416ZM69.2858 3.084V12H68.3798C68.1838 12 68.0598 11.91 68.0078 11.73L67.8818 11.136C67.6338 11.42 67.3478 11.65 67.0238 11.826C66.7038 12.002 66.3298 12.09 65.9018 12.09C65.5658 12.09 65.2578 12.02 64.9778 11.88C64.6978 11.74 64.4558 11.538 64.2518 11.274C64.0518 11.006 63.8958 10.676 63.7838 10.284C63.6758 9.892 63.6218 9.444 63.6218 8.94C63.6218 8.484 63.6838 8.06 63.8078 7.668C63.9318 7.276 64.1098 6.936 64.3418 6.648C64.5738 6.36 64.8518 6.136 65.1758 5.976C65.4998 5.812 65.8638 5.73 66.2678 5.73C66.6118 5.73 66.9058 5.784 67.1498 5.892C67.3938 6 67.6118 6.146 67.8038 6.33V3.084H69.2858Z" fill="#213E88"/>
<path d="M165.212 10.74C165.512 10.74 165.764 10.704 165.968 10.632C166.172 10.56 166.334 10.464 166.454 10.344C166.578 10.224 166.666 10.084 166.718 9.924C166.774 9.764 166.802 9.594 166.802 9.414C166.802 9.226 166.772 9.058 166.712 8.91C166.652 8.758 166.558 8.63 166.43 8.526C166.302 8.418 166.136 8.336 165.932 8.28C165.732 8.224 165.49 8.196 165.206 8.196H163.58V10.74H165.212ZM163.58 4.572V7.08H164.864C165.416 7.08 165.832 6.98 166.112 6.78C166.396 6.58 166.538 6.262 166.538 5.826C166.538 5.374 166.41 5.052 166.154 4.86C165.898 4.668 165.498 4.572 164.954 4.572H163.58ZM164.954 3.324C165.522 3.324 166.008 3.378 166.412 3.486C166.816 3.594 167.146 3.748 167.402 3.948C167.662 4.148 167.852 4.39 167.972 4.674C168.092 4.958 168.152 5.278 168.152 5.634C168.152 5.838 168.122 6.034 168.062 6.222C168.002 6.406 167.908 6.58 167.78 6.744C167.656 6.904 167.496 7.05 167.3 7.182C167.108 7.314 166.878 7.426 166.61 7.518C167.802 7.786 168.398 8.43 168.398 9.45C168.398 9.818 168.328 10.158 168.188 10.47C168.048 10.782 167.844 11.052 167.576 11.28C167.308 11.504 166.978 11.68 166.586 11.808C166.194 11.936 165.746 12 165.242 12H161.966V3.324H164.954ZM172.914 8.214C172.914 8.022 172.886 7.842 172.83 7.674C172.778 7.502 172.698 7.352 172.59 7.224C172.482 7.096 172.344 6.996 172.176 6.924C172.012 6.848 171.82 6.81 171.6 6.81C171.172 6.81 170.834 6.932 170.586 7.176C170.342 7.42 170.186 7.766 170.118 8.214H172.914ZM170.088 9.108C170.112 9.424 170.168 9.698 170.256 9.93C170.344 10.158 170.46 10.348 170.604 10.5C170.748 10.648 170.918 10.76 171.114 10.836C171.314 10.908 171.534 10.944 171.774 10.944C172.014 10.944 172.22 10.916 172.392 10.86C172.568 10.804 172.72 10.742 172.848 10.674C172.98 10.606 173.094 10.544 173.19 10.488C173.29 10.432 173.386 10.404 173.478 10.404C173.602 10.404 173.694 10.45 173.754 10.542L174.18 11.082C174.016 11.274 173.832 11.436 173.628 11.568C173.424 11.696 173.21 11.8 172.986 11.88C172.766 11.956 172.54 12.01 172.308 12.042C172.08 12.074 171.858 12.09 171.642 12.09C171.214 12.09 170.816 12.02 170.448 11.88C170.08 11.736 169.76 11.526 169.488 11.25C169.216 10.97 169.002 10.626 168.846 10.218C168.69 9.806 168.612 9.33 168.612 8.79C168.612 8.37 168.68 7.976 168.816 7.608C168.952 7.236 169.146 6.914 169.398 6.642C169.654 6.366 169.964 6.148 170.328 5.988C170.696 5.828 171.11 5.748 171.57 5.748C171.958 5.748 172.316 5.81 172.644 5.934C172.972 6.058 173.254 6.24 173.49 6.48C173.726 6.716 173.91 7.008 174.042 7.356C174.178 7.7 174.246 8.094 174.246 8.538C174.246 8.762 174.222 8.914 174.174 8.994C174.126 9.07 174.034 9.108 173.898 9.108H170.088ZM176.259 3.084V12H174.777V3.084H176.259ZM179.385 8.772C179.569 8.772 179.729 8.748 179.865 8.7C180.001 8.648 180.113 8.578 180.201 8.49C180.293 8.402 180.361 8.296 180.405 8.172C180.453 8.048 180.477 7.912 180.477 7.764C180.477 7.46 180.385 7.22 180.201 7.044C180.021 6.864 179.749 6.774 179.385 6.774C179.021 6.774 178.747 6.864 178.563 7.044C178.383 7.22 178.293 7.46 178.293 7.764C178.293 7.908 178.315 8.042 178.359 8.166C178.407 8.29 178.475 8.398 178.563 8.49C178.655 8.578 178.769 8.648 178.905 8.7C179.045 8.748 179.205 8.772 179.385 8.772ZM181.059 12.276C181.059 12.156 181.023 12.058 180.951 11.982C180.879 11.906 180.781 11.848 180.657 11.808C180.533 11.764 180.387 11.732 180.219 11.712C180.055 11.692 179.879 11.678 179.691 11.67C179.507 11.658 179.315 11.648 179.115 11.64C178.919 11.632 178.727 11.616 178.539 11.592C178.375 11.684 178.241 11.792 178.137 11.916C178.037 12.04 177.987 12.184 177.987 12.348C177.987 12.456 178.013 12.556 178.065 12.648C178.121 12.744 178.207 12.826 178.323 12.894C178.443 12.962 178.597 13.014 178.785 13.05C178.973 13.09 179.203 13.11 179.475 13.11C179.751 13.11 179.989 13.088 180.189 13.044C180.389 13.004 180.553 12.946 180.681 12.87C180.813 12.798 180.909 12.71 180.969 12.606C181.029 12.506 181.059 12.396 181.059 12.276ZM182.535 6.054V6.606C182.535 6.782 182.429 6.89 182.217 6.93L181.665 7.032C181.749 7.244 181.791 7.476 181.791 7.728C181.791 8.032 181.729 8.308 181.605 8.556C181.485 8.8 181.317 9.008 181.101 9.18C180.885 9.352 180.629 9.486 180.333 9.582C180.041 9.674 179.725 9.72 179.385 9.72C179.265 9.72 179.149 9.714 179.037 9.702C178.925 9.69 178.815 9.674 178.707 9.654C178.515 9.77 178.419 9.9 178.419 10.044C178.419 10.168 178.475 10.26 178.587 10.32C178.703 10.376 178.855 10.416 179.043 10.44C179.231 10.464 179.445 10.48 179.685 10.488C179.925 10.492 180.171 10.504 180.423 10.524C180.675 10.544 180.921 10.58 181.161 10.632C181.401 10.68 181.615 10.758 181.803 10.866C181.991 10.974 182.141 11.122 182.253 11.31C182.369 11.494 182.427 11.732 182.427 12.024C182.427 12.296 182.359 12.56 182.223 12.816C182.091 13.072 181.897 13.3 181.641 13.5C181.389 13.7 181.077 13.86 180.705 13.98C180.337 14.104 179.917 14.166 179.445 14.166C178.981 14.166 178.577 14.12 178.233 14.028C177.889 13.94 177.603 13.82 177.375 13.668C177.147 13.52 176.977 13.348 176.865 13.152C176.753 12.956 176.697 12.752 176.697 12.54C176.697 12.252 176.783 12.012 176.955 11.82C177.131 11.624 177.371 11.468 177.675 11.352C177.511 11.268 177.381 11.156 177.285 11.016C177.189 10.876 177.141 10.692 177.141 10.464C177.141 10.372 177.157 10.278 177.189 10.182C177.225 10.082 177.275 9.984 177.339 9.888C177.407 9.792 177.491 9.702 177.591 9.618C177.691 9.53 177.809 9.452 177.945 9.384C177.633 9.216 177.387 8.992 177.207 8.712C177.031 8.432 176.943 8.104 176.943 7.728C176.943 7.424 177.003 7.15 177.123 6.906C177.247 6.658 177.417 6.448 177.633 6.276C177.853 6.1 178.111 5.966 178.407 5.874C178.707 5.782 179.033 5.736 179.385 5.736C179.649 5.736 179.897 5.764 180.129 5.82C180.361 5.872 180.573 5.95 180.765 6.054H182.535ZM184.411 5.844V12H182.923V5.844H184.411ZM184.615 4.05C184.615 4.178 184.589 4.298 184.537 4.41C184.485 4.522 184.415 4.62 184.327 4.704C184.243 4.788 184.143 4.856 184.027 4.908C183.911 4.956 183.787 4.98 183.655 4.98C183.527 4.98 183.405 4.956 183.289 4.908C183.177 4.856 183.079 4.788 182.995 4.704C182.911 4.62 182.843 4.522 182.791 4.41C182.743 4.298 182.719 4.178 182.719 4.05C182.719 3.918 182.743 3.794 182.791 3.678C182.843 3.562 182.911 3.462 182.995 3.378C183.079 3.294 183.177 3.228 183.289 3.18C183.405 3.128 183.527 3.102 183.655 3.102C183.787 3.102 183.911 3.128 184.027 3.18C184.143 3.228 184.243 3.294 184.327 3.378C184.415 3.462 184.485 3.562 184.537 3.678C184.589 3.794 184.615 3.918 184.615 4.05ZM189.288 8.214C189.288 8.022 189.26 7.842 189.204 7.674C189.152 7.502 189.072 7.352 188.964 7.224C188.856 7.096 188.718 6.996 188.55 6.924C188.386 6.848 188.194 6.81 187.974 6.81C187.546 6.81 187.208 6.932 186.96 7.176C186.716 7.42 186.56 7.766 186.492 8.214H189.288ZM186.462 9.108C186.486 9.424 186.542 9.698 186.63 9.93C186.718 10.158 186.834 10.348 186.978 10.5C187.122 10.648 187.292 10.76 187.488 10.836C187.688 10.908 187.908 10.944 188.148 10.944C188.388 10.944 188.594 10.916 188.766 10.86C188.942 10.804 189.094 10.742 189.222 10.674C189.354 10.606 189.468 10.544 189.564 10.488C189.664 10.432 189.76 10.404 189.852 10.404C189.976 10.404 190.068 10.45 190.128 10.542L190.554 11.082C190.39 11.274 190.206 11.436 190.002 11.568C189.798 11.696 189.584 11.8 189.36 11.88C189.14 11.956 188.914 12.01 188.682 12.042C188.454 12.074 188.232 12.09 188.016 12.09C187.588 12.09 187.19 12.02 186.822 11.88C186.454 11.736 186.134 11.526 185.862 11.25C185.59 10.97 185.376 10.626 185.22 10.218C185.064 9.806 184.986 9.33 184.986 8.79C184.986 8.37 185.054 7.976 185.19 7.608C185.326 7.236 185.52 6.914 185.772 6.642C186.028 6.366 186.338 6.148 186.702 5.988C187.07 5.828 187.484 5.748 187.944 5.748C188.332 5.748 188.69 5.81 189.018 5.934C189.346 6.058 189.628 6.24 189.864 6.48C190.1 6.716 190.284 7.008 190.416 7.356C190.552 7.7 190.62 8.094 190.62 8.538C190.62 8.762 190.596 8.914 190.548 8.994C190.5 9.07 190.408 9.108 190.272 9.108H186.462ZM187.596 4.248C187.596 4.36 187.574 4.466 187.53 4.566C187.486 4.662 187.424 4.746 187.344 4.818C187.268 4.89 187.178 4.948 187.074 4.992C186.974 5.032 186.866 5.052 186.75 5.052C186.642 5.052 186.538 5.032 186.438 4.992C186.342 4.948 186.256 4.89 186.18 4.818C186.108 4.746 186.05 4.662 186.006 4.566C185.962 4.466 185.94 4.36 185.94 4.248C185.94 4.132 185.962 4.024 186.006 3.924C186.05 3.82 186.108 3.73 186.18 3.654C186.256 3.578 186.342 3.518 186.438 3.474C186.538 3.43 186.642 3.408 186.75 3.408C186.866 3.408 186.974 3.43 187.074 3.474C187.178 3.518 187.268 3.578 187.344 3.654C187.424 3.73 187.486 3.82 187.53 3.924C187.574 4.024 187.596 4.132 187.596 4.248ZM190.02 4.248C190.02 4.36 189.998 4.466 189.954 4.566C189.91 4.662 189.85 4.746 189.774 4.818C189.702 4.89 189.614 4.948 189.51 4.992C189.41 5.032 189.302 5.052 189.186 5.052C189.074 5.052 188.968 5.032 188.868 4.992C188.768 4.948 188.68 4.89 188.604 4.818C188.532 4.746 188.474 4.662 188.43 4.566C188.386 4.466 188.364 4.36 188.364 4.248C188.364 4.132 188.386 4.024 188.43 3.924C188.474 3.82 188.532 3.73 188.604 3.654C188.68 3.578 188.768 3.518 188.868 3.474C188.968 3.43 189.074 3.408 189.186 3.408C189.302 3.408 189.41 3.43 189.51 3.474C189.614 3.518 189.702 3.578 189.774 3.654C189.85 3.73 189.91 3.82 189.954 3.924C189.998 4.024 190.02 4.132 190.02 4.248Z" fill="#213E88"/>
</svg>
