<svg width="294" height="180" viewBox="0 0 294 180" fill="none" xmlns="http://www.w3.org/2000/svg">
<path d="M0 0H294V180H0V0Z" fill="white"/>
<path fill-rule="evenodd" clip-rule="evenodd" d="M147 122C171.853 122 192 101.853 192 77C192 52.1472 171.853 32 147 32C122.147 32 102 52.1472 102 77C102 101.853 122.147 122 147 122ZM147 112C166.33 112 182 96.33 182 77C182 57.67 166.33 42 147 42C127.67 42 112 57.67 112 77C112 96.33 127.67 112 147 112Z" fill="#90CDF4"/>
<path d="M147 53C133.742 53 123 63.7419 123 77C123 90.2581 133.742 101 147 101C160.258 101 171 90.2581 171 77C171 63.7419 160.258 53 147 53ZM147 96.3548C136.326 96.3548 127.645 87.6742 127.645 77C127.645 66.3258 136.326 57.6452 147 57.6452C157.674 57.6452 166.355 66.3258 166.355 77C166.355 87.6742 157.674 96.3548 147 96.3548ZM155.129 82.4774C153.116 84.8968 150.145 86.2903 147 86.2903C143.855 86.2903 140.884 84.9065 138.871 82.4774C138.048 81.4903 136.587 81.3645 135.6 82.1774C134.613 83 134.487 84.4613 135.3 85.4484C138.203 88.9323 142.471 90.9258 147 90.9258C151.529 90.9258 155.797 88.9323 158.7 85.4484C159.523 84.4613 159.387 83 158.4 82.1774C157.413 81.3645 155.952 81.4903 155.129 82.4774V82.4774ZM136.21 72.6452C136.955 71.3194 138.068 70.5548 139.258 70.5548C140.448 70.5548 141.561 71.3194 142.306 72.6452L143.226 74.2903C143.429 74.6484 143.826 74.7452 144.126 74.6484C144.474 74.5419 144.706 74.2129 144.677 73.8452C144.358 69.771 141.561 66.9355 139.258 66.9355C136.955 66.9355 134.158 69.771 133.839 73.8452C133.81 74.2032 134.042 74.5419 134.39 74.6484C134.719 74.7548 135.106 74.6 135.29 74.2903L136.21 72.6452ZM154.742 66.9355C152.439 66.9355 149.642 69.771 149.323 73.8452C149.294 74.2032 149.526 74.5419 149.874 74.6484C150.213 74.7548 150.59 74.6 150.774 74.2903L151.694 72.6452C152.439 71.3194 153.552 70.5548 154.742 70.5548C155.932 70.5548 157.045 71.3194 157.79 72.6452L158.71 74.2903C158.913 74.6484 159.31 74.7452 159.61 74.6484C159.958 74.5419 160.19 74.2129 160.161 73.8452C159.842 69.771 157.045 66.9355 154.742 66.9355Z" fill="#213E88"/>
<path d="M35.1409 141.474L34.8409 141.846C35.0089 141.762 35.1889 141.698 35.3809 141.654C35.5769 141.606 35.7869 141.582 36.0109 141.582C36.3389 141.582 36.6569 141.636 36.9649 141.744C37.2769 141.852 37.5509 142.016 37.7869 142.236C38.0229 142.452 38.2129 142.722 38.3569 143.046C38.5009 143.37 38.5729 143.748 38.5729 144.18C38.5729 144.584 38.4989 144.964 38.3509 145.32C38.2029 145.672 37.9949 145.98 37.7269 146.244C37.4589 146.508 37.1349 146.716 36.7549 146.868C36.3789 147.02 35.9629 147.096 35.5069 147.096C35.0429 147.096 34.6269 147.022 34.2589 146.874C33.8909 146.726 33.5769 146.52 33.3169 146.256C33.0569 145.988 32.8569 145.668 32.7169 145.296C32.5809 144.92 32.5129 144.504 32.5129 144.048C32.5129 143.64 32.5949 143.222 32.7589 142.794C32.9269 142.362 33.1849 141.914 33.5329 141.45L35.6029 138.672C35.6749 138.576 35.7789 138.494 35.9149 138.426C36.0549 138.358 36.2149 138.324 36.3949 138.324H37.7149L35.1409 141.474ZM35.4769 145.884C35.7129 145.884 35.9289 145.844 36.1249 145.764C36.3249 145.684 36.4949 145.572 36.6349 145.428C36.7789 145.284 36.8909 145.116 36.9709 144.924C37.0509 144.728 37.0909 144.516 37.0909 144.288C37.0909 144.04 37.0529 143.818 36.9769 143.622C36.9009 143.422 36.7929 143.254 36.6529 143.118C36.5129 142.978 36.3449 142.872 36.1489 142.8C35.9529 142.728 35.7369 142.692 35.5009 142.692C35.2649 142.692 35.0509 142.732 34.8589 142.812C34.6669 142.892 34.5029 143.004 34.3669 143.148C34.2309 143.288 34.1249 143.456 34.0489 143.652C33.9729 143.844 33.9349 144.052 33.9349 144.276C33.9349 144.516 33.9669 144.736 34.0309 144.936C34.0989 145.132 34.1969 145.3 34.3249 145.44C34.4569 145.58 34.6189 145.69 34.8109 145.77C35.0029 145.846 35.2249 145.884 35.4769 145.884Z" fill="#213E88"/>
<path d="M44.5799 145.89V147H39.7799V145.89H41.5379V140.832C41.5379 140.632 41.5439 140.426 41.5559 140.214L40.3079 141.258C40.2359 141.314 40.1639 141.35 40.0919 141.366C40.0239 141.378 39.9579 141.378 39.8939 141.366C39.8339 141.354 39.7799 141.334 39.7319 141.306C39.6839 141.274 39.6479 141.24 39.6239 141.204L39.1559 140.562L41.8019 138.312H43.0199V145.89H44.5799Z" fill="#213E88"/>
<path d="M49.2008 140.424C49.2008 140.752 49.1448 141.048 49.0328 141.312C48.9248 141.576 48.7788 141.802 48.5948 141.99C48.4108 142.174 48.1968 142.316 47.9528 142.416C47.7088 142.516 47.4548 142.566 47.1908 142.566C46.9028 142.566 46.6368 142.516 46.3928 142.416C46.1488 142.316 45.9368 142.174 45.7568 141.99C45.5808 141.802 45.4428 141.576 45.3428 141.312C45.2428 141.048 45.1928 140.752 45.1928 140.424C45.1928 140.088 45.2428 139.784 45.3428 139.512C45.4428 139.24 45.5808 139.01 45.7568 138.822C45.9368 138.634 46.1488 138.49 46.3928 138.39C46.6368 138.286 46.9028 138.234 47.1908 138.234C47.4788 138.234 47.7448 138.286 47.9888 138.39C48.2368 138.49 48.4508 138.634 48.6308 138.822C48.8108 139.01 48.9508 139.24 49.0508 139.512C49.1508 139.784 49.2008 140.088 49.2008 140.424ZM48.0608 140.424C48.0608 140.192 48.0368 139.998 47.9888 139.842C47.9448 139.686 47.8828 139.56 47.8028 139.464C47.7268 139.368 47.6348 139.3 47.5268 139.26C47.4228 139.216 47.3108 139.194 47.1908 139.194C47.0708 139.194 46.9588 139.216 46.8548 139.26C46.7508 139.3 46.6608 139.368 46.5848 139.464C46.5128 139.56 46.4548 139.686 46.4108 139.842C46.3668 139.998 46.3448 140.192 46.3448 140.424C46.3448 140.648 46.3668 140.836 46.4108 140.988C46.4548 141.136 46.5128 141.256 46.5848 141.348C46.6608 141.44 46.7508 141.506 46.8548 141.546C46.9588 141.586 47.0708 141.606 47.1908 141.606C47.3108 141.606 47.4228 141.586 47.5268 141.546C47.6348 141.506 47.7268 141.44 47.8028 141.348C47.8828 141.256 47.9448 141.136 47.9888 140.988C48.0368 140.836 48.0608 140.648 48.0608 140.424ZM52.0868 138.558C52.1388 138.498 52.1988 138.444 52.2668 138.396C52.3388 138.348 52.4388 138.324 52.5668 138.324H53.6468L47.2028 146.778C47.1508 146.842 47.0888 146.896 47.0168 146.94C46.9448 146.98 46.8568 147 46.7528 147H45.6488L52.0868 138.558ZM54.1028 144.96C54.1028 145.288 54.0468 145.584 53.9348 145.848C53.8268 146.112 53.6808 146.338 53.4968 146.526C53.3128 146.71 53.0988 146.854 52.8548 146.958C52.6108 147.058 52.3568 147.108 52.0928 147.108C51.8048 147.108 51.5388 147.058 51.2948 146.958C51.0508 146.854 50.8388 146.71 50.6588 146.526C50.4828 146.338 50.3448 146.112 50.2448 145.848C50.1448 145.584 50.0948 145.288 50.0948 144.96C50.0948 144.624 50.1448 144.32 50.2448 144.048C50.3448 143.776 50.4828 143.546 50.6588 143.358C50.8388 143.17 51.0508 143.026 51.2948 142.926C51.5388 142.822 51.8048 142.77 52.0928 142.77C52.3808 142.77 52.6468 142.822 52.8908 142.926C53.1388 143.026 53.3508 143.17 53.5268 143.358C53.7068 143.546 53.8468 143.776 53.9468 144.048C54.0508 144.32 54.1028 144.624 54.1028 144.96ZM52.9568 144.96C52.9568 144.728 52.9348 144.534 52.8908 144.378C52.8468 144.222 52.7848 144.096 52.7048 144C52.6288 143.904 52.5368 143.836 52.4288 143.796C52.3248 143.752 52.2128 143.73 52.0928 143.73C51.9728 143.73 51.8608 143.752 51.7568 143.796C51.6528 143.836 51.5628 143.904 51.4868 144C51.4108 144.096 51.3508 144.222 51.3068 144.378C51.2668 144.534 51.2468 144.728 51.2468 144.96C51.2468 145.184 51.2668 145.372 51.3068 145.524C51.3508 145.676 51.4108 145.798 51.4868 145.89C51.5628 145.982 51.6528 146.048 51.7568 146.088C51.8608 146.128 51.9728 146.148 52.0928 146.148C52.2128 146.148 52.3248 146.128 52.4288 146.088C52.5368 146.048 52.6288 145.982 52.7048 145.89C52.7848 145.798 52.8468 145.676 52.8908 145.524C52.9348 145.372 52.9568 145.184 52.9568 144.96Z" fill="#213E88"/>
<path d="M57.0128 147V140.844H57.9188C58.1108 140.844 58.2368 140.934 58.2968 141.114L58.3928 141.57C58.5008 141.45 58.6128 141.34 58.7288 141.24C58.8488 141.14 58.9748 141.054 59.1068 140.982C59.2428 140.91 59.3868 140.854 59.5388 140.814C59.6948 140.77 59.8648 140.748 60.0488 140.748C60.4368 140.748 60.7548 140.854 61.0028 141.066C61.2548 141.274 61.4428 141.552 61.5668 141.9C61.6628 141.696 61.7828 141.522 61.9268 141.378C62.0708 141.23 62.2288 141.11 62.4008 141.018C62.5728 140.926 62.7548 140.858 62.9468 140.814C63.1428 140.77 63.3388 140.748 63.5348 140.748C63.8748 140.748 64.1768 140.8 64.4408 140.904C64.7048 141.008 64.9268 141.16 65.1068 141.36C65.2868 141.56 65.4228 141.804 65.5148 142.092C65.6108 142.38 65.6588 142.71 65.6588 143.082V147H64.1768V143.082C64.1768 142.69 64.0908 142.396 63.9188 142.2C63.7468 142 63.4948 141.9 63.1628 141.9C63.0108 141.9 62.8688 141.926 62.7368 141.978C62.6088 142.03 62.4948 142.106 62.3948 142.206C62.2988 142.302 62.2228 142.424 62.1668 142.572C62.1108 142.72 62.0828 142.89 62.0828 143.082V147H60.5948V143.082C60.5948 142.67 60.5108 142.37 60.3428 142.182C60.1788 141.994 59.9368 141.9 59.6168 141.9C59.4008 141.9 59.1988 141.954 59.0108 142.062C58.8268 142.166 58.6548 142.31 58.4948 142.494V147H57.0128Z" fill="#213E88"/>
<path d="M68.0035 140.844V147H66.5155V140.844H68.0035ZM68.2075 139.05C68.2075 139.178 68.1815 139.298 68.1295 139.41C68.0775 139.522 68.0075 139.62 67.9195 139.704C67.8355 139.788 67.7355 139.856 67.6195 139.908C67.5035 139.956 67.3795 139.98 67.2475 139.98C67.1195 139.98 66.9975 139.956 66.8815 139.908C66.7695 139.856 66.6715 139.788 66.5875 139.704C66.5035 139.62 66.4355 139.522 66.3835 139.41C66.3355 139.298 66.3115 139.178 66.3115 139.05C66.3115 138.918 66.3355 138.794 66.3835 138.678C66.4355 138.562 66.5035 138.462 66.5875 138.378C66.6715 138.294 66.7695 138.228 66.8815 138.18C66.9975 138.128 67.1195 138.102 67.2475 138.102C67.3795 138.102 67.5035 138.128 67.6195 138.18C67.7355 138.228 67.8355 138.294 67.9195 138.378C68.0075 138.462 68.0775 138.562 68.1295 138.678C68.1815 138.794 68.2075 138.918 68.2075 139.05Z" fill="#213E88"/>
<path d="M70.3004 141.6C70.4244 141.476 70.5544 141.362 70.6904 141.258C70.8304 141.15 70.9764 141.06 71.1284 140.988C71.2844 140.912 71.4504 140.854 71.6264 140.814C71.8024 140.77 71.9944 140.748 72.2024 140.748C72.5384 140.748 72.8364 140.806 73.0964 140.922C73.3564 141.034 73.5724 141.194 73.7444 141.402C73.9204 141.606 74.0524 141.852 74.1404 142.14C74.2324 142.424 74.2784 142.738 74.2784 143.082V147H72.7964V143.082C72.7964 142.706 72.7104 142.416 72.5384 142.212C72.3664 142.004 72.1044 141.9 71.7524 141.9C71.4964 141.9 71.2564 141.958 71.0324 142.074C70.8084 142.19 70.5964 142.348 70.3964 142.548V147H68.9144V140.844H69.8204C70.0124 140.844 70.1384 140.934 70.1984 141.114L70.3004 141.6Z" fill="#213E88"/>
<path d="M78.9518 142.416C78.7838 142.212 78.5998 142.068 78.3998 141.984C78.2038 141.9 77.9918 141.858 77.7638 141.858C77.5398 141.858 77.3378 141.9 77.1578 141.984C76.9778 142.068 76.8238 142.196 76.6958 142.368C76.5678 142.536 76.4698 142.752 76.4018 143.016C76.3338 143.276 76.2998 143.584 76.2998 143.94C76.2998 144.3 76.3278 144.606 76.3838 144.858C76.4438 145.106 76.5278 145.31 76.6358 145.47C76.7438 145.626 76.8758 145.74 77.0318 145.812C77.1878 145.88 77.3618 145.914 77.5538 145.914C77.8618 145.914 78.1238 145.85 78.3398 145.722C78.5558 145.594 78.7598 145.412 78.9518 145.176V142.416ZM80.4338 138.084V147H79.5278C79.3318 147 79.2078 146.91 79.1558 146.73L79.0298 146.136C78.7818 146.42 78.4958 146.65 78.1718 146.826C77.8518 147.002 77.4778 147.09 77.0498 147.09C76.7138 147.09 76.4058 147.02 76.1258 146.88C75.8458 146.74 75.6038 146.538 75.3998 146.274C75.1998 146.006 75.0438 145.676 74.9318 145.284C74.8238 144.892 74.7698 144.444 74.7698 143.94C74.7698 143.484 74.8318 143.06 74.9558 142.668C75.0798 142.276 75.2578 141.936 75.4898 141.648C75.7218 141.36 75.9998 141.136 76.3238 140.976C76.6478 140.812 77.0118 140.73 77.4158 140.73C77.7598 140.73 78.0538 140.784 78.2978 140.892C78.5418 141 78.7598 141.146 78.9518 141.33V138.084H80.4338Z" fill="#213E88"/>
<path d="M85.2624 143.214C85.2624 143.022 85.2344 142.842 85.1784 142.674C85.1264 142.502 85.0464 142.352 84.9384 142.224C84.8304 142.096 84.6924 141.996 84.5244 141.924C84.3604 141.848 84.1684 141.81 83.9484 141.81C83.5204 141.81 83.1824 141.932 82.9344 142.176C82.6904 142.42 82.5344 142.766 82.4664 143.214H85.2624ZM82.4364 144.108C82.4604 144.424 82.5164 144.698 82.6044 144.93C82.6924 145.158 82.8084 145.348 82.9524 145.5C83.0964 145.648 83.2664 145.76 83.4624 145.836C83.6624 145.908 83.8824 145.944 84.1224 145.944C84.3624 145.944 84.5684 145.916 84.7404 145.86C84.9164 145.804 85.0684 145.742 85.1964 145.674C85.3284 145.606 85.4424 145.544 85.5384 145.488C85.6384 145.432 85.7344 145.404 85.8264 145.404C85.9504 145.404 86.0424 145.45 86.1024 145.542L86.5284 146.082C86.3644 146.274 86.1804 146.436 85.9764 146.568C85.7724 146.696 85.5584 146.8 85.3344 146.88C85.1144 146.956 84.8884 147.01 84.6564 147.042C84.4284 147.074 84.2064 147.09 83.9904 147.09C83.5624 147.09 83.1644 147.02 82.7964 146.88C82.4284 146.736 82.1084 146.526 81.8364 146.25C81.5644 145.97 81.3504 145.626 81.1944 145.218C81.0384 144.806 80.9604 144.33 80.9604 143.79C80.9604 143.37 81.0284 142.976 81.1644 142.608C81.3004 142.236 81.4944 141.914 81.7464 141.642C82.0024 141.366 82.3124 141.148 82.6764 140.988C83.0444 140.828 83.4584 140.748 83.9184 140.748C84.3064 140.748 84.6644 140.81 84.9924 140.934C85.3204 141.058 85.6024 141.24 85.8384 141.48C86.0744 141.716 86.2584 142.008 86.3904 142.356C86.5264 142.7 86.5944 143.094 86.5944 143.538C86.5944 143.762 86.5704 143.914 86.5224 143.994C86.4744 144.07 86.3824 144.108 86.2464 144.108H82.4364Z" fill="#213E88"/>
<path d="M88.5046 141.912C88.6966 141.544 88.9246 141.256 89.1886 141.048C89.4526 140.836 89.7646 140.73 90.1246 140.73C90.4086 140.73 90.6366 140.792 90.8086 140.916L90.7126 142.026C90.6926 142.098 90.6626 142.15 90.6226 142.182C90.5866 142.21 90.5366 142.224 90.4726 142.224C90.4126 142.224 90.3226 142.214 90.2026 142.194C90.0866 142.174 89.9726 142.164 89.8606 142.164C89.6966 142.164 89.5506 142.188 89.4226 142.236C89.2946 142.284 89.1786 142.354 89.0746 142.446C88.9746 142.534 88.8846 142.642 88.8046 142.77C88.7286 142.898 88.6566 143.044 88.5886 143.208V147H87.1066V140.844H87.9766C88.1286 140.844 88.2346 140.872 88.2946 140.928C88.3546 140.98 88.3946 141.076 88.4146 141.216L88.5046 141.912Z" fill="#213E88"/>
<path d="M96.7993 142.044C96.7593 142.108 96.7173 142.154 96.6733 142.182C96.6293 142.206 96.5733 142.218 96.5053 142.218C96.4333 142.218 96.3553 142.198 96.2713 142.158C96.1913 142.118 96.0973 142.074 95.9893 142.026C95.8813 141.974 95.7573 141.928 95.6173 141.888C95.4813 141.848 95.3193 141.828 95.1313 141.828C94.8393 141.828 94.6093 141.89 94.4413 142.014C94.2773 142.138 94.1953 142.3 94.1953 142.5C94.1953 142.632 94.2373 142.744 94.3213 142.836C94.4093 142.924 94.5233 143.002 94.6633 143.07C94.8073 143.138 94.9693 143.2 95.1493 143.256C95.3293 143.308 95.5113 143.366 95.6953 143.43C95.8833 143.494 96.0673 143.568 96.2473 143.652C96.4273 143.732 96.5873 143.836 96.7273 143.964C96.8713 144.088 96.9853 144.238 97.0693 144.414C97.1573 144.59 97.2013 144.802 97.2013 145.05C97.2013 145.346 97.1473 145.62 97.0393 145.872C96.9353 146.12 96.7793 146.336 96.5713 146.52C96.3633 146.7 96.1053 146.842 95.7973 146.946C95.4933 147.046 95.1413 147.096 94.7413 147.096C94.5293 147.096 94.3213 147.076 94.1173 147.036C93.9173 147 93.7233 146.948 93.5353 146.88C93.3513 146.812 93.1793 146.732 93.0193 146.64C92.8633 146.548 92.7253 146.448 92.6053 146.34L92.9473 145.776C92.9913 145.708 93.0433 145.656 93.1033 145.62C93.1633 145.584 93.2393 145.566 93.3313 145.566C93.4233 145.566 93.5093 145.592 93.5893 145.644C93.6733 145.696 93.7693 145.752 93.8773 145.812C93.9853 145.872 94.1113 145.928 94.2553 145.98C94.4033 146.032 94.5893 146.058 94.8133 146.058C94.9893 146.058 95.1393 146.038 95.2633 145.998C95.3913 145.954 95.4953 145.898 95.5753 145.83C95.6593 145.762 95.7193 145.684 95.7553 145.596C95.7953 145.504 95.8153 145.41 95.8153 145.314C95.8153 145.17 95.7713 145.052 95.6833 144.96C95.5993 144.868 95.4853 144.788 95.3413 144.72C95.2013 144.652 95.0393 144.592 94.8553 144.54C94.6753 144.484 94.4893 144.424 94.2973 144.36C94.1093 144.296 93.9233 144.222 93.7393 144.138C93.5593 144.05 93.3973 143.94 93.2533 143.808C93.1133 143.676 92.9993 143.514 92.9113 143.322C92.8273 143.13 92.7853 142.898 92.7853 142.626C92.7853 142.374 92.8353 142.134 92.9353 141.906C93.0353 141.678 93.1813 141.48 93.3733 141.312C93.5693 141.14 93.8113 141.004 94.0993 140.904C94.3913 140.8 94.7273 140.748 95.1073 140.748C95.5313 140.748 95.9173 140.818 96.2653 140.958C96.6133 141.098 96.9033 141.282 97.1353 141.51L96.7993 142.044Z" fill="#213E88"/>
<path d="M99.7687 147.096C99.2327 147.096 98.8207 146.946 98.5327 146.646C98.2487 146.342 98.1067 145.924 98.1067 145.392V141.954H97.4767C97.3967 141.954 97.3287 141.928 97.2727 141.876C97.2167 141.824 97.1887 141.746 97.1887 141.642V141.054L98.1787 140.892L98.4907 139.212C98.5107 139.132 98.5487 139.07 98.6047 139.026C98.6607 138.982 98.7327 138.96 98.8207 138.96H99.5887V140.898H101.233V141.954H99.5887V145.29C99.5887 145.482 99.6347 145.632 99.7267 145.74C99.8227 145.848 99.9527 145.902 100.117 145.902C100.209 145.902 100.285 145.892 100.345 145.872C100.409 145.848 100.463 145.824 100.507 145.8C100.555 145.776 100.597 145.754 100.633 145.734C100.669 145.71 100.705 145.698 100.741 145.698C100.785 145.698 100.821 145.71 100.849 145.734C100.877 145.754 100.907 145.786 100.939 145.83L101.383 146.55C101.167 146.73 100.919 146.866 100.639 146.958C100.359 147.05 100.069 147.096 99.7687 147.096Z" fill="#213E88"/>
<path d="M102.98 141.912C103.172 141.544 103.4 141.256 103.664 141.048C103.928 140.836 104.24 140.73 104.6 140.73C104.884 140.73 105.112 140.792 105.284 140.916L105.188 142.026C105.168 142.098 105.138 142.15 105.098 142.182C105.062 142.21 105.012 142.224 104.948 142.224C104.888 142.224 104.798 142.214 104.678 142.194C104.562 142.174 104.448 142.164 104.336 142.164C104.172 142.164 104.026 142.188 103.898 142.236C103.77 142.284 103.654 142.354 103.55 142.446C103.45 142.534 103.36 142.642 103.28 142.77C103.204 142.898 103.132 143.044 103.064 143.208V147H101.582V140.844H102.452C102.604 140.844 102.71 140.872 102.77 140.928C102.83 140.98 102.87 141.076 102.89 141.216L102.98 141.912Z" fill="#213E88"/>
<path d="M109.248 143.214C109.248 143.022 109.22 142.842 109.164 142.674C109.112 142.502 109.032 142.352 108.924 142.224C108.816 142.096 108.678 141.996 108.51 141.924C108.346 141.848 108.154 141.81 107.934 141.81C107.506 141.81 107.168 141.932 106.92 142.176C106.676 142.42 106.52 142.766 106.452 143.214H109.248ZM106.422 144.108C106.446 144.424 106.502 144.698 106.59 144.93C106.678 145.158 106.794 145.348 106.938 145.5C107.082 145.648 107.252 145.76 107.448 145.836C107.648 145.908 107.868 145.944 108.108 145.944C108.348 145.944 108.554 145.916 108.726 145.86C108.902 145.804 109.054 145.742 109.182 145.674C109.314 145.606 109.428 145.544 109.524 145.488C109.624 145.432 109.72 145.404 109.812 145.404C109.936 145.404 110.028 145.45 110.088 145.542L110.514 146.082C110.35 146.274 110.166 146.436 109.962 146.568C109.758 146.696 109.544 146.8 109.32 146.88C109.1 146.956 108.874 147.01 108.642 147.042C108.414 147.074 108.192 147.09 107.976 147.09C107.548 147.09 107.15 147.02 106.782 146.88C106.414 146.736 106.094 146.526 105.822 146.25C105.55 145.97 105.336 145.626 105.18 145.218C105.024 144.806 104.946 144.33 104.946 143.79C104.946 143.37 105.014 142.976 105.15 142.608C105.286 142.236 105.48 141.914 105.732 141.642C105.988 141.366 106.298 141.148 106.662 140.988C107.03 140.828 107.444 140.748 107.904 140.748C108.292 140.748 108.65 140.81 108.978 140.934C109.306 141.058 109.588 141.24 109.824 141.48C110.06 141.716 110.244 142.008 110.376 142.356C110.512 142.7 110.58 143.094 110.58 143.538C110.58 143.762 110.556 143.914 110.508 143.994C110.46 144.07 110.368 144.108 110.232 144.108H106.422Z" fill="#213E88"/>
<path d="M114.849 142.044C114.809 142.108 114.767 142.154 114.723 142.182C114.679 142.206 114.623 142.218 114.555 142.218C114.483 142.218 114.405 142.198 114.321 142.158C114.241 142.118 114.147 142.074 114.039 142.026C113.931 141.974 113.807 141.928 113.667 141.888C113.531 141.848 113.369 141.828 113.181 141.828C112.889 141.828 112.659 141.89 112.491 142.014C112.327 142.138 112.245 142.3 112.245 142.5C112.245 142.632 112.287 142.744 112.371 142.836C112.459 142.924 112.573 143.002 112.713 143.07C112.857 143.138 113.019 143.2 113.199 143.256C113.379 143.308 113.561 143.366 113.745 143.43C113.933 143.494 114.117 143.568 114.297 143.652C114.477 143.732 114.637 143.836 114.777 143.964C114.921 144.088 115.035 144.238 115.119 144.414C115.207 144.59 115.251 144.802 115.251 145.05C115.251 145.346 115.197 145.62 115.089 145.872C114.985 146.12 114.829 146.336 114.621 146.52C114.413 146.7 114.155 146.842 113.847 146.946C113.543 147.046 113.191 147.096 112.791 147.096C112.579 147.096 112.371 147.076 112.167 147.036C111.967 147 111.773 146.948 111.585 146.88C111.401 146.812 111.229 146.732 111.069 146.64C110.913 146.548 110.775 146.448 110.655 146.34L110.997 145.776C111.041 145.708 111.093 145.656 111.153 145.62C111.213 145.584 111.289 145.566 111.381 145.566C111.473 145.566 111.559 145.592 111.639 145.644C111.723 145.696 111.819 145.752 111.927 145.812C112.035 145.872 112.161 145.928 112.305 145.98C112.453 146.032 112.639 146.058 112.863 146.058C113.039 146.058 113.189 146.038 113.313 145.998C113.441 145.954 113.545 145.898 113.625 145.83C113.709 145.762 113.769 145.684 113.805 145.596C113.845 145.504 113.865 145.41 113.865 145.314C113.865 145.17 113.821 145.052 113.733 144.96C113.649 144.868 113.535 144.788 113.391 144.72C113.251 144.652 113.089 144.592 112.905 144.54C112.725 144.484 112.539 144.424 112.347 144.36C112.159 144.296 111.973 144.222 111.789 144.138C111.609 144.05 111.447 143.94 111.303 143.808C111.163 143.676 111.049 143.514 110.961 143.322C110.877 143.13 110.835 142.898 110.835 142.626C110.835 142.374 110.885 142.134 110.985 141.906C111.085 141.678 111.231 141.48 111.423 141.312C111.619 141.14 111.861 141.004 112.149 140.904C112.441 140.8 112.777 140.748 113.157 140.748C113.581 140.748 113.967 140.818 114.315 140.958C114.663 141.098 114.953 141.282 115.185 141.51L114.849 142.044Z" fill="#213E88"/>
<path d="M119.522 142.044C119.482 142.108 119.44 142.154 119.396 142.182C119.352 142.206 119.296 142.218 119.228 142.218C119.156 142.218 119.078 142.198 118.994 142.158C118.914 142.118 118.82 142.074 118.712 142.026C118.604 141.974 118.48 141.928 118.34 141.888C118.204 141.848 118.042 141.828 117.854 141.828C117.562 141.828 117.332 141.89 117.164 142.014C117 142.138 116.918 142.3 116.918 142.5C116.918 142.632 116.96 142.744 117.044 142.836C117.132 142.924 117.246 143.002 117.386 143.07C117.53 143.138 117.692 143.2 117.872 143.256C118.052 143.308 118.234 143.366 118.418 143.43C118.606 143.494 118.79 143.568 118.97 143.652C119.15 143.732 119.31 143.836 119.45 143.964C119.594 144.088 119.708 144.238 119.792 144.414C119.88 144.59 119.924 144.802 119.924 145.05C119.924 145.346 119.87 145.62 119.762 145.872C119.658 146.12 119.502 146.336 119.294 146.52C119.086 146.7 118.828 146.842 118.52 146.946C118.216 147.046 117.864 147.096 117.464 147.096C117.252 147.096 117.044 147.076 116.84 147.036C116.64 147 116.446 146.948 116.258 146.88C116.074 146.812 115.902 146.732 115.742 146.64C115.586 146.548 115.448 146.448 115.328 146.34L115.67 145.776C115.714 145.708 115.766 145.656 115.826 145.62C115.886 145.584 115.962 145.566 116.054 145.566C116.146 145.566 116.232 145.592 116.312 145.644C116.396 145.696 116.492 145.752 116.6 145.812C116.708 145.872 116.834 145.928 116.978 145.98C117.126 146.032 117.312 146.058 117.536 146.058C117.712 146.058 117.862 146.038 117.986 145.998C118.114 145.954 118.218 145.898 118.298 145.83C118.382 145.762 118.442 145.684 118.478 145.596C118.518 145.504 118.538 145.41 118.538 145.314C118.538 145.17 118.494 145.052 118.406 144.96C118.322 144.868 118.208 144.788 118.064 144.72C117.924 144.652 117.762 144.592 117.578 144.54C117.398 144.484 117.212 144.424 117.02 144.36C116.832 144.296 116.646 144.222 116.462 144.138C116.282 144.05 116.12 143.94 115.976 143.808C115.836 143.676 115.722 143.514 115.634 143.322C115.55 143.13 115.508 142.898 115.508 142.626C115.508 142.374 115.558 142.134 115.658 141.906C115.758 141.678 115.904 141.48 116.096 141.312C116.292 141.14 116.534 141.004 116.822 140.904C117.114 140.8 117.45 140.748 117.83 140.748C118.254 140.748 118.64 140.818 118.988 140.958C119.336 141.098 119.626 141.282 119.858 141.51L119.522 142.044Z" fill="#213E88"/>
<path d="M126.621 142.416C126.453 142.212 126.269 142.068 126.069 141.984C125.873 141.9 125.661 141.858 125.433 141.858C125.209 141.858 125.007 141.9 124.827 141.984C124.647 142.068 124.493 142.196 124.365 142.368C124.237 142.536 124.139 142.752 124.071 143.016C124.003 143.276 123.969 143.584 123.969 143.94C123.969 144.3 123.997 144.606 124.053 144.858C124.113 145.106 124.197 145.31 124.305 145.47C124.413 145.626 124.545 145.74 124.701 145.812C124.857 145.88 125.031 145.914 125.223 145.914C125.531 145.914 125.793 145.85 126.009 145.722C126.225 145.594 126.429 145.412 126.621 145.176V142.416ZM128.103 138.084V147H127.197C127.001 147 126.877 146.91 126.825 146.73L126.699 146.136C126.451 146.42 126.165 146.65 125.841 146.826C125.521 147.002 125.147 147.09 124.719 147.09C124.383 147.09 124.075 147.02 123.795 146.88C123.515 146.74 123.273 146.538 123.069 146.274C122.869 146.006 122.713 145.676 122.601 145.284C122.493 144.892 122.439 144.444 122.439 143.94C122.439 143.484 122.501 143.06 122.625 142.668C122.749 142.276 122.927 141.936 123.159 141.648C123.391 141.36 123.669 141.136 123.993 140.976C124.317 140.812 124.681 140.73 125.085 140.73C125.429 140.73 125.723 140.784 125.967 140.892C126.211 141 126.429 141.146 126.621 141.33V138.084H128.103Z" fill="#213E88"/>
<path d="M131.69 140.748C132.146 140.748 132.56 140.822 132.932 140.97C133.308 141.118 133.628 141.328 133.892 141.6C134.16 141.872 134.366 142.204 134.51 142.596C134.654 142.988 134.726 143.426 134.726 143.91C134.726 144.398 134.654 144.838 134.51 145.23C134.366 145.622 134.16 145.956 133.892 146.232C133.628 146.508 133.308 146.72 132.932 146.868C132.56 147.016 132.146 147.09 131.69 147.09C131.23 147.09 130.812 147.016 130.436 146.868C130.06 146.72 129.738 146.508 129.47 146.232C129.206 145.956 129 145.622 128.852 145.23C128.708 144.838 128.636 144.398 128.636 143.91C128.636 143.426 128.708 142.988 128.852 142.596C129 142.204 129.206 141.872 129.47 141.6C129.738 141.328 130.06 141.118 130.436 140.97C130.812 140.822 131.23 140.748 131.69 140.748ZM131.69 145.95C132.202 145.95 132.58 145.778 132.824 145.434C133.072 145.09 133.196 144.586 133.196 143.922C133.196 143.258 133.072 142.752 132.824 142.404C132.58 142.056 132.202 141.882 131.69 141.882C131.17 141.882 130.784 142.058 130.532 142.41C130.284 142.758 130.16 143.262 130.16 143.922C130.16 144.582 130.284 145.086 130.532 145.434C130.784 145.778 131.17 145.95 131.69 145.95Z" fill="#213E88"/>
<path d="M137.981 140.748C138.437 140.748 138.851 140.822 139.223 140.97C139.599 141.118 139.919 141.328 140.183 141.6C140.451 141.872 140.657 142.204 140.801 142.596C140.945 142.988 141.017 143.426 141.017 143.91C141.017 144.398 140.945 144.838 140.801 145.23C140.657 145.622 140.451 145.956 140.183 146.232C139.919 146.508 139.599 146.72 139.223 146.868C138.851 147.016 138.437 147.09 137.981 147.09C137.521 147.09 137.103 147.016 136.727 146.868C136.351 146.72 136.029 146.508 135.761 146.232C135.497 145.956 135.291 145.622 135.143 145.23C134.999 144.838 134.927 144.398 134.927 143.91C134.927 143.426 134.999 142.988 135.143 142.596C135.291 142.204 135.497 141.872 135.761 141.6C136.029 141.328 136.351 141.118 136.727 140.97C137.103 140.822 137.521 140.748 137.981 140.748ZM137.981 145.95C138.493 145.95 138.871 145.778 139.115 145.434C139.363 145.09 139.487 144.586 139.487 143.922C139.487 143.258 139.363 142.752 139.115 142.404C138.871 142.056 138.493 141.882 137.981 141.882C137.461 141.882 137.075 142.058 136.823 142.41C136.575 142.758 136.451 143.262 136.451 143.922C136.451 144.582 136.575 145.086 136.823 145.434C137.075 145.778 137.461 145.95 137.981 145.95Z" fill="#213E88"/>
<path d="M142.945 141.912C143.137 141.544 143.365 141.256 143.629 141.048C143.893 140.836 144.205 140.73 144.565 140.73C144.849 140.73 145.077 140.792 145.249 140.916L145.153 142.026C145.133 142.098 145.103 142.15 145.063 142.182C145.027 142.21 144.977 142.224 144.913 142.224C144.853 142.224 144.763 142.214 144.643 142.194C144.527 142.174 144.413 142.164 144.301 142.164C144.137 142.164 143.991 142.188 143.863 142.236C143.735 142.284 143.619 142.354 143.515 142.446C143.415 142.534 143.325 142.642 143.245 142.77C143.169 142.898 143.097 143.044 143.029 143.208V147H141.547V140.844H142.417C142.569 140.844 142.675 140.872 142.735 140.928C142.795 140.98 142.835 141.076 142.855 141.216L142.945 141.912Z" fill="#213E88"/>
<path d="M152.741 140.844L150.299 147H148.955L146.513 140.844H147.737C147.849 140.844 147.941 140.87 148.013 140.922C148.089 140.974 148.139 141.04 148.163 141.12L149.351 144.408C149.415 144.6 149.471 144.788 149.519 144.972C149.567 145.156 149.609 145.34 149.645 145.524C149.685 145.34 149.729 145.156 149.777 144.972C149.825 144.788 149.883 144.6 149.951 144.408L151.163 141.12C151.191 141.04 151.241 140.974 151.313 140.922C151.385 140.87 151.471 140.844 151.571 140.844H152.741Z" fill="#213E88"/>
<path d="M156.709 143.214C156.709 143.022 156.681 142.842 156.625 142.674C156.573 142.502 156.493 142.352 156.385 142.224C156.277 142.096 156.139 141.996 155.971 141.924C155.807 141.848 155.615 141.81 155.395 141.81C154.967 141.81 154.629 141.932 154.381 142.176C154.137 142.42 153.981 142.766 153.913 143.214H156.709ZM153.883 144.108C153.907 144.424 153.963 144.698 154.051 144.93C154.139 145.158 154.255 145.348 154.399 145.5C154.543 145.648 154.713 145.76 154.909 145.836C155.109 145.908 155.329 145.944 155.569 145.944C155.809 145.944 156.015 145.916 156.187 145.86C156.363 145.804 156.515 145.742 156.643 145.674C156.775 145.606 156.889 145.544 156.985 145.488C157.085 145.432 157.181 145.404 157.273 145.404C157.397 145.404 157.489 145.45 157.549 145.542L157.975 146.082C157.811 146.274 157.627 146.436 157.423 146.568C157.219 146.696 157.005 146.8 156.781 146.88C156.561 146.956 156.335 147.01 156.103 147.042C155.875 147.074 155.653 147.09 155.437 147.09C155.009 147.09 154.611 147.02 154.243 146.88C153.875 146.736 153.555 146.526 153.283 146.25C153.011 145.97 152.797 145.626 152.641 145.218C152.485 144.806 152.407 144.33 152.407 143.79C152.407 143.37 152.475 142.976 152.611 142.608C152.747 142.236 152.941 141.914 153.193 141.642C153.449 141.366 153.759 141.148 154.123 140.988C154.491 140.828 154.905 140.748 155.365 140.748C155.753 140.748 156.111 140.81 156.439 140.934C156.767 141.058 157.049 141.24 157.285 141.48C157.521 141.716 157.705 142.008 157.837 142.356C157.973 142.7 158.041 143.094 158.041 143.538C158.041 143.762 158.017 143.914 157.969 143.994C157.921 144.07 157.829 144.108 157.693 144.108H153.883Z" fill="#213E88"/>
<path d="M159.951 141.912C160.143 141.544 160.371 141.256 160.635 141.048C160.899 140.836 161.211 140.73 161.571 140.73C161.855 140.73 162.083 140.792 162.255 140.916L162.159 142.026C162.139 142.098 162.109 142.15 162.069 142.182C162.033 142.21 161.983 142.224 161.919 142.224C161.859 142.224 161.769 142.214 161.649 142.194C161.533 142.174 161.419 142.164 161.307 142.164C161.143 142.164 160.997 142.188 160.869 142.236C160.741 142.284 160.625 142.354 160.521 142.446C160.421 142.534 160.331 142.642 160.251 142.77C160.175 142.898 160.103 143.044 160.035 143.208V147H158.553V140.844H159.423C159.575 140.844 159.681 140.872 159.741 140.928C159.801 140.98 159.841 141.076 159.861 141.216L159.951 141.912Z" fill="#213E88"/>
<path d="M163.912 145.404C164.08 145.608 164.262 145.752 164.458 145.836C164.658 145.92 164.868 145.962 165.088 145.962C165.316 145.962 165.52 145.922 165.7 145.842C165.884 145.758 166.04 145.63 166.168 145.458C166.296 145.282 166.394 145.06 166.462 144.792C166.53 144.52 166.564 144.196 166.564 143.82C166.564 143.144 166.452 142.656 166.228 142.356C166.004 142.052 165.682 141.9 165.262 141.9C164.978 141.9 164.73 141.966 164.518 142.098C164.306 142.226 164.104 142.408 163.912 142.644V145.404ZM163.912 141.6C164.16 141.34 164.434 141.134 164.734 140.982C165.038 140.826 165.384 140.748 165.772 140.748C166.128 140.748 166.448 140.818 166.732 140.958C167.02 141.098 167.264 141.3 167.464 141.564C167.668 141.824 167.824 142.14 167.932 142.512C168.04 142.884 168.094 143.302 168.094 143.766C168.094 144.266 168.032 144.72 167.908 145.128C167.784 145.536 167.606 145.886 167.374 146.178C167.146 146.466 166.87 146.69 166.546 146.85C166.222 147.01 165.862 147.09 165.466 147.09C165.274 147.09 165.1 147.07 164.944 147.03C164.788 146.994 164.644 146.942 164.512 146.874C164.38 146.806 164.258 146.724 164.146 146.628C164.038 146.528 163.934 146.418 163.834 146.298L163.768 146.712C163.744 146.816 163.702 146.89 163.642 146.934C163.586 146.978 163.508 147 163.408 147H162.43V138.084H163.912V141.6Z" fill="#213E88"/>
<path d="M172.605 143.214C172.605 143.022 172.577 142.842 172.521 142.674C172.469 142.502 172.389 142.352 172.281 142.224C172.173 142.096 172.035 141.996 171.867 141.924C171.703 141.848 171.511 141.81 171.291 141.81C170.863 141.81 170.525 141.932 170.277 142.176C170.033 142.42 169.877 142.766 169.809 143.214H172.605ZM169.779 144.108C169.803 144.424 169.859 144.698 169.947 144.93C170.035 145.158 170.151 145.348 170.295 145.5C170.439 145.648 170.609 145.76 170.805 145.836C171.005 145.908 171.225 145.944 171.465 145.944C171.705 145.944 171.911 145.916 172.083 145.86C172.259 145.804 172.411 145.742 172.539 145.674C172.671 145.606 172.785 145.544 172.881 145.488C172.981 145.432 173.077 145.404 173.169 145.404C173.293 145.404 173.385 145.45 173.445 145.542L173.871 146.082C173.707 146.274 173.523 146.436 173.319 146.568C173.115 146.696 172.901 146.8 172.677 146.88C172.457 146.956 172.231 147.01 171.999 147.042C171.771 147.074 171.549 147.09 171.333 147.09C170.905 147.09 170.507 147.02 170.139 146.88C169.771 146.736 169.451 146.526 169.179 146.25C168.907 145.97 168.693 145.626 168.537 145.218C168.381 144.806 168.303 144.33 168.303 143.79C168.303 143.37 168.371 142.976 168.507 142.608C168.643 142.236 168.837 141.914 169.089 141.642C169.345 141.366 169.655 141.148 170.019 140.988C170.387 140.828 170.801 140.748 171.261 140.748C171.649 140.748 172.007 140.81 172.335 140.934C172.663 141.058 172.945 141.24 173.181 141.48C173.417 141.716 173.601 142.008 173.733 142.356C173.869 142.7 173.937 143.094 173.937 143.538C173.937 143.762 173.913 143.914 173.865 143.994C173.817 144.07 173.725 144.108 173.589 144.108H169.779Z" fill="#213E88"/>
<path d="M176.442 147.096C175.906 147.096 175.494 146.946 175.206 146.646C174.922 146.342 174.78 145.924 174.78 145.392V141.954H174.15C174.07 141.954 174.002 141.928 173.946 141.876C173.89 141.824 173.862 141.746 173.862 141.642V141.054L174.852 140.892L175.164 139.212C175.184 139.132 175.222 139.07 175.278 139.026C175.334 138.982 175.406 138.96 175.494 138.96H176.262V140.898H177.906V141.954H176.262V145.29C176.262 145.482 176.308 145.632 176.4 145.74C176.496 145.848 176.626 145.902 176.79 145.902C176.882 145.902 176.958 145.892 177.018 145.872C177.082 145.848 177.136 145.824 177.18 145.8C177.228 145.776 177.27 145.754 177.306 145.734C177.342 145.71 177.378 145.698 177.414 145.698C177.458 145.698 177.494 145.71 177.522 145.734C177.55 145.754 177.58 145.786 177.612 145.83L178.056 146.55C177.84 146.73 177.592 146.866 177.312 146.958C177.032 147.05 176.742 147.096 176.442 147.096Z" fill="#213E88"/>
<path d="M182.174 143.214C182.174 143.022 182.146 142.842 182.09 142.674C182.038 142.502 181.958 142.352 181.85 142.224C181.742 142.096 181.604 141.996 181.436 141.924C181.272 141.848 181.08 141.81 180.86 141.81C180.432 141.81 180.094 141.932 179.846 142.176C179.602 142.42 179.446 142.766 179.378 143.214H182.174ZM179.348 144.108C179.372 144.424 179.428 144.698 179.516 144.93C179.604 145.158 179.72 145.348 179.864 145.5C180.008 145.648 180.178 145.76 180.374 145.836C180.574 145.908 180.794 145.944 181.034 145.944C181.274 145.944 181.48 145.916 181.652 145.86C181.828 145.804 181.98 145.742 182.108 145.674C182.24 145.606 182.354 145.544 182.45 145.488C182.55 145.432 182.646 145.404 182.738 145.404C182.862 145.404 182.954 145.45 183.014 145.542L183.44 146.082C183.276 146.274 183.092 146.436 182.888 146.568C182.684 146.696 182.47 146.8 182.246 146.88C182.026 146.956 181.8 147.01 181.568 147.042C181.34 147.074 181.118 147.09 180.902 147.09C180.474 147.09 180.076 147.02 179.708 146.88C179.34 146.736 179.02 146.526 178.748 146.25C178.476 145.97 178.262 145.626 178.106 145.218C177.95 144.806 177.872 144.33 177.872 143.79C177.872 143.37 177.94 142.976 178.076 142.608C178.212 142.236 178.406 141.914 178.658 141.642C178.914 141.366 179.224 141.148 179.588 140.988C179.956 140.828 180.37 140.748 180.83 140.748C181.218 140.748 181.576 140.81 181.904 140.934C182.232 141.058 182.514 141.24 182.75 141.48C182.986 141.716 183.17 142.008 183.302 142.356C183.438 142.7 183.506 143.094 183.506 143.538C183.506 143.762 183.482 143.914 183.434 143.994C183.386 144.07 183.294 144.108 183.158 144.108H179.348Z" fill="#213E88"/>
<path d="M185.416 141.912C185.608 141.544 185.836 141.256 186.1 141.048C186.364 140.836 186.676 140.73 187.036 140.73C187.32 140.73 187.548 140.792 187.72 140.916L187.624 142.026C187.604 142.098 187.574 142.15 187.534 142.182C187.498 142.21 187.448 142.224 187.384 142.224C187.324 142.224 187.234 142.214 187.114 142.194C186.998 142.174 186.884 142.164 186.772 142.164C186.608 142.164 186.462 142.188 186.334 142.236C186.206 142.284 186.09 142.354 185.986 142.446C185.886 142.534 185.796 142.642 185.716 142.77C185.64 142.898 185.568 143.044 185.5 143.208V147H184.018V140.844H184.888C185.04 140.844 185.146 140.872 185.206 140.928C185.266 140.98 185.306 141.076 185.326 141.216L185.416 141.912Z" fill="#213E88"/>
<path d="M191.685 143.214C191.685 143.022 191.657 142.842 191.601 142.674C191.549 142.502 191.469 142.352 191.361 142.224C191.253 142.096 191.115 141.996 190.947 141.924C190.783 141.848 190.591 141.81 190.371 141.81C189.943 141.81 189.605 141.932 189.357 142.176C189.113 142.42 188.957 142.766 188.889 143.214H191.685ZM188.859 144.108C188.883 144.424 188.939 144.698 189.027 144.93C189.115 145.158 189.231 145.348 189.375 145.5C189.519 145.648 189.689 145.76 189.885 145.836C190.085 145.908 190.305 145.944 190.545 145.944C190.785 145.944 190.991 145.916 191.163 145.86C191.339 145.804 191.491 145.742 191.619 145.674C191.751 145.606 191.865 145.544 191.961 145.488C192.061 145.432 192.157 145.404 192.249 145.404C192.373 145.404 192.465 145.45 192.525 145.542L192.951 146.082C192.787 146.274 192.603 146.436 192.399 146.568C192.195 146.696 191.981 146.8 191.757 146.88C191.537 146.956 191.311 147.01 191.079 147.042C190.851 147.074 190.629 147.09 190.413 147.09C189.985 147.09 189.587 147.02 189.219 146.88C188.851 146.736 188.531 146.526 188.259 146.25C187.987 145.97 187.773 145.626 187.617 145.218C187.461 144.806 187.383 144.33 187.383 143.79C187.383 143.37 187.451 142.976 187.587 142.608C187.723 142.236 187.917 141.914 188.169 141.642C188.425 141.366 188.735 141.148 189.099 140.988C189.467 140.828 189.881 140.748 190.341 140.748C190.729 140.748 191.087 140.81 191.415 140.934C191.743 141.058 192.025 141.24 192.261 141.48C192.497 141.716 192.681 142.008 192.813 142.356C192.949 142.7 193.017 143.094 193.017 143.538C193.017 143.762 192.993 143.914 192.945 143.994C192.897 144.07 192.805 144.108 192.669 144.108H188.859Z" fill="#213E88"/>
<path d="M199.603 142.044C199.563 142.108 199.521 142.154 199.477 142.182C199.433 142.206 199.377 142.218 199.309 142.218C199.237 142.218 199.159 142.198 199.075 142.158C198.995 142.118 198.901 142.074 198.793 142.026C198.685 141.974 198.561 141.928 198.421 141.888C198.285 141.848 198.123 141.828 197.935 141.828C197.643 141.828 197.413 141.89 197.245 142.014C197.081 142.138 196.999 142.3 196.999 142.5C196.999 142.632 197.041 142.744 197.125 142.836C197.213 142.924 197.327 143.002 197.467 143.07C197.611 143.138 197.773 143.2 197.953 143.256C198.133 143.308 198.315 143.366 198.499 143.43C198.687 143.494 198.871 143.568 199.051 143.652C199.231 143.732 199.391 143.836 199.531 143.964C199.675 144.088 199.789 144.238 199.873 144.414C199.961 144.59 200.005 144.802 200.005 145.05C200.005 145.346 199.951 145.62 199.843 145.872C199.739 146.12 199.583 146.336 199.375 146.52C199.167 146.7 198.909 146.842 198.601 146.946C198.297 147.046 197.945 147.096 197.545 147.096C197.333 147.096 197.125 147.076 196.921 147.036C196.721 147 196.527 146.948 196.339 146.88C196.155 146.812 195.983 146.732 195.823 146.64C195.667 146.548 195.529 146.448 195.409 146.34L195.751 145.776C195.795 145.708 195.847 145.656 195.907 145.62C195.967 145.584 196.043 145.566 196.135 145.566C196.227 145.566 196.313 145.592 196.393 145.644C196.477 145.696 196.573 145.752 196.681 145.812C196.789 145.872 196.915 145.928 197.059 145.98C197.207 146.032 197.393 146.058 197.617 146.058C197.793 146.058 197.943 146.038 198.067 145.998C198.195 145.954 198.299 145.898 198.379 145.83C198.463 145.762 198.523 145.684 198.559 145.596C198.599 145.504 198.619 145.41 198.619 145.314C198.619 145.17 198.575 145.052 198.487 144.96C198.403 144.868 198.289 144.788 198.145 144.72C198.005 144.652 197.843 144.592 197.659 144.54C197.479 144.484 197.293 144.424 197.101 144.36C196.913 144.296 196.727 144.222 196.543 144.138C196.363 144.05 196.201 143.94 196.057 143.808C195.917 143.676 195.803 143.514 195.715 143.322C195.631 143.13 195.589 142.898 195.589 142.626C195.589 142.374 195.639 142.134 195.739 141.906C195.839 141.678 195.985 141.48 196.177 141.312C196.373 141.14 196.615 141.004 196.903 140.904C197.195 140.8 197.531 140.748 197.911 140.748C198.335 140.748 198.721 140.818 199.069 140.958C199.417 141.098 199.707 141.282 199.939 141.51L199.603 142.044Z" fill="#213E88"/>
<path d="M202.021 138.084V147H200.539V138.084H202.021Z" fill="#213E88"/>
<path d="M206.149 144.372C205.721 144.392 205.361 144.43 205.069 144.486C204.777 144.538 204.543 144.606 204.367 144.69C204.191 144.774 204.065 144.872 203.989 144.984C203.913 145.096 203.875 145.218 203.875 145.35C203.875 145.61 203.951 145.796 204.103 145.908C204.259 146.02 204.461 146.076 204.709 146.076C205.013 146.076 205.275 146.022 205.495 145.914C205.719 145.802 205.937 145.634 206.149 145.41V144.372ZM202.753 141.702C203.461 141.054 204.313 140.73 205.309 140.73C205.669 140.73 205.991 140.79 206.275 140.91C206.559 141.026 206.799 141.19 206.995 141.402C207.191 141.61 207.339 141.86 207.439 142.152C207.543 142.444 207.595 142.764 207.595 143.112V147H206.923C206.783 147 206.675 146.98 206.599 146.94C206.523 146.896 206.463 146.81 206.419 146.682L206.287 146.238C206.131 146.378 205.979 146.502 205.831 146.61C205.683 146.714 205.529 146.802 205.369 146.874C205.209 146.946 205.037 147 204.853 147.036C204.673 147.076 204.473 147.096 204.253 147.096C203.993 147.096 203.753 147.062 203.533 146.994C203.313 146.922 203.123 146.816 202.963 146.676C202.803 146.536 202.679 146.362 202.591 146.154C202.503 145.946 202.459 145.704 202.459 145.428C202.459 145.272 202.485 145.118 202.537 144.966C202.589 144.81 202.673 144.662 202.789 144.522C202.909 144.382 203.063 144.25 203.251 144.126C203.439 144.002 203.669 143.894 203.941 143.802C204.217 143.71 204.537 143.636 204.901 143.58C205.265 143.52 205.681 143.484 206.149 143.472V143.112C206.149 142.7 206.061 142.396 205.885 142.2C205.709 142 205.455 141.9 205.123 141.9C204.883 141.9 204.683 141.928 204.523 141.984C204.367 142.04 204.229 142.104 204.109 142.176C203.989 142.244 203.879 142.306 203.779 142.362C203.683 142.418 203.575 142.446 203.455 142.446C203.351 142.446 203.263 142.42 203.191 142.368C203.119 142.312 203.061 142.248 203.017 142.176L202.753 141.702Z" fill="#213E88"/>
<path d="M211.643 144.372C211.215 144.392 210.855 144.43 210.563 144.486C210.271 144.538 210.037 144.606 209.861 144.69C209.685 144.774 209.559 144.872 209.483 144.984C209.407 145.096 209.369 145.218 209.369 145.35C209.369 145.61 209.445 145.796 209.597 145.908C209.753 146.02 209.955 146.076 210.203 146.076C210.507 146.076 210.769 146.022 210.989 145.914C211.213 145.802 211.431 145.634 211.643 145.41V144.372ZM208.247 141.702C208.955 141.054 209.807 140.73 210.803 140.73C211.163 140.73 211.485 140.79 211.769 140.91C212.053 141.026 212.293 141.19 212.489 141.402C212.685 141.61 212.833 141.86 212.933 142.152C213.037 142.444 213.089 142.764 213.089 143.112V147H212.417C212.277 147 212.169 146.98 212.093 146.94C212.017 146.896 211.957 146.81 211.913 146.682L211.781 146.238C211.625 146.378 211.473 146.502 211.325 146.61C211.177 146.714 211.023 146.802 210.863 146.874C210.703 146.946 210.531 147 210.347 147.036C210.167 147.076 209.967 147.096 209.747 147.096C209.487 147.096 209.247 147.062 209.027 146.994C208.807 146.922 208.617 146.816 208.457 146.676C208.297 146.536 208.173 146.362 208.085 146.154C207.997 145.946 207.953 145.704 207.953 145.428C207.953 145.272 207.979 145.118 208.031 144.966C208.083 144.81 208.167 144.662 208.283 144.522C208.403 144.382 208.557 144.25 208.745 144.126C208.933 144.002 209.163 143.894 209.435 143.802C209.711 143.71 210.031 143.636 210.395 143.58C210.759 143.52 211.175 143.484 211.643 143.472V143.112C211.643 142.7 211.555 142.396 211.379 142.2C211.203 142 210.949 141.9 210.617 141.9C210.377 141.9 210.177 141.928 210.017 141.984C209.861 142.04 209.723 142.104 209.603 142.176C209.483 142.244 209.373 142.306 209.273 142.362C209.177 142.418 209.069 142.446 208.949 142.446C208.845 142.446 208.757 142.42 208.685 142.368C208.613 142.312 208.555 142.248 208.511 142.176L208.247 141.702Z" fill="#213E88"/>
<path d="M215.367 145.404C215.535 145.608 215.717 145.752 215.913 145.836C216.113 145.92 216.329 145.962 216.561 145.962C216.785 145.962 216.987 145.92 217.167 145.836C217.347 145.752 217.499 145.624 217.623 145.452C217.751 145.28 217.849 145.064 217.917 144.804C217.985 144.54 218.019 144.23 218.019 143.874C218.019 143.514 217.989 143.21 217.929 142.962C217.873 142.71 217.791 142.506 217.683 142.35C217.575 142.194 217.443 142.08 217.287 142.008C217.135 141.936 216.961 141.9 216.765 141.9C216.457 141.9 216.195 141.966 215.979 142.098C215.763 142.226 215.559 142.408 215.367 142.644V145.404ZM215.289 141.684C215.541 141.4 215.827 141.17 216.147 140.994C216.467 140.818 216.843 140.73 217.275 140.73C217.611 140.73 217.917 140.8 218.193 140.94C218.473 141.08 218.713 141.284 218.913 141.552C219.117 141.816 219.273 142.144 219.381 142.536C219.493 142.924 219.549 143.37 219.549 143.874C219.549 144.334 219.487 144.76 219.363 145.152C219.239 145.544 219.061 145.884 218.829 146.172C218.601 146.46 218.323 146.686 217.995 146.85C217.671 147.01 217.307 147.09 216.903 147.09C216.559 147.09 216.265 147.038 216.021 146.934C215.777 146.826 215.559 146.678 215.367 146.49V149.01H213.885V140.844H214.791C214.983 140.844 215.109 140.934 215.169 141.114L215.289 141.684Z" fill="#213E88"/>
<path d="M221.587 138.084V143.19H221.863C221.963 143.19 222.041 143.178 222.097 143.154C222.157 143.126 222.217 143.072 222.277 142.992L223.807 141.102C223.871 141.018 223.941 140.954 224.017 140.91C224.097 140.866 224.199 140.844 224.323 140.844H225.679L223.765 143.13C223.629 143.31 223.481 143.448 223.321 143.544C223.405 143.604 223.479 143.674 223.543 143.754C223.611 143.834 223.675 143.92 223.735 144.012L225.787 147H224.449C224.333 147 224.233 146.982 224.149 146.946C224.065 146.906 223.995 146.836 223.939 146.736L222.367 144.402C222.311 144.31 222.253 144.25 222.193 144.222C222.133 144.194 222.043 144.18 221.923 144.18H221.587V147H220.105V138.084H221.587Z" fill="#213E88"/>
<path d="M234.705 140.844L232.749 147H231.561C231.425 147 231.331 146.912 231.279 146.736L230.175 143.178C230.139 143.058 230.105 142.94 230.073 142.824C230.045 142.704 230.021 142.584 230.001 142.464C229.977 142.584 229.949 142.706 229.917 142.83C229.889 142.95 229.857 143.07 229.821 143.19L228.699 146.736C228.651 146.912 228.545 147 228.381 147H227.241L225.291 140.844H226.473C226.581 140.844 226.673 140.87 226.749 140.922C226.825 140.974 226.875 141.04 226.899 141.12L227.781 144.408C227.825 144.588 227.863 144.764 227.895 144.936C227.931 145.108 227.961 145.28 227.985 145.452C228.029 145.28 228.075 145.108 228.123 144.936C228.175 144.764 228.229 144.588 228.285 144.408L229.305 141.108C229.329 141.028 229.375 140.962 229.443 140.91C229.515 140.858 229.601 140.832 229.701 140.832H230.355C230.459 140.832 230.547 140.858 230.619 140.91C230.695 140.962 230.745 141.028 230.769 141.108L231.759 144.408C231.811 144.588 231.859 144.766 231.903 144.942C231.951 145.114 231.997 145.286 232.041 145.458C232.093 145.118 232.167 144.768 232.263 144.408L233.169 141.12C233.197 141.04 233.247 140.974 233.319 140.922C233.391 140.87 233.477 140.844 233.577 140.844H234.705Z" fill="#213E88"/>
<path d="M238.118 144.372C237.69 144.392 237.33 144.43 237.038 144.486C236.746 144.538 236.512 144.606 236.336 144.69C236.16 144.774 236.034 144.872 235.958 144.984C235.882 145.096 235.844 145.218 235.844 145.35C235.844 145.61 235.92 145.796 236.072 145.908C236.228 146.02 236.43 146.076 236.678 146.076C236.982 146.076 237.244 146.022 237.464 145.914C237.688 145.802 237.906 145.634 238.118 145.41V144.372ZM234.722 141.702C235.43 141.054 236.282 140.73 237.278 140.73C237.638 140.73 237.96 140.79 238.244 140.91C238.528 141.026 238.768 141.19 238.964 141.402C239.16 141.61 239.308 141.86 239.408 142.152C239.512 142.444 239.564 142.764 239.564 143.112V147H238.892C238.752 147 238.644 146.98 238.568 146.94C238.492 146.896 238.432 146.81 238.388 146.682L238.256 146.238C238.1 146.378 237.948 146.502 237.8 146.61C237.652 146.714 237.498 146.802 237.338 146.874C237.178 146.946 237.006 147 236.822 147.036C236.642 147.076 236.442 147.096 236.222 147.096C235.962 147.096 235.722 147.062 235.502 146.994C235.282 146.922 235.092 146.816 234.932 146.676C234.772 146.536 234.648 146.362 234.56 146.154C234.472 145.946 234.428 145.704 234.428 145.428C234.428 145.272 234.454 145.118 234.506 144.966C234.558 144.81 234.642 144.662 234.758 144.522C234.878 144.382 235.032 144.25 235.22 144.126C235.408 144.002 235.638 143.894 235.91 143.802C236.186 143.71 236.506 143.636 236.87 143.58C237.234 143.52 237.65 143.484 238.118 143.472V143.112C238.118 142.7 238.03 142.396 237.854 142.2C237.678 142 237.424 141.9 237.092 141.9C236.852 141.9 236.652 141.928 236.492 141.984C236.336 142.04 236.198 142.104 236.078 142.176C235.958 142.244 235.848 142.306 235.748 142.362C235.652 142.418 235.544 142.446 235.424 142.446C235.32 142.446 235.232 142.42 235.16 142.368C235.088 142.312 235.03 142.248 234.986 142.176L234.722 141.702Z" fill="#213E88"/>
<path d="M241.86 138.084V147H240.378V138.084H241.86Z" fill="#213E88"/>
<path d="M244.272 140.844V147H242.784V140.844H244.272ZM244.476 139.05C244.476 139.178 244.45 139.298 244.398 139.41C244.346 139.522 244.276 139.62 244.188 139.704C244.104 139.788 244.004 139.856 243.888 139.908C243.772 139.956 243.648 139.98 243.516 139.98C243.388 139.98 243.266 139.956 243.15 139.908C243.038 139.856 242.94 139.788 242.856 139.704C242.772 139.62 242.704 139.522 242.652 139.41C242.604 139.298 242.58 139.178 242.58 139.05C242.58 138.918 242.604 138.794 242.652 138.678C242.704 138.562 242.772 138.462 242.856 138.378C242.94 138.294 243.038 138.228 243.15 138.18C243.266 138.128 243.388 138.102 243.516 138.102C243.648 138.102 243.772 138.128 243.888 138.18C244.004 138.228 244.104 138.294 244.188 138.378C244.276 138.462 244.346 138.562 244.398 138.678C244.45 138.794 244.476 138.918 244.476 139.05Z" fill="#213E88"/>
<path d="M247.235 147.096C246.699 147.096 246.287 146.946 245.999 146.646C245.715 146.342 245.573 145.924 245.573 145.392V141.954H244.943C244.863 141.954 244.795 141.928 244.739 141.876C244.683 141.824 244.655 141.746 244.655 141.642V141.054L245.645 140.892L245.957 139.212C245.977 139.132 246.015 139.07 246.071 139.026C246.127 138.982 246.199 138.96 246.287 138.96H247.055V140.898H248.699V141.954H247.055V145.29C247.055 145.482 247.101 145.632 247.193 145.74C247.289 145.848 247.419 145.902 247.583 145.902C247.675 145.902 247.751 145.892 247.811 145.872C247.875 145.848 247.929 145.824 247.973 145.8C248.021 145.776 248.063 145.754 248.099 145.734C248.135 145.71 248.171 145.698 248.207 145.698C248.251 145.698 248.287 145.71 248.315 145.734C248.343 145.754 248.373 145.786 248.405 145.83L248.849 146.55C248.633 146.73 248.385 146.866 248.105 146.958C247.825 147.05 247.535 147.096 247.235 147.096Z" fill="#213E88"/>
<path d="M252.967 143.214C252.967 143.022 252.939 142.842 252.883 142.674C252.831 142.502 252.751 142.352 252.643 142.224C252.535 142.096 252.397 141.996 252.229 141.924C252.065 141.848 251.873 141.81 251.653 141.81C251.225 141.81 250.887 141.932 250.639 142.176C250.395 142.42 250.239 142.766 250.171 143.214H252.967ZM250.141 144.108C250.165 144.424 250.221 144.698 250.309 144.93C250.397 145.158 250.513 145.348 250.657 145.5C250.801 145.648 250.971 145.76 251.167 145.836C251.367 145.908 251.587 145.944 251.827 145.944C252.067 145.944 252.273 145.916 252.445 145.86C252.621 145.804 252.773 145.742 252.901 145.674C253.033 145.606 253.147 145.544 253.243 145.488C253.343 145.432 253.439 145.404 253.531 145.404C253.655 145.404 253.747 145.45 253.807 145.542L254.233 146.082C254.069 146.274 253.885 146.436 253.681 146.568C253.477 146.696 253.263 146.8 253.039 146.88C252.819 146.956 252.593 147.01 252.361 147.042C252.133 147.074 251.911 147.09 251.695 147.09C251.267 147.09 250.869 147.02 250.501 146.88C250.133 146.736 249.813 146.526 249.541 146.25C249.269 145.97 249.055 145.626 248.899 145.218C248.743 144.806 248.665 144.33 248.665 143.79C248.665 143.37 248.733 142.976 248.869 142.608C249.005 142.236 249.199 141.914 249.451 141.642C249.707 141.366 250.017 141.148 250.381 140.988C250.749 140.828 251.163 140.748 251.623 140.748C252.011 140.748 252.369 140.81 252.697 140.934C253.025 141.058 253.307 141.24 253.543 141.48C253.779 141.716 253.963 142.008 254.095 142.356C254.231 142.7 254.299 143.094 254.299 143.538C254.299 143.762 254.275 143.914 254.227 143.994C254.179 144.07 254.087 144.108 253.951 144.108H250.141Z" fill="#213E88"/>
<path d="M256.347 140.844V147H254.859V140.844H256.347ZM256.551 139.05C256.551 139.178 256.525 139.298 256.473 139.41C256.421 139.522 256.351 139.62 256.263 139.704C256.179 139.788 256.079 139.856 255.963 139.908C255.847 139.956 255.723 139.98 255.591 139.98C255.463 139.98 255.341 139.956 255.225 139.908C255.113 139.856 255.015 139.788 254.931 139.704C254.847 139.62 254.779 139.522 254.727 139.41C254.679 139.298 254.655 139.178 254.655 139.05C254.655 138.918 254.679 138.794 254.727 138.678C254.779 138.562 254.847 138.462 254.931 138.378C255.015 138.294 255.113 138.228 255.225 138.18C255.341 138.128 255.463 138.102 255.591 138.102C255.723 138.102 255.847 138.128 255.963 138.18C256.079 138.228 256.179 138.294 256.263 138.378C256.351 138.462 256.421 138.562 256.473 138.678C256.525 138.794 256.551 138.918 256.551 139.05Z" fill="#213E88"/>
<path d="M259.31 147.096C258.774 147.096 258.362 146.946 258.074 146.646C257.79 146.342 257.648 145.924 257.648 145.392V141.954H257.018C256.938 141.954 256.87 141.928 256.814 141.876C256.758 141.824 256.73 141.746 256.73 141.642V141.054L257.72 140.892L258.032 139.212C258.052 139.132 258.09 139.07 258.146 139.026C258.202 138.982 258.274 138.96 258.362 138.96H259.13V140.898H260.774V141.954H259.13V145.29C259.13 145.482 259.176 145.632 259.268 145.74C259.364 145.848 259.494 145.902 259.658 145.902C259.75 145.902 259.826 145.892 259.886 145.872C259.95 145.848 260.004 145.824 260.048 145.8C260.096 145.776 260.138 145.754 260.174 145.734C260.21 145.71 260.246 145.698 260.282 145.698C260.326 145.698 260.362 145.71 260.39 145.734C260.418 145.754 260.448 145.786 260.48 145.83L260.924 146.55C260.708 146.73 260.46 146.866 260.18 146.958C259.9 147.05 259.61 147.096 259.31 147.096Z" fill="#213E88"/>
<path d="M121.758 158.492C121.758 159.041 121.825 159.581 121.958 160.112C122.091 160.643 122.282 161.141 122.53 161.608C122.557 161.661 122.571 161.708 122.574 161.748C122.579 161.791 122.577 161.827 122.566 161.856C122.555 161.888 122.538 161.915 122.514 161.936C122.493 161.96 122.469 161.98 122.442 161.996L122.002 162.264C121.805 161.96 121.637 161.655 121.498 161.348C121.359 161.041 121.246 160.732 121.158 160.42C121.07 160.108 121.005 159.792 120.962 159.472C120.922 159.152 120.902 158.825 120.902 158.492C120.902 158.159 120.922 157.832 120.962 157.512C121.005 157.189 121.07 156.872 121.158 156.56C121.246 156.248 121.359 155.94 121.498 155.636C121.637 155.329 121.805 155.024 122.002 154.72L122.442 154.984C122.469 155 122.493 155.02 122.514 155.044C122.538 155.065 122.555 155.092 122.566 155.124C122.577 155.153 122.579 155.189 122.574 155.232C122.571 155.272 122.557 155.32 122.53 155.376C122.282 155.84 122.091 156.339 121.958 156.872C121.825 157.403 121.758 157.943 121.758 158.492Z" fill="#213E88"/>
<path d="M128.319 155.216V155.644C128.319 155.772 128.305 155.876 128.279 155.956C128.252 156.033 128.225 156.099 128.199 156.152L126.007 160.664C125.961 160.757 125.897 160.837 125.815 160.904C125.732 160.968 125.621 161 125.483 161H124.767L127.003 156.58C127.053 156.489 127.103 156.407 127.151 156.332C127.201 156.255 127.257 156.181 127.319 156.112H124.551C124.489 156.112 124.436 156.089 124.391 156.044C124.345 155.999 124.323 155.945 124.323 155.884V155.216H128.319Z" fill="#213E88"/>
<path d="M131.213 159.936C131.325 160.072 131.446 160.168 131.577 160.224C131.71 160.28 131.854 160.308 132.009 160.308C132.158 160.308 132.293 160.28 132.413 160.224C132.533 160.168 132.634 160.083 132.717 159.968C132.802 159.853 132.867 159.709 132.913 159.536C132.958 159.36 132.981 159.153 132.981 158.916C132.981 158.676 132.961 158.473 132.921 158.308C132.883 158.14 132.829 158.004 132.757 157.9C132.685 157.796 132.597 157.72 132.493 157.672C132.391 157.624 132.275 157.6 132.145 157.6C131.939 157.6 131.765 157.644 131.621 157.732C131.477 157.817 131.341 157.939 131.213 158.096V159.936ZM131.161 157.456C131.329 157.267 131.519 157.113 131.733 156.996C131.946 156.879 132.197 156.82 132.485 156.82C132.709 156.82 132.913 156.867 133.097 156.96C133.283 157.053 133.443 157.189 133.577 157.368C133.713 157.544 133.817 157.763 133.889 158.024C133.963 158.283 134.001 158.58 134.001 158.916C134.001 159.223 133.959 159.507 133.877 159.768C133.794 160.029 133.675 160.256 133.521 160.448C133.369 160.64 133.183 160.791 132.965 160.9C132.749 161.007 132.506 161.06 132.237 161.06C132.007 161.06 131.811 161.025 131.649 160.956C131.486 160.884 131.341 160.785 131.213 160.66V162.34H130.225V156.896H130.829C130.957 156.896 131.041 156.956 131.081 157.076L131.161 157.456Z" fill="#213E88"/>
<path d="M137.908 156.896V161H137.304C137.173 161 137.09 160.94 137.056 160.82L136.988 160.492C136.82 160.663 136.634 160.801 136.432 160.908C136.229 161.012 135.99 161.064 135.716 161.064C135.492 161.064 135.293 161.027 135.12 160.952C134.949 160.875 134.805 160.767 134.688 160.628C134.57 160.489 134.481 160.325 134.42 160.136C134.361 159.944 134.332 159.733 134.332 159.504V156.896H135.32V159.504C135.32 159.755 135.377 159.949 135.492 160.088C135.609 160.224 135.784 160.292 136.016 160.292C136.186 160.292 136.346 160.255 136.496 160.18C136.645 160.103 136.786 159.997 136.92 159.864V156.896H137.908Z" fill="#213E88"/>
<path d="M139.411 157.4C139.494 157.317 139.58 157.241 139.671 157.172C139.764 157.1 139.862 157.04 139.963 156.992C140.067 156.941 140.178 156.903 140.295 156.876C140.412 156.847 140.54 156.832 140.679 156.832C140.903 156.832 141.102 156.871 141.275 156.948C141.448 157.023 141.592 157.129 141.707 157.268C141.824 157.404 141.912 157.568 141.971 157.76C142.032 157.949 142.063 158.159 142.063 158.388V161H141.075V158.388C141.075 158.137 141.018 157.944 140.903 157.808C140.788 157.669 140.614 157.6 140.379 157.6C140.208 157.6 140.048 157.639 139.899 157.716C139.75 157.793 139.608 157.899 139.475 158.032V161H138.487V156.896H139.091C139.219 156.896 139.303 156.956 139.343 157.076L139.411 157.4Z" fill="#213E88"/>
<path d="M143.916 161.064C143.559 161.064 143.284 160.964 143.092 160.764C142.903 160.561 142.808 160.283 142.808 159.928V157.636H142.388C142.335 157.636 142.289 157.619 142.252 157.584C142.215 157.549 142.196 157.497 142.196 157.428V157.036L142.856 156.928L143.064 155.808C143.077 155.755 143.103 155.713 143.14 155.684C143.177 155.655 143.225 155.64 143.284 155.64H143.796V156.932H144.892V157.636H143.796V159.86C143.796 159.988 143.827 160.088 143.888 160.16C143.952 160.232 144.039 160.268 144.148 160.268C144.209 160.268 144.26 160.261 144.3 160.248C144.343 160.232 144.379 160.216 144.408 160.2C144.44 160.184 144.468 160.169 144.492 160.156C144.516 160.14 144.54 160.132 144.564 160.132C144.593 160.132 144.617 160.14 144.636 160.156C144.655 160.169 144.675 160.191 144.696 160.22L144.992 160.7C144.848 160.82 144.683 160.911 144.496 160.972C144.309 161.033 144.116 161.064 143.916 161.064Z" fill="#213E88"/>
<path d="M147.737 158.476C147.737 158.348 147.719 158.228 147.681 158.116C147.647 158.001 147.593 157.901 147.521 157.816C147.449 157.731 147.357 157.664 147.245 157.616C147.136 157.565 147.008 157.54 146.861 157.54C146.576 157.54 146.351 157.621 146.185 157.784C146.023 157.947 145.919 158.177 145.873 158.476H147.737ZM145.853 159.072C145.869 159.283 145.907 159.465 145.965 159.62C146.024 159.772 146.101 159.899 146.197 160C146.293 160.099 146.407 160.173 146.537 160.224C146.671 160.272 146.817 160.296 146.977 160.296C147.137 160.296 147.275 160.277 147.389 160.24C147.507 160.203 147.608 160.161 147.693 160.116C147.781 160.071 147.857 160.029 147.921 159.992C147.988 159.955 148.052 159.936 148.113 159.936C148.196 159.936 148.257 159.967 148.297 160.028L148.581 160.388C148.472 160.516 148.349 160.624 148.213 160.712C148.077 160.797 147.935 160.867 147.785 160.92C147.639 160.971 147.488 161.007 147.333 161.028C147.181 161.049 147.033 161.06 146.889 161.06C146.604 161.06 146.339 161.013 146.093 160.92C145.848 160.824 145.635 160.684 145.453 160.5C145.272 160.313 145.129 160.084 145.025 159.812C144.921 159.537 144.869 159.22 144.869 158.86C144.869 158.58 144.915 158.317 145.005 158.072C145.096 157.824 145.225 157.609 145.393 157.428C145.564 157.244 145.771 157.099 146.013 156.992C146.259 156.885 146.535 156.832 146.841 156.832C147.1 156.832 147.339 156.873 147.557 156.956C147.776 157.039 147.964 157.16 148.121 157.32C148.279 157.477 148.401 157.672 148.489 157.904C148.58 158.133 148.625 158.396 148.625 158.692C148.625 158.841 148.609 158.943 148.577 158.996C148.545 159.047 148.484 159.072 148.393 159.072H145.853Z" fill="#213E88"/>
<path d="M149.891 157.4C149.974 157.317 150.06 157.241 150.151 157.172C150.244 157.1 150.342 157.04 150.443 156.992C150.547 156.941 150.658 156.903 150.775 156.876C150.892 156.847 151.02 156.832 151.159 156.832C151.383 156.832 151.582 156.871 151.755 156.948C151.928 157.023 152.072 157.129 152.187 157.268C152.304 157.404 152.392 157.568 152.451 157.76C152.512 157.949 152.543 158.159 152.543 158.388V161H151.555V158.388C151.555 158.137 151.498 157.944 151.383 157.808C151.268 157.669 151.094 157.6 150.859 157.6C150.688 157.6 150.528 157.639 150.379 157.716C150.23 157.793 150.088 157.899 149.955 158.032V161H148.967V156.896H149.571C149.699 156.896 149.783 156.956 149.823 157.076L149.891 157.4Z" fill="#213E88"/>
<path d="M155.586 157.696C155.56 157.739 155.532 157.769 155.502 157.788C155.473 157.804 155.436 157.812 155.39 157.812C155.342 157.812 155.29 157.799 155.234 157.772C155.181 157.745 155.118 157.716 155.046 157.684C154.974 157.649 154.892 157.619 154.798 157.592C154.708 157.565 154.6 157.552 154.474 157.552C154.28 157.552 154.126 157.593 154.014 157.676C153.905 157.759 153.85 157.867 153.85 158C153.85 158.088 153.878 158.163 153.934 158.224C153.993 158.283 154.069 158.335 154.162 158.38C154.258 158.425 154.366 158.467 154.486 158.504C154.606 158.539 154.728 158.577 154.85 158.62C154.976 158.663 155.098 158.712 155.218 158.768C155.338 158.821 155.445 158.891 155.538 158.976C155.634 159.059 155.71 159.159 155.766 159.276C155.825 159.393 155.854 159.535 155.854 159.7C155.854 159.897 155.818 160.08 155.746 160.248C155.677 160.413 155.573 160.557 155.434 160.68C155.296 160.8 155.124 160.895 154.918 160.964C154.716 161.031 154.481 161.064 154.214 161.064C154.073 161.064 153.934 161.051 153.798 161.024C153.665 161 153.536 160.965 153.41 160.92C153.288 160.875 153.173 160.821 153.066 160.76C152.962 160.699 152.87 160.632 152.79 160.56L153.018 160.184C153.048 160.139 153.082 160.104 153.122 160.08C153.162 160.056 153.213 160.044 153.274 160.044C153.336 160.044 153.393 160.061 153.446 160.096C153.502 160.131 153.566 160.168 153.638 160.208C153.71 160.248 153.794 160.285 153.89 160.32C153.989 160.355 154.113 160.372 154.262 160.372C154.38 160.372 154.48 160.359 154.562 160.332C154.648 160.303 154.717 160.265 154.77 160.22C154.826 160.175 154.866 160.123 154.89 160.064C154.917 160.003 154.93 159.94 154.93 159.876C154.93 159.78 154.901 159.701 154.842 159.64C154.786 159.579 154.71 159.525 154.614 159.48C154.521 159.435 154.413 159.395 154.29 159.36C154.17 159.323 154.046 159.283 153.918 159.24C153.793 159.197 153.669 159.148 153.546 159.092C153.426 159.033 153.318 158.96 153.222 158.872C153.129 158.784 153.053 158.676 152.994 158.548C152.938 158.42 152.91 158.265 152.91 158.084C152.91 157.916 152.944 157.756 153.01 157.604C153.077 157.452 153.174 157.32 153.302 157.208C153.433 157.093 153.594 157.003 153.786 156.936C153.981 156.867 154.205 156.832 154.458 156.832C154.741 156.832 154.998 156.879 155.23 156.972C155.462 157.065 155.656 157.188 155.81 157.34L155.586 157.696Z" fill="#213E88"/>
<path d="M159.138 157.764C159.109 157.801 159.079 157.831 159.05 157.852C159.023 157.873 158.983 157.884 158.93 157.884C158.879 157.884 158.83 157.869 158.782 157.84C158.734 157.808 158.677 157.773 158.61 157.736C158.543 157.696 158.463 157.661 158.37 157.632C158.279 157.6 158.166 157.584 158.03 157.584C157.857 157.584 157.705 157.616 157.574 157.68C157.443 157.741 157.334 157.831 157.246 157.948C157.161 158.065 157.097 158.208 157.054 158.376C157.011 158.541 156.99 158.729 156.99 158.94C156.99 159.159 157.013 159.353 157.058 159.524C157.106 159.695 157.174 159.839 157.262 159.956C157.35 160.071 157.457 160.159 157.582 160.22C157.707 160.279 157.849 160.308 158.006 160.308C158.163 160.308 158.29 160.289 158.386 160.252C158.485 160.212 158.567 160.169 158.634 160.124C158.701 160.076 158.758 160.033 158.806 159.996C158.857 159.956 158.913 159.936 158.974 159.936C159.054 159.936 159.114 159.967 159.154 160.028L159.438 160.388C159.329 160.516 159.21 160.624 159.082 160.712C158.954 160.797 158.821 160.867 158.682 160.92C158.546 160.971 158.405 161.007 158.258 161.028C158.114 161.049 157.97 161.06 157.826 161.06C157.573 161.06 157.334 161.013 157.11 160.92C156.886 160.824 156.69 160.685 156.522 160.504C156.354 160.323 156.221 160.101 156.122 159.84C156.026 159.576 155.978 159.276 155.978 158.94C155.978 158.639 156.021 158.36 156.106 158.104C156.194 157.845 156.322 157.623 156.49 157.436C156.658 157.247 156.866 157.099 157.114 156.992C157.362 156.885 157.647 156.832 157.97 156.832C158.277 156.832 158.545 156.881 158.774 156.98C159.006 157.079 159.214 157.22 159.398 157.404L159.138 157.764Z" fill="#213E88"/>
<path d="M160.645 157.336C160.805 157.187 160.981 157.065 161.173 156.972C161.365 156.879 161.591 156.832 161.849 156.832C162.073 156.832 162.272 156.871 162.445 156.948C162.619 157.023 162.763 157.129 162.877 157.268C162.995 157.404 163.083 157.568 163.141 157.76C163.203 157.949 163.233 158.159 163.233 158.388V161H162.245V158.388C162.245 158.137 162.188 157.944 162.073 157.808C161.959 157.669 161.784 157.6 161.549 157.6C161.379 157.6 161.219 157.639 161.069 157.716C160.92 157.793 160.779 157.899 160.645 158.032V161H159.657V155.056H160.645V157.336Z" fill="#213E88"/>
<path d="M165.941 159.248C165.656 159.261 165.416 159.287 165.221 159.324C165.026 159.359 164.87 159.404 164.753 159.46C164.636 159.516 164.552 159.581 164.501 159.656C164.45 159.731 164.425 159.812 164.425 159.9C164.425 160.073 164.476 160.197 164.577 160.272C164.681 160.347 164.816 160.384 164.981 160.384C165.184 160.384 165.358 160.348 165.505 160.276C165.654 160.201 165.8 160.089 165.941 159.94V159.248ZM163.677 157.468C164.149 157.036 164.717 156.82 165.381 156.82C165.621 156.82 165.836 156.86 166.025 156.94C166.214 157.017 166.374 157.127 166.505 157.268C166.636 157.407 166.734 157.573 166.801 157.768C166.87 157.963 166.905 158.176 166.905 158.408V161H166.457C166.364 161 166.292 160.987 166.241 160.96C166.19 160.931 166.15 160.873 166.121 160.788L166.033 160.492C165.929 160.585 165.828 160.668 165.729 160.74C165.63 160.809 165.528 160.868 165.421 160.916C165.314 160.964 165.2 161 165.077 161.024C164.957 161.051 164.824 161.064 164.677 161.064C164.504 161.064 164.344 161.041 164.197 160.996C164.05 160.948 163.924 160.877 163.817 160.784C163.71 160.691 163.628 160.575 163.569 160.436C163.51 160.297 163.481 160.136 163.481 159.952C163.481 159.848 163.498 159.745 163.533 159.644C163.568 159.54 163.624 159.441 163.701 159.348C163.781 159.255 163.884 159.167 164.009 159.084C164.134 159.001 164.288 158.929 164.469 158.868C164.653 158.807 164.866 158.757 165.109 158.72C165.352 158.68 165.629 158.656 165.941 158.648V158.408C165.941 158.133 165.882 157.931 165.765 157.8C165.648 157.667 165.478 157.6 165.257 157.6C165.097 157.6 164.964 157.619 164.857 157.656C164.753 157.693 164.661 157.736 164.581 157.784C164.501 157.829 164.428 157.871 164.361 157.908C164.297 157.945 164.225 157.964 164.145 157.964C164.076 157.964 164.017 157.947 163.969 157.912C163.921 157.875 163.882 157.832 163.853 157.784L163.677 157.468Z" fill="#213E88"/>
<path d="M169.604 159.248C169.318 159.261 169.078 159.287 168.884 159.324C168.689 159.359 168.533 159.404 168.416 159.46C168.298 159.516 168.214 159.581 168.164 159.656C168.113 159.731 168.088 159.812 168.088 159.9C168.088 160.073 168.138 160.197 168.24 160.272C168.344 160.347 168.478 160.384 168.644 160.384C168.846 160.384 169.021 160.348 169.168 160.276C169.317 160.201 169.462 160.089 169.604 159.94V159.248ZM167.34 157.468C167.812 157.036 168.38 156.82 169.044 156.82C169.284 156.82 169.498 156.86 169.688 156.94C169.877 157.017 170.037 157.127 170.168 157.268C170.298 157.407 170.397 157.573 170.464 157.768C170.533 157.963 170.568 158.176 170.568 158.408V161H170.12C170.026 161 169.954 160.987 169.904 160.96C169.853 160.931 169.813 160.873 169.784 160.788L169.696 160.492C169.592 160.585 169.49 160.668 169.392 160.74C169.293 160.809 169.19 160.868 169.084 160.916C168.977 160.964 168.862 161 168.74 161.024C168.62 161.051 168.486 161.064 168.34 161.064C168.166 161.064 168.006 161.041 167.86 160.996C167.713 160.948 167.586 160.877 167.48 160.784C167.373 160.691 167.29 160.575 167.232 160.436C167.173 160.297 167.144 160.136 167.144 159.952C167.144 159.848 167.161 159.745 167.196 159.644C167.23 159.54 167.286 159.441 167.364 159.348C167.444 159.255 167.546 159.167 167.672 159.084C167.797 159.001 167.95 158.929 168.132 158.868C168.316 158.807 168.529 158.757 168.772 158.72C169.014 158.68 169.292 158.656 169.604 158.648V158.408C169.604 158.133 169.545 157.931 169.428 157.8C169.31 157.667 169.141 157.6 168.92 157.6C168.76 157.6 168.626 157.619 168.52 157.656C168.416 157.693 168.324 157.736 168.244 157.784C168.164 157.829 168.09 157.871 168.024 157.908C167.96 157.945 167.888 157.964 167.808 157.964C167.738 157.964 167.68 157.947 167.632 157.912C167.584 157.875 167.545 157.832 167.516 157.784L167.34 157.468Z" fill="#213E88"/>
<path d="M172.098 155.056V161H171.11V155.056H172.098Z" fill="#213E88"/>
<path d="M174.784 158.492C174.784 157.943 174.717 157.403 174.584 156.872C174.453 156.339 174.264 155.84 174.016 155.376C173.986 155.32 173.969 155.272 173.964 155.232C173.961 155.189 173.965 155.153 173.976 155.124C173.986 155.092 174.002 155.065 174.024 155.044C174.048 155.02 174.074 155 174.104 154.984L174.544 154.72C174.741 155.024 174.909 155.329 175.048 155.636C175.186 155.94 175.3 156.248 175.388 156.56C175.476 156.872 175.54 157.189 175.58 157.512C175.62 157.832 175.64 158.159 175.64 158.492C175.64 158.825 175.62 159.152 175.58 159.472C175.54 159.792 175.476 160.108 175.388 160.42C175.3 160.732 175.186 161.041 175.048 161.348C174.909 161.655 174.741 161.96 174.544 162.264L174.104 161.996C174.074 161.98 174.048 161.96 174.024 161.936C174.002 161.915 173.986 161.888 173.976 161.856C173.965 161.827 173.961 161.791 173.964 161.748C173.969 161.708 173.986 161.661 174.016 161.608C174.264 161.141 174.453 160.643 174.584 160.112C174.717 159.581 174.784 159.041 174.784 158.492Z" fill="#213E88"/>
</svg>
