<svg width="268" height="136" viewBox="0 0 268 136" fill="none" xmlns="http://www.w3.org/2000/svg">
<path fill-rule="evenodd" clip-rule="evenodd" d="M54.5 109C84.5995 109 109 84.5995 109 54.5C109 24.4005 84.5995 0 54.5 0C24.4005 0 0 24.4005 0 54.5C0 84.5995 24.4005 109 54.5 109ZM54.5 96.8889C77.9107 96.8889 96.8889 77.9107 96.8889 54.5C96.8889 31.0893 77.9107 12.1111 54.5 12.1111C31.0893 12.1111 12.1111 31.0893 12.1111 54.5C12.1111 77.9107 31.0893 96.8889 54.5 96.8889Z" fill="#213E88"/>
<path fill-rule="evenodd" clip-rule="evenodd" d="M52.0439 0C23.0872 1.26788 0 25.1715 0 54.4736C0 84.5877 24.3846 109 54.4645 109C73.5052 109 90.2638 99.2182 100 84.4002L90.4949 76.7875C83.026 88.8495 69.6823 96.883 54.4645 96.883C31.069 96.883 12.1032 77.8956 12.1032 54.4736C12.1032 31.8648 29.7747 13.3881 52.0439 12.1322V0Z" fill="#90cdf4"/>
<path d="M35.8911 53.3591V55.5842H26.253V53.3591H29.7829V43.2199C29.7829 42.819 29.795 42.4061 29.8191 41.9811L27.3132 44.0739C27.1686 44.1861 27.024 44.2583 26.8794 44.2904C26.7429 44.3144 26.6104 44.3144 26.4819 44.2904C26.3614 44.2663 26.253 44.2262 26.1566 44.1701C26.0602 44.106 25.9879 44.0378 25.9397 43.9656L25 42.6787L30.313 38.1684H32.7587V53.3591H35.8911Z" fill="#213E88"/>
<path d="M37.6158 58.5309C37.4712 58.4107 37.3989 58.2623 37.3989 58.0859C37.3989 58.0218 37.419 57.9496 37.4592 57.8694C37.5074 57.7892 37.5636 57.7171 37.6278 57.6529C37.7162 57.5567 37.8246 57.4364 37.9531 57.2921C38.0816 57.1558 38.2101 56.9954 38.3386 56.811C38.4672 56.6346 38.5836 56.4381 38.688 56.2217C38.8005 56.0132 38.8848 55.7887 38.941 55.5481C38.684 55.5481 38.4511 55.504 38.2423 55.4158C38.0334 55.3196 37.8527 55.1913 37.7001 55.0309C37.5555 54.8706 37.4391 54.6821 37.3507 54.4656C37.2704 54.2491 37.2303 54.0126 37.2303 53.756C37.2303 53.5315 37.2704 53.323 37.3507 53.1306C37.4391 52.9301 37.5596 52.7577 37.7122 52.6134C37.8648 52.4611 38.0495 52.3448 38.2664 52.2646C38.4832 52.1764 38.7202 52.1323 38.9772 52.1323C39.2824 52.1323 39.5474 52.1884 39.7723 52.3007C40.0052 52.4049 40.194 52.5533 40.3386 52.7457C40.4912 52.9301 40.6036 53.1466 40.6759 53.3952C40.7562 53.6357 40.7964 53.8923 40.7964 54.1649C40.7964 54.5498 40.7361 54.9548 40.6157 55.3797C40.5032 55.8047 40.3345 56.2297 40.1097 56.6546C39.8848 57.0796 39.6037 57.4926 39.2663 57.8935C38.937 58.2944 38.5595 58.6632 38.1338 59L37.6158 58.5309Z" fill="#213E88"/>
<path d="M52.4555 52.8179C52.7768 52.8179 53.0298 52.9101 53.2145 53.0945C53.4073 53.2709 53.5036 53.5074 53.5036 53.8041V55.5842H41.5524V54.5979C41.5524 54.3975 41.5925 54.189 41.6728 53.9725C41.7612 53.748 41.8977 53.5475 42.0825 53.3711L47.3714 48.079C47.8131 47.63 48.2067 47.201 48.5521 46.7921C48.9055 46.3832 49.1986 45.9782 49.4315 45.5773C49.6645 45.1764 49.8412 44.7715 49.9616 44.3625C50.0901 43.9456 50.1544 43.5086 50.1544 43.0515C50.1544 42.6346 50.0942 42.2698 49.9737 41.957C49.8532 41.6363 49.6805 41.3677 49.4556 41.1512C49.2388 40.9347 48.9737 40.7743 48.6605 40.6701C48.3553 40.5578 48.0099 40.5017 47.6244 40.5017C47.271 40.5017 46.9417 40.5538 46.6365 40.6581C46.3393 40.7543 46.0743 40.8946 45.8413 41.079C45.6084 41.2554 45.4116 41.4639 45.251 41.7045C45.0904 41.945 44.9699 42.2096 44.8896 42.4983C44.753 42.8671 44.5763 43.1117 44.3595 43.232C44.1426 43.3522 43.8294 43.3803 43.4197 43.3162L41.8536 43.0395C41.974 42.2056 42.207 41.4759 42.5523 40.8505C42.8977 40.2171 43.3274 39.6919 43.8414 39.2749C44.3635 38.8499 44.9578 38.5332 45.6245 38.3247C46.2991 38.1082 47.022 38 47.7931 38C48.5962 38 49.3311 38.1203 49.9978 38.3608C50.6644 38.5934 51.2347 38.9261 51.7085 39.3591C52.1824 39.7921 52.5519 40.3133 52.8169 40.9227C53.082 41.5321 53.2145 42.2096 53.2145 42.9553C53.2145 43.5968 53.1181 44.1901 52.9254 44.7354C52.7406 45.2806 52.4876 45.8018 52.1664 46.299C51.8531 46.7961 51.4837 47.2772 51.058 47.7423C50.6323 48.2073 50.1865 48.6804 49.7207 49.1615L45.7931 53.1667C46.1706 53.0544 46.5441 52.9702 46.9136 52.9141C47.2911 52.8499 47.6485 52.8179 47.9858 52.8179H52.4555Z" fill="#213E88"/>
<path d="M54.7103 43.0395C54.8308 42.2056 55.0637 41.4759 55.4091 40.8505C55.7544 40.2171 56.1841 39.6919 56.6982 39.2749C57.2202 38.8499 57.8146 38.5332 58.4812 38.3247C59.1559 38.1082 59.8787 38 60.6498 38C61.453 38 62.1758 38.1163 62.8184 38.3488C63.4689 38.5733 64.0231 38.89 64.4809 39.299C64.9388 39.6999 65.2881 40.173 65.5291 40.7182C65.7781 41.2635 65.9026 41.8528 65.9026 42.4863C65.9026 43.0395 65.8383 43.5286 65.7098 43.9536C65.5893 44.3706 65.4126 44.7354 65.1797 45.0481C64.9468 45.3608 64.6576 45.6254 64.3123 45.8419C63.9669 46.0584 63.5774 46.2388 63.1437 46.3832C64.1878 46.7119 64.9669 47.2131 65.4809 47.8866C65.9949 48.5601 66.252 49.4061 66.252 50.4244C66.252 51.2904 66.0913 52.0561 65.77 52.7217C65.4488 53.3872 65.0151 53.9485 64.4689 54.4055C63.9227 54.8545 63.2882 55.1953 62.5654 55.4278C61.8505 55.6604 61.0915 55.7766 60.2884 55.7766C59.4129 55.7766 58.6499 55.6764 57.9993 55.4759C57.3487 55.2755 56.7825 54.9788 56.3006 54.5859C55.8187 54.193 55.4091 53.7119 55.0717 53.1426C54.7344 52.5733 54.4452 51.9158 54.2043 51.1701L55.5175 50.6289C55.8629 50.4845 56.1841 50.4485 56.4813 50.5206C56.7865 50.5848 57.0074 50.7451 57.1439 51.0017C57.2885 51.2824 57.4451 51.559 57.6138 51.8316C57.7905 52.1042 57.9993 52.3488 58.2403 52.5653C58.4812 52.7738 58.7623 52.9462 59.0836 53.0825C59.4129 53.2108 59.8024 53.2749 60.2522 53.2749C60.7582 53.2749 61.2 53.1947 61.5775 53.0344C61.955 52.866 62.2682 52.6495 62.5172 52.3849C62.7742 52.1203 62.9629 51.8276 63.0834 51.5069C63.2119 51.1781 63.2762 50.8494 63.2762 50.5206C63.2762 50.1037 63.232 49.7268 63.1437 49.39C63.0553 49.0452 62.8706 48.7526 62.5895 48.512C62.3084 48.2715 61.9027 48.083 61.3727 47.9467C60.8506 47.8104 60.1478 47.7423 59.2643 47.7423V45.6254C59.9952 45.6174 60.6016 45.5493 61.0835 45.421C61.5654 45.2927 61.9469 45.1163 62.228 44.8918C62.5172 44.6592 62.718 44.3826 62.8304 44.0619C62.9429 43.7411 62.9991 43.3883 62.9991 43.0034C62.9991 42.1856 62.7702 41.5641 62.3124 41.1392C61.8546 40.7142 61.2441 40.5017 60.4811 40.5017C60.1277 40.5017 59.8024 40.5538 59.5053 40.6581C59.2081 40.7543 58.939 40.8946 58.6981 41.079C58.4651 41.2554 58.2684 41.4639 58.1077 41.7045C57.9471 41.945 57.8266 42.2096 57.7463 42.4983C57.6098 42.8671 57.429 43.1117 57.2042 43.232C56.9873 43.3522 56.6781 43.3803 56.2765 43.3162L54.7103 43.0395Z" fill="#213E88"/>
<path d="M75.1571 42.4021C75.1571 43.0596 75.0446 43.6529 74.8197 44.1821C74.6029 44.7113 74.3097 45.1644 73.9402 45.5412C73.5708 45.9101 73.1411 46.1947 72.6511 46.3952C72.1612 46.5956 71.6512 46.6959 71.1211 46.6959C70.5428 46.6959 70.0087 46.5956 69.5188 46.3952C69.0288 46.1947 68.6031 45.9101 68.2417 45.5412C67.8883 45.1644 67.6112 44.7113 67.4104 44.1821C67.2096 43.6529 67.1092 43.0596 67.1092 42.4021C67.1092 41.7285 67.2096 41.1191 67.4104 40.5739C67.6112 40.0286 67.8883 39.5676 68.2417 39.1907C68.6031 38.8139 69.0288 38.5252 69.5188 38.3247C70.0087 38.1163 70.5428 38.012 71.1211 38.012C71.6994 38.012 72.2335 38.1163 72.7234 38.3247C73.2214 38.5252 73.6511 38.8139 74.0125 39.1907C74.374 39.5676 74.6551 40.0286 74.8559 40.5739C75.0567 41.1191 75.1571 41.7285 75.1571 42.4021ZM72.868 42.4021C72.868 41.937 72.8198 41.5481 72.7234 41.2354C72.6351 40.9227 72.5106 40.6701 72.35 40.4777C72.1973 40.2852 72.0126 40.1489 71.7958 40.0687C71.5869 39.9805 71.362 39.9364 71.1211 39.9364C70.8801 39.9364 70.6552 39.9805 70.4464 40.0687C70.2376 40.1489 70.0569 40.2852 69.9043 40.4777C69.7597 40.6701 69.6432 40.9227 69.5549 41.2354C69.4665 41.5481 69.4224 41.937 69.4224 42.4021C69.4224 42.8511 69.4665 43.2279 69.5549 43.5326C69.6432 43.8293 69.7597 44.0699 69.9043 44.2543C70.0569 44.4387 70.2376 44.571 70.4464 44.6512C70.6552 44.7314 70.8801 44.7715 71.1211 44.7715C71.362 44.7715 71.5869 44.7314 71.7958 44.6512C72.0126 44.571 72.1973 44.4387 72.35 44.2543C72.5106 44.0699 72.6351 43.8293 72.7234 43.5326C72.8198 43.2279 72.868 42.8511 72.868 42.4021ZM80.952 38.6615C81.0564 38.5412 81.1769 38.433 81.3134 38.3368C81.458 38.2405 81.6588 38.1924 81.9158 38.1924H84.0844L71.1452 55.1392C71.0408 55.2675 70.9163 55.3757 70.7717 55.4639C70.6271 55.5441 70.4504 55.5842 70.2416 55.5842H68.0248L80.952 38.6615ZM85 51.4948C85 52.1523 84.8876 52.7457 84.6627 53.2749C84.4458 53.8041 84.1526 54.2572 83.7832 54.634C83.4137 55.0029 82.984 55.2915 82.4941 55.5C82.0041 55.7005 81.4941 55.8007 80.964 55.8007C80.3857 55.8007 79.8516 55.7005 79.3617 55.5C78.8718 55.2915 78.4461 55.0029 78.0846 54.634C77.7312 54.2572 77.4541 53.8041 77.2534 53.2749C77.0526 52.7457 76.9522 52.1523 76.9522 51.4948C76.9522 50.8213 77.0526 50.2119 77.2534 49.6667C77.4541 49.1214 77.7312 48.6604 78.0846 48.2835C78.4461 47.9066 78.8718 47.618 79.3617 47.4175C79.8516 47.209 80.3857 47.1048 80.964 47.1048C81.5423 47.1048 82.0764 47.209 82.5664 47.4175C83.0643 47.618 83.49 47.9066 83.8434 48.2835C84.2049 48.6604 84.486 49.1214 84.6868 49.6667C84.8956 50.2119 85 50.8213 85 51.4948ZM82.6989 51.4948C82.6989 51.0298 82.6547 50.6409 82.5664 50.3282C82.478 50.0155 82.3535 49.7629 82.1929 49.5704C82.0403 49.378 81.8556 49.2417 81.6387 49.1615C81.4299 49.0733 81.205 49.0292 80.964 49.0292C80.7231 49.0292 80.4982 49.0733 80.2894 49.1615C80.0805 49.2417 79.8998 49.378 79.7472 49.5704C79.5946 49.7629 79.4741 50.0155 79.3858 50.3282C79.3055 50.6409 79.2653 51.0298 79.2653 51.4948C79.2653 51.9439 79.3055 52.3207 79.3858 52.6254C79.4741 52.9301 79.5946 53.1747 79.7472 53.3591C79.8998 53.5435 80.0805 53.6758 80.2894 53.756C80.4982 53.8362 80.7231 53.8763 80.964 53.8763C81.205 53.8763 81.4299 53.8362 81.6387 53.756C81.8556 53.6758 82.0403 53.5435 82.1929 53.3591C82.3535 53.1747 82.478 52.9301 82.5664 52.6254C82.6547 52.3207 82.6989 51.9439 82.6989 51.4948Z" fill="#213E88"/>
<path d="M44.9035 73.5477C45.2643 73.5477 45.5673 73.5062 45.8127 73.4232C46.058 73.3402 46.2528 73.2296 46.3971 73.0913C46.5462 72.953 46.6521 72.7916 46.7146 72.6072C46.7819 72.4228 46.8156 72.2268 46.8156 72.0194C46.8156 71.8027 46.7795 71.609 46.7074 71.4385C46.6352 71.2633 46.5222 71.1157 46.3683 70.9959C46.2143 70.8714 46.0147 70.7769 45.7694 70.7123C45.5289 70.6478 45.2378 70.6155 44.8963 70.6155H42.9409V73.5477H44.9035ZM42.9409 66.4385V69.3292H44.485C45.1489 69.3292 45.6491 69.2139 45.9858 68.9834C46.3274 68.7529 46.4981 68.3864 46.4981 67.8838C46.4981 67.3628 46.3442 66.9917 46.0363 66.7704C45.7285 66.5491 45.2475 66.4385 44.5933 66.4385H42.9409ZM44.5933 65C45.2763 65 45.8608 65.0622 46.3466 65.1867C46.8324 65.3112 47.2293 65.4887 47.5372 65.7192C47.8498 65.9497 48.0783 66.2287 48.2226 66.556C48.3669 66.8834 48.4391 67.2522 48.4391 67.6625C48.4391 67.8976 48.403 68.1236 48.3308 68.3402C48.2587 68.5523 48.1456 68.7529 47.9917 68.9419C47.8426 69.1263 47.6502 69.2946 47.4145 69.4467C47.1836 69.5989 46.907 69.728 46.5847 69.834C48.0182 70.1429 48.7349 70.8852 48.7349 72.0609C48.7349 72.485 48.6507 72.8769 48.4824 73.2365C48.314 73.5961 48.0687 73.9073 47.7464 74.1701C47.4241 74.4283 47.0273 74.6312 46.5559 74.7787C46.0845 74.9262 45.5457 75 44.9396 75H41V65H44.5933Z" fill="#213E88"/>
<path d="M53.6804 73.5477C54.0412 73.5477 54.3442 73.5062 54.5895 73.4232C54.8348 73.3402 55.0297 73.2296 55.174 73.0913C55.3231 72.953 55.4289 72.7916 55.4915 72.6072C55.5588 72.4228 55.5925 72.2268 55.5925 72.0194C55.5925 71.8027 55.5564 71.609 55.4842 71.4385C55.4121 71.2633 55.299 71.1157 55.1451 70.9959C54.9912 70.8714 54.7916 70.7769 54.5462 70.7123C54.3057 70.6478 54.0147 70.6155 53.6732 70.6155H51.7178V73.5477H53.6804ZM51.7178 66.4385V69.3292H53.2619C53.9257 69.3292 54.426 69.2139 54.7627 68.9834C55.1042 68.7529 55.275 68.3864 55.275 67.8838C55.275 67.3628 55.1211 66.9917 54.8132 66.7704C54.5053 66.5491 54.0243 66.4385 53.3701 66.4385H51.7178ZM53.3701 65C54.0532 65 54.6376 65.0622 55.1235 65.1867C55.6093 65.3112 56.0061 65.4887 56.314 65.7192C56.6267 65.9497 56.8552 66.2287 56.9995 66.556C57.1438 66.8834 57.2159 67.2522 57.2159 67.6625C57.2159 67.8976 57.1799 68.1236 57.1077 68.3402C57.0355 68.5523 56.9225 68.7529 56.7686 68.9419C56.6195 69.1263 56.427 69.2946 56.1913 69.4467C55.9605 69.5989 55.6839 69.728 55.3616 69.834C56.795 70.1429 57.5118 70.8852 57.5118 72.0609C57.5118 72.485 57.4276 72.8769 57.2592 73.2365C57.0909 73.5961 56.8455 73.9073 56.5233 74.1701C56.201 74.4283 55.8041 74.6312 55.3327 74.7787C54.8613 74.9262 54.3226 75 53.7165 75H49.7769V65H53.3701Z" fill="#213E88"/>
<path d="M61.9449 70.0277C62.3009 70.0277 62.6112 69.9862 62.8757 69.9032C63.1403 69.8156 63.3592 69.6934 63.5323 69.5367C63.7103 69.3753 63.8426 69.1817 63.9292 68.9557C64.0158 68.7252 64.0591 68.4693 64.0591 68.1881C64.0591 67.9207 64.0158 67.6787 63.9292 67.462C63.8426 67.2453 63.7127 67.0609 63.5396 66.9087C63.3664 66.7566 63.1475 66.6413 62.8829 66.5629C62.6184 66.4799 62.3057 66.4385 61.9449 66.4385H60.4947V70.0277H61.9449ZM61.9449 65C62.6424 65 63.2461 65.0784 63.756 65.2351C64.2659 65.3919 64.6868 65.6109 65.0187 65.8921C65.3506 66.1734 65.5959 66.5099 65.7547 66.9018C65.9182 67.2937 66 67.7225 66 68.1881C66 68.6722 65.9158 69.1171 65.7475 69.5228C65.5791 69.9239 65.3266 70.2697 64.9898 70.5602C64.6531 70.8506 64.2298 71.0765 63.7199 71.2379C63.2149 71.3993 62.6232 71.4799 61.9449 71.4799H60.4947V75H58.5537V65H61.9449Z" fill="#213E88"/>
<path fill-rule="evenodd" clip-rule="evenodd" d="M213.5 109C243.6 109 268 84.5995 268 54.5C268 24.4005 243.6 0 213.5 0C183.4 0 159 24.4005 159 54.5C159 84.5995 183.4 109 213.5 109ZM213.5 96.8889C236.911 96.8889 255.889 77.9107 255.889 54.5C255.889 31.0893 236.911 12.1111 213.5 12.1111C190.089 12.1111 171.111 31.0893 171.111 54.5C171.111 77.9107 190.089 96.8889 213.5 96.8889Z" fill="#213E88"/>
<path fill-rule="evenodd" clip-rule="evenodd" d="M211.044 0C182.087 1.26788 159 25.1715 159 54.4736C159 84.5877 183.385 109 213.465 109C232.505 109 249.264 99.2182 259 84.4002L249.495 76.7875C242.026 88.8495 228.682 96.883 213.465 96.883C190.069 96.883 171.103 77.8956 171.103 54.4736C171.103 31.8648 188.775 13.3881 211.044 12.1322V0Z" fill="#90cdf4"/>
<path d="M194.073 53.3559V55.5822H184.274V53.3559H187.863V43.2109C187.863 42.8097 187.875 42.3966 187.899 41.9713L185.352 44.0653C185.205 44.1777 185.058 44.2499 184.911 44.2819C184.772 44.306 184.637 44.306 184.507 44.2819C184.384 44.2579 184.274 44.2178 184.176 44.1616C184.078 44.0974 184.004 44.0292 183.955 43.957L183 42.6693L188.402 38.1564H190.888V53.3559H194.073Z" fill="#213E88"/>
<path d="M195.826 58.5307C195.679 58.4103 195.606 58.2619 195.606 58.0854C195.606 58.0212 195.626 57.949 195.667 57.8688C195.716 57.7885 195.773 57.7163 195.838 57.6521C195.928 57.5559 196.038 57.4355 196.169 57.2911C196.3 57.1547 196.43 56.9943 196.561 56.8097C196.692 56.6332 196.81 56.4367 196.916 56.2201C197.03 56.0115 197.116 55.7868 197.173 55.5461C196.912 55.5461 196.675 55.502 196.463 55.4138C196.251 55.3175 196.067 55.1891 195.912 55.0287C195.765 54.8682 195.646 54.6797 195.557 54.463C195.475 54.2464 195.434 54.0097 195.434 53.753C195.434 53.5284 195.475 53.3198 195.557 53.1272C195.646 52.9266 195.769 52.7542 195.924 52.6097C196.079 52.4573 196.267 52.341 196.487 52.2607C196.708 52.1725 196.949 52.1284 197.21 52.1284C197.52 52.1284 197.79 52.1845 198.019 52.2968C198.255 52.4011 198.447 52.5496 198.594 52.7421C198.749 52.9266 198.864 53.1433 198.937 53.392C199.019 53.6327 199.06 53.8894 199.06 54.1622C199.06 54.5473 198.998 54.9524 198.876 55.3777C198.762 55.8029 198.59 56.2281 198.361 56.6533C198.133 57.0785 197.847 57.4917 197.504 57.8928C197.169 58.294 196.786 58.663 196.353 59L195.826 58.5307Z" fill="#213E88"/>
<path d="M207.618 49.0235V43.3312C207.618 42.7937 207.655 42.2 207.728 41.5501L202.229 49.0235H207.618ZM212.481 49.0235V50.7444C212.481 50.9049 212.428 51.0453 212.322 51.1656C212.216 51.2779 212.064 51.3341 211.868 51.3341H210.252V55.5822H207.618V51.3341H200.147C199.943 51.3341 199.763 51.2739 199.608 51.1536C199.453 51.0252 199.355 50.8688 199.314 50.6842L198.995 49.1799L207.386 38.1685H210.252V49.0235H212.481Z" fill="#213E88"/>
<path d="M224.56 53.3559V55.5822H214.761V53.3559H218.35V43.2109C218.35 42.8097 218.362 42.3966 218.387 41.9713L215.839 44.0653C215.692 44.1777 215.545 44.2499 215.398 44.2819C215.259 44.306 215.124 44.306 214.994 44.2819C214.871 44.2579 214.761 44.2178 214.663 44.1616C214.565 44.0974 214.492 44.0292 214.443 43.957L213.487 42.6693L218.889 38.1564H221.375V53.3559H224.56Z" fill="#213E88"/>
<path d="M233.993 42.3925C233.993 43.0504 233.879 43.6441 233.65 44.1736C233.43 44.7032 233.132 45.1564 232.756 45.5335C232.38 45.9026 231.943 46.1874 231.445 46.388C230.947 46.5885 230.429 46.6888 229.89 46.6888C229.302 46.6888 228.759 46.5885 228.261 46.388C227.763 46.1874 227.33 45.9026 226.962 45.5335C226.603 45.1564 226.321 44.7032 226.117 44.1736C225.913 43.6441 225.811 43.0504 225.811 42.3925C225.811 41.7186 225.913 41.1089 226.117 40.5633C226.321 40.0178 226.603 39.5564 226.962 39.1794C227.33 38.8023 227.763 38.5135 228.261 38.3129C228.759 38.1043 229.302 38 229.89 38C230.478 38 231.021 38.1043 231.519 38.3129C232.025 38.5135 232.462 38.8023 232.829 39.1794C233.197 39.5564 233.483 40.0178 233.687 40.5633C233.891 41.1089 233.993 41.7186 233.993 42.3925ZM231.666 42.3925C231.666 41.9272 231.617 41.5381 231.519 41.2252C231.429 40.9123 231.302 40.6596 231.139 40.467C230.984 40.2745 230.796 40.1381 230.576 40.0579C230.363 39.9696 230.135 39.9255 229.89 39.9255C229.645 39.9255 229.416 39.9696 229.204 40.0579C228.992 40.1381 228.808 40.2745 228.653 40.467C228.506 40.6596 228.387 40.9123 228.297 41.2252C228.208 41.5381 228.163 41.9272 228.163 42.3925C228.163 42.8418 228.208 43.2189 228.297 43.5238C228.387 43.8206 228.506 44.0613 228.653 44.2458C228.808 44.4304 228.992 44.5628 229.204 44.643C229.416 44.7232 229.645 44.7633 229.89 44.7633C230.135 44.7633 230.363 44.7232 230.576 44.643C230.796 44.5628 230.984 44.4304 231.139 44.2458C231.302 44.0613 231.429 43.8206 231.519 43.5238C231.617 43.2189 231.666 42.8418 231.666 42.3925ZM239.885 38.6499C239.991 38.5295 240.113 38.4212 240.252 38.3249C240.399 38.2287 240.603 38.1805 240.864 38.1805H243.069L229.914 55.137C229.808 55.2653 229.682 55.3736 229.535 55.4619C229.388 55.5421 229.208 55.5822 228.996 55.5822H226.742L239.885 38.6499ZM244 51.4905C244 52.1484 243.886 52.7421 243.657 53.2716C243.437 53.8011 243.139 54.2544 242.763 54.6315C242.387 55.0006 241.95 55.2894 241.452 55.498C240.954 55.6986 240.436 55.7989 239.897 55.7989C239.309 55.7989 238.766 55.6986 238.268 55.498C237.77 55.2894 237.337 55.0006 236.969 54.6315C236.61 54.2544 236.328 53.8011 236.124 53.2716C235.92 52.7421 235.818 52.1484 235.818 51.4905C235.818 50.8166 235.92 50.2069 236.124 49.6613C236.328 49.1158 236.61 48.6544 236.969 48.2774C237.337 47.9003 237.77 47.6115 238.268 47.4109C238.766 47.2023 239.309 47.098 239.897 47.098C240.485 47.098 241.028 47.2023 241.526 47.4109C242.032 47.6115 242.465 47.9003 242.824 48.2774C243.192 48.6544 243.477 49.1158 243.682 49.6613C243.894 50.2069 244 50.8166 244 51.4905ZM241.661 51.4905C241.661 51.0252 241.616 50.6361 241.526 50.3232C241.436 50.0103 241.309 49.7576 241.146 49.565C240.991 49.3725 240.803 49.2361 240.583 49.1559C240.37 49.0676 240.142 49.0235 239.897 49.0235C239.652 49.0235 239.423 49.0676 239.211 49.1559C238.999 49.2361 238.815 49.3725 238.66 49.565C238.505 49.7576 238.382 50.0103 238.292 50.3232C238.211 50.6361 238.17 51.0252 238.17 51.4905C238.17 51.9398 238.211 52.3169 238.292 52.6218C238.382 52.9266 238.505 53.1713 238.66 53.3559C238.815 53.5404 238.999 53.6728 239.211 53.753C239.423 53.8332 239.652 53.8734 239.897 53.8734C240.142 53.8734 240.37 53.8332 240.583 53.753C240.803 53.6728 240.991 53.5404 241.146 53.3559C241.309 53.1713 241.436 52.9266 241.526 52.6218C241.616 52.3169 241.661 51.9398 241.661 51.4905Z" fill="#213E88"/>
<path d="M203.904 73.5477C204.264 73.5477 204.567 73.5062 204.813 73.4232C205.058 73.3402 205.253 73.2296 205.397 73.0913C205.546 72.953 205.652 72.7916 205.715 72.6072C205.782 72.4228 205.816 72.2268 205.816 72.0194C205.816 71.8027 205.78 71.609 205.707 71.4385C205.635 71.2633 205.522 71.1157 205.368 70.9959C205.214 70.8714 205.015 70.7769 204.769 70.7123C204.529 70.6478 204.238 70.6155 203.896 70.6155H201.941V73.5477H203.904ZM201.941 66.4385V69.3292H203.485C204.149 69.3292 204.649 69.2139 204.986 68.9834C205.327 68.7529 205.498 68.3864 205.498 67.8838C205.498 67.3628 205.344 66.9917 205.036 66.7704C204.728 66.5491 204.247 66.4385 203.593 66.4385H201.941ZM203.593 65C204.276 65 204.861 65.0622 205.347 65.1867C205.832 65.3112 206.229 65.4887 206.537 65.7192C206.85 65.9497 207.078 66.2287 207.223 66.556C207.367 66.8834 207.439 67.2522 207.439 67.6625C207.439 67.8976 207.403 68.1236 207.331 68.3402C207.259 68.5523 207.146 68.7529 206.992 68.9419C206.843 69.1263 206.65 69.2946 206.414 69.4467C206.184 69.5989 205.907 69.728 205.585 69.834C207.018 70.1429 207.735 70.8852 207.735 72.0609C207.735 72.485 207.651 72.8769 207.482 73.2365C207.314 73.5961 207.069 73.9073 206.746 74.1701C206.424 74.4283 206.027 74.6312 205.556 74.7787C205.084 74.9262 204.546 75 203.94 75H200V65H203.593Z" fill="#213E88"/>
<path d="M212.68 73.5477C213.041 73.5477 213.344 73.5062 213.59 73.4232C213.835 73.3402 214.03 73.2296 214.174 73.0913C214.323 72.953 214.429 72.7916 214.491 72.6072C214.559 72.4228 214.592 72.2268 214.592 72.0194C214.592 71.8027 214.556 71.609 214.484 71.4385C214.412 71.2633 214.299 71.1157 214.145 70.9959C213.991 70.8714 213.792 70.7769 213.546 70.7123C213.306 70.6478 213.015 70.6155 212.673 70.6155H210.718V73.5477H212.68ZM210.718 66.4385V69.3292H212.262C212.926 69.3292 213.426 69.2139 213.763 68.9834C214.104 68.7529 214.275 68.3864 214.275 67.8838C214.275 67.3628 214.121 66.9917 213.813 66.7704C213.505 66.5491 213.024 66.4385 212.37 66.4385H210.718ZM212.37 65C213.053 65 213.638 65.0622 214.123 65.1867C214.609 65.3112 215.006 65.4887 215.314 65.7192C215.627 65.9497 215.855 66.2287 215.999 66.556C216.144 66.8834 216.216 67.2522 216.216 67.6625C216.216 67.8976 216.18 68.1236 216.108 68.3402C216.036 68.5523 215.923 68.7529 215.769 68.9419C215.619 69.1263 215.427 69.2946 215.191 69.4467C214.96 69.5989 214.684 69.728 214.362 69.834C215.795 70.1429 216.512 70.8852 216.512 72.0609C216.512 72.485 216.428 72.8769 216.259 73.2365C216.091 73.5961 215.846 73.9073 215.523 74.1701C215.201 74.4283 214.804 74.6312 214.333 74.7787C213.861 74.9262 213.323 75 212.716 75H208.777V65H212.37Z" fill="#213E88"/>
<path d="M220.945 70.0277C221.301 70.0277 221.611 69.9862 221.876 69.9032C222.14 69.8156 222.359 69.6934 222.532 69.5367C222.71 69.3753 222.843 69.1817 222.929 68.9557C223.016 68.7252 223.059 68.4693 223.059 68.1881C223.059 67.9207 223.016 67.6787 222.929 67.462C222.843 67.2453 222.713 67.0609 222.54 66.9087C222.366 66.7566 222.148 66.6413 221.883 66.5629C221.618 66.4799 221.306 66.4385 220.945 66.4385H219.495V70.0277H220.945ZM220.945 65C221.642 65 222.246 65.0784 222.756 65.2351C223.266 65.3919 223.687 65.6109 224.019 65.8921C224.351 66.1734 224.596 66.5099 224.755 66.9018C224.918 67.2937 225 67.7225 225 68.1881C225 68.6722 224.916 69.1171 224.747 69.5228C224.579 69.9239 224.327 70.2697 223.99 70.5602C223.653 70.8506 223.23 71.0765 222.72 71.2379C222.215 71.3993 221.623 71.4799 220.945 71.4799H219.495V75H217.554V65H220.945Z" fill="#213E88"/>
<path d="M32.8978 123.293V133.883H31.8905C31.7348 133.883 31.6034 133.858 31.4964 133.81C31.3942 133.756 31.2944 133.668 31.1971 133.546L25.6861 126.486C25.7153 126.808 25.7299 127.106 25.7299 127.379V133.883H24V123.293H25.0292C25.1119 123.293 25.1825 123.298 25.2409 123.308C25.3041 123.312 25.3577 123.327 25.4015 123.352C25.4501 123.371 25.4964 123.403 25.5402 123.447C25.5839 123.486 25.6326 123.54 25.6861 123.608L31.219 130.697C31.2044 130.526 31.1922 130.358 31.1825 130.192C31.1728 130.026 31.1679 129.872 31.1679 129.73V123.293H32.8978Z" fill="#213E88"/>
<path d="M38.8305 129.262C38.8305 129.027 38.7964 128.808 38.7283 128.603C38.665 128.393 38.5677 128.209 38.4363 128.053C38.3049 127.897 38.137 127.775 37.9326 127.687C37.7331 127.594 37.4996 127.548 37.2319 127.548C36.7112 127.548 36.3 127.697 35.9983 127.995C35.7015 128.292 35.5117 128.715 35.429 129.262H38.8305ZM35.3925 130.353C35.4217 130.739 35.4898 131.073 35.5969 131.356C35.7039 131.634 35.8451 131.866 36.0202 132.052C36.1954 132.233 36.4022 132.369 36.6407 132.462C36.884 132.55 37.1516 132.594 37.4436 132.594C37.7356 132.594 37.9862 132.56 38.1954 132.491C38.4095 132.423 38.5945 132.347 38.7502 132.264C38.9108 132.181 39.0494 132.106 39.1662 132.037C39.2879 131.969 39.4047 131.935 39.5166 131.935C39.6674 131.935 39.7794 131.991 39.8524 132.103L40.3706 132.762C40.1711 132.997 39.9473 133.194 39.6991 133.356C39.4509 133.512 39.1906 133.639 38.9181 133.736C38.6504 133.829 38.3755 133.895 38.0932 133.934C37.8159 133.973 37.5458 133.993 37.283 133.993C36.7623 133.993 36.2781 133.907 35.8305 133.736C35.3828 133.561 34.9935 133.304 34.6626 132.967C34.3317 132.626 34.0713 132.206 33.8815 131.708C33.6918 131.205 33.5969 130.624 33.5969 129.965C33.5969 129.452 33.6796 128.971 33.845 128.522C34.0105 128.068 34.2465 127.675 34.5531 127.343C34.8645 127.006 35.2416 126.74 35.6845 126.545C36.1322 126.349 36.6358 126.252 37.1954 126.252C37.6674 126.252 38.103 126.327 38.502 126.479C38.901 126.63 39.2441 126.852 39.5312 127.145C39.8183 127.433 40.0421 127.79 40.2027 128.214C40.3682 128.634 40.4509 129.115 40.4509 129.657C40.4509 129.931 40.4217 130.116 40.3633 130.214C40.3049 130.306 40.193 130.353 40.0275 130.353H35.3925Z" fill="#213E88"/>
<path d="M45.7747 128.288C45.5703 128.039 45.3465 127.863 45.1032 127.76C44.8647 127.658 44.6068 127.607 44.3295 127.607C44.057 127.607 43.8112 127.658 43.5922 127.76C43.3733 127.863 43.1859 128.019 43.0302 128.229C42.8745 128.434 42.7552 128.698 42.6725 129.02C42.5898 129.337 42.5484 129.713 42.5484 130.148C42.5484 130.587 42.5825 130.961 42.6506 131.268C42.7236 131.571 42.8258 131.82 42.9572 132.015C43.0886 132.206 43.2492 132.345 43.4389 132.433C43.6287 132.516 43.8404 132.557 44.074 132.557C44.4487 132.557 44.7674 132.479 45.0302 132.323C45.293 132.167 45.5411 131.945 45.7747 131.656V128.288ZM47.5776 123V133.883H46.4755C46.237 133.883 46.0862 133.773 46.0229 133.553L45.8696 132.828C45.5679 133.175 45.22 133.456 44.8258 133.67C44.4365 133.885 43.9815 133.993 43.4608 133.993C43.0521 133.993 42.6774 133.907 42.3367 133.736C41.9961 133.565 41.7017 133.319 41.4535 132.997C41.2102 132.67 41.0204 132.267 40.8842 131.788C40.7528 131.31 40.6871 130.763 40.6871 130.148C40.6871 129.591 40.7625 129.074 40.9134 128.595C41.0642 128.117 41.2808 127.702 41.563 127.35C41.8453 126.999 42.1835 126.725 42.5776 126.53C42.9718 126.33 43.4146 126.23 43.9061 126.23C44.3246 126.23 44.6823 126.296 44.9791 126.427C45.2759 126.559 45.5411 126.737 45.7747 126.962V123H47.5776Z" fill="#213E88"/>
<path d="M53.4519 129.262C53.4519 129.027 53.4178 128.808 53.3497 128.603C53.2864 128.393 53.1891 128.209 53.0577 128.053C52.9263 127.897 52.7584 127.775 52.5541 127.687C52.3545 127.594 52.121 127.548 51.8533 127.548C51.3326 127.548 50.9214 127.697 50.6197 127.995C50.3229 128.292 50.1331 128.715 50.0504 129.262H53.4519ZM50.0139 130.353C50.0431 130.739 50.1112 131.073 50.2183 131.356C50.3253 131.634 50.4665 131.866 50.6416 132.052C50.8168 132.233 51.0236 132.369 51.2621 132.462C51.5054 132.55 51.773 132.594 52.065 132.594C52.357 132.594 52.6076 132.56 52.8168 132.491C53.0309 132.423 53.2159 132.347 53.3716 132.264C53.5322 132.181 53.6708 132.106 53.7876 132.037C53.9093 131.969 54.0261 131.935 54.138 131.935C54.2889 131.935 54.4008 131.991 54.4738 132.103L54.992 132.762C54.7925 132.997 54.5687 133.194 54.3205 133.356C54.0723 133.512 53.812 133.639 53.5395 133.736C53.2718 133.829 52.9969 133.895 52.7146 133.934C52.4373 133.973 52.1672 133.993 51.9044 133.993C51.3837 133.993 50.8995 133.907 50.4519 133.736C50.0042 133.561 49.6149 133.304 49.284 132.967C48.9531 132.626 48.6927 132.206 48.5029 131.708C48.3132 131.205 48.2183 130.624 48.2183 129.965C48.2183 129.452 48.301 128.971 48.4664 128.522C48.6319 128.068 48.8679 127.675 49.1745 127.343C49.4859 127.006 49.863 126.74 50.3059 126.545C50.7536 126.349 51.2572 126.252 51.8168 126.252C52.2888 126.252 52.7244 126.327 53.1234 126.479C53.5224 126.63 53.8655 126.852 54.1526 127.145C54.4397 127.433 54.6636 127.79 54.8241 128.214C54.9896 128.634 55.0723 129.115 55.0723 129.657C55.0723 129.931 55.0431 130.116 54.9847 130.214C54.9263 130.306 54.8144 130.353 54.649 130.353H50.0139Z" fill="#213E88"/>
<path d="M57.3961 127.672C57.6297 127.223 57.9071 126.872 58.2282 126.618C58.5494 126.359 58.929 126.23 59.3669 126.23C59.7124 126.23 59.9898 126.305 60.199 126.457L60.0823 127.812C60.0579 127.899 60.0214 127.963 59.9728 128.002C59.929 128.036 59.8681 128.053 59.7903 128.053C59.7173 128.053 59.6078 128.041 59.4618 128.017C59.3207 127.992 59.182 127.98 59.0458 127.98C58.8462 127.98 58.6686 128.009 58.5129 128.068C58.3572 128.126 58.2161 128.212 58.0895 128.324C57.9679 128.432 57.8584 128.563 57.7611 128.72C57.6686 128.876 57.581 129.054 57.4983 129.254V133.883H55.6954V126.369H56.7538C56.9387 126.369 57.0676 126.403 57.1406 126.471C57.2136 126.535 57.2623 126.652 57.2866 126.823L57.3961 127.672Z" fill="#213E88"/>
<path d="M62.2362 123V133.883H60.4333V123H62.2362Z" fill="#213E88"/>
<path d="M67.2588 130.675C66.7382 130.7 66.3002 130.746 65.945 130.814C65.5897 130.878 65.3051 130.961 65.0909 131.063C64.8768 131.166 64.7235 131.285 64.6311 131.422C64.5386 131.559 64.4924 131.708 64.4924 131.869C64.4924 132.186 64.5849 132.413 64.7698 132.55C64.9596 132.687 65.2053 132.755 65.507 132.755C65.8768 132.755 66.1956 132.689 66.4632 132.557C66.7357 132.421 67.0009 132.215 67.2588 131.942V130.675ZM63.1274 127.416C63.9888 126.625 65.0253 126.23 66.2369 126.23C66.6749 126.23 67.0666 126.303 67.4121 126.449C67.7576 126.591 68.0496 126.791 68.288 127.05C68.5265 127.304 68.7065 127.609 68.8282 127.965C68.9547 128.322 69.018 128.712 69.018 129.137V133.883H68.2004C68.0301 133.883 67.8987 133.858 67.8063 133.81C67.7138 133.756 67.6408 133.651 67.5873 133.495L67.4267 132.953C67.2369 133.124 67.052 133.275 66.872 133.407C66.6919 133.534 66.5046 133.641 66.3099 133.729C66.1153 133.817 65.906 133.883 65.6822 133.927C65.4632 133.976 65.2199 134 64.9523 134C64.636 134 64.344 133.959 64.0763 133.876C63.8087 133.788 63.5776 133.658 63.3829 133.487C63.1883 133.316 63.0374 133.104 62.9303 132.85C62.8233 132.596 62.7698 132.301 62.7698 131.964C62.7698 131.774 62.8014 131.586 62.8647 131.4C62.9279 131.21 63.0301 131.029 63.1712 130.858C63.3172 130.687 63.5046 130.526 63.7333 130.375C63.962 130.223 64.2418 130.092 64.5727 129.979C64.9085 129.867 65.2978 129.777 65.7406 129.708C66.1834 129.635 66.6895 129.591 67.2588 129.577V129.137C67.2588 128.634 67.1518 128.263 66.9377 128.024C66.7236 127.78 66.4145 127.658 66.0107 127.658C65.7187 127.658 65.4754 127.692 65.2807 127.76C65.0909 127.829 64.9231 127.907 64.7771 127.995C64.6311 128.078 64.4973 128.153 64.3756 128.222C64.2588 128.29 64.1274 128.324 63.9815 128.324C63.8549 128.324 63.7479 128.292 63.6603 128.229C63.5727 128.161 63.5021 128.083 63.4486 127.995L63.1274 127.416Z" fill="#213E88"/>
<path d="M71.6722 127.292C71.823 127.14 71.9812 127.001 72.1466 126.874C72.3169 126.742 72.4946 126.632 72.6795 126.545C72.8693 126.452 73.0712 126.381 73.2853 126.332C73.4994 126.279 73.733 126.252 73.986 126.252C74.3948 126.252 74.7573 126.322 75.0736 126.464C75.3899 126.601 75.6527 126.796 75.862 127.05C76.0761 127.299 76.2367 127.599 76.3437 127.951C76.4556 128.297 76.5116 128.681 76.5116 129.101V133.883H74.7087V129.101C74.7087 128.642 74.6041 128.288 74.3948 128.039C74.1856 127.785 73.8668 127.658 73.4386 127.658C73.1272 127.658 72.8352 127.729 72.5627 127.87C72.2902 128.012 72.0323 128.205 71.789 128.449V133.883H69.986V126.369H71.0882C71.3218 126.369 71.4751 126.479 71.5481 126.698L71.6722 127.292Z" fill="#213E88"/>
<path d="M82.1971 128.288C81.9927 128.039 81.7688 127.863 81.5255 127.76C81.2871 127.658 81.0292 127.607 80.7518 127.607C80.4793 127.607 80.2336 127.658 80.0146 127.76C79.7956 127.863 79.6083 128.019 79.4525 128.229C79.2968 128.434 79.1776 128.698 79.0949 129.02C79.0121 129.337 78.9708 129.713 78.9708 130.148C78.9708 130.587 79.0048 130.961 79.073 131.268C79.146 131.571 79.2482 131.82 79.3795 132.015C79.5109 132.206 79.6715 132.345 79.8613 132.433C80.0511 132.516 80.2628 132.557 80.4963 132.557C80.871 132.557 81.1898 132.479 81.4525 132.323C81.7153 132.167 81.9635 131.945 82.1971 131.656V128.288ZM84 123V133.883H82.8978C82.6594 133.883 82.5085 133.773 82.4452 133.553L82.292 132.828C81.9903 133.175 81.6423 133.456 81.2482 133.67C80.8589 133.885 80.4039 133.993 79.8832 133.993C79.4744 133.993 79.0997 133.907 78.7591 133.736C78.4185 133.565 78.1241 133.319 77.8759 132.997C77.6326 132.67 77.4428 132.267 77.3065 131.788C77.1752 131.31 77.1095 130.763 77.1095 130.148C77.1095 129.591 77.1849 129.074 77.3357 128.595C77.4866 128.117 77.7031 127.702 77.9854 127.35C78.2676 126.999 78.6058 126.725 79 126.53C79.3941 126.33 79.837 126.23 80.3285 126.23C80.7469 126.23 81.1046 126.296 81.4015 126.427C81.6983 126.559 81.9635 126.737 82.1971 126.962V123H84Z" fill="#213E88"/>
<path d="M199.965 131.981C200.331 131.981 200.639 131.939 200.888 131.854C201.138 131.77 201.335 131.657 201.482 131.517C201.633 131.376 201.741 131.212 201.804 131.024C201.873 130.836 201.907 130.637 201.907 130.426C201.907 130.205 201.87 130.008 201.797 129.834C201.724 129.656 201.609 129.506 201.453 129.384C201.296 129.257 201.094 129.161 200.844 129.095C200.6 129.03 200.304 128.997 199.958 128.997H197.971V131.981H199.965ZM197.971 124.746V127.688H199.54C200.214 127.688 200.722 127.57 201.064 127.336C201.411 127.101 201.585 126.728 201.585 126.217C201.585 125.686 201.428 125.309 201.116 125.083C200.803 124.858 200.314 124.746 199.65 124.746H197.971ZM199.65 123.282C200.344 123.282 200.937 123.345 201.431 123.472C201.924 123.598 202.327 123.779 202.64 124.014C202.958 124.248 203.19 124.532 203.336 124.865C203.483 125.198 203.556 125.574 203.556 125.991C203.556 126.231 203.519 126.461 203.446 126.681C203.373 126.897 203.258 127.101 203.102 127.293C202.95 127.481 202.755 127.652 202.515 127.807C202.281 127.962 202 128.093 201.673 128.201C203.129 128.516 203.857 129.271 203.857 130.468C203.857 130.899 203.771 131.298 203.6 131.664C203.429 132.03 203.18 132.347 202.852 132.615C202.525 132.877 202.122 133.084 201.643 133.234C201.164 133.384 200.617 133.459 200.002 133.459H196V123.282H199.65Z" fill="#213E88"/>
<path d="M209.373 129.018C209.373 128.793 209.339 128.581 209.271 128.384C209.207 128.183 209.109 128.007 208.977 127.857C208.846 127.706 208.677 127.589 208.472 127.505C208.271 127.415 208.037 127.371 207.768 127.371C207.245 127.371 206.833 127.514 206.53 127.8C206.232 128.086 206.041 128.492 205.958 129.018H209.373ZM205.921 130.067C205.951 130.437 206.019 130.759 206.127 131.031C206.234 131.298 206.376 131.521 206.552 131.7C206.728 131.873 206.935 132.005 207.175 132.094C207.419 132.178 207.688 132.22 207.981 132.22C208.274 132.22 208.526 132.188 208.736 132.122C208.951 132.056 209.136 131.983 209.293 131.904C209.454 131.824 209.593 131.751 209.71 131.685C209.832 131.62 209.95 131.587 210.062 131.587C210.214 131.587 210.326 131.641 210.399 131.749L210.92 132.382C210.719 132.607 210.495 132.798 210.245 132.952C209.996 133.103 209.735 133.225 209.461 133.318C209.192 133.408 208.916 133.471 208.633 133.508C208.355 133.546 208.083 133.565 207.82 133.565C207.297 133.565 206.811 133.483 206.361 133.318C205.912 133.149 205.521 132.903 205.188 132.579C204.856 132.251 204.595 131.847 204.404 131.369C204.214 130.885 204.118 130.327 204.118 129.694C204.118 129.201 204.201 128.739 204.368 128.307C204.534 127.871 204.771 127.493 205.079 127.174C205.391 126.85 205.77 126.594 206.214 126.407C206.664 126.219 207.17 126.125 207.732 126.125C208.205 126.125 208.643 126.198 209.043 126.343C209.444 126.489 209.789 126.702 210.077 126.984C210.365 127.261 210.59 127.603 210.751 128.011C210.917 128.415 211 128.877 211 129.398C211 129.661 210.971 129.839 210.912 129.933C210.854 130.022 210.741 130.067 210.575 130.067H205.921Z" fill="#213E88"/>
<path d="M213.458 123V133.459H211.648V123H213.458Z" fill="#213E88"/>
<path d="M217.277 129.672C217.502 129.672 217.697 129.644 217.863 129.588C218.029 129.527 218.166 129.445 218.274 129.342C218.386 129.238 218.469 129.114 218.523 128.969C218.582 128.823 218.611 128.664 218.611 128.49C218.611 128.133 218.499 127.852 218.274 127.645C218.054 127.434 217.722 127.329 217.277 127.329C216.832 127.329 216.498 127.434 216.273 127.645C216.053 127.852 215.943 128.133 215.943 128.49C215.943 128.659 215.97 128.816 216.024 128.962C216.082 129.107 216.166 129.234 216.273 129.342C216.385 129.445 216.525 129.527 216.691 129.588C216.862 129.644 217.057 129.672 217.277 129.672ZM219.322 133.783C219.322 133.642 219.278 133.527 219.19 133.438C219.102 133.349 218.982 133.281 218.831 133.234C218.679 133.182 218.501 133.145 218.296 133.121C218.095 133.098 217.88 133.081 217.651 133.072C217.426 133.058 217.192 133.046 216.947 133.037C216.708 133.027 216.473 133.009 216.244 132.981C216.043 133.088 215.88 133.215 215.753 133.361C215.631 133.506 215.569 133.675 215.569 133.867C215.569 133.994 215.601 134.111 215.665 134.219C215.733 134.332 215.838 134.428 215.98 134.508C216.126 134.588 216.315 134.649 216.544 134.691C216.774 134.738 217.055 134.761 217.387 134.761C217.724 134.761 218.015 134.735 218.259 134.684C218.503 134.637 218.704 134.569 218.86 134.48C219.021 134.395 219.139 134.292 219.212 134.17C219.285 134.053 219.322 133.924 219.322 133.783ZM221.125 126.484V127.132C221.125 127.338 220.995 127.465 220.736 127.512L220.062 127.631C220.165 127.88 220.216 128.152 220.216 128.448C220.216 128.804 220.14 129.128 219.989 129.419C219.842 129.705 219.637 129.949 219.373 130.151C219.109 130.353 218.797 130.51 218.435 130.623C218.078 130.731 217.692 130.785 217.277 130.785C217.13 130.785 216.989 130.777 216.852 130.763C216.715 130.749 216.581 130.731 216.449 130.707C216.214 130.843 216.097 130.996 216.097 131.165C216.097 131.31 216.166 131.418 216.302 131.488C216.444 131.554 216.63 131.601 216.859 131.629C217.089 131.657 217.35 131.676 217.643 131.685C217.937 131.69 218.237 131.704 218.545 131.728C218.853 131.751 219.153 131.793 219.446 131.854C219.74 131.911 220.001 132.002 220.231 132.129C220.46 132.256 220.643 132.429 220.78 132.65C220.922 132.866 220.993 133.145 220.993 133.487C220.993 133.806 220.91 134.116 220.744 134.416C220.582 134.717 220.345 134.984 220.033 135.219C219.725 135.453 219.344 135.641 218.889 135.782C218.44 135.927 217.927 136 217.35 136C216.784 136 216.29 135.946 215.87 135.838C215.45 135.735 215.1 135.594 214.822 135.416C214.543 135.242 214.336 135.04 214.199 134.811C214.062 134.581 213.994 134.341 213.994 134.093C213.994 133.755 214.099 133.473 214.309 133.248C214.524 133.018 214.817 132.835 215.188 132.699C214.988 132.6 214.829 132.469 214.712 132.305C214.595 132.141 214.536 131.925 214.536 131.657C214.536 131.549 214.556 131.439 214.595 131.326C214.639 131.209 214.7 131.094 214.778 130.982C214.861 130.869 214.964 130.763 215.086 130.665C215.208 130.562 215.352 130.47 215.518 130.39C215.137 130.193 214.837 129.931 214.617 129.602C214.402 129.274 214.294 128.889 214.294 128.448C214.294 128.091 214.367 127.77 214.514 127.483C214.666 127.193 214.873 126.946 215.137 126.744C215.406 126.538 215.721 126.381 216.082 126.273C216.449 126.165 216.847 126.111 217.277 126.111C217.6 126.111 217.902 126.144 218.186 126.21C218.469 126.271 218.728 126.362 218.963 126.484H221.125Z" fill="#213E88"/>
<path d="M223.416 126.238V133.459H221.598V126.238H223.416ZM223.665 124.133C223.665 124.283 223.633 124.424 223.57 124.555C223.506 124.687 223.421 124.802 223.313 124.9C223.211 124.999 223.089 125.079 222.947 125.14C222.805 125.196 222.654 125.224 222.493 125.224C222.336 125.224 222.187 125.196 222.046 125.14C221.909 125.079 221.789 124.999 221.686 124.9C221.584 124.802 221.501 124.687 221.437 124.555C221.379 124.424 221.349 124.283 221.349 124.133C221.349 123.978 221.379 123.833 221.437 123.697C221.501 123.561 221.584 123.443 221.686 123.345C221.789 123.246 221.909 123.169 222.046 123.113C222.187 123.052 222.336 123.021 222.493 123.021C222.654 123.021 222.805 123.052 222.947 123.113C223.089 123.169 223.211 123.246 223.313 123.345C223.421 123.443 223.506 123.561 223.57 123.697C223.633 123.833 223.665 123.978 223.665 124.133Z" fill="#213E88"/>
<path d="M229.373 129.018C229.373 128.793 229.339 128.581 229.27 128.384C229.207 128.183 229.109 128.007 228.977 127.857C228.845 127.706 228.677 127.589 228.472 127.505C228.271 127.415 228.037 127.371 227.768 127.371C227.245 127.371 226.832 127.514 226.529 127.8C226.231 128.086 226.041 128.492 225.958 129.018H229.373ZM225.921 130.067C225.95 130.437 226.019 130.759 226.126 131.031C226.234 131.298 226.375 131.521 226.551 131.7C226.727 131.873 226.935 132.005 227.174 132.094C227.419 132.178 227.687 132.22 227.981 132.22C228.274 132.22 228.525 132.188 228.735 132.122C228.95 132.056 229.136 131.983 229.292 131.904C229.454 131.824 229.593 131.751 229.71 131.685C229.832 131.62 229.95 131.587 230.062 131.587C230.213 131.587 230.326 131.641 230.399 131.749L230.919 132.382C230.719 132.607 230.494 132.798 230.245 132.952C229.996 133.103 229.735 133.225 229.461 133.318C229.192 133.408 228.916 133.471 228.633 133.508C228.354 133.546 228.083 133.565 227.819 133.565C227.296 133.565 226.81 133.483 226.361 133.318C225.911 133.149 225.52 132.903 225.188 132.579C224.856 132.251 224.595 131.847 224.404 131.369C224.213 130.885 224.118 130.327 224.118 129.694C224.118 129.201 224.201 128.739 224.367 128.307C224.534 127.871 224.77 127.493 225.078 127.174C225.391 126.85 225.77 126.594 226.214 126.407C226.664 126.219 227.169 126.125 227.731 126.125C228.205 126.125 228.643 126.198 229.043 126.343C229.444 126.489 229.788 126.702 230.077 126.984C230.365 127.261 230.59 127.603 230.751 128.011C230.917 128.415 231 128.877 231 129.398C231 129.661 230.971 129.839 230.912 129.933C230.853 130.022 230.741 130.067 230.575 130.067H225.921ZM227.306 124.365C227.306 124.497 227.279 124.621 227.226 124.738C227.172 124.851 227.096 124.95 226.998 125.034C226.906 125.119 226.796 125.187 226.669 125.238C226.546 125.285 226.415 125.309 226.273 125.309C226.141 125.309 226.014 125.285 225.892 125.238C225.775 125.187 225.669 125.119 225.577 125.034C225.489 124.95 225.418 124.851 225.364 124.738C225.31 124.621 225.283 124.497 225.283 124.365C225.283 124.229 225.31 124.103 225.364 123.985C225.418 123.863 225.489 123.758 225.577 123.669C225.669 123.579 225.775 123.509 225.892 123.457C226.014 123.406 226.141 123.38 226.273 123.38C226.415 123.38 226.546 123.406 226.669 123.457C226.796 123.509 226.906 123.579 226.998 123.669C227.096 123.758 227.172 123.863 227.226 123.985C227.279 124.103 227.306 124.229 227.306 124.365ZM230.267 124.365C230.267 124.497 230.24 124.621 230.186 124.738C230.133 124.851 230.059 124.95 229.967 125.034C229.879 125.119 229.771 125.187 229.644 125.238C229.522 125.285 229.39 125.309 229.248 125.309C229.112 125.309 228.982 125.285 228.86 125.238C228.738 125.187 228.63 125.119 228.538 125.034C228.45 124.95 228.379 124.851 228.325 124.738C228.271 124.621 228.244 124.497 228.244 124.365C228.244 124.229 228.271 124.103 228.325 123.985C228.379 123.863 228.45 123.758 228.538 123.669C228.63 123.579 228.738 123.509 228.86 123.457C228.982 123.406 229.112 123.38 229.248 123.38C229.39 123.38 229.522 123.406 229.644 123.457C229.771 123.509 229.879 123.579 229.967 123.669C230.059 123.758 230.133 123.863 230.186 123.985C230.24 124.103 230.267 124.229 230.267 124.365Z" fill="#213E88"/>
</svg>
