<svg width="312" height="286" viewBox="0 0 312 286" fill="none" xmlns="http://www.w3.org/2000/svg">
<path d="M79 24L115 24L115 235H79L79 24Z" fill="#90cdf4"/>
<path d="M142 59L178 59L178 235H142L142 59Z" fill="#90cdf4"/>
<path d="M205 134H241V235H205L205 134Z" fill="#90cdf4"/>
<path d="M268 186H304V235H268V186Z" fill="#90cdf4"/>
<path d="M147.471 277.925V282.02C146.958 282.398 146.409 282.676 145.826 282.853C145.247 283.026 144.627 283.112 143.964 283.112C143.138 283.112 142.389 282.984 141.717 282.727C141.05 282.47 140.478 282.113 140.002 281.656C139.531 281.199 139.167 280.653 138.91 280.018C138.653 279.383 138.525 278.69 138.525 277.939C138.525 277.178 138.649 276.481 138.896 275.846C139.143 275.211 139.493 274.665 139.946 274.208C140.403 273.751 140.956 273.396 141.605 273.144C142.254 272.892 142.982 272.766 143.789 272.766C144.2 272.766 144.582 272.799 144.937 272.864C145.296 272.929 145.628 273.02 145.931 273.137C146.239 273.249 146.519 273.387 146.771 273.55C147.023 273.713 147.254 273.893 147.464 274.089L146.925 274.943C146.841 275.078 146.731 275.162 146.596 275.195C146.461 275.223 146.314 275.188 146.155 275.09C146.001 275.001 145.847 274.913 145.693 274.824C145.539 274.735 145.366 274.658 145.175 274.593C144.988 274.528 144.776 274.474 144.538 274.432C144.305 274.39 144.034 274.369 143.726 274.369C143.227 274.369 142.774 274.453 142.368 274.621C141.967 274.789 141.624 275.029 141.339 275.342C141.054 275.655 140.835 276.03 140.681 276.469C140.527 276.908 140.45 277.398 140.45 277.939C140.45 278.518 140.532 279.036 140.695 279.493C140.863 279.946 141.096 280.331 141.395 280.648C141.698 280.961 142.062 281.201 142.487 281.369C142.912 281.532 143.385 281.614 143.908 281.614C144.281 281.614 144.615 281.574 144.909 281.495C145.203 281.416 145.49 281.308 145.77 281.173V279.339H144.496C144.375 279.339 144.279 279.306 144.209 279.241C144.144 279.171 144.111 279.087 144.111 278.989V277.925H147.471Z" fill="#213E88"/>
<path d="M152.857 278.583C152.857 278.359 152.825 278.149 152.759 277.953C152.699 277.752 152.605 277.577 152.479 277.428C152.353 277.279 152.192 277.162 151.996 277.078C151.805 276.989 151.581 276.945 151.324 276.945C150.825 276.945 150.431 277.087 150.141 277.372C149.857 277.657 149.675 278.06 149.595 278.583H152.857ZM149.56 279.626C149.588 279.995 149.654 280.314 149.756 280.585C149.859 280.851 149.994 281.073 150.162 281.25C150.33 281.423 150.529 281.553 150.757 281.642C150.991 281.726 151.247 281.768 151.527 281.768C151.807 281.768 152.048 281.735 152.248 281.67C152.454 281.605 152.631 281.532 152.78 281.453C152.934 281.374 153.067 281.301 153.179 281.236C153.296 281.171 153.408 281.138 153.515 281.138C153.66 281.138 153.767 281.192 153.837 281.299L154.334 281.929C154.143 282.153 153.928 282.342 153.69 282.496C153.452 282.645 153.203 282.767 152.941 282.86C152.685 282.949 152.421 283.012 152.15 283.049C151.884 283.086 151.625 283.105 151.373 283.105C150.874 283.105 150.41 283.023 149.98 282.86C149.551 282.692 149.178 282.447 148.86 282.125C148.543 281.798 148.293 281.397 148.111 280.921C147.929 280.44 147.838 279.885 147.838 279.255C147.838 278.765 147.918 278.305 148.076 277.876C148.235 277.442 148.461 277.066 148.755 276.749C149.054 276.427 149.416 276.173 149.84 275.986C150.27 275.799 150.753 275.706 151.289 275.706C151.742 275.706 152.16 275.778 152.542 275.923C152.925 276.068 153.254 276.28 153.529 276.56C153.805 276.835 154.019 277.176 154.173 277.582C154.332 277.983 154.411 278.443 154.411 278.961C154.411 279.222 154.383 279.4 154.327 279.493C154.271 279.582 154.164 279.626 154.005 279.626H149.56Z" fill="#213E88"/>
<path d="M155.009 283V275.818H156.066C156.29 275.818 156.437 275.923 156.507 276.133L156.619 276.665C156.745 276.525 156.875 276.397 157.011 276.28C157.151 276.163 157.298 276.063 157.452 275.979C157.61 275.895 157.778 275.83 157.956 275.783C158.138 275.732 158.336 275.706 158.551 275.706C159.003 275.706 159.374 275.83 159.664 276.077C159.958 276.32 160.177 276.644 160.322 277.05C160.434 276.812 160.574 276.609 160.742 276.441C160.91 276.268 161.094 276.128 161.295 276.021C161.495 275.914 161.708 275.834 161.932 275.783C162.16 275.732 162.389 275.706 162.618 275.706C163.014 275.706 163.367 275.767 163.675 275.888C163.983 276.009 164.242 276.187 164.452 276.42C164.662 276.653 164.82 276.938 164.928 277.274C165.04 277.61 165.096 277.995 165.096 278.429V283H163.367V278.429C163.367 277.972 163.266 277.629 163.066 277.4C162.865 277.167 162.571 277.05 162.184 277.05C162.006 277.05 161.841 277.08 161.687 277.141C161.537 277.202 161.404 277.29 161.288 277.407C161.176 277.519 161.087 277.661 161.022 277.834C160.956 278.007 160.924 278.205 160.924 278.429V283H159.188V278.429C159.188 277.948 159.09 277.598 158.894 277.379C158.702 277.16 158.42 277.05 158.047 277.05C157.795 277.05 157.559 277.113 157.34 277.239C157.125 277.36 156.924 277.528 156.738 277.743V283H155.009Z" fill="#213E88"/>
<path d="M167.831 275.818V283H166.095V275.818H167.831ZM168.069 273.725C168.069 273.874 168.039 274.014 167.978 274.145C167.918 274.276 167.836 274.39 167.733 274.488C167.635 274.586 167.519 274.665 167.383 274.726C167.248 274.782 167.103 274.81 166.949 274.81C166.8 274.81 166.658 274.782 166.522 274.726C166.392 274.665 166.277 274.586 166.179 274.488C166.081 274.39 166.002 274.276 165.941 274.145C165.885 274.014 165.857 273.874 165.857 273.725C165.857 273.571 165.885 273.426 165.941 273.291C166.002 273.156 166.081 273.039 166.179 272.941C166.277 272.843 166.392 272.766 166.522 272.71C166.658 272.649 166.8 272.619 166.949 272.619C167.103 272.619 167.248 272.649 167.383 272.71C167.519 272.766 167.635 272.843 167.733 272.941C167.836 273.039 167.918 273.156 167.978 273.291C168.039 273.426 168.069 273.571 168.069 273.725Z" fill="#213E88"/>
<path d="M173.402 277.652C173.206 277.414 172.991 277.246 172.758 277.148C172.529 277.05 172.282 277.001 172.016 277.001C171.755 277.001 171.519 277.05 171.309 277.148C171.099 277.246 170.919 277.395 170.77 277.596C170.621 277.792 170.506 278.044 170.427 278.352C170.348 278.655 170.308 279.015 170.308 279.43C170.308 279.85 170.341 280.207 170.406 280.501C170.476 280.79 170.574 281.028 170.7 281.215C170.826 281.397 170.98 281.53 171.162 281.614C171.344 281.693 171.547 281.733 171.771 281.733C172.13 281.733 172.436 281.658 172.688 281.509C172.94 281.36 173.178 281.147 173.402 280.872V277.652ZM175.131 272.598V283H174.074C173.845 283 173.701 282.895 173.64 282.685L173.493 281.992C173.204 282.323 172.87 282.592 172.492 282.797C172.119 283.002 171.682 283.105 171.183 283.105C170.791 283.105 170.432 283.023 170.105 282.86C169.778 282.697 169.496 282.461 169.258 282.153C169.025 281.84 168.843 281.455 168.712 280.998C168.586 280.541 168.523 280.018 168.523 279.43C168.523 278.898 168.595 278.403 168.74 277.946C168.885 277.489 169.092 277.092 169.363 276.756C169.634 276.42 169.958 276.159 170.336 275.972C170.714 275.781 171.139 275.685 171.61 275.685C172.011 275.685 172.354 275.748 172.639 275.874C172.924 276 173.178 276.17 173.402 276.385V272.598H175.131Z" fill="#213E88"/>
<path d="M180.645 277.652C180.449 277.414 180.235 277.246 180.001 277.148C179.773 277.05 179.525 277.001 179.259 277.001C178.998 277.001 178.762 277.05 178.552 277.148C178.342 277.246 178.163 277.395 178.013 277.596C177.864 277.792 177.75 278.044 177.67 278.352C177.591 278.655 177.551 279.015 177.551 279.43C177.551 279.85 177.584 280.207 177.649 280.501C177.719 280.79 177.817 281.028 177.943 281.215C178.069 281.397 178.223 281.53 178.405 281.614C178.587 281.693 178.79 281.733 179.014 281.733C179.374 281.733 179.679 281.658 179.931 281.509C180.183 281.36 180.421 281.147 180.645 280.872V277.652ZM182.374 272.598V283H181.317C181.089 283 180.944 282.895 180.883 282.685L180.736 281.992C180.447 282.323 180.113 282.592 179.735 282.797C179.362 283.002 178.926 283.105 178.426 283.105C178.034 283.105 177.675 283.023 177.348 282.86C177.022 282.697 176.739 282.461 176.501 282.153C176.268 281.84 176.086 281.455 175.955 280.998C175.829 280.541 175.766 280.018 175.766 279.43C175.766 278.898 175.839 278.403 175.983 277.946C176.128 277.489 176.336 277.092 176.606 276.756C176.877 276.42 177.201 276.159 177.579 275.972C177.957 275.781 178.382 275.685 178.853 275.685C179.255 275.685 179.598 275.748 179.882 275.874C180.167 276 180.421 276.17 180.645 276.385V272.598H182.374Z" fill="#213E88"/>
<path d="M188.008 278.583C188.008 278.359 187.975 278.149 187.91 277.953C187.849 277.752 187.756 277.577 187.63 277.428C187.504 277.279 187.343 277.162 187.147 277.078C186.955 276.989 186.731 276.945 186.475 276.945C185.975 276.945 185.581 277.087 185.292 277.372C185.007 277.657 184.825 278.06 184.746 278.583H188.008ZM184.711 279.626C184.739 279.995 184.804 280.314 184.907 280.585C185.009 280.851 185.145 281.073 185.313 281.25C185.481 281.423 185.679 281.553 185.908 281.642C186.141 281.726 186.398 281.768 186.678 281.768C186.958 281.768 187.198 281.735 187.399 281.67C187.604 281.605 187.781 281.532 187.931 281.453C188.085 281.374 188.218 281.301 188.33 281.236C188.446 281.171 188.558 281.138 188.666 281.138C188.81 281.138 188.918 281.192 188.988 281.299L189.485 281.929C189.293 282.153 189.079 282.342 188.841 282.496C188.603 282.645 188.353 282.767 188.092 282.86C187.835 282.949 187.571 283.012 187.301 283.049C187.035 283.086 186.776 283.105 186.524 283.105C186.024 283.105 185.56 283.023 185.131 282.86C184.701 282.692 184.328 282.447 184.011 282.125C183.693 281.798 183.444 281.397 183.262 280.921C183.08 280.44 182.989 279.885 182.989 279.255C182.989 278.765 183.068 278.305 183.227 277.876C183.385 277.442 183.612 277.066 183.906 276.749C184.204 276.427 184.566 276.173 184.991 275.986C185.42 275.799 185.903 275.706 186.44 275.706C186.892 275.706 187.31 275.778 187.693 275.923C188.075 276.068 188.404 276.28 188.68 276.56C188.955 276.835 189.17 277.176 189.324 277.582C189.482 277.983 189.562 278.443 189.562 278.961C189.562 279.222 189.534 279.4 189.478 279.493C189.422 279.582 189.314 279.626 189.156 279.626H184.711Z" fill="#213E88"/>
<path d="M191.909 272.598V283H190.18V272.598H191.909Z" fill="#213E88"/>
<path d="M197.44 277.652C197.244 277.414 197.029 277.246 196.796 277.148C196.567 277.05 196.32 277.001 196.054 277.001C195.792 277.001 195.557 277.05 195.347 277.148C195.137 277.246 194.957 277.395 194.808 277.596C194.658 277.792 194.544 278.044 194.465 278.352C194.385 278.655 194.346 279.015 194.346 279.43C194.346 279.85 194.378 280.207 194.444 280.501C194.514 280.79 194.612 281.028 194.738 281.215C194.864 281.397 195.018 281.53 195.2 281.614C195.382 281.693 195.585 281.733 195.809 281.733C196.168 281.733 196.474 281.658 196.726 281.509C196.978 281.36 197.216 281.147 197.44 280.872V277.652ZM199.169 272.598V283H198.112C197.883 283 197.738 282.895 197.678 282.685L197.531 281.992C197.241 282.323 196.908 282.592 196.53 282.797C196.156 283.002 195.72 283.105 195.221 283.105C194.829 283.105 194.469 283.023 194.143 282.86C193.816 282.697 193.534 282.461 193.296 282.153C193.062 281.84 192.88 281.455 192.75 280.998C192.624 280.541 192.561 280.018 192.561 279.43C192.561 278.898 192.633 278.403 192.778 277.946C192.922 277.489 193.13 277.092 193.401 276.756C193.671 276.42 193.996 276.159 194.374 275.972C194.752 275.781 195.176 275.685 195.648 275.685C196.049 275.685 196.392 275.748 196.677 275.874C196.961 276 197.216 276.17 197.44 276.385V272.598H199.169Z" fill="#213E88"/>
<path d="M204.802 278.583C204.802 278.359 204.769 278.149 204.704 277.953C204.643 277.752 204.55 277.577 204.424 277.428C204.298 277.279 204.137 277.162 203.941 277.078C203.75 276.989 203.526 276.945 203.269 276.945C202.77 276.945 202.375 277.087 202.086 277.372C201.801 277.657 201.619 278.06 201.54 278.583H204.802ZM201.505 279.626C201.533 279.995 201.598 280.314 201.701 280.585C201.804 280.851 201.939 281.073 202.107 281.25C202.275 281.423 202.473 281.553 202.702 281.642C202.935 281.726 203.192 281.768 203.472 281.768C203.752 281.768 203.992 281.735 204.193 281.67C204.398 281.605 204.576 281.532 204.725 281.453C204.879 281.374 205.012 281.301 205.124 281.236C205.241 281.171 205.353 281.138 205.46 281.138C205.605 281.138 205.712 281.192 205.782 281.299L206.279 281.929C206.088 282.153 205.873 282.342 205.635 282.496C205.397 282.645 205.147 282.767 204.886 282.86C204.629 282.949 204.366 283.012 204.095 283.049C203.829 283.086 203.57 283.105 203.318 283.105C202.819 283.105 202.354 283.023 201.925 282.86C201.496 282.692 201.122 282.447 200.805 282.125C200.488 281.798 200.238 281.397 200.056 280.921C199.874 280.44 199.783 279.885 199.783 279.255C199.783 278.765 199.862 278.305 200.021 277.876C200.18 277.442 200.406 277.066 200.7 276.749C200.999 276.427 201.36 276.173 201.785 275.986C202.214 275.799 202.697 275.706 203.234 275.706C203.687 275.706 204.104 275.778 204.487 275.923C204.87 276.068 205.199 276.28 205.474 276.56C205.749 276.835 205.964 277.176 206.118 277.582C206.277 277.983 206.356 278.443 206.356 278.961C206.356 279.222 206.328 279.4 206.272 279.493C206.216 279.582 206.109 279.626 205.95 279.626H201.505Z" fill="#213E88"/>
<path d="M214.04 277.218C213.993 277.293 213.944 277.346 213.893 277.379C213.842 277.407 213.776 277.421 213.697 277.421C213.613 277.421 213.522 277.398 213.424 277.351C213.331 277.304 213.221 277.253 213.095 277.197C212.969 277.136 212.824 277.083 212.661 277.036C212.502 276.989 212.313 276.966 212.094 276.966C211.753 276.966 211.485 277.038 211.289 277.183C211.098 277.328 211.002 277.517 211.002 277.75C211.002 277.904 211.051 278.035 211.149 278.142C211.252 278.245 211.385 278.336 211.548 278.415C211.716 278.494 211.905 278.567 212.115 278.632C212.325 278.693 212.537 278.76 212.752 278.835C212.971 278.91 213.186 278.996 213.396 279.094C213.606 279.187 213.793 279.309 213.956 279.458C214.124 279.603 214.257 279.778 214.355 279.983C214.458 280.188 214.509 280.436 214.509 280.725C214.509 281.07 214.446 281.39 214.32 281.684C214.199 281.973 214.017 282.225 213.774 282.44C213.531 282.65 213.23 282.816 212.871 282.937C212.516 283.054 212.106 283.112 211.639 283.112C211.392 283.112 211.149 283.089 210.911 283.042C210.678 283 210.451 282.939 210.232 282.86C210.017 282.781 209.817 282.687 209.63 282.58C209.448 282.473 209.287 282.356 209.147 282.23L209.546 281.572C209.597 281.493 209.658 281.432 209.728 281.39C209.798 281.348 209.887 281.327 209.994 281.327C210.101 281.327 210.202 281.357 210.295 281.418C210.393 281.479 210.505 281.544 210.631 281.614C210.757 281.684 210.904 281.749 211.072 281.81C211.245 281.871 211.462 281.901 211.723 281.901C211.928 281.901 212.103 281.878 212.248 281.831C212.397 281.78 212.519 281.714 212.612 281.635C212.71 281.556 212.78 281.465 212.822 281.362C212.869 281.255 212.892 281.145 212.892 281.033C212.892 280.865 212.841 280.727 212.738 280.62C212.64 280.513 212.507 280.419 212.339 280.34C212.176 280.261 211.987 280.191 211.772 280.13C211.562 280.065 211.345 279.995 211.121 279.92C210.902 279.845 210.685 279.759 210.47 279.661C210.26 279.558 210.071 279.43 209.903 279.276C209.74 279.122 209.607 278.933 209.504 278.709C209.406 278.485 209.357 278.214 209.357 277.897C209.357 277.603 209.415 277.323 209.532 277.057C209.649 276.791 209.819 276.56 210.043 276.364C210.272 276.163 210.554 276.005 210.89 275.888C211.231 275.767 211.623 275.706 212.066 275.706C212.561 275.706 213.011 275.788 213.417 275.951C213.823 276.114 214.161 276.329 214.432 276.595L214.04 277.218Z" fill="#213E88"/>
<path d="M216.86 272.598V283H215.131V272.598H216.86Z" fill="#213E88"/>
<path d="M221.677 279.934C221.178 279.957 220.758 280.002 220.417 280.067C220.076 280.128 219.803 280.207 219.598 280.305C219.393 280.403 219.246 280.517 219.157 280.648C219.068 280.779 219.024 280.921 219.024 281.075C219.024 281.378 219.113 281.595 219.29 281.726C219.472 281.857 219.708 281.922 219.997 281.922C220.352 281.922 220.657 281.859 220.914 281.733C221.175 281.602 221.43 281.406 221.677 281.145V279.934ZM217.715 276.819C218.541 276.063 219.535 275.685 220.697 275.685C221.117 275.685 221.493 275.755 221.824 275.895C222.155 276.03 222.435 276.222 222.664 276.469C222.893 276.712 223.065 277.003 223.182 277.344C223.303 277.685 223.364 278.058 223.364 278.464V283H222.58C222.417 283 222.291 282.977 222.202 282.93C222.113 282.879 222.043 282.778 221.992 282.629L221.838 282.111C221.656 282.274 221.479 282.419 221.306 282.545C221.133 282.666 220.954 282.769 220.767 282.853C220.58 282.937 220.38 283 220.165 283.042C219.955 283.089 219.722 283.112 219.465 283.112C219.162 283.112 218.882 283.072 218.625 282.993C218.368 282.909 218.147 282.785 217.96 282.622C217.773 282.459 217.629 282.256 217.526 282.013C217.423 281.77 217.372 281.488 217.372 281.166C217.372 280.984 217.402 280.804 217.463 280.627C217.524 280.445 217.622 280.272 217.757 280.109C217.897 279.946 218.077 279.792 218.296 279.647C218.515 279.502 218.784 279.376 219.101 279.269C219.423 279.162 219.796 279.075 220.221 279.01C220.646 278.94 221.131 278.898 221.677 278.884V278.464C221.677 277.983 221.574 277.629 221.369 277.4C221.164 277.167 220.867 277.05 220.48 277.05C220.2 277.05 219.967 277.083 219.78 277.148C219.598 277.213 219.437 277.288 219.297 277.372C219.157 277.451 219.029 277.524 218.912 277.589C218.8 277.654 218.674 277.687 218.534 277.687C218.413 277.687 218.31 277.657 218.226 277.596C218.142 277.531 218.074 277.456 218.023 277.372L217.715 276.819Z" fill="#213E88"/>
<path d="M228.086 279.934C227.587 279.957 227.167 280.002 226.826 280.067C226.486 280.128 226.213 280.207 226.007 280.305C225.802 280.403 225.655 280.517 225.566 280.648C225.478 280.779 225.433 280.921 225.433 281.075C225.433 281.378 225.522 281.595 225.699 281.726C225.881 281.857 226.117 281.922 226.406 281.922C226.761 281.922 227.067 281.859 227.323 281.733C227.585 281.602 227.839 281.406 228.086 281.145V279.934ZM224.124 276.819C224.95 276.063 225.944 275.685 227.106 275.685C227.526 275.685 227.902 275.755 228.233 275.895C228.565 276.03 228.845 276.222 229.073 276.469C229.302 276.712 229.475 277.003 229.591 277.344C229.713 277.685 229.773 278.058 229.773 278.464V283H228.989C228.826 283 228.7 282.977 228.611 282.93C228.523 282.879 228.453 282.778 228.401 282.629L228.247 282.111C228.065 282.274 227.888 282.419 227.715 282.545C227.543 282.666 227.363 282.769 227.176 282.853C226.99 282.937 226.789 283 226.574 283.042C226.364 283.089 226.131 283.112 225.874 283.112C225.571 283.112 225.291 283.072 225.034 282.993C224.778 282.909 224.556 282.785 224.369 282.622C224.183 282.459 224.038 282.256 223.935 282.013C223.833 281.77 223.781 281.488 223.781 281.166C223.781 280.984 223.812 280.804 223.872 280.627C223.933 280.445 224.031 280.272 224.166 280.109C224.306 279.946 224.486 279.792 224.705 279.647C224.925 279.502 225.193 279.376 225.51 279.269C225.832 279.162 226.206 279.075 226.63 279.01C227.055 278.94 227.54 278.898 228.086 278.884V278.464C228.086 277.983 227.984 277.629 227.778 277.4C227.573 277.167 227.277 277.05 226.889 277.05C226.609 277.05 226.376 277.083 226.189 277.148C226.007 277.213 225.846 277.288 225.706 277.372C225.566 277.451 225.438 277.524 225.321 277.589C225.209 277.654 225.083 277.687 224.943 277.687C224.822 277.687 224.719 277.657 224.635 277.596C224.551 277.531 224.484 277.456 224.432 277.372L224.124 276.819Z" fill="#213E88"/>
<path d="M232.431 281.138C232.627 281.376 232.839 281.544 233.068 281.642C233.301 281.74 233.553 281.789 233.824 281.789C234.085 281.789 234.321 281.74 234.531 281.642C234.741 281.544 234.918 281.395 235.063 281.194C235.212 280.993 235.326 280.741 235.406 280.438C235.485 280.13 235.525 279.768 235.525 279.353C235.525 278.933 235.49 278.578 235.42 278.289C235.354 277.995 235.259 277.757 235.133 277.575C235.007 277.393 234.853 277.26 234.671 277.176C234.493 277.092 234.29 277.05 234.062 277.05C233.702 277.05 233.397 277.127 233.145 277.281C232.893 277.43 232.655 277.643 232.431 277.918V281.138ZM232.34 276.798C232.634 276.467 232.967 276.198 233.341 275.993C233.714 275.788 234.153 275.685 234.657 275.685C235.049 275.685 235.406 275.767 235.728 275.93C236.054 276.093 236.334 276.331 236.568 276.644C236.806 276.952 236.988 277.335 237.114 277.792C237.244 278.245 237.31 278.765 237.31 279.353C237.31 279.89 237.237 280.387 237.093 280.844C236.948 281.301 236.74 281.698 236.47 282.034C236.204 282.37 235.879 282.634 235.497 282.825C235.119 283.012 234.694 283.105 234.223 283.105C233.821 283.105 233.478 283.044 233.194 282.923C232.909 282.797 232.655 282.624 232.431 282.405V285.345H230.702V275.818H231.759C231.983 275.818 232.13 275.923 232.2 276.133L232.34 276.798Z" fill="#213E88"/>
<path d="M3.32802 170.785C3.71069 170.785 4.05602 170.85 4.36402 170.981C4.67202 171.107 4.93569 171.277 5.15502 171.492C5.36969 171.707 5.53536 171.956 5.65202 172.241C5.76869 172.526 5.82702 172.822 5.82702 173.13C5.82702 173.466 5.76869 173.776 5.65202 174.061C5.53536 174.346 5.36969 174.593 5.15502 174.803C4.93569 175.008 4.67202 175.169 4.36402 175.286C4.05602 175.403 3.71069 175.461 3.32802 175.461C2.93602 175.461 2.58136 175.403 2.26402 175.286C1.94669 175.169 1.67836 175.008 1.45902 174.803C1.23969 174.593 1.07169 174.346 0.955022 174.061C0.833689 173.776 0.773022 173.466 0.773022 173.13C0.773022 172.794 0.833689 172.484 0.955022 172.199C1.07169 171.91 1.23969 171.66 1.45902 171.45C1.67836 171.24 1.94669 171.077 2.26402 170.96C2.58136 170.843 2.93602 170.785 3.32802 170.785ZM3.32802 172.115C3.05736 172.115 2.83102 172.143 2.64902 172.199C2.46702 172.25 2.32002 172.323 2.20802 172.416C2.09602 172.505 2.01669 172.612 1.97002 172.738C1.91869 172.859 1.89302 172.99 1.89302 173.13C1.89302 173.27 1.91869 173.401 1.97002 173.522C2.01669 173.643 2.09602 173.748 2.20802 173.837C2.32002 173.921 2.46702 173.989 2.64902 174.04C2.83102 174.091 3.05736 174.117 3.32802 174.117C3.58936 174.117 3.80869 174.091 3.98602 174.04C4.15869 173.989 4.29869 173.921 4.40602 173.837C4.51336 173.748 4.59036 173.643 4.63702 173.522C4.68369 173.401 4.70702 173.27 4.70702 173.13C4.70702 172.99 4.68369 172.859 4.63702 172.738C4.59036 172.612 4.51336 172.505 4.40602 172.416C4.29869 172.323 4.15869 172.25 3.98602 172.199C3.80869 172.143 3.58936 172.115 3.32802 172.115ZM1.15102 167.418C1.08102 167.357 1.01802 167.287 0.962022 167.208C0.906022 167.124 0.878022 167.007 0.878022 166.858L0.878022 165.598L10.741 173.116C10.8157 173.177 10.8787 173.249 10.93 173.333C10.9767 173.417 11 173.52 11 173.641L11 174.929L1.15102 167.418ZM8.62002 165.066C9.00269 165.066 9.34802 165.131 9.65602 165.262C9.96402 165.388 10.2277 165.558 10.447 165.773C10.6617 165.988 10.8297 166.237 10.951 166.522C11.0677 166.807 11.126 167.103 11.126 167.411C11.126 167.747 11.0677 168.057 10.951 168.342C10.8297 168.627 10.6617 168.874 10.447 169.084C10.2277 169.289 9.96402 169.45 9.65602 169.567C9.34802 169.684 9.00269 169.742 8.62002 169.742C8.22802 169.742 7.87336 169.684 7.55602 169.567C7.23869 169.45 6.97036 169.289 6.75102 169.084C6.53169 168.874 6.36369 168.627 6.24702 168.342C6.12569 168.057 6.06502 167.747 6.06502 167.411C6.06502 167.075 6.12569 166.765 6.24702 166.48C6.36369 166.191 6.53169 165.943 6.75102 165.738C6.97036 165.528 7.23869 165.365 7.55602 165.248C7.87336 165.127 8.22802 165.066 8.62002 165.066ZM8.62002 166.403C8.34936 166.403 8.12302 166.429 7.94102 166.48C7.75902 166.531 7.61202 166.604 7.50002 166.697C7.38802 166.786 7.30869 166.893 7.26202 167.019C7.21069 167.14 7.18502 167.271 7.18502 167.411C7.18502 167.551 7.21069 167.682 7.26202 167.803C7.30869 167.924 7.38802 168.029 7.50002 168.118C7.61202 168.207 7.75902 168.277 7.94102 168.328C8.12302 168.375 8.34936 168.398 8.62002 168.398C8.88136 168.398 9.10069 168.375 9.27802 168.328C9.45536 168.277 9.59769 168.207 9.70502 168.118C9.81236 168.029 9.88936 167.924 9.93602 167.803C9.98269 167.682 10.006 167.551 10.006 167.411C10.006 167.271 9.98269 167.14 9.93602 167.019C9.88936 166.893 9.81236 166.786 9.70502 166.697C9.59769 166.604 9.45536 166.531 9.27802 166.48C9.10069 166.429 8.88136 166.403 8.62002 166.403Z" fill="#213E88"/>
<path d="M0.598022 159.942L6.55502 159.942L6.55502 159.62C6.55502 159.503 6.54102 159.412 6.51302 159.347C6.48036 159.277 6.41736 159.207 6.32402 159.137L4.11902 157.352C4.02102 157.277 3.94636 157.196 3.89502 157.107C3.84369 157.014 3.81802 156.895 3.81802 156.75L3.81802 155.168L6.48502 157.401C6.69502 157.56 6.85602 157.732 6.96802 157.919C7.03802 157.821 7.11969 157.735 7.21302 157.66C7.30636 157.581 7.40669 157.506 7.51402 157.436L11 155.042L11 156.603C11 156.738 10.979 156.855 10.937 156.953C10.8904 157.051 10.8087 157.133 10.692 157.198L7.96902 159.032C7.86169 159.097 7.79169 159.165 7.75902 159.235C7.72636 159.305 7.71002 159.41 7.71002 159.55L7.71002 159.942L11 159.942L11 161.671L0.598022 161.671L0.598022 159.942Z" fill="#213E88"/>
<path d="M7.93402 151.098C7.95736 151.598 8.00169 152.018 8.06702 152.358C8.12769 152.699 8.20702 152.972 8.30502 153.177C8.40302 153.383 8.51736 153.53 8.64802 153.618C8.77869 153.707 8.92102 153.751 9.07502 153.751C9.37836 153.751 9.59536 153.663 9.72602 153.485C9.85669 153.303 9.92202 153.068 9.92202 152.778C9.92202 152.424 9.85902 152.118 9.73302 151.861C9.60235 151.6 9.40635 151.346 9.14502 151.098L7.93402 151.098ZM4.81902 155.06C4.06302 154.234 3.68502 153.24 3.68502 152.078C3.68502 151.658 3.75502 151.283 3.89502 150.951C4.03035 150.62 4.22169 150.34 4.46902 150.111C4.71169 149.883 5.00335 149.71 5.34402 149.593C5.68469 149.472 6.05802 149.411 6.46402 149.411L11 149.411L11 150.195C11 150.359 10.9767 150.485 10.93 150.573C10.8787 150.662 10.7784 150.732 10.629 150.783L10.111 150.937C10.2744 151.119 10.419 151.297 10.545 151.469C10.6664 151.642 10.769 151.822 10.853 152.008C10.937 152.195 11 152.396 11.042 152.61C11.0887 152.82 11.112 153.054 11.112 153.31C11.112 153.614 11.0724 153.894 10.993 154.15C10.909 154.407 10.7854 154.629 10.622 154.815C10.4587 155.002 10.2557 155.147 10.013 155.249C9.77035 155.352 9.48802 155.403 9.16602 155.403C8.98402 155.403 8.80436 155.373 8.62702 155.312C8.44502 155.252 8.27236 155.154 8.10902 155.018C7.94569 154.878 7.79169 154.699 7.64702 154.479C7.50235 154.26 7.37636 153.992 7.26902 153.674C7.16169 153.352 7.07535 152.979 7.01002 152.554C6.94002 152.13 6.89802 151.644 6.88402 151.098L6.46402 151.098C5.98335 151.098 5.62869 151.201 5.40002 151.406C5.16669 151.612 5.05002 151.908 5.05002 152.295C5.05002 152.575 5.08269 152.809 5.14802 152.995C5.21336 153.177 5.28802 153.338 5.37202 153.478C5.45135 153.618 5.52369 153.747 5.58902 153.863C5.65436 153.975 5.68702 154.101 5.68702 154.241C5.68702 154.363 5.65669 154.465 5.59602 154.549C5.53069 154.633 5.45602 154.701 5.37202 154.752L4.81902 155.06Z" fill="#213E88"/>
<path d="M4.70002 146.866C4.55535 146.721 4.42235 146.57 4.30102 146.411C4.17502 146.248 4.07002 146.077 3.98602 145.9C3.89735 145.718 3.82969 145.524 3.78302 145.319C3.73169 145.114 3.70602 144.89 3.70602 144.647C3.70602 144.255 3.77369 143.907 3.90902 143.604C4.03969 143.301 4.22635 143.049 4.46902 142.848C4.70702 142.643 4.99402 142.489 5.33002 142.386C5.66135 142.279 6.02769 142.225 6.42902 142.225L11 142.225L11 143.954L6.42902 143.954C5.99035 143.954 5.65202 144.054 5.41402 144.255C5.17135 144.456 5.05002 144.761 5.05002 145.172C5.05002 145.471 5.11769 145.751 5.25302 146.012C5.38835 146.273 5.57269 146.521 5.80602 146.754L11 146.754L11 148.483L3.81802 148.483L3.81802 147.426C3.81802 147.202 3.92302 147.055 4.13302 146.985L4.70002 146.866Z" fill="#213E88"/>
<path d="M5.21802 136.899C5.29269 136.945 5.34635 136.994 5.37902 137.046C5.40702 137.097 5.42102 137.162 5.42102 137.242C5.42102 137.326 5.39769 137.417 5.35102 137.515C5.30435 137.608 5.25302 137.718 5.19702 137.844C5.13635 137.97 5.08269 138.114 5.03602 138.278C4.98935 138.436 4.96602 138.625 4.96602 138.845C4.96602 139.185 5.03835 139.454 5.18302 139.65C5.32769 139.841 5.51669 139.937 5.75002 139.937C5.90402 139.937 6.03469 139.888 6.14202 139.79C6.24469 139.687 6.33569 139.554 6.41502 139.391C6.49435 139.223 6.56669 139.034 6.63202 138.824C6.69269 138.614 6.76035 138.401 6.83502 138.187C6.90969 137.967 6.99602 137.753 7.09402 137.543C7.18735 137.333 7.30869 137.146 7.45802 136.983C7.60269 136.815 7.77769 136.682 7.98302 136.584C8.18835 136.481 8.43569 136.43 8.72502 136.43C9.07035 136.43 9.39002 136.493 9.68402 136.619C9.97335 136.74 10.2254 136.922 10.44 137.165C10.65 137.407 10.8157 137.708 10.937 138.068C11.0537 138.422 11.112 138.833 11.112 139.3C11.112 139.547 11.0887 139.79 11.042 140.028C11 140.261 10.9394 140.487 10.86 140.707C10.7807 140.921 10.6874 141.122 10.58 141.309C10.4727 141.491 10.356 141.652 10.23 141.792L9.57202 141.393C9.49269 141.341 9.43202 141.281 9.39002 141.211C9.34802 141.141 9.32702 141.052 9.32702 140.945C9.32702 140.837 9.35735 140.737 9.41802 140.644C9.47869 140.546 9.54402 140.434 9.61402 140.308C9.68402 140.182 9.74936 140.035 9.81002 139.867C9.87069 139.694 9.90102 139.477 9.90102 139.216C9.90102 139.01 9.87769 138.835 9.83102 138.691C9.77969 138.541 9.71435 138.42 9.63502 138.327C9.55569 138.229 9.46469 138.159 9.36202 138.117C9.25469 138.07 9.14502 138.047 9.03302 138.047C8.86502 138.047 8.72735 138.098 8.62002 138.201C8.51269 138.299 8.41935 138.432 8.34002 138.6C8.26069 138.763 8.19069 138.952 8.13002 139.167C8.06469 139.377 7.99469 139.594 7.92002 139.818C7.84535 140.037 7.75902 140.254 7.66102 140.469C7.55836 140.679 7.43002 140.868 7.27602 141.036C7.12202 141.199 6.93302 141.332 6.70902 141.435C6.48502 141.533 6.21435 141.582 5.89702 141.582C5.60302 141.582 5.32302 141.523 5.05702 141.407C4.79102 141.29 4.56002 141.12 4.36402 140.896C4.16335 140.667 4.00469 140.385 3.88802 140.049C3.76669 139.708 3.70602 139.316 3.70602 138.873C3.70602 138.378 3.78769 137.928 3.95102 137.522C4.11435 137.116 4.32902 136.777 4.59502 136.507L5.21802 136.899Z" fill="#213E88"/>
<path d="M3.70602 129.946C3.70602 129.414 3.79235 128.931 3.96502 128.497C4.13769 128.058 4.38269 127.685 4.70002 127.377C5.01735 127.064 5.40469 126.824 5.86202 126.656C6.31935 126.488 6.83035 126.404 7.39502 126.404C7.96435 126.404 8.47769 126.488 8.93502 126.656C9.39235 126.824 9.78202 127.064 10.104 127.377C10.426 127.685 10.6734 128.058 10.846 128.497C11.0187 128.931 11.105 129.414 11.105 129.946C11.105 130.483 11.0187 130.97 10.846 131.409C10.6734 131.848 10.426 132.223 10.104 132.536C9.78202 132.844 9.39235 133.084 8.93502 133.257C8.47769 133.425 7.96435 133.509 7.39502 133.509C6.83035 133.509 6.31935 133.425 5.86202 133.257C5.40469 133.084 5.01735 132.844 4.70002 132.536C4.38269 132.223 4.13769 131.848 3.96502 131.409C3.79235 130.97 3.70602 130.483 3.70602 129.946ZM9.77502 129.946C9.77502 129.349 9.57435 128.908 9.17302 128.623C8.77169 128.334 8.18369 128.189 7.40902 128.189C6.63435 128.189 6.04402 128.334 5.63802 128.623C5.23202 128.908 5.02902 129.349 5.02902 129.946C5.02902 130.553 5.23435 131.003 5.64502 131.297C6.05102 131.586 6.63902 131.731 7.40902 131.731C8.17902 131.731 8.76702 131.586 9.17302 131.297C9.57435 131.003 9.77502 130.553 9.77502 129.946Z" fill="#213E88"/>
<path d="M9.13802 124.056C9.37602 123.86 9.54402 123.648 9.64202 123.419C9.74002 123.186 9.78902 122.934 9.78902 122.663C9.78902 122.402 9.74002 122.166 9.64202 121.956C9.54402 121.746 9.39469 121.569 9.19402 121.424C8.99335 121.275 8.74135 121.16 8.43802 121.081C8.13002 121.002 7.76835 120.962 7.35302 120.962C6.93302 120.962 6.57835 120.997 6.28902 121.067C5.99502 121.132 5.75702 121.228 5.57502 121.354C5.39302 121.48 5.26002 121.634 5.17602 121.816C5.09202 121.993 5.05002 122.196 5.05002 122.425C5.05002 122.784 5.12702 123.09 5.28102 123.342C5.43035 123.594 5.64269 123.832 5.91802 124.056L9.13802 124.056ZM4.79802 124.147C4.46669 123.853 4.19835 123.519 3.99302 123.146C3.78769 122.773 3.68502 122.334 3.68502 121.83C3.68502 121.438 3.76669 121.081 3.93002 120.759C4.09335 120.432 4.33135 120.152 4.64402 119.919C4.95202 119.681 5.33469 119.499 5.79202 119.373C6.24469 119.242 6.76502 119.177 7.35302 119.177C7.88969 119.177 8.38669 119.249 8.84402 119.394C9.30135 119.539 9.69802 119.746 10.034 120.017C10.37 120.283 10.6337 120.607 10.825 120.99C11.0117 121.368 11.105 121.793 11.105 122.264C11.105 122.665 11.0444 123.008 10.923 123.293C10.797 123.578 10.6244 123.832 10.405 124.056L13.345 124.056L13.345 125.785L3.81802 125.785L3.81802 124.728C3.81802 124.504 3.92302 124.357 4.13302 124.287L4.79802 124.147Z" fill="#213E88"/>
<path d="M9.13802 114.095C9.37602 113.899 9.54402 113.686 9.64202 113.458C9.74002 113.224 9.78902 112.979 9.78902 112.723C9.78902 112.457 9.74235 112.219 9.64902 112.009C9.55102 111.794 9.40169 111.612 9.20102 111.463C8.99569 111.313 8.73669 111.199 8.42402 111.12C8.10669 111.04 7.72869 111.001 7.29002 111.001C6.50135 111.001 5.93202 111.131 5.58202 111.393C5.22735 111.654 5.05002 112.03 5.05002 112.52C5.05002 112.851 5.12702 113.14 5.28102 113.388C5.43035 113.635 5.64269 113.871 5.91802 114.095L9.13802 114.095ZM4.70002 114.095C4.39669 113.805 4.15635 113.486 3.97902 113.136C3.79702 112.781 3.70602 112.377 3.70602 111.925C3.70602 111.509 3.78769 111.136 3.95102 110.805C4.11435 110.469 4.35002 110.184 4.65802 109.951C4.96135 109.713 5.33002 109.531 5.76402 109.405C6.19802 109.279 6.68569 109.216 7.22702 109.216C7.81035 109.216 8.34002 109.288 8.81602 109.433C9.29202 109.577 9.70035 109.785 10.041 110.056C10.377 110.322 10.6384 110.644 10.825 111.022C11.0117 111.4 11.105 111.82 11.105 112.282C11.105 112.506 11.0817 112.709 11.035 112.891C10.993 113.073 10.9324 113.241 10.853 113.395C10.7737 113.549 10.678 113.691 10.566 113.822C10.4494 113.948 10.321 114.069 10.181 114.186L10.664 114.263C10.7854 114.291 10.8717 114.34 10.923 114.41C10.9744 114.475 11 114.566 11 114.683L11 115.824L0.59802 115.824L0.59802 114.095L4.70002 114.095Z" fill="#213E88"/>
<path d="M0.598019 106.83L11 106.83L11 108.559L0.59802 108.559L0.598019 106.83Z" fill="#213E88"/>
<path d="M6.58302 101.181C6.35902 101.181 6.14902 101.213 5.95302 101.279C5.75235 101.339 5.57735 101.433 5.42802 101.559C5.27869 101.685 5.16202 101.846 5.07802 102.042C4.98935 102.233 4.94502 102.457 4.94502 102.714C4.94502 103.213 5.08735 103.607 5.37202 103.897C5.65669 104.181 6.06035 104.363 6.58302 104.443L6.58302 101.181ZM7.62602 104.478C7.99469 104.45 8.31435 104.384 8.58502 104.282C8.85102 104.179 9.07269 104.044 9.25002 103.876C9.42269 103.708 9.55335 103.509 9.64202 103.281C9.72602 103.047 9.76802 102.791 9.76802 102.511C9.76802 102.231 9.73535 101.99 9.67002 101.79C9.60469 101.584 9.53235 101.407 9.45302 101.258C9.37369 101.104 9.30135 100.971 9.23602 100.859C9.17069 100.742 9.13802 100.63 9.13802 100.523C9.13802 100.378 9.19169 100.271 9.29902 100.201L9.92902 99.7037C10.153 99.895 10.342 100.11 10.496 100.348C10.6454 100.586 10.7667 100.835 10.86 101.097C10.9487 101.353 11.0117 101.617 11.049 101.888C11.0864 102.154 11.105 102.413 11.105 102.665C11.105 103.164 11.0234 103.628 10.86 104.058C10.692 104.487 10.447 104.86 10.125 105.178C9.79835 105.495 9.39702 105.745 8.92102 105.927C8.44035 106.109 7.88502 106.2 7.25502 106.2C6.76502 106.2 6.30535 106.12 5.87602 105.962C5.44202 105.803 5.06635 105.577 4.74902 105.283C4.42702 104.984 4.17269 104.622 3.98602 104.198C3.79935 103.768 3.70602 103.285 3.70602 102.749C3.70602 102.296 3.77835 101.878 3.92302 101.496C4.06769 101.113 4.28002 100.784 4.56002 100.509C4.83535 100.233 5.17602 100.019 5.58202 99.8647C5.98335 99.706 6.44302 99.6267 6.96102 99.6267C7.22235 99.6267 7.39969 99.6547 7.49302 99.7107C7.58169 99.7667 7.62602 99.874 7.62602 100.033L7.62602 104.478Z" fill="#213E88"/>
<path d="M5.21802 94.6471C5.29269 94.6938 5.34635 94.7428 5.37902 94.7941C5.40702 94.8455 5.42102 94.9108 5.42102 94.9901C5.42102 95.0741 5.39769 95.1651 5.35102 95.2631C5.30435 95.3565 5.25302 95.4661 5.19702 95.5921C5.13635 95.7181 5.08269 95.8628 5.03602 96.0261C4.98935 96.1848 4.96602 96.3738 4.96602 96.5931C4.96602 96.9338 5.03835 97.2021 5.18302 97.3981C5.32769 97.5895 5.51669 97.6851 5.75002 97.6851C5.90402 97.6851 6.03469 97.6361 6.14202 97.5381C6.24469 97.4355 6.33569 97.3025 6.41502 97.1391C6.49435 96.9711 6.56669 96.7821 6.63202 96.5721C6.69269 96.3621 6.76035 96.1498 6.83502 95.9351C6.90969 95.7158 6.99602 95.5011 7.09402 95.2911C7.18735 95.0811 7.30869 94.8945 7.45802 94.7311C7.60269 94.5631 7.77769 94.4301 7.98302 94.3321C8.18835 94.2295 8.43569 94.1781 8.72502 94.1781C9.07035 94.1781 9.39002 94.2411 9.68402 94.3671C9.97335 94.4885 10.2254 94.6705 10.44 94.9131C10.65 95.1558 10.8157 95.4568 10.937 95.8161C11.0537 96.1708 11.112 96.5815 11.112 97.0481C11.112 97.2955 11.0887 97.5381 11.042 97.7761C11 98.0095 10.9394 98.2358 10.86 98.4551C10.7807 98.6698 10.6874 98.8705 10.58 99.0571C10.4727 99.2391 10.356 99.4001 10.23 99.5401L9.57202 99.1411C9.49269 99.0898 9.43202 99.0291 9.39002 98.9591C9.34802 98.8891 9.32702 98.8005 9.32702 98.6931C9.32702 98.5858 9.35735 98.4855 9.41802 98.3921C9.47869 98.2941 9.54402 98.1821 9.61402 98.0561C9.68402 97.9301 9.74935 97.7831 9.81002 97.6151C9.87069 97.4425 9.90102 97.2255 9.90102 96.9641C9.90102 96.7588 9.87769 96.5838 9.83102 96.4391C9.77969 96.2898 9.71435 96.1685 9.63502 96.0751C9.55569 95.9771 9.46469 95.9071 9.36202 95.8651C9.25469 95.8185 9.14502 95.7951 9.03302 95.7951C8.86502 95.7951 8.72735 95.8465 8.62002 95.9491C8.51269 96.0471 8.41935 96.1801 8.34002 96.3481C8.26069 96.5115 8.19069 96.7005 8.13002 96.9151C8.06469 97.1251 7.99469 97.3421 7.92002 97.5661C7.84535 97.7855 7.75902 98.0025 7.66102 98.2171C7.55835 98.4271 7.43002 98.6161 7.27602 98.7841C7.12202 98.9475 6.93302 99.0805 6.70902 99.1831C6.48502 99.2811 6.21435 99.3301 5.89702 99.3301C5.60302 99.3301 5.32302 99.2718 5.05702 99.1551C4.79102 99.0385 4.56002 98.8681 4.36402 98.6441C4.16335 98.4155 4.00469 98.1331 3.88802 97.7971C3.76669 97.4565 3.70602 97.0645 3.70602 96.6211C3.70602 96.1265 3.78769 95.6761 3.95102 95.2701C4.11435 94.8641 4.32902 94.5258 4.59502 94.2551L5.21802 94.6471Z" fill="#213E88"/>
<path d="M5.21802 89.1948C5.29269 89.2415 5.34635 89.2905 5.37902 89.3418C5.40702 89.3931 5.42102 89.4585 5.42102 89.5378C5.42102 89.6218 5.39769 89.7128 5.35102 89.8108C5.30435 89.9041 5.25302 90.0138 5.19702 90.1398C5.13635 90.2658 5.08269 90.4105 5.03602 90.5738C4.98935 90.7325 4.96602 90.9215 4.96602 91.1408C4.96602 91.4815 5.03835 91.7498 5.18302 91.9458C5.32769 92.1371 5.51669 92.2328 5.75002 92.2328C5.90402 92.2328 6.03469 92.1838 6.14202 92.0858C6.24469 91.9831 6.33569 91.8501 6.41502 91.6868C6.49435 91.5188 6.56669 91.3298 6.63202 91.1198C6.69269 90.9098 6.76035 90.6975 6.83502 90.4828C6.90969 90.2635 6.99602 90.0488 7.09402 89.8388C7.18735 89.6288 7.30869 89.4421 7.45802 89.2788C7.60269 89.1108 7.77769 88.9778 7.98302 88.8798C8.18835 88.7771 8.43569 88.7258 8.72502 88.7258C9.07035 88.7258 9.39002 88.7888 9.68402 88.9148C9.97335 89.0361 10.2254 89.2181 10.44 89.4608C10.65 89.7035 10.8157 90.0045 10.937 90.3638C11.0537 90.7185 11.112 91.1291 11.112 91.5958C11.112 91.8431 11.0887 92.0858 11.042 92.3238C11 92.5571 10.9394 92.7835 10.86 93.0028C10.7807 93.2175 10.6874 93.4181 10.58 93.6048C10.4727 93.7868 10.356 93.9478 10.23 94.0878L9.57202 93.6888C9.49269 93.6375 9.43202 93.5768 9.39002 93.5068C9.34802 93.4368 9.32702 93.3481 9.32702 93.2408C9.32702 93.1335 9.35735 93.0331 9.41802 92.9398C9.47869 92.8418 9.54402 92.7298 9.61402 92.6038C9.68402 92.4778 9.74935 92.3308 9.81002 92.1628C9.87069 91.9901 9.90102 91.7731 9.90102 91.5118C9.90102 91.3065 9.87769 91.1315 9.83102 90.9868C9.77969 90.8375 9.71435 90.7161 9.63502 90.6228C9.55569 90.5248 9.46469 90.4548 9.36202 90.4128C9.25469 90.3661 9.14502 90.3428 9.03302 90.3428C8.86502 90.3428 8.72735 90.3941 8.62002 90.4968C8.51269 90.5948 8.41935 90.7278 8.34002 90.8958C8.26069 91.0591 8.19069 91.2481 8.13002 91.4628C8.06469 91.6728 7.99469 91.8898 7.92002 92.1138C7.84535 92.3331 7.75902 92.5501 7.66102 92.7648C7.55835 92.9748 7.43002 93.1638 7.27602 93.3318C7.12202 93.4951 6.93302 93.6281 6.70902 93.7308C6.48502 93.8288 6.21435 93.8778 5.89702 93.8778C5.60302 93.8778 5.32302 93.8195 5.05702 93.7028C4.79102 93.5861 4.56002 93.4158 4.36402 93.1918C4.16335 92.9631 4.00469 92.6808 3.88802 92.3448C3.76669 92.0041 3.70602 91.6121 3.70602 91.1688C3.70602 90.6741 3.78769 90.2238 3.95102 89.8178C4.11435 89.4118 4.32902 89.0735 4.59502 88.8028L5.21802 89.1948Z" fill="#213E88"/>
<path d="M3.81802 81.9365L11 81.9365L11 82.9935C11 83.2221 10.895 83.3668 10.685 83.4275L10.111 83.5465C10.4097 83.8405 10.6524 84.1648 10.839 84.5195C11.021 84.8741 11.112 85.2918 11.112 85.7725C11.112 86.1645 11.0467 86.5121 10.916 86.8155C10.7807 87.1141 10.5917 87.3661 10.349 87.5715C10.1064 87.7768 9.81935 87.9331 9.48802 88.0405C9.15202 88.1431 8.78335 88.1945 8.38202 88.1945L3.81802 88.1945L3.81802 86.4655L8.38202 86.4655C8.82069 86.4655 9.16135 86.3651 9.40402 86.1645C9.64202 85.9591 9.76102 85.6535 9.76102 85.2475C9.76102 84.9488 9.69569 84.6688 9.56502 84.4075C9.42969 84.1461 9.24535 83.8988 9.01202 83.6655L3.81802 83.6655L3.81802 81.9365Z" fill="#213E88"/>
<path d="M5.06402 79.2911C4.63468 79.0671 4.29869 78.8011 4.05602 78.4931C3.80868 78.1851 3.68502 77.8211 3.68502 77.4011C3.68502 77.0698 3.75735 76.8038 3.90202 76.6031L5.19702 76.7151C5.28102 76.7384 5.34168 76.7734 5.37902 76.8201C5.41168 76.8621 5.42802 76.9204 5.42802 76.9951C5.42802 77.0651 5.41635 77.1701 5.39302 77.3101C5.36968 77.4454 5.35802 77.5784 5.35802 77.7091C5.35802 77.9004 5.38602 78.0708 5.44202 78.2201C5.49802 78.3694 5.57968 78.5048 5.68702 78.6261C5.78968 78.7428 5.91568 78.8478 6.06502 78.9411C6.21435 79.0298 6.38469 79.1138 6.57602 79.1931L11 79.1931L11 80.9221L3.81802 80.9221L3.81802 79.9071C3.81802 79.7298 3.85069 79.6061 3.91602 79.5361C3.97668 79.4661 4.08869 79.4194 4.25202 79.3961L5.06402 79.2911Z" fill="#213E88"/>
<path d="M6.58302 71.9775C6.35902 71.9775 6.14902 72.0102 5.95302 72.0755C5.75235 72.1362 5.57735 72.2295 5.42802 72.3555C5.27868 72.4815 5.16202 72.6425 5.07802 72.8385C4.98935 73.0299 4.94502 73.2539 4.94502 73.5105C4.94502 74.0099 5.08735 74.4042 5.37202 74.6935C5.65668 74.9782 6.06035 75.1602 6.58302 75.2395L6.58302 71.9775ZM7.62602 75.2745C7.99468 75.2465 8.31435 75.1812 8.58502 75.0785C8.85102 74.9759 9.07269 74.8405 9.25002 74.6725C9.42269 74.5045 9.55335 74.3062 9.64202 74.0775C9.72602 73.8442 9.76802 73.5875 9.76802 73.3075C9.76802 73.0275 9.73535 72.7872 9.67002 72.5865C9.60469 72.3812 9.53235 72.2039 9.45302 72.0545C9.37369 71.9005 9.30135 71.7675 9.23602 71.6555C9.17069 71.5389 9.13802 71.4269 9.13802 71.3195C9.13802 71.1749 9.19168 71.0675 9.29902 70.9975L9.92902 70.5005C10.153 70.6919 10.342 70.9065 10.496 71.1445C10.6454 71.3825 10.7667 71.6322 10.86 71.8935C10.9487 72.1502 11.0117 72.4139 11.049 72.6845C11.0864 72.9505 11.105 73.2095 11.105 73.4615C11.105 73.9609 11.0234 74.4252 10.86 74.8545C10.692 75.2839 10.447 75.6572 10.125 75.9745C9.79835 76.2919 9.39702 76.5415 8.92102 76.7235C8.44035 76.9055 7.88502 76.9965 7.25502 76.9965C6.76502 76.9965 6.30535 76.9172 5.87602 76.7585C5.44202 76.5999 5.06635 76.3735 4.74902 76.0795C4.42702 75.7809 4.17268 75.4192 3.98602 74.9945C3.79935 74.5652 3.70602 74.0822 3.70602 73.5455C3.70602 73.0929 3.77835 72.6752 3.92302 72.2925C4.06768 71.9099 4.28002 71.5809 4.56002 71.3055C4.83535 71.0302 5.17602 70.8155 5.58202 70.6615C5.98335 70.5029 6.44302 70.4235 6.96102 70.4235C7.22235 70.4235 7.39969 70.4515 7.49302 70.5075C7.58169 70.5635 7.62602 70.6709 7.62602 70.8295L7.62602 75.2745Z" fill="#213E88"/>
<path d="M5.21802 65.444C5.29268 65.4907 5.34635 65.5397 5.37902 65.591C5.40702 65.6424 5.42102 65.7077 5.42102 65.787C5.42102 65.871 5.39768 65.962 5.35102 66.06C5.30435 66.1533 5.25302 66.263 5.19702 66.389C5.13635 66.515 5.08268 66.6597 5.03602 66.823C4.98935 66.9817 4.96602 67.1707 4.96602 67.39C4.96602 67.7307 5.03835 67.999 5.18302 68.195C5.32768 68.3863 5.51669 68.482 5.75002 68.482C5.90402 68.482 6.03469 68.433 6.14202 68.335C6.24468 68.2323 6.33568 68.0993 6.41502 67.936C6.49435 67.768 6.56668 67.579 6.63202 67.369C6.69268 67.159 6.76035 66.9467 6.83502 66.732C6.90968 66.5127 6.99602 66.298 7.09402 66.088C7.18735 65.878 7.30868 65.6913 7.45802 65.528C7.60269 65.36 7.77768 65.227 7.98302 65.129C8.18835 65.0263 8.43568 64.975 8.72502 64.975C9.07035 64.975 9.39002 65.038 9.68402 65.164C9.97335 65.2853 10.2254 65.4673 10.44 65.71C10.65 65.9527 10.8157 66.2537 10.937 66.613C11.0537 66.9677 11.112 67.3783 11.112 67.845C11.112 68.0923 11.0887 68.335 11.042 68.573C11 68.8063 10.9394 69.0327 10.86 69.252C10.7807 69.4667 10.6874 69.6674 10.58 69.854C10.4727 70.036 10.356 70.197 10.23 70.337L9.57202 69.938C9.49268 69.8867 9.43202 69.826 9.39002 69.756C9.34802 69.686 9.32702 69.5973 9.32702 69.49C9.32702 69.3827 9.35735 69.2824 9.41802 69.189C9.47869 69.091 9.54402 68.979 9.61402 68.853C9.68402 68.727 9.74935 68.58 9.81002 68.412C9.87069 68.2394 9.90102 68.0223 9.90102 67.761C9.90102 67.5557 9.87769 67.3807 9.83102 67.236C9.77969 67.0867 9.71435 66.9653 9.63502 66.872C9.55569 66.774 9.46468 66.704 9.36202 66.662C9.25468 66.6154 9.14502 66.592 9.03302 66.592C8.86502 66.592 8.72735 66.6434 8.62002 66.746C8.51268 66.844 8.41935 66.977 8.34002 67.145C8.26069 67.3083 8.19069 67.4973 8.13002 67.712C8.06468 67.922 7.99468 68.139 7.92002 68.363C7.84535 68.5823 7.75902 68.7993 7.66102 69.014C7.55835 69.224 7.43002 69.413 7.27602 69.581C7.12202 69.7443 6.93302 69.8774 6.70902 69.98C6.48502 70.078 6.21435 70.127 5.89702 70.127C5.60302 70.127 5.32302 70.0687 5.05702 69.952C4.79102 69.8354 4.56002 69.665 4.36402 69.441C4.16335 69.2124 4.00468 68.93 3.88802 68.594C3.76668 68.2534 3.70602 67.8613 3.70602 67.418C3.70602 66.9233 3.78768 66.473 3.95102 66.067C4.11435 65.661 4.32902 65.3227 4.59502 65.052L5.21802 65.444Z" fill="#213E88"/>
<path d="M92.654 248.553L92.304 248.987C92.5 248.889 92.71 248.814 92.934 248.763C93.1627 248.707 93.4077 248.679 93.669 248.679C94.0517 248.679 94.4227 248.742 94.782 248.868C95.146 248.994 95.4657 249.185 95.741 249.442C96.0163 249.694 96.238 250.009 96.406 250.387C96.574 250.765 96.658 251.206 96.658 251.71C96.658 252.181 96.5717 252.625 96.399 253.04C96.2263 253.451 95.9837 253.81 95.671 254.118C95.3583 254.426 94.9803 254.669 94.537 254.846C94.0983 255.023 93.613 255.112 93.081 255.112C92.5397 255.112 92.0543 255.026 91.625 254.853C91.1957 254.68 90.8293 254.44 90.526 254.132C90.2227 253.819 89.9893 253.446 89.826 253.012C89.6673 252.573 89.588 252.088 89.588 251.556C89.588 251.08 89.6837 250.592 89.875 250.093C90.071 249.589 90.372 249.066 90.778 248.525L93.193 245.284C93.277 245.172 93.3983 245.076 93.557 244.997C93.7203 244.918 93.907 244.878 94.117 244.878H95.657L92.654 248.553ZM93.046 253.698C93.3213 253.698 93.5733 253.651 93.802 253.558C94.0353 253.465 94.2337 253.334 94.397 253.166C94.565 252.998 94.6957 252.802 94.789 252.578C94.8823 252.349 94.929 252.102 94.929 251.836C94.929 251.547 94.8847 251.288 94.796 251.059C94.7073 250.826 94.5813 250.63 94.418 250.471C94.2547 250.308 94.0587 250.184 93.83 250.1C93.6013 250.016 93.3493 249.974 93.074 249.974C92.7987 249.974 92.549 250.021 92.325 250.114C92.101 250.207 91.9097 250.338 91.751 250.506C91.5923 250.669 91.4687 250.865 91.38 251.094C91.2913 251.318 91.247 251.561 91.247 251.822C91.247 252.102 91.2843 252.359 91.359 252.592C91.4383 252.821 91.5527 253.017 91.702 253.18C91.856 253.343 92.045 253.472 92.269 253.565C92.493 253.654 92.752 253.698 93.046 253.698Z" fill="#213E88"/>
<path d="M103.463 247.818V255H102.406C102.177 255 102.033 254.895 101.972 254.685L101.853 254.111C101.559 254.41 101.235 254.652 100.88 254.839C100.525 255.021 100.108 255.112 99.6271 255.112C99.2351 255.112 98.8874 255.047 98.5841 254.916C98.2854 254.781 98.0334 254.592 97.8281 254.349C97.6228 254.106 97.4664 253.819 97.3591 253.488C97.2564 253.152 97.2051 252.783 97.2051 252.382V247.818H98.9341V252.382C98.9341 252.821 99.0344 253.161 99.2351 253.404C99.4404 253.642 99.7461 253.761 100.152 253.761C100.451 253.761 100.731 253.696 100.992 253.565C101.253 253.43 101.501 253.245 101.734 253.012V247.818H103.463Z" fill="#213E88"/>
<path d="M51.6489 235.939C51.6489 236.821 51.5532 237.589 51.3619 238.242C51.1752 238.891 50.9139 239.427 50.5779 239.852C50.2465 240.277 49.8522 240.594 49.3949 240.804C48.9422 241.009 48.4522 241.112 47.9249 241.112C47.3975 241.112 46.9075 241.009 46.4549 240.804C46.0069 240.594 45.6172 240.277 45.2859 239.852C44.9545 239.427 44.6955 238.891 44.5089 238.242C44.3222 237.589 44.2289 236.821 44.2289 235.939C44.2289 235.052 44.3222 234.285 44.5089 233.636C44.6955 232.987 44.9545 232.451 45.2859 232.026C45.6172 231.601 46.0069 231.286 46.4549 231.081C46.9075 230.871 47.3975 230.766 47.9249 230.766C48.4522 230.766 48.9422 230.871 49.3949 231.081C49.8522 231.286 50.2465 231.601 50.5779 232.026C50.9139 232.451 51.1752 232.987 51.3619 233.636C51.5532 234.285 51.6489 235.052 51.6489 235.939ZM49.8639 235.939C49.8639 235.206 49.8102 234.6 49.7029 234.119C49.5955 233.638 49.4509 233.256 49.2689 232.971C49.0915 232.686 48.8862 232.488 48.6529 232.376C48.4195 232.259 48.1769 232.201 47.9249 232.201C47.6775 232.201 47.4372 232.259 47.2039 232.376C46.9752 232.488 46.7722 232.686 46.5949 232.971C46.4175 233.256 46.2752 233.638 46.1679 234.119C46.0652 234.6 46.0139 235.206 46.0139 235.939C46.0139 236.672 46.0652 237.278 46.1679 237.759C46.2752 238.24 46.4175 238.622 46.5949 238.907C46.7722 239.192 46.9752 239.392 47.2039 239.509C47.4372 239.621 47.6775 239.677 47.9249 239.677C48.1769 239.677 48.4195 239.621 48.6529 239.509C48.8862 239.392 49.0915 239.192 49.2689 238.907C49.4509 238.622 49.5955 238.24 49.7029 237.759C49.8102 237.278 49.8639 236.672 49.8639 235.939Z" fill="#213E88"/>
<path d="M43.7029 211.705V213H38.1029V211.705H40.1539V205.804C40.1539 205.571 40.1609 205.33 40.1749 205.083L38.7189 206.301C38.6349 206.366 38.5509 206.408 38.4669 206.427C38.3875 206.441 38.3105 206.441 38.2359 206.427C38.1659 206.413 38.1029 206.39 38.0469 206.357C37.9909 206.32 37.9489 206.28 37.9209 206.238L37.3749 205.489L40.4619 202.864H41.8829V211.705H43.7029Z" fill="#213E88"/>
<path d="M51.649 207.939C51.649 208.821 51.5533 209.589 51.362 210.242C51.1753 210.891 50.914 211.427 50.578 211.852C50.2466 212.277 49.8523 212.594 49.395 212.804C48.9423 213.009 48.4523 213.112 47.925 213.112C47.3976 213.112 46.9076 213.009 46.455 212.804C46.007 212.594 45.6173 212.277 45.286 211.852C44.9546 211.427 44.6956 210.891 44.509 210.242C44.3223 209.589 44.229 208.821 44.229 207.939C44.229 207.052 44.3223 206.285 44.509 205.636C44.6956 204.987 44.9546 204.451 45.286 204.026C45.6173 203.601 46.007 203.286 46.455 203.081C46.9076 202.871 47.3976 202.766 47.925 202.766C48.4523 202.766 48.9423 202.871 49.395 203.081C49.8523 203.286 50.2466 203.601 50.578 204.026C50.914 204.451 51.1753 204.987 51.362 205.636C51.5533 206.285 51.649 207.052 51.649 207.939ZM49.864 207.939C49.864 207.206 49.8103 206.6 49.703 206.119C49.5956 205.638 49.451 205.256 49.269 204.971C49.0916 204.686 48.8863 204.488 48.653 204.376C48.4196 204.259 48.177 204.201 47.925 204.201C47.6776 204.201 47.4373 204.259 47.204 204.376C46.9753 204.488 46.7723 204.686 46.595 204.971C46.4176 205.256 46.2753 205.638 46.168 206.119C46.0653 206.6 46.014 207.206 46.014 207.939C46.014 208.672 46.0653 209.278 46.168 209.759C46.2753 210.24 46.4176 210.622 46.595 210.907C46.7723 211.192 46.9753 211.392 47.204 211.509C47.4373 211.621 47.6776 211.677 47.925 211.677C48.177 211.677 48.4196 211.621 48.653 211.509C48.8863 211.392 49.0916 211.192 49.269 210.907C49.451 210.622 49.5956 210.24 49.703 209.759C49.8103 209.278 49.864 208.672 49.864 207.939Z" fill="#213E88"/>
<path d="M43.3249 181.39C43.5115 181.39 43.6585 181.444 43.7659 181.551C43.8779 181.654 43.9339 181.791 43.9339 181.964V183H36.9899V182.426C36.9899 182.309 37.0132 182.188 37.0599 182.062C37.1112 181.931 37.1905 181.815 37.2979 181.712L40.3709 178.632C40.6275 178.371 40.8562 178.121 41.0569 177.883C41.2622 177.645 41.4325 177.409 41.5679 177.176C41.7032 176.943 41.8059 176.707 41.8759 176.469C41.9505 176.226 41.9879 175.972 41.9879 175.706C41.9879 175.463 41.9529 175.251 41.8829 175.069C41.8129 174.882 41.7125 174.726 41.5819 174.6C41.4559 174.474 41.3019 174.381 41.1199 174.32C40.9425 174.255 40.7419 174.222 40.5179 174.222C40.3125 174.222 40.1212 174.252 39.9439 174.313C39.7712 174.369 39.6172 174.451 39.4819 174.558C39.3465 174.661 39.2322 174.782 39.1389 174.922C39.0455 175.062 38.9755 175.216 38.9289 175.384C38.8495 175.599 38.7469 175.741 38.6209 175.811C38.4949 175.881 38.3129 175.897 38.0749 175.86L37.1649 175.699C37.2349 175.214 37.3702 174.789 37.5709 174.425C37.7715 174.056 38.0212 173.751 38.3199 173.508C38.6232 173.261 38.9685 173.076 39.3559 172.955C39.7479 172.829 40.1679 172.766 40.6159 172.766C41.0825 172.766 41.5095 172.836 41.8969 172.976C42.2842 173.111 42.6155 173.305 42.8909 173.557C43.1662 173.809 43.3809 174.112 43.5349 174.467C43.6889 174.822 43.7659 175.216 43.7659 175.65C43.7659 176.023 43.7099 176.369 43.5979 176.686C43.4905 177.003 43.3435 177.307 43.1569 177.596C42.9749 177.885 42.7602 178.165 42.5129 178.436C42.2655 178.707 42.0065 178.982 41.7359 179.262L39.4539 181.593C39.6732 181.528 39.8902 181.479 40.1049 181.446C40.3242 181.409 40.5319 181.39 40.7279 181.39H43.3249Z" fill="#213E88"/>
<path d="M51.649 177.939C51.649 178.821 51.5533 179.589 51.362 180.242C51.1753 180.891 50.914 181.427 50.578 181.852C50.2466 182.277 49.8523 182.594 49.395 182.804C48.9423 183.009 48.4523 183.112 47.925 183.112C47.3976 183.112 46.9076 183.009 46.455 182.804C46.007 182.594 45.6173 182.277 45.286 181.852C44.9546 181.427 44.6956 180.891 44.509 180.242C44.3223 179.589 44.229 178.821 44.229 177.939C44.229 177.052 44.3223 176.285 44.509 175.636C44.6956 174.987 44.9546 174.451 45.286 174.026C45.6173 173.601 46.007 173.286 46.455 173.081C46.9076 172.871 47.3976 172.766 47.925 172.766C48.4523 172.766 48.9423 172.871 49.395 173.081C49.8523 173.286 50.2466 173.601 50.578 174.026C50.914 174.451 51.1753 174.987 51.362 175.636C51.5533 176.285 51.649 177.052 51.649 177.939ZM49.864 177.939C49.864 177.206 49.8103 176.6 49.703 176.119C49.5956 175.638 49.451 175.256 49.269 174.971C49.0916 174.686 48.8863 174.488 48.653 174.376C48.4196 174.259 48.177 174.201 47.925 174.201C47.6776 174.201 47.4373 174.259 47.204 174.376C46.9753 174.488 46.7723 174.686 46.595 174.971C46.4176 175.256 46.2753 175.638 46.168 176.119C46.0653 176.6 46.014 177.206 46.014 177.939C46.014 178.672 46.0653 179.278 46.168 179.759C46.2753 180.24 46.4176 180.622 46.595 180.907C46.7723 181.192 46.9753 181.392 47.204 181.509C47.4373 181.621 47.6776 181.677 47.925 181.677C48.177 181.677 48.4196 181.621 48.653 181.509C48.8863 181.392 49.0916 181.192 49.269 180.907C49.451 180.622 49.5956 180.24 49.703 179.759C49.8103 179.278 49.864 178.672 49.864 177.939Z" fill="#213E88"/>
<path d="M37.2138 145.699C37.2838 145.214 37.4191 144.789 37.6198 144.425C37.8205 144.056 38.0701 143.751 38.3688 143.508C38.6721 143.261 39.0175 143.076 39.4048 142.955C39.7968 142.829 40.2168 142.766 40.6648 142.766C41.1315 142.766 41.5515 142.834 41.9248 142.969C42.3028 143.1 42.6248 143.284 42.8908 143.522C43.1568 143.755 43.3598 144.031 43.4998 144.348C43.6445 144.665 43.7168 145.008 43.7168 145.377C43.7168 145.699 43.6795 145.984 43.6048 146.231C43.5348 146.474 43.4321 146.686 43.2968 146.868C43.1615 147.05 42.9935 147.204 42.7928 147.33C42.5921 147.456 42.3658 147.561 42.1138 147.645C42.7205 147.836 43.1731 148.128 43.4718 148.52C43.7705 148.912 43.9198 149.404 43.9198 149.997C43.9198 150.501 43.8265 150.947 43.6398 151.334C43.4531 151.721 43.2011 152.048 42.8838 152.314C42.5665 152.575 42.1978 152.774 41.7778 152.909C41.3625 153.044 40.9215 153.112 40.4548 153.112C39.9461 153.112 39.5028 153.054 39.1248 152.937C38.7468 152.82 38.4178 152.648 38.1378 152.419C37.8578 152.19 37.6198 151.91 37.4238 151.579C37.2278 151.248 37.0598 150.865 36.9198 150.431L37.6828 150.116C37.8835 150.032 38.0701 150.011 38.2428 150.053C38.4201 150.09 38.5485 150.184 38.6278 150.333C38.7118 150.496 38.8028 150.657 38.9008 150.816C39.0035 150.975 39.1248 151.117 39.2648 151.243C39.4048 151.364 39.5681 151.465 39.7548 151.544C39.9461 151.619 40.1725 151.656 40.4338 151.656C40.7278 151.656 40.9845 151.609 41.2038 151.516C41.4231 151.418 41.6051 151.292 41.7498 151.138C41.8991 150.984 42.0088 150.814 42.0788 150.627C42.1535 150.436 42.1908 150.244 42.1908 150.053C42.1908 149.81 42.1651 149.591 42.1138 149.395C42.0625 149.194 41.9551 149.024 41.7918 148.884C41.6285 148.744 41.3928 148.634 41.0848 148.555C40.7815 148.476 40.3731 148.436 39.8598 148.436V147.204C40.2845 147.199 40.6368 147.16 40.9168 147.085C41.1968 147.01 41.4185 146.908 41.5818 146.777C41.7498 146.642 41.8665 146.481 41.9318 146.294C41.9971 146.107 42.0298 145.902 42.0298 145.678C42.0298 145.202 41.8968 144.84 41.6308 144.593C41.3648 144.346 41.0101 144.222 40.5668 144.222C40.3615 144.222 40.1725 144.252 39.9998 144.313C39.8271 144.369 39.6708 144.451 39.5308 144.558C39.3955 144.661 39.2811 144.782 39.1878 144.922C39.0945 145.062 39.0245 145.216 38.9778 145.384C38.8985 145.599 38.7935 145.741 38.6628 145.811C38.5368 145.881 38.3571 145.897 38.1238 145.86L37.2138 145.699Z" fill="#213E88"/>
<path d="M51.6489 147.939C51.6489 148.821 51.5532 149.589 51.3619 150.242C51.1752 150.891 50.9139 151.427 50.5779 151.852C50.2466 152.277 49.8522 152.594 49.3949 152.804C48.9422 153.009 48.4522 153.112 47.9249 153.112C47.3976 153.112 46.9076 153.009 46.4549 152.804C46.0069 152.594 45.6172 152.277 45.2859 151.852C44.9546 151.427 44.6956 150.891 44.5089 150.242C44.3222 149.589 44.2289 148.821 44.2289 147.939C44.2289 147.052 44.3222 146.285 44.5089 145.636C44.6956 144.987 44.9546 144.451 45.2859 144.026C45.6172 143.601 46.0069 143.286 46.4549 143.081C46.9076 142.871 47.3976 142.766 47.9249 142.766C48.4522 142.766 48.9422 142.871 49.3949 143.081C49.8522 143.286 50.2466 143.601 50.5779 144.026C50.9139 144.451 51.1752 144.987 51.3619 145.636C51.5532 146.285 51.6489 147.052 51.6489 147.939ZM49.8639 147.939C49.8639 147.206 49.8102 146.6 49.7029 146.119C49.5956 145.638 49.4509 145.256 49.2689 144.971C49.0916 144.686 48.8862 144.488 48.6529 144.376C48.4196 144.259 48.1769 144.201 47.9249 144.201C47.6776 144.201 47.4372 144.259 47.2039 144.376C46.9752 144.488 46.7722 144.686 46.5949 144.971C46.4176 145.256 46.2752 145.638 46.1679 146.119C46.0652 146.6 46.0139 147.206 46.0139 147.939C46.0139 148.672 46.0652 149.278 46.1679 149.759C46.2752 150.24 46.4176 150.622 46.5949 150.907C46.7722 151.192 46.9752 151.392 47.2039 151.509C47.4372 151.621 47.6776 151.677 47.9249 151.677C48.1769 151.677 48.4196 151.621 48.6529 151.509C48.8862 151.392 49.0916 151.192 49.2689 150.907C49.4509 150.622 49.5956 150.24 49.7029 149.759C49.8102 149.278 49.8639 148.672 49.8639 147.939Z" fill="#213E88"/>
<path d="M41.4418 119.185V115.874C41.4418 115.561 41.4628 115.216 41.5048 114.838L38.3618 119.185H41.4418ZM44.2208 119.185V120.186C44.2208 120.279 44.1905 120.361 44.1298 120.431C44.0691 120.496 43.9828 120.529 43.8708 120.529H42.9468V123H41.4418V120.529H37.1718C37.0551 120.529 36.9525 120.494 36.8638 120.424C36.7751 120.349 36.7191 120.258 36.6958 120.151L36.5138 119.276L41.3088 112.871H42.9468V119.185H44.2208Z" fill="#213E88"/>
<path d="M51.6489 117.939C51.6489 118.821 51.5532 119.589 51.3619 120.242C51.1752 120.891 50.9139 121.427 50.5779 121.852C50.2466 122.277 49.8522 122.594 49.3949 122.804C48.9422 123.009 48.4522 123.112 47.9249 123.112C47.3976 123.112 46.9076 123.009 46.4549 122.804C46.0069 122.594 45.6172 122.277 45.2859 121.852C44.9546 121.427 44.6956 120.891 44.5089 120.242C44.3222 119.589 44.2289 118.821 44.2289 117.939C44.2289 117.052 44.3222 116.285 44.5089 115.636C44.6956 114.987 44.9546 114.451 45.2859 114.026C45.6172 113.601 46.0069 113.286 46.4549 113.081C46.9076 112.871 47.3976 112.766 47.9249 112.766C48.4522 112.766 48.9422 112.871 49.3949 113.081C49.8522 113.286 50.2466 113.601 50.5779 114.026C50.9139 114.451 51.1752 114.987 51.3619 115.636C51.5532 116.285 51.6489 117.052 51.6489 117.939ZM49.8639 117.939C49.8639 117.206 49.8102 116.6 49.7029 116.119C49.5956 115.638 49.4509 115.256 49.2689 114.971C49.0916 114.686 48.8862 114.488 48.6529 114.376C48.4196 114.259 48.1769 114.201 47.9249 114.201C47.6776 114.201 47.4372 114.259 47.2039 114.376C46.9752 114.488 46.7722 114.686 46.5949 114.971C46.4176 115.256 46.2752 115.638 46.1679 116.119C46.0652 116.6 46.0139 117.206 46.0139 117.939C46.0139 118.672 46.0652 119.278 46.1679 119.759C46.2752 120.24 46.4176 120.622 46.5949 120.907C46.7722 121.192 46.9752 121.392 47.2039 121.509C47.4372 121.621 47.6776 121.677 47.9249 121.677C48.1769 121.677 48.4196 121.621 48.6529 121.509C48.8862 121.392 49.0916 121.192 49.2689 120.907C49.4509 120.622 49.5956 120.24 49.7029 119.759C49.8102 119.278 49.8639 118.672 49.8639 117.939Z" fill="#213E88"/>
<path d="M39.2999 88.553C39.5239 88.5063 39.7386 88.4737 39.9439 88.455C40.1492 88.4317 40.3476 88.42 40.5389 88.42C41.0709 88.42 41.5399 88.4993 41.9459 88.658C42.3519 88.8167 42.6926 89.036 42.9679 89.316C43.2432 89.596 43.4509 89.925 43.5909 90.303C43.7309 90.6763 43.8009 91.08 43.8009 91.514C43.8009 92.0507 43.7052 92.5407 43.5139 92.984C43.3272 93.4273 43.0659 93.8077 42.7299 94.125C42.3939 94.4377 41.9949 94.6803 41.5329 94.853C41.0756 95.0257 40.5762 95.112 40.0349 95.112C39.7176 95.112 39.4166 95.0793 39.1319 95.014C38.8472 94.9487 38.5789 94.8623 38.3269 94.755C38.0796 94.643 37.8486 94.517 37.6339 94.377C37.4239 94.2323 37.2349 94.0807 37.0669 93.922L37.5989 93.187C37.7109 93.0283 37.8579 92.949 38.0399 92.949C38.1566 92.949 38.2756 92.9863 38.3969 93.061C38.5182 93.1357 38.6559 93.2173 38.8099 93.306C38.9686 93.3947 39.1529 93.4763 39.3629 93.551C39.5776 93.6257 39.8342 93.663 40.1329 93.663C40.4502 93.663 40.7302 93.6117 40.9729 93.509C41.2156 93.4063 41.4162 93.264 41.5749 93.082C41.7382 92.8953 41.8596 92.676 41.9389 92.424C42.0229 92.1673 42.0649 91.8897 42.0649 91.591C42.0649 91.0403 41.9039 90.611 41.5819 90.303C41.2646 89.9903 40.7932 89.834 40.1679 89.834C39.6872 89.834 39.1949 89.9227 38.6909 90.1L37.6129 89.792L38.4529 84.878H43.4509V85.613C43.4509 85.8603 43.3739 86.061 43.2199 86.215C43.0659 86.369 42.8046 86.446 42.4359 86.446H39.6569L39.2999 88.553Z" fill="#213E88"/>
<path d="M51.649 89.939C51.649 90.821 51.5533 91.5887 51.362 92.242C51.1753 92.8907 50.914 93.4273 50.578 93.852C50.2467 94.2767 49.8523 94.594 49.395 94.804C48.9423 95.0093 48.4523 95.112 47.925 95.112C47.3977 95.112 46.9077 95.0093 46.455 94.804C46.007 94.594 45.6173 94.2767 45.286 93.852C44.9547 93.4273 44.6957 92.8907 44.509 92.242C44.3223 91.5887 44.229 90.821 44.229 89.939C44.229 89.0523 44.3223 88.2847 44.509 87.636C44.6957 86.9873 44.9547 86.4507 45.286 86.026C45.6173 85.6013 46.007 85.2863 46.455 85.081C46.9077 84.871 47.3977 84.766 47.925 84.766C48.4523 84.766 48.9423 84.871 49.395 85.081C49.8523 85.2863 50.2467 85.6013 50.578 86.026C50.914 86.4507 51.1753 86.9873 51.362 87.636C51.5533 88.2847 51.649 89.0523 51.649 89.939ZM49.864 89.939C49.864 89.2063 49.8103 88.5997 49.703 88.119C49.5957 87.6383 49.451 87.2557 49.269 86.971C49.0917 86.6863 48.8863 86.488 48.653 86.376C48.4197 86.2593 48.177 86.201 47.925 86.201C47.6777 86.201 47.4373 86.2593 47.204 86.376C46.9753 86.488 46.7723 86.6863 46.595 86.971C46.4177 87.2557 46.2753 87.6383 46.168 88.119C46.0653 88.5997 46.014 89.2063 46.014 89.939C46.014 90.6717 46.0653 91.2783 46.168 91.759C46.2753 92.2397 46.4177 92.6223 46.595 92.907C46.7723 93.1917 46.9753 93.3923 47.204 93.509C47.4373 93.621 47.6777 93.677 47.925 93.677C48.177 93.677 48.4197 93.621 48.653 93.509C48.8863 93.3923 49.0917 93.1917 49.269 92.907C49.451 92.6223 49.5957 92.2397 49.703 91.759C49.8103 91.2783 49.864 90.6717 49.864 89.939Z" fill="#213E88"/>
<path d="M40.1119 60.553L39.7619 60.987C39.9579 60.889 40.1679 60.8143 40.3919 60.763C40.6206 60.707 40.8656 60.679 41.1269 60.679C41.5096 60.679 41.8806 60.742 42.2399 60.868C42.6039 60.994 42.9236 61.1853 43.1989 61.442C43.4742 61.694 43.6959 62.009 43.8639 62.387C44.0319 62.765 44.1159 63.206 44.1159 63.71C44.1159 64.1813 44.0296 64.6247 43.8569 65.04C43.6842 65.4507 43.4416 65.81 43.1289 66.118C42.8162 66.426 42.4382 66.6687 41.9949 66.846C41.5562 67.0233 41.0709 67.112 40.5389 67.112C39.9976 67.112 39.5122 67.0257 39.0829 66.853C38.6536 66.6803 38.2872 66.44 37.9839 66.132C37.6806 65.8193 37.4472 65.446 37.2839 65.012C37.1252 64.5733 37.0459 64.088 37.0459 63.556C37.0459 63.08 37.1416 62.5923 37.3329 62.093C37.5289 61.589 37.8299 61.0663 38.2359 60.525L40.6509 57.284C40.7349 57.172 40.8562 57.0763 41.0149 56.997C41.1782 56.9177 41.3649 56.878 41.5749 56.878H43.1149L40.1119 60.553ZM40.5039 65.698C40.7792 65.698 41.0312 65.6513 41.2599 65.558C41.4932 65.4647 41.6916 65.334 41.8549 65.166C42.0229 64.998 42.1536 64.802 42.2469 64.578C42.3402 64.3493 42.3869 64.102 42.3869 63.836C42.3869 63.5467 42.3426 63.2877 42.2539 63.059C42.1652 62.8257 42.0392 62.6297 41.8759 62.471C41.7126 62.3077 41.5166 62.184 41.2879 62.1C41.0592 62.016 40.8072 61.974 40.5319 61.974C40.2566 61.974 40.0069 62.0207 39.7829 62.114C39.5589 62.2073 39.3676 62.338 39.2089 62.506C39.0502 62.6693 38.9266 62.8653 38.8379 63.094C38.7492 63.318 38.7049 63.5607 38.7049 63.822C38.7049 64.102 38.7422 64.3587 38.8169 64.592C38.8962 64.8207 39.0106 65.0167 39.1599 65.18C39.3139 65.3433 39.5029 65.4717 39.7269 65.565C39.9509 65.6537 40.2099 65.698 40.5039 65.698Z" fill="#213E88"/>
<path d="M51.649 61.939C51.649 62.821 51.5533 63.5887 51.362 64.242C51.1753 64.8907 50.914 65.4273 50.578 65.852C50.2467 66.2767 49.8523 66.594 49.395 66.804C48.9423 67.0093 48.4523 67.112 47.925 67.112C47.3977 67.112 46.9077 67.0093 46.455 66.804C46.007 66.594 45.6173 66.2767 45.286 65.852C44.9547 65.4273 44.6957 64.8907 44.509 64.242C44.3223 63.5887 44.229 62.821 44.229 61.939C44.229 61.0523 44.3223 60.2847 44.509 59.636C44.6957 58.9873 44.9547 58.4507 45.286 58.026C45.6173 57.6013 46.007 57.2863 46.455 57.081C46.9077 56.871 47.3977 56.766 47.925 56.766C48.4523 56.766 48.9423 56.871 49.395 57.081C49.8523 57.2863 50.2467 57.6013 50.578 58.026C50.914 58.4507 51.1753 58.9873 51.362 59.636C51.5533 60.2847 51.649 61.0523 51.649 61.939ZM49.864 61.939C49.864 61.2063 49.8103 60.5997 49.703 60.119C49.5957 59.6383 49.451 59.2557 49.269 58.971C49.0917 58.6863 48.8863 58.488 48.653 58.376C48.4197 58.2593 48.177 58.201 47.925 58.201C47.6777 58.201 47.4373 58.2593 47.204 58.376C46.9753 58.488 46.7723 58.6863 46.595 58.971C46.4177 59.2557 46.2753 59.6383 46.168 60.119C46.0653 60.5997 46.014 61.2063 46.014 61.939C46.014 62.6717 46.0653 63.2783 46.168 63.759C46.2753 64.2397 46.4177 64.6223 46.595 64.907C46.7723 65.1917 46.9753 65.3923 47.204 65.509C47.4373 65.621 47.6777 65.677 47.925 65.677C48.177 65.677 48.4197 65.621 48.653 65.509C48.8863 65.3923 49.0917 65.1917 49.269 64.907C49.451 64.6223 49.5957 64.2397 49.703 63.759C49.8103 63.2783 49.864 62.6717 49.864 61.939Z" fill="#213E88"/>
<path d="M44.1019 28.878V29.627C44.1019 29.851 44.0786 30.033 44.0319 30.173C43.9852 30.3083 43.9386 30.4227 43.8919 30.516L40.0559 38.412C39.9766 38.5753 39.8646 38.7153 39.7199 38.832C39.5752 38.944 39.3816 39 39.1389 39H37.8859L41.7989 31.265C41.8876 31.1063 41.9739 30.9617 42.0579 30.831C42.1466 30.6957 42.2446 30.5673 42.3519 30.446H37.5079C37.4006 30.446 37.3072 30.4063 37.2279 30.327C37.1486 30.2477 37.1089 30.1543 37.1089 30.047V28.878H44.1019Z" fill="#213E88"/>
<path d="M51.649 33.939C51.649 34.821 51.5533 35.5887 51.362 36.242C51.1753 36.8907 50.914 37.4273 50.578 37.852C50.2466 38.2767 49.8523 38.594 49.395 38.804C48.9423 39.0093 48.4523 39.112 47.925 39.112C47.3976 39.112 46.9076 39.0093 46.455 38.804C46.007 38.594 45.6173 38.2767 45.286 37.852C44.9546 37.4273 44.6956 36.8907 44.509 36.242C44.3223 35.5887 44.229 34.821 44.229 33.939C44.229 33.0523 44.3223 32.2847 44.509 31.636C44.6956 30.9873 44.9546 30.4507 45.286 30.026C45.6173 29.6013 46.007 29.2863 46.455 29.081C46.9076 28.871 47.3976 28.766 47.925 28.766C48.4523 28.766 48.9423 28.871 49.395 29.081C49.8523 29.2863 50.2466 29.6013 50.578 30.026C50.914 30.4507 51.1753 30.9873 51.362 31.636C51.5533 32.2847 51.649 33.0523 51.649 33.939ZM49.864 33.939C49.864 33.2063 49.8103 32.5997 49.703 32.119C49.5956 31.6383 49.451 31.2557 49.269 30.971C49.0916 30.6863 48.8863 30.488 48.653 30.376C48.4196 30.2593 48.177 30.201 47.925 30.201C47.6776 30.201 47.4373 30.2593 47.204 30.376C46.9753 30.488 46.7723 30.6863 46.595 30.971C46.4176 31.2557 46.2753 31.6383 46.168 32.119C46.0653 32.5997 46.014 33.2063 46.014 33.939C46.014 34.6717 46.0653 35.2783 46.168 35.759C46.2753 36.2397 46.4176 36.6223 46.595 36.907C46.7723 37.1917 46.9753 37.3923 47.204 37.509C47.4373 37.621 47.6776 37.677 47.925 37.677C48.177 37.677 48.4196 37.621 48.653 37.509C48.8863 37.3923 49.0916 37.1917 49.269 36.907C49.451 36.6223 49.5956 36.2397 49.703 35.759C49.8103 35.2783 49.864 34.6717 49.864 33.939Z" fill="#213E88"/>
<path d="M40.5178 9.76099C40.8025 9.76099 41.0521 9.72132 41.2668 9.64199C41.4815 9.55799 41.6611 9.44366 41.8058 9.29899C41.9551 9.15432 42.0671 8.98166 42.1418 8.78099C42.2165 8.58032 42.2538 8.36332 42.2538 8.12999C42.2538 7.57466 42.0998 7.15466 41.7918 6.86999C41.4838 6.58532 41.0591 6.44299 40.5178 6.44299C39.9765 6.44299 39.5518 6.58532 39.2438 6.86999C38.9358 7.15466 38.7818 7.57466 38.7818 8.12999C38.7818 8.36332 38.8191 8.58032 38.8938 8.78099C38.9685 8.98166 39.0781 9.15432 39.2228 9.29899C39.3721 9.44366 39.5541 9.55799 39.7688 9.64199C39.9835 9.72132 40.2331 9.76099 40.5178 9.76099ZM40.5178 2.06799C40.2611 2.06799 40.0395 2.10766 39.8528 2.18699C39.6661 2.26632 39.5098 2.37366 39.3838 2.50899C39.2625 2.63966 39.1715 2.79132 39.1108 2.96399C39.0548 3.13666 39.0268 3.31866 39.0268 3.50999C39.0268 3.71066 39.0501 3.90666 39.0968 4.09799C39.1481 4.28466 39.2321 4.45266 39.3488 4.60199C39.4655 4.74666 39.6195 4.86332 39.8108 4.95199C40.0021 5.04066 40.2378 5.08499 40.5178 5.08499C40.7978 5.08499 41.0335 5.04066 41.2248 4.95199C41.4161 4.86332 41.5701 4.74666 41.6868 4.60199C41.8035 4.45266 41.8851 4.28466 41.9318 4.09799C41.9831 3.90666 42.0088 3.71066 42.0088 3.50999C42.0088 3.31866 41.9785 3.13666 41.9178 2.96399C41.8571 2.79132 41.7661 2.63966 41.6448 2.50899C41.5235 2.37366 41.3695 2.26632 41.1828 2.18699C40.9961 2.10766 40.7745 2.06799 40.5178 2.06799ZM42.2258 5.72199C42.8418 5.92266 43.2968 6.23066 43.5908 6.64599C43.8848 7.05666 44.0318 7.56066 44.0318 8.15799C44.0318 8.60599 43.9455 9.01199 43.7728 9.37599C43.6048 9.73999 43.3668 10.0503 43.0588 10.307C42.7508 10.5637 42.3798 10.762 41.9458 10.902C41.5165 11.042 41.0405 11.112 40.5178 11.112C39.9951 11.112 39.5168 11.042 39.0828 10.902C38.6535 10.762 38.2848 10.5637 37.9768 10.307C37.6688 10.0503 37.4285 9.73999 37.2558 9.37599C37.0878 9.01199 37.0038 8.60599 37.0038 8.15799C37.0038 7.56066 37.1508 7.05666 37.4448 6.64599C37.7388 6.23066 38.1938 5.92266 38.8098 5.72199C38.3198 5.51666 37.9511 5.22499 37.7038 4.84699C37.4611 4.46899 37.3398 4.01399 37.3398 3.48199C37.3398 3.09932 37.4168 2.74232 37.5708 2.41099C37.7295 2.07966 37.9488 1.79266 38.2288 1.54999C38.5088 1.30266 38.8425 1.11132 39.2298 0.975991C39.6218 0.835991 40.0511 0.765991 40.5178 0.765991C40.9845 0.765991 41.4115 0.835991 41.7988 0.975991C42.1908 1.11132 42.5268 1.30266 42.8068 1.54999C43.0868 1.79266 43.3038 2.07966 43.4578 2.41099C43.6165 2.74232 43.6958 3.09932 43.6958 3.48199C43.6958 4.01399 43.5721 4.46899 43.3248 4.84699C43.0821 5.22499 42.7158 5.51666 42.2258 5.72199Z" fill="#213E88"/>
<path d="M51.6489 5.93899C51.6489 6.82099 51.5532 7.58866 51.3619 8.24199C51.1752 8.89066 50.9139 9.42732 50.5779 9.85199C50.2465 10.2767 49.8522 10.594 49.3949 10.804C48.9422 11.0093 48.4522 11.112 47.9249 11.112C47.3975 11.112 46.9075 11.0093 46.4549 10.804C46.0069 10.594 45.6172 10.2767 45.2859 9.85199C44.9545 9.42732 44.6955 8.89066 44.5089 8.24199C44.3222 7.58866 44.2289 6.82099 44.2289 5.93899C44.2289 5.05232 44.3222 4.28466 44.5089 3.63599C44.6955 2.98732 44.9545 2.45066 45.2859 2.02599C45.6172 1.60132 46.0069 1.28632 46.4549 1.08099C46.9075 0.870991 47.3975 0.765991 47.9249 0.765991C48.4522 0.765991 48.9422 0.870991 49.3949 1.08099C49.8522 1.28632 50.2465 1.60132 50.5779 2.02599C50.9139 2.45066 51.1752 2.98732 51.3619 3.63599C51.5532 4.28466 51.6489 5.05232 51.6489 5.93899ZM49.8639 5.93899C49.8639 5.20632 49.8102 4.59966 49.7029 4.11899C49.5955 3.63832 49.4509 3.25566 49.2689 2.97099C49.0915 2.68632 48.8862 2.48799 48.6529 2.37599C48.4195 2.25932 48.1769 2.20099 47.9249 2.20099C47.6775 2.20099 47.4372 2.25932 47.2039 2.37599C46.9752 2.48799 46.7722 2.68632 46.5949 2.97099C46.4175 3.25566 46.2752 3.63832 46.1679 4.11899C46.0652 4.59966 46.0139 5.20632 46.0139 5.93899C46.0139 6.67166 46.0652 7.27832 46.1679 7.75899C46.2752 8.23966 46.4175 8.62232 46.5949 8.90699C46.7722 9.19166 46.9752 9.39232 47.2039 9.50899C47.4372 9.62099 47.6775 9.67699 47.9249 9.67699C48.1769 9.67699 48.4195 9.62099 48.6529 9.50899C48.8862 9.39232 49.0915 9.19166 49.2689 8.90699C49.4509 8.62232 49.5955 8.23966 49.7029 7.75899C49.8102 7.27832 49.8639 6.67166 49.8639 5.93899Z" fill="#213E88"/>
<path d="M159.644 244.878V245.627C159.644 245.851 159.621 246.033 159.574 246.173C159.527 246.308 159.481 246.423 159.434 246.516L155.598 254.412C155.519 254.575 155.407 254.715 155.262 254.832C155.117 254.944 154.924 255 154.681 255H153.428L157.341 247.265C157.43 247.106 157.516 246.962 157.6 246.831C157.689 246.696 157.787 246.567 157.894 246.446H153.05C152.943 246.446 152.849 246.406 152.77 246.327C152.691 246.248 152.651 246.154 152.651 246.047V244.878H159.644Z" fill="#213E88"/>
<path d="M166.463 247.818V255H165.406C165.177 255 165.033 254.895 164.972 254.685L164.853 254.111C164.559 254.41 164.235 254.652 163.88 254.839C163.525 255.021 163.108 255.112 162.627 255.112C162.235 255.112 161.887 255.047 161.584 254.916C161.285 254.781 161.033 254.592 160.828 254.349C160.623 254.106 160.466 253.819 160.359 253.488C160.256 253.152 160.205 252.783 160.205 252.382V247.818H161.934V252.382C161.934 252.821 162.034 253.161 162.235 253.404C162.44 253.642 162.746 253.761 163.152 253.761C163.451 253.761 163.731 253.696 163.992 253.565C164.253 253.43 164.501 253.245 164.734 253.012V247.818H166.463Z" fill="#213E88"/>
<path d="M216.06 253.761C216.345 253.761 216.594 253.721 216.809 253.642C217.024 253.558 217.203 253.444 217.348 253.299C217.497 253.154 217.609 252.982 217.684 252.781C217.759 252.58 217.796 252.363 217.796 252.13C217.796 251.575 217.642 251.155 217.334 250.87C217.026 250.585 216.601 250.443 216.06 250.443C215.519 250.443 215.094 250.585 214.786 250.87C214.478 251.155 214.324 251.575 214.324 252.13C214.324 252.363 214.361 252.58 214.436 252.781C214.511 252.982 214.62 253.154 214.765 253.299C214.914 253.444 215.096 253.558 215.311 253.642C215.526 253.721 215.775 253.761 216.06 253.761ZM216.06 246.068C215.803 246.068 215.582 246.108 215.395 246.187C215.208 246.266 215.052 246.374 214.926 246.509C214.805 246.64 214.714 246.791 214.653 246.964C214.597 247.137 214.569 247.319 214.569 247.51C214.569 247.711 214.592 247.907 214.639 248.098C214.69 248.285 214.774 248.453 214.891 248.602C215.008 248.747 215.162 248.863 215.353 248.952C215.544 249.041 215.78 249.085 216.06 249.085C216.34 249.085 216.576 249.041 216.767 248.952C216.958 248.863 217.112 248.747 217.229 248.602C217.346 248.453 217.427 248.285 217.474 248.098C217.525 247.907 217.551 247.711 217.551 247.51C217.551 247.319 217.521 247.137 217.46 246.964C217.399 246.791 217.308 246.64 217.187 246.509C217.066 246.374 216.912 246.266 216.725 246.187C216.538 246.108 216.317 246.068 216.06 246.068ZM217.768 249.722C218.384 249.923 218.839 250.231 219.133 250.646C219.427 251.057 219.574 251.561 219.574 252.158C219.574 252.606 219.488 253.012 219.315 253.376C219.147 253.74 218.909 254.05 218.601 254.307C218.293 254.564 217.922 254.762 217.488 254.902C217.059 255.042 216.583 255.112 216.06 255.112C215.537 255.112 215.059 255.042 214.625 254.902C214.196 254.762 213.827 254.564 213.519 254.307C213.211 254.05 212.971 253.74 212.798 253.376C212.63 253.012 212.546 252.606 212.546 252.158C212.546 251.561 212.693 251.057 212.987 250.646C213.281 250.231 213.736 249.923 214.352 249.722C213.862 249.517 213.493 249.225 213.246 248.847C213.003 248.469 212.882 248.014 212.882 247.482C212.882 247.099 212.959 246.742 213.113 246.411C213.272 246.08 213.491 245.793 213.771 245.55C214.051 245.303 214.385 245.111 214.772 244.976C215.164 244.836 215.593 244.766 216.06 244.766C216.527 244.766 216.954 244.836 217.341 244.976C217.733 245.111 218.069 245.303 218.349 245.55C218.629 245.793 218.846 246.08 219 246.411C219.159 246.742 219.238 247.099 219.238 247.482C219.238 248.014 219.114 248.469 218.867 248.847C218.624 249.225 218.258 249.517 217.768 249.722Z" fill="#213E88"/>
<path d="M226.463 247.818V255H225.406C225.177 255 225.033 254.895 224.972 254.685L224.853 254.111C224.559 254.41 224.235 254.652 223.88 254.839C223.525 255.021 223.108 255.112 222.627 255.112C222.235 255.112 221.887 255.047 221.584 254.916C221.285 254.781 221.033 254.592 220.828 254.349C220.623 254.106 220.466 253.819 220.359 253.488C220.256 253.152 220.205 252.783 220.205 252.382V247.818H221.934V252.382C221.934 252.821 222.034 253.161 222.235 253.404C222.44 253.642 222.746 253.761 223.152 253.761C223.451 253.761 223.731 253.696 223.992 253.565C224.253 253.43 224.501 253.245 224.734 253.012V247.818H226.463Z" fill="#213E88"/>
<path d="M277.31 247.916C277.31 248.481 277.455 248.912 277.744 249.211C278.038 249.505 278.453 249.652 278.99 249.652C279.27 249.652 279.52 249.608 279.739 249.519C279.958 249.43 280.143 249.309 280.292 249.155C280.441 249.001 280.553 248.819 280.628 248.609C280.707 248.399 280.747 248.173 280.747 247.93C280.747 247.655 280.705 247.41 280.621 247.195C280.537 246.976 280.418 246.791 280.264 246.642C280.11 246.493 279.926 246.378 279.711 246.299C279.501 246.22 279.27 246.18 279.018 246.18C278.757 246.18 278.521 246.224 278.311 246.313C278.101 246.397 277.921 246.516 277.772 246.67C277.623 246.824 277.508 247.008 277.429 247.223C277.35 247.433 277.31 247.664 277.31 247.916ZM279.606 251.073C279.685 250.975 279.76 250.879 279.83 250.786C279.9 250.693 279.968 250.599 280.033 250.506C279.8 250.655 279.543 250.77 279.263 250.849C278.983 250.924 278.689 250.961 278.381 250.961C278.031 250.961 277.688 250.9 277.352 250.779C277.016 250.658 276.717 250.476 276.456 250.233C276.195 249.986 275.982 249.682 275.819 249.323C275.66 248.959 275.581 248.534 275.581 248.049C275.581 247.596 275.665 247.172 275.833 246.775C276.001 246.378 276.237 246.031 276.54 245.732C276.843 245.433 277.207 245.198 277.632 245.025C278.057 244.852 278.526 244.766 279.039 244.766C279.557 244.766 280.021 244.848 280.432 245.011C280.847 245.174 281.2 245.403 281.489 245.697C281.783 245.991 282.007 246.343 282.161 246.754C282.32 247.165 282.399 247.615 282.399 248.105C282.399 248.418 282.371 248.714 282.315 248.994C282.264 249.274 282.189 249.545 282.091 249.806C281.993 250.063 281.874 250.315 281.734 250.562C281.594 250.809 281.438 251.054 281.265 251.297L278.948 254.601C278.869 254.713 278.75 254.809 278.591 254.888C278.432 254.963 278.253 255 278.052 255H276.463L279.606 251.073Z" fill="#213E88"/>
<path d="M289.463 247.818V255H288.406C288.177 255 288.033 254.895 287.972 254.685L287.853 254.111C287.559 254.41 287.235 254.652 286.88 254.839C286.525 255.021 286.108 255.112 285.627 255.112C285.235 255.112 284.887 255.047 284.584 254.916C284.285 254.781 284.033 254.592 283.828 254.349C283.623 254.106 283.466 253.819 283.359 253.488C283.256 253.152 283.205 252.783 283.205 252.382V247.818H284.934V252.382C284.934 252.821 285.034 253.161 285.235 253.404C285.44 253.642 285.746 253.761 286.152 253.761C286.451 253.761 286.731 253.696 286.992 253.565C287.253 253.43 287.501 253.245 287.734 253.012V247.818H289.463Z" fill="#213E88"/>
<path d="M62 235L62 4L64 4L64 235L62 235Z" fill="#213E88"/>
<path d="M64 235H312V237H64V235Z" fill="#213E88"/>
</svg>
