<svg width="294" height="180" viewBox="0 0 294 180" fill="none" xmlns="http://www.w3.org/2000/svg">
<path d="M0 0H294V180H0V0Z" fill="white"/>
<path fill-rule="evenodd" clip-rule="evenodd" d="M147 122C171.853 122 192 101.853 192 77C192 52.1472 171.853 32 147 32C122.147 32 102 52.1472 102 77C102 101.853 122.147 122 147 122ZM147 112C166.33 112 182 96.33 182 77C182 57.67 166.33 42 147 42C127.67 42 112 57.67 112 77C112 96.33 127.67 112 147 112Z" fill="#90CDF4"/>
<path d="M160.556 64.25V60.3125C160.556 59.5906 159.968 59 159.25 59H135.75C135.032 59 134.444 59.5906 134.444 60.3125V64.25H125.306C124.587 64.25 124 64.8406 124 65.5625V70.55C124 75.4965 129.573 80.8203 137.023 82.2477C139.259 86.9973 142.58 89.4828 145.542 90.2375V97.0625H140.319C138.516 97.0625 137.056 98.5309 137.056 100.344C137.056 100.705 137.349 101 137.708 101H157.292C157.651 101 157.944 100.705 157.944 100.344C157.944 98.5309 156.484 97.0625 154.681 97.0625H149.458V90.2375C152.42 89.4746 155.741 86.9973 157.977 82.2477C165.411 80.8285 171 75.5047 171 70.55V65.5625C171 64.8406 170.413 64.25 169.694 64.25H160.556ZM127.917 70.55V68.1875H134.444C134.444 71.4031 134.616 74.4383 135.448 77.7688C130.952 76.2184 127.917 72.9371 127.917 70.55V70.55ZM147.5 86.5625C143.175 86.5625 138.361 80.1313 138.361 68.8438V62.9375H156.639V68.8438C156.639 80.3691 151.678 86.5625 147.5 86.5625ZM167.083 70.55C167.083 72.9371 164.048 76.2184 159.552 77.7688C160.384 74.4383 160.556 71.3949 160.556 68.1875H167.083V70.55Z" fill="#213E88"/>
<path d="M54.199 140.928C54.199 141.412 54.323 141.782 54.571 142.038C54.823 142.29 55.179 142.416 55.639 142.416C55.879 142.416 56.093 142.378 56.281 142.302C56.469 142.226 56.627 142.122 56.755 141.99C56.883 141.858 56.979 141.702 57.043 141.522C57.111 141.342 57.145 141.148 57.145 140.94C57.145 140.704 57.109 140.494 57.037 140.31C56.965 140.122 56.863 139.964 56.731 139.836C56.599 139.708 56.441 139.61 56.257 139.542C56.077 139.474 55.879 139.44 55.663 139.44C55.439 139.44 55.237 139.478 55.057 139.554C54.877 139.626 54.723 139.728 54.595 139.86C54.467 139.992 54.369 140.15 54.301 140.334C54.233 140.514 54.199 140.712 54.199 140.928ZM56.167 143.634C56.235 143.55 56.299 143.468 56.359 143.388C56.419 143.308 56.477 143.228 56.533 143.148C56.333 143.276 56.113 143.374 55.873 143.442C55.633 143.506 55.381 143.538 55.117 143.538C54.817 143.538 54.523 143.486 54.235 143.382C53.947 143.278 53.691 143.122 53.467 142.914C53.243 142.702 53.061 142.442 52.921 142.134C52.785 141.822 52.717 141.458 52.717 141.042C52.717 140.654 52.789 140.29 52.933 139.95C53.077 139.61 53.279 139.312 53.539 139.056C53.799 138.8 54.111 138.598 54.475 138.45C54.839 138.302 55.241 138.228 55.681 138.228C56.125 138.228 56.523 138.298 56.875 138.438C57.231 138.578 57.533 138.774 57.781 139.026C58.033 139.278 58.225 139.58 58.357 139.932C58.493 140.284 58.561 140.67 58.561 141.09C58.561 141.358 58.537 141.612 58.489 141.852C58.445 142.092 58.381 142.324 58.297 142.548C58.213 142.768 58.111 142.984 57.991 143.196C57.871 143.408 57.737 143.618 57.589 143.826L55.603 146.658C55.535 146.754 55.433 146.836 55.297 146.904C55.161 146.968 55.007 147 54.835 147H53.473L56.167 143.634Z" fill="#213E88"/>
<path d="M59.096 146.184C59.096 146.06 59.118 145.942 59.162 145.83C59.21 145.718 59.274 145.622 59.354 145.542C59.434 145.462 59.53 145.398 59.642 145.35C59.754 145.302 59.874 145.278 60.002 145.278C60.13 145.278 60.248 145.302 60.356 145.35C60.468 145.398 60.564 145.462 60.644 145.542C60.728 145.622 60.794 145.718 60.842 145.83C60.89 145.942 60.914 146.06 60.914 146.184C60.914 146.312 60.89 146.432 60.842 146.544C60.794 146.652 60.728 146.746 60.644 146.826C60.564 146.906 60.468 146.968 60.356 147.012C60.248 147.06 60.13 147.084 60.002 147.084C59.874 147.084 59.754 147.06 59.642 147.012C59.53 146.968 59.434 146.906 59.354 146.826C59.274 146.746 59.21 146.652 59.162 146.544C59.118 146.432 59.096 146.312 59.096 146.184Z" fill="#213E88"/>
<path d="M67.0376 145.89V147H62.2376V145.89H63.9956V140.832C63.9956 140.632 64.0016 140.426 64.0136 140.214L62.7656 141.258C62.6936 141.314 62.6216 141.35 62.5496 141.366C62.4816 141.378 62.4156 141.378 62.3516 141.366C62.2916 141.354 62.2376 141.334 62.1896 141.306C62.1416 141.274 62.1056 141.24 62.0816 141.204L61.6136 140.562L64.2596 138.312H65.4776V145.89H67.0376Z" fill="#213E88"/>
<path d="M71.7745 140.844V147H70.2865V140.844H71.7745ZM71.9785 139.05C71.9785 139.178 71.9525 139.298 71.9005 139.41C71.8485 139.522 71.7785 139.62 71.6905 139.704C71.6065 139.788 71.5065 139.856 71.3905 139.908C71.2745 139.956 71.1505 139.98 71.0185 139.98C70.8905 139.98 70.7685 139.956 70.6525 139.908C70.5405 139.856 70.4425 139.788 70.3585 139.704C70.2745 139.62 70.2065 139.522 70.1545 139.41C70.1065 139.298 70.0825 139.178 70.0825 139.05C70.0825 138.918 70.1065 138.794 70.1545 138.678C70.2065 138.562 70.2745 138.462 70.3585 138.378C70.4425 138.294 70.5405 138.228 70.6525 138.18C70.7685 138.128 70.8905 138.102 71.0185 138.102C71.1505 138.102 71.2745 138.128 71.3905 138.18C71.5065 138.228 71.6065 138.294 71.6905 138.378C71.7785 138.462 71.8485 138.562 71.9005 138.678C71.9525 138.794 71.9785 138.918 71.9785 139.05Z" fill="#213E88"/>
<path d="M76.4414 142.044C76.4014 142.108 76.3594 142.154 76.3154 142.182C76.2714 142.206 76.2154 142.218 76.1474 142.218C76.0754 142.218 75.9974 142.198 75.9134 142.158C75.8334 142.118 75.7394 142.074 75.6314 142.026C75.5234 141.974 75.3994 141.928 75.2594 141.888C75.1234 141.848 74.9614 141.828 74.7734 141.828C74.4814 141.828 74.2514 141.89 74.0834 142.014C73.9194 142.138 73.8374 142.3 73.8374 142.5C73.8374 142.632 73.8794 142.744 73.9634 142.836C74.0514 142.924 74.1654 143.002 74.3054 143.07C74.4494 143.138 74.6114 143.2 74.7914 143.256C74.9714 143.308 75.1534 143.366 75.3374 143.43C75.5254 143.494 75.7094 143.568 75.8894 143.652C76.0694 143.732 76.2294 143.836 76.3694 143.964C76.5134 144.088 76.6274 144.238 76.7114 144.414C76.7994 144.59 76.8434 144.802 76.8434 145.05C76.8434 145.346 76.7894 145.62 76.6814 145.872C76.5774 146.12 76.4214 146.336 76.2134 146.52C76.0054 146.7 75.7474 146.842 75.4394 146.946C75.1354 147.046 74.7834 147.096 74.3834 147.096C74.1714 147.096 73.9634 147.076 73.7594 147.036C73.5594 147 73.3654 146.948 73.1774 146.88C72.9934 146.812 72.8214 146.732 72.6614 146.64C72.5054 146.548 72.3674 146.448 72.2474 146.34L72.5894 145.776C72.6334 145.708 72.6854 145.656 72.7454 145.62C72.8054 145.584 72.8814 145.566 72.9734 145.566C73.0654 145.566 73.1514 145.592 73.2314 145.644C73.3154 145.696 73.4114 145.752 73.5194 145.812C73.6274 145.872 73.7534 145.928 73.8974 145.98C74.0454 146.032 74.2314 146.058 74.4554 146.058C74.6314 146.058 74.7814 146.038 74.9054 145.998C75.0334 145.954 75.1374 145.898 75.2174 145.83C75.3014 145.762 75.3614 145.684 75.3974 145.596C75.4374 145.504 75.4574 145.41 75.4574 145.314C75.4574 145.17 75.4134 145.052 75.3254 144.96C75.2414 144.868 75.1274 144.788 74.9834 144.72C74.8434 144.652 74.6814 144.592 74.4974 144.54C74.3174 144.484 74.1314 144.424 73.9394 144.36C73.7514 144.296 73.5654 144.222 73.3814 144.138C73.2014 144.05 73.0394 143.94 72.8954 143.808C72.7554 143.676 72.6414 143.514 72.5534 143.322C72.4694 143.13 72.4274 142.898 72.4274 142.626C72.4274 142.374 72.4774 142.134 72.5774 141.906C72.6774 141.678 72.8234 141.48 73.0154 141.312C73.2114 141.14 73.4534 141.004 73.7414 140.904C74.0334 140.8 74.3694 140.748 74.7494 140.748C75.1734 140.748 75.5594 140.818 75.9074 140.958C76.2554 141.098 76.5454 141.282 76.7774 141.51L76.4414 142.044Z" fill="#213E88"/>
<path d="M82.4008 140.748C82.8568 140.748 83.2708 140.822 83.6428 140.97C84.0188 141.118 84.3388 141.328 84.6028 141.6C84.8708 141.872 85.0768 142.204 85.2208 142.596C85.3648 142.988 85.4368 143.426 85.4368 143.91C85.4368 144.398 85.3648 144.838 85.2208 145.23C85.0768 145.622 84.8708 145.956 84.6028 146.232C84.3388 146.508 84.0188 146.72 83.6428 146.868C83.2708 147.016 82.8568 147.09 82.4008 147.09C81.9408 147.09 81.5228 147.016 81.1468 146.868C80.7708 146.72 80.4488 146.508 80.1808 146.232C79.9168 145.956 79.7108 145.622 79.5628 145.23C79.4188 144.838 79.3468 144.398 79.3468 143.91C79.3468 143.426 79.4188 142.988 79.5628 142.596C79.7108 142.204 79.9168 141.872 80.1808 141.6C80.4488 141.328 80.7708 141.118 81.1468 140.97C81.5228 140.822 81.9408 140.748 82.4008 140.748ZM82.4008 145.95C82.9128 145.95 83.2908 145.778 83.5348 145.434C83.7828 145.09 83.9068 144.586 83.9068 143.922C83.9068 143.258 83.7828 142.752 83.5348 142.404C83.2908 142.056 82.9128 141.882 82.4008 141.882C81.8808 141.882 81.4948 142.058 81.2428 142.41C80.9948 142.758 80.8708 143.262 80.8708 143.922C80.8708 144.582 80.9948 145.086 81.2428 145.434C81.4948 145.778 81.8808 145.95 82.4008 145.95Z" fill="#213E88"/>
<path d="M87.3534 141.6C87.4774 141.476 87.6074 141.362 87.7434 141.258C87.8834 141.15 88.0294 141.06 88.1814 140.988C88.3374 140.912 88.5034 140.854 88.6794 140.814C88.8554 140.77 89.0474 140.748 89.2554 140.748C89.5914 140.748 89.8894 140.806 90.1494 140.922C90.4094 141.034 90.6254 141.194 90.7974 141.402C90.9734 141.606 91.1054 141.852 91.1934 142.14C91.2854 142.424 91.3314 142.738 91.3314 143.082V147H89.8494V143.082C89.8494 142.706 89.7634 142.416 89.5914 142.212C89.4194 142.004 89.1574 141.9 88.8054 141.9C88.5494 141.9 88.3094 141.958 88.0854 142.074C87.8614 142.19 87.6494 142.348 87.4494 142.548V147H85.9674V140.844H86.8734C87.0654 140.844 87.1914 140.934 87.2514 141.114L87.3534 141.6Z" fill="#213E88"/>
<path d="M96.5629 141.456C96.5629 141.56 96.5449 141.662 96.5089 141.762C96.4729 141.862 96.4249 141.944 96.3649 142.008L93.4429 145.86H96.4729V147H91.7209V146.382C91.7209 146.314 91.7369 146.234 91.7689 146.142C91.8009 146.046 91.8489 145.956 91.9129 145.872L94.8649 141.978H91.8949V140.844H96.5629V141.456Z" fill="#213E88"/>
<path d="M100.921 143.214C100.921 143.022 100.893 142.842 100.837 142.674C100.785 142.502 100.705 142.352 100.597 142.224C100.489 142.096 100.351 141.996 100.183 141.924C100.019 141.848 99.8269 141.81 99.6069 141.81C99.1789 141.81 98.8409 141.932 98.5929 142.176C98.3489 142.42 98.1929 142.766 98.1249 143.214H100.921ZM98.0949 144.108C98.1189 144.424 98.1749 144.698 98.2629 144.93C98.3509 145.158 98.4669 145.348 98.6109 145.5C98.7549 145.648 98.9249 145.76 99.1209 145.836C99.3209 145.908 99.5409 145.944 99.7809 145.944C100.021 145.944 100.227 145.916 100.399 145.86C100.575 145.804 100.727 145.742 100.855 145.674C100.987 145.606 101.101 145.544 101.197 145.488C101.297 145.432 101.393 145.404 101.485 145.404C101.609 145.404 101.701 145.45 101.761 145.542L102.187 146.082C102.023 146.274 101.839 146.436 101.635 146.568C101.431 146.696 101.217 146.8 100.993 146.88C100.773 146.956 100.547 147.01 100.315 147.042C100.087 147.074 99.8649 147.09 99.6489 147.09C99.2209 147.09 98.8229 147.02 98.4549 146.88C98.0869 146.736 97.7669 146.526 97.4949 146.25C97.2229 145.97 97.0089 145.626 96.8529 145.218C96.6969 144.806 96.6189 144.33 96.6189 143.79C96.6189 143.37 96.6869 142.976 96.8229 142.608C96.9589 142.236 97.1529 141.914 97.4049 141.642C97.6609 141.366 97.9709 141.148 98.3349 140.988C98.7029 140.828 99.1169 140.748 99.5769 140.748C99.9649 140.748 100.323 140.81 100.651 140.934C100.979 141.058 101.261 141.24 101.497 141.48C101.733 141.716 101.917 142.008 102.049 142.356C102.185 142.7 102.253 143.094 102.253 143.538C102.253 143.762 102.229 143.914 102.181 143.994C102.133 144.07 102.041 144.108 101.905 144.108H98.0949Z" fill="#213E88"/>
<path d="M107.333 143.772C107.517 143.772 107.677 143.748 107.813 143.7C107.949 143.648 108.061 143.578 108.149 143.49C108.241 143.402 108.309 143.296 108.353 143.172C108.401 143.048 108.425 142.912 108.425 142.764C108.425 142.46 108.333 142.22 108.149 142.044C107.969 141.864 107.697 141.774 107.333 141.774C106.969 141.774 106.695 141.864 106.511 142.044C106.331 142.22 106.241 142.46 106.241 142.764C106.241 142.908 106.263 143.042 106.307 143.166C106.355 143.29 106.423 143.398 106.511 143.49C106.603 143.578 106.717 143.648 106.853 143.7C106.993 143.748 107.153 143.772 107.333 143.772ZM109.007 147.276C109.007 147.156 108.971 147.058 108.899 146.982C108.827 146.906 108.729 146.848 108.605 146.808C108.481 146.764 108.335 146.732 108.167 146.712C108.003 146.692 107.827 146.678 107.639 146.67C107.455 146.658 107.263 146.648 107.063 146.64C106.867 146.632 106.675 146.616 106.487 146.592C106.323 146.684 106.189 146.792 106.085 146.916C105.985 147.04 105.935 147.184 105.935 147.348C105.935 147.456 105.961 147.556 106.013 147.648C106.069 147.744 106.155 147.826 106.271 147.894C106.391 147.962 106.545 148.014 106.733 148.05C106.921 148.09 107.151 148.11 107.423 148.11C107.699 148.11 107.937 148.088 108.137 148.044C108.337 148.004 108.501 147.946 108.629 147.87C108.761 147.798 108.857 147.71 108.917 147.606C108.977 147.506 109.007 147.396 109.007 147.276ZM110.483 141.054V141.606C110.483 141.782 110.377 141.89 110.165 141.93L109.613 142.032C109.697 142.244 109.739 142.476 109.739 142.728C109.739 143.032 109.677 143.308 109.553 143.556C109.433 143.8 109.265 144.008 109.049 144.18C108.833 144.352 108.577 144.486 108.281 144.582C107.989 144.674 107.673 144.72 107.333 144.72C107.213 144.72 107.097 144.714 106.985 144.702C106.873 144.69 106.763 144.674 106.655 144.654C106.463 144.77 106.367 144.9 106.367 145.044C106.367 145.168 106.423 145.26 106.535 145.32C106.651 145.376 106.803 145.416 106.991 145.44C107.179 145.464 107.393 145.48 107.633 145.488C107.873 145.492 108.119 145.504 108.371 145.524C108.623 145.544 108.869 145.58 109.109 145.632C109.349 145.68 109.563 145.758 109.751 145.866C109.939 145.974 110.089 146.122 110.201 146.31C110.317 146.494 110.375 146.732 110.375 147.024C110.375 147.296 110.307 147.56 110.171 147.816C110.039 148.072 109.845 148.3 109.589 148.5C109.337 148.7 109.025 148.86 108.653 148.98C108.285 149.104 107.865 149.166 107.393 149.166C106.929 149.166 106.525 149.12 106.181 149.028C105.837 148.94 105.551 148.82 105.323 148.668C105.095 148.52 104.925 148.348 104.813 148.152C104.701 147.956 104.645 147.752 104.645 147.54C104.645 147.252 104.731 147.012 104.903 146.82C105.079 146.624 105.319 146.468 105.623 146.352C105.459 146.268 105.329 146.156 105.233 146.016C105.137 145.876 105.089 145.692 105.089 145.464C105.089 145.372 105.105 145.278 105.137 145.182C105.173 145.082 105.223 144.984 105.287 144.888C105.355 144.792 105.439 144.702 105.539 144.618C105.639 144.53 105.757 144.452 105.893 144.384C105.581 144.216 105.335 143.992 105.155 143.712C104.979 143.432 104.891 143.104 104.891 142.728C104.891 142.424 104.951 142.15 105.071 141.906C105.195 141.658 105.365 141.448 105.581 141.276C105.801 141.1 106.059 140.966 106.355 140.874C106.655 140.782 106.981 140.736 107.333 140.736C107.597 140.736 107.845 140.764 108.077 140.82C108.309 140.872 108.521 140.95 108.713 141.054H110.483Z" fill="#213E88"/>
<path d="M114.683 143.214C114.683 143.022 114.655 142.842 114.599 142.674C114.547 142.502 114.467 142.352 114.359 142.224C114.251 142.096 114.113 141.996 113.945 141.924C113.781 141.848 113.589 141.81 113.369 141.81C112.941 141.81 112.603 141.932 112.355 142.176C112.111 142.42 111.955 142.766 111.887 143.214H114.683ZM111.857 144.108C111.881 144.424 111.937 144.698 112.025 144.93C112.113 145.158 112.229 145.348 112.373 145.5C112.517 145.648 112.687 145.76 112.883 145.836C113.083 145.908 113.303 145.944 113.543 145.944C113.783 145.944 113.989 145.916 114.161 145.86C114.337 145.804 114.489 145.742 114.617 145.674C114.749 145.606 114.863 145.544 114.959 145.488C115.059 145.432 115.155 145.404 115.247 145.404C115.371 145.404 115.463 145.45 115.523 145.542L115.949 146.082C115.785 146.274 115.601 146.436 115.397 146.568C115.193 146.696 114.979 146.8 114.755 146.88C114.535 146.956 114.309 147.01 114.077 147.042C113.849 147.074 113.627 147.09 113.411 147.09C112.983 147.09 112.585 147.02 112.217 146.88C111.849 146.736 111.529 146.526 111.257 146.25C110.985 145.97 110.771 145.626 110.615 145.218C110.459 144.806 110.381 144.33 110.381 143.79C110.381 143.37 110.449 142.976 110.585 142.608C110.721 142.236 110.915 141.914 111.167 141.642C111.423 141.366 111.733 141.148 112.097 140.988C112.465 140.828 112.879 140.748 113.339 140.748C113.727 140.748 114.085 140.81 114.413 140.934C114.741 141.058 115.023 141.24 115.259 141.48C115.495 141.716 115.679 142.008 115.811 142.356C115.947 142.7 116.015 143.094 116.015 143.538C116.015 143.762 115.991 143.914 115.943 143.994C115.895 144.07 115.803 144.108 115.667 144.108H111.857Z" fill="#213E88"/>
<path d="M116.528 147V140.844H117.434C117.626 140.844 117.752 140.934 117.812 141.114L117.908 141.57C118.016 141.45 118.128 141.34 118.244 141.24C118.364 141.14 118.49 141.054 118.622 140.982C118.758 140.91 118.902 140.854 119.054 140.814C119.21 140.77 119.38 140.748 119.564 140.748C119.952 140.748 120.27 140.854 120.518 141.066C120.77 141.274 120.958 141.552 121.082 141.9C121.178 141.696 121.298 141.522 121.442 141.378C121.586 141.23 121.744 141.11 121.916 141.018C122.088 140.926 122.27 140.858 122.462 140.814C122.658 140.77 122.854 140.748 123.05 140.748C123.39 140.748 123.692 140.8 123.956 140.904C124.22 141.008 124.442 141.16 124.622 141.36C124.802 141.56 124.938 141.804 125.03 142.092C125.126 142.38 125.174 142.71 125.174 143.082V147H123.692V143.082C123.692 142.69 123.606 142.396 123.434 142.2C123.262 142 123.01 141.9 122.678 141.9C122.526 141.9 122.384 141.926 122.252 141.978C122.124 142.03 122.01 142.106 121.91 142.206C121.814 142.302 121.738 142.424 121.682 142.572C121.626 142.72 121.598 142.89 121.598 143.082V147H120.11V143.082C120.11 142.67 120.026 142.37 119.858 142.182C119.694 141.994 119.452 141.9 119.132 141.9C118.916 141.9 118.714 141.954 118.526 142.062C118.342 142.166 118.17 142.31 118.01 142.494V147H116.528Z" fill="#213E88"/>
<path d="M127.518 140.844V147H126.03V140.844H127.518ZM127.722 139.05C127.722 139.178 127.696 139.298 127.644 139.41C127.592 139.522 127.522 139.62 127.434 139.704C127.35 139.788 127.25 139.856 127.134 139.908C127.018 139.956 126.894 139.98 126.762 139.98C126.634 139.98 126.512 139.956 126.396 139.908C126.284 139.856 126.186 139.788 126.102 139.704C126.018 139.62 125.95 139.522 125.898 139.41C125.85 139.298 125.826 139.178 125.826 139.05C125.826 138.918 125.85 138.794 125.898 138.678C125.95 138.562 126.018 138.462 126.102 138.378C126.186 138.294 126.284 138.228 126.396 138.18C126.512 138.128 126.634 138.102 126.762 138.102C126.894 138.102 127.018 138.128 127.134 138.18C127.25 138.228 127.35 138.294 127.434 138.378C127.522 138.462 127.592 138.562 127.644 138.678C127.696 138.794 127.722 138.918 127.722 139.05Z" fill="#213E88"/>
<path d="M132.293 142.416C132.125 142.212 131.941 142.068 131.741 141.984C131.545 141.9 131.333 141.858 131.105 141.858C130.881 141.858 130.679 141.9 130.499 141.984C130.319 142.068 130.165 142.196 130.037 142.368C129.909 142.536 129.811 142.752 129.743 143.016C129.675 143.276 129.641 143.584 129.641 143.94C129.641 144.3 129.669 144.606 129.725 144.858C129.785 145.106 129.869 145.31 129.977 145.47C130.085 145.626 130.217 145.74 130.373 145.812C130.529 145.88 130.703 145.914 130.895 145.914C131.203 145.914 131.465 145.85 131.681 145.722C131.897 145.594 132.101 145.412 132.293 145.176V142.416ZM133.775 138.084V147H132.869C132.673 147 132.549 146.91 132.497 146.73L132.371 146.136C132.123 146.42 131.837 146.65 131.513 146.826C131.193 147.002 130.819 147.09 130.391 147.09C130.055 147.09 129.747 147.02 129.467 146.88C129.187 146.74 128.945 146.538 128.741 146.274C128.541 146.006 128.385 145.676 128.273 145.284C128.165 144.892 128.111 144.444 128.111 143.94C128.111 143.484 128.173 143.06 128.297 142.668C128.421 142.276 128.599 141.936 128.831 141.648C129.063 141.36 129.341 141.136 129.665 140.976C129.989 140.812 130.353 140.73 130.757 140.73C131.101 140.73 131.395 140.784 131.639 140.892C131.883 141 132.101 141.146 132.293 141.33V138.084H133.775Z" fill="#213E88"/>
<path d="M138.502 142.416C138.334 142.212 138.15 142.068 137.95 141.984C137.754 141.9 137.542 141.858 137.314 141.858C137.09 141.858 136.888 141.9 136.708 141.984C136.528 142.068 136.374 142.196 136.246 142.368C136.118 142.536 136.02 142.752 135.952 143.016C135.884 143.276 135.85 143.584 135.85 143.94C135.85 144.3 135.878 144.606 135.934 144.858C135.994 145.106 136.078 145.31 136.186 145.47C136.294 145.626 136.426 145.74 136.582 145.812C136.738 145.88 136.912 145.914 137.104 145.914C137.412 145.914 137.674 145.85 137.89 145.722C138.106 145.594 138.31 145.412 138.502 145.176V142.416ZM139.984 138.084V147H139.078C138.882 147 138.758 146.91 138.706 146.73L138.58 146.136C138.332 146.42 138.046 146.65 137.722 146.826C137.402 147.002 137.028 147.09 136.6 147.09C136.264 147.09 135.956 147.02 135.676 146.88C135.396 146.74 135.154 146.538 134.95 146.274C134.75 146.006 134.594 145.676 134.482 145.284C134.374 144.892 134.32 144.444 134.32 143.94C134.32 143.484 134.382 143.06 134.506 142.668C134.63 142.276 134.808 141.936 135.04 141.648C135.272 141.36 135.55 141.136 135.874 140.976C136.198 140.812 136.562 140.73 136.966 140.73C137.31 140.73 137.604 140.784 137.848 140.892C138.092 141 138.31 141.146 138.502 141.33V138.084H139.984Z" fill="#213E88"/>
<path d="M144.812 143.214C144.812 143.022 144.784 142.842 144.728 142.674C144.676 142.502 144.596 142.352 144.488 142.224C144.38 142.096 144.242 141.996 144.074 141.924C143.91 141.848 143.718 141.81 143.498 141.81C143.07 141.81 142.732 141.932 142.484 142.176C142.24 142.42 142.084 142.766 142.016 143.214H144.812ZM141.986 144.108C142.01 144.424 142.066 144.698 142.154 144.93C142.242 145.158 142.358 145.348 142.502 145.5C142.646 145.648 142.816 145.76 143.012 145.836C143.212 145.908 143.432 145.944 143.672 145.944C143.912 145.944 144.118 145.916 144.29 145.86C144.466 145.804 144.618 145.742 144.746 145.674C144.878 145.606 144.992 145.544 145.088 145.488C145.188 145.432 145.284 145.404 145.376 145.404C145.5 145.404 145.592 145.45 145.652 145.542L146.078 146.082C145.914 146.274 145.73 146.436 145.526 146.568C145.322 146.696 145.108 146.8 144.884 146.88C144.664 146.956 144.438 147.01 144.206 147.042C143.978 147.074 143.756 147.09 143.54 147.09C143.112 147.09 142.714 147.02 142.346 146.88C141.978 146.736 141.658 146.526 141.386 146.25C141.114 145.97 140.9 145.626 140.744 145.218C140.588 144.806 140.51 144.33 140.51 143.79C140.51 143.37 140.578 142.976 140.714 142.608C140.85 142.236 141.044 141.914 141.296 141.642C141.552 141.366 141.862 141.148 142.226 140.988C142.594 140.828 143.008 140.748 143.468 140.748C143.856 140.748 144.214 140.81 144.542 140.934C144.87 141.058 145.152 141.24 145.388 141.48C145.624 141.716 145.808 142.008 145.94 142.356C146.076 142.7 146.144 143.094 146.144 143.538C146.144 143.762 146.12 143.914 146.072 143.994C146.024 144.07 145.932 144.108 145.796 144.108H141.986Z" fill="#213E88"/>
<path d="M148.157 138.084V147H146.675V138.084H148.157Z" fill="#213E88"/>
<path d="M152.897 142.416C152.729 142.212 152.545 142.068 152.345 141.984C152.149 141.9 151.937 141.858 151.709 141.858C151.485 141.858 151.283 141.9 151.103 141.984C150.923 142.068 150.769 142.196 150.641 142.368C150.513 142.536 150.415 142.752 150.347 143.016C150.279 143.276 150.245 143.584 150.245 143.94C150.245 144.3 150.273 144.606 150.329 144.858C150.389 145.106 150.473 145.31 150.581 145.47C150.689 145.626 150.821 145.74 150.977 145.812C151.133 145.88 151.307 145.914 151.499 145.914C151.807 145.914 152.069 145.85 152.285 145.722C152.501 145.594 152.705 145.412 152.897 145.176V142.416ZM154.379 138.084V147H153.473C153.277 147 153.153 146.91 153.101 146.73L152.975 146.136C152.727 146.42 152.441 146.65 152.117 146.826C151.797 147.002 151.423 147.09 150.995 147.09C150.659 147.09 150.351 147.02 150.071 146.88C149.791 146.74 149.549 146.538 149.345 146.274C149.145 146.006 148.989 145.676 148.877 145.284C148.769 144.892 148.715 144.444 148.715 143.94C148.715 143.484 148.777 143.06 148.901 142.668C149.025 142.276 149.203 141.936 149.435 141.648C149.667 141.36 149.945 141.136 150.269 140.976C150.593 140.812 150.957 140.73 151.361 140.73C151.705 140.73 151.999 140.784 152.243 140.892C152.487 141 152.705 141.146 152.897 141.33V138.084H154.379Z" fill="#213E88"/>
<path d="M159.208 143.214C159.208 143.022 159.18 142.842 159.124 142.674C159.072 142.502 158.992 142.352 158.884 142.224C158.776 142.096 158.638 141.996 158.47 141.924C158.306 141.848 158.114 141.81 157.894 141.81C157.466 141.81 157.128 141.932 156.88 142.176C156.636 142.42 156.48 142.766 156.412 143.214H159.208ZM156.382 144.108C156.406 144.424 156.462 144.698 156.55 144.93C156.638 145.158 156.754 145.348 156.898 145.5C157.042 145.648 157.212 145.76 157.408 145.836C157.608 145.908 157.828 145.944 158.068 145.944C158.308 145.944 158.514 145.916 158.686 145.86C158.862 145.804 159.014 145.742 159.142 145.674C159.274 145.606 159.388 145.544 159.484 145.488C159.584 145.432 159.68 145.404 159.772 145.404C159.896 145.404 159.988 145.45 160.048 145.542L160.474 146.082C160.31 146.274 160.126 146.436 159.922 146.568C159.718 146.696 159.504 146.8 159.28 146.88C159.06 146.956 158.834 147.01 158.602 147.042C158.374 147.074 158.152 147.09 157.936 147.09C157.508 147.09 157.11 147.02 156.742 146.88C156.374 146.736 156.054 146.526 155.782 146.25C155.51 145.97 155.296 145.626 155.14 145.218C154.984 144.806 154.906 144.33 154.906 143.79C154.906 143.37 154.974 142.976 155.11 142.608C155.246 142.236 155.44 141.914 155.692 141.642C155.948 141.366 156.258 141.148 156.622 140.988C156.99 140.828 157.404 140.748 157.864 140.748C158.252 140.748 158.61 140.81 158.938 140.934C159.266 141.058 159.548 141.24 159.784 141.48C160.02 141.716 160.204 142.008 160.336 142.356C160.472 142.7 160.54 143.094 160.54 143.538C160.54 143.762 160.516 143.914 160.468 143.994C160.42 144.07 160.328 144.108 160.192 144.108H156.382Z" fill="#213E88"/>
<path d="M164.852 138.084V143.19H165.128C165.228 143.19 165.306 143.178 165.362 143.154C165.422 143.126 165.482 143.072 165.542 142.992L167.072 141.102C167.136 141.018 167.206 140.954 167.282 140.91C167.362 140.866 167.464 140.844 167.588 140.844H168.944L167.03 143.13C166.894 143.31 166.746 143.448 166.586 143.544C166.67 143.604 166.744 143.674 166.808 143.754C166.876 143.834 166.94 143.92 167 144.012L169.052 147H167.714C167.598 147 167.498 146.982 167.414 146.946C167.33 146.906 167.26 146.836 167.204 146.736L165.632 144.402C165.576 144.31 165.518 144.25 165.458 144.222C165.398 144.194 165.308 144.18 165.188 144.18H164.852V147H163.37V138.084H164.852Z" fill="#213E88"/>
<path d="M170.68 138.084V147H169.198V138.084H170.68Z" fill="#213E88"/>
<path d="M174.809 144.372C174.381 144.392 174.021 144.43 173.729 144.486C173.437 144.538 173.203 144.606 173.027 144.69C172.851 144.774 172.725 144.872 172.649 144.984C172.573 145.096 172.535 145.218 172.535 145.35C172.535 145.61 172.611 145.796 172.763 145.908C172.919 146.02 173.121 146.076 173.369 146.076C173.673 146.076 173.935 146.022 174.155 145.914C174.379 145.802 174.597 145.634 174.809 145.41V144.372ZM171.413 141.702C172.121 141.054 172.973 140.73 173.969 140.73C174.329 140.73 174.651 140.79 174.935 140.91C175.219 141.026 175.459 141.19 175.655 141.402C175.851 141.61 175.999 141.86 176.099 142.152C176.203 142.444 176.255 142.764 176.255 143.112V147H175.583C175.443 147 175.335 146.98 175.259 146.94C175.183 146.896 175.123 146.81 175.079 146.682L174.947 146.238C174.791 146.378 174.639 146.502 174.491 146.61C174.343 146.714 174.189 146.802 174.029 146.874C173.869 146.946 173.697 147 173.513 147.036C173.333 147.076 173.133 147.096 172.913 147.096C172.653 147.096 172.413 147.062 172.193 146.994C171.973 146.922 171.783 146.816 171.623 146.676C171.463 146.536 171.339 146.362 171.251 146.154C171.163 145.946 171.119 145.704 171.119 145.428C171.119 145.272 171.145 145.118 171.197 144.966C171.249 144.81 171.333 144.662 171.449 144.522C171.569 144.382 171.723 144.25 171.911 144.126C172.099 144.002 172.329 143.894 172.601 143.802C172.877 143.71 173.197 143.636 173.561 143.58C173.925 143.52 174.341 143.484 174.809 143.472V143.112C174.809 142.7 174.721 142.396 174.545 142.2C174.369 142 174.115 141.9 173.783 141.9C173.543 141.9 173.343 141.928 173.183 141.984C173.027 142.04 172.889 142.104 172.769 142.176C172.649 142.244 172.539 142.306 172.439 142.362C172.343 142.418 172.235 142.446 172.115 142.446C172.011 142.446 171.923 142.42 171.851 142.368C171.779 142.312 171.721 142.248 171.677 142.176L171.413 141.702Z" fill="#213E88"/>
<path d="M178.436 141.6C178.56 141.476 178.69 141.362 178.826 141.258C178.966 141.15 179.112 141.06 179.264 140.988C179.42 140.912 179.586 140.854 179.762 140.814C179.938 140.77 180.13 140.748 180.338 140.748C180.674 140.748 180.972 140.806 181.232 140.922C181.492 141.034 181.708 141.194 181.88 141.402C182.056 141.606 182.188 141.852 182.276 142.14C182.368 142.424 182.414 142.738 182.414 143.082V147H180.932V143.082C180.932 142.706 180.846 142.416 180.674 142.212C180.502 142.004 180.24 141.9 179.888 141.9C179.632 141.9 179.392 141.958 179.168 142.074C178.944 142.19 178.732 142.348 178.532 142.548V147H177.05V140.844H177.956C178.148 140.844 178.274 140.934 178.334 141.114L178.436 141.6Z" fill="#213E88"/>
<path d="M185.194 147.096C184.658 147.096 184.246 146.946 183.958 146.646C183.674 146.342 183.532 145.924 183.532 145.392V141.954H182.902C182.822 141.954 182.754 141.928 182.698 141.876C182.642 141.824 182.614 141.746 182.614 141.642V141.054L183.604 140.892L183.916 139.212C183.936 139.132 183.974 139.07 184.03 139.026C184.086 138.982 184.158 138.96 184.246 138.96H185.014V140.898H186.658V141.954H185.014V145.29C185.014 145.482 185.06 145.632 185.152 145.74C185.248 145.848 185.378 145.902 185.542 145.902C185.634 145.902 185.71 145.892 185.77 145.872C185.834 145.848 185.888 145.824 185.932 145.8C185.98 145.776 186.022 145.754 186.058 145.734C186.094 145.71 186.13 145.698 186.166 145.698C186.21 145.698 186.246 145.71 186.274 145.734C186.302 145.754 186.332 145.786 186.364 145.83L186.808 146.55C186.592 146.73 186.344 146.866 186.064 146.958C185.784 147.05 185.494 147.096 185.194 147.096Z" fill="#213E88"/>
<path d="M195.797 140.844L193.84 147H192.653C192.517 147 192.422 146.912 192.37 146.736L191.267 143.178C191.231 143.058 191.197 142.94 191.165 142.824C191.137 142.704 191.112 142.584 191.092 142.464C191.068 142.584 191.04 142.706 191.008 142.83C190.98 142.95 190.949 143.07 190.913 143.19L189.791 146.736C189.743 146.912 189.637 147 189.473 147H188.333L186.383 140.844H187.564C187.672 140.844 187.764 140.87 187.84 140.922C187.916 140.974 187.967 141.04 187.991 141.12L188.873 144.408C188.917 144.588 188.955 144.764 188.987 144.936C189.023 145.108 189.053 145.28 189.077 145.452C189.121 145.28 189.167 145.108 189.215 144.936C189.267 144.764 189.321 144.588 189.377 144.408L190.396 141.108C190.42 141.028 190.467 140.962 190.535 140.91C190.607 140.858 190.693 140.832 190.793 140.832H191.447C191.551 140.832 191.639 140.858 191.711 140.91C191.787 140.962 191.837 141.028 191.861 141.108L192.851 144.408C192.903 144.588 192.951 144.766 192.995 144.942C193.043 145.114 193.089 145.286 193.133 145.458C193.185 145.118 193.259 144.768 193.355 144.408L194.261 141.12C194.289 141.04 194.339 140.974 194.411 140.922C194.483 140.87 194.569 140.844 194.669 140.844H195.797Z" fill="#213E88"/>
<path d="M199.209 144.372C198.781 144.392 198.421 144.43 198.129 144.486C197.837 144.538 197.603 144.606 197.427 144.69C197.251 144.774 197.125 144.872 197.049 144.984C196.973 145.096 196.935 145.218 196.935 145.35C196.935 145.61 197.011 145.796 197.163 145.908C197.319 146.02 197.521 146.076 197.769 146.076C198.073 146.076 198.335 146.022 198.555 145.914C198.779 145.802 198.997 145.634 199.209 145.41V144.372ZM195.813 141.702C196.521 141.054 197.373 140.73 198.369 140.73C198.729 140.73 199.051 140.79 199.335 140.91C199.619 141.026 199.859 141.19 200.055 141.402C200.251 141.61 200.399 141.86 200.499 142.152C200.603 142.444 200.655 142.764 200.655 143.112V147H199.983C199.843 147 199.735 146.98 199.659 146.94C199.583 146.896 199.523 146.81 199.479 146.682L199.347 146.238C199.191 146.378 199.039 146.502 198.891 146.61C198.743 146.714 198.589 146.802 198.429 146.874C198.269 146.946 198.097 147 197.913 147.036C197.733 147.076 197.533 147.096 197.313 147.096C197.053 147.096 196.813 147.062 196.593 146.994C196.373 146.922 196.183 146.816 196.023 146.676C195.863 146.536 195.739 146.362 195.651 146.154C195.563 145.946 195.519 145.704 195.519 145.428C195.519 145.272 195.545 145.118 195.597 144.966C195.649 144.81 195.733 144.662 195.849 144.522C195.969 144.382 196.123 144.25 196.311 144.126C196.499 144.002 196.729 143.894 197.001 143.802C197.277 143.71 197.597 143.636 197.961 143.58C198.325 143.52 198.741 143.484 199.209 143.472V143.112C199.209 142.7 199.121 142.396 198.945 142.2C198.769 142 198.515 141.9 198.183 141.9C197.943 141.9 197.743 141.928 197.583 141.984C197.427 142.04 197.289 142.104 197.169 142.176C197.049 142.244 196.939 142.306 196.839 142.362C196.743 142.418 196.635 142.446 196.515 142.446C196.411 142.446 196.323 142.42 196.251 142.368C196.179 142.312 196.121 142.248 196.077 142.176L195.813 141.702Z" fill="#213E88"/>
<path d="M204.703 144.372C204.275 144.392 203.915 144.43 203.623 144.486C203.331 144.538 203.097 144.606 202.921 144.69C202.745 144.774 202.619 144.872 202.543 144.984C202.467 145.096 202.429 145.218 202.429 145.35C202.429 145.61 202.505 145.796 202.657 145.908C202.813 146.02 203.015 146.076 203.263 146.076C203.567 146.076 203.829 146.022 204.049 145.914C204.273 145.802 204.491 145.634 204.703 145.41V144.372ZM201.307 141.702C202.015 141.054 202.867 140.73 203.863 140.73C204.223 140.73 204.545 140.79 204.829 140.91C205.113 141.026 205.353 141.19 205.549 141.402C205.745 141.61 205.893 141.86 205.993 142.152C206.097 142.444 206.149 142.764 206.149 143.112V147H205.477C205.337 147 205.229 146.98 205.153 146.94C205.077 146.896 205.017 146.81 204.973 146.682L204.841 146.238C204.685 146.378 204.533 146.502 204.385 146.61C204.237 146.714 204.083 146.802 203.923 146.874C203.763 146.946 203.591 147 203.407 147.036C203.227 147.076 203.027 147.096 202.807 147.096C202.547 147.096 202.307 147.062 202.087 146.994C201.867 146.922 201.677 146.816 201.517 146.676C201.357 146.536 201.233 146.362 201.145 146.154C201.057 145.946 201.013 145.704 201.013 145.428C201.013 145.272 201.039 145.118 201.091 144.966C201.143 144.81 201.227 144.662 201.343 144.522C201.463 144.382 201.617 144.25 201.805 144.126C201.993 144.002 202.223 143.894 202.495 143.802C202.771 143.71 203.091 143.636 203.455 143.58C203.819 143.52 204.235 143.484 204.703 143.472V143.112C204.703 142.7 204.615 142.396 204.439 142.2C204.263 142 204.009 141.9 203.677 141.9C203.437 141.9 203.237 141.928 203.077 141.984C202.921 142.04 202.783 142.104 202.663 142.176C202.543 142.244 202.433 142.306 202.333 142.362C202.237 142.418 202.129 142.446 202.009 142.446C201.905 142.446 201.817 142.42 201.745 142.368C201.673 142.312 201.615 142.248 201.571 142.176L201.307 141.702Z" fill="#213E88"/>
<path d="M208.343 141.912C208.535 141.544 208.763 141.256 209.027 141.048C209.291 140.836 209.603 140.73 209.963 140.73C210.247 140.73 210.475 140.792 210.647 140.916L210.551 142.026C210.531 142.098 210.501 142.15 210.461 142.182C210.425 142.21 210.375 142.224 210.311 142.224C210.251 142.224 210.161 142.214 210.041 142.194C209.925 142.174 209.811 142.164 209.699 142.164C209.535 142.164 209.389 142.188 209.261 142.236C209.133 142.284 209.017 142.354 208.913 142.446C208.813 142.534 208.723 142.642 208.643 142.77C208.567 142.898 208.495 143.044 208.427 143.208V147H206.945V140.844H207.815C207.967 140.844 208.073 140.872 208.133 140.928C208.193 140.98 208.233 141.076 208.253 141.216L208.343 141.912Z" fill="#213E88"/>
<path d="M214.521 142.416C214.353 142.212 214.169 142.068 213.969 141.984C213.773 141.9 213.561 141.858 213.333 141.858C213.109 141.858 212.907 141.9 212.727 141.984C212.547 142.068 212.393 142.196 212.265 142.368C212.137 142.536 212.039 142.752 211.971 143.016C211.903 143.276 211.869 143.584 211.869 143.94C211.869 144.3 211.897 144.606 211.953 144.858C212.013 145.106 212.097 145.31 212.205 145.47C212.313 145.626 212.445 145.74 212.601 145.812C212.757 145.88 212.931 145.914 213.123 145.914C213.431 145.914 213.693 145.85 213.909 145.722C214.125 145.594 214.329 145.412 214.521 145.176V142.416ZM216.003 138.084V147H215.097C214.901 147 214.777 146.91 214.725 146.73L214.599 146.136C214.351 146.42 214.065 146.65 213.741 146.826C213.421 147.002 213.047 147.09 212.619 147.09C212.283 147.09 211.975 147.02 211.695 146.88C211.415 146.74 211.173 146.538 210.969 146.274C210.769 146.006 210.613 145.676 210.501 145.284C210.393 144.892 210.339 144.444 210.339 143.94C210.339 143.484 210.401 143.06 210.525 142.668C210.649 142.276 210.827 141.936 211.059 141.648C211.291 141.36 211.569 141.136 211.893 140.976C212.217 140.812 212.581 140.73 212.985 140.73C213.329 140.73 213.623 140.784 213.867 140.892C214.111 141 214.329 141.146 214.521 141.33V138.084H216.003Z" fill="#213E88"/>
<path d="M220.832 143.214C220.832 143.022 220.804 142.842 220.748 142.674C220.696 142.502 220.616 142.352 220.508 142.224C220.4 142.096 220.262 141.996 220.094 141.924C219.93 141.848 219.738 141.81 219.518 141.81C219.09 141.81 218.752 141.932 218.504 142.176C218.26 142.42 218.104 142.766 218.036 143.214H220.832ZM218.006 144.108C218.03 144.424 218.086 144.698 218.174 144.93C218.262 145.158 218.378 145.348 218.522 145.5C218.666 145.648 218.836 145.76 219.032 145.836C219.232 145.908 219.452 145.944 219.692 145.944C219.932 145.944 220.138 145.916 220.31 145.86C220.486 145.804 220.638 145.742 220.766 145.674C220.898 145.606 221.012 145.544 221.108 145.488C221.208 145.432 221.304 145.404 221.396 145.404C221.52 145.404 221.612 145.45 221.672 145.542L222.098 146.082C221.934 146.274 221.75 146.436 221.546 146.568C221.342 146.696 221.128 146.8 220.904 146.88C220.684 146.956 220.458 147.01 220.226 147.042C219.998 147.074 219.776 147.09 219.56 147.09C219.132 147.09 218.734 147.02 218.366 146.88C217.998 146.736 217.678 146.526 217.406 146.25C217.134 145.97 216.92 145.626 216.764 145.218C216.608 144.806 216.53 144.33 216.53 143.79C216.53 143.37 216.598 142.976 216.734 142.608C216.87 142.236 217.064 141.914 217.316 141.642C217.572 141.366 217.882 141.148 218.246 140.988C218.614 140.828 219.028 140.748 219.488 140.748C219.876 140.748 220.234 140.81 220.562 140.934C220.89 141.058 221.172 141.24 221.408 141.48C221.644 141.716 221.828 142.008 221.96 142.356C222.096 142.7 222.164 143.094 222.164 143.538C222.164 143.762 222.14 143.914 222.092 143.994C222.044 144.07 221.952 144.108 221.816 144.108H218.006Z" fill="#213E88"/>
<path d="M224.074 141.912C224.266 141.544 224.494 141.256 224.758 141.048C225.022 140.836 225.334 140.73 225.694 140.73C225.978 140.73 226.206 140.792 226.378 140.916L226.282 142.026C226.262 142.098 226.232 142.15 226.192 142.182C226.156 142.21 226.106 142.224 226.042 142.224C225.982 142.224 225.892 142.214 225.772 142.194C225.656 142.174 225.542 142.164 225.43 142.164C225.266 142.164 225.12 142.188 224.992 142.236C224.864 142.284 224.748 142.354 224.644 142.446C224.544 142.534 224.454 142.642 224.374 142.77C224.298 142.898 224.226 143.044 224.158 143.208V147H222.676V140.844H223.546C223.698 140.844 223.804 140.872 223.864 140.928C223.924 140.98 223.964 141.076 223.984 141.216L224.074 141.912Z" fill="#213E88"/>
<path d="M228.089 140.844V147H226.601V140.844H228.089ZM228.293 139.05C228.293 139.178 228.267 139.298 228.215 139.41C228.163 139.522 228.093 139.62 228.005 139.704C227.921 139.788 227.821 139.856 227.705 139.908C227.589 139.956 227.465 139.98 227.333 139.98C227.205 139.98 227.083 139.956 226.967 139.908C226.855 139.856 226.757 139.788 226.673 139.704C226.589 139.62 226.521 139.522 226.469 139.41C226.421 139.298 226.397 139.178 226.397 139.05C226.397 138.918 226.421 138.794 226.469 138.678C226.521 138.562 226.589 138.462 226.673 138.378C226.757 138.294 226.855 138.228 226.967 138.18C227.083 138.128 227.205 138.102 227.333 138.102C227.465 138.102 227.589 138.128 227.705 138.18C227.821 138.228 227.921 138.294 228.005 138.378C228.093 138.462 228.163 138.562 228.215 138.678C228.267 138.794 228.293 138.918 228.293 139.05Z" fill="#213E88"/>
<path d="M230.385 141.6C230.509 141.476 230.639 141.362 230.775 141.258C230.915 141.15 231.061 141.06 231.213 140.988C231.369 140.912 231.535 140.854 231.711 140.814C231.887 140.77 232.079 140.748 232.287 140.748C232.623 140.748 232.921 140.806 233.181 140.922C233.441 141.034 233.657 141.194 233.829 141.402C234.005 141.606 234.137 141.852 234.225 142.14C234.317 142.424 234.363 142.738 234.363 143.082V147H232.881V143.082C232.881 142.706 232.795 142.416 232.623 142.212C232.451 142.004 232.189 141.9 231.837 141.9C231.581 141.9 231.341 141.958 231.117 142.074C230.893 142.19 230.681 142.348 230.481 142.548V147H228.999V140.844H229.905C230.097 140.844 230.223 140.934 230.283 141.114L230.385 141.6Z" fill="#213E88"/>
<path d="M237.423 143.772C237.607 143.772 237.767 143.748 237.903 143.7C238.039 143.648 238.151 143.578 238.239 143.49C238.331 143.402 238.399 143.296 238.443 143.172C238.491 143.048 238.515 142.912 238.515 142.764C238.515 142.46 238.423 142.22 238.239 142.044C238.059 141.864 237.787 141.774 237.423 141.774C237.059 141.774 236.785 141.864 236.601 142.044C236.421 142.22 236.331 142.46 236.331 142.764C236.331 142.908 236.353 143.042 236.397 143.166C236.445 143.29 236.513 143.398 236.601 143.49C236.693 143.578 236.807 143.648 236.943 143.7C237.083 143.748 237.243 143.772 237.423 143.772ZM239.097 147.276C239.097 147.156 239.061 147.058 238.989 146.982C238.917 146.906 238.819 146.848 238.695 146.808C238.571 146.764 238.425 146.732 238.257 146.712C238.093 146.692 237.917 146.678 237.729 146.67C237.545 146.658 237.353 146.648 237.153 146.64C236.957 146.632 236.765 146.616 236.577 146.592C236.413 146.684 236.279 146.792 236.175 146.916C236.075 147.04 236.025 147.184 236.025 147.348C236.025 147.456 236.051 147.556 236.103 147.648C236.159 147.744 236.245 147.826 236.361 147.894C236.481 147.962 236.635 148.014 236.823 148.05C237.011 148.09 237.241 148.11 237.513 148.11C237.789 148.11 238.027 148.088 238.227 148.044C238.427 148.004 238.591 147.946 238.719 147.87C238.851 147.798 238.947 147.71 239.007 147.606C239.067 147.506 239.097 147.396 239.097 147.276ZM240.573 141.054V141.606C240.573 141.782 240.467 141.89 240.255 141.93L239.703 142.032C239.787 142.244 239.829 142.476 239.829 142.728C239.829 143.032 239.767 143.308 239.643 143.556C239.523 143.8 239.355 144.008 239.139 144.18C238.923 144.352 238.667 144.486 238.371 144.582C238.079 144.674 237.763 144.72 237.423 144.72C237.303 144.72 237.187 144.714 237.075 144.702C236.963 144.69 236.853 144.674 236.745 144.654C236.553 144.77 236.457 144.9 236.457 145.044C236.457 145.168 236.513 145.26 236.625 145.32C236.741 145.376 236.893 145.416 237.081 145.44C237.269 145.464 237.483 145.48 237.723 145.488C237.963 145.492 238.209 145.504 238.461 145.524C238.713 145.544 238.959 145.58 239.199 145.632C239.439 145.68 239.653 145.758 239.841 145.866C240.029 145.974 240.179 146.122 240.291 146.31C240.407 146.494 240.465 146.732 240.465 147.024C240.465 147.296 240.397 147.56 240.261 147.816C240.129 148.072 239.935 148.3 239.679 148.5C239.427 148.7 239.115 148.86 238.743 148.98C238.375 149.104 237.955 149.166 237.483 149.166C237.019 149.166 236.615 149.12 236.271 149.028C235.927 148.94 235.641 148.82 235.413 148.668C235.185 148.52 235.015 148.348 234.903 148.152C234.791 147.956 234.735 147.752 234.735 147.54C234.735 147.252 234.821 147.012 234.993 146.82C235.169 146.624 235.409 146.468 235.713 146.352C235.549 146.268 235.419 146.156 235.323 146.016C235.227 145.876 235.179 145.692 235.179 145.464C235.179 145.372 235.195 145.278 235.227 145.182C235.263 145.082 235.313 144.984 235.377 144.888C235.445 144.792 235.529 144.702 235.629 144.618C235.729 144.53 235.847 144.452 235.983 144.384C235.671 144.216 235.425 143.992 235.245 143.712C235.069 143.432 234.981 143.104 234.981 142.728C234.981 142.424 235.041 142.15 235.161 141.906C235.285 141.658 235.455 141.448 235.671 141.276C235.891 141.1 236.149 140.966 236.445 140.874C236.745 140.782 237.071 140.736 237.423 140.736C237.687 140.736 237.935 140.764 238.167 140.82C238.399 140.872 238.611 140.95 238.803 141.054H240.573Z" fill="#213E88"/>
</svg>
