<svg width="294" height="180" viewBox="0 0 294 180" fill="none" xmlns="http://www.w3.org/2000/svg">
<path d="M0 0H294V180H0V0Z" fill="white"/>
<path fill-rule="evenodd" clip-rule="evenodd" d="M147 122C171.853 122 192 101.853 192 77C192 52.1472 171.853 32 147 32C122.147 32 102 52.1472 102 77C102 101.853 122.147 122 147 122ZM147 112C166.33 112 182 96.33 182 77C182 57.67 166.33 42 147 42C127.67 42 112 57.67 112 77C112 96.33 127.67 112 147 112Z" fill="#90CDF4"/>
<path d="M148.812 53.3301C148.812 51.0059 145.859 50.1299 144.558 52.0567C132.625 69.7354 149.583 70.5313 149.583 79.125C149.583 82.6045 146.778 85.4199 143.335 85.374C139.946 85.3301 137.25 82.4668 137.25 79.0323V70.6817C137.25 68.5625 134.7 67.5342 133.258 69.0704C130.679 71.8164 128 76.5205 128 82.25C128 92.5889 136.299 101 146.5 101C156.701 101 165 92.5889 165 82.25C165 65.6202 148.812 63.4024 148.812 53.3301V53.3301Z" fill="#213E88"/>
<path d="M62.5594 143.73V140.892C62.5594 140.624 62.5774 140.328 62.6134 140.004L59.9194 143.73H62.5594ZM64.9414 143.73V144.588C64.9414 144.668 64.9154 144.738 64.8634 144.798C64.8114 144.854 64.7374 144.882 64.6414 144.882H63.8494V147H62.5594V144.882H58.8994C58.7994 144.882 58.7114 144.852 58.6354 144.792C58.5594 144.728 58.5114 144.65 58.4914 144.558L58.3354 143.808L62.4454 138.318H63.8494V143.73H64.9414Z" fill="#213E88"/>
<path d="M68.9204 143.73V140.892C68.9204 140.624 68.9384 140.328 68.9744 140.004L66.2804 143.73H68.9204ZM71.3024 143.73V144.588C71.3024 144.668 71.2764 144.738 71.2244 144.798C71.1724 144.854 71.0984 144.882 71.0024 144.882H70.2104V147H68.9204V144.882H65.2604C65.1604 144.882 65.0724 144.852 64.9964 144.792C64.9204 144.728 64.8724 144.65 64.8524 144.558L64.6964 143.808L68.8064 138.318H70.2104V143.73H71.3024Z" fill="#213E88"/>
<path d="M75.4793 140.424C75.4793 140.752 75.4233 141.048 75.3113 141.312C75.2033 141.576 75.0573 141.802 74.8733 141.99C74.6893 142.174 74.4753 142.316 74.2313 142.416C73.9873 142.516 73.7333 142.566 73.4693 142.566C73.1813 142.566 72.9153 142.516 72.6713 142.416C72.4273 142.316 72.2153 142.174 72.0353 141.99C71.8593 141.802 71.7213 141.576 71.6213 141.312C71.5213 141.048 71.4713 140.752 71.4713 140.424C71.4713 140.088 71.5213 139.784 71.6213 139.512C71.7213 139.24 71.8593 139.01 72.0353 138.822C72.2153 138.634 72.4273 138.49 72.6713 138.39C72.9153 138.286 73.1813 138.234 73.4693 138.234C73.7573 138.234 74.0233 138.286 74.2673 138.39C74.5153 138.49 74.7293 138.634 74.9093 138.822C75.0893 139.01 75.2293 139.24 75.3293 139.512C75.4293 139.784 75.4793 140.088 75.4793 140.424ZM74.3393 140.424C74.3393 140.192 74.3153 139.998 74.2673 139.842C74.2233 139.686 74.1613 139.56 74.0813 139.464C74.0053 139.368 73.9133 139.3 73.8053 139.26C73.7013 139.216 73.5893 139.194 73.4693 139.194C73.3493 139.194 73.2373 139.216 73.1333 139.26C73.0293 139.3 72.9393 139.368 72.8633 139.464C72.7913 139.56 72.7333 139.686 72.6893 139.842C72.6453 139.998 72.6233 140.192 72.6233 140.424C72.6233 140.648 72.6453 140.836 72.6893 140.988C72.7333 141.136 72.7913 141.256 72.8633 141.348C72.9393 141.44 73.0293 141.506 73.1333 141.546C73.2373 141.586 73.3493 141.606 73.4693 141.606C73.5893 141.606 73.7013 141.586 73.8053 141.546C73.9133 141.506 74.0053 141.44 74.0813 141.348C74.1613 141.256 74.2233 141.136 74.2673 140.988C74.3153 140.836 74.3393 140.648 74.3393 140.424ZM78.3653 138.558C78.4173 138.498 78.4773 138.444 78.5453 138.396C78.6173 138.348 78.7173 138.324 78.8453 138.324H79.9253L73.4813 146.778C73.4293 146.842 73.3673 146.896 73.2953 146.94C73.2233 146.98 73.1353 147 73.0313 147H71.9273L78.3653 138.558ZM80.3813 144.96C80.3813 145.288 80.3253 145.584 80.2133 145.848C80.1053 146.112 79.9593 146.338 79.7753 146.526C79.5913 146.71 79.3773 146.854 79.1333 146.958C78.8893 147.058 78.6353 147.108 78.3713 147.108C78.0833 147.108 77.8173 147.058 77.5733 146.958C77.3293 146.854 77.1173 146.71 76.9373 146.526C76.7613 146.338 76.6233 146.112 76.5233 145.848C76.4233 145.584 76.3733 145.288 76.3733 144.96C76.3733 144.624 76.4233 144.32 76.5233 144.048C76.6233 143.776 76.7613 143.546 76.9373 143.358C77.1173 143.17 77.3293 143.026 77.5733 142.926C77.8173 142.822 78.0833 142.77 78.3713 142.77C78.6593 142.77 78.9253 142.822 79.1693 142.926C79.4173 143.026 79.6293 143.17 79.8053 143.358C79.9853 143.546 80.1253 143.776 80.2253 144.048C80.3293 144.32 80.3813 144.624 80.3813 144.96ZM79.2353 144.96C79.2353 144.728 79.2133 144.534 79.1693 144.378C79.1253 144.222 79.0633 144.096 78.9833 144C78.9073 143.904 78.8153 143.836 78.7073 143.796C78.6033 143.752 78.4913 143.73 78.3713 143.73C78.2513 143.73 78.1393 143.752 78.0353 143.796C77.9313 143.836 77.8413 143.904 77.7653 144C77.6893 144.096 77.6293 144.222 77.5853 144.378C77.5453 144.534 77.5253 144.728 77.5253 144.96C77.5253 145.184 77.5453 145.372 77.5853 145.524C77.6293 145.676 77.6893 145.798 77.7653 145.89C77.8413 145.982 77.9313 146.048 78.0353 146.088C78.1393 146.128 78.2513 146.148 78.3713 146.148C78.4913 146.148 78.6033 146.128 78.7073 146.088C78.8153 146.048 78.9073 145.982 78.9833 145.89C79.0633 145.798 79.1253 145.676 79.1693 145.524C79.2133 145.372 79.2353 145.184 79.2353 144.96Z" fill="#213E88"/>
<path d="M83.2913 147V140.844H84.1973C84.3893 140.844 84.5153 140.934 84.5753 141.114L84.6713 141.57C84.7793 141.45 84.8913 141.34 85.0073 141.24C85.1273 141.14 85.2533 141.054 85.3853 140.982C85.5213 140.91 85.6653 140.854 85.8173 140.814C85.9733 140.77 86.1433 140.748 86.3273 140.748C86.7153 140.748 87.0333 140.854 87.2813 141.066C87.5333 141.274 87.7213 141.552 87.8453 141.9C87.9413 141.696 88.0613 141.522 88.2053 141.378C88.3493 141.23 88.5073 141.11 88.6793 141.018C88.8513 140.926 89.0333 140.858 89.2253 140.814C89.4213 140.77 89.6173 140.748 89.8133 140.748C90.1533 140.748 90.4553 140.8 90.7193 140.904C90.9833 141.008 91.2053 141.16 91.3853 141.36C91.5653 141.56 91.7013 141.804 91.7933 142.092C91.8893 142.38 91.9373 142.71 91.9373 143.082V147H90.4553V143.082C90.4553 142.69 90.3693 142.396 90.1973 142.2C90.0253 142 89.7733 141.9 89.4413 141.9C89.2893 141.9 89.1473 141.926 89.0153 141.978C88.8873 142.03 88.7733 142.106 88.6733 142.206C88.5773 142.302 88.5013 142.424 88.4453 142.572C88.3893 142.72 88.3613 142.89 88.3613 143.082V147H86.8733V143.082C86.8733 142.67 86.7893 142.37 86.6213 142.182C86.4573 141.994 86.2153 141.9 85.8953 141.9C85.6793 141.9 85.4773 141.954 85.2893 142.062C85.1053 142.166 84.9333 142.31 84.7733 142.494V147H83.2913Z" fill="#213E88"/>
<path d="M96.712 143.214C96.712 143.022 96.684 142.842 96.628 142.674C96.576 142.502 96.496 142.352 96.388 142.224C96.28 142.096 96.142 141.996 95.974 141.924C95.81 141.848 95.618 141.81 95.398 141.81C94.97 141.81 94.632 141.932 94.384 142.176C94.14 142.42 93.984 142.766 93.916 143.214H96.712ZM93.886 144.108C93.91 144.424 93.966 144.698 94.054 144.93C94.142 145.158 94.258 145.348 94.402 145.5C94.546 145.648 94.716 145.76 94.912 145.836C95.112 145.908 95.332 145.944 95.572 145.944C95.812 145.944 96.018 145.916 96.19 145.86C96.366 145.804 96.518 145.742 96.646 145.674C96.778 145.606 96.892 145.544 96.988 145.488C97.088 145.432 97.184 145.404 97.276 145.404C97.4 145.404 97.492 145.45 97.552 145.542L97.978 146.082C97.814 146.274 97.63 146.436 97.426 146.568C97.222 146.696 97.008 146.8 96.784 146.88C96.564 146.956 96.338 147.01 96.106 147.042C95.878 147.074 95.656 147.09 95.44 147.09C95.012 147.09 94.614 147.02 94.246 146.88C93.878 146.736 93.558 146.526 93.286 146.25C93.014 145.97 92.8 145.626 92.644 145.218C92.488 144.806 92.41 144.33 92.41 143.79C92.41 143.37 92.478 142.976 92.614 142.608C92.75 142.236 92.944 141.914 93.196 141.642C93.452 141.366 93.762 141.148 94.126 140.988C94.494 140.828 94.908 140.748 95.368 140.748C95.756 140.748 96.114 140.81 96.442 140.934C96.77 141.058 97.052 141.24 97.288 141.48C97.524 141.716 97.708 142.008 97.84 142.356C97.976 142.7 98.044 143.094 98.044 143.538C98.044 143.762 98.02 143.914 97.972 143.994C97.924 144.07 97.832 144.108 97.696 144.108H93.886Z" fill="#213E88"/>
<path d="M102.522 143.214C102.522 143.022 102.494 142.842 102.438 142.674C102.386 142.502 102.306 142.352 102.198 142.224C102.09 142.096 101.952 141.996 101.784 141.924C101.62 141.848 101.428 141.81 101.208 141.81C100.78 141.81 100.442 141.932 100.194 142.176C99.9502 142.42 99.7942 142.766 99.7262 143.214H102.522ZM99.6962 144.108C99.7202 144.424 99.7762 144.698 99.8642 144.93C99.9522 145.158 100.068 145.348 100.212 145.5C100.356 145.648 100.526 145.76 100.722 145.836C100.922 145.908 101.142 145.944 101.382 145.944C101.622 145.944 101.828 145.916 102 145.86C102.176 145.804 102.328 145.742 102.456 145.674C102.588 145.606 102.702 145.544 102.798 145.488C102.898 145.432 102.994 145.404 103.086 145.404C103.21 145.404 103.302 145.45 103.362 145.542L103.788 146.082C103.624 146.274 103.44 146.436 103.236 146.568C103.032 146.696 102.818 146.8 102.594 146.88C102.374 146.956 102.148 147.01 101.916 147.042C101.688 147.074 101.466 147.09 101.25 147.09C100.822 147.09 100.424 147.02 100.056 146.88C99.6882 146.736 99.3682 146.526 99.0962 146.25C98.8242 145.97 98.6102 145.626 98.4542 145.218C98.2982 144.806 98.2202 144.33 98.2202 143.79C98.2202 143.37 98.2882 142.976 98.4242 142.608C98.5602 142.236 98.7542 141.914 99.0062 141.642C99.2622 141.366 99.5722 141.148 99.9362 140.988C100.304 140.828 100.718 140.748 101.178 140.748C101.566 140.748 101.924 140.81 102.252 140.934C102.58 141.058 102.862 141.24 103.098 141.48C103.334 141.716 103.518 142.008 103.65 142.356C103.786 142.7 103.854 143.094 103.854 143.538C103.854 143.762 103.83 143.914 103.782 143.994C103.734 144.07 103.642 144.108 103.506 144.108H99.6962Z" fill="#213E88"/>
<path d="M105.764 141.912C105.956 141.544 106.184 141.256 106.448 141.048C106.712 140.836 107.024 140.73 107.384 140.73C107.668 140.73 107.896 140.792 108.068 140.916L107.972 142.026C107.952 142.098 107.922 142.15 107.882 142.182C107.846 142.21 107.796 142.224 107.732 142.224C107.672 142.224 107.582 142.214 107.462 142.194C107.346 142.174 107.232 142.164 107.12 142.164C106.956 142.164 106.81 142.188 106.682 142.236C106.554 142.284 106.438 142.354 106.334 142.446C106.234 142.534 106.144 142.642 106.064 142.77C105.988 142.898 105.916 143.044 105.848 143.208V147H104.366V140.844H105.236C105.388 140.844 105.494 140.872 105.554 140.928C105.614 140.98 105.654 141.076 105.674 141.216L105.764 141.912Z" fill="#213E88"/>
<path d="M114.269 143.214C114.269 143.022 114.241 142.842 114.185 142.674C114.133 142.502 114.053 142.352 113.945 142.224C113.837 142.096 113.699 141.996 113.531 141.924C113.367 141.848 113.175 141.81 112.955 141.81C112.527 141.81 112.189 141.932 111.941 142.176C111.697 142.42 111.541 142.766 111.473 143.214H114.269ZM111.443 144.108C111.467 144.424 111.523 144.698 111.611 144.93C111.699 145.158 111.815 145.348 111.959 145.5C112.103 145.648 112.273 145.76 112.469 145.836C112.669 145.908 112.889 145.944 113.129 145.944C113.369 145.944 113.575 145.916 113.747 145.86C113.923 145.804 114.075 145.742 114.203 145.674C114.335 145.606 114.449 145.544 114.545 145.488C114.645 145.432 114.741 145.404 114.833 145.404C114.957 145.404 115.049 145.45 115.109 145.542L115.535 146.082C115.371 146.274 115.187 146.436 114.983 146.568C114.779 146.696 114.565 146.8 114.341 146.88C114.121 146.956 113.895 147.01 113.663 147.042C113.435 147.074 113.213 147.09 112.997 147.09C112.569 147.09 112.171 147.02 111.803 146.88C111.435 146.736 111.115 146.526 110.843 146.25C110.571 145.97 110.357 145.626 110.201 145.218C110.045 144.806 109.967 144.33 109.967 143.79C109.967 143.37 110.035 142.976 110.171 142.608C110.307 142.236 110.501 141.914 110.753 141.642C111.009 141.366 111.319 141.148 111.683 140.988C112.051 140.828 112.465 140.748 112.925 140.748C113.313 140.748 113.671 140.81 113.999 140.934C114.327 141.058 114.609 141.24 114.845 141.48C115.081 141.716 115.265 142.008 115.397 142.356C115.533 142.7 115.601 143.094 115.601 143.538C115.601 143.762 115.577 143.914 115.529 143.994C115.481 144.07 115.389 144.108 115.253 144.108H111.443Z" fill="#213E88"/>
<path d="M117.499 141.6C117.623 141.476 117.753 141.362 117.889 141.258C118.029 141.15 118.175 141.06 118.327 140.988C118.483 140.912 118.649 140.854 118.825 140.814C119.001 140.77 119.193 140.748 119.401 140.748C119.737 140.748 120.035 140.806 120.295 140.922C120.555 141.034 120.771 141.194 120.943 141.402C121.119 141.606 121.251 141.852 121.339 142.14C121.431 142.424 121.477 142.738 121.477 143.082V147H119.995V143.082C119.995 142.706 119.909 142.416 119.737 142.212C119.565 142.004 119.303 141.9 118.951 141.9C118.695 141.9 118.455 141.958 118.231 142.074C118.007 142.19 117.795 142.348 117.595 142.548V147H116.113V140.844H117.019C117.211 140.844 117.337 140.934 117.397 141.114L117.499 141.6Z" fill="#213E88"/>
<path d="M126.253 143.214C126.253 143.022 126.225 142.842 126.169 142.674C126.117 142.502 126.037 142.352 125.929 142.224C125.821 142.096 125.683 141.996 125.515 141.924C125.351 141.848 125.159 141.81 124.939 141.81C124.511 141.81 124.173 141.932 123.925 142.176C123.681 142.42 123.525 142.766 123.457 143.214H126.253ZM123.427 144.108C123.451 144.424 123.507 144.698 123.595 144.93C123.683 145.158 123.799 145.348 123.943 145.5C124.087 145.648 124.257 145.76 124.453 145.836C124.653 145.908 124.873 145.944 125.113 145.944C125.353 145.944 125.559 145.916 125.731 145.86C125.907 145.804 126.059 145.742 126.187 145.674C126.319 145.606 126.433 145.544 126.529 145.488C126.629 145.432 126.725 145.404 126.817 145.404C126.941 145.404 127.033 145.45 127.093 145.542L127.519 146.082C127.355 146.274 127.171 146.436 126.967 146.568C126.763 146.696 126.549 146.8 126.325 146.88C126.105 146.956 125.879 147.01 125.647 147.042C125.419 147.074 125.197 147.09 124.981 147.09C124.553 147.09 124.155 147.02 123.787 146.88C123.419 146.736 123.099 146.526 122.827 146.25C122.555 145.97 122.341 145.626 122.185 145.218C122.029 144.806 121.951 144.33 121.951 143.79C121.951 143.37 122.019 142.976 122.155 142.608C122.291 142.236 122.485 141.914 122.737 141.642C122.993 141.366 123.303 141.148 123.667 140.988C124.035 140.828 124.449 140.748 124.909 140.748C125.297 140.748 125.655 140.81 125.983 140.934C126.311 141.058 126.593 141.24 126.829 141.48C127.065 141.716 127.249 142.008 127.381 142.356C127.517 142.7 127.585 143.094 127.585 143.538C127.585 143.762 127.561 143.914 127.513 143.994C127.465 144.07 127.373 144.108 127.237 144.108H123.427Z" fill="#213E88"/>
<path d="M129.495 141.912C129.687 141.544 129.915 141.256 130.179 141.048C130.443 140.836 130.755 140.73 131.115 140.73C131.399 140.73 131.627 140.792 131.799 140.916L131.703 142.026C131.683 142.098 131.653 142.15 131.613 142.182C131.577 142.21 131.527 142.224 131.463 142.224C131.403 142.224 131.313 142.214 131.193 142.194C131.077 142.174 130.963 142.164 130.851 142.164C130.687 142.164 130.541 142.188 130.413 142.236C130.285 142.284 130.169 142.354 130.065 142.446C129.965 142.534 129.875 142.642 129.795 142.77C129.719 142.898 129.647 143.044 129.579 143.208V147H128.097V140.844H128.967C129.119 140.844 129.225 140.872 129.285 140.928C129.345 140.98 129.385 141.076 129.405 141.216L129.495 141.912Z" fill="#213E88"/>
<path d="M134.153 143.772C134.337 143.772 134.497 143.748 134.633 143.7C134.769 143.648 134.881 143.578 134.969 143.49C135.061 143.402 135.129 143.296 135.173 143.172C135.221 143.048 135.245 142.912 135.245 142.764C135.245 142.46 135.153 142.22 134.969 142.044C134.789 141.864 134.517 141.774 134.153 141.774C133.789 141.774 133.515 141.864 133.331 142.044C133.151 142.22 133.061 142.46 133.061 142.764C133.061 142.908 133.083 143.042 133.127 143.166C133.175 143.29 133.243 143.398 133.331 143.49C133.423 143.578 133.537 143.648 133.673 143.7C133.813 143.748 133.973 143.772 134.153 143.772ZM135.827 147.276C135.827 147.156 135.791 147.058 135.719 146.982C135.647 146.906 135.549 146.848 135.425 146.808C135.301 146.764 135.155 146.732 134.987 146.712C134.823 146.692 134.647 146.678 134.459 146.67C134.275 146.658 134.083 146.648 133.883 146.64C133.687 146.632 133.495 146.616 133.307 146.592C133.143 146.684 133.009 146.792 132.905 146.916C132.805 147.04 132.755 147.184 132.755 147.348C132.755 147.456 132.781 147.556 132.833 147.648C132.889 147.744 132.975 147.826 133.091 147.894C133.211 147.962 133.365 148.014 133.553 148.05C133.741 148.09 133.971 148.11 134.243 148.11C134.519 148.11 134.757 148.088 134.957 148.044C135.157 148.004 135.321 147.946 135.449 147.87C135.581 147.798 135.677 147.71 135.737 147.606C135.797 147.506 135.827 147.396 135.827 147.276ZM137.303 141.054V141.606C137.303 141.782 137.197 141.89 136.985 141.93L136.433 142.032C136.517 142.244 136.559 142.476 136.559 142.728C136.559 143.032 136.497 143.308 136.373 143.556C136.253 143.8 136.085 144.008 135.869 144.18C135.653 144.352 135.397 144.486 135.101 144.582C134.809 144.674 134.493 144.72 134.153 144.72C134.033 144.72 133.917 144.714 133.805 144.702C133.693 144.69 133.583 144.674 133.475 144.654C133.283 144.77 133.187 144.9 133.187 145.044C133.187 145.168 133.243 145.26 133.355 145.32C133.471 145.376 133.623 145.416 133.811 145.44C133.999 145.464 134.213 145.48 134.453 145.488C134.693 145.492 134.939 145.504 135.191 145.524C135.443 145.544 135.689 145.58 135.929 145.632C136.169 145.68 136.383 145.758 136.571 145.866C136.759 145.974 136.909 146.122 137.021 146.31C137.137 146.494 137.195 146.732 137.195 147.024C137.195 147.296 137.127 147.56 136.991 147.816C136.859 148.072 136.665 148.3 136.409 148.5C136.157 148.7 135.845 148.86 135.473 148.98C135.105 149.104 134.685 149.166 134.213 149.166C133.749 149.166 133.345 149.12 133.001 149.028C132.657 148.94 132.371 148.82 132.143 148.668C131.915 148.52 131.745 148.348 131.633 148.152C131.521 147.956 131.465 147.752 131.465 147.54C131.465 147.252 131.551 147.012 131.723 146.82C131.899 146.624 132.139 146.468 132.443 146.352C132.279 146.268 132.149 146.156 132.053 146.016C131.957 145.876 131.909 145.692 131.909 145.464C131.909 145.372 131.925 145.278 131.957 145.182C131.993 145.082 132.043 144.984 132.107 144.888C132.175 144.792 132.259 144.702 132.359 144.618C132.459 144.53 132.577 144.452 132.713 144.384C132.401 144.216 132.155 143.992 131.975 143.712C131.799 143.432 131.711 143.104 131.711 142.728C131.711 142.424 131.771 142.15 131.891 141.906C132.015 141.658 132.185 141.448 132.401 141.276C132.621 141.1 132.879 140.966 133.175 140.874C133.475 140.782 133.801 140.736 134.153 140.736C134.417 140.736 134.665 140.764 134.897 140.82C135.129 140.872 135.341 140.95 135.533 141.054H137.303Z" fill="#213E88"/>
<path d="M139.179 140.844V147H137.691V140.844H139.179ZM139.383 139.05C139.383 139.178 139.357 139.298 139.305 139.41C139.253 139.522 139.183 139.62 139.095 139.704C139.011 139.788 138.911 139.856 138.795 139.908C138.679 139.956 138.555 139.98 138.423 139.98C138.295 139.98 138.173 139.956 138.057 139.908C137.945 139.856 137.847 139.788 137.763 139.704C137.679 139.62 137.611 139.522 137.559 139.41C137.511 139.298 137.487 139.178 137.487 139.05C137.487 138.918 137.511 138.794 137.559 138.678C137.611 138.562 137.679 138.462 137.763 138.378C137.847 138.294 137.945 138.228 138.057 138.18C138.173 138.128 138.295 138.102 138.423 138.102C138.555 138.102 138.679 138.128 138.795 138.18C138.911 138.228 139.011 138.294 139.095 138.378C139.183 138.462 139.253 138.562 139.305 138.678C139.357 138.794 139.383 138.918 139.383 139.05Z" fill="#213E88"/>
<path d="M144.056 143.214C144.056 143.022 144.028 142.842 143.972 142.674C143.92 142.502 143.84 142.352 143.732 142.224C143.624 142.096 143.486 141.996 143.318 141.924C143.154 141.848 142.962 141.81 142.742 141.81C142.314 141.81 141.976 141.932 141.728 142.176C141.484 142.42 141.328 142.766 141.26 143.214H144.056ZM141.23 144.108C141.254 144.424 141.31 144.698 141.398 144.93C141.486 145.158 141.602 145.348 141.746 145.5C141.89 145.648 142.06 145.76 142.256 145.836C142.456 145.908 142.676 145.944 142.916 145.944C143.156 145.944 143.362 145.916 143.534 145.86C143.71 145.804 143.862 145.742 143.99 145.674C144.122 145.606 144.236 145.544 144.332 145.488C144.432 145.432 144.528 145.404 144.62 145.404C144.744 145.404 144.836 145.45 144.896 145.542L145.322 146.082C145.158 146.274 144.974 146.436 144.77 146.568C144.566 146.696 144.352 146.8 144.128 146.88C143.908 146.956 143.682 147.01 143.45 147.042C143.222 147.074 143 147.09 142.784 147.09C142.356 147.09 141.958 147.02 141.59 146.88C141.222 146.736 140.902 146.526 140.63 146.25C140.358 145.97 140.144 145.626 139.988 145.218C139.832 144.806 139.754 144.33 139.754 143.79C139.754 143.37 139.822 142.976 139.958 142.608C140.094 142.236 140.288 141.914 140.54 141.642C140.796 141.366 141.106 141.148 141.47 140.988C141.838 140.828 142.252 140.748 142.712 140.748C143.1 140.748 143.458 140.81 143.786 140.934C144.114 141.058 144.396 141.24 144.632 141.48C144.868 141.716 145.052 142.008 145.184 142.356C145.32 142.7 145.388 143.094 145.388 143.538C145.388 143.762 145.364 143.914 145.316 143.994C145.268 144.07 145.176 144.108 145.04 144.108H141.23Z" fill="#213E88"/>
<path d="M150.468 143.772C150.652 143.772 150.812 143.748 150.948 143.7C151.084 143.648 151.196 143.578 151.284 143.49C151.376 143.402 151.444 143.296 151.488 143.172C151.536 143.048 151.56 142.912 151.56 142.764C151.56 142.46 151.468 142.22 151.284 142.044C151.104 141.864 150.832 141.774 150.468 141.774C150.104 141.774 149.83 141.864 149.646 142.044C149.466 142.22 149.376 142.46 149.376 142.764C149.376 142.908 149.398 143.042 149.442 143.166C149.49 143.29 149.558 143.398 149.646 143.49C149.738 143.578 149.852 143.648 149.988 143.7C150.128 143.748 150.288 143.772 150.468 143.772ZM152.142 147.276C152.142 147.156 152.106 147.058 152.034 146.982C151.962 146.906 151.864 146.848 151.74 146.808C151.616 146.764 151.47 146.732 151.302 146.712C151.138 146.692 150.962 146.678 150.774 146.67C150.59 146.658 150.398 146.648 150.198 146.64C150.002 146.632 149.81 146.616 149.622 146.592C149.458 146.684 149.324 146.792 149.22 146.916C149.12 147.04 149.07 147.184 149.07 147.348C149.07 147.456 149.096 147.556 149.148 147.648C149.204 147.744 149.29 147.826 149.406 147.894C149.526 147.962 149.68 148.014 149.868 148.05C150.056 148.09 150.286 148.11 150.558 148.11C150.834 148.11 151.072 148.088 151.272 148.044C151.472 148.004 151.636 147.946 151.764 147.87C151.896 147.798 151.992 147.71 152.052 147.606C152.112 147.506 152.142 147.396 152.142 147.276ZM153.618 141.054V141.606C153.618 141.782 153.512 141.89 153.3 141.93L152.748 142.032C152.832 142.244 152.874 142.476 152.874 142.728C152.874 143.032 152.812 143.308 152.688 143.556C152.568 143.8 152.4 144.008 152.184 144.18C151.968 144.352 151.712 144.486 151.416 144.582C151.124 144.674 150.808 144.72 150.468 144.72C150.348 144.72 150.232 144.714 150.12 144.702C150.008 144.69 149.898 144.674 149.79 144.654C149.598 144.77 149.502 144.9 149.502 145.044C149.502 145.168 149.558 145.26 149.67 145.32C149.786 145.376 149.938 145.416 150.126 145.44C150.314 145.464 150.528 145.48 150.768 145.488C151.008 145.492 151.254 145.504 151.506 145.524C151.758 145.544 152.004 145.58 152.244 145.632C152.484 145.68 152.698 145.758 152.886 145.866C153.074 145.974 153.224 146.122 153.336 146.31C153.452 146.494 153.51 146.732 153.51 147.024C153.51 147.296 153.442 147.56 153.306 147.816C153.174 148.072 152.98 148.3 152.724 148.5C152.472 148.7 152.16 148.86 151.788 148.98C151.42 149.104 151 149.166 150.528 149.166C150.064 149.166 149.66 149.12 149.316 149.028C148.972 148.94 148.686 148.82 148.458 148.668C148.23 148.52 148.06 148.348 147.948 148.152C147.836 147.956 147.78 147.752 147.78 147.54C147.78 147.252 147.866 147.012 148.038 146.82C148.214 146.624 148.454 146.468 148.758 146.352C148.594 146.268 148.464 146.156 148.368 146.016C148.272 145.876 148.224 145.692 148.224 145.464C148.224 145.372 148.24 145.278 148.272 145.182C148.308 145.082 148.358 144.984 148.422 144.888C148.49 144.792 148.574 144.702 148.674 144.618C148.774 144.53 148.892 144.452 149.028 144.384C148.716 144.216 148.47 143.992 148.29 143.712C148.114 143.432 148.026 143.104 148.026 142.728C148.026 142.424 148.086 142.15 148.206 141.906C148.33 141.658 148.5 141.448 148.716 141.276C148.936 141.1 149.194 140.966 149.49 140.874C149.79 140.782 150.116 140.736 150.468 140.736C150.732 140.736 150.98 140.764 151.212 140.82C151.444 140.872 151.656 140.95 151.848 141.054H153.618Z" fill="#213E88"/>
<path d="M157.818 143.214C157.818 143.022 157.79 142.842 157.734 142.674C157.682 142.502 157.602 142.352 157.494 142.224C157.386 142.096 157.248 141.996 157.08 141.924C156.916 141.848 156.724 141.81 156.504 141.81C156.076 141.81 155.738 141.932 155.49 142.176C155.246 142.42 155.09 142.766 155.022 143.214H157.818ZM154.992 144.108C155.016 144.424 155.072 144.698 155.16 144.93C155.248 145.158 155.364 145.348 155.508 145.5C155.652 145.648 155.822 145.76 156.018 145.836C156.218 145.908 156.438 145.944 156.678 145.944C156.918 145.944 157.124 145.916 157.296 145.86C157.472 145.804 157.624 145.742 157.752 145.674C157.884 145.606 157.998 145.544 158.094 145.488C158.194 145.432 158.29 145.404 158.382 145.404C158.506 145.404 158.598 145.45 158.658 145.542L159.084 146.082C158.92 146.274 158.736 146.436 158.532 146.568C158.328 146.696 158.114 146.8 157.89 146.88C157.67 146.956 157.444 147.01 157.212 147.042C156.984 147.074 156.762 147.09 156.546 147.09C156.118 147.09 155.72 147.02 155.352 146.88C154.984 146.736 154.664 146.526 154.392 146.25C154.12 145.97 153.906 145.626 153.75 145.218C153.594 144.806 153.516 144.33 153.516 143.79C153.516 143.37 153.584 142.976 153.72 142.608C153.856 142.236 154.05 141.914 154.302 141.642C154.558 141.366 154.868 141.148 155.232 140.988C155.6 140.828 156.014 140.748 156.474 140.748C156.862 140.748 157.22 140.81 157.548 140.934C157.876 141.058 158.158 141.24 158.394 141.48C158.63 141.716 158.814 142.008 158.946 142.356C159.082 142.7 159.15 143.094 159.15 143.538C159.15 143.762 159.126 143.914 159.078 143.994C159.03 144.07 158.938 144.108 158.802 144.108H154.992Z" fill="#213E88"/>
<path d="M163.526 142.416C163.358 142.212 163.174 142.068 162.974 141.984C162.778 141.9 162.566 141.858 162.338 141.858C162.114 141.858 161.912 141.9 161.732 141.984C161.552 142.068 161.398 142.196 161.27 142.368C161.142 142.536 161.044 142.752 160.976 143.016C160.908 143.276 160.874 143.584 160.874 143.94C160.874 144.3 160.902 144.606 160.958 144.858C161.018 145.106 161.102 145.31 161.21 145.47C161.318 145.626 161.45 145.74 161.606 145.812C161.762 145.88 161.936 145.914 162.128 145.914C162.436 145.914 162.698 145.85 162.914 145.722C163.13 145.594 163.334 145.412 163.526 145.176V142.416ZM165.008 138.084V147H164.102C163.906 147 163.782 146.91 163.73 146.73L163.604 146.136C163.356 146.42 163.07 146.65 162.746 146.826C162.426 147.002 162.052 147.09 161.624 147.09C161.288 147.09 160.98 147.02 160.7 146.88C160.42 146.74 160.178 146.538 159.974 146.274C159.774 146.006 159.618 145.676 159.506 145.284C159.398 144.892 159.344 144.444 159.344 143.94C159.344 143.484 159.406 143.06 159.53 142.668C159.654 142.276 159.832 141.936 160.064 141.648C160.296 141.36 160.574 141.136 160.898 140.976C161.222 140.812 161.586 140.73 161.99 140.73C162.334 140.73 162.628 140.784 162.872 140.892C163.116 141 163.334 141.146 163.526 141.33V138.084H165.008Z" fill="#213E88"/>
<path d="M171.175 140.844V147H170.269C170.073 147 169.949 146.91 169.897 146.73L169.795 146.238C169.543 146.494 169.265 146.702 168.961 146.862C168.657 147.018 168.299 147.096 167.887 147.096C167.551 147.096 167.253 147.04 166.993 146.928C166.737 146.812 166.521 146.65 166.345 146.442C166.169 146.234 166.035 145.988 165.943 145.704C165.855 145.416 165.811 145.1 165.811 144.756V140.844H167.293V144.756C167.293 145.132 167.379 145.424 167.551 145.632C167.727 145.836 167.989 145.938 168.337 145.938C168.593 145.938 168.833 145.882 169.057 145.77C169.281 145.654 169.493 145.496 169.693 145.296V140.844H171.175Z" fill="#213E88"/>
<path d="M173.442 141.912C173.634 141.544 173.862 141.256 174.126 141.048C174.39 140.836 174.702 140.73 175.062 140.73C175.346 140.73 175.574 140.792 175.746 140.916L175.65 142.026C175.63 142.098 175.6 142.15 175.56 142.182C175.524 142.21 175.474 142.224 175.41 142.224C175.35 142.224 175.26 142.214 175.14 142.194C175.024 142.174 174.91 142.164 174.798 142.164C174.634 142.164 174.488 142.188 174.36 142.236C174.232 142.284 174.116 142.354 174.012 142.446C173.912 142.534 173.822 142.642 173.742 142.77C173.666 142.898 173.594 143.044 173.526 143.208V147H172.044V140.844H172.914C173.066 140.844 173.172 140.872 173.232 140.928C173.292 140.98 173.332 141.076 173.352 141.216L173.442 141.912Z" fill="#213E88"/>
<path d="M179.711 143.214C179.711 143.022 179.683 142.842 179.627 142.674C179.575 142.502 179.495 142.352 179.387 142.224C179.279 142.096 179.141 141.996 178.973 141.924C178.809 141.848 178.617 141.81 178.397 141.81C177.969 141.81 177.631 141.932 177.383 142.176C177.139 142.42 176.983 142.766 176.915 143.214H179.711ZM176.885 144.108C176.909 144.424 176.965 144.698 177.053 144.93C177.141 145.158 177.257 145.348 177.401 145.5C177.545 145.648 177.715 145.76 177.911 145.836C178.111 145.908 178.331 145.944 178.571 145.944C178.811 145.944 179.017 145.916 179.189 145.86C179.365 145.804 179.517 145.742 179.645 145.674C179.777 145.606 179.891 145.544 179.987 145.488C180.087 145.432 180.183 145.404 180.275 145.404C180.399 145.404 180.491 145.45 180.551 145.542L180.977 146.082C180.813 146.274 180.629 146.436 180.425 146.568C180.221 146.696 180.007 146.8 179.783 146.88C179.563 146.956 179.337 147.01 179.105 147.042C178.877 147.074 178.655 147.09 178.439 147.09C178.011 147.09 177.613 147.02 177.245 146.88C176.877 146.736 176.557 146.526 176.285 146.25C176.013 145.97 175.799 145.626 175.643 145.218C175.487 144.806 175.409 144.33 175.409 143.79C175.409 143.37 175.477 142.976 175.613 142.608C175.749 142.236 175.943 141.914 176.195 141.642C176.451 141.366 176.761 141.148 177.125 140.988C177.493 140.828 177.907 140.748 178.367 140.748C178.755 140.748 179.113 140.81 179.441 140.934C179.769 141.058 180.051 141.24 180.287 141.48C180.523 141.716 180.707 142.008 180.839 142.356C180.975 142.7 181.043 143.094 181.043 143.538C181.043 143.762 181.019 143.914 180.971 143.994C180.923 144.07 180.831 144.108 180.695 144.108H176.885Z" fill="#213E88"/>
<path d="M182.941 141.6C183.065 141.476 183.195 141.362 183.331 141.258C183.471 141.15 183.617 141.06 183.769 140.988C183.925 140.912 184.091 140.854 184.267 140.814C184.443 140.77 184.635 140.748 184.843 140.748C185.179 140.748 185.477 140.806 185.737 140.922C185.997 141.034 186.213 141.194 186.385 141.402C186.561 141.606 186.693 141.852 186.781 142.14C186.873 142.424 186.919 142.738 186.919 143.082V147H185.437V143.082C185.437 142.706 185.351 142.416 185.179 142.212C185.007 142.004 184.745 141.9 184.393 141.9C184.137 141.9 183.897 141.958 183.673 142.074C183.449 142.19 183.237 142.348 183.037 142.548V147H181.555V140.844H182.461C182.653 140.844 182.779 140.934 182.839 141.114L182.941 141.6Z" fill="#213E88"/>
<path d="M191.593 142.416C191.425 142.212 191.241 142.068 191.041 141.984C190.845 141.9 190.633 141.858 190.405 141.858C190.181 141.858 189.979 141.9 189.799 141.984C189.619 142.068 189.465 142.196 189.337 142.368C189.209 142.536 189.111 142.752 189.043 143.016C188.975 143.276 188.941 143.584 188.941 143.94C188.941 144.3 188.969 144.606 189.025 144.858C189.085 145.106 189.169 145.31 189.277 145.47C189.385 145.626 189.517 145.74 189.673 145.812C189.829 145.88 190.003 145.914 190.195 145.914C190.503 145.914 190.765 145.85 190.981 145.722C191.197 145.594 191.401 145.412 191.593 145.176V142.416ZM193.075 138.084V147H192.169C191.973 147 191.849 146.91 191.797 146.73L191.671 146.136C191.423 146.42 191.137 146.65 190.813 146.826C190.493 147.002 190.119 147.09 189.691 147.09C189.355 147.09 189.047 147.02 188.767 146.88C188.487 146.74 188.245 146.538 188.041 146.274C187.841 146.006 187.685 145.676 187.573 145.284C187.465 144.892 187.411 144.444 187.411 143.94C187.411 143.484 187.473 143.06 187.597 142.668C187.721 142.276 187.899 141.936 188.131 141.648C188.363 141.36 188.641 141.136 188.965 140.976C189.289 140.812 189.653 140.73 190.057 140.73C190.401 140.73 190.695 140.784 190.939 140.892C191.183 141 191.401 141.146 191.593 141.33V138.084H193.075Z" fill="#213E88"/>
<path d="M197.903 143.214C197.903 143.022 197.875 142.842 197.819 142.674C197.767 142.502 197.687 142.352 197.579 142.224C197.471 142.096 197.333 141.996 197.165 141.924C197.001 141.848 196.809 141.81 196.589 141.81C196.161 141.81 195.823 141.932 195.575 142.176C195.331 142.42 195.175 142.766 195.107 143.214H197.903ZM195.077 144.108C195.101 144.424 195.157 144.698 195.245 144.93C195.333 145.158 195.449 145.348 195.593 145.5C195.737 145.648 195.907 145.76 196.103 145.836C196.303 145.908 196.523 145.944 196.763 145.944C197.003 145.944 197.209 145.916 197.381 145.86C197.557 145.804 197.709 145.742 197.837 145.674C197.969 145.606 198.083 145.544 198.179 145.488C198.279 145.432 198.375 145.404 198.467 145.404C198.591 145.404 198.683 145.45 198.743 145.542L199.169 146.082C199.005 146.274 198.821 146.436 198.617 146.568C198.413 146.696 198.199 146.8 197.975 146.88C197.755 146.956 197.529 147.01 197.297 147.042C197.069 147.074 196.847 147.09 196.631 147.09C196.203 147.09 195.805 147.02 195.437 146.88C195.069 146.736 194.749 146.526 194.477 146.25C194.205 145.97 193.991 145.626 193.835 145.218C193.679 144.806 193.601 144.33 193.601 143.79C193.601 143.37 193.669 142.976 193.805 142.608C193.941 142.236 194.135 141.914 194.387 141.642C194.643 141.366 194.953 141.148 195.317 140.988C195.685 140.828 196.099 140.748 196.559 140.748C196.947 140.748 197.305 140.81 197.633 140.934C197.961 141.058 198.243 141.24 198.479 141.48C198.715 141.716 198.899 142.008 199.031 142.356C199.167 142.7 199.235 143.094 199.235 143.538C199.235 143.762 199.211 143.914 199.163 143.994C199.115 144.07 199.023 144.108 198.887 144.108H195.077Z" fill="#213E88"/>
<path d="M205.93 142.416C205.762 142.212 205.578 142.068 205.378 141.984C205.182 141.9 204.97 141.858 204.742 141.858C204.518 141.858 204.316 141.9 204.136 141.984C203.956 142.068 203.802 142.196 203.674 142.368C203.546 142.536 203.448 142.752 203.38 143.016C203.312 143.276 203.278 143.584 203.278 143.94C203.278 144.3 203.306 144.606 203.362 144.858C203.422 145.106 203.506 145.31 203.614 145.47C203.722 145.626 203.854 145.74 204.01 145.812C204.166 145.88 204.34 145.914 204.532 145.914C204.84 145.914 205.102 145.85 205.318 145.722C205.534 145.594 205.738 145.412 205.93 145.176V142.416ZM207.412 138.084V147H206.506C206.31 147 206.186 146.91 206.134 146.73L206.008 146.136C205.76 146.42 205.474 146.65 205.15 146.826C204.83 147.002 204.456 147.09 204.028 147.09C203.692 147.09 203.384 147.02 203.104 146.88C202.824 146.74 202.582 146.538 202.378 146.274C202.178 146.006 202.022 145.676 201.91 145.284C201.802 144.892 201.748 144.444 201.748 143.94C201.748 143.484 201.81 143.06 201.934 142.668C202.058 142.276 202.236 141.936 202.468 141.648C202.7 141.36 202.978 141.136 203.302 140.976C203.626 140.812 203.99 140.73 204.394 140.73C204.738 140.73 205.032 140.784 205.276 140.892C205.52 141 205.738 141.146 205.93 141.33V138.084H207.412Z" fill="#213E88"/>
<path d="M212.24 143.214C212.24 143.022 212.212 142.842 212.156 142.674C212.104 142.502 212.024 142.352 211.916 142.224C211.808 142.096 211.67 141.996 211.502 141.924C211.338 141.848 211.146 141.81 210.926 141.81C210.498 141.81 210.16 141.932 209.912 142.176C209.668 142.42 209.512 142.766 209.444 143.214H212.24ZM209.414 144.108C209.438 144.424 209.494 144.698 209.582 144.93C209.67 145.158 209.786 145.348 209.93 145.5C210.074 145.648 210.244 145.76 210.44 145.836C210.64 145.908 210.86 145.944 211.1 145.944C211.34 145.944 211.546 145.916 211.718 145.86C211.894 145.804 212.046 145.742 212.174 145.674C212.306 145.606 212.42 145.544 212.516 145.488C212.616 145.432 212.712 145.404 212.804 145.404C212.928 145.404 213.02 145.45 213.08 145.542L213.506 146.082C213.342 146.274 213.158 146.436 212.954 146.568C212.75 146.696 212.536 146.8 212.312 146.88C212.092 146.956 211.866 147.01 211.634 147.042C211.406 147.074 211.184 147.09 210.968 147.09C210.54 147.09 210.142 147.02 209.774 146.88C209.406 146.736 209.086 146.526 208.814 146.25C208.542 145.97 208.328 145.626 208.172 145.218C208.016 144.806 207.938 144.33 207.938 143.79C207.938 143.37 208.006 142.976 208.142 142.608C208.278 142.236 208.472 141.914 208.724 141.642C208.98 141.366 209.29 141.148 209.654 140.988C210.022 140.828 210.436 140.748 210.896 140.748C211.284 140.748 211.642 140.81 211.97 140.934C212.298 141.058 212.58 141.24 212.816 141.48C213.052 141.716 213.236 142.008 213.368 142.356C213.504 142.7 213.572 143.094 213.572 143.538C213.572 143.762 213.548 143.914 213.5 143.994C213.452 144.07 213.36 144.108 213.224 144.108H209.414Z" fill="#213E88"/>
<path d="M220.266 142.416C220.098 142.212 219.914 142.068 219.714 141.984C219.518 141.9 219.306 141.858 219.078 141.858C218.854 141.858 218.652 141.9 218.472 141.984C218.292 142.068 218.138 142.196 218.01 142.368C217.882 142.536 217.784 142.752 217.716 143.016C217.648 143.276 217.614 143.584 217.614 143.94C217.614 144.3 217.642 144.606 217.698 144.858C217.758 145.106 217.842 145.31 217.95 145.47C218.058 145.626 218.19 145.74 218.346 145.812C218.502 145.88 218.676 145.914 218.868 145.914C219.176 145.914 219.438 145.85 219.654 145.722C219.87 145.594 220.074 145.412 220.266 145.176V142.416ZM221.748 138.084V147H220.842C220.646 147 220.522 146.91 220.47 146.73L220.344 146.136C220.096 146.42 219.81 146.65 219.486 146.826C219.166 147.002 218.792 147.09 218.364 147.09C218.028 147.09 217.72 147.02 217.44 146.88C217.16 146.74 216.918 146.538 216.714 146.274C216.514 146.006 216.358 145.676 216.246 145.284C216.138 144.892 216.084 144.444 216.084 143.94C216.084 143.484 216.146 143.06 216.27 142.668C216.394 142.276 216.572 141.936 216.804 141.648C217.036 141.36 217.314 141.136 217.638 140.976C217.962 140.812 218.326 140.73 218.73 140.73C219.074 140.73 219.368 140.784 219.612 140.892C219.856 141 220.074 141.146 220.266 141.33V138.084H221.748Z" fill="#213E88"/>
<path d="M225.863 144.372C225.435 144.392 225.075 144.43 224.783 144.486C224.491 144.538 224.257 144.606 224.081 144.69C223.905 144.774 223.779 144.872 223.703 144.984C223.627 145.096 223.589 145.218 223.589 145.35C223.589 145.61 223.665 145.796 223.817 145.908C223.973 146.02 224.175 146.076 224.423 146.076C224.727 146.076 224.989 146.022 225.209 145.914C225.433 145.802 225.651 145.634 225.863 145.41V144.372ZM222.467 141.702C223.175 141.054 224.027 140.73 225.023 140.73C225.383 140.73 225.705 140.79 225.989 140.91C226.273 141.026 226.513 141.19 226.709 141.402C226.905 141.61 227.053 141.86 227.153 142.152C227.257 142.444 227.309 142.764 227.309 143.112V147H226.637C226.497 147 226.389 146.98 226.313 146.94C226.237 146.896 226.177 146.81 226.133 146.682L226.001 146.238C225.845 146.378 225.693 146.502 225.545 146.61C225.397 146.714 225.243 146.802 225.083 146.874C224.923 146.946 224.751 147 224.567 147.036C224.387 147.076 224.187 147.096 223.967 147.096C223.707 147.096 223.467 147.062 223.247 146.994C223.027 146.922 222.837 146.816 222.677 146.676C222.517 146.536 222.393 146.362 222.305 146.154C222.217 145.946 222.173 145.704 222.173 145.428C222.173 145.272 222.199 145.118 222.251 144.966C222.303 144.81 222.387 144.662 222.503 144.522C222.623 144.382 222.777 144.25 222.965 144.126C223.153 144.002 223.383 143.894 223.655 143.802C223.931 143.71 224.251 143.636 224.615 143.58C224.979 143.52 225.395 143.484 225.863 143.472V143.112C225.863 142.7 225.775 142.396 225.599 142.2C225.423 142 225.169 141.9 224.837 141.9C224.597 141.9 224.397 141.928 224.237 141.984C224.081 142.04 223.943 142.104 223.823 142.176C223.703 142.244 223.593 142.306 223.493 142.362C223.397 142.418 223.289 142.446 223.169 142.446C223.065 142.446 222.977 142.42 222.905 142.368C222.833 142.312 222.775 142.248 222.731 142.176L222.467 141.702Z" fill="#213E88"/>
<path d="M230.355 143.772C230.539 143.772 230.699 143.748 230.835 143.7C230.971 143.648 231.083 143.578 231.171 143.49C231.263 143.402 231.331 143.296 231.375 143.172C231.423 143.048 231.447 142.912 231.447 142.764C231.447 142.46 231.355 142.22 231.171 142.044C230.991 141.864 230.719 141.774 230.355 141.774C229.991 141.774 229.717 141.864 229.533 142.044C229.353 142.22 229.263 142.46 229.263 142.764C229.263 142.908 229.285 143.042 229.329 143.166C229.377 143.29 229.445 143.398 229.533 143.49C229.625 143.578 229.739 143.648 229.875 143.7C230.015 143.748 230.175 143.772 230.355 143.772ZM232.029 147.276C232.029 147.156 231.993 147.058 231.921 146.982C231.849 146.906 231.751 146.848 231.627 146.808C231.503 146.764 231.357 146.732 231.189 146.712C231.025 146.692 230.849 146.678 230.661 146.67C230.477 146.658 230.285 146.648 230.085 146.64C229.889 146.632 229.697 146.616 229.509 146.592C229.345 146.684 229.211 146.792 229.107 146.916C229.007 147.04 228.957 147.184 228.957 147.348C228.957 147.456 228.983 147.556 229.035 147.648C229.091 147.744 229.177 147.826 229.293 147.894C229.413 147.962 229.567 148.014 229.755 148.05C229.943 148.09 230.173 148.11 230.445 148.11C230.721 148.11 230.959 148.088 231.159 148.044C231.359 148.004 231.523 147.946 231.651 147.87C231.783 147.798 231.879 147.71 231.939 147.606C231.999 147.506 232.029 147.396 232.029 147.276ZM233.505 141.054V141.606C233.505 141.782 233.399 141.89 233.187 141.93L232.635 142.032C232.719 142.244 232.761 142.476 232.761 142.728C232.761 143.032 232.699 143.308 232.575 143.556C232.455 143.8 232.287 144.008 232.071 144.18C231.855 144.352 231.599 144.486 231.303 144.582C231.011 144.674 230.695 144.72 230.355 144.72C230.235 144.72 230.119 144.714 230.007 144.702C229.895 144.69 229.785 144.674 229.677 144.654C229.485 144.77 229.389 144.9 229.389 145.044C229.389 145.168 229.445 145.26 229.557 145.32C229.673 145.376 229.825 145.416 230.013 145.44C230.201 145.464 230.415 145.48 230.655 145.488C230.895 145.492 231.141 145.504 231.393 145.524C231.645 145.544 231.891 145.58 232.131 145.632C232.371 145.68 232.585 145.758 232.773 145.866C232.961 145.974 233.111 146.122 233.223 146.31C233.339 146.494 233.397 146.732 233.397 147.024C233.397 147.296 233.329 147.56 233.193 147.816C233.061 148.072 232.867 148.3 232.611 148.5C232.359 148.7 232.047 148.86 231.675 148.98C231.307 149.104 230.887 149.166 230.415 149.166C229.951 149.166 229.547 149.12 229.203 149.028C228.859 148.94 228.573 148.82 228.345 148.668C228.117 148.52 227.947 148.348 227.835 148.152C227.723 147.956 227.667 147.752 227.667 147.54C227.667 147.252 227.753 147.012 227.925 146.82C228.101 146.624 228.341 146.468 228.645 146.352C228.481 146.268 228.351 146.156 228.255 146.016C228.159 145.876 228.111 145.692 228.111 145.464C228.111 145.372 228.127 145.278 228.159 145.182C228.195 145.082 228.245 144.984 228.309 144.888C228.377 144.792 228.461 144.702 228.561 144.618C228.661 144.53 228.779 144.452 228.915 144.384C228.603 144.216 228.357 143.992 228.177 143.712C228.001 143.432 227.913 143.104 227.913 142.728C227.913 142.424 227.973 142.15 228.093 141.906C228.217 141.658 228.387 141.448 228.603 141.276C228.823 141.1 229.081 140.966 229.377 140.874C229.677 140.782 230.003 140.736 230.355 140.736C230.619 140.736 230.867 140.764 231.099 140.82C231.331 140.872 231.543 140.95 231.735 141.054H233.505Z" fill="#213E88"/>
<path d="M121.758 158.492C121.758 159.041 121.825 159.581 121.958 160.112C122.091 160.643 122.282 161.141 122.53 161.608C122.557 161.661 122.571 161.708 122.574 161.748C122.579 161.791 122.577 161.827 122.566 161.856C122.555 161.888 122.538 161.915 122.514 161.936C122.493 161.96 122.469 161.98 122.442 161.996L122.002 162.264C121.805 161.96 121.637 161.655 121.498 161.348C121.359 161.041 121.246 160.732 121.158 160.42C121.07 160.108 121.005 159.792 120.962 159.472C120.922 159.152 120.902 158.825 120.902 158.492C120.902 158.159 120.922 157.832 120.962 157.512C121.005 157.189 121.07 156.872 121.158 156.56C121.246 156.248 121.359 155.94 121.498 155.636C121.637 155.329 121.805 155.024 122.002 154.72L122.442 154.984C122.469 155 122.493 155.02 122.514 155.044C122.538 155.065 122.555 155.092 122.566 155.124C122.577 155.153 122.579 155.189 122.574 155.232C122.571 155.272 122.557 155.32 122.53 155.376C122.282 155.84 122.091 156.339 121.958 156.872C121.825 157.403 121.758 157.943 121.758 158.492Z" fill="#213E88"/>
<path d="M128.319 155.216V155.644C128.319 155.772 128.305 155.876 128.279 155.956C128.252 156.033 128.225 156.099 128.199 156.152L126.007 160.664C125.961 160.757 125.897 160.837 125.815 160.904C125.732 160.968 125.621 161 125.483 161H124.767L127.003 156.58C127.053 156.489 127.103 156.407 127.151 156.332C127.201 156.255 127.257 156.181 127.319 156.112H124.551C124.489 156.112 124.436 156.089 124.391 156.044C124.345 155.999 124.323 155.945 124.323 155.884V155.216H128.319Z" fill="#213E88"/>
<path d="M131.213 159.936C131.325 160.072 131.446 160.168 131.577 160.224C131.71 160.28 131.854 160.308 132.009 160.308C132.158 160.308 132.293 160.28 132.413 160.224C132.533 160.168 132.634 160.083 132.717 159.968C132.802 159.853 132.867 159.709 132.913 159.536C132.958 159.36 132.981 159.153 132.981 158.916C132.981 158.676 132.961 158.473 132.921 158.308C132.883 158.14 132.829 158.004 132.757 157.9C132.685 157.796 132.597 157.72 132.493 157.672C132.391 157.624 132.275 157.6 132.145 157.6C131.939 157.6 131.765 157.644 131.621 157.732C131.477 157.817 131.341 157.939 131.213 158.096V159.936ZM131.161 157.456C131.329 157.267 131.519 157.113 131.733 156.996C131.946 156.879 132.197 156.82 132.485 156.82C132.709 156.82 132.913 156.867 133.097 156.96C133.283 157.053 133.443 157.189 133.577 157.368C133.713 157.544 133.817 157.763 133.889 158.024C133.963 158.283 134.001 158.58 134.001 158.916C134.001 159.223 133.959 159.507 133.877 159.768C133.794 160.029 133.675 160.256 133.521 160.448C133.369 160.64 133.183 160.791 132.965 160.9C132.749 161.007 132.506 161.06 132.237 161.06C132.007 161.06 131.811 161.025 131.649 160.956C131.486 160.884 131.341 160.785 131.213 160.66V162.34H130.225V156.896H130.829C130.957 156.896 131.041 156.956 131.081 157.076L131.161 157.456Z" fill="#213E88"/>
<path d="M137.908 156.896V161H137.304C137.173 161 137.09 160.94 137.056 160.82L136.988 160.492C136.82 160.663 136.634 160.801 136.432 160.908C136.229 161.012 135.99 161.064 135.716 161.064C135.492 161.064 135.293 161.027 135.12 160.952C134.949 160.875 134.805 160.767 134.688 160.628C134.57 160.489 134.481 160.325 134.42 160.136C134.361 159.944 134.332 159.733 134.332 159.504V156.896H135.32V159.504C135.32 159.755 135.377 159.949 135.492 160.088C135.609 160.224 135.784 160.292 136.016 160.292C136.186 160.292 136.346 160.255 136.496 160.18C136.645 160.103 136.786 159.997 136.92 159.864V156.896H137.908Z" fill="#213E88"/>
<path d="M139.411 157.4C139.494 157.317 139.58 157.241 139.671 157.172C139.764 157.1 139.862 157.04 139.963 156.992C140.067 156.941 140.178 156.903 140.295 156.876C140.412 156.847 140.54 156.832 140.679 156.832C140.903 156.832 141.102 156.871 141.275 156.948C141.448 157.023 141.592 157.129 141.707 157.268C141.824 157.404 141.912 157.568 141.971 157.76C142.032 157.949 142.063 158.159 142.063 158.388V161H141.075V158.388C141.075 158.137 141.018 157.944 140.903 157.808C140.788 157.669 140.614 157.6 140.379 157.6C140.208 157.6 140.048 157.639 139.899 157.716C139.75 157.793 139.608 157.899 139.475 158.032V161H138.487V156.896H139.091C139.219 156.896 139.303 156.956 139.343 157.076L139.411 157.4Z" fill="#213E88"/>
<path d="M143.916 161.064C143.559 161.064 143.284 160.964 143.092 160.764C142.903 160.561 142.808 160.283 142.808 159.928V157.636H142.388C142.335 157.636 142.289 157.619 142.252 157.584C142.215 157.549 142.196 157.497 142.196 157.428V157.036L142.856 156.928L143.064 155.808C143.077 155.755 143.103 155.713 143.14 155.684C143.177 155.655 143.225 155.64 143.284 155.64H143.796V156.932H144.892V157.636H143.796V159.86C143.796 159.988 143.827 160.088 143.888 160.16C143.952 160.232 144.039 160.268 144.148 160.268C144.209 160.268 144.26 160.261 144.3 160.248C144.343 160.232 144.379 160.216 144.408 160.2C144.44 160.184 144.468 160.169 144.492 160.156C144.516 160.14 144.54 160.132 144.564 160.132C144.593 160.132 144.617 160.14 144.636 160.156C144.655 160.169 144.675 160.191 144.696 160.22L144.992 160.7C144.848 160.82 144.683 160.911 144.496 160.972C144.309 161.033 144.116 161.064 143.916 161.064Z" fill="#213E88"/>
<path d="M147.737 158.476C147.737 158.348 147.719 158.228 147.681 158.116C147.647 158.001 147.593 157.901 147.521 157.816C147.449 157.731 147.357 157.664 147.245 157.616C147.136 157.565 147.008 157.54 146.861 157.54C146.576 157.54 146.351 157.621 146.185 157.784C146.023 157.947 145.919 158.177 145.873 158.476H147.737ZM145.853 159.072C145.869 159.283 145.907 159.465 145.965 159.62C146.024 159.772 146.101 159.899 146.197 160C146.293 160.099 146.407 160.173 146.537 160.224C146.671 160.272 146.817 160.296 146.977 160.296C147.137 160.296 147.275 160.277 147.389 160.24C147.507 160.203 147.608 160.161 147.693 160.116C147.781 160.071 147.857 160.029 147.921 159.992C147.988 159.955 148.052 159.936 148.113 159.936C148.196 159.936 148.257 159.967 148.297 160.028L148.581 160.388C148.472 160.516 148.349 160.624 148.213 160.712C148.077 160.797 147.935 160.867 147.785 160.92C147.639 160.971 147.488 161.007 147.333 161.028C147.181 161.049 147.033 161.06 146.889 161.06C146.604 161.06 146.339 161.013 146.093 160.92C145.848 160.824 145.635 160.684 145.453 160.5C145.272 160.313 145.129 160.084 145.025 159.812C144.921 159.537 144.869 159.22 144.869 158.86C144.869 158.58 144.915 158.317 145.005 158.072C145.096 157.824 145.225 157.609 145.393 157.428C145.564 157.244 145.771 157.099 146.013 156.992C146.259 156.885 146.535 156.832 146.841 156.832C147.1 156.832 147.339 156.873 147.557 156.956C147.776 157.039 147.964 157.16 148.121 157.32C148.279 157.477 148.401 157.672 148.489 157.904C148.58 158.133 148.625 158.396 148.625 158.692C148.625 158.841 148.609 158.943 148.577 158.996C148.545 159.047 148.484 159.072 148.393 159.072H145.853Z" fill="#213E88"/>
<path d="M149.891 157.4C149.974 157.317 150.06 157.241 150.151 157.172C150.244 157.1 150.342 157.04 150.443 156.992C150.547 156.941 150.658 156.903 150.775 156.876C150.892 156.847 151.02 156.832 151.159 156.832C151.383 156.832 151.582 156.871 151.755 156.948C151.928 157.023 152.072 157.129 152.187 157.268C152.304 157.404 152.392 157.568 152.451 157.76C152.512 157.949 152.543 158.159 152.543 158.388V161H151.555V158.388C151.555 158.137 151.498 157.944 151.383 157.808C151.268 157.669 151.094 157.6 150.859 157.6C150.688 157.6 150.528 157.639 150.379 157.716C150.23 157.793 150.088 157.899 149.955 158.032V161H148.967V156.896H149.571C149.699 156.896 149.783 156.956 149.823 157.076L149.891 157.4Z" fill="#213E88"/>
<path d="M155.586 157.696C155.56 157.739 155.532 157.769 155.502 157.788C155.473 157.804 155.436 157.812 155.39 157.812C155.342 157.812 155.29 157.799 155.234 157.772C155.181 157.745 155.118 157.716 155.046 157.684C154.974 157.649 154.892 157.619 154.798 157.592C154.708 157.565 154.6 157.552 154.474 157.552C154.28 157.552 154.126 157.593 154.014 157.676C153.905 157.759 153.85 157.867 153.85 158C153.85 158.088 153.878 158.163 153.934 158.224C153.993 158.283 154.069 158.335 154.162 158.38C154.258 158.425 154.366 158.467 154.486 158.504C154.606 158.539 154.728 158.577 154.85 158.62C154.976 158.663 155.098 158.712 155.218 158.768C155.338 158.821 155.445 158.891 155.538 158.976C155.634 159.059 155.71 159.159 155.766 159.276C155.825 159.393 155.854 159.535 155.854 159.7C155.854 159.897 155.818 160.08 155.746 160.248C155.677 160.413 155.573 160.557 155.434 160.68C155.296 160.8 155.124 160.895 154.918 160.964C154.716 161.031 154.481 161.064 154.214 161.064C154.073 161.064 153.934 161.051 153.798 161.024C153.665 161 153.536 160.965 153.41 160.92C153.288 160.875 153.173 160.821 153.066 160.76C152.962 160.699 152.87 160.632 152.79 160.56L153.018 160.184C153.048 160.139 153.082 160.104 153.122 160.08C153.162 160.056 153.213 160.044 153.274 160.044C153.336 160.044 153.393 160.061 153.446 160.096C153.502 160.131 153.566 160.168 153.638 160.208C153.71 160.248 153.794 160.285 153.89 160.32C153.989 160.355 154.113 160.372 154.262 160.372C154.38 160.372 154.48 160.359 154.562 160.332C154.648 160.303 154.717 160.265 154.77 160.22C154.826 160.175 154.866 160.123 154.89 160.064C154.917 160.003 154.93 159.94 154.93 159.876C154.93 159.78 154.901 159.701 154.842 159.64C154.786 159.579 154.71 159.525 154.614 159.48C154.521 159.435 154.413 159.395 154.29 159.36C154.17 159.323 154.046 159.283 153.918 159.24C153.793 159.197 153.669 159.148 153.546 159.092C153.426 159.033 153.318 158.96 153.222 158.872C153.129 158.784 153.053 158.676 152.994 158.548C152.938 158.42 152.91 158.265 152.91 158.084C152.91 157.916 152.944 157.756 153.01 157.604C153.077 157.452 153.174 157.32 153.302 157.208C153.433 157.093 153.594 157.003 153.786 156.936C153.981 156.867 154.205 156.832 154.458 156.832C154.741 156.832 154.998 156.879 155.23 156.972C155.462 157.065 155.656 157.188 155.81 157.34L155.586 157.696Z" fill="#213E88"/>
<path d="M159.138 157.764C159.109 157.801 159.079 157.831 159.05 157.852C159.023 157.873 158.983 157.884 158.93 157.884C158.879 157.884 158.83 157.869 158.782 157.84C158.734 157.808 158.677 157.773 158.61 157.736C158.543 157.696 158.463 157.661 158.37 157.632C158.279 157.6 158.166 157.584 158.03 157.584C157.857 157.584 157.705 157.616 157.574 157.68C157.443 157.741 157.334 157.831 157.246 157.948C157.161 158.065 157.097 158.208 157.054 158.376C157.011 158.541 156.99 158.729 156.99 158.94C156.99 159.159 157.013 159.353 157.058 159.524C157.106 159.695 157.174 159.839 157.262 159.956C157.35 160.071 157.457 160.159 157.582 160.22C157.707 160.279 157.849 160.308 158.006 160.308C158.163 160.308 158.29 160.289 158.386 160.252C158.485 160.212 158.567 160.169 158.634 160.124C158.701 160.076 158.758 160.033 158.806 159.996C158.857 159.956 158.913 159.936 158.974 159.936C159.054 159.936 159.114 159.967 159.154 160.028L159.438 160.388C159.329 160.516 159.21 160.624 159.082 160.712C158.954 160.797 158.821 160.867 158.682 160.92C158.546 160.971 158.405 161.007 158.258 161.028C158.114 161.049 157.97 161.06 157.826 161.06C157.573 161.06 157.334 161.013 157.11 160.92C156.886 160.824 156.69 160.685 156.522 160.504C156.354 160.323 156.221 160.101 156.122 159.84C156.026 159.576 155.978 159.276 155.978 158.94C155.978 158.639 156.021 158.36 156.106 158.104C156.194 157.845 156.322 157.623 156.49 157.436C156.658 157.247 156.866 157.099 157.114 156.992C157.362 156.885 157.647 156.832 157.97 156.832C158.277 156.832 158.545 156.881 158.774 156.98C159.006 157.079 159.214 157.22 159.398 157.404L159.138 157.764Z" fill="#213E88"/>
<path d="M160.645 157.336C160.805 157.187 160.981 157.065 161.173 156.972C161.365 156.879 161.591 156.832 161.849 156.832C162.073 156.832 162.272 156.871 162.445 156.948C162.619 157.023 162.763 157.129 162.877 157.268C162.995 157.404 163.083 157.568 163.141 157.76C163.203 157.949 163.233 158.159 163.233 158.388V161H162.245V158.388C162.245 158.137 162.188 157.944 162.073 157.808C161.959 157.669 161.784 157.6 161.549 157.6C161.379 157.6 161.219 157.639 161.069 157.716C160.92 157.793 160.779 157.899 160.645 158.032V161H159.657V155.056H160.645V157.336Z" fill="#213E88"/>
<path d="M165.941 159.248C165.656 159.261 165.416 159.287 165.221 159.324C165.026 159.359 164.87 159.404 164.753 159.46C164.636 159.516 164.552 159.581 164.501 159.656C164.45 159.731 164.425 159.812 164.425 159.9C164.425 160.073 164.476 160.197 164.577 160.272C164.681 160.347 164.816 160.384 164.981 160.384C165.184 160.384 165.358 160.348 165.505 160.276C165.654 160.201 165.8 160.089 165.941 159.94V159.248ZM163.677 157.468C164.149 157.036 164.717 156.82 165.381 156.82C165.621 156.82 165.836 156.86 166.025 156.94C166.214 157.017 166.374 157.127 166.505 157.268C166.636 157.407 166.734 157.573 166.801 157.768C166.87 157.963 166.905 158.176 166.905 158.408V161H166.457C166.364 161 166.292 160.987 166.241 160.96C166.19 160.931 166.15 160.873 166.121 160.788L166.033 160.492C165.929 160.585 165.828 160.668 165.729 160.74C165.63 160.809 165.528 160.868 165.421 160.916C165.314 160.964 165.2 161 165.077 161.024C164.957 161.051 164.824 161.064 164.677 161.064C164.504 161.064 164.344 161.041 164.197 160.996C164.05 160.948 163.924 160.877 163.817 160.784C163.71 160.691 163.628 160.575 163.569 160.436C163.51 160.297 163.481 160.136 163.481 159.952C163.481 159.848 163.498 159.745 163.533 159.644C163.568 159.54 163.624 159.441 163.701 159.348C163.781 159.255 163.884 159.167 164.009 159.084C164.134 159.001 164.288 158.929 164.469 158.868C164.653 158.807 164.866 158.757 165.109 158.72C165.352 158.68 165.629 158.656 165.941 158.648V158.408C165.941 158.133 165.882 157.931 165.765 157.8C165.648 157.667 165.478 157.6 165.257 157.6C165.097 157.6 164.964 157.619 164.857 157.656C164.753 157.693 164.661 157.736 164.581 157.784C164.501 157.829 164.428 157.871 164.361 157.908C164.297 157.945 164.225 157.964 164.145 157.964C164.076 157.964 164.017 157.947 163.969 157.912C163.921 157.875 163.882 157.832 163.853 157.784L163.677 157.468Z" fill="#213E88"/>
<path d="M169.604 159.248C169.318 159.261 169.078 159.287 168.884 159.324C168.689 159.359 168.533 159.404 168.416 159.46C168.298 159.516 168.214 159.581 168.164 159.656C168.113 159.731 168.088 159.812 168.088 159.9C168.088 160.073 168.138 160.197 168.24 160.272C168.344 160.347 168.478 160.384 168.644 160.384C168.846 160.384 169.021 160.348 169.168 160.276C169.317 160.201 169.462 160.089 169.604 159.94V159.248ZM167.34 157.468C167.812 157.036 168.38 156.82 169.044 156.82C169.284 156.82 169.498 156.86 169.688 156.94C169.877 157.017 170.037 157.127 170.168 157.268C170.298 157.407 170.397 157.573 170.464 157.768C170.533 157.963 170.568 158.176 170.568 158.408V161H170.12C170.026 161 169.954 160.987 169.904 160.96C169.853 160.931 169.813 160.873 169.784 160.788L169.696 160.492C169.592 160.585 169.49 160.668 169.392 160.74C169.293 160.809 169.19 160.868 169.084 160.916C168.977 160.964 168.862 161 168.74 161.024C168.62 161.051 168.486 161.064 168.34 161.064C168.166 161.064 168.006 161.041 167.86 160.996C167.713 160.948 167.586 160.877 167.48 160.784C167.373 160.691 167.29 160.575 167.232 160.436C167.173 160.297 167.144 160.136 167.144 159.952C167.144 159.848 167.161 159.745 167.196 159.644C167.23 159.54 167.286 159.441 167.364 159.348C167.444 159.255 167.546 159.167 167.672 159.084C167.797 159.001 167.95 158.929 168.132 158.868C168.316 158.807 168.529 158.757 168.772 158.72C169.014 158.68 169.292 158.656 169.604 158.648V158.408C169.604 158.133 169.545 157.931 169.428 157.8C169.31 157.667 169.141 157.6 168.92 157.6C168.76 157.6 168.626 157.619 168.52 157.656C168.416 157.693 168.324 157.736 168.244 157.784C168.164 157.829 168.09 157.871 168.024 157.908C167.96 157.945 167.888 157.964 167.808 157.964C167.738 157.964 167.68 157.947 167.632 157.912C167.584 157.875 167.545 157.832 167.516 157.784L167.34 157.468Z" fill="#213E88"/>
<path d="M172.098 155.056V161H171.11V155.056H172.098Z" fill="#213E88"/>
<path d="M174.784 158.492C174.784 157.943 174.717 157.403 174.584 156.872C174.453 156.339 174.264 155.84 174.016 155.376C173.986 155.32 173.969 155.272 173.964 155.232C173.961 155.189 173.965 155.153 173.976 155.124C173.986 155.092 174.002 155.065 174.024 155.044C174.048 155.02 174.074 155 174.104 154.984L174.544 154.72C174.741 155.024 174.909 155.329 175.048 155.636C175.186 155.94 175.3 156.248 175.388 156.56C175.476 156.872 175.54 157.189 175.58 157.512C175.62 157.832 175.64 158.159 175.64 158.492C175.64 158.825 175.62 159.152 175.58 159.472C175.54 159.792 175.476 160.108 175.388 160.42C175.3 160.732 175.186 161.041 175.048 161.348C174.909 161.655 174.741 161.96 174.544 162.264L174.104 161.996C174.074 161.98 174.048 161.96 174.024 161.936C174.002 161.915 173.986 161.888 173.976 161.856C173.965 161.827 173.961 161.791 173.964 161.748C173.969 161.708 173.986 161.661 174.016 161.608C174.264 161.141 174.453 160.643 174.584 160.112C174.717 159.581 174.784 159.041 174.784 158.492Z" fill="#213E88"/>
</svg>
